<?xml version="1.0" encoding="UTF-8" standalone="no"?>
<svg width="178px" height="249px" viewBox="0 0 178 249" version="1.1" xmlns="http://www.w3.org/2000/svg" xmlns:xlink="http://www.w3.org/1999/xlink">
    <!-- Generator: Sketch 39.1 (31720) - http://www.bohemiancoding.com/sketch -->
    <title>2D</title>
    <desc>Created with Sketch.</desc>
    <defs></defs>
    <g id="Page-1" stroke="none" stroke-width="1" fill="none" fill-rule="evenodd">
        <path d="M8.698,0.32 L169.476,0.32 C174.172,0.32 177.979,4.13 177.979,8.82 L177.979,240.47 C177.979,245.16 174.172,248.97 169.476,248.97 L8.698,248.97 C4.001,248.97 0.194,245.16 0.194,240.47 L0.194,8.82 C0.194,4.13 4.001,0.32 8.698,0.32" id="Fill-468" fill="#FFFFFF"></path>
        <path d="M89.087,64.67 C84.956,57.84 80.61,51.2 75.181,45.53 C80.61,39.86 84.956,33.22 89.087,26.39 C93.217,33.22 97.563,39.86 102.993,45.53 C97.563,51.2 93.217,57.84 89.087,64.67" id="Fill-470" fill="#C0242A"></path>
        <path d="M13.906,56.12 C12.186,53.27 10.375,50.51 8.112,48.15 C10.375,45.78 12.186,43.02 13.906,40.17 C15.627,43.02 17.438,45.78 19.7,48.15 C17.438,50.51 15.627,53.27 13.906,56.12" id="Fill-471" fill="#C0242A"></path>
        <path d="M164.268,209.12 C162.547,206.28 160.736,203.51 158.473,201.15 C160.736,198.78 162.547,196.02 164.268,193.17 C165.988,196.02 167.799,198.78 170.062,201.15 C167.799,203.51 165.988,206.28 164.268,209.12" id="Fill-472" fill="#C0242A"></path>
        <path d="M89.087,222.9 C84.956,216.07 80.61,209.43 75.181,203.76 C80.61,198.09 84.956,191.45 89.087,184.62 C93.217,191.45 97.563,198.09 102.993,203.76 C97.563,209.43 93.217,216.07 89.087,222.9" id="Fill-473" fill="#C0242A"></path>
        <path d="M6.425,37.61 L6.553,35.99 C6.958,30.98 8.033,29.29 14.138,24.05 C17.101,21.51 18.072,20.26 18.209,18.81 C18.597,15.38 15.569,14.31 13.597,14.3 C11.041,14.27 8.149,15.83 9.529,19.45 L6.662,20.31 C6.085,16.93 6.679,13.77 9.361,12.36 C12.945,10.53 17.541,11.25 19.861,14.13 C21.421,16.07 21.777,18.75 20.94,20.85 C18.496,26.21 10.205,28.57 9.521,34.77 L18.685,34.77 L18.685,31.32 L21.385,31.32 L21.385,37.67 L6.425,37.61" id="Fill-474" fill="#C0242A"></path>
        <path d="M171.746,211.68 L171.618,213.3 C171.214,218.32 170.138,220.01 164.034,225.24 C161.07,227.78 160.099,229.03 159.963,230.48 C159.574,233.91 162.603,234.98 164.574,235 C167.13,235.02 170.021,233.46 168.642,229.84 L171.51,228.98 C172.086,232.36 171.493,235.53 168.81,236.93 C165.226,238.76 160.63,238.04 158.31,235.16 C156.75,233.22 156.395,230.54 157.23,228.44 C159.675,223.08 167.966,220.73 168.649,214.52 L159.486,214.52 L159.486,217.98 L156.786,217.98 L156.786,211.62 L171.746,211.68" id="Fill-475" fill="#C0242A"></path>
    </g>
</svg>