<?xml version="1.0" encoding="UTF-8" standalone="no"?>
<svg width="179px" height="250px" viewBox="0 0 179 250" version="1.1" xmlns="http://www.w3.org/2000/svg" xmlns:xlink="http://www.w3.org/1999/xlink">
    <!-- Generator: Sketch 39.1 (31720) - http://www.bohemiancoding.com/sketch -->
    <title>3S</title>
    <desc>Created with Sketch.</desc>
    <defs></defs>
    <g id="Page-1" stroke="none" stroke-width="1" fill="none" fill-rule="evenodd">
        <path d="M9.28,0.87 L170.06,0.87 C174.75,0.87 178.56,4.68 178.56,9.38 L178.56,241.02 C178.56,245.71 174.75,249.52 170.06,249.52 L9.28,249.52 C4.584,249.52 0.776,245.71 0.776,241.02 L0.776,9.38 C0.776,4.68 4.584,0.87 9.28,0.87" id="Fill-170" fill="#FFFFFF"></path>
        <path d="M14.488,40.72 C11.056,45.09 7.383,47.61 7.321,51.02 C7.301,52.12 7.97,54 10.064,54.36 C11.423,54.59 13.294,53.61 13.333,51.62 C13.325,51.22 13.805,51.23 13.8,51.77 C13.736,53.35 13.178,55.18 12.24,56.67 L16.737,56.67 C15.8,55.18 15.242,53.35 15.178,51.77 C15.17,51.23 15.65,51.22 15.645,51.62 C15.684,53.61 17.555,54.59 18.913,54.36 C21.008,54 21.677,52.12 21.656,51.02 C21.595,47.61 17.922,45.09 14.489,40.72 L14.488,40.72" id="Fill-172" fill="#0A0A08"></path>
        <path d="M164.851,209.67 C161.417,205.3 157.744,202.78 157.683,199.37 C157.662,198.27 158.331,196.39 160.426,196.03 C161.785,195.8 163.656,196.78 163.695,198.78 C163.687,199.17 164.166,199.17 164.161,198.62 C164.098,197.05 163.539,195.21 162.602,193.72 L167.1,193.72 C166.161,195.21 165.604,197.05 165.539,198.62 C165.531,199.17 166.012,199.17 166.006,198.78 C166.045,196.78 167.916,195.8 169.28,196.03 C171.37,196.39 172.04,198.27 172.02,199.37 C171.96,202.78 168.28,205.3 164.851,209.67" id="Fill-173" fill="#0A0A08"></path>
        <path d="M89.669,26.94 C82.321,37.44 74.459,43.47 74.329,51.66 C74.285,54.31 75.716,58.81 80.199,59.68 C83.107,60.23 87.112,57.88 87.196,53.09 C87.184,52.13 88.204,52.16 88.194,53.47 C88.058,57.24 86.863,61.64 84.856,65.22 L94.482,65.22 C92.476,61.64 91.281,57.24 91.145,53.47 C91.135,52.16 92.155,52.13 92.143,53.09 C92.227,57.88 96.23,60.23 99.14,59.68 C103.623,58.81 105.054,54.31 105.01,51.66 C104.88,43.47 97.018,37.44 89.67,26.94 L89.669,26.94" id="Fill-174" fill="#0A0A08"></path>
        <path d="M89.669,223.45 C82.321,212.96 74.459,206.92 74.329,198.73 C74.285,196.08 75.716,191.58 80.199,190.72 C83.107,190.16 87.112,192.52 87.196,197.31 C87.184,198.26 88.204,198.23 88.194,196.93 C88.058,193.15 86.863,188.75 84.856,185.17 L94.482,185.17 C92.476,188.75 91.281,193.15 91.145,196.93 C91.135,198.23 92.155,198.26 92.143,197.31 C92.227,192.52 96.23,190.16 99.14,190.72 C103.623,191.58 105.054,196.08 105.01,198.73 C104.88,206.92 97.018,212.96 89.67,223.45 L89.669,223.45" id="Fill-175" fill="#0A0A08"></path>
        <path d="M89.669,106.06 C82.321,116.55 74.459,122.59 74.329,130.77 C74.285,133.42 75.716,137.93 80.199,138.79 C83.107,139.35 87.112,136.99 87.196,132.2 C87.184,131.25 88.204,131.27 88.194,132.58 C88.058,136.36 86.863,140.76 84.856,144.33 L94.482,144.33 C92.476,140.76 91.281,136.36 91.145,132.58 C91.135,131.27 92.155,131.25 92.143,132.2 C92.227,136.99 96.23,139.35 99.14,138.79 C103.623,137.93 105.054,133.42 105.01,130.77 C104.88,122.59 97.018,116.55 89.67,106.06 L89.669,106.06" id="Fill-176" fill="#0A0A08"></path>
        <path d="M5.958,32.45 L7.981,30.96 C9.737,33.83 11.701,35.71 14.705,35.39 C19.213,35.08 21.081,30.35 20.138,26.78 C19.226,23.58 15.493,22.03 12.525,23.73 C11.825,24.14 11.149,24.46 11.018,24.46 C10.706,24.46 10.002,23.06 10.098,22.63 C12.089,19.72 16.926,14.62 16.926,14.62 L9.37,14.62 L9.37,18.04 L6.47,18.04 L6.47,11.91 L21.237,11.91 L21.237,13.99 C21.237,13.99 17.281,18.09 15.974,20.34 C19.193,20.46 21.789,22.51 22.721,25.74 C23.265,27.44 23.021,31.33 22.31,33.01 C21.121,35.8 17.874,38.07 14.905,38.2 C9.922,38.53 7.277,35.04 5.958,32.45" id="Fill-177" fill="#0A0A08"></path>
        <path d="M173.38,217.94 L171.36,219.43 C169.6,216.57 167.636,214.68 164.631,215 C160.124,215.32 158.256,220.05 159.199,223.61 C160.111,226.81 163.844,228.37 166.812,226.66 C167.512,226.26 168.19,225.93 168.32,225.93 C168.63,225.93 169.33,227.33 169.24,227.76 C167.248,230.67 162.411,235.77 162.411,235.77 L169.97,235.77 L169.97,232.36 L172.87,232.36 L172.87,238.49 L158.1,238.49 L158.1,236.41 C158.1,236.41 162.056,232.3 163.363,230.05 C160.144,229.93 157.548,227.89 156.616,224.66 C156.072,222.96 156.315,219.07 157.027,217.39 C158.216,214.59 161.463,212.33 164.432,212.19 C169.42,211.86 172.06,215.36 173.38,217.94" id="Fill-178" fill="#0A0A08"></path>
    </g>
</svg>