<?xml version="1.0" encoding="UTF-8" standalone="no"?>
<svg width="179px" height="250px" viewBox="0 0 179 250" version="1.1" xmlns="http://www.w3.org/2000/svg" xmlns:xlink="http://www.w3.org/1999/xlink">
    <!-- Generator: Sketch 39.1 (31720) - http://www.bohemiancoding.com/sketch -->
    <title>5S</title>
    <desc>Created with Sketch.</desc>
    <defs></defs>
    <g id="Page-1" stroke="none" stroke-width="1" fill="none" fill-rule="evenodd">
        <path d="M170.22,249.52 L9.45,249.52 C4.75,249.52 0.94,245.71 0.94,241.02 L0.94,9.38 C0.94,4.68 4.75,0.87 9.45,0.87 L170.22,0.87 C174.92,0.87 178.73,4.68 178.73,9.38 L178.73,241.02 C178.73,245.71 174.92,249.52 170.22,249.52" id="Fill-189" fill="#FFFFFF"></path>
        <path d="M131.06,223.45 C138.41,212.96 146.27,206.92 146.4,198.73 C146.45,196.08 145.02,191.58 140.53,190.72 C137.63,190.16 133.62,192.52 133.54,197.31 C133.55,198.26 132.53,198.23 132.54,196.93 C132.67,193.15 133.87,188.75 135.88,185.17 L126.25,185.17 C128.26,188.75 129.45,193.15 129.59,196.93 C129.6,198.23 128.58,198.26 128.59,197.31 C128.51,192.52 124.5,190.16 121.59,190.72 C117.11,191.58 115.68,196.08 115.72,198.73 C115.85,206.92 123.71,212.96 131.06,223.45" id="Fill-191" fill="#0A0A08"></path>
        <path d="M165.02,209.67 C168.45,205.3 172.12,202.78 172.18,199.37 C172.2,198.27 171.53,196.39 169.44,196.03 C168.08,195.8 166.21,196.78 166.17,198.78 C166.18,199.17 165.7,199.17 165.7,198.62 C165.77,197.05 166.33,195.21 167.26,193.72 L162.77,193.72 C163.7,195.21 164.26,197.05 164.33,198.62 C164.33,199.17 163.85,199.17 163.86,198.78 C163.82,196.78 161.95,195.8 160.59,196.03 C158.5,196.39 157.83,198.27 157.85,199.37 C157.91,202.78 161.58,205.3 165.02,209.67" id="Fill-192" fill="#0A0A08"></path>
        <path d="M14.65,40.72 C18.09,45.09 21.76,47.61 21.82,51.02 C21.84,52.12 21.17,54 19.08,54.36 C17.72,54.59 15.85,53.61 15.81,51.62 C15.82,51.22 15.34,51.23 15.34,51.77 C15.41,53.35 15.96,55.18 16.9,56.67 L12.41,56.67 C13.34,55.18 13.9,53.35 13.96,51.77 C13.97,51.23 13.49,51.22 13.5,51.62 C13.46,53.61 11.59,54.59 10.23,54.36 C8.13,54 7.47,52.12 7.49,51.02 C7.55,47.61 11.22,45.09 14.65,40.72" id="Fill-193" fill="#0A0A08"></path>
        <path d="M48.61,223.45 C55.95,212.96 63.82,206.92 63.95,198.73 C63.99,196.08 62.56,191.58 58.08,190.72 C55.17,190.16 51.16,192.52 51.08,197.31 C51.09,198.26 50.07,198.23 50.08,196.93 C50.22,193.15 51.41,188.75 53.42,185.17 L43.79,185.17 C45.8,188.75 47,193.15 47.13,196.93 C47.14,198.23 46.12,198.26 46.13,197.31 C46.05,192.52 42.04,190.16 39.14,190.72 C34.65,191.58 33.22,196.08 33.27,198.73 C33.4,206.92 41.26,212.96 48.61,223.45" id="Fill-194" fill="#0A0A08"></path>
        <path d="M131.06,26.94 C138.41,37.44 146.27,43.47 146.4,51.66 C146.45,54.31 145.02,58.81 140.53,59.68 C137.63,60.23 133.62,57.88 133.54,53.09 C133.55,52.13 132.53,52.16 132.54,53.47 C132.67,57.24 133.87,61.64 135.88,65.22 L126.25,65.22 C128.26,61.64 129.45,57.24 129.59,53.47 C129.6,52.16 128.58,52.13 128.59,53.09 C128.51,57.88 124.5,60.23 121.59,59.68 C117.11,58.81 115.68,54.31 115.72,51.66 C115.85,43.47 123.71,37.44 131.06,26.94" id="Fill-195" fill="#0A0A08"></path>
        <path d="M48.61,26.94 C55.95,37.44 63.82,43.47 63.95,51.66 C63.99,54.31 62.56,58.81 58.08,59.68 C55.17,60.23 51.16,57.88 51.08,53.09 C51.09,52.13 50.07,52.16 50.08,53.47 C50.22,57.24 51.41,61.64 53.42,65.22 L43.79,65.22 C45.8,61.64 47,57.24 47.13,53.47 C47.14,52.16 46.12,52.13 46.13,53.09 C46.05,57.88 42.04,60.23 39.14,59.68 C34.65,58.81 33.22,54.31 33.27,51.66 C33.4,43.47 41.26,37.44 48.61,26.94" id="Fill-196" fill="#0A0A08"></path>
        <path d="M89.83,144.33 C97.18,133.84 105.04,127.81 105.18,119.62 C105.22,116.97 103.79,112.46 99.3,111.6 C96.4,111.04 92.39,113.4 92.31,118.19 C92.32,119.14 91.3,119.12 91.31,117.81 C91.45,114.04 92.64,109.64 94.65,106.06 L85.02,106.06 C87.03,109.64 88.22,114.04 88.36,117.81 C88.37,119.12 87.35,119.14 87.36,118.19 C87.28,113.4 83.27,111.04 80.36,111.6 C75.88,112.46 74.45,116.97 74.49,119.62 C74.63,127.81 82.49,133.84 89.83,144.33" id="Fill-197" fill="#0A0A08"></path>
        <path d="M173.3,218.98 L170.72,219.01 C170.23,217.42 169.15,215.81 167.67,215.36 C163.5,214.36 160.81,216.74 159.93,219.48 C158.86,222.8 159.95,227.47 162.83,229.13 C165.21,230.5 168.74,229.34 170.37,226.41 L172.17,227.53 L171.2,238.49 L159.41,238.49 L159.41,235.9 L168.96,235.9 L169.12,231.33 C167.06,232.81 163.9,232.79 161.85,231.76 C157.95,229.86 156.15,225.56 156.9,220.49 C157.95,215.44 160.26,212.58 165.48,212.17 C171.28,212.12 173.33,216.19 173.3,218.98" id="Fill-198" fill="#0A0A08"></path>
        <path d="M6.37,31.41 L8.95,31.38 C9.44,32.97 10.53,34.59 12,35.04 C16.17,36.03 18.86,33.66 19.74,30.92 C20.81,27.59 19.72,22.92 16.85,21.26 C14.47,19.89 10.93,21.05 9.31,23.99 L7.5,22.86 L8.47,11.91 L20.26,11.91 L20.26,14.5 L10.71,14.5 L10.55,19.06 C12.61,17.59 15.77,17.6 17.83,18.64 C21.72,20.53 23.53,24.83 22.77,29.91 C21.72,34.95 19.41,37.81 14.2,38.22 C8.39,38.27 6.35,34.21 6.37,31.41" id="Fill-199" fill="#0A0A08"></path>
    </g>
</svg>