<?xml version="1.0" encoding="UTF-8" standalone="no"?>
<svg width="179px" height="249px" viewBox="0 0 179 249" version="1.1" xmlns="http://www.w3.org/2000/svg" xmlns:xlink="http://www.w3.org/1999/xlink">
    <!-- Generator: Sketch 39.1 (31720) - http://www.bohemiancoding.com/sketch -->
    <title>6D</title>
    <desc>Created with Sketch.</desc>
    <defs></defs>
    <g id="Page-1" stroke="none" stroke-width="1" fill="none" fill-rule="evenodd">
        <path d="M9.03,0.32 L169.81,0.32 C174.5,0.32 178.31,4.13 178.31,8.82 L178.31,240.47 C178.31,245.16 174.5,248.97 169.81,248.97 L9.03,248.97 C4.33,248.97 0.52,245.16 0.52,240.47 L0.52,8.82 C0.52,4.13 4.33,0.32 9.03,0.32" id="Fill-506" fill="#FFFFFF"></path>
        <path d="M14.24,56.12 C12.52,53.27 10.71,50.51 8.44,48.15 C10.71,45.78 12.52,43.02 14.24,40.17 C15.96,43.02 17.77,45.78 20.03,48.15 C17.77,50.51 15.96,53.27 14.24,56.12" id="Fill-508" fill="#C0242A"></path>
        <path d="M130.65,64.67 C126.51,57.84 122.17,51.2 116.74,45.53 C122.17,39.86 126.51,33.22 130.65,26.39 C134.78,33.22 139.12,39.86 144.55,45.53 C139.12,51.2 134.78,57.84 130.65,64.67" id="Fill-509" fill="#C0242A"></path>
        <path d="M164.6,209.12 C162.88,206.28 161.07,203.51 158.8,201.15 C161.07,198.78 162.88,196.02 164.6,193.17 C166.32,196.02 168.13,198.78 170.39,201.15 C168.13,203.51 166.32,206.28 164.6,209.12" id="Fill-510" fill="#C0242A"></path>
        <path d="M48.19,64.67 C44.06,57.84 39.71,51.2 34.28,45.53 C39.71,39.86 44.06,33.22 48.19,26.39 C52.32,33.22 56.67,39.86 62.1,45.53 C56.67,51.2 52.32,57.84 48.19,64.67" id="Fill-511" fill="#C0242A"></path>
        <path d="M48.19,143.76 C44.06,136.93 39.71,130.29 34.28,124.62 C39.71,118.95 44.06,112.31 48.19,105.48 C52.32,112.31 56.67,118.95 62.1,124.62 C56.67,130.29 52.32,136.93 48.19,143.76" id="Fill-512" fill="#C0242A"></path>
        <path d="M130.65,143.77 C126.51,136.94 122.17,130.3 116.74,124.63 C122.17,118.96 126.51,112.32 130.65,105.49 C134.78,112.32 139.12,118.96 144.55,124.63 C139.12,130.3 134.78,136.94 130.65,143.77" id="Fill-513" fill="#C0242A"></path>
        <path d="M48.19,222.9 C44.06,216.07 39.71,209.44 34.28,203.76 C39.71,198.09 44.06,191.46 48.19,184.63 C52.32,191.46 56.67,198.09 62.1,203.76 C56.67,209.44 52.32,216.07 48.19,222.9" id="Fill-514" fill="#C0242A"></path>
        <path d="M130.65,222.91 C126.51,216.08 122.17,209.44 116.74,203.77 C122.17,198.1 126.51,191.46 130.65,184.63 C134.78,191.46 139.12,198.1 144.55,203.77 C139.12,209.44 134.78,216.08 130.65,222.91" id="Fill-515" fill="#C0242A"></path>
        <path d="M19.63,28.2 C19.66,24.59 18.02,21.88 14.92,21.59 C11.83,21.29 8.7,24.32 8.92,28 C9.13,31.69 10.56,34.8 14.32,34.78 C18.36,34.77 19.61,30.77 19.63,28.2 L19.63,28.2 Z M6.52,29.57 C6.19,27.36 6.2,21.63 6.47,19.94 C7.28,14.75 9.26,12.38 12.58,11.6 C15.8,10.85 20.32,11.69 21.31,16.02 L18.62,16.08 C17.17,13.14 13.48,13.93 11.41,15.2 C9.75,16.22 9,20.46 9.32,20.72 C9.32,20.72 12.45,18.4 14.92,18.57 C20.2,19.12 22.37,23.7 22.19,28.03 C22.02,33.23 20.37,37.39 14.78,37.67 C9.47,37.46 7.03,34.56 6.52,29.58 L6.52,29.57 L6.52,29.57 Z" id="Fill-516" fill="#C0242A"></path>
        <path d="M159.2,221.09 C159.17,224.7 160.81,227.41 163.91,227.7 C167.01,228 170.13,224.98 169.92,221.3 C169.7,217.6 168.27,214.49 164.51,214.51 C160.48,214.52 159.22,218.52 159.2,221.09 L159.2,221.09 Z M172.32,219.72 C172.64,221.93 172.63,227.66 172.37,229.35 C171.55,234.54 169.57,236.92 166.25,237.69 C163.04,238.45 158.51,237.6 157.52,233.27 L160.21,233.22 C161.67,236.15 165.35,235.36 167.43,234.09 C169.08,233.07 169.83,228.83 169.51,228.57 C169.51,228.57 166.38,230.89 163.91,230.72 C158.63,230.17 156.46,225.59 156.64,221.26 C156.81,216.06 158.46,211.9 164.05,211.62 C169.37,211.83 171.8,214.73 172.32,219.72 L172.32,219.72 Z" id="Fill-517" fill="#C0242A"></path>
    </g>
</svg>