<?xml version="1.0" encoding="UTF-8" standalone="no"?>
<svg width="178px" height="250px" viewBox="0 0 178 250" version="1.1" xmlns="http://www.w3.org/2000/svg" xmlns:xlink="http://www.w3.org/1999/xlink">
    <!-- Generator: Sketch 39.1 (31720) - http://www.bohemiancoding.com/sketch -->
    <title>7C</title>
    <desc>Created with Sketch.</desc>
    <defs></defs>
    <g id="Page-1" stroke="none" stroke-width="1" fill="none" fill-rule="evenodd">
        <path d="M8.61,0.973 L169.39,0.973 C174.08,0.973 177.89,4.779 177.89,9.477 L177.89,241.12 C177.89,245.82 174.08,249.62 169.39,249.62 L8.61,249.62 C3.91,249.62 0.11,245.82 0.11,241.12 L0.11,9.477 C0.11,4.779 3.91,0.973 8.61,0.973" id="Fill-59" fill="#FFFFFF"></path>
        <path d="M130.22,27.376 C122.41,27.546 118.9,36.35 124.69,43.187 C125.53,44.184 125.62,44.756 124.08,43.799 C120.18,41.191 112.7,42.905 112.32,50.876 C111.85,60.698 125.57,63.527 128.15,53.084 C128.28,51.982 129.18,52.008 128.96,53.571 C128.73,57.816 127.4,61.784 125.58,65.653 L134.88,65.653 C133.05,61.784 131.73,57.816 131.49,53.571 C131.28,52.008 132.17,51.982 132.31,53.084 C134.88,63.527 148.61,60.698 148.14,50.876 C147.75,42.905 140.28,41.191 136.38,43.799 C134.84,44.756 134.93,44.185 135.77,43.187 C141.56,36.35 138.05,27.546 130.23,27.376 C130.23,27.376 130.23,27.376 130.22,27.376" id="Fill-61" fill="#0A0A08"></path>
        <path d="M47.77,27.376 C39.95,27.546 36.44,36.35 42.23,43.187 C43.07,44.184 43.16,44.756 41.62,43.799 C37.72,41.191 30.25,42.905 29.86,50.876 C29.39,60.698 43.11,63.527 45.69,53.084 C45.83,51.982 46.72,52.008 46.51,53.571 C46.27,57.816 44.95,61.784 43.12,65.653 L52.42,65.653 C50.6,61.784 49.27,57.816 49.04,53.571 C48.82,52.008 49.72,51.982 49.85,53.084 C52.43,63.527 66.15,60.698 65.68,50.876 C65.3,42.905 57.82,41.191 53.92,43.799 C52.38,44.756 52.47,44.185 53.31,43.187 C59.1,36.35 55.59,27.546 47.77,27.376" id="Fill-62" fill="#0A0A08"></path>
        <path d="M130.22,223.88 C122.41,223.71 118.9,214.91 124.69,208.07 C125.53,207.08 125.62,206.5 124.08,207.46 C120.18,210.07 112.7,208.35 112.32,200.38 C111.85,190.56 125.57,187.73 128.15,198.17 C128.28,199.28 129.18,199.25 128.96,197.69 C128.73,193.44 127.4,189.47 125.58,185.61 L134.88,185.61 C133.05,189.47 131.73,193.44 131.49,197.69 C131.28,199.25 132.17,199.28 132.31,198.17 C134.88,187.73 148.61,190.56 148.14,200.38 C147.75,208.35 140.28,210.07 136.38,207.46 C134.84,206.5 134.93,207.08 135.77,208.07 C141.56,214.91 138.05,223.71 130.23,223.88 C130.23,223.88 130.23,223.88 130.22,223.88" id="Fill-63" fill="#0A0A08"></path>
        <path d="M47.77,223.88 C39.95,223.71 36.44,214.91 42.23,208.07 C43.07,207.08 43.16,206.5 41.62,207.46 C37.72,210.07 30.25,208.35 29.86,200.38 C29.39,190.56 43.11,187.73 45.69,198.17 C45.83,199.28 46.72,199.25 46.51,197.69 C46.27,193.44 44.95,189.47 43.12,185.61 L52.42,185.61 C50.6,189.47 49.27,193.44 49.04,197.69 C48.82,199.25 49.72,199.28 49.85,198.17 C52.43,187.73 66.15,190.56 65.68,200.38 C65.3,208.35 57.82,210.07 53.92,207.46 C52.38,206.5 52.47,207.08 53.31,208.07 C59.1,214.91 55.59,223.71 47.77,223.88" id="Fill-64" fill="#0A0A08"></path>
        <path d="M89,66.934 C81.18,67.104 77.67,75.907 83.46,82.744 C84.3,83.741 84.39,84.313 82.85,83.356 C78.95,80.749 71.47,82.463 71.09,90.43 C70.62,100.26 84.34,103.08 86.92,92.64 C87.05,91.54 87.95,91.56 87.73,93.13 C87.5,97.37 86.17,101.34 84.35,105.21 L93.65,105.21 C91.83,101.34 90.5,97.37 90.26,93.13 C90.05,91.56 90.94,91.54 91.08,92.64 C93.66,103.08 107.38,100.26 106.91,90.43 C106.52,82.463 99.05,80.749 95.15,83.356 C93.61,84.313 93.7,83.741 94.54,82.744 C100.33,75.907 96.82,67.104 89,66.934" id="Fill-65" fill="#0A0A08"></path>
        <path d="M130.22,106.49 C122.41,106.66 118.9,115.46 124.69,122.3 C125.53,123.3 125.62,123.87 124.08,122.91 C120.18,120.31 112.7,122.02 112.32,129.99 C111.85,139.81 125.57,142.64 128.15,132.2 C128.28,131.1 129.18,131.12 128.96,132.69 C128.73,136.93 127.4,140.9 125.58,144.77 L134.88,144.77 C133.05,140.9 131.73,136.93 131.49,132.69 C131.28,131.12 132.17,131.1 132.31,132.2 C134.88,142.64 148.61,139.81 148.14,129.99 C147.75,122.02 140.28,120.31 136.38,122.91 C134.84,123.87 134.93,123.3 135.77,122.3 C141.56,115.46 138.05,106.66 130.23,106.49 C130.23,106.49 130.23,106.49 130.22,106.49" id="Fill-66" fill="#0A0A08"></path>
        <path d="M47.77,106.49 C39.95,106.66 36.44,115.46 42.23,122.3 C43.07,123.3 43.16,123.87 41.62,122.91 C37.72,120.31 30.25,122.02 29.86,129.99 C29.39,139.81 43.11,142.64 45.69,132.2 C45.83,131.1 46.72,131.12 46.51,132.69 C46.27,136.93 44.95,140.9 43.12,144.77 L52.42,144.77 C50.6,140.9 49.27,136.93 49.04,132.69 C48.82,131.12 49.72,131.1 49.85,132.2 C52.43,142.64 66.15,139.81 65.68,129.99 C65.3,122.02 57.82,120.31 53.92,122.91 C52.38,123.87 52.47,123.3 53.31,122.3 C59.1,115.46 55.59,106.66 47.77,106.49" id="Fill-67" fill="#0A0A08"></path>
        <path d="M164.18,209.77 C167.31,209.7 168.71,206.03 166.4,203.19 C166.06,202.77 166.03,202.53 166.64,202.93 C168.2,204.02 171.19,203.3 171.34,199.98 C171.53,195.89 166.04,194.71 165.01,199.06 C164.96,199.52 164.6,199.51 164.69,198.86 C164.78,197.09 165.31,195.44 166.04,193.82 L162.32,193.82 C163.05,195.44 163.58,197.09 163.67,198.86 C163.76,199.51 163.4,199.52 163.35,199.06 C162.32,194.71 156.83,195.89 157.02,199.98 C157.17,203.3 160.16,204.02 161.72,202.93 C162.34,202.53 162.3,202.77 161.97,203.19 C159.65,206.03 161.05,209.7 164.18,209.77" id="Fill-68" fill="#0A0A08"></path>
        <path d="M13.82,40.823 C10.69,40.894 9.29,44.563 11.6,47.411 C11.94,47.826 11.98,48.064 11.36,47.666 C9.8,46.579 6.81,47.294 6.66,50.615 C6.47,54.707 11.96,55.887 12.99,51.535 C13.04,51.076 13.4,51.086 13.31,51.738 C13.22,53.507 12.69,55.16 11.96,56.772 L15.68,56.772 C14.95,55.16 14.42,53.507 14.33,51.738 C14.24,51.086 14.6,51.075 14.65,51.535 C15.68,55.887 21.17,54.707 20.98,50.615 C20.83,47.294 17.84,46.579 16.28,47.666 C15.66,48.064 15.7,47.826 16.04,47.411 C18.35,44.563 16.95,40.894 13.82,40.823" id="Fill-69" fill="#0A0A08"></path>
        <path d="M9.78,38.32 C11.51,29.171 13.35,22.302 18.18,14.848 L8.36,14.848 L8.36,18.057 L5.75,18.057 L5.75,12.007 L20.11,12.007 L21.89,14.848 C16.75,20.456 12.06,38.585 12.89,38.32 L9.78,38.32" id="Fill-70" fill="#0A0A08"></path>
        <path d="M168.22,212.28 C166.49,221.43 164.65,228.29 159.82,235.75 L169.64,235.75 L169.64,232.54 L172.25,232.54 L172.25,238.59 L157.88,238.59 L156.11,235.75 C161.24,230.14 165.94,212.01 165.11,212.28 L168.22,212.28" id="Fill-71" fill="#0A0A08"></path>
    </g>
</svg>