<?xml version="1.0" encoding="UTF-8" standalone="no"?>
<svg width="179px" height="249px" viewBox="0 0 179 249" version="1.1" xmlns="http://www.w3.org/2000/svg" xmlns:xlink="http://www.w3.org/1999/xlink">
    <!-- Generator: Sketch 39.1 (31720) - http://www.bohemiancoding.com/sketch -->
    <title>9D</title>
    <desc>Created with Sketch.</desc>
    <defs></defs>
    <g id="Page-1" stroke="none" stroke-width="1" fill="none" fill-rule="evenodd">
        <path d="M8.78,0.32 L169.55,0.32 C174.25,0.32 178.06,4.13 178.06,8.82 L178.06,240.47 C178.06,245.16 174.25,248.97 169.55,248.97 L8.78,248.97 C4.08,248.97 0.27,245.16 0.27,240.47 L0.27,8.82 C0.27,4.13 4.08,0.32 8.78,0.32" id="Fill-545" fill="#FFFFFF"></path>
        <path d="M13.98,56.12 C12.26,53.27 10.45,50.51 8.19,48.15 C10.45,45.78 12.26,43.02 13.98,40.17 C15.71,43.02 17.52,45.78 19.78,48.15 C17.52,50.51 15.71,53.27 13.98,56.12" id="Fill-547" fill="#C0242A"></path>
        <path d="M130.39,64.67 C126.26,57.84 121.92,51.2 116.49,45.53 C121.92,39.86 126.26,33.22 130.39,26.39 C134.52,33.22 138.87,39.86 144.3,45.53 C138.87,51.2 134.52,57.84 130.39,64.67" id="Fill-548" fill="#C0242A"></path>
        <path d="M164.35,209.12 C162.63,206.28 160.81,203.51 158.55,201.15 C160.81,198.78 162.63,196.02 164.35,193.17 C166.07,196.02 167.88,198.78 170.14,201.15 C167.88,203.51 166.07,206.28 164.35,209.12" id="Fill-549" fill="#C0242A"></path>
        <path d="M47.94,64.67 C43.81,57.84 39.46,51.2 34.03,45.53 C39.46,39.86 43.81,33.22 47.94,26.39 C52.07,33.22 56.41,39.86 61.84,45.53 C56.41,51.2 52.07,57.84 47.94,64.67" id="Fill-550" fill="#C0242A"></path>
        <path d="M130.39,117.42 C126.26,110.59 121.92,103.95 116.49,98.28 C121.92,92.61 126.26,85.97 130.39,79.14 C134.52,85.97 138.87,92.61 144.3,98.28 C138.87,103.95 134.52,110.59 130.39,117.42" id="Fill-551" fill="#C0242A"></path>
        <path d="M47.94,117.42 C43.81,110.59 39.46,103.95 34.03,98.28 C39.46,92.61 43.81,85.97 47.94,79.14 C52.07,85.97 56.41,92.61 61.84,98.28 C56.41,103.95 52.07,110.59 47.94,117.42" id="Fill-552" fill="#C0242A"></path>
        <path d="M89.17,143.79 C85.04,136.96 80.69,130.32 75.26,124.65 C80.69,118.98 85.04,112.34 89.17,105.51 C93.3,112.34 97.64,118.98 103.07,124.65 C97.64,130.32 93.3,136.96 89.17,143.79" id="Fill-553" fill="#C0242A"></path>
        <path d="M47.94,222.9 C43.81,216.07 39.46,209.44 34.03,203.76 C39.46,198.09 43.81,191.46 47.94,184.63 C52.07,191.46 56.41,198.09 61.84,203.76 C56.41,209.44 52.07,216.07 47.94,222.9" id="Fill-554" fill="#C0242A"></path>
        <path d="M130.39,222.91 C126.26,216.08 121.92,209.44 116.49,203.77 C121.92,198.1 126.26,191.46 130.39,184.63 C134.52,191.46 138.87,198.1 144.3,203.77 C138.87,209.44 134.52,216.08 130.39,222.91" id="Fill-555" fill="#C0242A"></path>
        <path d="M130.39,170.16 C126.26,163.33 121.92,156.69 116.49,151.02 C121.92,145.35 126.26,138.71 130.39,131.88 C134.52,138.71 138.87,145.35 144.3,151.02 C138.87,156.69 134.52,163.33 130.39,170.16" id="Fill-556" fill="#C0242A"></path>
        <path d="M47.94,170.13 C43.81,163.3 39.46,156.66 34.03,150.99 C39.46,145.32 43.81,138.68 47.94,131.85 C52.07,138.68 56.41,145.32 61.84,150.99 C56.41,156.66 52.07,163.3 47.94,170.13" id="Fill-557" fill="#C0242A"></path>
        <path d="M16.09,25.92 C17.22,25.2 17.85,24.53 18.36,23.52 C18.78,22.69 18.92,22.26 18.8,20.55 C18.49,16.13 16.18,13.62 12.83,14.12 C10.96,14.4 9.93,15.45 9.34,17.4 C8.26,21.01 9.63,25.22 12.21,26.19 C13.37,26.63 15.16,26.51 16.09,25.92 L16.09,25.92 Z M6.64,32.6 L9.05,31.83 C9.96,34.26 11.79,34.98 13.73,34.82 C17.21,34.55 18.36,30.65 18.62,27.21 C17.27,28.65 15.23,29.38 13.49,29.31 C7.95,29.01 6.53,24.56 6.47,19.91 C6.32,15.98 7.94,13.14 10.72,11.84 C12.19,11.18 15.56,11.18 17.04,11.96 C20.45,13.75 21.71,16.86 21.48,24.26 C21.48,30.36 20.18,37.46 13.66,37.61 C9.89,38.13 7.03,35.2 6.64,32.6 L6.64,32.6 Z" id="Fill-558" fill="#C0242A"></path>
        <path d="M162.24,223.37 C161.11,224.09 160.47,224.76 159.97,225.77 C159.55,226.6 159.41,227.03 159.53,228.74 C159.83,233.16 162.15,235.67 165.5,235.17 C167.37,234.89 168.4,233.84 168.99,231.89 C170.07,228.29 168.69,224.07 166.12,223.1 C164.96,222.66 163.17,222.78 162.24,223.37 L162.24,223.37 Z M171.69,216.69 L169.28,217.46 C168.37,215.03 166.54,214.31 164.6,214.47 C161.12,214.75 159.97,218.64 159.71,222.08 C161.06,220.64 163.1,219.91 164.84,219.99 C170.38,220.28 171.8,224.73 171.85,229.38 C172.01,233.31 170.39,236.15 167.61,237.46 C166.13,238.12 162.76,238.12 161.28,237.33 C157.88,235.54 156.62,232.44 156.85,225.03 C156.85,218.93 158.14,211.84 164.67,211.68 C168.43,211.16 171.3,214.1 171.69,216.69 L171.69,216.69 Z" id="Fill-559" fill="#C0242A"></path>
    </g>
</svg>