<?xml version="1.0" encoding="UTF-8" standalone="no"?>
<svg width="179px" height="249px" viewBox="0 0 179 249" version="1.1" xmlns="http://www.w3.org/2000/svg" xmlns:xlink="http://www.w3.org/1999/xlink">
    <!-- Generator: Sketch 39.1 (31720) - http://www.bohemiancoding.com/sketch -->
    <title>TD</title>
    <desc>Created with Sketch.</desc>
    <defs></defs>
    <g id="Page-1" stroke="none" stroke-width="1" fill="none" fill-rule="evenodd">
        <path d="M9.36,0.32 L170.14,0.32 C174.83,0.32 178.64,4.13 178.64,8.82 L178.64,240.47 C178.64,245.16 174.83,248.97 170.14,248.97 L9.36,248.97 C4.66,248.97 0.86,245.16 0.86,240.47 L0.86,8.82 C0.86,4.13 4.66,0.32 9.36,0.32" id="Fill-560" fill="#FFFFFF"></path>
        <path d="M14.57,56.12 C12.85,53.27 11.04,50.51 8.77,48.15 C11.04,45.78 12.85,43.02 14.57,40.17 C16.29,43.02 18.1,45.78 20.36,48.15 C18.1,50.51 16.29,53.27 14.57,56.12" id="Fill-562" fill="#C0242A"></path>
        <path d="M130.98,64.67 C126.85,57.84 122.5,51.2 117.07,45.53 C122.5,39.86 126.85,33.22 130.98,26.39 C135.11,33.22 139.45,39.86 144.88,45.53 C139.45,51.2 135.11,57.84 130.98,64.67" id="Fill-563" fill="#C0242A"></path>
        <path d="M164.93,209.12 C163.21,206.28 161.4,203.51 159.13,201.15 C161.4,198.78 163.21,196.02 164.93,193.17 C166.65,196.02 168.46,198.78 170.72,201.15 C168.46,203.51 166.65,206.28 164.93,209.12" id="Fill-564" fill="#C0242A"></path>
        <path d="M48.52,64.67 C44.39,57.84 40.04,51.2 34.61,45.53 C40.04,39.86 44.39,33.22 48.52,26.39 C52.65,33.22 57,39.86 62.43,45.53 C57,51.2 52.65,57.84 48.52,64.67" id="Fill-565" fill="#C0242A"></path>
        <path d="M130.98,117.42 C126.85,110.59 122.5,103.95 117.07,98.28 C122.5,92.61 126.85,85.97 130.98,79.14 C135.11,85.97 139.45,92.61 144.88,98.28 C139.45,103.95 135.11,110.59 130.98,117.42" id="Fill-566" fill="#C0242A"></path>
        <path d="M48.52,117.42 C44.39,110.59 40.04,103.95 34.61,98.28 C40.04,92.61 44.39,85.97 48.52,79.14 C52.65,85.97 57,92.61 62.43,98.28 C57,103.95 52.65,110.59 48.52,117.42" id="Fill-567" fill="#C0242A"></path>
        <path d="M89.75,91.04 C85.62,84.21 81.27,77.57 75.84,71.9 C81.27,66.23 85.62,59.59 89.75,52.76 C93.88,59.59 98.22,66.23 103.65,71.9 C98.22,77.57 93.88,84.21 89.75,91.04" id="Fill-568" fill="#C0242A"></path>
        <path d="M48.52,222.9 C44.39,216.07 40.04,209.44 34.61,203.76 C40.04,198.09 44.39,191.46 48.52,184.63 C52.65,191.46 57,198.09 62.43,203.76 C57,209.44 52.65,216.07 48.52,222.9" id="Fill-569" fill="#C0242A"></path>
        <path d="M130.98,222.91 C126.85,216.08 122.5,209.44 117.07,203.77 C122.5,198.1 126.85,191.46 130.98,184.63 C135.11,191.46 139.45,198.1 144.88,203.77 C139.45,209.44 135.11,216.08 130.98,222.91" id="Fill-570" fill="#C0242A"></path>
        <path d="M130.98,170.16 C126.85,163.33 122.5,156.69 117.07,151.02 C122.5,145.35 126.85,138.71 130.98,131.88 C135.11,138.71 139.45,145.35 144.88,151.02 C139.45,156.69 135.11,163.33 130.98,170.16" id="Fill-571" fill="#C0242A"></path>
        <path d="M48.52,170.13 C44.39,163.3 40.04,156.66 34.61,150.99 C40.04,145.32 44.39,138.68 48.52,131.85 C52.65,138.68 57,145.32 62.43,150.99 C57,156.66 52.65,163.3 48.52,170.13" id="Fill-572" fill="#C0242A"></path>
        <path d="M89.75,196.53 C85.62,189.7 81.27,183.06 75.84,177.39 C81.27,171.72 85.62,165.08 89.75,158.25 C93.88,165.08 98.22,171.72 103.65,177.39 C98.22,183.06 93.88,189.7 89.75,196.53" id="Fill-573" fill="#C0242A"></path>
        <polygon id="Fill-574" fill="#C0242A" points="6.59 37.67 9.13 37.67 9.13 11.36 6.59 11.36"></polygon>
        <path d="M17.43,13.84 C18.88,13.84 20.04,14.96 20.04,16.35 L20.04,32.82 C20.04,34.21 18.88,35.33 17.43,35.33 C15.98,35.33 14.81,34.21 14.81,32.82 L14.81,16.35 C14.81,14.96 15.98,13.84 17.43,13.84 L17.43,13.84 Z M16.69,11.36 C14.23,11.36 12.26,13.6 12.26,16.38 L12.26,32.64 C12.26,35.43 14.24,37.67 16.69,37.67 L18.12,37.67 C20.57,37.67 22.55,35.43 22.55,32.64 L22.55,16.38 C22.55,13.6 20.57,11.36 18.12,11.36 L16.69,11.36 L16.69,11.36 Z" id="Fill-575" fill="#C0242A"></path>
        <polygon id="Fill-576" fill="#C0242A" points="170.36 237.94 172.91 237.94 172.91 211.62 170.36 211.62"></polygon>
        <path d="M162.07,235.45 C160.62,235.45 159.46,234.34 159.46,232.95 L159.46,216.47 C159.46,215.08 160.62,213.96 162.07,213.96 C163.51,213.96 164.68,215.08 164.68,216.47 L164.68,232.95 C164.68,234.34 163.51,235.45 162.07,235.45 L162.07,235.45 Z M162.81,237.94 C165.26,237.94 167.23,235.69 167.23,232.91 L167.23,216.65 C167.23,213.86 165.26,211.62 162.81,211.62 L161.38,211.62 C158.92,211.62 156.95,213.86 156.95,216.65 L156.95,232.91 C156.95,235.69 158.92,237.94 161.38,237.94 L162.81,237.94 L162.81,237.94 Z" id="Fill-577" fill="#C0242A"></path>
    </g>
</svg>