<?xml version="1.0" encoding="UTF-8" standalone="no"?>
<svg width="179px" height="249px" viewBox="0 0 179 249" version="1.1" xmlns="http://www.w3.org/2000/svg" xmlns:xlink="http://www.w3.org/1999/xlink">
    <!-- Generator: Sketch 39.1 (31720) - http://www.bohemiancoding.com/sketch -->
    <title>3D</title>
    <desc>Created with Sketch.</desc>
    <defs></defs>
    <g id="Page-1" stroke="none" stroke-width="1" fill="none" fill-rule="evenodd">
        <path d="M9.28,0.32 L170.06,0.32 C174.75,0.32 178.56,4.13 178.56,8.82 L178.56,240.47 C178.56,245.16 174.75,248.97 170.06,248.97 L9.28,248.97 C4.584,248.97 0.776,245.16 0.776,240.47 L0.776,8.82 C0.776,4.13 4.584,0.32 9.28,0.32" id="Fill-476" fill="#FFFFFF"></path>
        <path d="M89.669,64.67 C85.539,57.84 81.193,51.2 75.763,45.53 C81.193,39.86 85.539,33.22 89.669,26.39 C93.8,33.22 98.146,39.86 103.576,45.53 C98.146,51.2 93.8,57.84 89.669,64.67" id="Fill-478" fill="#C0242A"></path>
        <path d="M14.489,56.12 C12.768,53.27 10.957,50.51 8.694,48.15 C10.957,45.78 12.768,43.02 14.489,40.17 C16.21,43.02 18.021,45.78 20.283,48.15 C18.021,50.51 16.21,53.27 14.489,56.12" id="Fill-479" fill="#C0242A"></path>
        <path d="M164.851,209.12 C163.129,206.28 161.318,203.51 159.056,201.15 C161.318,198.78 163.129,196.02 164.851,193.17 C166.571,196.02 168.38,198.78 170.64,201.15 C168.38,203.51 166.571,206.28 164.851,209.12" id="Fill-480" fill="#C0242A"></path>
        <path d="M89.669,143.79 C85.539,136.96 81.193,130.32 75.763,124.65 C81.193,118.98 85.539,112.34 89.669,105.51 C93.8,112.34 98.146,118.98 103.576,124.65 C98.146,130.32 93.8,136.96 89.669,143.79" id="Fill-481" fill="#C0242A"></path>
        <path d="M89.669,222.9 C85.539,216.07 81.193,209.43 75.763,203.76 C81.193,198.09 85.539,191.45 89.669,184.62 C93.8,191.45 98.146,198.09 103.576,203.76 C98.146,209.43 93.8,216.07 89.669,222.9" id="Fill-482" fill="#C0242A"></path>
        <path d="M5.958,31.9 L7.981,30.41 C9.737,33.28 11.701,35.16 14.705,34.84 C19.213,34.53 21.081,29.8 20.138,26.23 C19.226,23.03 15.493,21.48 12.525,23.18 C11.825,23.58 11.149,23.91 11.018,23.91 C10.706,23.91 10.002,22.51 10.098,22.08 C12.09,19.17 16.926,14.07 16.926,14.07 L9.37,14.07 L9.37,17.49 L6.47,17.49 L6.47,11.36 L21.237,11.36 L21.237,13.44 C21.237,13.44 17.281,17.54 15.974,19.79 C19.193,19.91 21.789,21.96 22.721,25.19 C23.265,26.89 23.021,30.78 22.31,32.46 C21.121,35.25 17.874,37.52 14.905,37.65 C9.922,37.98 7.278,34.49 5.958,31.9" id="Fill-483" fill="#C0242A"></path>
        <path d="M173.38,217.39 L171.36,218.88 C169.6,216.02 167.636,214.13 164.631,214.46 C160.124,214.76 158.256,219.5 159.199,223.06 C160.111,226.26 163.844,227.82 166.811,226.11 C167.512,225.71 168.19,225.38 168.32,225.38 C168.63,225.38 169.33,226.78 169.24,227.21 C167.247,230.12 162.411,235.22 162.411,235.22 L169.97,235.22 L169.97,231.81 L172.87,231.81 L172.87,237.94 L158.1,237.94 L158.1,235.86 C158.1,235.86 162.056,231.75 163.363,229.5 C160.143,229.38 157.547,227.34 156.615,224.11 C156.072,222.41 156.315,218.51 157.027,216.84 C158.216,214.04 161.463,211.77 164.432,211.64 C169.42,211.31 172.06,214.8 173.38,217.39" id="Fill-484" fill="#C0242A"></path>
    </g>
</svg>