<?xml version="1.0" encoding="UTF-8" standalone="no"?>
<svg width="179px" height="250px" viewBox="0 0 179 250" version="1.1" xmlns="http://www.w3.org/2000/svg" xmlns:xlink="http://www.w3.org/1999/xlink">
    <!-- Generator: Sketch 39.1 (31720) - http://www.bohemiancoding.com/sketch -->
    <title>5C</title>
    <desc>Created with Sketch.</desc>
    <defs></defs>
    <g id="Page-1" stroke="none" stroke-width="1" fill="none" fill-rule="evenodd">
        <path d="M9.45,0.973 L170.22,0.973 C174.92,0.973 178.73,4.78 178.73,9.477 L178.73,241.12 C178.73,245.82 174.92,249.62 170.22,249.62 L9.45,249.62 C4.75,249.62 0.94,245.82 0.94,241.12 L0.94,9.477 C0.94,4.78 4.75,0.973 9.45,0.973" id="Fill-36" fill="#FFFFFF"></path>
        <path d="M131.06,27.377 C123.24,27.546 119.73,36.351 125.53,43.188 C126.37,44.185 126.45,44.757 124.91,43.799 C121.01,41.191 113.54,42.905 113.16,50.877 C112.68,60.698 126.41,63.528 128.98,53.084 C129.12,51.982 130.01,52.008 129.8,53.571 C129.56,57.816 128.24,61.784 126.41,65.653 L135.71,65.653 C133.89,61.784 132.56,57.816 132.33,53.571 C132.11,52.008 133.01,51.982 133.14,53.084 C135.72,63.528 149.44,60.698 148.97,50.877 C148.59,42.905 141.11,41.191 137.21,43.799 C135.67,44.757 135.76,44.185 136.6,43.188 C142.39,36.351 138.89,27.546 131.07,27.377 C131.07,27.376 131.07,27.377 131.06,27.377" id="Fill-38" fill="#0A0A08"></path>
        <path d="M48.6,27.377 C40.78,27.546 37.28,36.351 43.07,43.188 C43.91,44.185 44,44.757 42.46,43.799 C38.56,41.191 31.08,42.905 30.7,50.877 C30.23,60.698 43.95,63.528 46.53,53.084 C46.66,51.982 47.56,52.008 47.34,53.571 C47.11,57.816 45.78,61.784 43.96,65.653 L53.25,65.653 C51.43,61.784 50.11,57.816 49.87,53.571 C49.66,52.008 50.55,51.982 50.69,53.084 C53.26,63.528 66.99,60.698 66.51,50.877 C66.13,42.905 58.65,41.191 54.76,43.799 C53.22,44.757 53.3,44.185 54.14,43.188 C59.94,36.351 56.43,27.546 48.61,27.377 C48.61,27.376 48.61,27.377 48.6,27.377" id="Fill-39" fill="#0A0A08"></path>
        <path d="M131.06,223.88 C123.24,223.71 119.73,214.91 125.53,208.07 C126.37,207.08 126.45,206.5 124.91,207.46 C121.01,210.07 113.54,208.35 113.16,200.38 C112.68,190.56 126.41,187.73 128.98,198.17 C129.12,199.28 130.01,199.25 129.8,197.69 C129.56,193.44 128.24,189.47 126.41,185.61 L135.71,185.61 C133.89,189.47 132.56,193.44 132.33,197.69 C132.11,199.25 133.01,199.28 133.14,198.17 C135.72,187.73 149.44,190.56 148.97,200.38 C148.59,208.35 141.11,210.07 137.21,207.46 C135.67,206.5 135.76,207.08 136.6,208.07 C142.39,214.91 138.89,223.71 131.07,223.88 C131.07,223.88 131.07,223.88 131.06,223.88" id="Fill-40" fill="#0A0A08"></path>
        <path d="M48.6,223.88 C40.78,223.71 37.28,214.91 43.07,208.07 C43.91,207.08 44,206.5 42.46,207.46 C38.56,210.07 31.08,208.35 30.7,200.38 C30.23,190.56 43.95,187.73 46.53,198.17 C46.66,199.28 47.56,199.25 47.34,197.69 C47.11,193.44 45.78,189.47 43.96,185.61 L53.25,185.61 C51.43,189.47 50.11,193.44 49.87,197.69 C49.66,199.25 50.55,199.28 50.69,198.17 C53.26,187.73 66.99,190.56 66.51,200.38 C66.13,208.35 58.65,210.07 54.76,207.46 C53.22,206.5 53.3,207.08 54.14,208.07 C59.94,214.91 56.43,223.71 48.61,223.88 C48.61,223.88 48.61,223.88 48.6,223.88" id="Fill-41" fill="#0A0A08"></path>
        <path d="M89.83,106.49 C82.01,106.66 78.51,115.46 84.3,122.3 C85.14,123.3 85.22,123.87 83.68,122.91 C79.79,120.31 72.31,122.02 71.93,129.99 C71.45,139.81 85.18,142.64 87.75,132.2 C87.89,131.1 88.79,131.12 88.57,132.69 C88.33,136.93 87.01,140.9 85.19,144.77 L94.48,144.77 C92.66,140.9 91.33,136.93 91.1,132.69 C90.88,131.12 91.78,131.1 91.92,132.2 C94.49,142.64 108.21,139.81 107.74,129.99 C107.36,122.02 99.88,120.31 95.98,122.91 C94.45,123.87 94.53,123.3 95.37,122.3 C101.16,115.46 97.66,106.66 89.84,106.49 C89.84,106.49 89.84,106.49 89.83,106.49" id="Fill-42" fill="#0A0A08"></path>
        <path d="M165.02,209.77 C168.14,209.7 169.55,206.03 167.23,203.19 C166.89,202.77 166.86,202.53 167.48,202.93 C169.04,204.02 172.03,203.3 172.18,199.98 C172.37,195.89 166.88,194.71 165.85,199.06 C165.79,199.52 165.44,199.51 165.52,198.86 C165.62,197.09 166.15,195.44 166.88,193.82 L163.16,193.82 C163.89,195.44 164.42,197.09 164.51,198.86 C164.6,199.51 164.24,199.52 164.18,199.06 C163.15,194.71 157.66,195.89 157.85,199.98 C158.01,203.3 161,204.02 162.56,202.93 C163.17,202.53 163.14,202.77 162.8,203.19 C160.48,206.03 161.89,209.7 165.01,209.77 L165.01,209.77 L165.02,209.77" id="Fill-43" fill="#0A0A08"></path>
        <path d="M14.65,40.823 C11.53,40.894 10.12,44.563 12.44,47.411 C12.78,47.826 12.81,48.065 12.19,47.666 C10.63,46.58 7.64,47.294 7.49,50.615 C7.3,54.707 12.79,55.887 13.82,51.535 C13.88,51.076 14.23,51.086 14.15,51.738 C14.05,53.507 13.52,55.16 12.79,56.772 L16.51,56.772 C15.78,55.16 15.25,53.507 15.16,51.738 C15.07,51.086 15.43,51.076 15.49,51.535 C16.52,55.887 22.01,54.707 21.82,50.615 C21.66,47.294 18.67,46.58 17.11,47.666 C16.5,48.065 16.53,47.826 16.87,47.411 C19.19,44.563 17.78,40.895 14.66,40.823 C14.65,40.823 14.66,40.823 14.66,40.823 L14.65,40.823" id="Fill-44" fill="#0A0A08"></path>
        <path d="M6.37,31.511 L8.95,31.485 C9.44,33.074 10.52,34.688 12,35.137 C16.17,36.136 18.86,33.758 19.74,31.017 C20.81,27.691 19.72,23.022 16.84,21.365 C14.46,19.991 10.93,21.15 9.3,24.09 L7.5,22.964 L8.47,12.008 L20.26,12.008 L20.26,14.598 L10.7,14.598 L10.55,19.162 C12.61,17.689 15.77,17.705 17.82,18.738 C21.72,20.631 23.52,24.936 22.77,30.009 C21.72,35.055 19.41,37.914 14.19,38.322 C8.39,38.376 6.34,34.309 6.37,31.511" id="Fill-45" fill="#0A0A08"></path>
        <path d="M173.3,219.09 L170.72,219.11 C170.23,217.52 169.14,215.91 167.67,215.46 C163.5,214.46 160.81,216.84 159.93,219.58 C158.86,222.9 159.95,227.57 162.82,229.23 C165.2,230.61 168.74,229.45 170.36,226.51 L172.17,227.63 L171.2,238.59 L159.41,238.59 L159.41,236 L168.96,236 L169.11,231.43 C167.06,232.91 163.9,232.89 161.84,231.86 C157.95,229.96 156.14,225.66 156.9,220.59 C157.95,215.54 160.26,212.68 165.47,212.27 C171.28,212.22 173.32,216.29 173.3,219.09" id="Fill-46" fill="#0A0A08"></path>
    </g>
</svg>