<?xml version="1.0" encoding="UTF-8" standalone="no"?>
<svg width="179px" height="249px" viewBox="0 0 179 249" version="1.1" xmlns="http://www.w3.org/2000/svg" xmlns:xlink="http://www.w3.org/1999/xlink">
    <!-- Generator: Sketch 39.1 (31720) - http://www.bohemiancoding.com/sketch -->
    <title>5D</title>
    <desc>Created with Sketch.</desc>
    <defs></defs>
    <g id="Page-1" stroke="none" stroke-width="1" fill="none" fill-rule="evenodd">
        <path d="M9.45,0.32 L170.22,0.32 C174.92,0.32 178.73,4.13 178.73,8.82 L178.73,240.47 C178.73,245.16 174.92,248.97 170.22,248.97 L9.45,248.97 C4.75,248.97 0.94,245.16 0.94,240.47 L0.94,8.82 C0.94,4.13 4.75,0.32 9.45,0.32" id="Fill-495" fill="#FFFFFF"></path>
        <path d="M14.65,56.12 C12.93,53.27 11.12,50.51 8.86,48.15 C11.12,45.78 12.93,43.02 14.65,40.17 C16.38,43.02 18.19,45.78 20.45,48.15 C18.19,50.51 16.38,53.27 14.65,56.12" id="Fill-497" fill="#C0242A"></path>
        <path d="M131.06,64.67 C126.93,57.84 122.59,51.2 117.16,45.53 C122.59,39.86 126.93,33.22 131.06,26.39 C135.19,33.22 139.54,39.86 144.97,45.53 C139.54,51.2 135.19,57.84 131.06,64.67" id="Fill-498" fill="#C0242A"></path>
        <path d="M165.02,209.12 C163.29,206.28 161.48,203.51 159.22,201.15 C161.48,198.78 163.29,196.02 165.02,193.17 C166.74,196.02 168.55,198.78 170.81,201.15 C168.55,203.51 166.74,206.28 165.02,209.12" id="Fill-499" fill="#C0242A"></path>
        <path d="M48.61,64.67 C44.48,57.84 40.13,51.2 34.7,45.53 C40.13,39.86 44.48,33.22 48.61,26.39 C52.74,33.22 57.08,39.86 62.51,45.53 C57.08,51.2 52.74,57.84 48.61,64.67" id="Fill-500" fill="#C0242A"></path>
        <path d="M89.83,143.79 C85.7,136.96 81.36,130.32 75.93,124.65 C81.36,118.98 85.7,112.34 89.83,105.51 C93.96,112.34 98.31,118.98 103.74,124.65 C98.31,130.32 93.96,136.96 89.83,143.79" id="Fill-501" fill="#C0242A"></path>
        <path d="M48.61,222.9 C44.48,216.07 40.13,209.44 34.7,203.76 C40.13,198.09 44.48,191.46 48.61,184.63 C52.74,191.46 57.08,198.09 62.51,203.76 C57.08,209.44 52.74,216.07 48.61,222.9" id="Fill-502" fill="#C0242A"></path>
        <path d="M131.06,222.91 C126.93,216.08 122.59,209.44 117.16,203.77 C122.59,198.1 126.93,191.46 131.06,184.63 C135.19,191.46 139.54,198.1 144.97,203.77 C139.54,209.44 135.19,216.08 131.06,222.91" id="Fill-503" fill="#C0242A"></path>
        <path d="M6.37,30.86 L8.95,30.83 C9.44,32.42 10.52,34.04 12,34.48 C16.17,35.48 18.86,33.11 19.74,30.36 C20.81,27.04 19.72,22.37 16.84,20.71 C14.46,19.34 10.93,20.5 9.3,23.44 L7.5,22.31 L8.47,11.36 L20.26,11.36 L20.26,13.95 L10.7,13.95 L10.55,18.51 C12.61,17.04 15.77,17.05 17.82,18.09 C21.72,19.98 23.52,24.28 22.77,29.36 C21.72,34.4 19.41,37.26 14.19,37.67 C8.39,37.72 6.34,33.66 6.37,30.86" id="Fill-504" fill="#C0242A"></path>
        <path d="M173.3,218.43 L170.72,218.46 C170.23,216.87 169.14,215.26 167.67,214.81 C163.5,213.81 160.81,216.19 159.93,218.93 C158.86,222.25 159.95,226.92 162.82,228.58 C165.2,229.95 168.74,228.79 170.36,225.85 L172.17,226.98 L171.2,237.94 L159.41,237.94 L159.41,235.35 L168.96,235.35 L169.11,230.78 C167.06,232.25 163.9,232.24 161.84,231.21 C157.95,229.31 156.14,225.01 156.9,219.94 C157.95,214.89 160.26,212.03 165.47,211.62 C171.28,211.57 173.32,215.64 173.3,218.43" id="Fill-505" fill="#C0242A"></path>
    </g>
</svg>