<?xml version="1.0" encoding="UTF-8" standalone="no"?>
<svg width="178px" height="249px" viewBox="0 0 178 249" version="1.1" xmlns="http://www.w3.org/2000/svg" xmlns:xlink="http://www.w3.org/1999/xlink">
    <!-- Generator: Sketch 39.1 (31720) - http://www.bohemiancoding.com/sketch -->
    <title>7D</title>
    <desc>Created with Sketch.</desc>
    <defs></defs>
    <g id="Page-1" stroke="none" stroke-width="1" fill="none" fill-rule="evenodd">
        <path d="M8.61,0.32 L169.39,0.32 C174.08,0.32 177.89,4.13 177.89,8.82 L177.89,240.47 C177.89,245.16 174.08,248.97 169.39,248.97 L8.61,248.97 C3.92,248.97 0.11,245.16 0.11,240.47 L0.11,8.82 C0.11,4.13 3.92,0.32 8.61,0.32" id="Fill-518" fill="#FFFFFF"></path>
        <path d="M13.82,56.12 C12.1,53.27 10.29,50.51 8.03,48.15 C10.29,45.78 12.1,43.02 13.82,40.17 C15.54,43.02 17.35,45.78 19.61,48.15 C17.35,50.51 15.54,53.27 13.82,56.12" id="Fill-520" fill="#C0242A"></path>
        <path d="M130.23,64.67 C126.1,57.84 121.75,51.2 116.32,45.53 C121.75,39.86 126.1,33.22 130.23,26.39 C134.36,33.22 138.7,39.86 144.13,45.53 C138.7,51.2 134.36,57.84 130.23,64.67" id="Fill-521" fill="#C0242A"></path>
        <path d="M164.18,209.12 C162.46,206.28 160.65,203.51 158.39,201.15 C160.65,198.78 162.46,196.02 164.18,193.17 C165.9,196.02 167.71,198.78 169.98,201.15 C167.71,203.51 165.9,206.28 164.18,209.12" id="Fill-522" fill="#C0242A"></path>
        <path d="M47.77,64.67 C43.64,57.84 39.3,51.2 33.87,45.53 C39.3,39.86 43.64,33.22 47.77,26.39 C51.9,33.22 56.25,39.86 61.68,45.53 C56.25,51.2 51.9,57.84 47.77,64.67" id="Fill-523" fill="#C0242A"></path>
        <path d="M89,104.21 C84.87,97.38 80.52,90.75 75.09,85.08 C80.52,79.41 84.87,72.77 89,65.94 C93.13,72.77 97.48,79.41 102.91,85.08 C97.48,90.75 93.13,97.38 89,104.21" id="Fill-524" fill="#C0242A"></path>
        <path d="M47.77,143.76 C43.64,136.93 39.3,130.29 33.87,124.62 C39.3,118.95 43.64,112.31 47.77,105.48 C51.9,112.31 56.25,118.95 61.68,124.62 C56.25,130.29 51.9,136.93 47.77,143.76" id="Fill-525" fill="#C0242A"></path>
        <path d="M130.23,143.77 C126.1,136.94 121.75,130.3 116.32,124.63 C121.75,118.96 126.1,112.32 130.23,105.49 C134.36,112.32 138.7,118.96 144.13,124.63 C138.7,130.3 134.36,136.94 130.23,143.77" id="Fill-526" fill="#C0242A"></path>
        <path d="M47.77,222.9 C43.64,216.07 39.3,209.44 33.87,203.76 C39.3,198.09 43.64,191.46 47.77,184.63 C51.9,191.46 56.25,198.09 61.68,203.76 C56.25,209.44 51.9,216.07 47.77,222.9" id="Fill-527" fill="#C0242A"></path>
        <path d="M130.23,222.91 C126.1,216.08 121.75,209.44 116.32,203.77 C121.75,198.1 126.1,191.46 130.23,184.63 C134.36,191.46 138.7,198.1 144.13,203.77 C138.7,209.44 134.36,216.08 130.23,222.91" id="Fill-528" fill="#C0242A"></path>
        <path d="M9.78,37.67 C11.51,28.52 13.35,21.65 18.18,14.2 L8.36,14.2 L8.36,17.4 L5.75,17.4 L5.75,11.36 L20.11,11.36 L21.89,14.2 C16.75,19.8 12.06,37.93 12.89,37.67 L9.78,37.67" id="Fill-529" fill="#C0242A"></path>
        <path d="M168.22,211.62 C166.49,220.77 164.65,227.64 159.82,235.1 L169.64,235.1 L169.64,231.89 L172.25,231.89 L172.25,237.94 L157.88,237.94 L156.11,235.1 C161.24,229.49 165.94,211.36 165.11,211.62 L168.22,211.62" id="Fill-530" fill="#C0242A"></path>
    </g>
</svg>