<?xml version="1.0" encoding="UTF-8" standalone="no"?>
<svg width="179px" height="250px" viewBox="0 0 179 250" version="1.1" xmlns="http://www.w3.org/2000/svg" xmlns:xlink="http://www.w3.org/1999/xlink">
    <!-- Generator: Sketch 39.1 (31720) - http://www.bohemiancoding.com/sketch -->
    <title>8C</title>
    <desc>Created with Sketch.</desc>
    <defs></defs>
    <g id="Page-1" stroke="none" stroke-width="1" fill="none" fill-rule="evenodd">
        <path d="M9.19,0.973 L169.97,0.973 C174.67,0.973 178.48,4.779 178.48,9.477 L178.48,241.12 C178.48,245.82 174.67,249.62 169.97,249.62 L9.19,249.62 C4.5,249.62 0.69,245.82 0.69,241.12 L0.69,9.477 C0.69,4.779 4.5,0.973 9.19,0.973" id="Fill-72" fill="#FFFFFF"></path>
        <path d="M130.81,27.376 C122.99,27.546 119.48,36.35 125.27,43.187 C126.11,44.184 126.2,44.756 124.66,43.799 C120.76,41.191 113.29,42.905 112.9,50.876 C112.43,60.698 126.15,63.527 128.73,53.084 C128.87,51.982 129.76,52.008 129.55,53.571 C129.31,57.816 127.98,61.784 126.16,65.653 L135.46,65.653 C133.64,61.784 132.31,57.816 132.08,53.571 C131.86,52.008 132.76,51.982 132.89,53.084 C135.47,63.527 149.19,60.698 148.72,50.876 C148.34,42.905 140.86,41.191 136.96,43.799 C135.42,44.756 135.51,44.185 136.35,43.187 C142.14,36.35 138.63,27.546 130.81,27.376" id="Fill-74" fill="#0A0A08"></path>
        <path d="M48.35,27.376 C40.53,27.546 37.03,36.35 42.82,43.187 C43.66,44.184 43.74,44.756 42.21,43.799 C38.31,41.191 30.83,42.905 30.45,50.876 C29.97,60.698 43.7,63.527 46.27,53.084 C46.41,51.982 47.3,52.008 47.09,53.571 C46.85,57.816 45.53,61.784 43.71,65.653 L53,65.653 C51.18,61.784 49.85,57.816 49.62,53.571 C49.4,52.008 50.3,51.982 50.43,53.084 C53.01,63.527 66.74,60.698 66.26,50.876 C65.88,42.905 58.4,41.191 54.5,43.799 C52.96,44.756 53.05,44.185 53.89,43.187 C59.68,36.35 56.18,27.546 48.36,27.376 C48.36,27.376 48.36,27.376 48.35,27.376" id="Fill-75" fill="#0A0A08"></path>
        <path d="M130.81,223.88 C122.99,223.71 119.48,214.91 125.27,208.07 C126.11,207.08 126.2,206.5 124.66,207.46 C120.76,210.07 113.29,208.35 112.9,200.38 C112.43,190.56 126.15,187.73 128.73,198.17 C128.87,199.28 129.76,199.25 129.55,197.69 C129.31,193.44 127.98,189.47 126.16,185.61 L135.46,185.61 C133.64,189.47 132.31,193.44 132.08,197.69 C131.86,199.25 132.76,199.28 132.89,198.17 C135.47,187.73 149.19,190.56 148.72,200.38 C148.34,208.35 140.86,210.07 136.96,207.46 C135.42,206.5 135.51,207.08 136.35,208.07 C142.14,214.91 138.63,223.71 130.81,223.88" id="Fill-76" fill="#0A0A08"></path>
        <path d="M48.35,223.88 C40.53,223.71 37.03,214.91 42.82,208.07 C43.66,207.08 43.74,206.5 42.21,207.46 C38.31,210.07 30.83,208.35 30.45,200.38 C29.97,190.56 43.7,187.73 46.27,198.17 C46.41,199.28 47.3,199.25 47.09,197.69 C46.85,193.44 45.53,189.47 43.71,185.61 L53,185.61 C51.18,189.47 49.85,193.44 49.62,197.69 C49.4,199.25 50.3,199.28 50.43,198.17 C53.01,187.73 66.74,190.56 66.26,200.38 C65.88,208.35 58.4,210.07 54.5,207.46 C52.96,206.5 53.05,207.08 53.89,208.07 C59.68,214.91 56.18,223.71 48.36,223.88 C48.36,223.88 48.36,223.88 48.35,223.88" id="Fill-77" fill="#0A0A08"></path>
        <path d="M89.58,66.934 C81.76,67.104 78.25,75.907 84.04,82.744 C84.88,83.741 84.97,84.313 83.43,83.356 C79.53,80.749 72.06,82.463 71.67,90.43 C71.2,100.26 84.92,103.08 87.5,92.64 C87.64,91.54 88.53,91.56 88.32,93.13 C88.08,97.37 86.76,101.34 84.93,105.21 L94.23,105.21 C92.41,101.34 91.08,97.37 90.85,93.13 C90.63,91.56 91.53,91.54 91.66,92.64 C94.24,103.08 107.96,100.26 107.49,90.43 C107.11,82.463 99.63,80.749 95.73,83.356 C94.19,84.313 94.28,83.741 95.12,82.744 C100.91,75.907 97.41,67.104 89.59,66.934 C89.59,66.934 89.59,66.934 89.58,66.934" id="Fill-78" fill="#0A0A08"></path>
        <path d="M130.81,106.49 C122.99,106.66 119.48,115.46 125.27,122.3 C126.11,123.3 126.2,123.87 124.66,122.91 C120.76,120.31 113.29,122.02 112.9,129.99 C112.43,139.81 126.15,142.64 128.73,132.2 C128.87,131.1 129.76,131.12 129.55,132.69 C129.31,136.93 127.98,140.9 126.16,144.77 L135.46,144.77 C133.64,140.9 132.31,136.93 132.08,132.69 C131.86,131.12 132.76,131.1 132.89,132.2 C135.47,142.64 149.19,139.81 148.72,129.99 C148.34,122.02 140.86,120.31 136.96,122.91 C135.42,123.87 135.51,123.3 136.35,122.3 C142.14,115.46 138.63,106.66 130.81,106.49" id="Fill-79" fill="#0A0A08"></path>
        <path d="M48.35,106.49 C40.53,106.66 37.03,115.46 42.82,122.3 C43.66,123.3 43.74,123.87 42.21,122.91 C38.31,120.31 30.83,122.02 30.45,129.99 C29.97,139.81 43.7,142.64 46.27,132.2 C46.41,131.1 47.3,131.12 47.09,132.69 C46.85,136.93 45.53,140.9 43.71,144.77 L53,144.77 C51.18,140.9 49.85,136.93 49.62,132.69 C49.4,131.12 50.3,131.1 50.43,132.2 C53.01,142.64 66.74,139.81 66.26,129.99 C65.88,122.02 58.4,120.31 54.5,122.91 C52.96,123.87 53.05,123.3 53.89,122.3 C59.68,115.46 56.18,106.66 48.36,106.49 C48.36,106.49 48.36,106.49 48.35,106.49" id="Fill-80" fill="#0A0A08"></path>
        <path d="M89.58,184.33 C81.76,184.16 78.25,175.35 84.04,168.51 C84.88,167.52 84.97,166.95 83.43,167.9 C79.53,170.51 72.06,168.8 71.67,160.83 C71.2,151 84.93,148.17 87.5,158.62 C87.64,159.72 88.53,159.69 88.32,158.13 C88.08,153.89 86.76,149.92 84.93,146.05 L94.23,146.05 C92.41,149.92 91.08,153.89 90.85,158.13 C90.63,159.69 91.53,159.72 91.66,158.62 C94.24,148.17 107.96,151 107.49,160.83 C107.11,168.8 99.63,170.51 95.73,167.9 C94.19,166.95 94.28,167.52 95.12,168.51 C100.91,175.35 97.41,184.16 89.59,184.33 C89.59,184.33 89.59,184.33 89.58,184.33" id="Fill-81" fill="#0A0A08"></path>
        <path d="M164.76,209.77 C167.89,209.7 169.29,206.03 166.98,203.19 C166.64,202.77 166.61,202.53 167.22,202.93 C168.78,204.02 171.77,203.3 171.93,199.98 C172.12,195.89 166.63,194.71 165.6,199.06 C165.54,199.52 165.18,199.51 165.27,198.86 C165.36,197.09 165.89,195.44 166.62,193.82 L162.9,193.82 C163.63,195.44 164.16,197.09 164.26,198.86 C164.34,199.51 163.99,199.52 163.93,199.06 C162.9,194.71 157.41,195.89 157.6,199.98 C157.75,203.3 160.74,204.02 162.3,202.93 C162.92,202.53 162.88,202.77 162.55,203.19 C160.23,206.03 161.63,209.7 164.76,209.77" id="Fill-82" fill="#0A0A08"></path>
        <path d="M14.4,40.823 C11.27,40.894 9.87,44.563 12.19,47.411 C12.52,47.826 12.56,48.064 11.94,47.666 C10.38,46.579 7.39,47.294 7.24,50.615 C7.05,54.707 12.54,55.887 13.57,51.535 C13.63,51.076 13.98,51.086 13.9,51.738 C13.8,53.507 13.27,55.16 12.54,56.772 L16.26,56.772 C15.53,55.16 15,53.507 14.91,51.738 C14.82,51.086 15.18,51.075 15.23,51.535 C16.27,55.887 21.75,54.707 21.57,50.615 C21.41,47.294 18.42,46.579 16.86,47.666 C16.25,48.064 16.28,47.826 16.62,47.411 C18.93,44.563 17.53,40.894 14.4,40.823" id="Fill-83" fill="#0A0A08"></path>
        <path d="M19.23,19.186 C19.29,16.494 16.81,14.563 14.25,14.641 C11.97,14.711 9.56,16.448 9.56,18.7 C9.56,21.519 12.3,22.926 14.64,22.98 C16.76,23.028 19.18,21.221 19.23,19.186 L19.23,19.186 Z M20.25,30.627 C20.47,27.429 17.64,25.271 14.46,25.24 C11.35,25.206 8.58,27.859 8.58,30.73 C8.58,33.814 12.19,35.49 14.52,35.498 C17.36,35.511 20.06,33.381 20.25,30.627 L20.25,30.627 Z M5.86,30.614 C5.99,27.082 7.26,25.757 9.78,23.908 C7.77,22.461 6.93,20.327 7.1,18.512 C7.51,14.114 10.9,11.916 14.6,12.01 C18.31,12.108 21.5,15.048 21.74,18.243 C21.96,21.021 21.14,22.361 19.17,23.822 C21.5,25.797 23,27.094 22.94,30.573 C22.88,34.053 19.93,38.193 14.78,38.319 C9.62,38.446 5.74,34.147 5.86,30.614 L5.86,30.614 Z" id="Fill-84" fill="#0A0A08"></path>
        <path d="M169.59,231.41 C169.65,234.1 167.17,236.03 164.61,235.96 C162.33,235.89 159.93,234.15 159.92,231.9 C159.92,229.08 162.66,227.67 165,227.62 C167.13,227.57 169.54,229.38 169.59,231.41 L169.59,231.41 Z M170.61,219.97 C170.83,223.17 168,225.33 164.82,225.36 C161.71,225.39 158.94,222.74 158.94,219.87 C158.94,216.78 162.55,215.11 164.88,215.1 C167.72,215.09 170.42,217.22 170.61,219.97 L170.61,219.97 Z M156.22,219.98 C156.35,223.51 157.63,224.84 160.14,226.69 C158.13,228.14 157.29,230.27 157.46,232.08 C157.87,236.48 161.26,238.68 164.97,238.59 C168.67,238.49 171.86,235.55 172.11,232.35 C172.32,229.58 171.5,228.23 169.53,226.77 C171.87,224.8 173.36,223.5 173.3,220.02 C173.25,216.54 170.29,212.4 165.14,212.28 C159.99,212.15 156.1,216.45 156.22,219.98 L156.22,219.98 Z" id="Fill-85" fill="#0A0A08"></path>
    </g>
</svg>