<?xml version="1.0" encoding="UTF-8" standalone="no"?>
<svg width="179px" height="251px" viewBox="0 0 179 251" version="1.1" xmlns="http://www.w3.org/2000/svg" xmlns:xlink="http://www.w3.org/1999/xlink">
    <!-- Generator: Sketch 39.1 (31720) - http://www.bohemiancoding.com/sketch -->
    <title>AH</title>
    <desc>Created with Sketch.</desc>
    <defs></defs>
    <g id="Page-1" stroke="none" stroke-width="1" fill="none" fill-rule="evenodd">
        <path d="M9.115,1.42 L169.893,1.42 C174.59,1.42 178.396,5.23 178.396,9.93 L178.396,241.57 C178.396,246.27 174.59,250.07 169.893,250.07 L9.115,250.07 C4.418,250.07 0.611,246.27 0.611,241.57 L0.611,9.93 C0.611,5.23 4.418,1.42 9.115,1.42" id="Fill-308" fill="#FFFFFF"></path>
        <path d="M14.323,57.22 C14.323,57.22 12.552,54.68 10.161,51.69 C8.563,49.69 7.284,47.52 7.165,45.65 C7.029,43.52 8.319,41.38 10.655,41.28 C12.99,41.17 13.938,42.92 14.323,44.36 C14.709,42.92 15.657,41.17 17.991,41.28 C20.327,41.38 21.618,43.52 21.481,45.65 C21.362,47.52 20.084,49.69 18.485,51.69 C16.096,54.68 14.323,57.22 14.323,57.22" id="Fill-310" fill="#C0242A"></path>
        <path d="M164.686,194.27 C164.686,194.27 162.913,196.82 160.523,199.81 C158.924,201.81 157.646,203.98 157.527,205.84 C157.391,207.97 158.681,210.11 161.017,210.22 C163.352,210.32 164.299,208.57 164.686,207.13 C165.07,208.57 166.019,210.32 168.354,210.22 C170.689,210.11 171.979,207.97 171.843,205.84 C171.725,203.98 170.446,201.81 168.847,199.81 C166.457,196.82 164.686,194.27 164.686,194.27" id="Fill-311" fill="#C0242A"></path>
        <path d="M89.504,144.89 C89.504,144.89 85.787,138.78 80.774,131.6 C77.421,126.8 74.739,121.6 74.49,117.12 C74.204,112 76.91,106.87 81.811,106.62 C86.707,106.37 88.694,110.57 89.504,114.02 C90.313,110.57 92.301,106.37 97.197,106.62 C102.098,106.87 104.804,112 104.518,117.12 C104.269,121.6 101.587,126.8 98.233,131.6 C93.221,138.78 89.504,144.89 89.504,144.89" id="Fill-312" fill="#C0242A"></path>
        <path d="M16.908,30.21 L14.32,17.33 L11.897,30.21 L16.908,30.21 L16.908,30.21 Z M6.284,38.77 L6.284,36.52 L8.429,36.52 L12.997,12.46 L15.597,12.46 L20.628,36.52 L22.359,36.52 L22.359,38.77 L16.46,38.77 L16.46,36.52 L18.052,36.52 L17.416,32.83 L11.464,32.83 L11.004,36.52 L12.597,36.52 L12.597,38.77 L6.284,38.77 L6.284,38.77 Z" id="Fill-313" fill="#C0242A"></path>
        <path d="M167.27,221.29 L164.683,234.17 L162.259,221.29 L167.27,221.29 L167.27,221.29 Z M156.646,212.72 L156.646,214.97 L158.791,214.97 L163.358,239.04 L165.958,239.04 L170.99,214.97 L172.722,214.97 L172.722,212.72 L166.821,212.72 L166.821,214.97 L168.414,214.97 L167.777,218.66 L161.825,218.66 L161.366,214.97 L162.958,214.97 L162.958,212.72 L156.646,212.72 L156.646,212.72 Z" id="Fill-314" fill="#C0242A"></path>
    </g>
</svg>