<?xml version="1.0" encoding="UTF-8" standalone="no"?>
<svg width="179px" height="250px" viewBox="0 0 179 250" version="1.1" xmlns="http://www.w3.org/2000/svg" xmlns:xlink="http://www.w3.org/1999/xlink">
    <!-- Generator: Sketch 39.1 (31720) - http://www.bohemiancoding.com/sketch -->
    <title>AS</title>
    <desc>Created with Sketch.</desc>
    <defs></defs>
    <g id="Page-1" stroke="none" stroke-width="1" fill="none" fill-rule="evenodd">
        <path d="M9.115,0.87 L169.893,0.87 C174.59,0.87 178.396,4.68 178.396,9.38 L178.396,241.02 C178.396,245.71 174.59,249.52 169.893,249.52 L9.115,249.52 C4.418,249.52 0.611,245.71 0.611,241.02 L0.611,9.38 C0.611,4.68 4.418,0.87 9.115,0.87" id="Fill-155" fill="#FFFFFF"></path>
        <path d="M14.323,40.72 C10.891,45.09 7.217,47.61 7.156,51.02 C7.136,52.12 7.805,54 9.898,54.36 C11.258,54.59 13.129,53.61 13.168,51.62 C13.16,51.22 13.639,51.23 13.635,51.77 C13.57,53.35 13.013,55.18 12.075,56.67 L16.572,56.67 C15.635,55.18 15.076,53.35 15.013,51.77 C15.005,51.23 15.485,51.22 15.479,51.62 C15.518,53.61 17.389,54.59 18.748,54.36 C20.843,54 21.512,52.12 21.491,51.02 C21.43,47.61 17.757,45.09 14.323,40.72" id="Fill-157" fill="#0A0A08"></path>
        <path d="M164.686,209.67 C161.252,205.3 157.579,202.78 157.518,199.37 C157.497,198.27 158.166,196.39 160.261,196.03 C161.619,195.8 163.49,196.78 163.529,198.78 C163.521,199.17 164.001,199.17 163.996,198.62 C163.933,197.05 163.374,195.21 162.437,193.72 L166.934,193.72 C165.996,195.21 165.438,197.05 165.374,198.62 C165.366,199.17 165.847,199.17 165.841,198.78 C165.88,196.78 167.751,195.8 169.109,196.03 C171.204,196.39 171.873,198.27 171.853,199.37 C171.791,202.78 168.118,205.3 164.686,209.67" id="Fill-158" fill="#0A0A08"></path>
        <path d="M89.504,106.06 C82.156,116.55 74.294,122.59 74.163,130.77 C74.119,133.42 75.551,137.93 80.034,138.79 C82.942,139.35 86.947,136.99 87.03,132.2 C87.018,131.25 88.039,131.27 88.029,132.58 C87.893,136.36 86.698,140.76 84.691,144.33 L94.316,144.33 C92.31,140.76 91.115,136.36 90.979,132.58 C90.969,131.27 91.99,131.25 91.978,132.2 C92.061,136.99 96.065,139.35 98.974,138.79 C103.457,137.93 104.889,133.42 104.845,130.77 C104.714,122.59 96.852,116.55 89.504,106.06" id="Fill-159" fill="#0A0A08"></path>
        <path d="M16.908,29.66 L14.32,16.78 L11.897,29.66 L16.908,29.66 L16.908,29.66 Z M6.284,38.22 L6.284,35.97 L8.429,35.97 L12.997,11.91 L15.597,11.91 L20.628,35.97 L22.359,35.97 L22.359,38.22 L16.46,38.22 L16.46,35.97 L18.052,35.97 L17.416,32.28 L11.464,32.28 L11.004,35.97 L12.597,35.97 L12.597,38.22 L6.284,38.22 L6.284,38.22 Z" id="Fill-160" fill="#0A0A08"></path>
        <path d="M167.27,220.74 L164.683,233.62 L162.259,220.74 L167.27,220.74 L167.27,220.74 Z M156.646,212.17 L156.646,214.42 L158.791,214.42 L163.358,238.49 L165.958,238.49 L170.99,214.42 L172.722,214.42 L172.722,212.17 L166.821,212.17 L166.821,214.42 L168.414,214.42 L167.777,218.11 L161.825,218.11 L161.366,214.42 L162.958,214.42 L162.958,212.17 L156.646,212.17 L156.646,212.17 Z" id="Fill-161" fill="#0A0A08"></path>
    </g>
</svg>