<?xml version="1.0" encoding="UTF-8"?>
<svg width="22px" height="34px" viewBox="0 0 22 34" version="1.1" xmlns="http://www.w3.org/2000/svg" xmlns:xlink="http://www.w3.org/1999/xlink">
    <!-- Generator: Sketch 41 (35326) - http://www.bohemiancoding.com/sketch -->
    <title>three</title>
    <desc>Created with Sketch.</desc>
    <defs></defs>
    <g id="Page-1" stroke="none" stroke-width="1" fill="none" fill-rule="evenodd">
        <path d="M0.29112,25.947651 L2.83172,24.079131 C5.03662,27.669501 7.50252,30.034281 11.27472,29.628351 C16.93432,29.239471 19.27942,23.306601 18.09532,18.836301 C16.94982,14.825641 12.26342,12.872021 8.53752,15.010251 C7.65812,15.516991 6.80962,15.930761 6.64372,15.930761 C6.25292,15.930761 5.36832,14.170941 5.48922,13.634091 C7.98982,9.982171 14.06212,3.584461 14.06212,3.584461 L4.57502,3.584461 L4.57502,7.868801 L0.93402,7.868801 L0.93402,0.181351 L19.47612,0.181351 L19.47612,2.789651 C19.47612,2.789651 14.50822,7.942121 12.86642,10.763881 C16.90992,10.911831 20.16912,13.474331 21.33912,17.525601 C22.02182,19.658621 21.71582,24.537431 20.82222,26.640301 C19.32962,30.145571 15.25262,32.989591 11.52552,33.153251 C5.26802,33.573571 1.94842,29.189701 0.29112,25.947651 L0.29112,25.947651 L0.29112,25.947651 Z" id="path17-3" fill="#000000"></path>
    </g>
</svg>