<?xml version="1.0" encoding="UTF-8"?>
<svg width="23px" height="34px" viewBox="0 0 23 34" version="1.1" xmlns="http://www.w3.org/2000/svg" xmlns:xlink="http://www.w3.org/1999/xlink">
    <!-- Generator: Sketch 41 (35326) - http://www.bohemiancoding.com/sketch -->
    <title>king</title>
    <desc>Created with Sketch.</desc>
    <defs></defs>
    <g id="Page-1" stroke="none" stroke-width="1" fill="none" fill-rule="evenodd">
        <polygon id="path39-5" fill="#000000" points="12.0807 29.546531 15.4004 29.546531 10.5237 17.361551 6.7977 22.508681 6.8237 29.546531 9.4402 29.546531 9.4402 33.176101 0.2191 33.176101 0.2191 29.546531 3.2572 29.546531 3.2572 3.342131 0.2191 3.353931 0.2191 0.181351 9.5752 0.181351 9.5752 3.461301 6.9934 3.461301 6.9384 16.232891 15.1053 3.353931 12.2227 3.353931 12.2227 0.181351 22.1767 0.181351 22.1767 3.353931 19.5501 3.353931 12.8257 13.878631 19.4099 29.551771 22.3323 29.551771 22.3473 33.181351 12.1117 33.181351 12.0807 29.546541"></polygon>
    </g>
</svg>