<?xml version="1.0" encoding="UTF-8"?>
<svg width="23px" height="34px" viewBox="0 0 23 34" version="1.1" xmlns="http://www.w3.org/2000/svg" xmlns:xlink="http://www.w3.org/1999/xlink">
    <!-- Generator: Sketch 41 (35326) - http://www.bohemiancoding.com/sketch -->
    <title>height</title>
    <desc>Created with Sketch.</desc>
    <defs></defs>
    <g id="Page-1" stroke="none" stroke-width="1" fill="none" fill-rule="evenodd">
        <path d="M0.92251,23.515121 C1.07931,19.085051 2.68131,17.423301 5.83511,15.105471 C3.31901,13.290501 2.25831,10.615181 2.47431,8.337951 C2.99241,2.823631 7.25061,0.067121 11.89711,0.184981 C16.54741,0.308081 20.54971,3.994331 20.86211,8.001421 C21.13341,11.484691 20.09841,13.166101 17.62731,14.998091 C20.56001,17.474371 22.43321,19.100761 22.36381,23.464031 C22.29481,27.827311 18.58261,33.019501 12.11301,33.177941 C5.64351,33.336381 0.76171,27.945161 0.92251,23.515121 L0.92251,23.515121 L0.92251,23.515121 Z M18.98251,23.530821 C19.25891,19.519791 15.71301,16.814371 11.71061,16.775071 C7.81371,16.733171 4.32821,20.059321 4.32821,23.660451 C4.32821,27.527421 8.86281,29.629171 11.79161,29.638341 C15.35171,29.654041 18.74201,26.983971 18.98251,23.530821 L18.98251,23.530821 L18.98251,23.530821 Z M17.70191,9.182571 C17.77791,5.807991 14.66381,3.386721 11.44961,3.483621 C8.59161,3.571321 5.56891,5.750371 5.56381,8.573661 C5.56381,12.108011 9.00431,13.873221 11.94211,13.941311 C14.60861,14.001511 17.64151,11.734791 17.70191,9.182571 L17.70191,9.182571 L17.70191,9.182571 Z" id="path27-3" fill="#000000"></path>
    </g>
</svg>