<?xml version="1.0" encoding="UTF-8" standalone="no"?>
<svg width="179px" height="250px" viewBox="0 0 179 250" version="1.1" xmlns="http://www.w3.org/2000/svg" xmlns:xlink="http://www.w3.org/1999/xlink">
    <!-- Generator: Sketch 39.1 (31720) - http://www.bohemiancoding.com/sketch -->
    <title>JH</title>
    <desc>Created with Sketch.</desc>
    <defs></defs>
    <g id="Page-1" stroke="none" stroke-width="1" fill="none" fill-rule="evenodd">
        <path d="M8.94,0.42 L169.72,0.42 C174.42,0.42 178.22,4.23 178.22,8.93 L178.22,240.57 C178.22,245.27 174.42,249.07 169.72,249.07 L8.94,249.07 C4.25,249.07 0.44,245.27 0.44,240.57 L0.44,8.93 C0.44,4.23 4.25,0.42 8.94,0.42" id="Fill-425" fill="#FFFFFF"></path>
        <path d="M14.15,56.22 C14.15,56.22 12.38,53.68 9.99,50.69 C8.39,48.69 7.11,46.52 6.99,44.65 C6.86,42.52 8.15,40.38 10.48,40.28 C12.82,40.17 13.76,41.92 14.15,43.36 C14.54,41.92 15.48,40.17 17.82,40.28 C20.15,40.38 21.45,42.52 21.31,44.65 C21.19,46.52 19.91,48.69 18.31,50.69 C15.92,53.68 14.15,56.22 14.15,56.22" id="Fill-427" fill="#C0242A"></path>
        <path d="M164.51,193.27 C164.51,193.27 162.74,195.82 160.35,198.81 C158.75,200.81 157.47,202.98 157.35,204.84 C157.22,206.97 158.51,209.11 160.84,209.22 C163.18,209.32 164.13,207.57 164.51,206.13 C164.9,207.57 165.84,209.32 168.18,209.22 C170.52,209.11 171.81,206.97 171.67,204.84 C171.55,202.98 170.27,200.81 168.67,198.81 C166.28,195.82 164.51,193.27 164.51,193.27" id="Fill-428" fill="#C0242A"></path>
        <path d="M14.06,11.46 L14.06,14.21 L16.74,14.21 C16.74,14.21 16.8,16.87 16.82,22.5 C16.84,27.97 16.96,30.68 16.61,32.24 C15.67,35.83 10.48,35.85 9.44,33.27 C8.84,31.77 9,30.6 8.98,29.09 L6.1,29.09 C6.1,29.09 6.12,29.85 6.13,30.78 C6.14,34.82 7.48,36.75 10.6,37.51 C13.81,38.38 17.57,37.05 18.9,34.3 C19.7,32.74 19.61,32.63 19.63,23.16 C19.64,16.84 19.74,14.21 19.74,14.21 L22.19,14.21 L22.19,11.46 L14.06,11.46" id="Fill-429" fill="#C0242A"></path>
        <path d="M164.6,238.04 L164.6,235.28 L161.92,235.28 C161.92,235.28 161.86,232.63 161.84,227 C161.82,221.53 161.71,218.81 162.05,217.26 C162.99,213.67 168.18,213.65 169.22,216.23 C169.82,217.73 169.66,218.9 169.68,220.41 L172.56,220.41 C172.56,220.41 172.54,219.65 172.54,218.72 C172.52,214.68 171.18,212.75 168.06,211.99 C164.85,211.12 161.09,212.44 159.76,215.19 C158.96,216.76 159.05,216.87 159.03,226.34 C159.02,232.65 158.93,235.28 158.93,235.28 L156.47,235.28 L156.47,238.04 L164.6,238.04" id="Fill-430" fill="#C0242A"></path>
        <path d="M143.57,172.2 C142.89,171.2 140.78,173.68 139.05,173.77 C131.36,174.18 125.69,173.15 124.73,181.22 C129.17,178.38 135.38,179.68 139.39,178.76 C142.28,177.79 145.6,175.16 143.57,172.2 L143.57,172.2 Z M149.01,155.13 C148.88,155.81 148.26,158.84 149.67,158.31 C151.33,157.03 149.91,151.13 149.01,155.13 L149.01,155.13 Z M92.29,121.29 L86.52,121.32 L86.48,128.12 L92.29,128.11 L92.29,121.29 L92.29,121.29 Z M28.26,94.44 C28.26,95.22 29.13,96.5 29.57,95.17 C29.95,94.22 30.03,92.68 29.6,91.74 C28.42,91.06 28.28,93.67 28.26,94.44 L28.26,94.44 Z M54.51,68.96 C54.51,68.96 50.71,70.41 47.41,70.37 C41.5,70.67 36.99,71.15 34.59,76.02 C34.1,77.5 35.17,78.04 35.96,78.43 C40.41,72.88 52.26,80.21 54.51,68.96 L54.51,68.96 Z M152.91,29.43 L143.74,35.43 L143.61,42.42 C138.18,39.8 135.81,35.52 134.96,30.5 C133.42,32.44 133.73,42.26 133.73,42.26 C132.33,42.99 131.82,43.94 130.92,44.79 C131.8,46.25 134.28,48.72 134.28,48.72 C134.27,48.67 133.15,58.95 134.5,59.35 C135.74,54.98 137.39,51.16 143.46,47.15 C143.46,47.15 143.56,63.46 143.17,79.21 C140.6,77.44 135.16,74.25 131.65,70.99 C136.21,65.1 131.56,57.43 124.77,62.53 C120.37,60.14 119.7,48.85 118.61,42.94 C118.4,41.75 117.37,38.27 117.37,38.27 C117.37,38.27 102.87,34.25 96.64,34.58 C101.87,48.25 100.85,64.91 77.7,68.04 C66.61,73.13 53.79,78.8 41.33,89.39 C39.04,105.17 30.92,112.94 25.2,117.24 C25.24,123.63 25.15,129.96 25.42,136.41 C25.41,136.45 30.64,132.97 31.47,133.61 C35.84,162.13 51.86,167.78 50.26,168.57 C50,168.7 45.01,173.84 45.01,173.84 L25.46,160.93 C24.79,180.64 25.18,200.75 25.46,220.5 C28.91,218.54 35.25,213.86 35.25,213.86 L35.35,207.15 C35.32,206.52 44.24,212.74 44.26,220.16 C44.96,220.63 46.48,209.49 45.09,208.28 L48.75,204.5 L44.81,200.69 C44.81,200.69 45.81,194.38 43.77,190.74 C42.45,199.07 35.56,201.66 35.56,201.66 C35.56,201.66 35.42,171.24 35.25,171.21 L47.53,179.02 C40.88,188.11 52.59,191.06 53.96,186.63 C61.52,193.7 58.61,202.14 61.92,212.16 L83.36,216.11 C74.52,199.66 84.11,180.92 101.47,182.26 C104.72,180.9 107.66,178.94 107.66,178.94 C107.66,178.94 105.51,175.4 102.78,172.12 L65.63,171.51 L82.95,138.94 L71.56,138.57 C71.56,138.57 80.82,118.89 78.82,117.3 C78.12,116.74 78.41,110.39 78.41,110.39 L88.58,110.77 C88.98,106.23 83.66,88.91 76.15,77.59 L117.9,77.96 L94.4,110.84 L107.02,111.21 L99.49,126.73 L100.7,138.83 L89.5,139.2 C91.43,155.98 103.86,173.66 108.23,179.12 C115.45,177.4 128.94,167.05 137.3,160.61 C138.39,149.35 142.26,139.77 152.36,132.61 L152.39,114.07 C152.39,114.07 146.63,117.81 146.63,117.55 C146.65,113.54 144.56,105.19 140.72,97.74 C136.59,89.75 129.81,82.51 128.25,82.06 C131.84,76.62 133.37,76.13 133.32,76.05 L152.84,88.61 L152.91,29.43 L152.91,29.43 Z" id="Fill-431" fill="#DACA2C"></path>
        <path d="M69.37,69.52 C71.53,69.54 71.43,69.6 70.54,67.82 C72.65,68.11 73.5,69.12 72.8,67.02 C73.92,67.42 74.59,67.73 75.74,68.11 L76.47,67.68 C72.02,63.34 67.08,67.02 68.38,71.4 L70.04,70.61 L69.37,69.52 L69.37,69.52 Z M35.75,78.56 C38.21,75.9 39.84,76.04 43.09,76.11 C51.48,76.19 54.05,72.17 53.79,69.35 C49.71,71.38 46.07,70.29 42.19,70.88 C35.5,72.37 34.71,75.53 34.25,77.34 L35.75,78.56 L35.75,78.56 Z M33.78,80.03 C35.3,79.21 35.07,78.46 33.56,77.51 C31.71,76.45 30.42,78.48 31.94,79.86 C32.74,80.58 32.92,80.5 33.78,80.03 L33.78,80.03 Z M32.92,83.47 C34.09,82.87 34.16,81.37 32.99,81.92 C32.5,82.15 31.87,82.76 31.87,83.04 C31.87,83.58 32.33,83.77 32.92,83.47 L32.92,83.47 Z M138.38,83.35 L135.75,81.55 L135.75,83.31 L138.38,84.84 L138.38,83.35 L138.38,83.35 Z M32.43,85.14 C32.48,85.01 32.14,84.77 31.6,84.31 C30.56,83.43 30.44,82.89 31.44,82.21 C32.87,81.23 31.37,79.85 29.71,80.41 C28.37,80.87 28.37,82.22 29.16,83.09 C30.26,83.82 32.23,85.92 32.43,85.14 L32.43,85.14 Z M34.65,85.81 C35.14,85.33 34.97,85.18 34.04,85.23 C33.44,85.26 33.26,85.16 33.22,85.43 C33.13,86.03 34.15,86.31 34.65,85.81 L34.65,85.81 Z M138.38,87.92 L138.38,86.14 L135.71,84.27 L135.67,86.12 L138.38,87.92 L138.38,87.92 Z M143.05,86.36 L140.4,84.71 L140.45,86.45 L143.26,88.15 L143.05,86.36 L143.05,86.36 Z M30.89,87.64 C30.75,87.23 31.51,86.56 31.63,86.3 C31.98,85.53 28.87,83.39 27.9,84.66 C27.24,85.53 27.7,86.41 29.5,87.6 C30.58,88.33 31.1,88.33 30.89,87.64 L30.89,87.64 Z M33.37,87.46 C32.32,86.13 31.09,87.83 31.88,88.57 C32.46,89.08 33.92,88.56 33.37,87.46 L33.37,87.46 Z M143.33,89.31 L140.46,87.42 L140.57,89.44 L143.67,91.27 L143.33,89.31 L143.33,89.31 Z M42.65,87.09 C42.81,86.83 42.86,86.57 42.84,86.26 C42.78,85.06 42.16,83.65 41.3,82.48 C40.66,81.6 39.88,80.85 39.09,80.41 C36.87,79.27 33.9,79.76 34.33,81.24 C34.64,82.24 34.56,83.08 33.71,83.58 C33.13,83.92 33.05,84.38 33.67,84.38 C34.12,84.38 35.3,83.97 35.79,83.19 C36.49,82.09 36.89,81.45 36.73,83.25 C36.67,84 36.76,83.94 37.92,83.88 C39.49,83.8 39.2,84.1 38.28,84.81 C36.94,85.84 36.68,87.59 37.35,89.08 C37.77,90 38.06,90.5 38.61,90.37 C39.78,89.6 41.71,88.04 42.65,87.09 L42.65,87.09 Z M148.47,91.72 L148.22,89.82 L145.31,87.88 L145.54,89.98 L148.47,91.72 L148.47,91.72 Z M29.65,90.66 C29.61,90.3 30.05,89.81 30.35,89.79 C31.01,89.75 30.89,89.4 30.14,88.94 C29.78,88.72 29.15,88.22 28.92,88.05 C27.79,87.23 26.7,88.5 27.54,89.58 C28.24,90.48 29.28,91.01 29.65,90.66 L29.65,90.66 Z M30.62,91.41 C30.92,91.73 31.23,91.75 31.72,91.46 C32.29,91.16 32.07,90.71 31.48,90.42 C30.93,90.13 30.15,91.02 30.62,91.41 L30.62,91.41 Z M151.93,94.08 L151.93,92.36 L150.61,91.5 L150.67,93.33 L151.93,94.08 L151.93,94.08 Z M148.79,94.79 L148.72,93.09 L145.5,90.9 L145.9,93.19 L148.79,94.79 L148.79,94.79 Z M37.6,91.2 C37.67,91.09 37.38,90.96 37.06,90.26 C36.27,88.52 36.2,87.91 36.62,86.08 C36.82,85.21 36.03,84.84 35.67,85.77 C35.38,86.49 34.94,86.9 34.52,86.84 C34.13,86.79 34.04,86.96 34.21,87.51 C34.43,88.27 33.97,89.26 33.33,89.53 C32.69,89.7 32.57,90.11 32.75,90.7 C33.05,91.68 32,92.51 31.17,92.46 C29.89,92.39 30.39,93.56 31.93,94.67 C32.51,95.08 32.76,95.31 33.21,95.1 C34.38,93.99 36.55,92.41 37.6,91.2 L37.6,91.2 Z M151.93,95.15 L150.8,94.46 L150.88,96.26 L151.93,96.97 L151.93,95.15 L151.93,95.15 Z M151.93,98.17 L151.41,98.17 C151.37,99.5 149.94,98.54 149.4,97.08 C148.99,96.1 148.9,95.85 148.9,95.85 L146.1,93.96 C146.16,94.34 146.33,95.44 146.33,95.44 L144.44,94.29 C144.44,94.29 143.9,92.46 143.88,92.45 L140.66,90.26 C140.73,90.63 140.79,91.25 140.58,91.29 C140.58,91.29 139.6,90.87 139.15,90.22 C138.68,89.54 138.61,88.86 138.61,88.86 L135.99,87.15 L135.33,87.22 C135.33,87.22 134.98,86.98 134.65,86.71 C134.03,85.6 133.3,85.43 132.43,84.97 C132.43,84.97 134.27,87.14 135.26,88.41 C136.17,89.59 137.27,90.44 137.27,90.44 L151.93,100.25 L151.93,98.17 L151.93,98.17 Z M151.93,101.19 L138.05,91.92 L139.61,94.52 L151.93,102.87 L151.93,101.19 L151.93,101.19 Z M151.93,104.02 L140.87,96.6 L142.29,99.44 L151.93,105.91 L151.93,104.02 L151.93,104.02 Z M151.93,108.9 L151.94,106.96 L143.16,101.14 L144.12,103.71 L151.93,108.9 L151.93,108.9 Z M151.93,111.68 L151.93,109.83 L144.68,105 L145.27,107.17 L151.93,111.68 L151.93,111.68 Z M151.93,113.84 L151.93,112.68 L145.67,108.43 L146.1,110.57 C147.2,111.21 148.55,112.14 149.96,113.14 C150.86,113.77 150.86,114.01 151.93,113.84 L151.93,113.84 Z M149.19,115.27 L150.35,114.32 L146.49,111.58 L146.76,113.28 L149.19,115.27 L149.19,115.27 Z M147.62,116.29 L148.5,115.65 L146.95,114.59 L146.83,115.67 L147.62,116.29 L147.62,116.29 Z M29.22,135.03 L28.09,135.64 L31.5,137.87 L31.23,136.28 L29.22,135.03 L29.22,135.03 Z M30.93,134.85 L30.84,134.15 L30.12,134.53 L30.93,134.85 L30.93,134.85 Z M34.71,148.28 C34.52,147.79 33.77,146.24 33.77,146.24 L25.7,140.59 L25.7,142.33 L34.73,148.42 L34.71,148.28 L34.71,148.28 Z M27.48,153.31 L25.7,152.15 L25.7,153.81 L27.56,154.87 L27.48,153.31 L27.48,153.31 Z M27.42,157.89 L27.44,156.36 L25.7,155.14 L25.7,156.97 L27.42,157.89 L27.42,157.89 Z M32.63,158.45 L32.64,156.86 L29.99,155.11 L29.94,156.66 L32.63,158.45 L32.63,158.45 Z M148.61,159.67 C149.24,158.99 148.45,158.09 147.49,158.4 C146.35,158.77 146.75,159.81 148.02,159.83 C148.3,159.83 148.48,159.82 148.61,159.67 L148.61,159.67 Z M150.95,161.69 C151.02,161.26 150.59,159.56 149.95,159.46 C149.55,159.4 148.92,160.01 148.91,160.44 C148.91,161 150.87,162.17 150.95,161.69 L150.95,161.69 Z M32.78,161.56 L32.78,159.89 L29.91,158 L29.88,159.69 L32.78,161.56 L32.78,161.56 Z M43.15,161.87 L41.2,159.53 C35.46,156.01 30.48,152.07 25.7,148.89 L25.67,151.07 L27.03,151.76 C27.03,151.76 27.15,151.28 27.24,151 C27.42,150.49 28.99,151.94 29.5,153.11 C29.62,153.4 29.9,154.05 29.9,154.05 L31.74,155.07 C31.74,155.07 31.76,154.54 31.76,154.4 C31.77,153.29 33.74,154.82 34.64,156.63 C34.85,157.07 35.14,157.54 35.14,157.54 L36.87,158.6 C37.55,157.66 39.3,158.94 39.74,160.08 C40.31,161.52 41.3,161.65 41.34,161.65 L43.15,161.87 L43.15,161.87 Z M37.95,160.46 L35.2,158.55 L35.22,160.27 L37.96,162.03 L37.95,160.46 L37.95,160.46 Z M146.77,162.8 C147.47,162.53 147.56,161.8 146.97,161.33 C146.06,160.6 145.02,161.34 145.45,162.39 C145.69,162.97 146.09,163.05 146.77,162.8 L146.77,162.8 Z M134.29,173.46 C137.8,173.59 140.65,172.98 141.95,171.96 C142.76,171.32 142.88,171.21 141.61,171.11 C138.89,170.89 136.14,167.73 135.27,164.66 C135.1,164.03 134.89,163.34 134.89,163.34 C127.64,169.14 111.69,178.29 111.69,178.29 C112.74,183.23 109.18,186.17 104.34,184.42 C103.5,184.34 103.61,185.43 103.77,185.87 C104.03,186.6 104.62,187.21 104.73,187.31 C105.45,187.93 105.58,188.34 105.48,188.93 C105.37,189.52 105.38,189.5 105.79,189.72 C106.52,190.11 106.48,190.66 106.08,191.81 C105.65,193.42 105.63,193.83 106.78,194.59 C108.27,195.55 111.19,196.6 110.76,198.04 C109.78,201.31 108.18,204.12 106.77,207.18 C106.24,208.02 106.35,209.42 106.77,210.07 C107.28,211.07 107.22,212.26 107.88,213.18 C111.55,218.64 114.7,223.36 118.04,228.28 L152.53,228.28 L152.53,147.9 C152.53,147.9 146.71,153.22 146.73,153.59 C146.75,154.04 148,154.74 148.53,154.83 C148.55,154.59 148.53,153.63 148.6,153.29 C148.65,152.81 150.2,152.93 150.71,153.36 C151.08,153.65 150.96,155.59 150.6,157.16 C150.3,158.45 150.34,158.46 150.89,159.21 C151.56,160.12 151.8,160.88 151.71,161.91 C151.66,162.47 151.67,162.92 151.82,163.29 C152.2,164.16 152.09,165.39 151.68,165.96 C151.08,166.79 151.07,166.92 151.2,167.36 C151.69,168.9 151.51,170.21 149.8,170.88 C149.58,170.96 149.34,171.34 149.2,171.67 C148.45,174.13 147.05,174.13 145.14,173.42 C143.79,178.71 138.28,180.04 134.31,179.89 C130.18,179.72 125.97,180.03 124.1,182.75 C124.54,176.32 127.41,173.22 134.29,173.46 L134.29,173.46 Z M124.89,181.16 C130.4,177.93 137.46,180.57 141.45,177.92 C143.31,175.86 145.17,174.55 144.12,173.14 C143.3,172.04 142.77,171.87 142.77,171.87 C142.83,171.95 139.86,174.45 135.57,173.87 C128.41,173.62 125.03,175.88 124.89,181.16 L124.89,181.16 Z M148.73,156.69 C148.49,158.17 149.25,159.08 149.98,158.34 C150.37,157.94 150.7,154.68 150.42,154.16 C148.94,152.57 148.79,156.33 148.73,156.69 L148.73,156.69 Z M144.05,163.18 C144.53,163.03 144.59,163.08 144.52,162.22 C144.42,160.92 144.62,160.82 145.48,160.24 C146.17,159.78 146.17,159.85 146.16,159.05 C146.15,158.09 146.21,157.67 147.48,157.48 C148,157.4 148.29,157.27 148.33,156.86 C148.41,156.17 147.3,155.01 145.93,154.34 C145.73,154.34 142.66,157.01 141.8,157.94 L141.28,158.5 L141.91,159.68 C142.88,161.51 142.72,162.19 142.15,164.62 C142.03,165.27 142.53,165.18 142.66,164.4 C142.84,163.66 142.94,163.4 144.05,163.18 L144.05,163.18 Z M143.45,164.36 C143.1,165.3 144.49,164.87 144.57,164.78 C144.81,164.3 144.6,164.26 144.48,164.21 C144.24,164.11 143.29,164.27 143.45,164.36 L143.45,164.36 Z M37.84,165.02 L37.87,163.39 L35.18,161.6 L35.14,163.42 L37.84,165.02 L37.84,165.02 Z M42.37,163.39 L40.3,162.14 L40.3,163.77 L42.37,165.17 L42.37,163.39 L42.37,163.39 Z M150.6,165.3 C151.55,164.31 151.09,163.25 149.15,161.99 C148.4,161.5 148.02,161.18 148.11,162.16 C148.14,162.45 147.81,162.85 147.61,163.08 C146.93,163.84 147.23,163.97 149.15,165.19 C150.12,165.81 150.07,165.86 150.6,165.3 L150.6,165.3 Z M145.96,168.13 C146.37,167.84 146.73,167.03 146.73,166.67 C146.82,165.83 145.47,166.03 144.82,166.95 C144.09,167.99 144.95,168.84 145.96,168.13 L145.96,168.13 Z M42.37,166.51 L40.3,165.2 L40.3,166.99 L42.37,168.23 L42.37,166.51 L42.37,166.51 Z M149.44,169.93 C151.34,169.18 150.57,167.13 147.6,165.05 C145.81,163.8 145.3,163.81 146.82,165.17 C147.79,166.04 147.95,166.34 147.53,166.96 C147.18,167.49 146.82,168.1 147.16,168.57 C147.71,169.32 148.63,170.25 149.44,169.93 L149.44,169.93 Z M143.38,169.9 C144.46,169.42 144.05,169.5 143.98,168.37 C143.67,167.07 144.4,166.98 144.77,165.76 C144.92,165.1 144.36,165.34 143.27,166.36 C142.37,167.12 142.1,167.3 142.1,166.93 C142.2,166.62 141.49,165.83 140.84,165.73 C140.3,165.64 140.35,165.51 140.88,164.82 C141.8,163.62 142.18,162.11 141.56,160.78 C140.78,159.1 140.52,158.85 138.79,160.32 C137.91,161.14 136.65,161.77 136.05,162.78 C135.62,163.52 135.87,164.24 136.55,165.71 C138.26,169.36 140.9,171 143.38,169.9 L143.38,169.9 Z M147.73,172.69 C148.9,171.7 148.33,170.49 146.62,169.61 C145.91,169.24 145.98,169.23 144.82,169.91 C143.4,170.75 143.29,170.79 144.31,171.87 C145.54,173.18 146.87,173.42 147.73,172.69 L147.73,172.69 Z M110.73,178.65 L109.47,179.32 C109.48,180.02 109.73,179.91 110.28,180.4 C110.28,180.4 109.51,180.53 108.95,180.49 C108.04,180.43 107.83,180.44 108.23,181.09 C108.42,181.39 108.68,181.83 108.68,181.83 C108.68,181.83 108.18,181.94 107.43,181.73 C106.3,181.42 105.72,181.58 106.15,182.21 C106.27,182.38 106.5,182.71 106.5,182.71 C105.67,182.52 104.15,181.78 104.15,181.78 L103.08,182.1 C105.22,186.28 112.8,183.65 110.73,178.65 L110.73,178.65 Z M75.8,39.49 C74.88,39.08 73.62,37.29 75.06,37.59 C75.37,37.67 76.98,37.75 78.01,37.75 C81.55,37.77 85.08,39.38 87.32,41.71 C88.56,43.01 88.64,43.98 87.38,43.08 C82.9,39.04 80.14,39.79 75.8,39.49 L75.8,39.49 Z M79.38,45.96 C79.64,45.79 80.5,44.54 80.5,44.34 C80.51,43.54 79.49,43.76 79.25,44.6 C78.96,45.62 78.94,46.24 79.38,45.96 L79.38,45.96 Z M82.48,45.79 C83.6,45.37 82.73,44.43 81.3,44.22 C80.97,44.17 80.27,45.72 80.25,46.05 C80.24,46.29 81.87,46.02 82.48,45.79 L82.48,45.79 Z M82.28,49.52 C80.56,49.22 78.06,46.9 76.91,46.74 C76.26,46.67 75.49,46.75 75.28,46.48 C74.65,45.68 76.45,45.68 76.57,45.39 C76.58,44.71 76.62,44.29 76.59,44.06 C76.27,43.63 75.02,41.9 75.06,41.06 C75.09,41.01 75.72,41.53 76.04,41.53 C79.12,39.9 81.22,40.63 83.81,41.77 C84.88,42.25 87.65,44.4 87.68,44.74 C87.74,45.32 86.51,44.23 85.55,43.59 C83.17,41.93 81.04,40.76 78.06,41.74 C77.6,41.9 77.68,41.98 79.21,41.89 C80.7,41.8 81.92,42.26 83.82,43.5 C84.29,43.81 84.87,44.34 85.21,44.5 C87.6,45.65 88.12,46.78 86.6,46.47 C86.27,46.41 85.64,46.06 85.02,45.84 C83.92,45.46 84.31,45.57 83.26,46.07 C82.89,46.24 82,46.6 81.27,46.69 C80.71,46.78 78.89,46.77 79.69,47.54 C80.54,48.39 81.96,49.03 82.93,49.42 C83.63,49.73 83.09,49.66 82.28,49.52 L82.28,49.52 Z M74.48,53.69 C73.7,53.4 72.76,52.93 72.42,53.02 C71.54,53.26 71.51,52.77 71.62,52.2 C71.87,50.83 73.27,51.08 75.13,52.26 C77.79,53.96 78.81,51.52 76.39,50.2 C75.57,49.76 75.83,49.63 76.3,49.61 C77.56,49.56 78.75,51.28 78.42,52.69 C77.57,54.95 75.51,54.07 74.48,53.69 L74.48,53.69 Z M81.37,58.2 C79.77,57.74 78.58,57.06 76.89,57.22 C75.57,57.35 75.12,56.92 75.93,56.19 C76.98,55.29 78.01,54.92 79.96,55.95 C85.85,59.04 86.03,54.53 83.38,54.21 C82.63,54.12 82.67,53.64 83.42,53.76 C87.53,53.92 86.28,59.39 81.37,58.2 L81.37,58.2 Z M45.42,208.43 C46.28,211.17 45.69,216.7 45.63,216.7 C46.67,216.14 49.47,208.13 48.77,205.13 L45.42,208.43 Z M142.73,78.34 L143.08,48.25 C136.29,51.47 134.95,60.86 135.17,61.15 C128.42,54.17 125.87,39.11 135.35,28.99 C136.06,32.23 136.3,36.94 143,41.25 L143.17,34.88 L152.53,28.86 L152.53,21.33 L129.96,21.33 C126.47,25.77 122.98,30.93 119.52,35.64 C118.22,37.41 117.9,38.24 118.15,39.16 C120.42,47.35 119.97,57.44 124.74,62.21 C131.13,56.17 137.13,65.26 132.15,70.86 L142.73,78.34 L142.73,78.34 Z M25.7,136.87 L32.21,141.09 L31.81,139.22 L27.18,136.07 L25.7,136.87 L25.7,136.87 Z M32.62,142.81 L25.7,137.97 L25.7,139.47 C27.48,141.07 33.32,144.86 33.32,144.86 L32.62,142.81 L32.62,142.81 Z M35.58,150.04 C32.35,148.41 25.7,143.38 25.7,143.38 L25.7,145.05 L36.29,152.51 C36.5,152.71 36.78,152.66 36.88,152.43 C36.46,151.73 35.96,150.77 35.58,150.04 L35.58,150.04 Z M37.75,154.51 L25.7,146.18 L25.7,148.01 L40.02,157.77 L37.75,154.51 L37.75,154.51 Z M130.01,45.04 C129.96,50.76 131.45,54.4 133.34,57.26 C133.38,53.57 133.75,49.84 133.96,48.87 L130.01,45.04 L130.01,45.04 Z M133.77,32.18 C133.77,32.18 130.21,36.77 129.98,44.46 L133.36,41.75 C133.15,33.94 133.77,32.18 133.77,32.18 L133.77,32.18 Z M90.01,110.57 L88.77,110.8 C87.19,97.22 79.7,83.38 76.53,77.67 L113.8,78.2 L90.01,110.57 L90.01,110.57 Z M96.05,119.69 L98.52,114.46 L96.56,114.46 L93.83,119.58 L87.72,119.58 L90.12,114.51 L88.6,114.52 C87.57,116.12 85.92,119.37 85.92,119.37 L79.44,119.37 C79.44,119.37 81.27,115.92 82,114.24 L80.4,114.24 L79.1,116.32 C78.64,115.54 78.94,113.48 78.86,112.6 L84.97,112.6 L82.52,117.63 L84.47,117.63 L87.14,112.6 L93.59,112.6 L90.97,117.63 L92.49,117.63 L95.1,112.88 L101.66,112.88 L99.36,117.63 L101.39,117.63 L100.49,119.69 L96.05,119.69 L96.05,119.69 Z M77.17,137.12 C77.17,137.12 78.79,133.88 79.54,132.17 L76.68,132.17 L78.39,130.24 L82.64,130.24 L80.37,135.11 L82.17,135.11 L84.67,130.24 L91.29,130.24 L88.98,135.11 L90.5,135.11 L92.98,130.24 L99.14,130.24 L96.98,135.11 L98.42,135.11 L99.69,132.65 L100,137.12 L93.88,137.12 L96.29,132.17 L94.32,132.17 L91.59,137.12 L85.86,137.12 L88.34,132.17 L86.16,132.17 L83.43,137.12 L77.17,137.12 L77.17,137.12 Z M65.63,171.51 L88.95,138.79 C91.73,150.83 96.41,161.86 102.52,171.85 L65.63,171.51 L65.63,171.51 Z M53.9,186.97 C57.61,189.65 58.6,194.03 59.36,197.92 C59.38,197.95 61.3,211.11 61.37,211.29 C61.62,212.01 61.53,212.73 60.9,213.27 C57.47,217.99 50.78,228.09 50.78,228.09 L116.39,228.48 C112.89,223.37 110.16,218.32 106.83,214.12 C106.97,213.89 106.57,211.03 106.02,210.1 C105.45,209.14 105.32,208.64 105.7,207.77 C106.66,205.62 107.65,203.28 108.53,201.31 C110.23,197.52 110.43,197.49 108.11,196.26 C105.36,194.66 104.87,194.14 105.45,192.31 C105.66,191.64 105.68,191.37 104.83,191.2 C104.44,191.12 103.48,190.89 102.84,190.71 C100.98,190.12 101.52,190.49 100.84,190.97 C100.32,191.22 99.88,190.24 99.27,189.08 C98.58,187.75 98.4,187.71 99.55,188.4 C101.69,189.67 105.47,189.18 104.14,187.71 C103.49,186.99 102.88,186.62 102.95,184.99 C103.02,183.38 103.05,182.9 101.95,182.68 C99.77,182.23 97.39,182.42 95.36,182.93 C89.16,184.48 84.19,189.87 82.31,193.87 C81.88,194.57 82.86,194.53 83.28,194.54 C85.31,194.36 86.75,197.6 85.42,199.05 C84.81,199.7 84.19,199.3 84.85,198.46 C85.6,197.07 84.48,195.22 82.85,195.69 C80.79,196.28 80.73,198.95 80.48,200.81 C79.78,206.16 82.49,213.32 83.15,214.78 C83.15,214.78 83.3,215 83.25,215 C83.2,215 82.87,215.3 82.74,215.14 C82.26,214.6 81.06,210.22 80.41,207.09 C79.14,198.44 81.38,190.48 88.55,185.96 C94.92,181.35 98.12,182.34 101.73,182.13 C102.96,181.69 104.67,181.01 105.97,180.38 C117.29,174.45 127.62,168.66 137.11,160.96 C144.06,155.71 147.37,151.44 153.32,146.08 L152.72,116.07 C152.72,116.07 152.12,115.57 152.12,115.1 C152.51,113.09 149,116.44 146.74,117.56 C145.32,103.79 137.9,90.26 128.91,82.34 L129.28,81.84 C129.28,81.84 132.29,83.83 133.79,84.78 L133.79,82.86 L130.17,80.58 C130.01,79.88 130.1,79.77 130.89,79.77 L133.79,81.92 L133.79,80.17 L131.44,78.67 L132.19,77.72 L133.45,78.53 C132.92,77.15 133.67,77.2 134.45,78.12 C134.77,78.54 135.18,79.08 135.36,79.59 C135.43,79.78 135.63,80.26 135.63,80.26 L137.68,81.8 C137.68,81.8 137.61,81.05 137.68,80.82 C138.03,79.73 140.51,83.24 140.2,83.32 L142.3,84.85 C142.8,84.08 144.68,85.6 144.76,86.35 C144.92,86.68 152.02,91.26 152.02,91.26 L152.1,88.73 L152.86,87.73 L153.21,29.29 L143.79,35.34 L143.68,42.41 C139.23,40.97 135.37,34.5 134.81,30.46 C134.52,30.31 133.23,38.42 133.91,41.97 C132.74,42.85 130.75,44.91 130.77,44.92 L134.34,48.83 C134.34,48.83 133.63,54.83 133.79,57.82 C133.94,59.23 133.96,59.37 134.39,59.38 C134.73,59.38 135.04,59.01 135.04,58.68 C135.88,55.12 138.63,49.55 143.4,47.65 C143.71,47.64 143.37,79.49 143.37,79.49 L131.54,71.39 C130.96,70.88 132.32,70.92 133.15,68.22 C135.29,61.27 127.86,58.81 124.99,62.84 C124.51,62.84 122.54,60.39 122.24,59.37 C120.06,54.95 119.64,49.94 119.21,45.92 C118.96,44.09 118.29,41.1 117.73,39.29 C117.44,38.33 117.41,37.63 118.05,36.74 C120.79,31.05 126.09,27.15 128.09,21.41 L62.3,21.2 C66.47,24.65 70.09,34.27 73.89,35.51 C72.07,35.75 72.69,37.34 73.39,39.06 C74.26,41.17 74.17,41.6 71.96,45.95 C68.73,52.32 68.56,51.76 71.78,53.73 C73.77,55.01 74.13,55.29 73.84,57.02 C73.55,58.76 73.46,58.22 75.11,58.37 C75.99,58.44 76.69,58.6 77.08,58.78 C77.53,58.98 77.87,59.27 78.45,59.08 C79.42,58.76 79.44,58.99 79.48,59.71 C79.5,60.01 79.96,60.64 80.1,60.88 C80.47,61.49 80.3,61.6 79.61,61.16 C77.5,59.83 73.96,60.4 75.26,61.85 C75.8,62.45 76.34,64.44 76.38,65.43 C76.46,67.2 77.61,67.83 80.02,67.46 C84.64,67.12 95.06,61.36 97.49,54.89 C92.15,56.72 93.25,50.15 95.15,50.35 C95.15,50.35 94.64,51.52 94.63,52.18 C94.57,54.53 96.53,54.72 97.88,53.05 C98.47,52.18 99.19,48.93 98.83,45.26 C98.41,40.82 96.61,35.85 96.29,34.62 C103.93,52.9 96.91,60.94 86.18,66.19 C82.08,67.91 81.51,67.9 79.09,68.01 C77.43,68.14 75.94,68.97 74.35,69.49 C65.17,73.89 53.89,79.37 43.79,87.54 C36.55,92.93 30.8,97.76 25.08,103.98 L25.06,136.23 C26.78,135.96 29.57,134.29 31.22,133.32 C33.12,145.37 39.29,159.32 49.52,167.66 C49.52,167.66 49.28,168.12 49.28,168.11 C47.82,167.14 46.36,166.18 44.95,165.43 L44.88,166.97 L48.32,169.34 C48.41,169.71 47.73,170.22 47.73,170.22 L44.89,168.26 L44.87,169.82 L47.07,171.23 C47.66,171.82 46.35,172.13 46.35,172.13 L45.04,171.19 C45.04,171.19 45.14,171.95 45.1,172.08 C44.76,173.23 42.88,170.69 42.54,169.42 L40.68,168.31 C40.95,169.07 40.28,169.17 39.76,168.98 C38.37,168.28 38.44,167.09 38.15,166.38 L35.69,164.81 C35.27,167.17 32.76,163.85 33.16,163.06 L30,160.9 C30.17,160.97 28.79,161.25 28.32,160.95 C27.79,160.59 27.6,159.16 27.6,159.16 L25.7,157.98 L25.7,160.04 L45.19,173.69 L44.91,174.22 L24.58,160.27 L25.4,220.83 L35.32,213.95 C35.13,211.68 35.54,209.66 35.36,207.08 C40.45,210.25 42.16,212.42 44.41,219.1 C45.86,215.29 45.61,211.65 44.96,208.27 C46.26,207.2 47.53,206.17 48.18,204.55 C46.96,202.86 45.76,202.39 44.47,200.82 C44.37,198.91 45.48,193.21 43.98,191.33 C43.98,191.33 41.25,199.61 35.35,202.09 C35.17,193.35 35.37,171.38 35.37,171.38 C35.37,171.38 41.43,175.58 44.53,177.29 C45.98,178.06 46.99,178.55 47.01,179.1 C47.02,179.39 46.44,179.75 46.18,180.14 C46.02,180.39 45.35,182.75 45.61,184.6 C45.73,185.96 46.37,186.83 46.98,187.48 C48.93,189.55 52.49,188.57 53.9,186.97 L53.9,186.97 Z M44.89,183.62 C44.82,180.78 46.33,179.2 46.37,179.19 L35.67,171.9 L35.82,201 C41.13,197.62 42.87,193.36 43.17,187.87 C53.65,199.63 50.38,213.96 43.84,222.11 C43.57,217.12 42.08,211.22 36.04,208.2 L36.03,214.15 L25.86,221.29 L25.86,228.28 L49.66,228.28 L61.08,211.22 C59.01,203.64 59.32,197.32 57.93,193.85 C56.88,191 54.89,187.32 53.6,187.89 C49.25,191.34 44.98,187.31 44.89,183.62 L44.89,183.62 Z M95.3,191 C97.68,190.35 101.23,192.88 103.15,192.54 C103.98,192.36 103.86,193.56 103,194 C101.99,194.51 100.55,194.16 97.5,192.57 C94.99,191.21 92.96,193.46 94.64,195.14 C95,195.48 95.52,195.69 96.17,195.66 C97.02,195.62 97.27,195.85 96.17,196.13 C95.54,196.3 94.37,196.04 93.81,195.47 C92.46,194.09 92.79,191.46 95.3,191 L95.3,191 Z M101.86,199.59 C100.42,198.82 100,197.16 101.07,196.05 C101.98,195.12 103.51,195.2 105.34,196.33 C105.98,196.73 106.38,196.93 106.82,196.77 C107.56,196.5 107.84,196.91 107.78,197.49 C107.65,198.77 105.66,199.08 104.41,197.63 C102.75,195.7 100.96,197.04 101.48,198.44 C101.75,199.15 102.27,199.26 102.87,199.52 C102.87,199.66 102.28,199.81 101.86,199.59 L101.86,199.59 Z M98.3,205.18 L99.23,203.51 C99,203.41 95.85,204.06 96.34,204.51 C96.78,204.92 98.3,205.18 98.3,205.18 L98.3,205.18 Z M99.73,205.51 C99.97,205.2 100.32,204.41 100.37,204.19 C100.29,203.68 99.83,203.84 99.6,204.13 C99.21,204.61 98.67,205.32 99.12,205.56 C99.33,205.68 99.54,205.77 99.73,205.51 L99.73,205.51 Z M92,205.2 C91.25,204.55 91.19,204.26 92.08,204.85 C94.79,206.66 98.06,209.61 102.11,207.88 C102.95,207.34 102.18,207.42 100.77,207.56 C98.63,207.79 96.01,206.7 92.79,204.47 C91.22,203.38 91.91,202.47 93.68,203.32 C94.23,203.58 94.78,203.78 95.14,203.8 C96.88,202.64 100.54,202.65 100.45,202.66 C100.87,202.3 99.5,201.73 97.47,200.96 C96.14,200.46 95.83,200.25 96.81,200.21 C97.67,200.18 99.02,200.61 100,201.24 C101.62,202.29 102.44,202.87 102.93,202.94 C103.73,203 104.54,203.12 103.17,203.75 C102.55,204.04 102.6,204.12 102.68,204.82 C102.79,205.92 102.85,205.9 103.36,206.52 C104.21,207.46 104.58,209.21 103.37,208.12 C103.1,208 103.08,208.23 102.36,208.52 C98.17,209.71 95.05,207.85 92,205.2 L92,205.2 Z M104.65,212.35 C104.37,212.26 102.05,212.12 100.59,212.04 C95.76,211.78 92.63,209.46 90.53,206.24 C90.02,205.45 90.23,205.49 91.37,206.38 C94.58,208.9 97.58,210.4 100.22,210.02 C103.95,209.49 105.97,210.86 105.45,212.46 C105.36,212.74 105.33,212.57 104.65,212.35 L104.65,212.35 Z M48.89,203.99 C49.09,200.78 47.56,195.54 45.26,191.9 C45.36,194.66 45.56,198.04 45,200.73 L48.89,203.99 L48.89,203.99 Z M27.89,95.95 C27.88,95.47 27.59,95.26 28.24,91.1 C27,90.62 25.93,88.6 26.83,87.33 C27.18,86.83 27.08,86.72 26.94,86.3 C26.58,85.27 26.77,84.42 27.72,83.76 C28.34,83.34 28.36,83.23 28.17,82.67 C27.66,81.25 28.13,79.85 29.5,79.38 C30.44,79.05 30.26,79 30.36,78.4 C30.58,77.05 31.32,76.24 32.67,76.38 C33.92,76.5 34,76.5 34.11,75.89 C34.4,74.2 36.45,72.35 39.13,71.09 C40.46,70.46 42.66,70.02 46.88,70.03 C49.29,69.99 52.3,69.67 53.99,68.18 C54.27,67.92 54.66,67.23 54.79,67.32 C55.11,67.54 55.03,69.23 54.42,70.77 C52.62,75.25 50.18,76.49 43.3,76.45 C41.25,76.35 38.23,76.63 36.95,77.94 C36.56,78.34 36.31,78.72 36.45,78.93 C39.3,79.34 42.23,80.63 43.93,86.27 C49.11,82.59 57.35,76.96 67.56,71.87 C66.34,65.13 72.17,64.09 75.44,65.43 C75.44,65.43 75.52,64.99 75.39,64.48 C75.27,63.98 75.09,63.34 74.49,62.5 C74.33,62.19 73.42,61.61 73.6,61.15 C73.89,60.4 73.76,60.2 73.13,59.51 C72.73,59.06 73,58.1 73.1,57.71 C73.23,56.99 73.7,55.96 73.28,55.57 C72.63,54.97 70.43,53.95 69.29,53.14 C68.04,52.22 68.01,51.4 69.85,48.39 C70.69,46.64 71.48,44.76 72.15,43.5 C73.16,41.6 73.27,40.34 72.65,39.25 C71.85,37.83 71.99,36.13 72,36.18 C72,36.18 64.45,25.57 61.34,21.33 L25.86,21.33 L25.86,102.08 L31.96,96.25 L30.31,94.29 C30.07,95.43 30.29,96.54 28.89,96.6 C28.41,96.62 27.97,96.42 27.89,95.95 L27.89,95.95 Z M30,93.57 C30.11,91.55 29.28,90.71 28.56,92.1 C28.39,92.43 27.83,95.95 29.16,96.07 C30.03,96.14 29.95,94.44 30,93.57 L30,93.57 Z M24.02,230.01 L154.64,230.01 L154.64,19.48 L24.02,19.48 L24.02,230.01 Z" id="Fill-432" fill="#22244E"></path>
        <path d="M88.67,25.87 L87.7,21.17 L99.38,21.17 L98.18,26.17 L88.67,25.87 L88.67,25.87 Z M74.08,27.07 L70.74,21.17 L77.17,21.17 L79.3,26.37 L74.08,27.07 L74.08,27.07 Z M115.34,29.37 L108.16,27.69 L110.03,21.34 L120.08,21.33 L115.34,29.37 L115.34,29.37 Z M118.34,35.65 C102.08,31.41 87.26,30.14 71.69,33.49 C69.66,31.06 62.83,20.95 62.83,20.95 L66.77,21 L72.34,29.95 L82.96,28.56 L80.23,21.28 L84.6,21.3 L86.79,28.44 C86.76,28.38 95.42,28.52 100.24,29.09 C101,26.44 102.42,21.18 102.42,21.18 L107.25,21.17 C106.63,23.71 104.96,29.73 104.96,29.73 C108.91,30.28 116.24,32.15 116.3,32.23 C118.87,28.58 121.26,24.94 123.59,21.3 L128.29,21.27 C126.9,23.63 118.6,35.77 118.34,35.65 L118.34,35.65 Z M152.69,32.55 L152.73,84.96 L145.53,80.61 L146.14,36.66 L152.69,32.55 L152.69,32.55 Z M40.67,89.54 C40.65,101.35 33.1,110.7 25.39,116.81 L25.5,103.36 L40.67,89.54 L40.67,89.54 Z M90.47,110.47 C90.47,110.47 111.79,80.54 120.16,69.73 L121.93,71.04 L93.58,110.63 L90.47,110.47 L90.47,110.47 Z M79.45,128.04 L79.36,121.48 L85.72,121.52 L85.62,128.17 L79.45,128.04 L79.45,128.04 Z M93.05,128.09 L93.02,121.5 L99.46,121.47 L99.27,128.05 L93.05,128.09 L93.05,128.09 Z M116.76,146.84 C133.96,130.72 134.54,107.84 122.01,91.05 L127.14,83.86 C134.41,91.67 141.54,99.84 144.57,118.85 C133.68,127.46 124.05,141.69 121.49,156.05 L116.76,146.84 L116.76,146.84 Z M137.26,160.75 C138.28,146.94 145.02,137.9 152.57,132.39 L152.95,146.44 C148.01,151.2 142.78,156.11 137.26,160.75 L137.26,160.75 Z M57.01,93.86 L61.63,102.94 C41.99,121.6 45.84,143.5 56.36,159.13 C56.36,159.13 55,162.62 52.04,166.33 C37.8,156.92 33.47,132.44 33.58,132.18 C49.27,118.15 51.38,113.68 57.01,93.86 L57.01,93.86 Z M25.3,164.11 L32.94,169.63 L33,212.57 L25.24,218.04 L25.3,164.11 L25.3,164.11 Z M56.93,178.82 C63.13,169.37 85,139.06 85,139.06 L88.21,139.19 C88.21,139.19 68.63,166.56 59.18,180.36 L56.93,178.82 L56.93,178.82 Z M101.67,228.34 L100.27,223.01 L105.26,222.42 C105.26,222.42 107.57,226.49 108.83,228.34 L101.67,228.34 L101.67,228.34 Z M72.44,228.34 L74.54,219.67 C70.56,218.79 66.81,218.21 62.41,217.02 L55.28,228.33 L50.99,228.21 C54.68,223.27 61.44,213.29 61.44,213.29 C76.93,218.64 92.54,219.54 108.27,216.71 C108.27,216.71 114.06,224.38 116.13,228.54 L112.05,228.34 L106.97,219.81 C103.44,220.19 99.96,220.67 96.28,220.82 L98.8,228.34 L94.74,228.34 L92.44,220.84 C88.02,220.67 84.3,221.02 79,220.19 L77.13,228.33 L72.44,228.34 L72.44,228.34 Z M58.9,228.21 L63.8,220.09 L70.76,221.99 L69.16,228.34 L58.9,228.21 L58.9,228.21 Z M80.23,228.34 L81.27,223.31 L90.5,223.76 C90.5,223.76 91.58,226.91 92.01,228.34 L80.23,228.34 L80.23,228.34 Z" id="Fill-433" fill="#C0242A"></path>
        <path d="M108.83,228.34 L101.67,228.34 L101.92,229.12 L109.34,229.12 L108.83,228.34 L108.83,228.34 Z M94.74,228.34 L94.99,229.04 L99.07,229.04 L98.8,228.34 L94.74,228.34 L94.74,228.34 Z M80.22,228.34 L80.08,228.91 L92.21,228.91 L92.01,228.34 L80.22,228.34 L80.22,228.34 Z M72.47,228.22 L72.28,228.83 L77.03,228.83 L77.16,228.22 L72.47,228.22 L72.47,228.22 Z M58.9,228.22 L58.55,228.67 L69.07,228.67 L69.19,228.22 L58.9,228.22 L58.9,228.22 Z M44.01,217.62 L44.75,217.62 L44.62,218.25 L44.25,218.25 L44.01,217.62 L44.01,217.62 Z M43.56,215.7 L45.07,215.71 L44.94,216.51 L43.77,216.53 L43.56,215.7 L43.56,215.7 Z M45.26,213.85 L45.24,214.89 L43.33,214.92 L42.9,213.92 L45.26,213.85 L45.26,213.85 Z M45.28,212.09 L45.33,213.08 L42.6,213.19 L41.83,212.15 L45.28,212.09 L45.28,212.09 Z M32.56,211.05 L32.56,212.32 L25.83,217.03 L25.83,215.63 L32.56,211.05 L32.56,211.05 Z M40.38,210.32 L44.96,210.37 L45.18,211.41 L41.1,211.36 L40.38,210.32 L40.38,210.32 Z M38.72,208.66 L44.7,208.69 L44.81,209.5 L39.67,209.48 L38.72,208.66 L38.72,208.66 Z M32.56,208.49 L32.56,209.86 L25.83,214.69 L25.83,213.16 L32.56,208.49 L32.56,208.49 Z M35.74,206.72 L45.93,206.76 L44.73,207.7 L37.69,207.86 L35.74,206.72 L35.74,206.72 Z M32.56,205.97 L32.56,207.41 L25.83,211.99 L25.83,210.34 L32.56,205.97 L32.56,205.97 Z M36.04,204.79 L47.82,204.84 L46.96,205.79 L36.02,205.82 L36.04,204.79 L36.04,204.79 Z M32.56,203.42 L32.56,204.98 L25.83,209.4 L25.83,207.97 L32.56,203.42 L32.56,203.42 Z M36.03,203.08 L46.65,203.21 L47.4,203.9 L35.99,203.94 L36.03,203.08 L36.03,203.08 Z M37.9,200.91 L44.08,201.05 L45.38,202.24 L35.76,202.3 L37.9,200.91 L37.9,200.91 Z M32.56,200.91 L32.56,202.38 L25.83,206.78 L25.83,205.36 L32.56,200.91 L32.56,200.91 Z M39.66,199.24 L44.36,199.3 L44.24,200.09 L38.88,200.07 L39.66,199.24 L39.66,199.24 Z M32.56,198.51 L32.56,200.04 L25.83,204.37 L25.83,202.99 L32.56,198.51 L32.56,198.51 Z M41.09,197.6 L44.51,197.64 L44.49,198.46 L40.4,198.43 L41.09,197.6 L41.09,197.6 Z M32.56,195.97 L32.56,197.54 L25.83,202.03 L25.83,200.45 L32.56,195.97 L32.56,195.97 Z M42.28,195.76 L44.61,195.8 L44.61,196.78 L41.72,196.73 L42.28,195.76 L42.28,195.76 Z M43.1,194.12 L44.53,194.13 L44.51,195.16 L42.68,195.1 L43.1,194.12 L43.1,194.12 Z M32.56,193.55 L32.56,195.04 L25.83,199.5 L25.83,198.11 L32.56,193.55 L32.56,193.55 Z M43.8,192.34 L44.39,192.34 L44.43,193.32 L43.52,193.26 L43.8,192.34 L43.8,192.34 Z M32.56,190.93 L32.56,192.33 L25.83,197.03 L25.83,195.59 L32.56,190.93 L32.56,190.93 Z M32.56,188.36 L32.56,189.87 L25.83,194.32 L25.83,192.99 L32.56,188.36 L32.56,188.36 Z M32.56,186.07 L32.56,187.38 L25.83,192.14 L25.83,190.65 L32.56,186.07 L32.56,186.07 Z M54.72,185.71 C59.1,188.03 60.3,194.96 60.78,198.78 C61.61,205.43 62.54,210.84 62.73,210.98 L61.76,210.83 C61.76,210.83 61.04,207.41 60.55,204.16 C60.13,201.45 59.81,199.19 59.7,198.15 C59.63,197.5 59.53,196.75 59.46,196.48 C58.85,193.74 58.66,193.12 57.87,191.46 C57.11,189.86 56.84,189.46 55.58,188.04 C55.1,187.49 54.63,187.09 54.47,186.74 C54.23,186.24 54.72,185.71 54.72,185.71 L54.72,185.71 Z M89,184.24 L90.04,184.29 L89.92,184.55 L89.27,184.88 L89,184.24 L89,184.24 Z M83.47,184.19 L84.53,184.21 C84.85,185.11 85.84,187.61 85.84,187.61 L85.11,188.31 L83.47,184.19 L83.47,184.19 Z M81.63,184.19 L82.82,184.2 C83.3,185.59 84.58,189 84.58,189 L83.72,189.9 C83.72,189.9 82.11,185.59 81.63,184.19 L81.63,184.19 Z M88.25,184.17 L88.68,185.32 L87.91,185.9 L87.32,184.19 L88.25,184.17 L88.25,184.17 Z M86.54,184.17 L87.38,186.16 L86.47,186.94 C86.47,186.94 85.54,185.07 85.3,184.19 L86.54,184.17 L86.54,184.17 Z M79.78,184.12 L80.94,184.14 L83.25,190.77 L82.34,191.77 C81.67,189.58 80.97,187.17 79.78,184.12 L79.78,184.12 Z M77.02,184.09 C78.52,187.84 79.66,191.45 80.7,195.07 C80.65,195.89 80.57,196.79 80.04,197.45 C78.82,193.03 77.79,188.43 75.9,184.1 L77.02,184.09 L77.02,184.09 Z M73.65,184.05 L75.11,184.08 C77.62,189.93 78.91,196.11 79.26,198.18 C79.26,198.18 79.61,200.02 79.63,200.62 C79.55,205.73 80.43,209.37 82.32,214.87 L81.46,214.8 C79.25,208.42 78.66,203.88 78.1,199.55 C77.63,194.11 75.87,188.5 73.65,184.05 L73.65,184.05 Z M79.12,184.04 C80.25,186.96 81.19,189.85 81.8,192.83 L81.12,194.16 C80.06,190.22 78.86,187.16 77.67,184.06 L79.12,184.04 L79.12,184.04 Z M71.73,184.01 L72.93,184.03 C75,188.23 76.71,193.34 77.32,199.18 C77.65,202.35 78.23,207.21 80.61,214.71 L79.65,214.65 C77.7,209.62 76.54,203.7 75.84,198.54 C75.14,193.33 73.9,189.03 71.73,184.01 L71.73,184.01 Z M66.15,183.96 L67.16,183.97 C69.8,189.76 70.9,193.21 71.72,198.81 C72.75,205.89 73.74,212.29 74.83,213.95 L73.6,213.87 C71.89,208.76 71.13,203.66 70.52,198.55 C69.87,193.02 68.28,188.29 66.15,183.96 L66.15,183.96 Z M69.02,183.95 C69.13,183.8 72.69,190.95 73.52,198.81 C74.07,204.04 75.29,209.21 76.96,214.21 L75.83,214.18 C74.51,212.66 73.53,205.44 72.44,198.7 C71.34,191.81 69.78,187.58 68.05,183.96 L69.02,183.96 C69.02,183.96 69.02,183.96 69.02,183.95 L69.02,183.95 Z M70.92,183.93 C72.84,188.93 74.09,191.31 74.97,197.46 C75.65,202.24 76.62,208.2 78.81,214.53 L77.7,214.48 C76.07,210.11 74.83,204.27 74.26,198.66 C73.48,191.03 70.07,183.91 70.04,183.95 L70.92,183.93 L70.92,183.93 Z M64.13,183.93 L65.23,183.94 C67.11,187.53 69.11,193.11 69.8,198.7 C70.4,203.53 71,208.44 72.73,213.56 L71.55,213.23 C70.07,209.08 69.54,204.06 68.75,198.86 C67.87,193.12 66.49,188.11 64.13,183.93 L64.13,183.93 Z M63.33,183.88 C63.41,183.79 66.97,189.84 68.09,199.37 C68.68,204.39 70.37,212.95 70.64,213.02 L69.41,212.89 C68.15,207.84 67.46,203.06 66.78,198.76 C66.02,193.89 65.41,189.56 62.39,183.91 L63.32,183.88 L63.33,183.88 L63.33,183.88 Z M32.56,183.85 L32.56,185 L25.83,189.7 L25.83,188.33 L32.56,183.85 L32.56,183.85 Z M52.21,181.94 C53.02,181.93 53.85,182.14 54.47,182.5 C59.71,185.54 61.71,193.09 62.4,197.85 C63.34,204.89 64.42,211.43 64.72,211.59 L63.58,211.33 C63.43,211.33 62.18,205.23 61.4,198.39 C60.78,192.86 58.89,187.31 55.15,184.97 C52.75,183.34 52.28,183.17 51.17,184.13 C50.21,184.95 49.24,183.71 50.04,182.7 C50.59,182.18 51.39,181.95 52.21,181.94 L52.21,181.94 Z M32.56,181.34 L32.56,182.75 L25.83,187.47 L25.83,185.92 L32.56,181.34 L32.56,181.34 Z M59.98,180.85 L102.26,181.28 C102.26,181.28 102.3,182.04 99.67,181.92 C97.43,181.81 95.98,182.12 94.5,182.6 L61.29,182.53 L59.98,180.85 L59.98,180.85 Z M51.92,179.77 C55.69,179.66 59.35,183.87 60.91,186.65 C62.53,189.54 63.81,194.14 64.25,198.46 C65,205.82 66.41,211.83 66.7,212.11 L65.68,211.88 C65.46,212.03 64.05,205.38 63.19,197.99 C62.7,193.85 61.17,189.74 59.34,186.57 C57.66,183.65 55.39,181.46 52.7,181.15 C51.02,180.98 49.29,181.46 48.95,183.24 C48.77,184.29 49.31,185.31 50.55,185.4 C50.84,185.42 51.12,185.45 51.17,185.45 C51.82,185.57 50.79,186.64 50.12,186.54 C47.71,186.2 46.59,182.97 48.5,181.25 C49.61,180.24 50.77,179.8 51.92,179.77 L51.92,179.77 Z M32.56,178.81 L32.56,180.32 L25.83,184.98 L25.83,183.46 L32.56,178.81 L32.56,178.81 Z M51.78,177.96 C54.91,177.92 58.3,179.52 60.22,182.17 C63.11,186.05 65.04,191 65.92,197.5 C66.36,200.72 67.86,210.38 68.71,212.67 L67.54,212.44 C67.38,212.52 65.88,206.37 64.93,198.24 C64.58,195.23 63.95,191.34 62.2,187.79 C60.21,183.75 56.83,179.45 52.33,179.11 C49.7,178.91 47.23,180.57 46.97,182.89 C46.59,184.73 47.66,186.44 49.07,187.02 C50.46,187.58 52.11,187.16 52.3,185.27 C52.33,184.96 52.3,184.64 52.18,184.36 C52.82,184.25 53.31,184.54 53.57,185.08 C53.71,185.1 53.58,187.83 51.44,188.36 C48.86,189.21 45.88,186.65 45.65,184.04 C45.47,181.84 47.14,179.12 49.24,178.39 C50.04,178.11 50.9,177.97 51.78,177.96 L51.78,177.96 Z M104.12,176.68 C104.79,176.68 105.34,177.22 105.34,177.9 C105.34,178.57 104.79,179.12 104.12,179.12 C103.45,179.12 102.9,178.57 102.9,177.9 C102.9,177.22 103.45,176.68 104.12,176.68 L104.12,176.68 Z M85.74,176.39 C86.56,176.39 87.22,177.05 87.22,177.87 C87.22,178.69 86.56,179.35 85.74,179.35 C84.93,179.35 84.26,178.69 84.26,177.87 C84.26,177.05 84.93,176.39 85.74,176.39 L85.74,176.39 Z M91.9,176.24 C92.57,176.24 93.12,176.78 93.12,177.46 C93.12,178.13 92.57,178.68 91.9,178.68 C91.23,178.68 90.68,178.13 90.68,177.46 C90.68,176.78 91.23,176.24 91.9,176.24 L91.9,176.24 Z M32.56,176.21 L32.56,177.7 L25.83,182.41 L25.83,180.95 L32.56,176.21 L32.56,176.21 Z M79.62,176.19 C80.29,176.19 80.84,176.73 80.84,177.41 C80.84,178.08 80.29,178.63 79.62,178.63 C78.95,178.63 78.4,178.08 78.4,177.41 C78.4,176.73 78.95,176.19 79.62,176.19 L79.62,176.19 Z M73.57,176.11 C74.38,176.11 75.04,176.78 75.04,177.59 C75.04,178.41 74.38,179.08 73.57,179.08 C72.75,179.08 72.09,178.41 72.09,177.59 C72.09,176.78 72.75,176.11 73.57,176.11 L73.57,176.11 Z M104.12,176.06 C103.11,176.06 102.28,176.88 102.28,177.9 C102.28,178.92 103.11,179.74 104.12,179.74 C105.14,179.74 105.96,178.92 105.96,177.9 C105.96,176.88 105.14,176.06 104.12,176.06 L104.12,176.06 Z M97.9,176.05 C98.72,176.05 99.38,176.72 99.38,177.54 C99.38,178.35 98.72,179.02 97.9,179.02 C97.09,179.02 96.43,178.35 96.43,177.54 C96.43,176.72 97.09,176.05 97.9,176.05 L97.9,176.05 Z M67.61,176.01 C68.28,176.01 68.83,176.55 68.83,177.23 C68.83,177.9 68.28,178.45 67.61,178.45 C66.94,178.45 66.39,177.9 66.39,177.23 C66.39,176.55 66.94,176.01 67.61,176.01 L67.61,176.01 Z M62.59,175.99 C62.95,176.25 63.19,176.67 63.19,177.15 C63.19,177.94 62.55,178.58 61.76,178.58 C61.49,178.58 61.23,178.5 61.01,178.36 L62.59,175.99 L62.59,175.99 Z M91.9,175.61 C90.88,175.61 90.06,176.44 90.06,177.46 C90.06,178.47 90.88,179.3 91.9,179.3 C92.91,179.3 93.74,178.47 93.74,177.46 C93.74,176.44 92.91,175.61 91.9,175.61 L91.9,175.61 Z M79.62,175.57 C78.6,175.57 77.78,176.39 77.78,177.41 C77.78,178.43 78.6,179.25 79.62,179.25 C80.63,179.25 81.46,178.43 81.46,177.41 C81.46,176.39 80.63,175.57 79.62,175.57 L79.62,175.57 Z M67.61,175.38 C66.59,175.38 65.77,176.21 65.77,177.23 C65.77,178.25 66.59,179.07 67.61,179.07 C68.63,179.07 69.45,178.25 69.45,177.23 C69.45,176.21 68.63,175.38 67.61,175.38 L67.61,175.38 Z M101.06,175.01 L104.67,175.13 C104.67,175.13 106.67,177.69 107.52,178.87 L104.85,180.24 L101.06,180.25 L101.06,175.01 L101.06,175.01 Z M89.31,180.25 L94.73,180.25 L94.73,174.9 L89.31,174.9 L89.31,180.25 Z M76.8,180.25 L82.42,180.25 L82.42,174.72 L76.8,174.72 L76.8,180.25 Z M65.1,180.25 L70.32,180.25 L70.32,174.72 L65.1,174.72 L65.1,180.25 Z M32.56,174.01 L32.56,175.5 L25.83,180.11 L25.83,178.58 L32.56,174.01 L32.56,174.01 Z M55.27,172.78 C56.18,172.78 56.92,173.52 56.92,174.44 C56.92,175.35 56.18,176.09 55.27,176.09 C54.35,176.09 53.61,175.35 53.61,174.44 C53.61,173.52 54.35,172.78 55.27,172.78 L55.27,172.78 Z M142.98,172.11 C143.34,172.08 143.39,172.58 142.64,173.31 C141.21,174.71 139.74,175.4 135.06,175.32 C130.12,175.23 128.2,176.01 126.92,178.22 C126.54,178.86 126.55,179.11 127.09,178.62 C127.54,178.08 128.57,177.05 128.99,178.03 C129.83,177.48 130.56,176.64 131,177.7 C131.24,177.65 132.67,176.21 133,177.48 C133.68,176.72 134.27,176.48 134.59,177.56 C135.55,177.1 136.07,176.23 136.62,177.43 C137.4,176.88 137.99,176.18 138.44,177.24 C139.11,177.04 139.78,175.82 140.17,176.8 C140.24,176.82 142.64,175.37 143.32,173.94 C143.88,172.67 144.39,173.51 143.76,174.8 C142.13,177.97 139.34,179.12 132.95,179.13 C129.07,179.14 127.46,179.52 126.24,180.23 C124.29,181.38 125.34,178.49 126.71,176.75 C128.44,174.54 130.41,173.89 135.81,174.09 C138.76,174.11 140.65,173.7 141.45,173.05 C142.12,172.5 142.61,172.13 142.98,172.11 L142.98,172.11 Z M65.47,172.04 C77.36,172.41 102.62,172.27 102.62,172.27 L103.97,174.21 L64.26,173.79 L65.47,172.04 L65.47,172.04 Z M109.41,171.87 C110.32,171.87 111.06,172.61 111.06,173.53 C111.06,174.44 110.32,175.18 109.41,175.18 C108.5,175.18 107.76,174.44 107.76,173.53 C107.76,172.61 108.5,171.87 109.41,171.87 L109.41,171.87 Z M32.56,171.73 L32.56,173.2 L25.83,177.72 L25.83,176.23 L32.56,171.73 L32.56,171.73 Z M142.71,171.36 C140.67,173.69 137.94,173.85 135.56,173.78 C129.15,173.87 125.18,174.22 124.35,181.88 C126.96,179.92 129.73,179.67 132.94,179.76 C137,179.76 138.82,179.49 140.47,178.66 C143.13,177.34 144.8,174.96 144.48,173.3 C144.17,172.94 143.34,171.45 142.71,171.36 L142.71,171.36 Z M33.32,170.21 L34.77,171.21 L35.13,213.68 L26.06,219.93 L26.07,218.08 L33.68,212.55 L33.32,170.21 L33.32,170.21 Z M32.56,169.31 L32.56,170.56 L25.83,175.28 L25.83,174.01 L32.56,169.31 L32.56,169.31 Z M30.49,168.26 L31.58,168.98 L25.83,172.88 L25.83,171.38 L30.49,168.26 L30.49,168.26 Z M28.56,167.02 L29.59,167.72 L25.83,170.42 L25.83,168.95 L28.56,167.02 L28.56,167.02 Z M27.08,166.06 L27.84,166.57 L25.83,168.01 L25.83,166.85 L27.08,166.06 L27.08,166.06 Z M120.28,165.63 C120.48,165.64 120.66,165.69 120.76,165.81 C120.99,166.09 120.85,166.58 120.35,166.67 C120.1,166.71 119.73,166.78 119.61,167.15 C119.51,167.39 119.17,167.6 118.83,167.59 C118.44,167.5 118.24,167.74 118.22,167.91 C118.03,168.24 117.55,168.29 117.26,167.98 C117.04,167.74 117.44,167.05 117.71,167.06 C117.75,167.08 118.05,167.15 118.4,166.68 C118.47,166.33 118.87,166.12 119.16,166.13 C119.46,166.23 119.63,165.91 119.75,165.73 C119.88,165.65 120.09,165.62 120.28,165.63 L120.28,165.63 Z M25.83,165.23 L26.36,165.58 L25.83,166 L25.83,165.23 L25.83,165.23 Z M120.25,165.05 C120.1,165.05 119.92,165.11 119.72,165.23 C118.89,165.71 117.51,166.23 116.85,167.1 C116.47,167.63 116.64,168.16 117.37,168.84 C117.98,169.25 121.15,166.91 121.23,166.23 C120.96,165.51 120.71,165.04 120.25,165.05 L120.25,165.05 Z M120.57,164.26 C121.2,164.24 121.67,164.65 121.92,165.28 C122.58,166.88 121.69,168.06 118.46,169.88 C118.18,170.03 117.61,170.34 117.61,170.34 L115.23,167.05 C115.23,167.05 116.07,166.47 116.86,166 C118.63,164.83 119.76,164.29 120.57,164.26 L120.57,164.26 Z M56.2,162.94 C57.12,162.94 57.85,163.68 57.85,164.6 C57.85,165.51 57.12,166.25 56.2,166.25 C55.29,166.25 54.55,165.51 54.55,164.6 C54.55,163.68 55.29,162.94 56.2,162.94 L56.2,162.94 Z M107.43,162.47 C108.35,162.47 109.09,163.22 109.09,164.13 C109.09,165.05 108.35,165.79 107.43,165.79 C106.52,165.79 105.78,165.05 105.78,164.13 C105.78,163.22 106.52,162.47 107.43,162.47 L107.43,162.47 Z M120.64,161.62 C121.87,161.63 122.82,162.33 123.74,163.77 C125.56,166.61 124.64,168.85 120.87,171.14 C119.12,172.21 119.1,172.22 119.1,172.22 L118.21,171.12 C118.21,171.12 119.49,170.36 120.02,170.03 C123.12,168.06 123.99,166.33 122.63,164.37 C121.31,162.48 119.93,162.63 116.1,165.07 C115.33,165.57 114.4,165.96 114.4,165.96 L113.56,164.81 C113.56,164.81 115.73,163.69 116.47,163.22 C118.17,162.13 119.55,161.62 120.64,161.62 L120.64,161.62 Z M25.69,161.2 L44.6,174.17 L43.31,176.07 L25.75,164.08 L25.69,161.2 L25.69,161.2 Z M134.73,161.13 L134.75,162.38 C134.79,162.44 132.18,163.59 130.65,164.29 C130.15,164.56 130.34,165.09 130.37,165.63 L129.64,166.13 C129.64,166.13 128.62,165.39 128.48,164.91 C128.11,163.4 132.91,161.59 134.73,161.13 L134.73,161.13 Z M65.2,159.73 C66.11,159.73 66.85,160.48 66.85,161.39 C66.85,162.31 66.11,163.05 65.2,163.05 C64.29,163.05 63.55,162.31 63.55,161.39 C63.55,160.48 64.29,159.73 65.2,159.73 L65.2,159.73 Z M100.46,156.69 C101.37,156.69 102.11,157.43 102.11,158.34 C102.11,159.26 101.37,160 100.46,160 C99.54,160 98.81,159.26 98.81,158.34 C98.81,157.43 99.54,156.69 100.46,156.69 L100.46,156.69 Z M114.33,156.54 C114.44,156.55 114.53,156.58 114.6,156.64 C115.02,156.93 114.98,157.46 114.4,157.6 C114.11,157.68 113.6,157.68 113.59,158.07 C113.58,158.37 113.14,158.48 112.88,158.43 C112.62,158.39 112.18,158.37 112.1,158.7 C111.88,159.14 111.71,159.15 111.4,158.84 C111.06,158.5 111.22,158.07 111.87,158 C112.15,157.97 112.39,157.76 112.49,157.55 C112.48,157.27 112.67,157.11 112.98,157.17 C113.41,157.17 113.7,157.01 114,156.6 C114.11,156.55 114.23,156.54 114.33,156.54 L114.33,156.54 Z M55.17,156.26 L57.59,156.29 L56.29,158.14 L55.17,156.26 L55.17,156.26 Z M114.38,156.11 C113.31,156.23 112.63,156.76 111.73,157.2 C110.63,157.74 110.27,158.58 111.02,159.35 C111.84,160.27 114.73,158.07 115.21,157.54 C115.5,157.08 115.45,156.66 115.04,156.33 C114.86,156.19 114.64,156.11 114.38,156.11 L114.38,156.11 Z M114.43,155.3 C116.05,155.42 116.68,156.79 116.08,157.76 C114.61,159.64 113.11,159.98 111.19,161.07 L109.27,157.47 C109.27,157.47 113.01,155.35 114.43,155.3 L114.43,155.3 Z M149.63,153.99 C149.69,153.97 149.76,153.97 149.83,154 C150.14,154.15 150.12,154.37 150.12,154.65 C150.12,155.6 150.25,156.79 149.84,157.7 C149.61,158.22 149.08,158.03 149.07,157.32 C149.04,156.36 149.24,155.55 149.29,154.68 C149.32,154.31 149.44,154.04 149.63,153.99 L149.63,153.99 Z M148.88,153.55 C148.61,154.99 148.56,156.52 148.44,158.21 C148.99,158.7 149.47,158.95 149.9,158.92 C150.38,157.41 150.72,155.69 150.49,153.92 C150.04,153.57 149.45,153.61 148.88,153.55 L148.88,153.55 Z M53.15,153.14 L55.62,153.15 L54.56,155.38 L53.15,153.14 L53.15,153.14 Z M124.76,152.85 C126.26,155.77 128.84,157.97 129.54,158.5 C129.54,158.5 126.98,160.15 125.45,161.2 L124.55,160.14 L126.75,158.25 L124.27,154.79 L124.76,152.85 L124.76,152.85 Z M114.62,152.68 C117.77,152.71 119.32,157.12 118.1,159.07 C117.61,159.96 116.52,161 115.08,161.92 C114.38,162.37 112.55,163.27 112.55,163.27 L111.72,161.99 C111.72,161.99 112.45,161.7 113.14,161.32 C114.88,160.34 118.4,158.24 116.7,155.39 C115.74,153.85 114.31,153.55 111.34,155.06 C109.13,156.19 108.62,156.29 108.62,156.29 L108.06,155.27 C108.21,155.36 112.49,152.77 114.62,152.68 L114.62,152.68 Z M133.68,151.36 C134.81,151.34 136.12,151.46 136.12,151.46 L135.8,152.73 C134.42,152.86 132.65,152.48 131.17,153.1 C131.72,154 134.94,155.28 135.3,155.6 C135.33,155.73 135.03,156.95 135.03,156.95 C135.12,157.26 129.58,154.69 129.39,152.52 C129.4,151.79 131.79,151.39 133.68,151.36 L133.68,151.36 Z M65.84,150.33 C66.75,150.33 67.49,151.07 67.49,151.98 C67.49,152.9 66.75,153.64 65.84,153.64 C64.93,153.64 64.19,152.9 64.19,151.98 C64.19,151.07 64.93,150.33 65.84,150.33 L65.84,150.33 Z M51.5,149.93 L54.22,150.1 L52.66,152.19 L51.5,149.93 L51.5,149.93 Z M100.35,148.06 C101.26,148.06 102,148.8 102,149.71 C102,150.63 101.26,151.37 100.35,151.37 C99.44,151.37 98.7,150.63 98.7,149.71 C98.7,148.8 99.44,148.06 100.35,148.06 L100.35,148.06 Z M50.38,146.78 L52.89,147.12 L51.31,149.15 L50.38,146.78 L50.38,146.78 Z M74.28,146.75 C75.19,146.75 75.93,147.49 75.93,148.4 C75.93,149.32 75.19,150.06 74.28,150.06 C73.37,150.06 72.63,149.32 72.63,148.4 C72.63,147.49 73.37,146.75 74.28,146.75 L74.28,146.75 Z M109.83,146.65 C110.11,146.66 110.36,146.9 110.36,147.22 C110.35,147.46 110.01,147.69 109.65,147.69 C109.52,147.69 109.21,147.76 109.01,147.96 C108.82,148.25 108.69,148.52 108.34,148.45 C108.13,148.41 107.76,148.4 107.61,148.53 C106.92,149.13 106.23,148.63 106.55,148.03 C106.63,147.87 106.91,147.79 107.14,147.8 C107.34,147.8 107.78,147.75 107.85,147.51 C107.93,147.22 108.37,147.14 108.67,147.15 C109.01,147.2 109.28,147.03 109.36,146.89 C109.49,146.78 109.63,146.66 109.77,146.65 L109.83,146.65 L109.83,146.65 Z M109.69,146.23 C109.16,146.25 108.37,146.57 107.31,146.98 C105.77,147.57 105.63,148.29 106.33,149.19 C106.63,149.57 106.94,149.49 108.42,148.9 C109.93,148.3 110.58,148.03 110.68,147.49 C110.81,146.7 110.37,146.21 109.69,146.23 L109.69,146.23 Z M151.94,146.17 C152.13,146.19 152.22,146.26 152.19,146.4 C152.19,146.92 144.33,154.39 139.83,158.2 C137.78,159.93 137.85,159.92 137.68,159.7 C137.57,158.42 138.44,153.82 138.96,153.02 C141.97,149.83 146.6,147.23 151.11,146.26 C151.46,146.19 151.75,146.15 151.94,146.17 L151.94,146.17 Z M103.63,145.79 C108,158.19 113.35,166.25 119.01,172.92 L117.64,173.78 C111.63,166.65 106.1,158.29 102.11,145.98 L103.63,145.79 L103.63,145.79 Z M110.02,145.34 C110.69,145.33 111.03,145.65 111.29,146.3 C111.87,147.7 111.3,148.53 109.11,149.47 C108.12,149.91 107.23,150.54 106.14,150.74 L104.77,147.03 C104.77,147.03 105.2,146.88 106.63,146.28 C108.27,145.6 109.34,145.35 110.02,145.34 L110.02,145.34 Z M116.35,144.31 L118.24,144.73 L117.01,145.92 L116.35,144.31 L116.35,144.31 Z M148.45,144.06 C150.41,144.05 152.03,144.39 152.03,145.09 C152.02,145.42 151.95,145.45 150.19,145.7 C147.51,146.07 143.03,148.36 140.51,150.49 C139.02,151.75 139.4,151.46 140.03,149.63 C140.66,147.81 141.59,145.64 142.09,145.31 C143.36,144.48 146.22,144.07 148.45,144.06 L148.45,144.06 Z M49.49,143.44 L51.71,144.17 L50.09,145.77 L49.49,143.44 L49.49,143.44 Z M110.22,142.91 C114.14,142.94 114.19,147.78 113.44,149.38 C112.89,150.47 112.06,151.08 109.55,152.22 C107.37,153.21 107.13,153.14 107.13,153.14 L106.61,151.97 C106.61,151.97 107.88,151.41 109.24,150.86 C112.07,149.72 112.75,148.84 112.44,146.79 C112,143.89 109.77,143.44 105.45,145.39 C104.95,145.61 104.31,145.84 104.31,145.84 L104.02,145.25 C104.09,145.2 107.48,143.41 109.38,142.97 C109.68,142.93 109.96,142.91 110.22,142.91 L110.22,142.91 Z M65.74,141.75 C66.4,141.7 67.42,142.98 67.42,142.98 L64.04,147.67 C62.43,147.34 62.77,144.9 64.25,144.83 C64.59,144.83 65.21,144.89 65.21,144.89 C65.21,144.89 64.76,144.64 64.49,144.29 C63.51,143.09 64.44,141.86 65.74,141.75 L65.74,141.75 Z M117.9,141.73 L120.69,142.23 L118.83,144.32 L117.9,141.73 L117.9,141.73 Z M128.83,141.33 C128.83,141.33 131.52,146.67 131.35,146.88 C129.68,147.61 127.86,147.99 126.03,148.67 L126.38,147.11 C126.38,147.11 126.99,147.07 129.04,146.29 C130.02,145.91 127.97,143.17 127.97,143.17 L128.83,141.33 L128.83,141.33 Z M94.63,141.28 C95.55,141.28 96.29,142.02 96.29,142.94 C96.29,143.85 95.55,144.6 94.63,144.6 C93.72,144.6 92.98,143.85 92.98,142.94 C92.98,142.02 93.72,141.28 94.63,141.28 L94.63,141.28 Z M134.68,141.06 C136.53,141.03 138.39,141.56 140.14,142.22 L139.58,143.18 C138.37,142.98 137.1,142.38 135.26,142.53 C136.01,143.98 136.91,144.73 138.11,146.01 L137.66,146.97 C137.55,147.1 134.15,144.25 133.47,142.33 C133.16,141.47 133.44,141.09 134.68,141.06 L134.68,141.06 Z M145.67,140.42 C146.51,140.4 148.13,140.7 149.46,141.36 C152.5,142.88 153.06,144.13 150.39,143.46 C148.88,143.08 146.72,143.16 144.63,143.68 C142.42,144.23 142.47,144.25 143.23,142.91 C144.19,141.22 144.44,140.46 145.67,140.42 L145.67,140.42 Z M48.62,139.92 L51.06,140.59 L49.22,142.51 L48.62,139.92 L48.62,139.92 Z M98.65,139.38 C98.86,139.28 99.7,144.35 98.44,146.7 C97.31,149.87 97.86,151.65 100.33,152.81 C104.56,154.79 105.63,156.77 105.09,161.64 C104.72,165.05 105.75,166.7 108.94,167.8 C112.75,169.11 114.41,171.16 114.39,174.53 C114.39,175.04 114.2,175.63 114.2,175.63 L112.07,176.88 C112.07,176.88 112.1,176.43 112.18,175.88 C112.73,172.15 112.03,171.14 107.64,169.38 C103.49,167.71 102.46,165.79 103.17,161 C103.4,159.44 103.08,157.86 102.43,156.67 C101.35,154.73 98.95,154.75 97.22,152.98 C95.8,151.46 95.64,149.34 96.85,145.72 C97.61,143.47 97.72,142.62 97.13,140.75 C96.75,139.51 96.6,139.4 96.6,139.4 L98.65,139.38 L98.65,139.38 Z M88.7,139.34 C91.4,149.17 93.53,158.79 102.02,171.66 L65.99,171.42 L88.7,139.34 L88.7,139.34 Z M85.21,139.31 L87.71,139.34 L58.96,179.91 L57.45,178.77 L85.21,139.31 L85.21,139.31 Z M90.91,139.3 C94.06,156.37 104.04,172.35 109.52,178.25 L108.45,178.82 C100.47,168.87 93.21,157.45 89.62,139.33 L90.91,139.3 L90.91,139.3 Z M79.91,139.3 C80.24,139.31 78.93,144.27 74.43,144.61 C71.58,145.09 71.26,145.57 71.22,150.02 C71.16,156.05 70.19,157.46 65.28,157.83 C62.02,158.08 61.59,158.74 62.14,163.43 C62.67,167.89 60.99,170.17 56.84,170.16 C53.25,170.46 51.77,172.14 51.77,175.48 C51.77,176.83 51.79,177.16 51.79,177.16 L49.47,177.34 C49.47,177.34 49.48,175.14 49.65,174.07 C50.36,169.76 52.2,168.03 56.09,168.05 C59.09,167.82 59.56,167.33 59.46,162.76 C59.34,158.12 59.28,158.15 60.49,156.93 C61.26,156.15 62.15,155.79 63.73,155.65 C68.64,155.18 69.03,154.85 69.02,149.8 C68.56,145.6 69.72,143.03 72.38,142.82 C77.76,142.39 77.63,139.47 77.39,139.34 L79.89,139.3 L79.91,139.3 L79.91,139.3 Z M119.87,139.18 L122.7,139.61 L121.04,141.73 L119.87,139.18 L119.87,139.18 Z M113.75,138.55 C116.81,150.2 122.2,159.17 128.97,166.54 L127.57,167.74 C122.43,161.83 116.78,154.91 112.16,139.94 L113.75,138.55 L113.75,138.55 Z M147.86,137.53 C148.23,137.53 148.64,137.68 149.16,137.97 C151.15,139.09 152.2,140.31 152.09,141.39 C152.04,141.89 151.76,141.99 151.44,141.63 C150.85,140.97 148.89,140.13 147.2,139.79 C145.92,139.54 145.8,139.43 146.19,138.84 C146.77,137.94 147.25,137.52 147.86,137.53 L147.86,137.53 Z M48.26,136.48 L50.46,137.56 L48.46,138.98 L48.26,136.48 L48.26,136.48 Z M121.65,136.48 L124.48,136.75 L122.98,139.1 L121.65,136.48 L121.65,136.48 Z M150.1,134.66 C151.87,134.91 152.44,138.46 151.85,139.15 C151.58,138.71 149.14,137.2 148.04,136.56 C147.97,136.37 149.75,134.77 150.1,134.66 L150.1,134.66 Z M126.27,133.61 L124.94,136.06 L123.2,133.74 L126.27,133.61 L126.27,133.61 Z M152,133.17 L151.98,135.3 L150.76,134.07 C151.09,133.77 151.49,133.47 152,133.17 L152,133.17 Z M48.23,133.13 L50.18,134.2 L48.17,135.37 L48.23,133.13 L48.23,133.13 Z M33.29,132.52 C35.69,147.06 41.41,157.05 50.44,166.04 L49.52,167.25 C38.91,157.51 33.12,145.11 31.6,133.45 L33.29,132.51 L33.29,132.52 L33.29,132.52 Z M140.69,131.25 C142.51,131.27 145.24,132.91 146.46,133.84 L145.82,134.56 C145.64,134.62 143.09,133.25 141.08,132.93 C141.74,134.23 142.05,135.21 143.5,137.27 L142.57,138.2 C142.28,138.14 138.65,132.75 139.61,131.53 C139.9,131.33 140.27,131.25 140.69,131.25 L140.69,131.25 Z M135.58,130.95 C135.54,132.41 136.72,136.95 136.72,136.95 C134.9,137.04 133.13,136.83 131.16,137.38 L132.09,135.72 C132.09,135.72 132.94,135.63 133.69,135.48 C135.25,135.17 135.08,135.36 134.72,134.01 C134.39,132.74 134.37,132.47 134.37,132.47 C134.37,132.47 135.47,130.94 135.58,130.95 L135.58,130.95 Z M127.61,130.49 L126.64,132.95 L124.71,130.66 L127.61,130.49 L127.61,130.49 Z M152.02,130.43 L152.03,132.02 C145.33,136.98 138.1,145.53 136.87,160.64 L135.06,162.18 C135.94,147.43 142.07,137.26 152.02,130.43 L152.02,130.43 Z M48.39,129.58 L50.45,131.04 L48.31,131.99 L48.39,129.58 L48.39,129.58 Z M99.23,128.83 L99.66,138.52 L71.94,138.29 L72.91,136.92 L74.71,136.9 L79.45,128.88 L99.23,128.83 L99.23,128.83 Z M25.63,128.1 L30.88,129.88 L29.95,130.88 L25.59,129.5 L25.63,128.1 L25.63,128.1 Z M128.72,127.23 L127.77,129.97 L125.69,127.6 L128.72,127.23 L128.72,127.23 Z M48.76,126.64 L50.7,127.79 L48.54,128.67 L48.76,126.64 L48.76,126.64 Z M148.63,123.95 C149.81,123.93 150.8,124.33 151.9,125.29 L151.91,126.65 L149.58,125.6 C149.55,127.14 150.92,129.94 150.92,129.94 L149.81,130.46 C148.85,128.89 148.18,127.48 148.13,125.71 C148.14,125.07 148.05,123.98 148.63,123.95 L148.63,123.95 Z M129.47,123.88 L128.82,126.54 L126.45,124.4 L129.47,123.88 L129.47,123.88 Z M49.55,123.34 L51.19,125 L49.1,125.53 L49.55,123.34 L49.55,123.34 Z M144.24,122.11 C144.1,123.71 144.43,126.6 144.57,127.84 C144.47,128.21 144.22,128.16 142.68,127.81 C141.62,127.45 138.68,127.35 138.68,127.35 L139.91,126.04 C140.92,126.16 141.72,126.15 142.76,126.28 C142.75,125.23 142.79,123.23 142.79,123.23 L144.24,122.11 L144.24,122.11 Z M93.17,121.62 L99.02,121.62 L98.96,127.83 L93.17,127.83 L93.17,121.62 L93.17,121.62 Z M86.64,121.62 L92.09,121.62 L92.09,127.83 L86.69,127.89 L86.64,121.62 L86.64,121.62 Z M79.66,121.62 L85.52,121.62 L85.47,127.83 L79.63,127.83 L79.66,121.62 L79.66,121.62 Z M33.54,121.34 L40.65,121.8 L39.52,123.13 L35.22,123.05 L35.06,126.74 L33.68,127.92 L33.54,121.34 L33.54,121.34 Z M130.03,120.72 L129.61,123.33 L127.03,121.61 L130.03,120.72 L130.03,120.72 Z M147.34,120.42 C147.49,120.41 147.65,120.41 147.81,120.43 C149.23,120.44 151.95,121.59 151.95,121.59 L151.93,123.25 C150.55,122.84 148.94,122.07 147.48,121.85 C146.33,121.69 146.39,122.34 146.39,123.98 C146.38,126.2 146.93,128.2 147.99,130.42 C148.87,132.26 148.41,132.75 146.98,131.93 C144.41,130.16 138.92,128.82 138.08,129.85 C137.21,130.91 138.92,136.19 140.89,138.71 C141.7,139.74 141.75,139.9 141.37,140.3 C141.07,140.62 140.58,140.64 139.71,140.36 C136.86,139.45 132.73,139.25 131.54,140.02 C130.36,140.79 133.43,146.07 136.01,147.78 C137.68,148.98 137.36,149.57 134.66,149.63 C130.24,149.65 126.85,150.64 127.04,151.85 C127.36,153.91 130.21,156.72 133.5,158.22 C135.5,159.04 134.67,159.37 133.33,159.84 C131.1,160.6 128.95,161.81 126.85,162.94 L125.84,161.65 C125.84,161.65 127.96,160.3 130.25,159 C130.79,158.7 130.76,158.59 130.01,157.96 C127.56,155.9 125.77,153.6 125.39,152.05 C125.02,150.55 125.77,149.6 128,148.75 C129.37,148.23 129.88,148.07 131.09,147.8 C132.84,147.41 132.87,147.35 132.12,146.01 C131.79,145.4 131.24,144.4 130.9,143.79 C128.3,139.32 129.67,137.71 135.71,137.62 C137.2,137.54 137.48,137.54 137.4,137.02 C137.08,134.92 136.15,132.5 136.28,130.72 C136.56,128.03 139.32,127.38 144.16,128.59 C145.28,128.87 145.36,128.82 145.16,127.91 C144.29,124.07 145.09,120.58 147.34,120.42 L147.34,120.42 Z M50.49,120.23 L52.08,121.91 L49.86,122.42 L50.49,120.23 L50.49,120.23 Z M149.34,118.6 C149.97,118.97 151.99,119.57 151.99,119.57 L151.97,121.06 L147.8,119.56 L149.34,118.6 L149.34,118.6 Z M28.14,118.45 C28.14,118.45 30.47,123.72 29.55,124.96 C28.66,125.7 26.59,124.47 25.65,123.98 L25.62,122.72 C25.62,122.72 26.34,123.08 27.06,123.37 C28.54,124.03 28.54,123.25 27.73,121.05 C27.45,120.27 27.16,119.38 27.16,119.38 L28.14,118.45 L28.14,118.45 Z M78.3,118.14 C78.31,118.67 78.36,119.06 78.39,119.59 C72.26,123.57 70.19,129.83 71.21,137.71 L70.36,138.97 C68.37,131.82 70.38,123.02 78.3,118.14 L78.3,118.14 Z M130.25,117.67 L130.03,119.92 L127.33,118.42 L130.25,117.67 L130.25,117.67 Z M51.94,116.96 L53.18,118.82 L50.94,119.07 L51.94,116.96 L51.94,116.96 Z M151.97,114.69 L151.93,116.34 C141.99,121.21 127.15,134.29 122.92,157.75 L122.05,156.79 C126.28,134.39 140.88,121.15 151.97,114.69 L151.97,114.69 Z M130.2,114.12 L130.17,116.66 L127.43,115.44 L130.2,114.12 L130.2,114.12 Z M25.78,114.09 C25.9,114.04 26.62,114.84 26.74,115.08 C26.69,115.6 25.87,115.89 25.75,115.7 C25.7,115.63 25.68,114.44 25.76,114.12 C25.76,114.1 25.77,114.1 25.78,114.09 L25.78,114.09 Z M53.5,113.96 L54.63,115.98 L52.33,116.01 L53.5,113.96 L53.5,113.96 Z M47.82,111.86 L46.86,113.6 C45.97,113.88 43.26,113.92 43.04,114.11 C43.37,115 43.73,117.61 43.73,117.61 L42.66,118.97 C42.38,117.29 41.91,115.17 41.49,113.61 C41.13,112.29 41.23,112.58 44.04,112.36 C45.29,112.29 46.59,112.13 47.82,111.86 L47.82,111.86 Z M78.89,111.1 L106.57,111.61 L105.74,113.08 L103.58,113.09 L99.31,120.67 L79.41,120.67 L78.89,111.1 L78.89,111.1 Z M35.47,111.09 C35.47,111.09 39.11,115.83 38.39,117.43 C37.42,118.96 31.67,115.67 31.75,115.5 L32.47,114.8 C33.38,115.17 36.22,116.74 36.85,116.5 C37.07,115.06 35.39,113.21 34.76,111.98 L35.47,111.09 L35.47,111.09 Z M107.81,111.06 C110.17,119.81 106.85,126.09 100.56,131.01 L99.86,130.09 C104.78,125.9 108.47,120.96 106.84,112.15 L107.81,111.06 L107.81,111.06 Z M55.35,111.06 L56.32,113.27 L53.81,113.26 L55.35,111.06 L55.35,111.06 Z M129.86,110.92 L130.02,113.35 L127.31,112.31 L129.86,110.92 L129.86,110.92 Z M71.67,110.65 C72.55,110.73 73.15,111.59 73.1,112.3 C73.09,112.61 73.11,112.86 73.11,112.86 C73.11,112.86 73.36,112.55 73.57,112.17 C74.57,110.49 76.73,111.45 76.37,113.38 C76.21,114.29 74.68,114.64 74.27,114.39 C74.66,115.46 75.73,115.72 77.03,116.19 C77.49,116.27 78.27,116.5 78.27,116.5 L78.3,117.23 C71.25,121.68 67.26,129.23 69.85,139.55 L69.07,140.6 C67.65,137.18 66.35,137.25 64.01,137.12 C64.01,137.12 64.6,137.53 64.93,137.92 C65.64,138.76 65.32,140.23 64.34,140.38 C62.07,140.73 62.05,139.12 62.35,138.02 C62.35,138.02 61.94,138.37 61.74,138.5 C60.84,139.08 59.72,138.47 59.61,137.31 C59.52,136.21 59.89,135.5 61.01,135.37 C61.39,135.32 61.97,135.42 61.97,135.42 C61.97,135.42 61.75,134.99 61.63,134.74 C61.09,133.68 62.27,132.78 63.36,133.01 C65.07,133.42 64.93,134.9 63.94,136.07 C66.6,136.27 67.99,134.52 67.79,132.8 C67.56,130.69 66.59,129.55 64.5,129.18 C64.5,129.18 64.83,129.71 64.98,129.97 C65.51,130.92 64.75,132.09 63.62,132.08 C62.47,132.07 61.73,131.01 62.17,129.97 C62.28,129.71 62.72,129.39 62.65,129.36 C62.61,129.34 62.01,129.53 61.85,129.55 C60.46,129.77 59.57,128.55 60.15,127.33 C60.56,126.46 61.8,126.23 62.7,126.65 C62.84,126.71 63.02,126.91 63.04,126.86 C63.07,126.82 62.95,126.54 62.92,126.34 C62.63,125.22 63.17,124.62 64.37,124.7 C66.06,124.81 66.69,126.19 65.56,127.44 C65.26,127.76 64.81,128.23 64.81,128.23 C64.87,128.48 67.22,128.66 68.43,127.39 C69.82,125.93 70.04,122.88 68.64,121.89 C68.41,121.72 67.95,121.4 67.95,121.4 C68.61,122.74 67.38,124.28 66.3,123.99 C64.14,123.47 64.33,121.69 65.75,121.13 C65.75,121.13 64.31,120.59 63.89,120.01 C63.3,119.18 63.5,118.43 64.21,117.85 C65.09,117.13 66.36,117.6 66.96,118.48 C67.33,117.36 67.85,116.6 69.38,117.21 C70.46,117.73 70.45,119.16 69.27,119.94 C68.89,120.19 68.21,120.42 68.21,120.42 C68.21,120.42 69.23,121 70.46,121.02 C72.84,121.04 74.73,118.23 73.77,116.08 C73.57,115.64 73.09,115.08 73.09,115.08 C73.09,115.08 73.04,115.83 72.89,116.12 C72.34,117.19 71.07,117.21 70.32,116.53 C69.64,115.92 69.84,115.1 70.37,114.54 C70.77,114.11 71.13,114.03 71.69,113.77 C71.05,113.55 70.35,113.39 70.04,112.74 C69.75,112.11 69.96,111.34 70.71,110.86 C71.06,110.68 71.38,110.62 71.68,110.65 L71.67,110.65 L71.67,110.65 Z M25.87,110.57 C26.84,111.13 27.49,111.98 28.39,112.72 C29.09,113.29 29.08,113.39 28.5,113.93 C27.2,115.19 26.47,113.37 26.05,112.62 C25.54,111.62 25.49,110.61 25.87,110.57 L25.87,110.57 Z M63.09,110.4 L63.89,111.58 C52.15,125.38 54.29,141.17 61.04,151.62 L60.06,152.81 C54.08,145.13 49.2,126.49 63.09,110.4 L63.09,110.4 Z M114.13,108.93 C115.21,108.88 115.63,109.72 115.64,110.4 C115.63,110.69 115.57,111.18 115.57,111.18 C116.92,110.31 118.71,111.02 118.66,112.42 C118.58,114.38 117.63,114.4 116.06,114.14 C116.92,115.57 115.9,116.94 114.29,116.41 C112.82,115.93 113.1,114.38 113.79,113.46 C110.32,114.03 109.4,118.97 113.4,120.44 C112.59,119.19 112.39,117.7 114.14,117.45 C115.76,117.22 116.45,118.45 115.75,119.93 C117.27,119.4 118.71,120.28 118.25,121.77 C117.69,123.56 116.1,123.44 115.16,122.35 C115.84,123.97 114.27,125.15 113.1,124.52 C111.24,123.52 112.16,121.75 113.4,121.27 C108.62,120.78 107.51,127.41 111.03,128.36 C110.13,127.79 110.03,125.18 112.09,125.54 C114.12,125.95 113.64,127.84 112.34,128.7 C113.91,128.36 115.38,129.74 114.42,131.13 C113.3,132.77 111.74,131.6 111.17,130.48 C111.35,131.98 110.4,132.94 109.17,132.38 C107.08,131.41 108.63,128.99 110.27,129.15 C106.94,127.18 102.41,131.32 105.08,134.74 C104.98,133.18 105.75,131.91 106.81,132.08 C107.75,132.19 108.57,133.26 108.31,134.1 C108.06,134.82 107.25,135.38 106.39,135.55 C108.94,135.83 109.15,137.64 108.1,138.53 C106.31,140.04 105.48,138.29 105.06,137.27 C104.7,139.81 101.71,138.95 101.61,137.12 C101.51,135.11 103.82,135.15 104.25,135.26 C104.3,135.19 102.46,133.37 100.49,133.11 L100.51,131.94 C108.25,127.07 110.92,118.56 108.46,110.5 L108.92,109.96 C110.19,110.93 111.46,113 113.79,112.24 C113.79,112.24 113.25,111.86 112.98,111.59 C111.78,110.41 112.45,109.01 114.13,108.93 L114.13,108.93 Z M57.22,108.44 L58.06,110.49 L55.76,110.43 L57.22,108.44 L57.22,108.44 Z M129.25,107.61 L129.59,109.91 L127,109.01 L129.25,107.61 L129.25,107.61 Z M25.92,107.38 C27.31,108.62 29.34,109.66 31.15,110.02 C32.27,110.26 31.95,110.38 30.9,111.46 C29.93,112.48 30.01,112.61 29.02,112.11 C27.36,111.26 25.56,109.35 25.63,108.31 C25.66,107.88 25.74,107.37 25.92,107.38 L25.92,107.38 Z M59.79,105.7 L60.04,107.86 L57.93,107.73 L59.79,105.7 L59.79,105.7 Z M83.22,105.67 C83.99,105.67 84.6,106.29 84.6,107.05 C84.6,107.82 83.99,108.44 83.22,108.44 C82.46,108.44 81.85,107.82 81.85,107.05 C81.85,106.29 82.46,105.67 83.22,105.67 L83.22,105.67 Z M34.76,105.64 C35.12,105.65 35.19,105.84 35.19,106.06 C35.19,106.35 33.35,108.7 32.76,109.23 C31.47,109.75 26.49,107.67 25.75,106.05 C25.6,105.58 26.09,105.79 27.19,106.01 C29.98,106.81 32.81,105.71 34.76,105.64 L34.76,105.64 Z M76.18,104.22 L76.59,105.64 C58.4,114.1 53.09,133.53 62.58,149.56 L61.5,151.04 C48.81,130.4 61.67,109.46 76.18,104.22 L76.18,104.22 Z M128.46,104.18 L128.91,106.6 L126.17,105.95 L128.46,104.18 L128.46,104.18 Z M61.58,103.86 L62.09,105.61 L60.37,105.19 L61.58,103.86 L61.58,103.86 Z M40.8,102.35 C40.8,102.35 44.99,105.97 45.02,107.59 C45.03,108.21 44.83,108.41 44.34,108.57 C42.69,109.12 38.11,107.71 38.11,107.71 L38.7,106.59 C39.42,106.79 42.97,107.71 43.28,107.26 C43.59,106.79 40.31,103.58 40.31,103.58 L40.8,102.35 L40.8,102.35 Z M114.7,101.58 C115.61,101.84 116.12,102.69 115.62,103.55 C115.05,104.27 114.53,104.28 113.71,104.24 C114.38,105.04 114.68,106.14 114.03,106.87 C113.03,107.88 111.11,106.32 111.25,106.18 L114.7,101.58 L114.7,101.58 Z M127.3,101.11 L128.06,103.23 L125.34,102.99 L127.3,101.11 L127.3,101.11 Z M71.54,101.05 L71.6,101.05 C71.77,101.03 72.41,101.84 71.69,101.77 C71.45,101.75 71.22,101.84 71.02,102.05 C71,102.44 70.44,102.58 70.18,102.45 C69.98,102.35 69.7,102.56 69.67,102.68 C69.27,102.97 68.77,102.95 68.7,102.75 C68.57,102.6 68.97,102.01 69.32,102.03 C69.4,102.04 69.65,101.87 69.88,101.66 C69.99,101.26 70.42,101.33 70.69,101.35 C70.99,101.47 71.27,101.08 71.54,101.05 L71.54,101.05 Z M71.49,100.34 C70.46,100.39 68.31,101.25 68.1,102.08 C67.97,102.55 68.11,103.21 68.5,103.36 C69.58,103.76 71.72,102.87 72.29,102.07 C72.47,101.82 72.2,101.3 72.01,100.98 C71.87,100.73 71.89,100.32 71.49,100.34 L71.49,100.34 Z M52.69,99.91 L52.54,101.23 C52.54,101.23 50.44,102.35 49.44,102.77 C48.68,103.08 48.62,103.14 48.87,103.85 C49.36,105.27 50.31,107.02 50.31,107.02 L49.43,109.02 C48.89,107.22 48.33,105.32 47.34,103.65 C46.4,102.34 46.23,102.17 47.69,101.9 C49.57,101.26 51.03,100.8 52.69,99.91 L52.69,99.91 Z M104.28,99.44 C105.22,99.44 105.99,100.21 105.99,101.15 C105.99,102.1 105.22,102.86 104.28,102.86 C103.34,102.86 102.58,102.1 102.58,101.15 C102.58,100.21 103.34,99.44 104.28,99.44 L104.28,99.44 Z M38.31,99.03 C38.56,99.01 38.3,99.62 37.67,101.14 C36.29,104.49 36.2,104.57 32.72,105.12 C30.91,105.41 29.57,105.48 28.28,105.35 C26.34,105.17 25.51,104.62 26.77,104.35 C30.41,103.55 34.44,101.65 37.06,99.82 C37.75,99.33 38.15,99.03 38.31,99.03 L38.31,99.03 Z M71.97,99.01 L73.29,102.56 C71.64,103.67 70.99,103.86 69.14,104.31 C67.68,104.65 66.55,102.12 67.67,101.15 C68.94,100.05 70.32,99.57 71.97,99.01 L71.97,99.01 Z M116.97,98.92 C127.35,114.04 121.56,138.16 101.76,145.51 L101.66,143.82 C121.84,135.35 123.83,112.82 115.72,100.1 L116.97,98.92 L116.97,98.92 Z M78.27,98.65 C79.03,98.65 79.65,99.27 79.65,100.04 C79.65,100.8 79.03,101.42 78.27,101.42 C77.51,101.42 76.89,100.8 76.89,100.04 C76.89,99.27 77.51,98.65 78.27,98.65 L78.27,98.65 Z M126,97.96 L126.93,100.07 L124.18,99.78 L126,97.96 L126,97.96 Z M118.38,97.19 C130.22,114.32 122.11,133.09 114.47,139.74 L114.26,137.72 C127.14,123.01 122.66,105.83 117.29,98.2 L118.38,97.19 L118.38,97.19 Z M70.9,96.46 L71.41,97.64 C71.44,97.78 67.74,98.96 66.55,100.46 C65.45,101.85 65.55,103.3 66.17,104.3 C67.22,105.73 67.97,105.93 69.75,105.38 C71.2,104.94 72.27,104.33 73.7,103.6 L73.93,104.19 C73.93,104.16 71.87,105.41 70.29,106.3 C69.7,106.64 68.99,106.78 68.37,106.76 C64.78,106.68 62.88,102.03 65.84,99.29 C66.27,98.89 67.74,98.08 68.97,97.45 C69.79,97.02 70.9,96.46 70.9,96.46 L70.9,96.46 Z M113.14,96.05 C113.98,96.05 114.66,96.73 114.66,97.57 C114.66,98.41 113.98,99.09 113.14,99.09 C112.3,99.09 111.62,98.41 111.62,97.57 C111.62,96.73 112.3,96.05 113.14,96.05 L113.14,96.05 Z M124.38,95 L125.47,97.08 L122.86,97.04 L124.38,95 L124.38,95 Z M56.96,94.24 C58.45,96.76 59.86,99.59 61.18,102.77 C43.02,119.95 44.43,143.36 55.88,158.72 L50.95,165.39 C41.08,155.96 35.71,144.34 33.9,132.01 C48.3,121.62 55.06,106.11 56.96,94.24 L56.96,94.24 Z M43.65,92.65 C44.56,92.65 49.36,95.62 48.72,97.09 C48.21,98.27 44.19,98.36 42.34,98.2 L42.62,97.07 C42.62,97.07 43.18,97.26 45.32,97.04 C47.57,96.89 47.41,96.11 44.83,94.47 C43.72,93.78 43.46,93.61 43.46,93.61 L43.65,92.65 L43.65,92.65 Z M122.05,91.83 L123.87,94.35 L121.26,94.44 L122.05,91.83 L122.05,91.83 Z M55.34,91.75 L56.3,92.95 C54.27,112.33 40.46,129.1 25.72,135.75 L25.68,134.46 C42.54,125.58 52.69,110.79 55.34,91.75 L55.34,91.75 Z M29.36,91.74 C29.5,91.77 29.62,91.97 29.7,92.3 C29.69,92.96 29.61,94.34 29.36,95.11 C29.2,95.71 28.74,95.57 28.56,95.02 C28.38,94.45 28.53,92.82 28.88,92.15 C29.06,91.84 29.22,91.71 29.36,91.74 L29.36,91.74 Z M28.92,91.3 C28.76,91.29 28.64,91.31 28.61,91.36 C28.34,91.61 27.9,95.64 28.18,95.93 C28.58,96.33 29.67,96.44 29.77,95.96 C30.11,94.38 30.03,93.2 30.19,91.87 C30.22,91.63 29.4,91.34 28.92,91.3 L28.92,91.3 Z M66.95,90.66 C67.32,90.67 67.58,91.15 67.47,91.43 C66.83,91.77 66.48,91.48 66.56,91.96 C66.56,91.96 66.63,92.71 65.7,92.73 C65.47,92.63 65.08,92.65 64.89,92.84 C64.24,93.11 63.68,92.54 64.38,92.22 C64.57,92.13 65.04,91.98 65.17,91.69 C65.24,91.33 65.54,91.04 65.86,91.24 C66.04,91.26 66.42,91.28 66.55,91.01 C66.5,90.7 66.72,90.67 66.88,90.66 L66.95,90.66 L66.95,90.66 Z M40.44,90.56 C40.72,92.02 39.85,94.58 39.35,96.02 C36.41,99.88 32.14,101.86 28.09,103.2 C27.19,103.5 25.98,103.35 25.98,103.35 C31.59,97.56 36.4,93.32 40.44,90.56 L40.44,90.56 Z M66.88,90.06 C65.56,90.4 64.27,91.58 63.55,92.1 C63.29,92.29 63.5,93.24 63.75,93.56 C64.07,93.98 64.67,93.91 65.39,93.51 C65.69,93.34 66.23,93.07 66.59,92.9 C67.6,92.44 68.02,92.09 67.99,91.7 C67.83,91.17 67.41,90.02 66.88,90.06 L66.88,90.06 Z M78.03,89.94 C78.79,89.94 79.41,90.56 79.41,91.32 C79.41,92.09 78.79,92.71 78.03,92.71 C77.27,92.71 76.65,92.09 76.65,91.32 C76.65,90.56 77.27,89.94 78.03,89.94 L78.03,89.94 Z M67.25,88.85 L67.26,88.85 C67.26,88.85 69.06,92.1 69.06,92.39 C67.99,93.39 65.19,94.84 64.04,94.5 C62.27,93.93 62,92.04 63.69,90.92 C65.16,89.85 66.99,88.92 67.24,88.85 L67.26,88.85 L67.25,88.85 L67.25,88.85 Z M52.92,88.65 L53.84,89.48 C53.84,89.48 53.61,89.83 52.28,90.9 C51.25,91.69 51.61,91.38 52.31,92.32 C52.94,93.08 54.05,94.58 54.05,94.58 L53.72,96.59 C52.55,94.93 51.59,93.72 49.86,91.94 C48.98,91.03 49.03,91.01 50.29,90.35 C51.22,89.83 51.99,89.2 52.92,88.65 L52.92,88.65 Z M43.43,88.03 C42.19,101.03 36.77,111.73 25.59,119.2 L25.53,117.74 C35.36,110.33 40.08,99.8 41.36,89.62 L43.43,88.03 L43.43,88.03 Z M51.77,86.96 L52.69,87.83 C52.69,87.83 52.29,88.41 50.03,89.77 C48,91 47.79,90.8 48.8,91.66 C50.69,93.26 53.3,96.8 53.29,97.71 C53.28,98.6 52.49,99.41 50.98,100.09 C50.16,100.46 46.89,101.63 46.41,101.71 C45.45,101.82 45.18,102.2 46.14,103.07 C47.76,104.94 49.14,108.93 48.59,110.15 C47.96,111.52 47.21,111.75 41.2,112.03 C40.52,112.06 40.19,111.87 40.56,112.75 C40.83,113.38 41.11,114.26 41.65,116.97 C42.13,119.39 42.04,120.47 41.11,120.97 C40.57,121.26 36.39,121.16 34.67,120.82 C32.69,120.43 32.48,120.4 32.8,121.69 C33.21,123.47 33.47,128.25 32.13,129.17 C31.57,129.53 30.97,129.45 28.51,128.62 C26.95,128.09 25.59,127.48 25.59,127.48 L25.62,126 C26.89,126.53 30.39,128.04 31.38,127.56 C32.56,125.87 30.93,119.93 30.3,118.65 C29.55,117.13 30.33,116.8 32.08,117.75 C32.99,118.39 40.85,121.5 40.41,118.72 C39.93,116.08 39.07,113.07 37.41,111.18 C35.88,109.44 36.64,108.72 38.35,109.49 C41.37,110.84 47.62,110.51 47.31,109.11 C46.9,106.82 44.83,103.73 42,101.33 C41.21,100.66 41.18,100.38 42.11,100.21 C44.75,100 52.32,99.22 51.26,97.44 C50.35,95.98 49.14,94.37 48.11,93.5 C46.41,92.08 44.7,91.46 43.95,91.16 L43.99,90.07 C47.44,89.78 49.23,88.74 51.77,86.96 L51.77,86.96 Z M113.73,86.9 C114.57,86.9 115.25,87.58 115.25,88.42 C115.25,89.27 114.57,89.95 113.73,89.95 C112.9,89.95 112.21,89.27 112.21,88.42 C112.21,87.58 112.9,86.9 113.73,86.9 L113.73,86.9 Z M65.96,86.38 L66.66,87.47 C66.66,87.47 66.51,87.61 64.33,88.97 C61.13,90.95 60.61,92.25 61.67,94.29 C62.76,96.37 63.98,96.48 67.41,94.81 C68.62,94.22 69.65,93.61 69.65,93.61 L70.2,94.75 C70.2,94.75 68.66,96 65.71,97.09 C62.92,98.11 60.29,96.37 59.8,93.14 C59.44,90.8 60.46,89.54 64.52,87.24 C64.97,86.99 65.96,86.38 65.96,86.38 L65.96,86.38 Z M127.28,84.51 C137.31,94.33 142.83,106.47 144.12,119.01 C132.44,128.54 124.5,140.51 121.35,155.49 C119.79,152.89 118.47,149.9 117.03,146.97 C132.61,133.23 135.89,108.5 122.41,91.16 L127.28,84.51 L127.28,84.51 Z M71.45,84.11 C72.21,84.11 72.82,84.73 72.82,85.5 C72.82,86.26 72.21,86.88 71.45,86.88 C70.68,86.88 70.06,86.26 70.06,85.5 C70.06,84.73 70.68,84.11 71.45,84.11 L71.45,84.11 Z M49.34,83.82 C49.34,83.82 50.74,85.26 50.74,85.6 C50.73,86.28 50.19,86.66 46.99,87.83 C46.45,88.03 44.08,88.58 44.08,88.58 L44,87.43 C45.2,86.99 48.45,86.21 48.68,85.52 C48.8,85.25 48.22,84.56 48.34,84.56 L49.34,83.82 L49.34,83.82 Z M122.87,83.22 C123.71,83.22 124.39,83.91 124.39,84.75 C124.39,85.59 123.71,86.27 122.87,86.27 C122.03,86.27 121.35,85.59 121.35,84.75 C121.35,83.91 122.03,83.22 122.87,83.22 L122.87,83.22 Z M128.8,82.51 C131.81,85.07 144.11,96.69 146.46,117.31 L144.81,118.33 C143.49,107.44 139.22,94.96 127.74,83.9 L128.8,82.51 L128.8,82.51 Z M51.19,82.38 C57.82,90.23 62.6,98.6 65.64,110.17 L64.31,111.09 C62.3,102.98 59.21,94.4 50.05,83.26 L51.19,82.38 L51.19,82.38 Z M152.26,82.08 L152.26,84.47 L150.43,83.3 L152.26,82.08 L152.26,82.08 Z M60.75,81.7 C60.91,81.69 61.09,81.74 61.25,81.72 C61.67,81.9 61.54,82.43 61.09,82.56 C61,82.4 60.25,82.38 60.3,83.14 C60.12,83.57 60.13,83.54 59.59,83.6 C59.23,83.51 58.99,83.76 58.92,83.92 C58.54,84.12 58.08,84.06 57.99,83.83 C57.91,83.61 58.22,82.97 58.48,82.97 C58.61,82.98 58.83,82.8 59.06,82.64 C59.05,82.23 59.54,82.17 59.68,82.17 C59.81,82.2 60.28,82.2 60.5,81.82 C60.57,81.74 60.65,81.71 60.75,81.7 L60.75,81.7 Z M60.83,81.07 C59.82,81.12 58.14,82.27 57.57,83.26 C57.33,83.69 57.42,84.04 57.64,84.34 C57.99,84.78 58.4,84.75 59.61,84.11 C62.08,82.79 62.54,82 61.45,81.23 C61.3,81.12 61.12,81.07 60.92,81.07 L60.83,81.07 L60.83,81.07 Z M152.26,79.87 L152.26,81.43 L149.74,82.98 L148.58,82.24 L152.26,79.87 L152.26,79.87 Z M61.09,79.57 L63.22,82.55 C63.22,82.55 61.84,83.88 59.54,85.14 C57.71,86.14 55.72,84.31 56.88,82.66 C58.06,81.02 61.09,79.57 61.09,79.57 L61.09,79.57 Z M76.98,78.21 L113.4,78.43 L90.14,110.32 L89.11,110.26 C87.3,98.34 82.83,87.91 76.98,78.21 L76.98,78.21 Z M59.33,77.54 L60.11,78.56 C60.11,78.56 59.27,79.22 58.32,79.9 C55.73,81.76 55.39,81.97 55.22,83.18 C54.81,86.05 57.75,87.47 60.71,85.81 C61.77,85.32 64.09,83.84 64.09,83.84 L64.76,84.83 C64.76,84.83 61.43,87.33 59.47,87.9 C55.19,89.15 51.99,83.7 55.16,80.46 C55.64,79.97 56.66,79.3 57.48,78.78 C58.31,78.23 59.33,77.54 59.33,77.54 L59.33,77.54 Z M152.26,77.36 L152.26,79.05 L147.88,81.73 L146.59,80.88 L152.26,77.36 L152.26,77.36 Z M61.65,76.13 C66.9,82.99 72.06,90.06 76.04,103.38 L74.34,104.04 C71.06,93.31 66,84.41 60.05,77.04 L61.65,76.13 L61.65,76.13 Z M75.36,76.07 L114.89,76.07 L113.88,77.44 L76.11,77.05 L75.36,76.07 L75.36,76.07 Z M152.21,75.05 L152.15,76.6 L146.44,80.15 L146.44,78.59 L152.21,75.05 L152.21,75.05 Z M69.18,74.89 C69.94,74.89 70.56,75.5 70.56,76.27 C70.56,77.03 69.94,77.65 69.18,77.65 C68.42,77.65 67.8,77.03 67.8,76.27 C67.8,75.5 68.42,74.89 69.18,74.89 L69.18,74.89 Z M123.77,74.22 C124.61,74.22 125.29,74.9 125.29,75.75 C125.29,76.59 124.61,77.27 123.77,77.27 C122.93,77.27 122.25,76.59 122.25,75.75 C122.25,74.9 122.93,74.22 123.77,74.22 L123.77,74.22 Z M134.95,73.97 L152.3,85.55 L152.18,88.12 L133.77,75.79 L134.95,73.97 L134.95,73.97 Z M66.71,73.38 C65.47,78.77 69.75,79.94 72.35,80.85 C75.38,81.91 76.12,83.44 75.78,88.8 C75.51,92.85 75.96,93.75 78.57,95.14 C82.58,97.21 83.65,100.15 81.87,104.46 C80.78,107.11 81.35,107.86 82.05,110.17 L80.11,110.15 C79.96,110.2 78.33,107.26 79.72,104.1 C81.38,100.36 81.33,98.48 77.64,96.8 C74.78,95.49 73.91,94.26 73.73,91.58 C73.66,90.45 73.66,89.89 73.93,87.43 C74.26,84.34 73.16,83.01 68.6,81.31 C66.56,80.55 65.18,78.78 64.77,75.99 C64.65,75.2 64.76,74.3 64.76,74.3 L66.71,73.38 L66.71,73.38 Z M152.26,72.42 L152.26,74.04 L146.44,77.65 L146.44,76.06 L152.26,72.42 L152.26,72.42 Z M129.55,72.25 C130.2,77.21 128.92,80.41 125.16,80.93 C120.35,81.59 119.73,81.95 119.7,86.51 C119.67,91.92 118.87,93.48 115.05,93.91 C110.76,94.39 109.76,94.9 110.14,100.26 C110.43,104.17 108.89,105.83 105.58,106.56 C102.99,107.12 100.75,107.99 99.8,110.61 L97.43,110.64 C98.04,106.52 102.17,104.55 104.82,104.42 C107.67,103.74 108.26,102.78 107.8,97.77 C107.46,93.99 108.84,92.85 113.26,91.98 C116.79,91.29 117.66,90.27 117.46,87.37 C117.05,81.15 117.46,80.22 120.98,79.46 C122.78,79.04 125.7,78.84 126.81,77.47 C128.08,75.9 127.76,74.57 127.64,72.65 L129.55,72.25 L129.55,72.25 Z M99.05,71.38 C99.72,71.38 100.27,71.92 100.27,72.6 C100.27,73.27 99.72,73.82 99.05,73.82 C98.38,73.82 97.83,73.27 97.83,72.6 C97.83,71.92 98.38,71.38 99.05,71.38 L99.05,71.38 Z M87.06,71.34 C87.74,71.34 88.28,71.89 88.28,72.56 C88.28,73.24 87.74,73.79 87.06,73.79 C86.39,73.79 85.85,73.24 85.85,72.56 C85.85,71.89 86.39,71.34 87.06,71.34 L87.06,71.34 Z M111.26,71.25 C111.94,71.25 112.48,71.79 112.48,72.47 C112.48,73.14 111.94,73.69 111.26,73.69 C110.59,73.69 110.04,73.14 110.04,72.47 C110.04,71.79 110.59,71.25 111.26,71.25 L111.26,71.25 Z M71.1,71.24 C80.91,83.76 86.11,96.45 88.41,110.28 L86.76,110.2 C84.04,95.16 77.91,82.26 69.59,71.84 L71.1,71.24 L71.1,71.24 Z M74.63,71.17 C75.27,71.17 75.78,71.69 75.78,72.33 C75.78,72.96 75.27,73.48 74.63,73.48 C74,73.48 73.48,72.96 73.48,72.33 C73.48,71.69 74,71.17 74.63,71.17 L74.63,71.17 Z M93.26,71.06 C94.12,71.06 94.81,71.75 94.81,72.61 C94.81,73.46 94.12,74.16 93.26,74.16 C92.41,74.16 91.72,73.46 91.72,72.61 C91.72,71.75 92.41,71.06 93.26,71.06 L93.26,71.06 Z M117.41,71.05 C117.78,71.05 118.11,71.19 118.37,71.42 L116.69,73.71 C116.27,73.46 115.99,73.01 115.99,72.48 C115.99,71.69 116.63,71.05 117.41,71.05 L117.41,71.05 Z M80.86,71 C81.71,71 82.4,71.69 82.4,72.55 C82.4,73.4 81.71,74.09 80.86,74.09 C80.01,74.09 79.32,73.4 79.32,72.55 C79.32,71.69 80.01,71 80.86,71 L80.86,71 Z M105.25,70.98 C106.1,70.98 106.79,71.67 106.79,72.52 C106.79,73.38 106.1,74.07 105.25,74.07 C104.39,74.07 103.7,73.38 103.7,72.52 C103.7,71.67 104.39,70.98 105.25,70.98 L105.25,70.98 Z M99.05,70.76 C98.04,70.76 97.21,71.58 97.21,72.6 C97.21,73.62 98.04,74.44 99.05,74.44 C100.07,74.44 100.89,73.62 100.89,72.6 C100.89,71.58 100.07,70.76 99.05,70.76 L99.05,70.76 Z M87.06,70.72 C86.05,70.72 85.22,71.54 85.22,72.56 C85.22,73.58 86.05,74.41 87.06,74.41 C88.08,74.41 88.9,73.58 88.9,72.56 C88.9,71.54 88.08,70.72 87.06,70.72 L87.06,70.72 Z M111.26,70.62 C110.25,70.62 109.42,71.45 109.42,72.47 C109.42,73.48 110.25,74.31 111.26,74.31 C112.28,74.31 113.1,73.48 113.1,72.47 C113.1,71.45 112.28,70.62 111.26,70.62 L111.26,70.62 Z M152.17,70.07 L152.26,71.75 L146.44,75.29 L146.44,73.63 L152.17,70.07 L152.17,70.07 Z M108.63,75.32 L114.31,75.32 L114.31,69.94 L108.63,69.94 L108.63,75.32 Z M96.34,69.94 L102.03,69.94 L102.03,75.35 L96.34,75.32 L96.34,69.94 L96.34,69.94 Z M84.3,75.32 L89.8,75.32 L89.8,69.94 L84.3,69.94 L84.3,75.32 Z M74.31,69.94 L77.55,69.94 L77.55,75.32 L74.75,75.32 L73.75,73.83 C74.01,73.98 74.31,74.07 74.63,74.07 C75.59,74.07 76.37,73.29 76.37,72.33 C76.37,71.36 75.59,70.59 74.63,70.59 C73.67,70.59 72.89,71.36 72.89,72.33 C72.89,72.41 72.9,72.5 72.91,72.58 L71.87,71.02 C71.87,71.02 72.31,70.76 73.37,70.28 C73.65,70.16 74.31,69.94 74.31,69.94 L74.31,69.94 Z M120.07,69.91 L121.71,71.03 L93.18,110.48 L90.66,110.42 L120.07,69.91 L120.07,69.91 Z M53.72,69.49 C53.25,75.11 47.17,75.85 44.5,75.69 C39.09,75.36 36.95,76.99 36.1,77.99 C35.81,78.26 35.65,78.2 35.69,77.95 C36.32,74.83 41.34,74.72 43.87,74.75 C50.06,75.04 51.63,72.04 51.46,72.01 C50.99,72.22 50.64,72.41 50.16,72.63 C49.96,72.72 50,72.59 49.47,72.28 C49.46,72.32 48.85,73.72 48.06,72.4 C48.08,72.46 47.49,73.57 46.41,72.53 C46.42,72.65 45.76,73.6 44.7,72.63 C43.71,73.48 43.24,73.01 42.81,72.41 C42.5,72.6 41.58,73.84 40.81,72.5 C39.99,73.02 39.65,73.59 38.95,73.25 C37.31,73.54 35.89,75.23 35.31,76.78 C35.13,77.31 34.76,77.39 34.72,76.81 C34.52,75.2 37.17,72.4 39.83,71.63 C41.9,71.03 43.31,70.59 47.86,70.77 C50.44,70.87 53.72,69.49 53.72,69.49 L53.72,69.49 Z M53.84,69.12 C51.03,70.37 48.4,70.68 46.44,70.52 C42.22,70.17 35.76,71.94 34.46,76.01 C34.05,77.45 34.05,77.49 34.82,78.22 C35.21,78.59 35.58,78.86 35.65,78.83 C36.33,78.23 37.23,77.11 38.2,76.78 C39.46,76.39 40.15,76.34 42.23,76.25 C46.72,76.05 47.73,75.86 48.85,75.57 C51.3,74.91 53.78,72.49 53.92,69.79 C53.94,69.48 53.84,69.12 53.84,69.12 L53.84,69.12 Z M152.26,67.7 L152.26,69.18 L146.44,72.71 L146.44,71.29 L152.26,67.7 L152.26,67.7 Z M83.05,67.51 L118.03,67.61 L119.19,69.26 C119.19,69.26 115.79,69.35 104.64,69.28 C95.26,69.4 76.41,69.08 76.41,69.08 L78.24,68.21 C80.78,68.16 83.09,67.49 83.05,67.51 L83.05,67.51 Z M152.26,65.39 L152.26,66.72 L146.44,70.37 L146.44,69.01 L152.26,65.39 L152.26,65.39 Z M89.22,64.88 C89.23,64.88 89.25,64.89 89.26,64.9 C89.44,65.76 89.26,65.81 89.27,65.8 L87.48,65.79 C87.48,65.79 88.93,64.87 89.21,64.88 L89.22,64.88 L89.22,64.88 Z M90.89,63.89 L91.49,65.83 L90.21,65.8 C89.99,65.35 90.13,64.79 90.12,64.28 L90.89,63.89 L90.89,63.89 Z M152.26,62.69 L152.26,64.36 L146.44,67.87 L146.44,66.32 L152.26,62.69 L152.26,62.69 Z M92.35,62.68 C92.61,62.69 92.71,63.15 92.91,63.84 L93.54,65.82 L92.12,65.78 C91.7,64.85 91.54,64.18 91.67,63.2 C91.99,62.83 92.2,62.67 92.35,62.68 L92.35,62.68 Z M93.97,61.41 C94.25,61.38 94.27,61.74 94.52,62.47 L95.71,65.83 L94.19,65.79 C93.75,64.73 93.47,63.81 93.36,62.78 C93.32,62.28 93.23,61.78 93.58,61.57 C93.75,61.47 93.87,61.42 93.97,61.41 L93.97,61.41 Z M152.26,60.12 L152.26,61.72 L146.44,65.33 L146.44,63.95 L152.26,60.12 L152.26,60.12 Z M95.43,59.74 L97.6,65.81 L96.37,65.81 C95.86,64.59 95.29,63.22 94.89,61.97 C94.48,60.66 94.52,60.62 95.43,59.74 L95.43,59.74 Z M96.73,57.98 C97.61,60.61 98.5,63.29 99.54,65.86 L98.24,65.83 C97.37,63.98 96.77,61.9 96.09,59.86 C95.91,59.01 96.3,58.28 96.73,57.98 L96.73,57.98 Z M152.26,57.83 L152.26,59.18 L146.44,62.88 L146.44,61.6 L152.26,57.83 L152.26,57.83 Z M134.15,57.8 L134.76,57.82 L134.61,58.4 L134.23,58.4 L134.15,57.8 L134.15,57.8 Z M134.04,56.33 L135.22,56.38 L135.02,56.99 L134.06,57.02 L134.04,56.33 L134.04,56.33 Z M98.19,55.63 C98.77,58.91 101.25,65.5 101.44,65.94 L100.34,65.95 C100.29,66.1 97.76,60.04 97.49,57.45 C97.36,56.91 97.65,55.83 98.19,55.63 L98.19,55.63 Z M152.26,55.27 L152.26,56.94 L146.44,60.57 L146.44,58.95 L152.26,55.27 L152.26,55.27 Z M134.06,54.43 L136.05,54.49 L135.58,55.57 L134.04,55.52 L134.06,54.43 L134.06,54.43 Z M152.26,52.84 L152.26,54.41 L146.44,58 L146.44,56.57 L152.26,52.84 L152.26,52.84 Z M134.16,52.57 L137.15,52.62 L136.5,53.78 L134.06,53.78 L134.16,52.57 L134.16,52.57 Z M99.41,52.31 C100,56.82 103.26,65.9 103.26,65.9 L101.98,65.91 C102.04,66 99.64,60.19 98.78,54.71 C98.68,54.19 99.03,52.43 99.41,52.31 L99.41,52.31 Z M134.41,50.88 L138.3,50.97 L137.71,51.79 L134.3,51.8 L134.41,50.88 L134.41,50.88 Z M152.26,50.23 L152.26,52.02 L146.44,55.59 L146.44,54.04 L152.26,50.23 L152.26,50.23 Z M140.3,49.06 L139.19,50.13 L134.48,50.07 L134.64,49.09 L140.3,49.06 L140.3,49.06 Z M152.26,47.78 L152.26,49.45 L146.44,53.12 L146.44,51.47 L152.26,47.78 L152.26,47.78 Z M133.45,47.16 L142.55,47.2 L141.56,48.25 L134.7,48.19 L133.45,47.16 L133.45,47.16 Z M152.26,45.3 L152.26,47.07 L146.44,50.69 L146.44,49.01 L152.26,45.3 L152.26,45.3 Z M131.21,45.11 L143.09,45.14 L143.12,46.4 L132.32,46.29 L131.21,45.11 L131.21,45.11 Z M132.58,43.15 L143.08,43.27 L143.11,44.41 L131.72,44.11 L132.58,43.15 L132.58,43.15 Z M152.26,42.83 L152.26,44.53 L146.44,48.19 L146.44,46.6 L152.26,42.83 L152.26,42.83 Z M134.87,41.04 L141.05,41.14 L143.22,42.44 L133.77,42.36 L134.87,41.04 L134.87,41.04 Z M152.26,40.59 L152.26,42 L146.44,45.7 L146.44,44.25 L152.26,40.59 L152.26,40.59 Z M134.72,39.2 L138.95,39.32 L139.95,40.32 L134.36,40.27 C133.77,39.66 134.14,39.73 134.72,39.2 L134.72,39.2 Z M116.11,38.4 L117.44,38.76 C117.44,38.76 118.54,42.92 119.2,48.05 C119.87,53.26 121.31,59.31 124,62.44 C124.24,62.74 124.41,62.96 124.52,63.13 C124.71,63.56 124.48,64.28 124.28,64.28 C119.49,61.78 118.36,51.74 117.95,48.34 C117.34,43.09 116.11,38.4 116.11,38.4 L116.11,38.4 Z M152.26,38.07 L152.24,39.77 L146.44,43.44 L146.44,41.78 L152.26,38.07 L152.26,38.07 Z M114.33,37.88 L115.51,38.29 C115.54,38.29 116.7,43.02 117.42,48.6 C118.27,53.99 118.55,58.47 121.33,62.36 C122.49,63.98 124.67,66.14 126.04,66.4 C126.9,66.58 127.78,66.4 128,65.75 C128.35,64.68 129.26,65.17 129.28,66.14 C129.28,66.81 128.78,67.51 127.95,67.76 C123.86,68.47 120.12,63.32 118.98,60.71 C117.45,56.91 116.79,52.67 116.12,47.39 C115.84,45.15 114.49,38.02 114.33,37.88 L114.33,37.88 Z M137.51,37.54 L138.27,38.55 L134.07,38.53 L134.09,37.57 L137.51,37.54 L137.51,37.54 Z M112.49,37.36 L113.72,37.66 C113.73,37.68 115.08,43.77 115.53,47.37 C116.08,51.83 116.69,57.09 118.6,61.14 C119.78,63.67 121.5,65.79 123.25,67.02 C124.74,68.08 126.09,68.76 128.08,68.32 C130.38,67.82 130.48,64.25 128.28,64.24 C127.16,64.24 127.89,63.15 128.82,63.12 C132.13,63.01 132.23,68.24 129.11,69.41 C125.55,70.75 121.69,68.23 119.3,65.07 C115.13,58.56 115.29,52.63 114.38,47.38 C114.13,44.61 112.58,37.49 112.49,37.36 L112.49,37.36 Z M110.65,36.85 L111.87,37.15 C111.87,37.15 112.97,41.49 113.8,47.23 C114.49,52.03 114.85,61.45 120.04,66.88 C122.64,69.58 127.2,71.93 130.32,69.38 C131.65,68.24 132.51,66.42 131.71,64.46 C130.36,61.2 125.81,61.76 127.32,65.19 C127.49,66.01 126.42,66.04 125.68,65.24 C124.89,64.38 125.09,63.41 125.64,62.51 C126.81,60.61 129.95,60.42 131.79,62.11 C134.73,65 133.46,69.96 129.74,71.53 C125.45,73.36 119.92,69.58 117.73,65.98 C114.1,59.71 113.54,53.75 112.69,47.42 C112.26,44 111.43,40.4 110.65,36.85 L110.65,36.85 Z M108.9,36.5 L109.99,36.72 C111.28,41.64 111.87,46.25 112.44,50.71 C113.47,59.17 116.29,65.61 116.88,65.91 L115.69,65.85 C113.08,62.25 112.12,56.11 110.84,47.44 C110.28,43.63 109.72,40.05 108.9,36.5 L108.9,36.5 Z M106.72,36.09 L108.15,36.37 C109.66,42.4 110.06,48.1 111.09,53.83 C112.37,60.94 113.73,64.52 114.84,65.85 L113.66,65.88 C110.78,59.72 109.76,53.6 109.09,47.25 C108.69,43.51 107.47,39.82 106.72,36.09 L106.72,36.09 Z M136.45,35.74 L136.87,36.75 L134.08,36.89 L134.11,35.75 L136.45,35.74 L136.45,35.74 Z M104.75,35.72 L105.95,35.9 C106.72,39.68 108.16,43.71 108.5,47.39 C109.08,53.67 110.23,60.02 112.81,65.87 L111.71,65.94 C108.97,60.03 107.78,54.66 107.27,47.87 C106.98,44.07 105.52,39.43 104.75,35.72 L104.75,35.72 Z M152.26,35.38 L152.26,37.1 L146.44,40.85 L146.44,39.16 L152.26,35.38 L152.26,35.38 Z M102.87,35.38 L104.02,35.55 C104.82,39.47 106.25,43.9 106.58,47.88 C107.17,54.91 108.42,60.23 111.03,65.91 L109.95,65.93 C106.8,60.4 106.38,53.61 105.4,46.74 C104.85,42.94 103.63,39.12 102.87,35.38 L102.87,35.38 Z M100.8,35.07 L102.1,35.26 C102.95,39.2 104.42,43.53 104.81,47.09 C105.6,54.34 106.73,61.09 109.01,65.88 L108.1,65.85 C104.58,59.01 104.53,52.92 103.54,46.51 C102.96,42.74 101.73,38.96 100.8,35.07 L100.8,35.07 Z M98.82,34.89 L100.12,35.02 C101.03,38.98 102.35,42.73 102.89,46.71 C103.75,53.08 104.21,59.58 107.27,65.86 L106.06,65.85 C104.2,61.61 103.05,57.18 102.31,52.39 C101.73,49.65 101.73,47.58 101.42,45.1 C101.05,42.12 99.9,38.33 98.82,34.89 L98.82,34.89 Z M96.91,34.66 L97.93,34.81 C100.26,40.4 100.86,45.19 101.27,50.18 C102.2,56.65 104.08,63.14 105.38,65.9 L103.89,65.88 C103.71,65.86 100.56,56.49 99.91,50.96 C99.73,49.86 99.8,48.84 99.75,47.83 C99.41,43.55 98.83,40.33 96.91,34.66 L96.91,34.66 Z M134.29,34.25 L135.81,34.27 L136.07,35.04 L134.15,35.04 L134.29,34.25 L134.29,34.25 Z M152.26,33.1 L152.26,34.48 L146.44,38.13 L146.44,36.76 L152.26,33.1 L152.26,33.1 Z M135.23,32.75 L135.41,33.42 L134.42,33.42 L134.59,32.77 L135.23,32.75 L135.23,32.75 Z M134.75,31.47 L134.98,31.47 L135.05,31.96 L134.65,31.96 L134.75,31.47 L134.75,31.47 Z M152.45,29.77 L152.48,31.89 L145.74,36.19 C145.57,45.26 145.31,80.14 145.31,80.14 L143.69,79.08 L144.01,35.4 C144.01,35.4 149.98,31.55 152.45,29.77 L152.45,29.77 Z M110.08,21.17 L110.03,21.34 L120.08,21.33 L120.16,21.17 L110.08,21.17 L110.08,21.17 Z M87.67,21.07 L87.72,21.27 L99.35,21.27 L99.4,21.08 L87.67,21.07 L87.67,21.07 Z M102.45,21.07 L102.41,21.22 L107.23,21.23 L107.27,21.07 L102.45,21.07 L102.45,21.07 Z M80.11,20.95 L80.23,21.29 L84.61,21.3 L84.47,20.97 L80.11,20.95 L80.11,20.95 Z M70.6,20.91 L70.75,21.19 L77.17,21.17 L77.07,20.94 C77.07,20.94 70.61,20.91 70.6,20.91 L70.6,20.91 Z M61.98,20.78 L72.37,35.81 C72.41,35.76 78.18,34.66 83.86,34.38 C89.49,34.1 96.22,34.45 96.27,34.63 C96.27,34.63 98.05,40 98.65,42.64 C99.45,46.16 99.36,50.22 98.52,52.91 C97.29,56.86 96.65,58.04 93.9,60.75 C91.87,62.73 88.99,64.88 86.03,66.03 C81.92,67.75 81.5,67.74 79.08,67.86 C77.48,67.93 77.31,68 76.44,68.45 C76.17,68.55 75.99,68.83 75.75,68.91 C75.55,68.98 75.16,68.9 75.16,68.9 C61.81,74.77 51.35,81.32 43.46,87.16 C43.36,87.23 43.3,87.54 43.22,87.61 C42.57,88.14 41.97,88.54 41.34,89.02 C41.26,89.09 41.06,88.97 40.98,89.04 C31.69,96.22 26.42,102.04 24.49,103.72 L24.68,137.15 C24.68,137.15 28.91,134.97 31.08,133.64 C32.6,146.59 39.04,159.17 49.2,167.9 L44.79,173.99 L24.47,159.96 L24.76,221.65 L35.56,214.12 L35.56,207.62 C38.78,209.79 41.92,210.64 44.21,220.54 C46.03,217.06 45.87,211.88 45.05,208.42 C45.07,208.42 47.8,206.16 48.63,204.43 L44.62,200.85 C44.62,200.85 45.66,192.21 43.77,190.46 C42.27,194.39 41.07,198.55 35.48,201.58 L35.41,171.53 C38.2,173.3 40.83,175.3 43.59,177.12 L43.97,177.04 L46.83,179 C46.83,179 46.52,179.61 46.25,180.03 C42.78,185.31 48.56,191.77 53.25,187.88 C55.09,186.36 58.55,192.7 59.2,198.79 C59.86,202.73 60.22,207.61 61.29,211.03 C61.61,212.03 61.49,212.59 60.78,213.2 C57.18,218.28 49.95,228.52 49.95,228.52 L55.16,228.52 L55.54,227.92 L51.69,227.92 C55,223.5 58.16,218.35 61.6,214.03 C74.39,218.87 95.36,219.98 108.02,217.05 C110.63,220.73 113.18,224.59 115.69,228.33 L112.05,228.33 L112.55,229.12 L117.48,229.12 L107.1,213.8 C99.95,215.93 82.52,215.1 82.83,214.92 C82.83,214.92 82.78,214.81 82.18,213.07 C79.19,203.38 78.91,194.77 86.42,187.82 C90.41,184.26 94.86,181.92 99.84,182.36 C102.06,182.32 102.1,182.2 103.03,181.78 C103.54,181.55 104.6,181.31 104.6,181.31 L109.64,178.5 L110.31,178.37 L111.76,177.6 L112.05,177.25 L114.4,176.05 L114.66,176.08 L117.83,174.25 L117.87,173.99 L119.12,173.22 L119.41,173.54 C119.76,173.56 131.82,165.62 136.86,161.19 L137.17,161.31 C143.05,156.54 151.04,149.02 153.41,146.16 L153.28,131.85 L153.08,131.68 L153,115.83 L152.54,115.83 L152.52,113.88 C149.92,114.84 147.06,117.26 146.87,117.16 C145.21,103.75 139.06,91.39 128.99,82.32 L133.28,76.38 L153.17,89.81 L153.23,85.89 L153.48,85.89 C153.72,70.84 153.85,31.85 153.85,31.85 L153.66,31.83 L153.65,28.72 L143.48,35.23 L143.34,41.81 C138.83,40.34 135.97,34.9 135.03,30.06 C133.71,30.59 133.1,35.69 133.59,42.15 C132.2,42.98 131.3,43.89 130.45,45 C131.55,46.39 132.78,47.54 134.13,48.71 C133.85,49.32 133.25,57.93 133.84,59 C134.12,59.79 135.05,59.68 135.06,58.85 C136.43,52.13 142.79,47.72 143.14,48.12 L142.99,79.11 L131.7,71.17 C134.07,68.49 134.57,63.96 131.58,61.75 C128.59,59.52 125.66,61.41 124.96,62.82 C121.3,60.42 120.06,51.55 119.53,48.07 C119.39,46.38 118.96,44.08 118.46,42.01 C118.15,40.71 117.78,39.47 117.73,38.31 C117.71,37.76 117.77,37.52 118.27,36.84 L129.25,21.22 L123.64,21.2 L123.59,21.29 L128,21.31 L118.1,35.41 C103.2,30.71 87.76,29.58 71.24,32.56 L63.08,21.04 L66.79,21.03 L66.64,20.78 L61.98,20.78 L61.98,20.78 Z" id="Fill-434" fill="#0A0A08"></path>
        <path d="M48.1,64.77 C48.1,64.77 44.39,58.67 39.37,51.49 C36.02,46.69 33.34,41.48 33.09,37 C32.8,31.89 35.51,26.75 40.41,26.5 C45.31,26.26 47.29,30.45 48.1,33.91 C48.91,30.45 50.9,26.26 55.8,26.5 C60.7,26.75 63.4,31.89 63.12,37 C62.87,41.48 60.19,46.69 56.83,51.49 C51.82,58.67 48.1,64.77 48.1,64.77" id="Fill-435" fill="#C0242A"></path>
        <path d="M130.56,184.72 C130.56,184.72 126.84,190.83 121.83,198.01 C118.48,202.81 115.79,208.01 115.54,212.49 C115.26,217.61 117.96,222.74 122.87,222.99 C127.76,223.24 129.75,219.04 130.56,215.59 C131.37,219.04 133.36,223.24 138.25,222.99 C143.15,222.74 145.86,217.61 145.57,212.49 C145.32,208.01 142.64,202.81 139.29,198.01 C134.28,190.83 130.56,184.72 130.56,184.72" id="Fill-436" fill="#C0242A"></path>
    </g>
</svg>