<?xml version="1.0" encoding="UTF-8" standalone="no"?>
<svg width="179px" height="250px" viewBox="0 0 179 250" version="1.1" xmlns="http://www.w3.org/2000/svg" xmlns:xlink="http://www.w3.org/1999/xlink">
    <!-- Generator: Sketch 39.1 (31720) - http://www.bohemiancoding.com/sketch -->
    <title>KC</title>
    <desc>Created with Sketch.</desc>
    <defs></defs>
    <g id="Page-1" stroke="none" stroke-width="1" fill="none" fill-rule="evenodd">
        <path d="M9.11,0.973 L169.88,0.973 C174.58,0.973 178.39,4.779 178.39,9.477 L178.39,241.12 C178.39,245.82 174.58,249.62 169.88,249.62 L9.11,249.62 C4.41,249.62 0.6,245.82 0.6,241.12 L0.6,9.477 C0.6,4.779 4.41,0.973 9.11,0.973" id="Fill-143" fill="#FFFFFF"></path>
        <path d="M164.68,209.77 C167.81,209.7 169.21,206.03 166.89,203.19 C166.56,202.77 166.52,202.53 167.14,202.93 C168.7,204.02 171.69,203.3 171.84,199.98 C172.03,195.89 166.54,194.71 165.51,199.06 C165.46,199.52 165.1,199.51 165.18,198.86 C165.28,197.09 165.81,195.44 166.54,193.82 L162.82,193.82 C163.55,195.44 164.08,197.09 164.17,198.86 C164.26,199.51 163.9,199.52 163.84,199.06 C162.81,194.71 157.33,195.89 157.51,199.98 C157.67,203.3 160.66,204.02 162.22,202.93 C162.83,202.53 162.8,202.77 162.46,203.19 C160.15,206.03 161.55,209.7 164.68,209.77" id="Fill-145" fill="#0A0A08"></path>
        <path d="M14.31,40.823 C11.19,40.894 9.78,44.563 12.1,47.411 C12.44,47.826 12.47,48.064 11.86,47.666 C10.3,46.579 7.31,47.294 7.15,50.615 C6.96,54.707 12.45,55.887 13.48,51.535 C13.54,51.075 13.9,51.086 13.81,51.737 C13.72,53.507 13.19,55.16 12.46,56.771 L16.17,56.771 C15.45,55.16 14.92,53.507 14.82,51.737 C14.74,51.086 15.09,51.075 15.15,51.535 C16.18,55.887 21.67,54.707 21.48,50.615 C21.33,47.294 18.33,46.579 16.78,47.666 C16.16,48.064 16.2,47.826 16.53,47.411 C18.85,44.563 17.45,40.894 14.32,40.823 L14.31,40.823" id="Fill-146" fill="#0A0A08"></path>
        <polyline id="Fill-147" fill="#0A0A08" points="14.95 35.424 17.59 35.424 13.71 25.707 10.74 29.812 10.76 35.424 12.85 35.424 12.85 38.318 5.5 38.318 5.5 35.424 7.92 35.424 7.92 14.527 5.5 14.537 5.5 12.007 12.95 12.007 12.95 14.623 10.9 14.623 10.85 24.808 17.36 14.537 15.06 14.537 15.06 12.007 22.99 12.007 22.99 14.537 20.9 14.537 15.54 22.93 20.79 35.429 23.11 35.429 23.13 38.323 14.97 38.323 14.95 35.425 14.95 35.424"></polyline>
        <polyline id="Fill-148" fill="#0A0A08" points="164.04 215.17 161.4 215.17 165.28 224.89 168.25 220.78 168.23 215.17 166.14 215.17 166.14 212.28 173.49 212.28 173.49 215.17 171.07 215.17 171.07 236.07 173.49 236.06 173.49 238.59 166.04 238.59 166.04 235.97 168.09 235.97 168.14 225.79 161.63 236.06 163.93 236.06 163.93 238.59 156 238.59 156 236.06 158.09 236.06 163.45 227.67 158.2 215.17 155.88 215.17 155.86 212.27 164.02 212.27 164.04 215.17"></polyline>
        <path d="M58.92,210.99 L48.79,229.06 L113.58,228.66 L105.11,211.43 C105.25,211.24 76.81,214.85 58.92,210.99 L58.92,210.99 Z M28.45,140.99 C26.66,141.11 25.31,145.58 30.39,146.25 C33.97,146.76 38.56,144.98 40.83,145.8 C43.48,150.06 45.85,143.79 42.32,142.77 C38.52,141.67 30.79,144.54 29.93,142.1 C29.49,141.27 28.95,140.96 28.45,140.99 L28.45,140.99 Z M69,128.38 C68.15,144.54 64.23,160.4 55.34,174.15 C62.99,170.55 70.42,165.91 77.61,161.93 L94.4,172.42 C95.38,172 96.05,171.79 96.69,171.14 C88.95,159.72 86.56,143.28 83.19,128.4 C81.9,129.32 79.49,129.78 79.49,129.78 C79.32,134.94 73.95,136.61 72.86,129.88 L69,128.38 L69,128.38 Z M33.74,126.62 C33.55,129.12 35.37,136.72 36.04,136.46 C38.42,132.6 38.13,129.3 37.89,125.53 C43.54,114.55 24.23,119.06 33.74,126.62 L33.74,126.62 Z M142.19,114.14 C140.09,114.14 139.74,122.41 139.77,124.9 C133.69,134.57 152.22,133.47 144.21,122.93 C144.49,121.55 143.19,119.31 143.22,118.31 C142.57,118.23 142.28,114.49 142.19,114.14 L142.19,114.14 Z M133.51,105.76 C136.07,111.5 145.41,104.51 147.03,107.56 C148.35,109.29 151.22,109.47 151.06,106.55 C150.52,103.67 148.64,103.02 141.16,104.28 C138.32,104.76 137.15,105.04 137.17,103.74 C135.21,101.35 133.53,104.6 133.51,105.76 L133.51,105.76 Z M57.02,93.56 C55.53,94.29 54.72,95.84 53.64,97.05 C52.16,97.12 50.74,97.63 49.33,98.26 C49.33,98.26 52.71,102.99 52.5,103.24 C41.51,110.5 41.6,121.12 52.16,128.12 C53.95,143.23 41.22,167.14 40.58,166.45 L40.55,171.39 C49.61,161.4 54.78,143.36 55.3,128.8 C73.38,127.58 74.03,109.95 61.58,103.32 C60.62,102.43 64.71,98.33 64.71,98.33 C63.67,97.3 61.93,97.19 60.41,97.06 C59.45,95.9 58.62,94.75 57.02,93.56 L57.02,93.56 Z M137.59,79.257 C125.89,90.46 121.31,121.57 122.15,122 C107.07,121.49 102.5,138.27 115.57,147.32 C115.05,149.07 113.78,150.5 112.79,152.05 C114.13,152.83 115.61,152.99 117.08,153.16 C118.19,154.49 119.29,156.03 120.5,156.16 C121.82,155.32 122.75,154.1 123.85,153.04 C125.21,152.69 126.57,152.3 127.87,151.7 C126.72,150.09 125.36,148.45 125.32,146.94 C136.69,138.85 135.13,127.86 124.88,122.23 C127.93,103.72 132.38,91.89 137.55,83.479 L137.59,79.257 L137.59,79.257 Z M84.16,77.468 C84.09,77.561 81.44,78.252 81.71,78.858 C88.63,93.82 91.72,105.99 94.61,121.36 C96.07,120.16 98.44,120.21 98.44,120.21 C97.27,114.5 104.4,113.79 104.45,119.76 C105.82,120.08 107.22,120.09 108.46,121.48 C109.02,104.68 114.99,87.303 122.7,75.26 C113.91,78.771 101.02,87.521 101.02,87.521 C101.02,87.521 90.28,83.048 84.16,77.468 L84.16,77.468 Z M128.8,21.662 L63.43,21.982 L71.74,37.855 C88.72,36.313 103.61,37.685 119.12,38.195 L128.8,21.662 L128.8,21.662 Z" id="Fill-149" fill="#DACA2C"></path>
        <path d="M60.85,208.24 L59.23,210.58 C58.66,210.82 84.41,215.22 104.71,210.75 L103.3,208.06 C86.77,212.31 60.6,208.54 60.85,208.24 L60.85,208.24 Z M77.41,165.92 C77.41,165.92 67.31,171.72 67.62,171.97 C67.68,172 69.85,175.1 69.85,175.1 C74.87,163.64 86.87,173.13 88.79,178.98 C89.21,179.24 89.28,179.16 89.73,179.37 C89.77,178.96 90.61,174.89 90.61,174.89 L77.41,165.92 L77.41,165.92 Z M51.7,161.99 L54.46,163.35 C54.46,163.35 53.15,164.42 52.63,164.98 C51.97,165.69 52.02,166.02 52.91,165.68 C54.62,165.03 56.33,166 56.36,167.79 C56.41,170.18 53.61,171.33 52.26,169.52 C51.86,168.98 51.39,168.76 51.57,169.2 C52.03,170.27 51.75,171.61 50.96,172.17 C50.32,172.61 49.16,172.74 48.58,172.43 C46.56,171.38 46.46,169.04 48.38,168.11 C49.35,167.65 49.38,167.21 48.43,167.45 C46.45,167.95 45.29,165.53 46.72,163.87 C48.24,162.1 50.72,162.46 50.99,165.08 C51.04,165.54 51.35,165.21 51.49,164.49 C51.66,163.97 51.7,161.99 51.7,161.99 L51.7,161.99 Z M57.71,150.31 C59.04,150.29 60.13,151.36 60.15,152.71 C60.17,154.06 59.11,155.17 57.78,155.19 C56.44,155.21 55.34,154.13 55.32,152.78 C55.3,151.43 56.37,150.33 57.71,150.31 L57.71,150.31 Z M57.66,148.79 C55.49,148.82 53.76,150.61 53.79,152.8 C53.82,154.99 55.61,156.74 57.77,156.71 C59.94,156.68 61.67,154.88 61.64,152.69 C61.61,150.5 59.83,148.75 57.66,148.79 L57.66,148.79 Z M57.61,147.92 C60.24,147.89 62.41,150.01 62.45,152.67 C62.49,155.34 60.38,157.53 57.74,157.57 C55.11,157.61 52.93,155.48 52.9,152.82 C52.86,150.15 54.97,147.96 57.61,147.92 L57.61,147.92 Z M145.62,146.42 L147.99,146.4 C147.99,146.4 147.95,146.58 147.59,147.27 C147.16,148.09 147.22,148.93 147.67,148.36 C148.43,147.39 150.04,147.66 150.56,148.84 C151.17,150.21 149.98,151.73 148.74,151.15 C147.93,150.78 147.88,150.86 148.41,151.64 C148.93,152.4 148.7,153.34 147.86,153.88 C146.19,154.96 144.19,152.81 145.58,151.44 C145.95,151.08 145.84,150.9 145.39,151.14 C143.55,152.15 142.19,149.65 143.78,148.18 C144.46,147.55 144.98,147.6 146.09,148.37 C146.43,148.61 146.5,148.36 146.25,147.75 C145.83,146.71 145.62,146.42 145.62,146.42 L145.62,146.42 Z M145.49,133.95 L147.76,133.95 C147.53,134.51 147.25,135.09 147.07,135.65 C146.87,136.26 147.01,136.34 147.61,135.75 C149.17,134.69 150.84,135.75 150.5,137.42 C150.26,138.58 149.31,139.14 148.2,138.64 C147.22,138.2 147.54,138.39 148.09,139.06 C148.75,139.86 148.58,140.8 147.71,141.42 C146.17,142.51 144.13,140.69 145.15,139.11 C145.75,138.16 145.48,138.26 144.93,138.72 C144.11,139.33 142.86,138.47 142.84,137.28 C142.74,135.56 144.46,134.59 145.67,135.81 C146.24,136.3 146.39,136.24 146.13,135.53 C145.89,135.01 145.81,134.45 145.49,133.95 L145.49,133.95 Z M60.27,131.26 L63.43,131.34 C63.43,131.34 62.71,132.78 62.4,133.59 C62.02,134.57 62.2,134.77 62.92,134.09 C63.86,133.2 65.35,133.11 66.14,133.91 C68.22,136.02 66.04,139.46 63.57,137.95 C62.52,137.3 62.34,137.52 63.18,138.43 C64.81,139.96 63.11,142.16 61.2,142.17 C59.82,142.16 58.93,141.05 58.82,139.83 C58.77,139.06 59.15,138.28 59.81,137.91 C60.51,137.51 60.01,137.26 59.26,137.67 C56.81,139 55.17,135.58 57.02,133.63 C58.08,132.51 59.21,132.62 60.3,133.69 C61.05,134.44 61.33,134.37 61.11,133.49 C60.9,132.49 60.27,131.26 60.27,131.26 L60.27,131.26 Z M94.42,125.86 C94.97,135.02 96.45,143.71 101.18,150.67 L101.5,131.19 C99.81,130.78 98.43,129.68 97.94,126.57 L94.42,125.86 L94.42,125.86 Z M68.43,122.59 C65.29,124.63 60.9,129.72 55.37,128.61 C54.7,146.46 48.89,160.28 40.61,172.16 C43.47,173.86 46.62,175.91 49.54,177.22 C52.01,175.94 53.4,175.4 55.83,173.39 C65.78,157.87 68.94,140.9 68.43,122.59 L68.43,122.59 Z M151.28,107.49 C147.51,111.42 148.69,109.09 150.44,112.09 C150.45,114.07 151.59,115.62 150.68,118.74 C150.39,119.35 150.37,119.64 150.53,120.25 C150.25,123.7 147.51,123.66 144.85,124.19 C145.29,124.16 149.07,131.2 142.03,131.75 L142.11,160.36 L153.15,152.15 L153.1,107.49 L151.28,107.49 L151.28,107.49 Z M30.28,108.53 C30.32,108.52 30.36,108.52 30.4,108.53 C30.68,108.53 30.99,108.61 31.29,108.78 C32.12,109.26 32.35,110.19 31.83,111.01 C31.53,111.48 31.62,111.77 31.97,111.46 C32.44,111.06 33.47,111.33 33.88,111.97 C34.91,113.61 32.88,115.75 31.59,114.39 C31.02,113.78 30.8,113.76 30.87,114.16 C31.05,114.9 31.54,116.17 31.54,116.17 L29.21,116.21 C29.21,116.21 29.71,114.88 29.82,114.2 C29.91,113.66 29.7,113.74 29.14,114.37 C28.6,114.99 28.11,115.05 27.42,114.59 C25.72,113.46 27.08,110.54 28.85,111.52 C29.46,111.86 29.55,111.66 29.07,111.02 C28.22,109.89 29.09,108.58 30.28,108.53 L30.28,108.53 Z M116.39,106.4 C119.82,106.68 119.16,109.36 118.14,110.45 C117.65,111.02 117.74,111.27 118.27,110.95 C119.72,110.06 120.87,110.7 121.34,112.22 C122.14,114.82 118.75,117.06 117.24,114.73 C116.73,113.94 116.42,114.12 116.54,114.94 C116.62,115.74 117.39,117.39 117.39,117.39 L114.03,117.09 C114.03,117.09 115.05,115.36 115.24,114.9 C115.61,113.93 115.41,113.67 114.69,114.45 C112.59,116.4 109.67,113.91 111.03,111.33 C111.7,110.06 112.94,109.65 114.27,110.66 C115.17,111.25 115.36,111 114.56,110.28 C113.06,108.94 114.37,106.24 116.39,106.4 L116.39,106.4 Z M76.3,100.4 C75.39,106.39 76.18,114.79 76.17,119.29 C78.58,119.75 78.61,121.41 78.98,123.48 C80.15,123.06 82.72,124.81 83.07,124.66 C83.34,118.58 80.21,100.95 76.3,100.4 L76.3,100.4 Z M30.12,96.4 C30.3,96.4 30.5,96.42 30.69,96.49 C31.82,96.85 32.21,97.84 31.6,98.79 C31.12,99.53 31.18,99.59 32.01,99.28 C32.67,99.03 33,99.11 33.52,99.63 C35.07,101.18 32.76,103.79 31.24,102.21 C30.49,101.43 30.42,101.66 30.94,103 C31.11,103.44 31.39,104.11 31.39,104.11 L29.16,104.08 C29.16,104.08 29.51,103.18 29.67,102.76 C30.05,101.74 30.06,101.59 29.26,102.23 C27.45,103.68 25.39,101.21 27.06,99.59 C27.4,99.26 27.94,99.24 28.7,99.54 C29.25,99.76 29.32,99.61 28.91,99.09 C28,97.94 28.84,96.42 30.12,96.4 L30.12,96.4 Z M119.44,94.53 C120.79,94.51 121.9,95.6 121.92,96.96 C121.94,98.32 120.86,99.45 119.51,99.46 C118.16,99.49 117.05,98.39 117.04,97.03 C117.02,95.67 118.09,94.55 119.44,94.53 L119.44,94.53 Z M119.35,93.38 C117.36,93.41 115.77,95.06 115.8,97.07 C115.83,99.08 117.46,100.68 119.45,100.65 C121.44,100.62 123.03,98.97 123,96.96 C122.98,94.95 121.34,93.35 119.35,93.38 L119.35,93.38 Z M119.31,92.57 C121.79,92.53 123.83,94.53 123.87,97.04 C123.91,99.55 121.92,101.61 119.44,101.65 C116.95,101.69 114.91,99.68 114.87,97.17 C114.83,94.67 116.82,92.6 119.31,92.57 L119.31,92.57 Z M35.52,90.08 C35.52,90.08 28.88,95.1 25.8,97.52 L25.95,142.2 L26.8,142.5 C26.87,142.6 26.73,141.84 27.12,141.49 C27.45,141.21 27.96,140.89 28.26,140.78 C29.11,140.46 29.15,139.89 28.35,139.39 C27.73,139.01 27.5,138.41 27.57,137.42 C27.62,136.72 27.59,136.57 27.3,136.1 C26.94,135.51 26.91,134.76 27.22,133.99 C27.36,133.63 27.35,133.53 27.09,133.05 C26.77,132.43 26.73,131.76 26.97,131.05 C27.06,130.77 27.13,130.17 27.12,129.71 C27.09,127.93 28.55,126.75 31.23,126.38 C32.29,126.23 32.32,126.19 31.84,125.3 C29.11,120.28 35.23,117.67 35.69,118.47 L35.52,90.08 L35.52,90.08 Z M109.05,127.94 C112.4,124.08 116.56,121.59 122.34,121.94 C123.08,105.74 128.65,91.33 137.56,78.343 L127.75,72.391 L123.82,74.787 C114.75,88.394 108.56,105.53 109.05,127.94 L109.05,127.94 Z M122.63,79.171 C123.55,79.15 124.06,79.508 124.52,80.45 C125.04,81.515 125.24,81.253 124.9,79.925 C124.38,77.832 126.58,76.47 128.65,77.867 C130.15,78.876 130.09,81.318 128.45,81.771 C127.13,82.136 127.09,82.486 128.25,82.429 C130.34,82.326 130.89,85.133 129.41,86.505 C127.71,88.083 125.53,86.965 125.33,84.986 C125.24,84.427 125.13,84.435 124.94,84.751 C124.42,85.664 124.37,86.852 124.47,87.926 L121.39,85.998 C122.49,85.45 123.15,85.119 123.95,84.289 C124.05,84.181 124.13,84.101 124.13,84.054 C124.13,83.969 123.78,84.082 123.16,84.148 C121.3,84.344 119.87,83.127 120.25,81.359 C120.57,79.855 121.34,79.199 122.63,79.171 L122.63,79.171 Z M87.06,74.987 L100.31,83.634 C100.31,83.634 106.65,79.11 109.35,77.197 L107.71,74.765 C102.11,87.226 92.26,77.371 88.57,71.508 C88.57,71.508 87.57,73.778 87.06,74.987 L87.06,74.987 Z M72.75,39.583 L74.03,41.934 C89.21,39.41 101.16,39.017 116.86,42.077 L118.29,39.629 C103.96,37.023 89.35,35.947 72.75,39.583 L72.75,39.583 Z" id="Fill-150" fill="#C0242A"></path>
        <path d="M60.82,207.57 C78.51,211.61 91.05,209.69 103.35,207.5 L114.25,229.08 L48.56,229.17 C52.85,222.16 56.42,214.49 60.82,207.57 L60.82,207.57 Z M30.7,206.67 L34.85,209.51 L34.84,211.43 L30.8,208.53 L30.7,206.67 L30.7,206.67 Z M30.63,203.11 L35.02,206.15 L34.88,208.47 L30.61,205.55 L30.63,203.11 L30.63,203.11 Z M92.75,201.21 C96.39,204.38 99.29,203.5 101.49,201.9 C101.82,201.82 101.82,202.11 101.89,202.66 C101.99,203.36 101.41,203.71 99.83,204.19 C96.77,205.11 93.19,204.1 92.54,202.03 C92.47,201.62 92.31,201.1 92.75,201.21 L92.75,201.21 Z M93.8,200.37 C96.3,202.09 99.22,202.07 101.05,200.55 C101.46,200.21 101.82,200.2 101.83,200.52 C101.57,201.73 98.38,203.29 95.9,202.41 C94.53,201.92 93.41,201.44 92.52,200.16 C91.98,199.32 93.08,199.86 93.8,200.37 L93.8,200.37 Z M30.65,199.41 L34.98,202.55 C35.12,203.66 35.15,204.5 35.14,205.26 L30.68,202.27 L30.65,199.41 L30.65,199.41 Z M83.93,197.9 C84.04,198.34 83.69,198.65 83.31,198.29 C83.15,198.14 83.01,197.88 83.03,197.7 C83.27,197.47 83.85,197.66 83.93,197.9 L83.93,197.9 Z M99.84,197.2 C99.94,197.21 100.06,197.22 100.19,197.25 C101.25,197.51 101.73,198.02 101.21,198.66 C100.89,199.06 100.58,199.22 100.36,198.95 C99.65,197.77 99.26,197.17 99.84,197.2 L99.84,197.2 Z M95,197.13 C95.52,197.1 95.46,197.35 94.91,198.1 C94.44,198.75 94.32,198.85 93.85,198.5 C93.07,197.91 94.36,197.18 95,197.13 L95,197.13 Z M100.11,199.67 L99.09,199.73 C98.17,197.51 96.87,197.18 95.77,199.38 L94.98,199.14 C96.34,196.33 98.62,196.11 100.11,199.67 L100.11,199.67 Z M83.09,199.2 L82.49,199.29 C81.58,197.24 79.68,197.71 79.1,199.62 L78.27,199.52 C79.11,197.18 82.11,195.75 83.09,199.2 L83.09,199.2 Z M78.59,197.19 C78.67,197.19 78.73,197.2 78.77,197.23 C79,197.49 78.31,198.52 77.73,199.12 C77.3,199.4 76.26,198.63 76.52,198.26 C76.81,197.9 78.04,197.24 78.59,197.19 L78.59,197.19 Z M105.21,196.59 C108.59,196.92 107.47,200.84 105.11,199.78 C104.48,199.31 104.29,199.34 103.59,201.06 C102.7,203.26 102.48,203.08 102.6,200.54 C102.69,198.06 103.82,196.61 105.21,196.59 L105.21,196.59 Z M30.69,196.01 L34.9,199.04 C34.84,200.19 34.87,200.66 34.92,201.39 L30.66,198.62 L30.69,196.01 L30.69,196.01 Z M30.6,192.24 L35.08,195.34 L34.94,198.08 L30.74,194.96 L30.6,192.24 L30.6,192.24 Z M85.25,189.55 C83.27,190.91 84.43,193.38 85.82,193.66 C87.28,193.95 87.38,192.92 85.93,192.62 C85.15,192.31 84.95,191.57 85.26,190.99 C85.95,189.85 87.23,190.59 87.97,190.94 C89.63,191.74 90.48,192.03 91.01,191.48 C91.93,190.5 91.11,188.77 89.88,189.38 C89.55,189.54 89.3,189.7 88.6,189.53 C87.53,189.3 86.25,189.06 85.25,189.55 L85.25,189.55 Z M30.56,188.49 L35.11,191.65 C35.11,191.65 35.27,193.34 35.17,194.25 L30.6,191.29 L30.56,188.49 L30.56,188.49 Z M106.15,189.8 C106.02,188.98 104.69,189.82 103.82,191.28 C102.95,192.72 102.86,192.92 102.69,191.43 C102.42,189.21 104.71,187.47 106.13,187.42 C107.85,187.22 108.97,188.19 109.02,189.3 C109.11,191.5 106.51,191.52 106.15,189.8 L106.15,189.8 Z M79.34,185.43 C77.33,187.01 78.05,189.87 79.72,190.3 C80.18,190.54 80.87,190.43 81.14,190.25 C81.39,190.08 81.39,189.81 80.88,189.72 C79.33,189.46 78.45,188.31 79.2,187.15 C79.93,186.02 81.27,186.24 83.86,187.37 C86.09,188.34 87.07,188.04 87.34,186.87 C87.45,186.36 87.31,185.87 86.24,185.83 C83.26,185.72 81.28,183.89 79.34,185.43 L79.34,185.43 Z M94.58,184.69 C92.15,185.64 91.52,186.42 91.9,187.11 C92.23,187.68 93.19,187.48 95.78,186.39 C97.71,185.58 98.32,185.93 98.71,187.16 C98.69,188.98 96.95,189.19 95.96,188.94 C95.54,188.92 95.6,188.96 96.05,189.53 C98.06,191.12 100.51,188.02 99.29,186.05 C98.33,184.26 96.67,183.74 94.58,184.69 L94.58,184.69 Z M30.66,185.02 L34.96,188.14 L35.05,190.79 L30.66,187.65 L30.66,185.02 L30.66,185.02 Z M59.82,184.15 C60.34,185.33 61.37,190.69 61.51,195.32 C61.62,199 62.49,206.18 62.65,206.22 C62.12,206.27 61.48,206.16 61.23,205.76 C59.63,198.67 60.14,191.8 58.3,184.68 C58.41,184.33 58.99,183.76 59.82,184.15 L59.82,184.15 Z M61.79,182.98 C63.25,184.46 63.62,192.79 63.79,194.58 C64.31,204.29 65.22,205.69 64.76,206.42 C64.2,206.41 64.01,206.62 63.65,206.13 C62.4,202.57 62.47,198.92 62.27,195.2 C61.99,190.29 61.5,187.63 60.82,185.19 C60.36,183.57 60.37,183.54 61.19,183.1 C61.33,183.02 61.66,182.98 61.79,182.98 L61.79,182.98 Z M101.68,182.1 C101.87,182 101.96,182.27 102.23,182.62 C102.68,183.21 102.81,183.49 102.43,183.54 C101.44,183.69 101.19,183.58 101.22,182.96 C101.25,182.46 101.36,182.27 101.68,182.1 L101.68,182.1 Z M83.72,182.95 C83.77,184.8 84,184.05 84.65,183.75 C85.14,183.71 85.53,183.98 86.44,184.32 C87.59,184.74 87.49,184.89 88.3,184.49 C88.8,184.24 89.2,184.15 89.44,184.35 C90.39,185.13 91.61,184.69 92.3,184.06 C92.84,183.78 93.42,183.93 93.88,183.97 C94.54,184.03 94.36,183.61 94.44,182.77 C94.52,182.03 94.24,181.97 93.47,182.22 C92.7,182.47 91.92,182.51 91.25,182.3 C89.52,181.77 88.25,182.11 87.39,182.25 C85.37,182.57 85.26,182.37 84.8,182.07 C84.46,181.85 83.89,181.45 83.7,181.46 C83.5,181.48 83.57,182.15 83.72,182.95 L83.72,182.95 Z M63.87,182.04 C65.64,186.01 65.92,189.96 66,194.75 C66.08,199.28 67.07,204.59 67.45,206.93 C66.86,207 66.23,207.05 65.98,206.77 C65.82,206.55 65.69,206.21 65.61,205.77 C64.81,201.85 64.62,197.59 64.39,193.98 C64.04,188.4 63.96,187.01 63.17,184.23 C62.72,182.65 62.57,182.68 62.9,182.38 C63.16,182.15 63.65,182.03 63.87,182.04 L63.87,182.04 Z M66.03,181.34 C67.96,184.13 68.25,190.66 68.29,195.31 C68.32,199.49 69.73,207.15 69.84,207.12 C69.44,207.36 68.9,207.27 68.4,207.08 C67.9,206.42 67.6,204.59 67.02,199.62 C66.87,198.33 66.58,194.25 66.51,190.97 C66.45,188.07 64.85,181.8 64.85,181.8 C64.85,181.8 65.47,181.35 66.03,181.34 L66.03,181.34 Z M103.16,181.13 C103.26,181.32 103.58,181.74 103.86,182.07 C104.39,182.69 104.54,182.7 104.3,182.95 C103.74,183.54 102.57,182.69 102.44,181.6 C102.33,180.81 102.72,180.31 103.16,181.13 L103.16,181.13 Z M86.36,181.23 C86.36,181.39 86.96,181.51 87.9,181.29 C88.93,181.03 89.97,181.08 90.77,181.3 C91.61,181.53 91.71,181.26 90.94,180.92 C90.57,180.75 89.97,180.38 89.08,180.4 C88.19,180.41 86.35,180.9 86.36,181.23 L86.36,181.23 Z M30.6,181.47 L34.74,184.2 C34.68,185.14 34.68,186.08 34.69,187.01 L30.62,184.11 L30.6,181.47 L30.6,181.47 Z M68.25,179.5 C70.23,184.53 70.19,190.03 70.52,195.22 C70.96,202.12 72.17,206.77 72.56,207.55 C72.56,207.55 70.63,207.57 70.53,207.29 C70.53,207.29 68.71,198.14 68.98,193.61 C69,188.55 68.03,184.1 67.43,182.1 C66.8,180.32 66.77,181.5 68.25,179.5 L68.25,179.5 Z M105.99,182.51 C104.24,182.15 103.57,180.87 103.79,179.42 C103.86,178.94 104.14,178.66 104.44,179.29 C104.7,180.3 105.36,181.69 106.27,181.96 C106.63,182.07 106.33,182.58 105.99,182.51 L105.99,182.51 Z M30.62,177.74 L34.93,180.75 L34.81,183.3 L30.52,180.37 L30.62,177.74 L30.62,177.74 Z M50.99,177.36 C51.25,177.36 51.1,177.82 51.14,178.93 C51.24,181.62 51.85,182.95 53.54,184.19 C54.6,184.97 54.86,184.74 54.53,185.05 C53.96,185.59 52.41,185.13 51.24,184.13 C49.49,182.64 49,178.96 50.42,177.7 C50.67,177.48 50.86,177.35 50.99,177.36 L50.99,177.36 Z M53.14,176.12 C53.45,176.1 53.28,176.75 53.31,177.96 C53.37,180.53 54.15,181.77 56.05,183.33 C56.66,183.84 56.74,183.79 56.5,184.07 C55.85,184.82 53.65,183.76 52.72,182.22 C51.6,180.39 51.44,177.63 52.48,176.58 C52.77,176.29 52.98,176.13 53.14,176.12 L53.14,176.12 Z M55.31,175.16 C55.61,175.15 55.49,175.59 55.51,176.73 C55.64,179.65 56.86,181.47 58.41,182.49 C58.93,183.07 58.26,183.48 57.29,183.2 C55.06,182.51 52.79,177.68 54.67,175.61 C54.94,175.32 55.15,175.17 55.31,175.16 L55.31,175.16 Z M107.51,174.4 C109.43,174.33 111.04,175.08 111.22,177.44 C111.48,180.9 108.29,182.8 106.06,180.81 C104.06,178.81 106.08,175.69 108.4,177.15 C109.57,177.9 108.18,179.58 107.23,178.71 C106.81,178.32 106.62,178.56 106.92,179.02 C107.84,180.39 109.63,179.25 109.5,178.04 C109.25,175.66 106.35,175.69 105.26,176.62 C103.77,177.9 102.46,179.77 101.48,181.14 C100.67,182.33 100.5,182.3 100.62,180.83 C100.93,176.96 104.52,174.52 107.51,174.4 L107.51,174.4 Z M57.61,173.99 C57.95,173.98 57.82,174.54 57.73,175.57 C57.51,177.95 58.25,179.68 59.91,181.11 C60.61,181.72 60.8,181.91 60.5,182.23 C60.07,182.68 58.84,182.07 57.88,181.06 C56.11,179.2 55.53,175.69 56.9,174.42 C57.21,174.14 57.44,174 57.61,173.99 L57.61,173.99 Z M30.54,174.03 L35.03,176.99 C35.24,177.91 35.15,178.89 35.01,179.89 L30.52,176.73 L30.54,174.03 L30.54,174.03 Z M60.29,172.68 C60.62,172.7 60.4,173.31 60.09,174.26 C59.38,176.54 60.72,180.08 62.57,180.79 C63.13,181.17 63.1,181.31 62.73,181.52 C61.52,182.21 59.32,180.15 58.74,177.86 C58.32,176.2 58.43,174.24 59.22,173.41 C59.65,172.96 59.99,172.72 60.22,172.69 C60.25,172.68 60.27,172.68 60.29,172.68 L60.29,172.68 Z M65.17,171.69 C69.2,173.21 72.98,180.94 72.87,190.96 C72.78,197.92 74.87,207.84 74.83,207.73 C74.83,207.73 73.66,207.89 73.33,207.63 C71.81,202.52 71.3,197.12 71.06,192.67 C70.87,188.96 70.66,185.32 70.42,184.47 C69.76,181.47 69.04,177.98 67.15,175.71 C65.67,173.99 63.99,173.69 62.98,175.62 C62.16,177.2 63.89,179.81 65.33,178.94 C65.68,178.74 65.89,178.41 65.43,178.42 C63.94,178.64 62.93,176.55 63.88,175.56 C65.54,173.81 68.46,177.71 67.11,179.86 C66.51,180.79 64.95,180.95 63.71,180.61 C60.93,179.26 60.24,175.94 61.17,173.76 C61.87,172.1 63.43,171.1 65.17,171.69 L65.17,171.69 Z M30.59,170.68 L34.79,173.7 L35.01,176.12 L30.56,173.3 L30.59,170.68 L30.59,170.68 Z M30.65,167.04 L34.28,169.56 C34.29,170.51 34.36,171.41 34.5,172.22 L30.56,169.64 L30.65,167.04 L30.65,167.04 Z M30.54,163.47 L34.44,166.35 C34.5,166.4 34.22,167.67 34.29,168.39 L30.58,166.09 L30.54,163.47 L30.54,163.47 Z M123.78,160.4 L122.69,162.52 L121.24,162.32 L123.83,169.52 L126.67,162.38 L124.92,162.48 L123.78,160.4 L123.78,160.4 Z M30.54,159.97 L35.03,162.97 C35.05,163.9 35.09,164.77 34.77,165.43 L30.53,162.68 L30.54,159.97 L30.54,159.97 Z M115.36,155.18 L114.28,156.63 L113.03,156.49 L115.47,164 C116.21,161.83 116.89,158.88 117.63,156.71 L116.47,156.77 L115.36,155.18 L115.36,155.18 Z M30.61,156.11 L34.96,159.13 C35.05,160.11 35.18,160.98 35.04,162.1 L30.47,159.04 L30.61,156.11 L30.61,156.11 Z M132.2,153.93 L131.19,155.72 L129.75,155.73 L132.66,163.31 L134.87,155.39 L133.49,155.52 L132.2,153.93 L132.2,153.93 Z M153.03,153.38 L153.22,228.7 L115.49,228.7 L103.53,205.51 C103.53,205.51 103.65,203.37 103.94,202.29 C104.3,200.97 104.4,200.68 104.9,200.62 C106.24,201.32 107.74,200.39 108.2,199.36 C108.76,198.1 107.62,196.18 105.87,195.77 C105.09,195.58 104.25,195.93 103.39,196.59 C102.9,197.01 102.79,197.05 102.69,196.69 C102.47,195.87 103.19,193.65 104.47,191.74 C105.19,190.67 105.38,190.37 105.62,190.77 C106.55,192.41 108.56,192.07 109.33,191.15 C110.25,190.03 110.05,187.48 107.96,186.81 C103.88,185.48 102,189.63 102.05,189.62 L101.17,184.65 C106.1,183.43 108.94,183 110.5,181.5 C111.73,180.31 112.32,178.26 112.17,176.44 C112.17,176.44 125.85,170.83 132.25,167.35 C143.27,161.35 153.03,153.38 153.03,153.38 L153.03,153.38 Z M30.43,152.35 L34.23,154.97 C34.37,155.99 34.68,157.02 34.8,157.93 L30.5,155 L30.43,152.35 L30.43,152.35 Z M30.43,148.65 L33.97,150.98 C33.97,151.97 33.9,152.91 34.04,153.89 L30.45,151.49 L30.43,148.65 L30.43,148.65 Z M30.37,147.02 L34.4,146.98 C34.09,148.25 34.02,149.22 33.98,150.14 L30.41,147.77 L30.37,147.02 L30.37,147.02 Z M40.09,207.95 C40.09,207.95 37.5,209.83 36.67,210.37 C36.24,210.53 36.03,210.56 35.92,210.14 C35.8,209.63 36,208.65 36.18,207.03 C36.35,205.54 36.35,205.46 36.1,203.33 C35.84,201.1 35.81,201.01 36.02,198.07 C36.25,194.8 36.3,191.62 36.04,189.65 C35.8,187.78 35.8,183.51 35.99,181.13 C36.22,178.21 36.14,175.65 35.76,173.54 C35.09,169.76 34.98,168.47 35.68,165.63 C35.94,164.56 36.07,164 36.02,162.22 C35.96,160.24 35.92,159.6 35.22,155.22 C34.82,152.7 34.79,152.35 35.16,148.36 C35.24,147.56 35.27,147.02 35.57,146.76 C35.93,146.46 39.62,146.25 39.62,146.25 L40.09,207.95 L40.09,207.95 Z M106.82,145.14 L105.82,146.68 L104.61,146.68 L106.72,154.55 L109.29,146.85 L107.88,146.67 L106.82,145.14 L106.82,145.14 Z M29.49,146.95 C29.91,165.77 29.84,208.9 29.84,208.9 L35.15,212.54 L40.73,208.49 C40.68,194.91 40.62,185.55 40.57,172.98 L48.76,177.52 C48.76,177.52 49.01,177.88 48.97,179.58 C48.41,184.27 52.9,187.32 55.88,185.47 C57.03,184.98 57.12,184.89 57.37,185.26 C58.04,186.27 58.79,190.59 58.92,193.34 C59.11,197.5 60.19,205.96 60.45,206.02 L47.13,228.7 L26.04,228.7 L26.04,144.16 C27.11,145.44 27.69,146.28 29.49,146.95 L29.49,146.95 Z M131.46,140.67 L129.66,143.11 L132.08,149.22 L134.29,141.82 L132.55,142.51 L131.46,140.67 L131.46,140.67 Z M32.71,140 C32.99,140.26 33.03,140.71 32.72,140.93 C32.15,141.22 29.96,140.98 29.95,140.36 C29.94,139.95 30.67,139.81 31.35,139.8 C32.03,139.78 32.49,139.78 32.71,140 L32.71,140 Z M33.93,135.13 C34.92,135.12 35.1,136.44 34.36,136.67 C32.63,137.12 32.78,135.13 33.93,135.13 L33.93,135.13 Z M32.72,136.76 C32.82,137.15 32.68,137.03 31.97,137.24 C31.58,137.36 30.96,137.63 30.32,137.95 C29.38,138.43 29.11,138.69 28.78,138.64 C28.51,138.58 28.21,138.46 28.12,138.19 C27.8,137.1 28.67,136 30.71,135.24 C31.14,135.08 31.89,134.95 32.15,134.92 C32.85,134.93 32.11,136 32.72,136.76 L32.72,136.76 Z M33.72,132.5 C34.4,132.44 34.88,133.19 34.46,133.91 C33.9,134.44 32.92,134.05 32.92,133.31 C32.92,132.84 33.3,132.53 33.72,132.5 L33.72,132.5 Z M31.79,132.42 C32.4,132.3 32.14,133.98 32.05,134.03 C31.66,134.18 29.97,134.4 29.25,135.01 C27.73,136.21 27.09,135.48 27.79,134.04 C28.46,133.2 30.91,132.44 31.79,132.42 L31.79,132.42 Z M74.45,129.54 L76.39,131.14 L78.06,129.42 C79.3,132.21 77.87,133.48 76.35,133.45 C74.67,133.41 72.88,131.81 74.45,129.54 L74.45,129.54 Z M106.77,128.9 L105.77,130.43 L104.25,130.41 L106.71,138.01 L107.84,135.04 C108,133.67 108.18,132.31 108.32,130.94 L106.77,128.9 L106.77,128.9 Z M33.95,131.33 C33.78,131.57 33.25,131.69 32.79,131.57 C32.06,131.36 31.94,130.3 32.59,129.93 C33.73,129.55 34.42,130.63 33.95,131.33 L33.95,131.33 Z M31.3,129.79 C31.8,129.73 31.65,130.84 31.46,131.4 C31.28,131.8 30.73,131.79 30.23,131.82 C29.35,131.87 28.25,132.89 27.77,132.72 C27.61,132.65 27.5,132.23 27.48,131.96 C27.59,130.49 30.01,129.95 31.3,129.79 L31.3,129.79 Z M30.99,127.4 C30.86,127.92 31.04,128.44 31.06,128.69 C30.73,128.93 29.34,129.34 28.6,129.71 C28.08,129.89 27.7,129.39 27.77,128.95 C27.97,128.11 29.19,127.56 30.07,127.3 C30.35,127.24 30.8,127.21 30.99,127.4 L30.99,127.4 Z M101.53,130.16 C99.88,130.24 98.52,128.46 99.14,126.69 C99.48,126.21 99.63,126.28 99.63,126.28 L101.5,127.97 L103.3,126.07 C104.79,127.87 103.51,130.02 101.53,130.16 L101.53,130.16 Z M33,127.33 C33.4,127.68 33.39,128.18 32.98,128.55 C32.5,128.97 31.55,128.74 31.53,127.94 C31.59,127.14 32.52,126.91 33,127.33 L33,127.33 Z M39.47,125.88 C40.2,125.87 41.06,126.03 41.77,126.71 C43.29,128.18 43.36,129.51 42.68,135.16 C42.49,136.75 41.94,138.09 41.2,138.67 C39.72,139.83 37.92,140.66 36.42,141.03 C35.64,141.23 34.96,141.23 34.42,141.23 C33.85,141.22 33.51,140.95 33.47,140.47 C33.6,139.15 32.27,139.02 31.49,139.1 C30.12,139.15 29.98,139.3 30.84,138.63 C31.82,137.86 34.07,137.85 34.5,138.3 C35.38,137.41 36.3,137.31 37.42,137.18 C37.25,136.93 36.85,135.94 37.12,135.31 C37.7,134.28 38.68,132.46 39.7,131.78 C40.72,130.44 39.86,131.04 39.22,131.06 C38.87,131.08 38.9,130.96 38.84,130.71 C38.59,129.67 38.23,127.72 38.22,126.56 C38.22,126 38.74,125.89 39.47,125.88 L39.47,125.88 Z M76.22,124.84 C77.31,124.82 78.2,125.7 78.21,126.79 C78.23,127.89 77.36,128.79 76.28,128.8 C75.2,128.82 74.3,127.94 74.29,126.85 C74.27,125.75 75.14,124.86 76.22,124.84 L76.22,124.84 Z M37.78,125.5 C37.78,125.5 38.14,129.58 38.47,130.98 C38.25,132.57 37.23,133.65 36.77,135.29 C36.53,136.01 35.61,136.99 35.43,135.96 C34.77,134.7 35.4,133.13 34.85,132.23 C34.43,131.38 34.66,130.91 34.47,130.03 C33.96,129.3 33.71,128.97 33.8,128.32 C33.69,125.43 32.97,126.01 31.7,126.24 C26.78,126.67 26.78,129.53 27.08,133.17 C26.38,136.57 27.67,135.77 27.63,136.38 C27.57,137.35 27.72,138.71 28.01,138.86 C29.77,140.9 29.86,142.3 32.14,141.96 C36.01,142.26 42.15,141.68 43.48,136.92 C44.31,130.21 44.56,123.84 37.78,125.5 L37.78,125.5 Z M73.59,124.84 L71.76,126.77 L73.74,128.94 C73.74,128.94 72.18,129.19 71.62,129.09 C68.94,128.58 69.2,125.4 71.28,124.56 C72.15,124.25 72.8,124.36 73.59,124.84 L73.59,124.84 Z M101.39,121.39 C102.51,121.37 103.44,122.28 103.45,123.41 C103.47,124.54 102.57,125.48 101.45,125.49 C100.33,125.51 99.4,124.6 99.38,123.47 C99.37,122.33 100.27,121.4 101.39,121.39 L101.39,121.39 Z M98.67,121.61 C98.67,121.61 97.4,122.91 96.85,123.45 L98.75,125.46 C98.84,125.7 96.56,126.75 95.35,125.17 C94.57,124.15 95.01,122.2 96.12,121.53 C97.25,120.85 98.88,121.42 98.67,121.61 L98.67,121.61 Z M149.35,120.38 C149.65,120.38 149.73,120.5 149.82,120.79 C150.07,121.61 149.43,122.44 148.34,122.7 C147.32,122.94 147.42,123.06 146.94,122.14 C146.56,121.43 146.46,121.46 147.05,121.23 C147.76,121 148.52,120.73 149.35,120.38 L149.35,120.38 Z M106.57,121.04 C108.36,121.86 108.67,124.37 106.93,125.34 C106.11,125.8 104.81,126.06 104.21,125.13 L105.96,123.2 L103.95,121.49 C103.87,121.41 105.49,120.54 106.57,121.04 L106.57,121.04 Z M75.95,120.3 C77.21,120.27 78.31,121.18 78.35,122.8 C78.37,123.45 78.04,124.11 78.04,124.11 L75.92,122.53 L74.3,124.27 C74.02,124.37 73.03,123.12 73.71,121.76 C74.21,120.78 75.08,120.32 75.95,120.3 L75.95,120.3 Z M149.66,117.8 C150.8,117.73 150.21,119.06 148.52,119.95 C147.46,120.52 146.58,120.68 146.2,120.47 C145.99,119.85 146.17,119.28 146.3,119.03 C147.02,118.66 149,118 149.66,117.8 L149.66,117.8 Z M103.58,118.05 C103.78,118.67 103.84,119.48 103.67,120.11 C103.44,120.61 103.09,120.6 103.09,120.6 L101.3,119.07 L99.56,120.7 C99.56,120.7 98.49,119.61 99.08,118.11 C100.19,116.01 102.75,116.38 103.58,118.05 L103.58,118.05 Z M108.47,121.57 C107.09,119.55 104.01,119.85 104.34,119.99 C104.37,118.26 104.07,115.89 101.48,115.64 C98.86,115.44 97.51,118.92 98.51,120.4 C96.89,119.72 94.47,121.42 94.47,121.58 C94.26,121.59 92.41,126.53 98.01,126.78 C98.52,129.11 99.4,130.24 101.19,131.2 L101.23,150.23 L101.86,151.1 L101.92,131.15 C104.79,131.02 105.14,127.71 104.93,126.95 C106.2,127 107.36,126.74 108.33,125.99 L108.67,129.25 C108.67,129.25 109.34,128.1 109.19,127.49 C107.95,108.8 114.65,88.575 123.44,75.468 C123.91,74.917 124.05,74.26 124.29,74.255 C126.43,73.089 127.79,72.304 127.79,72.304 C131.32,74.02 137.64,78.16 137.64,78.16 L137.74,104.8 C137.64,104.54 149.51,103.46 149.33,103.78 C149.33,103.78 148.29,103.37 148.28,102.67 L147.97,40.342 L142.78,36.919 C142.78,36.919 138.51,39.734 137.31,40.696 L137.45,77.393 L128.25,71.956 C128.25,71.956 128.4,70.658 128.41,70.237 C128.26,65.229 125.83,63.55 121.19,65.035 C120.57,65.234 120.14,65.408 119.83,65.152 C117.88,59.391 117,44.252 117,44.252 L130.09,21.875 L152.29,21.752 L152.67,107.25 L153.48,152.06 L142.15,160.39 L141.98,131.68 C141.98,131.68 140.36,130.9 139.93,130.85 C139.77,130.84 139.57,131.2 139.86,131.38 C140.27,131.65 141.3,132.03 141.3,132.03 L141.54,160.48 C141.54,160.48 137.13,163.47 135.16,164.72 C131.48,166.75 127.86,168.69 124.05,170.39 C120.31,172.02 112.05,175.48 112.05,175.48 C111.33,173.09 104.25,167.51 96.28,171.46 C95.55,171.73 94.65,171.97 94.04,172.39 C91.01,172.95 90.01,176.23 89.55,179.41 C89.53,179.54 89.79,179.51 89.8,179.52 C89.83,179.57 90.52,176.47 90.79,175.88 C91.38,174.63 92.12,173.88 92.51,173.76 C92.68,173.73 92.84,174.01 92.6,174.45 C92.12,175.33 91.73,177.19 91.61,178.03 C91.51,178.81 91.49,179.43 91.63,179.46 C91.65,179.48 92.33,177.11 92.64,176.27 C93.44,174.08 93.94,173.18 94.71,172.71 C95.5,172.23 95.68,172.3 95.53,172.81 C94.36,175.12 93.87,176.86 93.64,179.32 C93.61,179.81 93.85,179.82 94.05,179.01 C94.69,176.43 95.57,172.94 97.65,171.9 C98.54,171.5 98.94,171.52 98.84,171.8 C96.36,174.96 95.74,178.48 95.77,179.61 C95.78,179.99 95.93,179.91 96.25,179.09 C97.09,175.98 98.33,173.33 99.81,172.03 C100.38,171.53 101.08,171.39 101.65,171.31 C103.41,171.09 103.46,171.75 101.94,172.65 C100.21,173.67 98.2,177.38 97.97,180.17 C97.9,181.13 98.24,181.23 98.47,179.95 C99.5,174.41 104.21,170.75 107.98,172.44 C109.68,173.21 109.99,174.27 108.51,173.79 C105.52,172.84 102.2,174.98 100.83,177.96 C99.59,180.66 99.62,182.08 100.49,185.69 C101.08,189.03 102.24,193.29 101.86,196.56 C101.45,197.19 100.15,196.3 98.61,196.11 C97.69,195.93 96.56,195.89 95.59,196.26 C94.75,196.59 94.27,196.67 94.12,196.21 C94.07,196.06 94.77,195.34 95.08,194.95 C95.58,194.31 95.29,194.21 94.59,194.9 C94.25,195.24 93.51,196.03 93.31,196.07 C92.86,196.16 92.84,195.66 93.2,194.37 C94.46,189.39 94.12,189.3 91.97,188.29 C89.83,187.47 90.51,187.06 89.56,186.24 C88.9,186.77 90.43,189.18 92.17,189.7 C93.59,190.13 93.42,190.87 92.8,192.84 C92.17,195.6 91.09,199.26 91.71,201.71 C93.02,206.87 98.21,206.76 102.18,204.68 L102.66,205.99 C99.3,207.36 81.61,208.54 75.65,207.84 C75.19,206.22 75.14,205.8 74.95,203.88 C74.95,203.88 78.64,205.56 80.47,205.85 C82.77,206.22 86.31,206.24 87.21,204.1 C87.49,203.48 87.2,202.95 86.41,203.31 C84.96,203.98 82.47,204.47 80.46,204.34 C78.77,204.24 76.36,203.55 75.32,202.92 C74.83,202.62 74.41,202.03 74.8,201.3 C75.14,201.22 75.59,201.6 75.86,201.74 C78.9,203.29 80.58,203.59 82.56,203 C84.07,202.55 86.1,200.91 85.6,200.44 C85.09,200.62 83.4,202.05 82.24,202.36 C79.84,203 77.29,202.02 74.8,200.39 C74.03,199.72 74.38,199.23 75.32,199.77 C79.05,201.66 80.6,202.92 84.17,200.26 C84.97,199.66 85.41,199.74 85.88,200.1 C87.73,201.78 87.73,200.84 86.37,199.1 C86.06,198.7 85.78,198.15 85.6,197.56 C85.46,197.12 85.43,196.69 85.18,196.4 C84.76,195.91 84,195.68 83.14,195.29 C81.89,194.74 81.47,195 82.39,195.46 C84.01,196.25 84.8,197.1 82.79,196.65 C80.97,195.82 77.93,196.28 76.21,197.49 C74.86,198.15 74.26,198.87 73.94,197.36 C73.27,194.22 73.92,189.96 73.03,184.48 C72.86,183.44 72.65,182.78 72.87,182.63 C73.14,182.45 73.84,183.13 74.7,184.35 C75.09,184.9 75.87,185.97 75.86,185.75 C75.89,184.59 74.1,182.41 72.63,181.55 C71.82,181.08 71.27,178.9 72.2,179.38 C72.91,179.73 76.64,183.04 77.35,184.22 C77.67,184.76 77.95,184.42 77.61,183.77 C77.4,183.39 76.52,182.25 75.67,181.41 C74.16,179.93 73.99,180 74.28,179.69 C74.85,179.09 76.08,179.87 78.26,181.86 C78.82,182.58 79.57,183.22 79.48,182.87 C79.7,182.31 77.51,179.94 76.21,179.3 C75.97,179.15 75.93,178.98 75.96,178.69 C76.08,177.57 78.59,179.21 80.68,181.14 C81.46,181.86 80.81,180.5 79.91,179.58 C79.2,178.86 78.05,177.96 77.27,177.65 C76.5,177.33 76.45,176.65 77.06,176.36 C79.15,176.27 81.31,178.43 82.6,180.13 C82.95,180.59 83.28,180.95 82.91,180.07 C81.71,177.41 79.24,175.92 77.52,175.61 C76.12,175.37 76.15,174.1 77.46,174.24 C78.91,174.4 81.27,175.71 83.27,177.75 C83.85,178.34 84.83,179.68 84.63,178.89 C84.63,178.68 84.01,177.84 83.3,177.03 C81.67,175.38 79.76,173.93 77.74,173.5 C76.8,173.23 74,173.78 73.98,173.29 C73.97,172.92 74.27,172.71 75.17,172.41 C78.63,171.25 83.7,174.25 86.47,178.86 C86.67,179.19 87.04,179.33 87.06,179.26 C85.73,175.49 81.57,172.07 78.26,171.48 C76.01,171.12 73.74,171.7 72.67,173.23 C71.45,174.95 71.93,177.25 73.75,177.07 C74.7,176.98 74.63,176.43 74.61,176.41 C74.55,176.35 73.99,176.61 73.65,176.54 C72.4,176.3 72.53,174.02 74.35,174.25 C76.45,174.5 76.75,177.84 74.4,178.55 C72.24,179.19 71.45,178.2 70.86,177.01 C69.99,175.28 70.92,172.49 72.45,171.42 C76.73,168.42 82.13,170.93 85.19,173.9 C86.71,175.38 87.81,177.12 88.5,179.01 C88.68,179.45 89.06,179.4 88.89,178.95 C84.58,167.86 71.73,166.57 69.85,175.18 C66.74,170.26 64.02,169.91 59.85,172.06 C55.6,173.83 53.51,175.28 49.58,177.14 L40.66,172.31 C40.14,163.37 40.44,154.4 40.47,145.45 C40.5,145.24 38.54,145.59 35.28,146.11 C26.61,147.86 27.36,143.17 26.22,142.93 C25.62,142.81 25.66,143.07 25.5,126.57 C25.45,121.78 25.35,113.35 25.28,107.84 C25.21,102.34 25.2,97.75 25.25,97.65 C25.29,97.56 25.78,97.13 26.34,96.73 C28.45,95.22 29.64,94.31 34.26,90.75 C35.31,89.941 35.57,89.806 35.57,89.806 C36.1,99.72 35.63,110.13 35.89,118.66 L36.28,118.66 L36.13,90.04 C35.33,89.826 54.35,78.59 64.78,74.945 C64.97,74.877 65.46,75.096 65.46,75.096 C71.44,82.497 87.19,80.256 88.46,71.246 C91.07,76.738 102.53,87.412 107.76,74.547 C107.76,74.547 109.66,78.242 111.29,78.486 C114.95,78.977 115.35,78.394 123.41,74.45 C114.2,88.553 109.12,103.48 108.47,121.57 L108.47,121.57 Z M149.78,114.61 C150.17,114.61 150.38,114.9 150.49,115.48 C150.54,115.8 150.42,116.06 150.17,116.41 C149.13,117.54 146.24,118.32 145.19,118.03 C145.12,117.94 145.29,116.75 145.37,116.21 C146.76,116.26 149.11,115.01 149.78,114.61 L149.78,114.61 Z M148.97,111.53 C150.06,111.75 150.1,112.75 149.83,113.36 C149.22,114.71 145.16,115.37 145.16,115.37 C145.13,114.79 145.21,114.23 144.78,113.57 C144.78,113.57 147.49,112.86 148.06,112.33 C148.44,111.98 148.67,111.54 148.97,111.53 L148.97,111.53 Z M70.61,112.08 L69.94,113.26 C70.26,115.86 70.29,117.21 69.37,119.92 L70.74,121.73 L71.83,119.85 L73.54,119.88 L70.61,112.08 L70.61,112.08 Z M145.35,109.19 C147.02,109.16 148.64,109.97 147.83,110.5 C147.31,110.84 145.43,110.7 144.9,110.32 C144.23,109.83 144.48,109.21 145.35,109.19 L145.35,109.19 Z M142.16,109.01 C143.52,108.94 143.84,108.93 143.78,109.65 C144.04,110.98 144.37,111.59 146.09,111.46 C147.82,111.23 148.37,111.12 146.63,112.18 C145.75,112.57 145.46,112.64 144.42,112.55 C143.37,112.45 143.45,112.35 142.85,112.71 C142.51,112.91 142.14,113.16 141.87,113.21 C141.46,113.28 140.75,113.44 140.75,113.44 C140.35,115.5 139.73,116.55 138.88,117.53 C137.68,118.9 137.07,119.14 138.55,119.04 C139.09,119.08 138.81,118.8 139.05,121.03 C139.13,121.81 139.27,122.71 139.39,123.02 C139.77,124.03 139.82,124.54 138.37,124.61 C134.74,124.89 133.89,121.32 134.37,119.5 C134.41,119.21 134.58,118.26 134.62,117.51 C134.63,117.1 134.55,116.75 134.56,116.33 C134.65,112.93 135.44,112.04 138.43,109.83 C139.33,109.16 140.95,109.02 142.16,109.01 L142.16,109.01 Z M144.71,124 C148.59,124.3 151.48,121.65 150.24,119.74 C151.28,118.42 150.43,117.66 150.72,116.9 C151.54,116.05 150.85,114.22 150.65,114.21 C150.48,111.75 149.77,111.44 148.72,110.13 C148.4,109.75 149.45,109.38 149.86,108.72 C148.62,109.05 147.96,108.42 147.28,107.58 C140.1,107.92 133.66,108.43 133.9,118.25 C132.87,122.42 134.62,126.14 139.63,124.99 C140.73,124 140,122.57 139.87,121.88 C139.44,119.98 139.93,118.75 140.07,117.86 C140.5,115.12 142.49,112.57 142.71,116.87 C143.06,116.33 142.89,116.25 143.47,116.03 C144.85,115.53 144.85,116.93 144.56,117.5 C144.38,117.79 144.11,117.76 143.83,117.73 C143.43,117.68 142.91,117.53 142.9,117.38 C142.79,117.83 143.63,118.66 143.54,119.08 C143.43,119.48 143.36,119.45 143.72,119.18 C145.45,117.94 146.53,120.72 144.03,120.41 C145.26,121.07 143.44,123.01 144.71,124 L144.71,124 Z M144.61,121.83 C145.32,121.25 146.45,121.58 146.46,122.46 C146.48,123.24 145.59,123.5 144.9,123.06 C144.36,122.73 144.32,122.11 144.61,121.83 L144.61,121.83 Z M143.54,113.82 C143.88,113.8 144.31,114.1 144.4,114.51 C144.46,115.75 142.82,115.47 142.77,114.69 C142.73,114.14 143.23,113.85 143.54,113.82 L143.54,113.82 Z M45.53,100.84 L42.95,108.14 L44.76,107.93 L45.41,109.27 C48.31,106.7 49.77,110.68 48.3,107.27 L45.53,100.84 L45.53,100.84 Z M78.99,123.53 C79.02,120.67 77.53,119.94 76.3,119.36 C76.3,119.36 76.1,101.29 76.13,100.75 C76.13,100.83 75.81,98.8 75.77,98.68 L75.48,98.6 C75.53,100.43 75.65,119.21 75.62,119.33 C73.32,119.6 72.67,121.17 72.46,123.29 C70.67,123.15 69.5,124.24 69.46,124.42 C68.8,123.5 69.29,122.15 68.77,121.19 C67.18,126.81 70.28,130.17 72.98,129.85 C73.41,135.25 79.3,136.22 79.1,129.68 C86.22,129.26 83.81,122.65 78.99,123.53 L78.99,123.53 Z M80.68,126.57 L78.78,124.72 C78.76,124.57 80.33,123.8 81.31,124.29 C82.59,124.94 83.25,127.27 81.81,128.5 C80.67,129.48 78.92,128.67 78.89,128.55 L80.68,126.57 L80.68,126.57 Z M143.99,96.43 L147.33,98.74 L147.3,101.33 L144.01,99.11 L143.99,96.43 L143.99,96.43 Z M70.92,95.69 L68.3,103.14 L70.06,103.15 L71.12,104.94 L71.97,103.14 L73.38,103.16 L70.92,95.69 L70.92,95.69 Z M147.3,95.25 L147.35,97.78 L143.75,95.19 L143.36,92.39 L147.3,95.25 L147.3,95.25 Z M143.07,88.403 L147.35,91.43 L147.39,94.32 L143.24,91.51 L143.07,88.403 L143.07,88.403 Z M45.14,87.054 L43.01,94.38 L44.44,94.38 L45.64,96.23 L46.7,94.44 L48.32,94.4 L45.14,87.054 L45.14,87.054 Z M61.97,86.506 L59.74,93.88 L61,93.71 L62.18,95.68 L63.37,93.91 L64.5,93.97 L61.97,86.506 L61.97,86.506 Z M143.55,84.969 L147.19,87.626 L147.26,90.34 L143.13,87.563 L143.55,84.969 L143.55,84.969 Z M143.69,81.838 L147.25,84.305 L147.3,86.861 L143.61,84.283 L143.69,81.838 L143.69,81.838 Z M53.55,80.919 L51.29,87.806 L52.77,87.896 L53.77,89.712 L54.8,87.851 L56.35,87.731 L53.55,80.919 L53.55,80.919 Z M143.54,78.009 L147.23,80.584 L147.28,83.353 L143.63,80.925 L143.54,78.009 L143.54,78.009 Z M143.27,74.451 L147.13,77.019 L147.23,79.555 L143.48,77.206 L143.27,74.451 L143.27,74.451 Z M147.18,73.597 L147.19,76.155 L143.13,73.413 C143.07,72.801 143.14,71.87 143.27,70.909 L147.18,73.597 L147.18,73.597 Z M90.65,68.51 C89.18,69.227 87.86,69.497 86.41,68.863 C85.34,68.395 85.36,68.903 85.83,69.321 C87.17,70.473 89.6,69.952 90.65,69.304 C90.99,69.093 91.1,68.483 90.65,68.51 L90.65,68.51 Z M69.42,68.336 C71.2,68.305 72.71,70.428 72.15,72.441 C71.46,74.541 67.99,74.093 68.57,71.999 C68.73,71.396 69.37,70.956 69.98,71.333 C70.86,71.878 70.76,70.991 70.2,70.677 C69.34,70.191 68.16,70.485 67.9,71.468 C66.98,74.894 71.34,76.062 73.71,72.522 C74.58,71.229 75.53,69.845 76.05,69.255 C76.51,68.725 76.62,68.78 76.54,69.464 C76.24,72.646 74.04,76.624 69.91,76.406 C65.91,76.022 64.65,71.731 67.68,69.053 C68.25,68.621 68.8,68.347 69.42,68.336 L69.42,68.336 Z M143.53,67.195 L147.17,69.824 L147.17,72.638 L143.37,70.058 C143.45,69.073 143.5,68.13 143.53,67.195 L143.53,67.195 Z M71.78,67.753 C71.89,67.749 72.03,67.764 72.21,67.793 C73.4,67.994 74.31,69.912 74.04,70.999 C73.4,72.17 73.17,71.381 72.96,70.319 C72.8,69.88 72.31,69.19 72.01,68.835 C71.39,68.096 71.29,67.767 71.78,67.753 L71.78,67.753 Z M73.93,67.041 C74.69,67.025 74.98,67.731 75.11,68.295 C75.23,68.774 75.08,70.207 74.68,69.707 C74.58,69.404 74.17,68.425 73.83,68.171 C73.09,67.604 73.17,67.057 73.93,67.041 L73.93,67.041 Z M75.86,66.294 C75.96,66.294 76.06,66.31 76.16,66.344 C76.53,66.465 76.58,67.424 76.3,67.725 C76.01,68.025 75.78,67.777 75.45,67.015 C75.2,66.6 75.46,66.296 75.86,66.294 L75.86,66.294 Z M123.09,66.299 C125.18,68.063 125.72,69.629 125.51,70.914 C125.41,71.849 125.34,72.881 124.43,73.443 C124.27,73.523 124.02,73.573 123.79,73.608 C124.49,70.953 123.66,68.576 120.7,66.04 C121.56,65.609 122.44,65.754 123.09,66.299 L123.09,66.299 Z M85.84,65.978 C85.26,66.188 84.64,66.613 84.16,66.509 C83.69,66.405 83.46,66.641 83.28,67.015 C82.57,68.445 82.79,68.908 84.19,68.096 C84.86,67.711 85.09,67.849 86.87,68.188 C88.15,68.431 89.01,68.406 90.13,68.113 C91.53,67.749 92.36,67.72 93.06,68.109 C93.77,68.498 94.25,69.034 94.27,68.598 C94.19,68.087 93.75,66.78 93.64,66.347 C93.6,66.138 93.25,66.321 92.92,66.346 C91.77,66.43 90.39,65.382 89.5,65.936 C88.78,66.38 88.69,66.496 87.71,65.916 C86.98,65.484 86.48,65.751 85.84,65.978 L85.84,65.978 Z M123.92,65.243 C127.01,65.294 128.75,69.905 127.12,71.824 C126.64,72.395 126.25,72.548 126.03,72.335 C125.98,72.289 126.06,71.773 126.09,71.19 C126.19,69.332 125.8,68.06 124.46,66.647 C123.45,65.589 123.06,65.261 123.92,65.243 L123.92,65.243 Z M143.63,63.772 L147.15,66.325 L147.21,68.886 L143.52,66.434 C143.59,65.512 143.61,64.646 143.63,63.772 L143.63,63.772 Z M143.36,60.165 L147.07,62.814 L147.05,65.278 L143.45,62.658 L143.36,60.165 L143.36,60.165 Z M78.76,60.908 C77.31,62.22 78.5,65.666 80.63,65.974 C81.08,66.038 81.74,66.02 82.5,65.799 C83.99,65.364 85.64,64.473 85.71,63.954 C86.01,61.595 82.53,63.71 82.07,63.989 C80.97,64.662 79.81,64.575 79.23,63.776 C77.91,61.977 80.27,59.912 81.71,62.113 C82.07,62.669 81.94,61.728 81.55,61.088 C80.99,60.186 79.55,60.244 78.76,60.908 L78.76,60.908 Z M95.16,60.352 C94.86,60.858 95.1,61.766 95.71,60.993 C97.29,59.144 99.57,61.458 98.35,62.928 C97.24,64.263 95.88,63.833 93,62.725 C90.91,61.917 90.58,62.192 90.06,62.775 C89.64,63.256 89.85,64.223 90.4,64.211 C92.1,64.601 93.57,64.979 95.33,65.349 C99.04,66.117 101.31,61.287 97.92,59.512 C97.11,59.087 95.42,59.639 95.16,60.352 L95.16,60.352 Z M143.09,56.3 L147.05,59.209 L147.06,61.768 L143.15,59.048 C142.99,57.907 143.06,57.094 143.1,56.3 L143.09,56.3 L143.09,56.3 Z M74.88,56.774 C75.06,56.779 75.14,57.404 75.18,58.319 C75.25,59.84 73.72,61.957 72.17,62.687 C70.3,63.564 68.3,62.333 68.64,60.508 C68.95,58.825 71.32,58.756 71.41,60.31 C71.17,60.719 71.5,61.061 71.63,61.025 C72.24,60.86 73.67,59.556 74.26,58.097 C74.49,57.528 74.63,56.943 74.79,56.811 C74.82,56.785 74.85,56.773 74.88,56.774 L74.88,56.774 Z M143.2,52.788 L147.16,55.593 L147.12,58.169 L143.17,55.451 C142.99,54.348 143.16,53.605 143.2,52.788 L143.2,52.788 Z M83.02,51.515 C83.8,51.807 83.71,52.183 83.16,52.523 C82.19,53.074 81.77,52.966 82.4,52.101 C82.69,51.701 82.75,51.522 83.02,51.515 L83.02,51.515 Z M93.57,51.377 C93.95,51.661 94.2,51.977 94.25,52.488 C94.28,52.85 93.09,52.434 93.09,51.858 C93.13,51.492 93.33,51.196 93.57,51.377 L93.57,51.377 Z M99.55,51.008 C99.72,51.011 100.06,51.133 100.37,51.26 C101.23,51.61 101.18,51.868 100.23,52.296 C98.7,52.98 98.17,53.069 98.63,52.103 C98.89,51.66 99.07,51.074 99.55,51.008 L99.55,51.008 Z M94.71,50.734 C96.28,53.151 97.19,51.721 98.09,50.668 L98.52,50.807 C98.4,52.541 95.51,54.392 94.13,50.777 L94.71,50.734 L94.71,50.734 Z M76.64,50.854 C77.24,50.927 77.22,51.615 77.41,52.117 C77.83,53.237 76.23,52.289 75.96,52.017 C75.49,51.522 76.15,50.904 76.64,50.854 L76.64,50.854 Z M77.55,50.448 L78.08,50.464 C79.32,53.503 80.88,51.937 81.53,50.72 L82.18,50.826 C81.16,54.896 77.03,52.767 77.55,50.448 L77.55,50.448 Z M143.45,49.419 L147.1,51.994 L147.1,54.526 L143.21,51.803 L143.45,49.419 L143.45,49.419 Z M96.1,47.632 C97.68,47.582 99.57,47.986 101.17,48.794 C101.87,49.151 102.5,49.374 102.96,49.784 C103.33,49.978 103.36,50.819 103.09,50.883 C102.85,50.917 102.46,50.728 101.87,50.313 C98.08,47.83 95.35,48.136 93.16,49.664 C93.04,49.749 92.67,49.836 92.52,49.824 C92.1,49.793 92.08,49.62 92.25,49.392 C93.27,48.235 94.78,47.678 96.1,47.632 L96.1,47.632 Z M82.47,48.109 C84.27,48.827 84.93,49.704 84.99,50.094 C84.89,50.384 84.71,50.186 83.4,49.472 C81.38,48.223 78.75,48.019 76.44,49.604 C75.87,49.72 75.81,49.39 76.38,48.763 C78.14,47.371 80.58,47.352 82.47,48.109 L82.47,48.109 Z M147.1,48.442 L147.08,50.995 L143.44,48.537 L143.68,46.083 L147.1,48.442 L147.1,48.442 Z M74.99,48.84 C75.04,51.316 74.45,52.682 73.16,53.254 C71.6,53.944 69.61,52.466 70.58,50.811 C71.31,49.56 72.57,49.937 72.81,51.251 L74.78,46.814 C74.78,46.814 74.99,48.22 74.99,48.84 L74.99,48.84 Z M80.48,45.686 C82.85,45.802 84.82,46.874 85.01,48.445 C85.05,48.798 84.77,48.627 84.45,48.379 C82.41,46.803 80.1,46.312 77.3,47.328 C76.69,47.55 76.19,47.898 75.91,47.851 C75.67,47.692 75.59,47.31 75.78,46.994 C76.43,45.893 79.31,45.629 80.48,45.686 L80.48,45.686 Z M119.15,65.449 C118.89,66.207 118.28,66.137 117.61,66.215 C116.87,64.148 116.43,61.685 116.12,59.273 C115.43,53.976 115.18,49.009 114.47,43.78 L116.26,43.967 C116.21,44.006 117.54,62.404 119.15,65.449 L119.15,65.449 Z M112.31,43.364 L113.82,43.628 C115.63,66.113 116.75,65.823 117.09,66.707 L115.46,67.374 C113.7,60.913 113.35,51.804 112.31,43.364 L112.31,43.364 Z M109.94,43.016 L111.58,43.312 C112.3,53.145 113.45,62.378 114.65,67.67 L113.22,67.765 C111.46,60.202 111.34,51.452 109.94,43.016 L109.94,43.016 Z M107.86,42.869 L109.24,43.021 C109.65,46.904 110.29,49.54 110.54,53.819 C110.85,59.354 111.8,63.897 112.39,68.221 L111.37,68.565 C110.68,68.885 109.54,63.776 109.03,53.422 C108.88,50.287 108.35,46.763 107.86,42.869 L107.86,42.869 Z M143.64,42.08 L147.04,44.402 L147.07,47.346 L143.65,45.053 L143.64,42.08 L143.64,42.08 Z M105.61,42.653 L107.17,42.752 C107.79,46.023 108.06,49.742 108.31,53.471 C108.39,59.22 109.09,65.282 110.43,69.257 L109.28,70.473 C107.33,65.919 107.17,58.734 106.74,53.872 C106.54,48.404 105.65,42.688 105.61,42.653 L105.61,42.653 Z M143.33,38.279 C143.33,38.279 145.86,39.965 147.08,40.807 L147.1,43.514 L143.44,41.107 L143.33,38.279 L143.33,38.279 Z M138.36,104.03 L138.24,41.201 C138.24,41.201 140.75,39.519 142,38.685 C142.79,41.176 142.78,46.517 142.49,48.896 C142,50.444 141.78,57.338 142.34,60.846 C142.78,63.642 142.7,68.267 142.28,70.479 C142.12,71.345 142.24,75.397 142.55,79.147 C142.79,82.013 142.72,84.618 142.38,86.109 C142.1,87.284 142.2,91.5 142.51,93.11 C142.96,95.49 143.04,103.12 142.83,103.54 C142.29,104.15 138.08,104.24 138.36,104.03 L138.36,104.03 Z M143.95,103.29 L143.98,99.89 L147.25,102.23 L147.21,103.35 L143.95,103.29 L143.95,103.29 Z M85.17,60.619 C84.32,60.225 84,60.231 84.16,59.304 C84.27,58.693 85.13,54.583 85.54,52.994 C86.77,48.236 85.62,45.6 82.14,44.536 C79.78,43.815 77.75,44.181 75.35,45.47 L74.92,44.125 C84.99,41.466 102.17,42.056 102.11,42.158 C102.45,43.526 102.58,44.895 102.71,46.263 C102.71,46.263 99.49,44.668 97.81,44.138 C95.22,43.337 91.13,44.215 90.41,45.714 C90,46.564 90.21,47.131 91.95,46.187 C94.8,44.64 100.61,45.818 102.66,47.458 C103.13,47.836 103.1,47.918 103.11,48.361 C103.13,49.037 103.17,49.076 102.23,48.573 C97.35,46.054 93.18,46.346 91.74,49.654 C91.41,49.553 90.14,49.333 90.14,49.333 L91.5,51.362 L91.76,53.487 C91.76,53.487 93.98,54.731 95.2,55.258 C96.41,55.773 95.71,55.225 94.24,54.186 C93.15,53.423 94.01,53.178 94.73,53.47 C96.2,53.812 98.36,54.245 100.85,52.646 C101.63,52.149 103.4,52.58 103.43,52.806 C103.43,52.806 103.67,54.663 103.9,58.539 C104.01,60.373 104.24,62.769 104.36,63.752 C104.75,66.723 104.86,66.892 103.31,65.467 C102.79,64.989 101.92,64.196 101.91,64.243 C101.72,65.165 104,66.783 104.53,67.338 C105.34,68.181 105.99,70.338 105.66,70.466 C105.46,70.547 103.29,68.689 101.58,67.019 C100.94,66.393 99.99,65.553 99.96,65.582 C99.61,65.819 101.04,67.453 102.39,68.676 C103.95,70.102 104.13,70.229 103.61,70.444 C102.63,70.841 101.76,70.347 99.4,68.375 C99.17,68.184 98.27,67.543 98.23,67.589 C98.01,67.879 100.19,69.962 100.69,70.142 C101.61,70.474 101.87,71.37 101.15,71.723 C100.66,71.957 98.86,70.959 97.41,69.694 C97.15,69.468 96.43,69.082 96.39,69.134 C96.1,69.32 97.72,70.731 99.26,71.669 C100.77,72.587 101.01,72.813 100.63,73.576 C100.27,74.362 96.95,72.543 95.29,70.669 C94.94,70.27 94.66,70.098 94.73,70.232 C95.46,72.253 97.83,73.7 99.6,74.276 C99.92,74.381 100.37,74.51 100.58,74.675 C101.08,75.078 100.97,75.498 100.43,75.735 C98.54,76.269 95.57,73.965 93.44,71.55 C93.2,71.447 93.34,71.764 93.41,71.868 C95.18,74.725 98.58,76.898 100.62,76.493 C101.82,76.256 102.78,76.619 102.79,77.024 C102.8,77.355 102.14,77.885 100.85,77.978 C97.94,78.187 93.4,74.974 90.74,70.882 C90.65,70.755 90.55,70.708 90.55,70.785 C90.48,71.652 92.13,73.779 93.4,74.996 C97.17,78.611 100.73,79.833 103.51,77.796 C105.07,76.57 106.59,73.892 104.25,72.996 C103.02,72.522 102.24,74.239 103.29,73.749 C104.68,73.581 105,74.324 104.82,75.023 C104.46,76.223 103.28,76.414 102.33,75.909 C100.66,74.998 101.01,71.875 103.17,71.329 C105.12,70.855 106.81,72.519 107.04,74.098 C107.38,76.549 104.64,79.202 102.44,79.862 C94.95,82.113 89.09,71.601 89.06,71.362 C88.68,70.632 88.23,70.245 87.95,71.097 C87.64,72.33 85.95,75.946 85.04,75.924 C85.32,74.648 86.51,72.504 86.22,70.626 C85.72,72.168 84.67,75.46 82.65,77.213 C82.13,77.693 80.59,78.26 81.65,77.022 C82.92,75.213 84.59,72.737 84.25,70.413 C83.91,70.936 83.72,72.258 83.34,73.131 C82.37,75.316 80.25,77.911 78.85,78.331 C77.82,78.641 77.92,78.289 78.97,77.166 C80.11,75.962 82.11,72.427 81.98,70.902 C81.92,70.229 79.9,76.725 76.1,78.503 C75.07,78.882 74.48,78.404 74.48,78.404 C75.98,77.535 80.11,73.427 79.72,68.758 C79.72,68.758 79.5,69.449 79.17,70.485 C77.77,74.941 74.77,77.871 72.42,78.114 C70.55,78.308 69.24,77.545 69.71,77.209 C72.13,77.227 74.13,76.38 75.69,73.992 C77.27,71.565 77.86,67.667 76.9,63.54 C76.03,59.818 75.84,56.472 75.54,52.894 C78.2,53.811 80.88,54.421 83.47,53.399 C83.21,54.466 82.77,54.598 82.09,55.402 C81.6,55.991 81.76,56.131 83.7,54.752 C84.26,54.351 84.46,54.029 84.57,54.137 C84.73,54.311 84.47,55.408 83.91,57.596 C83.07,60.867 83.29,61.102 86.4,62.335 C86.98,62.564 87.2,62.79 87.4,63.034 C87.5,63.149 88.01,64.078 88.06,64.11 C88.17,64.188 88.14,63.164 88.08,62.905 C87.91,62.218 87.54,61.702 87.22,61.498 C86.61,60.931 85.73,60.88 85.17,60.619 L85.17,60.619 Z M87.86,60.884 C88.26,60.484 88.38,60.473 89.16,60.769 C91.59,61.694 93.53,59.935 92.96,58.086 C92.75,57.416 91.84,56.689 91.28,56.631 C90.36,56.535 90.34,57.022 91.33,57.395 C92.54,57.852 92.67,59.15 91.6,59.735 C90.34,60.59 88.29,58.422 86.79,58.604 C86.07,58.822 85.61,59.501 86.02,60.331 C86.34,60.913 87.42,61.266 87.86,60.884 L87.86,60.884 Z M121.83,73.957 C122.68,69.927 118.82,67.241 118.74,67.367 C118.94,66.464 120.47,66.983 120.99,67.335 C122.94,68.657 124.07,72.115 122.87,74.08 C122.74,74.321 122.58,74.46 122.37,74.59 C121.96,74.846 121.73,75.051 121.64,74.872 C121.58,74.736 121.81,74.149 121.83,73.957 L121.83,73.957 Z M119.38,75.557 C119.38,75.268 119.57,74.354 119.61,73.908 C119.78,72.184 118.98,70.433 117.57,69.063 C116.38,67.914 116.27,67.796 117.4,67.776 C120.29,67.728 122.14,72.454 120.8,74.782 C120.46,75.151 119.41,75.907 119.38,75.557 L119.38,75.557 Z M116.7,77.203 C116.55,77.117 116.7,76.839 116.88,76.178 C117.53,73.706 117.12,71.776 115.54,69.958 C114.65,68.945 114.32,68.768 114.78,68.584 C115.76,68.194 117.93,69.781 118.52,71.342 C119.11,72.875 119.26,74.459 118.43,76.191 C117.86,76.563 116.96,77.309 116.7,77.203 L116.7,77.203 Z M107.9,73.833 C107.43,73.072 105.94,69.076 105.53,67.408 C104.46,59.325 104.26,49.729 103.12,42.204 L104.62,42.374 C104.62,42.374 105.19,44.554 105.8,50.439 C106.1,53.357 106.41,59.423 106.67,62.212 C107.04,66.355 108.9,72.98 110.05,74.653 C111.92,77.381 115.69,75.616 114.43,72.378 C113.78,70.697 111.25,70.97 111.6,72.713 C111.6,73.024 111.84,72.49 112.21,72.163 C113.3,71.745 114.53,72.894 113.89,74.277 C113.09,76.044 110.73,75.237 109.95,73.011 C109.01,70.352 112.16,68.357 114.52,69.979 C117.15,71.786 117.15,76.367 115.04,77.813 C111.48,79.123 109.06,76.506 107.9,73.833 L107.9,73.833 Z M26.04,22.153 L61.7,22.153 L73.72,43.885 C73.72,43.885 74.43,45.242 74.01,46.662 C73.55,48.213 73.15,48.9 72.74,49.691 C72.78,49.24 69.27,48.793 69.56,51.823 C69.76,53.874 72.33,55.034 74.25,53.438 C74.56,53.412 74.55,53.699 74.49,54.199 C74.31,55.375 73.07,59.104 72.23,59.351 C67.91,55.778 66.37,62.303 69.28,63.604 C70.96,64.356 73.55,63.734 74.77,61.69 C75.69,60.126 75.59,60.385 75.88,62.282 C75.99,62.988 76.14,63.807 76.22,64.174 C76.47,65.324 76.22,65.548 74.3,66.07 C72.76,66.677 71.2,67.012 69.6,67.359 C66.7,67.841 65.21,70.057 65.13,72.752 C65.12,73.335 65.14,73.604 65.02,73.778 C52.71,78.493 39.76,85.092 26.04,96.36 L26.04,22.153 L26.04,22.153 Z M63.35,21.663 L128.93,21.408 L116.81,42.353 C116.92,41.249 93.24,37.865 73.89,41.994 L63.35,21.663 L63.35,21.663 Z M24.19,230.56 L154.8,230.56 L154.8,20.036 L24.19,20.036 L24.19,230.56 Z" id="Fill-151" fill="#22244E"></path>
        <path d="M108.23,218.35 L108.65,219.23 C108.2,219.05 108.14,218.85 108.23,218.35 L108.23,218.35 Z M55.69,217.48 C56.1,218.16 55.75,218.6 55.04,218.62 C55.04,218.62 55.5,217.93 55.69,217.48 L55.69,217.48 Z M58.18,215.69 C59.5,215.71 60.93,216.72 61.39,217.51 C61.71,217.17 64.72,215.72 66.18,217.79 C62.36,217.5 62.31,221.59 65.13,221.99 C63.85,225.94 69.62,226.18 69.26,222.47 C73.57,223.11 73.04,217.59 68.98,218.17 C71.1,216.61 72.55,217.11 75.11,218.9 C75.97,217.77 79.48,216.72 80.34,218.69 C76.32,218.44 77,223.14 80.01,223.18 C79.11,226.44 85.02,227.63 84.11,222.77 C87.86,223.04 87.31,217.93 83.72,218.35 C83.99,217.42 87.63,217.02 89.24,218.79 C90.72,217.43 92.36,216.5 95.31,218.45 C91.29,217.77 91.23,223.04 94.97,222.72 C94.62,226.22 99.91,226.28 99.03,222.24 C103.05,221.15 100.84,216.8 97.88,218 C99.2,216.42 101.43,217.16 102.32,217.48 C105.05,214.32 107.44,216.97 107.44,216.97 C102.67,216.46 103.71,223.32 108.36,220.83 C108.35,222.24 108.95,223.46 110.85,223.66 L113.1,228.37 L49.23,228.8 L52.75,222.54 C53.11,222.65 55.14,222.84 55.58,220.43 C59.78,221.77 60.06,216.84 56.93,216.06 C57.3,215.8 57.73,215.69 58.18,215.69 L58.18,215.69 Z M61.33,212.34 C63.21,212.27 65.13,213.3 66.42,215.01 C66.83,215.55 67.5,217.15 67.5,217.15 C67.5,217.15 68.41,215.64 69.29,214.89 C70.63,213.74 72.38,212.79 74.89,212.88 C77.21,212.96 79.76,214.23 82.06,217.89 C82.65,215.78 90.26,208.6 96.53,217.55 C97.25,215.17 100.61,210.42 106.04,213.74 C106.42,214.54 106.8,215.42 106.8,215.42 C103.59,213.16 98.3,214.68 97.05,218.22 C96.94,218.65 97.08,218.87 97.25,219.29 C98.9,221.68 94.6,221.62 95.87,219.69 C96.11,219.25 96.13,218.89 95.75,218.31 C94.74,216.79 91.71,214.89 89.48,214.94 C86.9,214.99 84.05,216.72 83.1,218.28 C82.75,218.86 82.67,219.44 82.98,219.94 C83.2,220.45 83.13,220.88 82.75,221.19 C81.86,221.92 80.75,221.08 81.18,219.99 C81.46,219.52 81.41,218.93 80.84,218.12 C79.69,216.48 77,214.76 74.66,214.81 C71.3,214.89 67.92,217.32 68.13,219.33 C68.23,220.21 67.99,220.54 67.28,220.44 C66.41,220.31 66.31,219.49 66.92,218.82 C67.02,218.6 67.16,218.08 66.88,217.7 C63.34,212.87 58.05,214.27 56.83,215.35 C58.01,213.31 59.66,212.4 61.33,212.34 L61.33,212.34 Z M60.97,208.45 C61.19,208.63 81.85,212.55 103.26,208.52 L104.43,210.5 C85.69,214.85 58.57,210.69 59.64,210.29 L60.97,208.45 L60.97,208.45 Z M103.52,207.21 C87.22,210.73 71.59,209.48 60.38,207.39 L55.26,216.23 L54.9,216.21 L53.58,218.5 L53.73,218.76 C53.73,218.76 49.47,227.01 47.68,229.61 C68.62,229.4 114.6,229.3 114.6,229.3 L111.8,223.62 L111.95,223.46 L109.18,217.53 L108.28,216.5 C108.28,216.5 107.73,215.42 107.32,214.27 C106.94,213.21 105.32,210.31 105.32,210.31 L105.09,210.33 L103.52,207.21 L103.52,207.21 Z M56.91,172.21 L57.04,173.1 L56.33,173.37 L56.91,172.21 L56.91,172.21 Z M61.9,165.72 L62.01,170.58 L58.13,172.61 L58.02,170.31 L60.01,166.79 L61.9,165.72 L61.9,165.72 Z M108.04,168.56 C107.27,169.37 106.98,169.27 106.32,167.93 C105.63,166.54 104.6,165.89 103.11,165.92 C101.23,165.95 102.46,164.7 104.46,164.55 C107.9,164.4 109.66,166.74 108.04,168.56 L108.04,168.56 Z M66.88,162.31 L66.86,167.15 L62.96,169.9 L62.78,164.95 L66.88,162.31 L66.88,162.31 Z M87.58,162.29 L91.49,165.04 L91.62,170.28 L87.63,167.56 L87.58,162.29 L87.58,162.29 Z M82.76,159.09 L86.66,161.72 L86.82,166.96 L82.59,164.17 L82.76,159.09 L82.76,159.09 Z M71.8,159.04 L71.77,159.23 L71.86,159.27 L71.89,159.28 L72.02,163.69 L67.74,166.68 L67.76,161.7 L71.8,159.04 L71.8,159.04 Z M76.52,155.89 L76.6,160.78 L72.88,163.01 L72.67,158.42 L76.52,155.89 L76.52,155.89 Z M77.59,155.74 L81.74,158.5 L81.72,163.45 L77.49,160.58 L77.59,155.74 L77.59,155.74 Z M77.13,150.58 C77.13,150.58 89.03,158.45 89,158.27 L91.38,163.94 L77.41,154.57 L60.35,165.77 L62.91,160.16 L77.13,150.58 L77.13,150.58 Z M124.57,147.24 C125.17,148.86 126.25,150.1 127.39,151.35 C127.39,151.35 126.76,152.57 124.48,152.5 C123.24,152.46 123.17,152.66 122.75,153.51 C122.05,154.58 121.48,155.29 121.03,155.64 C120.24,156.26 118.74,155.33 117.51,153.45 C117.06,152.77 116.88,152.61 115.53,152.63 C113.45,152.68 112.7,152.1 113.78,151.16 C114.72,150 115.39,148.73 116.24,147.51 L117.17,147.62 C117.21,147.76 116.44,150.09 115.37,151.04 C114.82,151.67 115.58,151.89 116.92,151.61 C117.77,151.35 117.98,151.45 118.61,152.76 C119.92,155.25 120.6,155.13 122.15,152.6 C122.69,151.47 122.67,151.36 124.16,151.69 C125.75,151.85 126.24,151.65 125.58,151.08 C124.25,149.95 123.52,147.27 123.52,147.27 L124.57,147.24 L124.57,147.24 Z M77.07,145.71 C77.07,145.71 83.65,150.15 86.7,152.2 L88.38,157.08 L77.17,149.73 L63.46,158.73 L65.11,153.71 L77.07,145.71 L77.07,145.71 Z M95.7,144.56 C96.6,144.55 97.34,145.28 97.35,146.18 C97.36,147.09 96.64,147.84 95.74,147.85 C94.84,147.87 94.11,147.14 94.09,146.23 C94.08,145.32 94.8,144.57 95.7,144.56 L95.7,144.56 Z M120.19,143.02 C120.88,143.01 121.45,143.57 121.46,144.26 C121.47,144.96 120.91,145.54 120.22,145.55 C119.53,145.56 118.96,145 118.95,144.3 C118.94,143.6 119.5,143.03 120.19,143.02 L120.19,143.02 Z M28.6,141.18 C29.08,141.18 29.55,141.5 29.8,142.24 C30.14,143.28 30.79,143.58 32.49,143.55 C35.84,143.37 39.34,141.78 42.5,142.97 C44.04,143.54 44.58,145.83 43.3,146.42 C41.9,147.07 41.31,146.66 40.83,145.56 C40.38,145.09 39.82,145.16 36.83,145.68 C35.5,145.9 33.95,146.09 32.64,146.2 C29.3,146.47 27.46,145.41 27.04,143.4 C26.78,142.12 27.81,141.17 28.6,141.18 L28.6,141.18 Z M77.06,141.01 L85.05,146.46 C85.05,146.46 85.98,149.29 86.18,150.87 L76.98,144.87 L65.47,152.57 L66.8,147.81 L77.06,141.01 L77.06,141.01 Z M120.26,138.15 C120.95,138.14 121.51,138.7 121.52,139.4 C121.53,140.09 120.98,140.67 120.29,140.68 C119.6,140.69 119.03,140.13 119.02,139.44 C119.01,138.74 119.57,138.16 120.26,138.15 L120.26,138.15 Z M132.46,137.26 L132.23,138.34 C132.23,138.34 127.88,139 125.63,139.41 C125.43,139.45 125.5,146.39 125.5,146.39 L124.42,146.56 L124.3,138.46 L132.46,137.26 L132.46,137.26 Z M108.38,137.02 C111.1,137.61 113.82,138.21 116.54,138.45 L116.66,146.38 L115.41,146.04 L115.31,139.61 C113.18,139.42 111,139 108.8,138.54 L108.38,137.02 L108.38,137.02 Z M77.16,136.13 L83.92,140.64 L84.72,145.43 L76.84,140.14 C76.84,140.14 69.69,144.99 67.02,146.79 L67.83,142.29 L77.16,136.13 L77.16,136.13 Z M132.74,135.58 L132.57,136.74 C132.57,136.74 126.83,137.74 123.83,138.13 C123.78,140.11 123.79,146.75 123.79,146.75 L122.64,146.96 L122.63,136.92 C126.04,136.55 129.44,136.16 132.74,135.58 L132.74,135.58 Z M108.06,135.26 C111.38,135.95 114.71,136.67 117.89,137.02 L118.02,146.88 L117.09,146.83 L116.95,138.02 C113.88,137.79 110.98,137.13 108.26,136.42 L108.06,135.26 L108.06,135.26 Z M120.34,133.46 C121.03,133.45 121.61,134.01 121.62,134.71 C121.63,135.41 121.07,135.98 120.38,135.99 C119.69,136 119.12,135.44 119.11,134.75 C119.1,134.05 119.65,133.47 120.34,133.46 L120.34,133.46 Z M115.44,133.18 C116.13,133.17 116.7,133.72 116.71,134.42 C116.72,135.12 116.16,135.7 115.47,135.71 C114.78,135.72 114.21,135.16 114.2,134.46 C114.19,133.76 114.74,133.19 115.44,133.18 L115.44,133.18 Z M125.19,133.16 C125.89,133.15 126.45,133.71 126.46,134.41 C126.47,135.1 125.92,135.68 125.23,135.69 C124.54,135.7 123.97,135.14 123.96,134.44 C123.95,133.75 124.5,133.17 125.19,133.16 L125.19,133.16 Z M79.41,132.94 C79.41,132.94 83.1,135.21 83.29,135.79 C83.42,136.17 83.57,139.42 83.57,139.42 L77.17,135.38 L68.01,141.1 C68.16,139.84 68.82,136.61 68.82,136.61 L73.69,133.5 C73.71,133.69 77.06,135.92 79.41,132.94 L79.41,132.94 Z M93.59,136.45 C94.15,138.45 94.03,142.96 93.31,146.02 C93.09,146.94 92.96,150.2 92.96,150.2 C92.83,150.37 97.26,146.5 98.68,151.57 C99.17,153.32 97.18,154.97 95.85,154.49 C95.59,154.39 95.67,153.53 95.91,153.02 C96.65,151.5 94.55,150.71 93.35,152.06 C90.57,155.17 93.43,163.04 97.77,163.8 C101.38,164.44 104.28,160.81 101.87,158.65 C100.82,157.7 99.13,159.01 99.9,160.21 C100.73,161.49 99.21,162.01 98.06,160.82 C96.06,158.74 98.31,155.61 101.33,156.33 C106.16,157.44 105.17,165.07 100.1,165.5 C96.23,165.83 93.62,164.12 91.98,161.1 C90.44,158.2 90.33,155.89 91.03,150.8 C91.45,147.77 91.11,145.23 90.27,145.25 C89.82,145.25 89.46,145.48 89.39,146.02 C89.24,147.12 89.12,147.33 88.43,146.93 C87.56,146.42 87.07,144.77 88.5,143.66 C89.96,142.52 91.85,144.3 91.78,144.61 C91.81,144.55 91.96,144.26 92.16,142.97 C92.79,138.75 91.38,134.29 89.62,135.01 C89.24,135.17 89.28,135.34 89.79,135.63 C90.96,136.29 89.93,137.99 88.46,137.82 C86.38,137.57 85.91,134.65 87.74,133.36 C90.62,131.79 92.97,134.24 93.59,136.45 L93.59,136.45 Z M130.09,132.52 C130.78,132.51 131.35,133.07 131.36,133.77 C131.37,134.47 130.81,135.04 130.12,135.05 C129.43,135.06 128.87,134.5 128.86,133.81 C128.85,133.11 129.4,132.54 130.09,132.52 L130.09,132.52 Z M110.6,132.42 C111.29,132.41 111.86,132.97 111.87,133.67 C111.88,134.37 111.33,134.94 110.64,134.95 C109.94,134.96 109.38,134.4 109.37,133.7 C109.36,133 109.91,132.43 110.6,132.42 L110.6,132.42 Z M72.71,130.32 L73.12,132.84 L68.84,135.64 L69.04,131.81 L71.28,130.35 L72.71,130.32 L72.71,130.32 Z M109.44,129.23 C117.03,131.5 124.5,131.43 131.88,129.77 L132.38,131.2 C124.37,133.4 116.41,133.27 108.5,130.72 L109.44,129.23 L109.44,129.23 Z M69.2,128.94 C69.62,129.12 69.99,129.53 70.35,129.83 L69.21,130.61 L69.2,128.94 L69.2,128.94 Z M82.74,128.85 L83.06,134.7 C82.07,133.85 79.56,132.26 79.58,132.22 L79.59,130.06 C79.59,130.07 81.75,130.23 82.74,128.85 L82.74,128.85 Z M52.95,128.34 L54.71,128.68 C55.1,128.81 54.82,153.25 40.76,170.9 L40.63,166.81 C47.32,157.04 52.14,145.05 52.95,128.34 L52.95,128.34 Z M88.74,126.92 C90.02,126.9 91.07,127.93 91.09,129.22 C91.11,130.51 90.09,131.58 88.81,131.59 C87.53,131.61 86.47,130.58 86.45,129.29 C86.44,128 87.46,126.93 88.74,126.92 L88.74,126.92 Z M37.36,126.72 C37.36,126.72 37.49,127.15 37.61,127.97 C37.83,129.65 37.6,129.88 37.16,128.73 C36.64,127.39 36.61,128.43 37.19,131.51 C37.33,132.26 37.33,132.43 37.15,132.93 C37.03,133.25 36.83,133.98 36.67,134.56 C36.21,136.25 35.93,136.73 35.46,135.39 C35.21,134.7 35.01,134.59 35.18,134.06 C35.4,133.38 35.35,132.88 34.91,132.23 C34.84,132.12 34.68,131.88 34.65,131.18 C34.79,129.62 34.1,129.61 33.96,129.2 C33.99,128.59 33.7,127.11 34.12,127.15 C34.46,127.18 35.7,127.22 36.29,127 C36.55,126.9 37.36,126.72 37.36,126.72 L37.36,126.72 Z M95.02,126.2 C95.5,126.58 97.87,127.25 97.96,127.17 C97.88,128.32 98.58,130.55 101.05,131.29 C101.08,134.49 101.05,149.26 101.05,149.26 C97.61,143.43 95.47,135.9 95.02,126.2 L95.02,126.2 Z M43.56,130.2 C43.47,132.3 43.92,134.74 42.93,137.02 C41.42,140.52 36.59,142.12 34,141.81 C33.46,141.59 32.84,141.38 32.31,141.6 C31.98,141.74 31.59,141.72 31.25,141.56 C30.92,141.41 30.6,141.61 30.28,141.49 C29.9,141.24 29.29,140.66 29.36,140.23 C29.48,139.62 29.43,139.17 28.73,138.97 C27.75,138.69 27.55,138.16 27.84,136.6 C27.9,136.26 27.98,136.11 27.76,135.96 C27.04,135.47 26.77,134.57 27.24,133.62 C27.55,133.08 27.79,132.69 27.23,132.25 C27.01,131.75 27.05,131.56 27.52,130.93 C28.03,130.32 28.11,130.25 27.79,129.73 C27.07,128.57 27.89,127.71 28.86,127.23 C30.17,126.69 31.31,126.41 32.69,126.25 C33.2,126.28 33.18,126.73 33.49,127.17 C33.94,127.88 33.3,128.91 33.67,129.28 C34.21,129.53 34.45,130.03 34.41,130.45 C34.39,131.44 34.45,131.78 34.71,132.19 C35.01,132.65 35.12,133.49 34.84,134.07 C34.6,134.58 34.63,134.54 34.95,134.84 C35.26,135.14 35.42,136.63 35.31,136.6 L36.65,136.48 C36.51,136.63 37.15,133.69 38.68,131.42 C38.6,129.64 37.93,128 37.99,125.65 C41.3,124.45 43.69,127.29 43.56,130.2 L43.56,130.2 Z M141.23,125.09 C138.88,126.14 139.59,129.86 141.61,130.39 C142.46,130.63 143.5,130.27 143.08,129.86 C140.41,129.01 140.39,127.03 141.46,125.58 C141.64,125.34 141.41,125.01 141.23,125.09 L141.23,125.09 Z M142.33,124.15 C144.32,124.12 145.96,125.72 145.99,127.73 C146.01,129.74 144.42,131.4 142.43,131.43 C140.44,131.46 138.8,129.85 138.77,127.83 C138.74,125.82 140.33,124.18 142.33,124.15 L142.33,124.15 Z M124.9,123.12 C125.13,123.12 125.57,123.28 126.2,123.59 C129.3,125.12 130.83,127.13 129.5,128.1 C128.57,128.78 127.58,128.25 126.64,126.47 C126.33,125.86 125.75,124.96 125.37,124.47 C124.67,123.57 124.51,123.12 124.9,123.12 L124.9,123.12 Z M116.04,122.93 C116.65,122.76 116.22,123.3 115.62,124.18 C114.97,125.11 114.13,127.67 113.47,128.07 C111.98,128.8 110.3,127.42 111.2,126.22 C112.03,125.12 114.48,123.36 116.04,122.93 L116.04,122.93 Z M68.18,122.84 C70.12,151.57 55.53,173.68 54.49,174.28 L49.52,177.02 L40.81,172.23 C49.83,159.74 55.23,145.42 55.64,128.79 C63.99,129.61 68.29,122.87 68.18,122.84 L68.18,122.84 Z M120.32,122.48 C120.7,122.44 121.03,123.29 121.52,124.73 C122.2,126.66 122.17,128.17 121.44,128.81 C119.89,130.18 118.26,128.19 118.89,125.68 C119.39,123.67 119.88,122.53 120.32,122.48 L120.32,122.48 Z M118.76,123.58 C118.39,124.72 117.99,126.5 118,127.02 C118,127.22 117.88,127.64 117.73,127.95 C116.75,129.98 114.44,128.32 115.29,126.2 C116.06,124.29 118.01,122.3 118.78,122.23 C119.3,122.19 118.81,123.41 118.76,123.58 L118.76,123.58 Z M125.14,125.09 C126.11,127.09 126.19,128.33 125.39,128.78 C124.26,129.42 122.81,128.45 122.78,127.02 C122.77,126.55 122.28,124.88 121.84,123.8 C121.47,122.91 121.42,122.36 121.72,122.31 C122.9,122.5 124.65,124.15 125.14,125.09 L125.14,125.09 Z M48.81,122.03 C49.36,122.03 49.91,122.62 50.94,124.12 C51.4,124.79 52.14,125.74 52.6,126.24 C53.05,126.74 53.41,127.23 53.39,127.34 C53.21,128.39 47.88,125.05 47.5,123.64 C47.36,122.79 48.03,122.02 48.81,122.03 L48.81,122.03 Z M65.88,122.03 C67.59,123.04 65.62,125.37 61.79,127.29 C60.15,128.12 60.27,127.75 61.51,126.12 C61.99,125.5 62.62,124.48 62.93,123.86 C63.62,122.5 64.31,121.13 65.88,122.03 L65.88,122.03 Z M54.7,123.92 C54.87,124.73 55.18,125.86 55.37,126.43 C55.57,127 55.69,127.54 55.66,127.63 C55.51,128.07 54.38,127.47 53.57,126.53 C51.95,124.63 51.3,122.98 51.64,122.09 C52.13,121.38 53.39,121.06 53.97,121.68 C54.57,122.33 54.66,123.7 54.7,123.92 L54.7,123.92 Z M61.1,121.29 C61.44,121.28 61.77,121.41 62.04,121.72 C62.99,122.81 62.26,124.58 59.73,127.31 C59.11,127.97 58.79,128.22 58.57,128.23 C57.93,128.24 57.94,128.13 58.66,125.77 C58.97,124.73 59.29,123.58 59.35,123.23 C59.56,122.09 60.35,121.33 61.1,121.29 L61.1,121.29 Z M57.01,121.21 C58.78,121.17 58.96,124.11 57.4,127.38 C56.93,128.37 56.69,128.25 56.17,126.76 C54.9,123.09 55.18,121.25 57.01,121.21 L57.01,121.21 Z M103.67,120.46 C103.64,120.48 103.61,120.5 103.61,120.5 C103.63,120.51 103.65,120.5 103.67,120.46 L103.67,120.46 Z M35.15,119.83 C34.83,119.83 34.3,119.96 34.06,120.19 C33.43,120.77 34.06,120.79 34.89,120.94 C36.37,121.22 36.78,122.5 36.64,123.89 C36.52,125.15 36.94,125.13 37.28,124.66 C38.65,122.76 37.48,119.98 35.15,119.83 L35.15,119.83 Z M89.47,119.75 C90.77,119.73 91.85,120.79 91.87,122.1 C91.88,123.42 90.84,124.5 89.54,124.52 C88.23,124.54 87.16,123.49 87.14,122.17 C87.12,120.86 88.17,119.77 89.47,119.75 L89.47,119.75 Z M108.29,119.69 L108.25,120.98 L107.35,120.22 L108.29,119.69 L108.29,119.69 Z M35.08,119.32 C36.12,119.3 37.17,119.69 37.92,120.53 C39.32,122.11 38.64,125.04 36.67,125.98 C33.71,127.37 30.63,124.39 31.88,121.31 C32.4,120.04 33.75,119.34 35.08,119.32 L35.08,119.32 Z M68.71,119.4 L68.43,120.68 C61.33,118.84 53.39,118.74 45.8,120.77 L45.21,119.42 C52.88,117.07 61.02,116.99 68.71,119.4 L68.71,119.4 Z M94.39,115.63 L98,117.99 C98.06,118.73 97.96,119.79 98.2,120.16 C95.85,119.93 94.66,121.29 94.66,121.29 L94.39,115.63 L94.39,115.63 Z M47.21,115.27 C47.88,115.26 48.42,115.8 48.43,116.47 C48.44,117.14 47.91,117.69 47.25,117.7 C46.58,117.71 46.03,117.18 46.02,116.51 C46.01,115.83 46.55,115.28 47.21,115.27 L47.21,115.27 Z M66.7,115.05 C67.36,115.04 67.91,115.58 67.92,116.25 C67.93,116.92 67.4,117.47 66.73,117.47 C66.07,117.48 65.53,116.95 65.52,116.28 C65.51,115.61 66.04,115.06 66.7,115.05 L66.7,115.05 Z M141.68,114.83 C142.02,114.81 142.52,115.31 142.28,116.07 C141.95,116.94 142.18,117.24 142.72,117.94 C143.19,118.53 143.1,118.62 143.04,119 C142.93,121.5 144.52,120.42 143.83,122.23 C143.68,122.63 143.88,123.19 143.95,123.66 C143.79,123.23 140.86,123.27 140.61,123.7 C140.2,123.64 139.67,120.86 140.09,120.49 C140.14,120.49 140.45,120.97 140.61,121.24 C141,121.91 141.08,121.89 140.96,121.11 C140.47,118.01 140.77,114.85 141.68,114.83 L141.68,114.83 Z M52.21,114.64 C52.88,114.63 53.42,115.16 53.43,115.83 C53.44,116.5 52.91,117.06 52.25,117.07 C51.58,117.08 51.03,116.54 51.02,115.87 C51.01,115.2 51.55,114.65 52.21,114.64 L52.21,114.64 Z M61.84,114.4 C62.51,114.39 63.05,114.93 63.06,115.6 C63.07,116.27 62.54,116.82 61.88,116.83 C61.21,116.84 60.67,116.3 60.66,115.63 C60.65,114.96 61.18,114.41 61.84,114.4 L61.84,114.4 Z M57,114.27 C57.66,114.26 58.21,114.8 58.22,115.47 C58.23,116.14 57.7,116.69 57.03,116.7 C56.37,116.71 55.83,116.18 55.82,115.5 C55.81,114.83 56.33,114.28 57,114.27 L57,114.27 Z M108.71,114.23 L108.44,118.56 L106.68,119.89 L104.92,119.71 L104.5,117.03 L108.71,114.23 L108.71,114.23 Z M57.03,109.63 C57.69,109.62 58.24,110.16 58.25,110.83 C58.25,111.5 57.73,112.05 57.06,112.06 C56.4,112.07 55.85,111.54 55.84,110.87 C55.83,110.2 56.36,109.64 57.03,109.63 L57.03,109.63 Z M109.54,108.57 L108.93,113.06 L103.98,116.58 C101.66,114.72 99.86,115.34 98.23,117.33 C96.93,116.67 94.34,114.86 94.34,114.86 L93.68,109.76 L100.86,114.79 L109.54,108.57 L109.54,108.57 Z M147.44,107.9 C148.18,109.01 148.8,108.98 149.53,108.87 C149.34,108.92 148.48,109.44 148.53,109.61 C148.55,109.69 148.17,111.09 148.76,111.15 C150.98,111.36 149.85,113.69 150.12,114.05 C150.72,114.74 151.16,115.18 150.75,116.04 C150.38,116.8 149.86,116.78 150.26,117.43 C151.15,118.77 149.93,119.05 150.03,119.97 C150.11,120.52 150.3,121.27 150.1,121.7 C149.49,123 147.35,123.73 144.96,123.83 C144.62,123.85 144.88,123.29 144.72,122.93 C144.13,122.56 144.45,121.92 144.65,121.51 C144.85,120.96 144.85,120.96 144.48,120.68 C143.46,120.04 143.52,119.74 143.6,119.28 C143.82,117.92 143.61,117.79 143.2,117.58 C142.68,117.32 142.75,116.75 142.99,116.01 C143.15,115.5 143.03,115.37 142.79,114.91 C142.64,114.64 142.6,114.49 142.59,114.32 C142.67,113.61 142.04,113.61 141.17,114.3 C140.43,115.59 140.17,117.29 139.71,118.36 C139.35,119.18 139.29,120.04 139.72,121.94 C140.54,124.83 139.93,125.32 136.7,124.7 C134.27,124.1 133.55,121.48 134.23,118.27 C134.33,117.76 134.3,117.26 134.26,116.85 C133.99,114.64 134.56,112.53 136.08,111.08 C138.63,108.66 139.89,108.29 145.15,108.63 C147.21,108.78 147.36,108.91 147.36,108.91 C147.36,108.91 147.37,107.91 147.44,107.9 L147.44,107.9 Z M56.92,104.73 C57.59,104.72 58.14,105.26 58.15,105.93 C58.16,106.6 57.62,107.15 56.96,107.16 C56.29,107.17 55.75,106.64 55.74,105.97 C55.73,105.3 56.26,104.74 56.92,104.73 L56.92,104.73 Z M53.04,103.64 C53.04,103.64 53.04,108.72 52.96,111.45 C52.99,111.42 47.55,112.32 44.79,112.9 L45,111.88 C47.19,111.38 49.57,110.88 51.97,110.38 C51.93,108.38 51.93,103.99 51.93,103.99 L53.04,103.64 L53.04,103.64 Z M60.75,103.52 L61.8,103.84 C61.8,103.84 61.96,110.21 61.99,110.22 C64.27,110.72 69.04,111.63 69.04,111.63 L69.29,112.89 C67.29,112.41 60.92,111.36 60.92,111.36 C60.73,108.6 60.75,103.52 60.75,103.52 L60.75,103.52 Z M82.48,103.25 C83.31,103.24 83.99,103.91 84,104.74 C84.02,105.58 83.35,106.26 82.53,106.28 C81.7,106.29 81.02,105.63 81.01,104.79 C81,103.96 81.65,103.26 82.48,103.25 L82.48,103.25 Z M137.46,105.02 C137.46,105.02 138.67,105.13 141.27,104.67 C147.96,103.49 149.77,103.97 150.62,106.05 C151.56,109.28 148.05,109.35 147.43,107.31 C147.03,105.98 145.59,106.27 140.8,107.42 C136.69,108.4 134.09,107.61 134.14,105.27 C134.2,102.85 136.92,102.64 137.46,105.02 L137.46,105.02 Z M54.54,103.22 L54.79,112.98 C54.69,112.95 47.36,114 44.55,114.75 L44.71,113.41 C44.71,113.41 49.81,112.29 53.5,111.86 C53.5,109.13 53.48,106.26 53.48,103.48 L54.54,103.22 L54.54,103.22 Z M59.06,102.97 L60.22,103.38 L60.43,111.77 L69.35,113.26 L69.55,114.7 L59.23,113.02 C59.12,109.44 59.06,102.97 59.06,102.97 L59.06,102.97 Z M110.85,102.71 L109.81,107.36 L100.9,113.86 L93.55,108.79 L92.58,104.3 L100.72,109.78 L110.85,102.71 L110.85,102.71 Z M76.43,100.54 C76.43,100.54 79.46,106.48 80.55,110.34 C81.51,113.69 82.83,123.39 82.49,123.99 C81.74,122.96 79.29,123.19 79.25,123.2 C79.46,122.07 78.55,119.78 76.45,119.32 L76.43,100.54 L76.43,100.54 Z M112.5,96.8 L111.18,101.52 L100.72,108.92 L92.21,103.19 L91.08,98.75 L100.86,105 L112.5,96.8 L112.5,96.8 Z M56.87,94.04 C57.58,94.04 58.31,94.94 59.36,96.46 C60,97.56 60.01,97.41 61.46,97.35 C62.95,97.46 63.85,97.86 64.24,98.31 C64.39,98.48 64,98.52 63.06,99.49 C62.09,100.48 61.95,100.88 61.3,102 C61.07,102.4 60.56,102.44 60.32,102.07 C60.13,101.77 60.62,100.81 61.55,99.67 C62.85,98.4 62.58,98.27 60.68,98.47 C59.35,98.61 59.21,98.54 58.71,97.73 C57.2,94.7 56.4,94.81 54.95,97.82 C54.56,98.67 54.72,98.61 53.01,98.48 C51.67,98.37 51.33,98.72 52.09,99.43 C53.28,100.41 53.74,102.72 53.67,102.7 L52.76,102.78 C52.76,102.78 52.48,102.26 52.36,101.93 C52.11,101.27 51.44,100.27 50.72,99.48 C49.69,98.36 50.26,97.75 52.54,97.5 C53.82,97.36 53.85,97.34 54.43,96.48 C55.47,94.95 56.16,94.04 56.87,94.04 L56.87,94.04 Z M35.32,90.49 L35.31,118.16 C31.34,118.33 29.06,122.3 32.04,126.05 C32.04,126.05 31.52,126.12 30.91,126.21 C28.22,126.58 26.42,128.02 26.78,129.76 C26.89,130.29 26.78,130.83 26.62,131.1 C26.38,131.82 26.45,132.36 26.77,132.98 C27.02,133.47 26.98,133.66 26.84,134.02 C26.53,134.79 26.61,135.39 26.96,135.98 C27.41,136.42 27.28,136.77 27.22,137.47 C27.15,138.46 27.33,138.86 27.95,139.24 C28.74,139.74 29.04,140.55 28.13,140.49 C27.69,140.45 26.1,141.99 26.1,141.99 L25.95,97.59 L35.32,90.49 L35.32,90.49 Z M114.92,90.1 L112.98,95.56 L100.71,104.03 L90.59,97.62 L88.85,92.57 L100.77,100.36 L114.92,90.1 L114.92,90.1 Z M104.69,86.975 L104.7,91.74 L100.9,94.53 L100.9,89.458 L104.69,86.975 L104.69,86.975 Z M96.01,86.526 L99.95,89.195 L99.98,94.38 L96.07,92.04 L96.01,86.526 L96.01,86.526 Z M78.31,85.638 C82.21,85.59 85.21,89.772 86.24,93.44 C86.98,95.86 87.09,96.73 87.17,100.58 C87.25,104.5 87.38,105.17 88.1,105.73 C88.55,106.07 88.68,105.98 88.74,105.28 C88.87,103.74 90.69,104.69 90.72,106.32 C90.76,108.12 88.79,108.7 87.34,107.31 C86.56,106.58 86.55,106.58 86.31,108.03 C86.15,109 85.03,115.08 87.89,116.59 C88.43,116.64 88.56,116.2 88.16,115.69 C87.36,114.68 88.96,113.5 90.27,114.15 C91.85,114.93 91.69,117.5 90,118.42 C88.07,119.46 85.57,118.28 84.41,115.76 C83.55,113.91 83.55,111.34 84.42,107.54 C84.82,105.78 85,104.66 85.09,103.32 C85.12,102.88 85.17,102.39 85.2,102.25 C85.3,101.84 85.09,101.82 84.4,102.17 C82.51,103.13 80.45,102.45 79.94,100.69 C79.34,98.59 81.66,96.42 83.09,97.75 C83.63,98.25 83.57,98.75 82.92,99.08 C81.79,99.64 82.18,101.11 83.37,100.82 C87.32,99.63 83.71,88.447 79.27,87.674 C76.33,87.162 74.02,90.54 76.15,92.35 C76.98,93.06 77.83,92.68 77.64,91.68 C77.39,90.28 79.23,90.43 79.91,91.86 C81.01,94.19 78.16,96.08 75.49,94.79 C70.71,91.93 73.98,85.726 78.31,85.638 L78.31,85.638 Z M117.93,83.49 L115.41,88.902 L100.72,99.57 L88.53,91.6 L86.27,86.38 L100.49,95.75 L117.93,83.49 L117.93,83.49 Z M109.58,83.471 L109.89,88.172 L105.51,91.12 L105.35,86.445 L109.58,83.471 L109.58,83.471 Z M91.3,83.455 L95.31,86.032 L95.3,91.35 L91.37,88.929 L91.3,83.455 L91.3,83.455 Z M70.39,81.393 C70.93,81.399 71.36,81.794 71.46,82.544 C71.85,85.743 74.27,84.819 74.84,85.781 C75.06,86.108 74.54,86.394 72.89,86.26 C69.87,86.031 67.66,83.561 69.21,81.934 C69.6,81.564 70.02,81.389 70.39,81.393 L70.39,81.393 Z M114.31,80.134 L114.29,84.946 L110.67,87.662 L110.5,82.884 L114.31,80.134 L114.31,80.134 Z M85.91,79.913 L90.6,83.008 L90.4,88.184 L86.14,85.426 L85.74,84.367 L85.91,79.913 L85.91,79.913 Z M137.42,79.577 L137.44,82.86 C129.83,93.69 125.84,106.06 124.62,121.72 L122.77,121.66 C123.26,106.08 128.45,91.87 137.42,79.577 L137.42,79.577 Z M83.16,78.048 L85.14,79.431 L85.07,83.969 L82.08,78.488 L83.16,78.048 L83.16,78.048 Z M118.91,77.001 L118.98,81.574 L115.12,84.549 L114.9,79.778 L118.91,77.001 L118.91,77.001 Z M121.82,76.012 L121.79,76.649 L119.91,79.488 L119.86,76.649 L121.82,76.012 L121.82,76.012 Z M127.81,72.59 C127.81,72.59 137.31,78.199 137.24,78.356 C134.05,82.768 122.15,100.34 122.06,121.6 C113.33,120.49 109.76,127.38 109.33,127.35 C108.19,101.34 118.65,82.726 124.01,74.826 L127.81,72.59 L127.81,72.59 Z M127.81,71.972 L123.94,74.273 C123.94,74.273 121.37,78.463 120.5,80.041 C115.98,88.095 112.59,96.86 110.82,105.55 C110.11,108.73 109.35,114.55 109.1,117.34 C108.69,121.8 108.71,123.63 108.83,127.72 L109.13,128.06 C109.13,128.06 108.66,128.9 108.32,129.6 C107.39,131.53 107.17,132.62 107.22,134.85 C107.35,139.99 110.45,144.9 114.82,146.91 C115.06,147.02 115.39,147.17 115.39,147.17 C115.39,147.17 114.64,149.21 113.28,150.65 C112.37,151.61 112.18,151.66 112.5,152.13 C112.95,152.79 114.39,153.36 116.17,153.33 C116.81,153.32 116.8,153.32 117.97,154.6 C120.26,157.11 120.94,157.06 123.02,154.22 C123.64,153.37 123.99,153.17 124.89,153.15 C126.22,153.12 128.64,152.04 128.63,151.53 C127,150.8 125.1,147.03 125.4,146.99 C134.34,142.22 136.23,132.33 129.71,125.06 L135.94,124.96 L136.17,164.42 C137.39,163.6 140.15,161.84 140.15,161.84 L140.06,131.13 C140.49,131.22 140.92,131.53 141.76,131.66 L142,160.9 C142,160.9 150.01,155.2 153.82,152.23 L153.59,107.49 L152.67,107.49 L152.82,152.21 L142.24,160 L142.17,132.21 C142.17,132.21 143.01,132.09 143.32,132.04 C146.42,131.6 147.85,127.62 145.79,125.02 C145.06,124.09 145.58,124.16 147.13,123.86 C149.88,123.61 151.41,121.51 150.61,120.02 C150.27,119.38 150.71,119.44 151,118.83 C151.19,118.36 151.16,117.76 151.08,117.29 C150.97,116.67 151.22,116.4 151.37,116 C151.62,115.39 151.38,114.69 150.98,114.11 C150.55,113.49 150.67,112.84 150.66,112.43 C150.64,111.52 150.32,111.39 149.37,110.51 C148.64,109.85 149.22,109.71 150.28,109.15 C151.95,108.29 152.07,105.22 149.85,103.91 C148.66,103.21 146.5,103.27 141.82,104.02 C140.05,104.3 137.96,104.49 137.96,104.49 C137.96,104.49 137.95,86.995 137.83,77.978 L127.81,71.972 L127.81,71.972 Z M88.55,71.669 C90.75,76.055 94.04,79.162 97.24,80.404 C102.95,82.293 106.71,78.604 107.78,75.214 L108.88,77.097 L100.23,83.292 L87.19,74.921 C87.41,74.72 88.57,71.771 88.55,71.669 L88.55,71.669 Z M88.42,70.951 C86.74,77.528 82.65,78.198 77.71,78.998 C71.59,79.988 67.6,77.738 65.73,74.301 C65.73,74.301 56.98,77.638 53.79,79.577 C60.43,82.647 69.2,89.445 74.19,97.16 C75.96,99.52 75.88,98.99 75.87,104.15 C75.87,115.34 75.89,119.51 75.89,119.51 C78.63,119.92 78.78,121.82 78.63,123.96 C80.83,122.98 82.95,124.18 82.94,126.27 C82.92,130.12 79.17,129.08 78.39,128.65 C79.61,132.04 78.18,133.45 76.72,133.62 C74.92,133.82 72.86,132.95 73.46,129.06 C71.5,129.83 69.01,128.43 68.67,126.1 L68.57,122.14 C73.42,112.92 67.33,105.42 61.61,102.96 C61.61,102.96 63.23,99.58 65.32,98.63 C65.53,98.57 64.05,96.37 61.56,96.85 C60.41,96.88 60.68,96.87 59.6,95.45 C57.47,92.66 56.46,92.47 54.38,95.46 C53.47,96.77 53.25,96.81 52.17,96.83 C50.98,96.86 49.15,97.72 48.75,98.49 C48.67,98.67 49.13,98.85 49.75,99.58 C50.65,100.64 52.03,102.08 51.81,103.56 C47.1,105.49 39.28,113.98 47.5,124.85 L41.56,124.93 L41.27,86.232 L37.14,88.555 L37.32,118.87 L36.14,118.47 C36.24,108.8 36.09,99.14 35.79,89.478 L24.89,97.49 L25.38,142.94 L26.54,143.19 C27.4,149.38 39.55,145.05 40.26,145.59 L40.4,170.84 L39.87,172.09 L49.54,177.43 L58.41,172.79 C58.41,172.79 59.61,172.57 60.06,172.33 C63.74,170.37 66.48,170.81 68.48,173.68 C69.71,175.45 69.92,175.71 69.92,175.71 C70.67,170.61 75.16,168.72 79.51,170.06 C82.71,171.04 87.08,174.26 88.42,178.19 C88.42,178.19 88.66,178.78 88.9,179.05 L89.08,179.13 C89.07,179.03 88.87,178.54 88.8,178.3 C84.31,167.89 71.66,166.3 69.71,174.8 L67.92,172.26 L77.33,166.44 L90.2,174.98 C90.2,174.98 89.6,177.99 89.53,179.29 L89.75,179.39 C89.84,177.82 90.31,176.02 91.05,174.69 C91.35,174.14 91.7,173.7 92.1,173.36 C92.87,172.91 93.58,172.96 94.36,172.22 L92.48,170.8 L92.44,166.25 L96.22,171.59 C97.4,171.31 102.03,169.92 104.77,171.46 C105.08,171.56 109.11,170.4 111.61,176.07 L123.67,171.01 C123.67,171.01 124.44,170.57 124.45,170.46 C112.42,165.98 100.28,150.12 101.45,149.86 C101.45,149.86 101.41,148.23 101.5,144.24 C101.6,139.79 101.55,135.25 101.62,130.78 C97.53,129.46 98.55,126.13 98.55,126.13 C96.09,126.68 95.7,126.19 95.07,125.76 L94.65,121.54 C96.12,120.28 97.01,120.16 98.83,120.56 C98.83,120.56 97.95,118.73 98.75,117.22 C99.43,116.03 101.24,115.28 102.68,116.12 C104.54,117.4 103.94,120.08 103.68,120.46 C105.61,119.58 107.98,120.56 108.56,122.49 C108.85,116.78 109.34,110.38 110.48,105.4 C112.57,96.41 116,86.99 120.29,79.585 C121,78.348 121.89,77.108 122.62,75.95 C123.29,74.918 123.61,74.25 123.61,74.25 C123.61,74.25 122.69,74.761 121.72,75.034 C120.32,75.417 119.27,75.781 119.11,75.942 C118.09,76.811 116.75,77.455 115.65,77.936 C111.79,79.453 109.19,77.189 107.58,73.733 C106.69,78.123 102.71,81.837 96.83,79.529 C93.51,77.75 92.46,76.613 89.36,71.972 C89.1,71.497 88.42,70.951 88.42,70.951 L88.42,70.951 Z M117.98,39.655 C117.98,39.655 117.04,41.761 116.73,41.938 C99.23,37.414 74.82,41.348 74.21,41.783 L73.14,39.74 C88.48,36.646 103.78,37.308 117.98,39.655 L117.98,39.655 Z M122.98,31.385 C122.99,31.409 122.07,33.046 122.07,33.046 C121.58,32.26 121.71,31.281 122.98,31.385 L122.98,31.385 Z M68.12,30.585 C69.6,30.67 69.19,31.952 68.89,32.049 L68.12,30.585 L68.12,30.585 Z M95.46,28.052 C95.63,28.044 95.81,28.08 95.99,28.171 C96.54,28.453 96.64,28.946 96.31,29.674 C96.19,29.93 96.02,30.223 96.05,30.492 C99.92,37.696 108.45,34.477 109.25,31.13 C109.31,30.918 109.21,30.686 109.1,30.458 C108.77,29.907 108.81,29.456 109.24,29.079 C110.15,28.274 111.45,29.224 110.92,30.308 C110.78,30.593 110.64,30.906 110.74,31.288 C112.93,36.309 117.3,36.687 120.96,34.699 C119.27,37.746 112.73,39.615 109.99,32.277 C105.61,38.255 98.66,38.143 95.5,31.393 C92.66,38.297 84.1,38.46 80.99,32.726 C78.15,39.285 71.57,37.797 69.71,33.691 C75.82,38.154 79.84,33.495 80.57,31.509 C80.57,31.509 80.43,31.276 80.23,31.084 C79.45,30.309 79.47,29.397 80.28,29.036 C81.32,28.573 82.29,29.579 81.76,30.566 C81.61,30.843 81.48,30.903 81.57,31.142 C83.48,35.615 92.84,36.915 94.74,30.64 C94.8,30.281 94.77,29.949 94.61,29.678 C94.16,28.928 94.73,28.082 95.46,28.052 L95.46,28.052 Z M128.22,21.871 C128.22,21.871 126.23,25.728 125.21,27.286 C124.38,26.627 121.97,27.074 122.12,29.631 C118.2,28.134 117.26,32.85 120.28,33.911 C118.73,35.281 117.24,33.731 116.07,32.682 C114.91,32.97 112.52,33.824 111.17,31.309 C111.17,31.309 111.73,31.617 112.3,31.953 C115.5,32.936 115.76,28.572 113.38,27.858 C113.08,27.778 112.51,27.746 112.51,27.746 C113.31,24.391 108.17,23.22 108.07,27.252 C108.07,27.252 107.46,27.151 107,27.236 C104.27,27.738 104.89,31.796 107.68,31.602 C108.07,31.574 108.41,31.644 108.41,31.644 C108.36,32.294 104.99,33.535 102.56,31.3 C101.41,32.186 99.59,33.296 97.21,31.088 C98.77,31.023 100.27,30.574 100.25,28.785 C100.24,27.62 99.21,26.581 97.71,26.525 C97.62,25.225 96.66,23.982 95.42,23.887 C93.89,23.977 93.12,25.217 93.11,26.525 C91.81,26.66 90.6,27.812 90.88,29.133 C91.26,30.935 92.63,31.156 94.2,30.813 C92.29,33.912 89.18,32.296 88.23,31.308 C87.08,32.383 85.09,33.838 82.64,31.849 C83.95,31.623 85.4,30.85 85.16,29.009 C84.96,27.56 83.35,27.129 82.65,27.205 C82.65,26.247 81.93,24.666 80.24,24.83 C78.39,25.008 78.5,27.364 78.52,27.383 C77,27.256 75.89,29.066 76.33,30.223 C76.86,31.629 77.96,32.065 80,31.687 C77.63,33.937 76.12,33.063 74.82,32.59 C73.67,33.804 72.14,34.195 70.57,33.119 C74.08,33.288 73.52,27.018 69.36,29.291 C66.39,25.771 66.44,27.335 63.79,22.156 L128.22,21.871 L128.22,21.871 Z M62.47,20.947 C64.37,24.23 65.86,27.623 67.56,30.981 L67.84,31.158 L68.25,31.935 L68.29,32.313 L69.3,33.943 L69.29,34.294 L73.58,42.34 C77.12,41.008 106.15,38.61 116.9,42.533 L118.47,39.854 L118.84,39.852 L121.6,34.963 L121.56,34.551 L122.49,33.481 L122.62,32.995 L125.67,28.182 L125.68,27.406 L129.49,20.994 L62.47,20.947 L62.47,20.947 Z" id="Fill-152" fill="#0A0A08"></path>
        <path d="M130.73,223.55 C138.55,223.38 142.05,214.58 136.26,207.74 C135.42,206.74 135.34,206.17 136.87,207.13 C140.77,209.74 148.25,208.02 148.63,200.05 C149.11,190.23 135.38,187.4 132.8,197.84 C132.67,198.95 131.77,198.92 131.99,197.36 C132.22,193.11 133.55,189.14 135.37,185.27 L126.08,185.27 C127.9,189.14 129.22,193.11 129.46,197.36 C129.68,198.92 128.78,198.95 128.64,197.84 C126.07,187.4 112.34,190.23 112.82,200.05 C113.2,208.02 120.68,209.74 124.58,207.13 C126.11,206.17 126.03,206.74 125.19,207.74 C119.4,214.58 122.9,223.38 130.72,223.55 L130.73,223.55" id="Fill-153" fill="#0A0A08"></path>
        <path d="M48.27,27.045 C56.09,27.215 59.6,36.019 53.81,42.855 C52.97,43.853 52.88,44.425 54.42,43.467 C58.32,40.859 65.79,42.573 66.18,50.545 C66.65,60.366 52.93,63.196 50.35,52.752 C50.21,51.65 49.32,51.676 49.53,53.24 C49.77,57.485 51.09,61.453 52.92,65.322 L43.62,65.322 C45.44,61.453 46.77,57.485 47,53.24 C47.22,51.676 46.32,51.65 46.19,52.752 C43.61,63.196 29.89,60.366 30.36,50.545 C30.74,42.573 38.22,40.859 42.12,43.467 C43.66,44.425 43.57,43.853 42.73,42.855 C36.94,36.019 40.45,27.215 48.26,27.045 L48.27,27.045" id="Fill-154" fill="#0A0A08"></path>
    </g>
</svg>