<?xml version="1.0" encoding="UTF-8" standalone="no"?>
<svg width="179px" height="249px" viewBox="0 0 179 249" version="1.1" xmlns="http://www.w3.org/2000/svg" xmlns:xlink="http://www.w3.org/1999/xlink">
    <!-- Generator: Sketch 39.1 (31720) - http://www.bohemiancoding.com/sketch -->
    <title>KD</title>
    <desc>Created with Sketch.</desc>
    <defs></defs>
    <g id="Page-1" stroke="none" stroke-width="1" fill="none" fill-rule="evenodd">
        <path d="M9.11,0.32 L169.88,0.32 C174.58,0.32 178.39,4.13 178.39,8.82 L178.39,240.47 C178.39,245.16 174.58,248.97 169.88,248.97 L9.11,248.97 C4.41,248.97 0.6,245.16 0.6,240.47 L0.6,8.82 C0.6,4.13 4.41,0.32 9.11,0.32" id="Fill-602" fill="#FFFFFF"></path>
        <path d="M65.25,199.5 C66.96,199.48 68.67,199.62 70.51,199.93 C74.09,200.54 78.24,201.66 81.75,203.3 C87.72,205.55 95.23,207.29 101.6,207.06 C103.15,207.1 105.96,206.97 106.51,206.79 C107.93,206.47 108.32,206.77 108.66,208.54 C108.72,208.93 108.83,209.04 109.33,209.38 C110.08,209.89 109.96,210.4 109.87,211.54 C109.79,212.49 110.36,213.03 112.66,217.3 C115.28,222.17 117.83,227.82 117.83,227.82 C94.89,227.8 73.01,226.94 49.54,227.68 C51.65,222.64 57.4,213.55 61.01,206.26 C60.14,204.01 61.22,203.63 60.76,203.1 C60.03,201.85 60.56,200.1 62.1,199.71 C63.18,199.58 64.21,199.51 65.25,199.5 L65.25,199.5 Z M90.99,197.81 C90.86,197.81 90.87,197.94 90.95,198.19 C91.36,199.42 95.49,202.28 98.75,203.23 C101.55,204.05 105.57,203.25 105.33,201.91 C105.21,201.21 104.7,201.04 102.92,201.27 C98.99,202.04 95.2,200.42 92.33,198.62 C91.56,198.13 91.16,197.82 90.99,197.81 L90.99,197.81 Z M91.84,195.79 C91.69,195.79 91.63,195.9 91.82,196.1 C94.73,198.22 98.75,200.69 102.45,199.73 C102.79,199.66 103.06,199.47 103,199.12 C102.96,198.9 102.58,198.71 102.17,198.82 C101.32,199.04 99.7,199.07 99.03,198.96 C96.48,198.54 94.23,196.91 92.28,195.95 C92.13,195.83 91.96,195.78 91.84,195.79 L91.84,195.79 Z M39.15,195.14 C39.29,195.14 39.43,195.17 39.58,195.23 C41.58,197.95 41.45,202.09 39.89,204.38 C39.78,204.55 39.66,204.58 39.46,204.51 C38.8,204.11 37.95,203.96 37.31,203.73 L37.31,195.78 C37.97,195.64 38.53,195.14 39.15,195.14 L39.15,195.14 Z M98.34,194.45 C98.61,194.43 98.62,194.54 98.51,194.79 C98.32,195.2 97.99,195.59 97.74,195.91 C97.21,196.25 96.35,195.2 96.73,194.93 C97.26,194.72 97.66,194.5 98.21,194.47 C98.26,194.46 98.3,194.45 98.34,194.45 L98.34,194.45 Z M100.02,194.13 C100.1,194.14 100.17,194.18 100.19,194.27 C100.2,194.72 99.89,195.66 99.63,196.15 C99.55,196.37 99.41,196.39 99.22,196.43 C98.56,196.55 98.51,196.35 98.63,195.94 C98.87,195.3 99.07,194.4 99.92,194.14 C99.96,194.13 99.99,194.13 100.02,194.13 L100.02,194.13 Z M99.11,190.38 C98.72,190.38 98.85,190.75 99.76,191.39 C101.94,192.88 102.13,193.15 100.02,193.12 C99.48,193.09 98.64,193.47 98.17,193.63 C95.41,194.55 95.28,194.48 93.96,194.17 C93.52,194.07 93.08,193.88 92.89,194.06 C92.59,194.33 92.25,194.51 92.63,194.92 C92.9,195.22 93.41,195.44 94.03,195.8 C97.23,197.64 97.52,198.09 101.28,198.19 C101.71,198.2 101.93,197.97 102.18,197.97 C102.8,197.96 103.12,198.11 103.74,198.68 C104.88,199.73 104.93,198.97 104.25,197.6 C103.9,196.88 103.59,196.71 103.76,196.16 C104.16,194.92 103.6,194.67 102.86,195.77 C102.3,196.64 102.24,196.62 101.71,195.51 C101.02,194.12 101.34,193.48 102.4,194.38 C103.2,195.07 103.4,194.56 103.71,194.02 C104.12,193.3 104.06,192.66 103.33,192.72 C102.91,192.75 102.52,192.55 102.19,192.19 C101.54,191.48 100.3,190.59 99.11,190.38 L99.11,190.38 Z M45.42,186.86 C53.69,196.51 51.04,206.59 45.46,212.49 C43.93,207.94 40.18,205.1 40.18,205.1 C41.6,201.95 42.44,198.65 39.79,194.49 C42.25,192.25 44.29,189.79 45.42,186.86 L45.42,186.86 Z M103.83,185.09 C103.74,185.09 103.66,185.1 103.6,185.12 C101.22,185.78 100.73,188.14 102.27,189.11 C103.21,189.71 103.94,189.34 102.76,188.62 C101.76,188 102.25,186.38 103.47,186.4 C104.01,186.41 104.37,186.64 105.72,187.64 C106.84,188.47 107.89,188.54 108.13,187.42 C108.27,186.75 108.05,186.45 107.34,186.63 C107.02,186.7 106.84,186.52 106.41,186.22 C105.47,185.56 104.43,185.07 103.83,185.09 L103.83,185.09 Z M46.37,184.85 C55.54,193.86 54.18,207.99 46.35,215.07 C46.19,214.5 45.85,213.1 45.81,213.14 C51.7,206.96 54.47,196.85 45.95,186.48 C45.99,186.52 46.14,185.73 46.37,184.85 L46.37,184.85 Z M97.17,180.8 C93.62,181 93.97,185.36 96.16,186.1 C96.95,186.31 97.41,186.13 97.54,185.95 C97.68,185.76 97.52,185.46 97,185.38 C95.51,184.89 94.98,183.12 96.33,182.38 C97.06,181.99 98.24,182.24 99.65,183.3 C102.19,185.18 105.29,185.3 104.88,183.39 C104.79,182.93 104.59,182.87 102.73,182.61 C101.23,182.41 100.55,181.93 99.89,181.57 C98.86,181.01 97.94,180.78 97.17,180.8 L97.17,180.8 Z M71.11,172.12 C70.14,173.41 69.51,175.36 69.48,176.75 C69.45,178.79 70.18,180.77 70.78,182.89 C72.3,188.13 75.84,197.79 75.71,199.61 C75.75,199.8 75.84,200.4 75.84,200.4 L74.48,199.99 C74.48,199.99 74.42,199.91 74.32,199.66 C73.86,197.86 71.69,190.16 69.26,183.5 C68.33,180.82 67.87,178.74 67.93,176.96 C68.13,174.52 68.83,173.49 69.89,172.13 L71.11,172.12 L71.11,172.12 Z M84.68,172.06 C86.45,172 88.05,173.51 88.43,174.93 C88.8,176.44 88.33,178.14 86.68,178.98 C84,180.35 81.12,176.72 83.23,174.72 C84.83,173.21 87.2,174.33 86.68,176.27 C86.35,177.53 84.45,177.61 84.14,176.33 C84.05,175.91 83.84,175.49 83.69,175.72 C82.71,178.05 86.01,179.14 87.39,176.97 C88.2,175.24 86.65,173 84.37,173.43 C81.24,174.01 80.88,178.01 82.18,182.67 C83.99,190.04 88.31,199.96 88.31,204.51 C88.31,204.57 88.32,204.75 88.32,204.75 L86.95,204.34 C86.95,204.34 86.94,204.26 86.93,204.2 C86.11,197.84 81.42,187.32 80.07,179.23 C79.49,175.54 80.92,172.87 84.13,172.13 C84.31,172.09 84.5,172.07 84.68,172.06 L84.68,172.06 Z M67.4,172.01 L68.78,172.04 C67.78,173.31 67.19,175.28 67.14,177.03 C67.09,179.1 67.64,181.11 68.31,183.24 C69.7,187.61 71.68,192.35 73.04,198.25 C73.12,198.64 73.19,198.89 73.22,199.06 C73.28,199.33 73.43,199.76 73.43,199.76 L71.97,199.46 C71.97,199.46 71.82,199.08 71.72,198.88 C71.57,198.58 71.44,198.19 71.32,197.73 C70.61,194.66 68.01,187.68 66.42,182.79 C65.17,179.71 64.82,174.32 67.4,172.01 L67.4,172.01 Z M80.77,172 L82.07,172.03 C82.07,172.03 81.68,172.24 80.75,173.23 C75.62,177.95 83.95,191.27 85.86,203.4 C85.88,203.53 85.95,203.99 85.95,203.99 L84.51,203.47 C84.38,202.87 84.28,202.13 84.11,201.47 C82.56,195.27 80.48,188.89 78.58,183.11 C77.51,178.9 77.12,175.19 79.04,173.11 C79.64,172.39 80.77,172 80.77,172 L80.77,172 Z M73.67,171.99 C73.67,171.99 72.1,174.73 71.96,176.25 C71.67,179.24 72.62,181.71 73.69,185.08 C75.55,190.9 78.17,197.72 78.41,200.84 C78.41,200.94 78.45,201.32 78.45,201.32 L76.84,200.74 C76.84,200.74 76.77,200.42 76.73,200.3 C75.33,194.66 73.66,189.04 71.43,182.71 C70.88,180.57 70.15,178.42 70.22,176.58 C70.54,174.13 70.96,173.47 72.41,172.01 L73.67,171.99 L73.67,171.99 Z M60.36,171.99 L61.36,172.02 C61.36,172.02 61.21,172.29 60.83,172.95 C59.02,176.25 59.83,179.27 60.95,182.63 C62.45,187.11 64.8,192.59 66.27,197.77 C66.35,198.06 66.46,198.94 66.46,198.94 L65.03,198.92 C65.03,198.92 64.74,197.87 64.72,197.75 C63.91,192.95 59.55,184.94 58.42,178.85 C57.8,175.58 58.33,173.56 60.36,171.99 L60.36,171.99 Z M62.83,171.99 L63.75,171.99 C63.75,171.99 62.21,174.54 62.21,176.03 C61.96,178.71 62.92,181.68 64.03,184.78 C65.73,189.55 67.98,195.33 68.67,198.36 C68.69,198.48 68.79,199.03 68.79,199.03 L67.18,198.94 C67.18,198.94 67.09,198.21 67,197.87 C65.14,191.34 63.34,187.11 61.21,181.15 C60.88,180.25 60.37,176.68 60.98,174.37 C61.45,172.55 62.83,171.99 62.83,171.99 L62.83,171.99 Z M77.85,171.95 L79.08,171.95 C79.08,171.95 78.4,172.67 78.21,172.94 C76.06,175.94 76.68,179.17 77.75,183.01 C79.21,188.29 81.93,194.2 83.35,202.26 C83.38,202.41 83.35,203.18 83.35,203.18 L81.89,202.59 C80.56,195.2 77.27,187.54 75.69,180.9 C74.76,177 75.03,174.54 77.17,172.41 C77.71,171.99 77.85,171.95 77.85,171.95 L77.85,171.95 Z M76.27,171.95 C75.29,173.47 74.4,175.39 74.33,176.89 C74.28,179.68 75.08,182.03 75.89,184.5 C78.37,192.09 79.58,196.09 80.82,202.18 L79.5,201.61 C79.5,201.61 79.45,201.27 79.42,201.17 C78.71,197.36 78.67,197.69 74.53,184.87 C73.56,181.79 72.63,179.1 72.82,176.54 C72.86,175.08 74.12,172.19 75.45,171.96 L76.27,171.95 L76.27,171.95 Z M65.09,171.94 C65.1,171.93 65.11,171.94 65.11,171.94 L66.04,171.95 C66,171.97 64.66,174.87 64.56,176.64 C64.45,178.63 64.93,180.81 65.59,182.96 C67.14,187.6 69.41,192.78 70.68,198.64 C70.69,198.71 70.83,199.28 70.83,199.28 L69.46,199.09 C69.46,199.09 69.33,198.49 69.31,198.41 C68.37,193.25 65.73,187.89 64.16,182.82 C63.35,180.51 62.79,177.67 63.08,175.5 C63.28,173.97 64.81,171.97 65.09,171.94 L65.09,171.94 Z M58.06,171.91 L59.02,171.94 C57.27,174.29 57.03,176.32 57.65,179.26 C58.35,182.56 63.67,194.99 64.01,198.41 C64.03,198.57 64.05,199 64.05,199 L62.74,199.09 C62.74,199.09 62.64,198.74 62.6,198.6 C60.77,192.41 58.95,187.68 57.68,184.07 C56.41,180.17 54.47,174.4 58.06,171.91 L58.06,171.91 Z M114.54,170 C115.27,170 115.87,170.6 115.87,171.34 C115.87,172.08 115.27,172.69 114.54,172.69 C113.8,172.69 113.2,172.08 113.2,171.34 C113.2,170.6 113.8,170 114.54,170 L114.54,170 Z M134.79,167.08 C135.36,167.07 136.06,168.76 135.66,169.15 C135.43,169.38 134.7,169.46 134.43,169.29 C134.1,169.04 134.27,167.08 134.79,167.08 L134.79,167.08 Z M116.99,167.01 C117.68,167.06 118.6,167.17 119.23,167.51 C118.81,167.76 118.5,168.07 118.22,168.38 C117.88,167.77 117.41,167.43 116.99,167.01 L116.99,167.01 Z M37.13,165.85 L43.51,172.28 L56.35,172.11 C54.24,175.42 55.37,180.56 56.53,183.56 C58.82,189.45 62.17,199.16 61.93,199.3 C61.93,199.3 60.06,199.79 59.89,200.98 C59.64,202.75 60.4,202.62 59.31,204.21 C59.06,204.57 59.22,205.25 59.48,205.79 C59.66,206.18 59.82,206.78 59.5,207.24 L48.17,227.56 L26.47,227.56 L26.47,223.62 L37.44,212.65 L37.31,204.57 C43.18,206.33 45.19,212.43 45.7,216.95 C56.3,207.21 56.04,192.53 46.02,183.33 C44.06,193.06 37.07,195.08 37.22,194.89 L37.13,165.85 L37.13,165.85 Z M106.46,165.03 C107.45,165.03 106.88,165.32 104.72,166.83 C102.61,168.3 99.14,172.95 98.74,174.67 C98.56,175.46 99.05,175.52 99.61,174.44 C102.16,169.5 107,164.97 111.43,165.18 C113.59,165.27 114.77,165.86 112.97,166.12 C108.05,166.73 104.37,169.56 101.15,175.19 C101.15,175.31 101.44,175.31 101.78,175.09 C104.73,171.46 108.05,166.66 113.88,167.05 C118.09,167.3 119.28,172.34 115.79,174.06 C112.75,175.56 109.94,171.91 112.46,169.74 C113.28,169.04 113.79,169.35 113.01,170.07 C111.32,171.61 113.39,174.36 115.44,173.31 C116.7,172.79 117.2,170.98 116.1,169.62 C113.64,166.59 108.36,168.89 104.67,173.79 C104.29,174.3 103.95,175.42 104.28,175.3 C104.85,175.07 105.2,174.61 105.53,174.11 C106.85,172.27 107.86,171.35 109.64,170.36 C111.01,169.6 111.1,169.74 110.59,171.06 C110.37,171.62 110.2,171.81 109.66,172.15 C107.42,173.7 106.02,175.76 105.97,177.08 C105.93,178.04 106.63,179.3 105.87,179.55 C104.58,180.17 101.08,179.67 100.13,178.45 C99.45,177.58 99.19,178.08 99.7,179.5 C100.04,180.44 100.02,180.97 100.53,180.88 C101.18,180.54 101.62,180.62 102.87,181.3 C103.47,181.63 104.54,181.94 105.19,182.09 C106.37,182.37 106.62,182.25 106.59,182.77 C106.59,182.93 106.64,183.38 106.6,183.66 C106.41,185.21 107.7,185.74 109.46,186.76 C110.49,187.36 110.08,187.98 108.89,190.94 C108.28,192.28 107.75,194.08 106.98,195.44 C106.27,196.97 106.21,198.64 106.67,200.55 C107.52,204.09 108.14,205.88 106.62,206.2 C102.7,206.8 94.06,206.78 89.34,204.95 C88.13,195.83 81.73,182.29 82.55,178.79 C84.19,181.28 91.06,180.62 88.99,173.67 C88.99,173.67 89.55,172.83 90.67,171.69 C93.55,168.74 94.26,168.26 92.89,170.85 C91.84,172.84 90.5,175.44 90.47,175.94 C90.45,176.35 90.76,176.44 91,176.12 C91.18,175.88 91.39,175.3 91.58,174.86 C93.29,170.82 96.23,167.17 98.25,166.29 C98.77,166.06 98.75,166.3 98.39,166.75 C96.01,169.73 94.19,172.49 92.9,176.09 C92.84,176.46 93.36,176.61 93.53,176.26 C95.76,171.55 96.43,170.48 99.17,167.16 C100.25,165.86 101.26,165.2 102.06,165.27 C102.75,165.33 102.54,165.44 101.9,166.13 C101.41,166.66 100.69,167.39 99.52,168.88 C97.45,171.49 95.38,175.75 96.14,175.53 C96.27,175.88 96.92,174.75 97.47,173.67 C98.98,171.12 100.59,167.75 104.17,165.53 C104.92,165.22 105.74,165.04 106.46,165.03 L106.46,165.03 Z M144.84,159.69 C144.82,159.69 144.78,159.69 144.75,159.71 C143.57,160.6 142.48,161.61 141.2,162.38 C140.72,162.67 140.16,163.41 140.15,163.6 C140.15,163.8 140.73,163.79 141.29,163.55 C141.82,163.31 144.85,160.45 144.85,160.18 C145.06,159.95 145.04,159.67 144.84,159.69 L144.84,159.69 Z M112.97,159.28 L117.15,160.96 L116.37,165.36 L112.23,163.76 L112.97,159.28 L112.97,159.28 Z M145.13,153.85 C147.22,156.29 148.73,160.36 149.51,163.01 C149.89,164.33 149.94,165.83 149.59,166.04 C149.26,166.25 149.1,166.03 149.16,165.24 C149.21,164.58 149.23,164.08 148.96,164.08 C148.14,164.29 148.11,163.06 148.2,162.77 C148.25,162.57 148.35,162.44 148.39,162.33 C148.59,161.85 148.07,161.92 147.53,161.91 C147.05,161.92 146.93,161.63 146.95,161.17 C146.94,160.67 146.27,160.76 145.89,161.15 C145.55,161.5 145.62,161.91 146.09,162.2 C146.76,162.62 147.4,163.64 148.97,167.16 C149.88,169.2 149.61,170.66 148.53,170.64 C147.77,170.62 146.89,168.54 146.19,167.01 C146,166.61 146.46,166.17 146.62,165.96 C147.04,165.41 146.98,165.23 146.36,165.23 C145.78,165.22 145.53,165.27 145.18,164.55 C145.05,164.28 144.96,163.87 145,163.6 C145.3,162.81 144.69,162.62 144.1,162.92 C143.35,163.24 143.35,163.91 144.49,165.01 C145.23,166.23 145.04,166.14 144.34,166.96 C144.2,167.25 144.28,167.43 144.59,167.43 C145.47,167.16 146.44,168.77 146.17,169.31 C145.9,169.55 145.16,170.41 145.88,170.24 C147.33,169.84 148.22,171.99 147.36,172.72 C146.08,173.36 145.78,173.16 143.81,169.2 C143.2,167.97 142.46,166.65 142.37,166.51 C142.28,166.38 142.24,166.01 142.25,165.72 C142.33,165 142.03,164.84 141.41,165.13 C140.95,165.24 140.53,165.62 141.12,165.99 C141.8,167.18 142.05,167.37 141.67,167.67 C140.81,168.36 141.18,168.33 142.14,168.53 C142.62,168.67 142.85,168.91 142.98,169.21 C143.48,170.33 144.36,171.92 144.45,172.24 C144.74,173.06 144.21,173.43 143.49,173.4 C142.74,173.41 142.4,172.81 142.03,172.3 C140.66,170.39 139.67,168.49 138.28,166.31 L138.46,164.28 C138.46,164.28 138.83,164.36 139.03,164.26 C139.44,164.06 139.68,163.43 139.9,162.58 C140.27,161.85 142.44,160.17 143.27,159.28 C143.42,159.17 143.55,159.01 143.56,158.91 C143.55,158.58 142.61,158.8 142,159.51 C141.09,160.32 140.71,160.04 140.74,159.01 C140.65,157.73 139.88,158.37 139.84,159.62 C139.74,160.6 139.4,161.2 138.71,161.75 C137.42,162.79 137.64,162.53 137.7,163.97 C137.8,166.49 136.84,168.56 136.21,167.19 C135.98,166.7 135.72,166.15 135.15,166.12 C134.75,166.1 134.56,165.71 134.34,164.74 C134.01,163.16 133.55,162.14 133.14,160.69 L145.13,153.85 L145.13,153.85 Z M109.83,152.23 L113.46,154 L112.6,158.36 L108.88,156.67 L109.83,152.23 L109.83,152.23 Z M152.85,149.17 L152.85,227.56 L118.95,227.56 C118.95,227.56 117.36,224.72 114.01,218.19 C112.6,215.42 111.4,214.24 111.28,212.05 C111.41,210.76 110.82,209.3 109.77,208.71 C109.42,208.52 108.83,208.75 109.02,208.2 C109.24,207.6 108.58,206.67 108.4,206.47 C108.19,206.12 108.32,206.03 108.3,204.73 C108.27,203.46 108.21,202.94 107.94,201.98 C107.26,199.58 107.11,198.38 107.5,197.13 C108.51,193.96 109.56,191.53 110.92,188.58 C111.71,186.85 111.59,186.18 109.16,184.93 C107.35,183.99 107.1,184 107.33,182.62 C107.44,181.98 107.54,181.58 107.41,181.26 C107.32,181.08 107.02,180.81 106.85,180.66 C106.61,180.46 106.68,180.03 106.92,179.72 C107.16,179.41 107.16,178.97 106.92,178.24 C106.43,176.7 107.55,174.66 109.67,173.25 C110.61,172.63 110.58,172.75 111.56,173.79 C114.42,176.81 118.67,174.91 118.68,170.65 C118.68,169.32 118.23,169.4 119.48,168.77 C123.71,166.06 132.4,161.13 132.34,161.27 C132.9,162.43 133.09,163.42 133.45,164.67 C133.76,165.74 133.72,165.82 133.6,167.91 C133.5,169.79 133.44,170.23 133.88,170.35 C136.39,170.63 136.96,169.74 137.44,168.11 C137.65,167.39 138.05,167.54 138.3,167.84 C139.25,169.59 140.46,171.4 141.25,172.65 C142.24,174.23 143.91,175.02 144.78,174.27 C144.97,173.66 145.12,173.64 146.22,173.89 C147.57,174.2 148.33,173.44 148.46,172.45 C148.51,172.05 148.22,172.07 148.94,171.67 C150.72,170.35 150.05,168.53 149.78,167.44 C149.8,167.5 150.54,166.99 150.56,165.96 C150.64,160.65 146.07,153 146.17,153.2 L152.85,149.17 L152.85,149.17 Z M107.97,145.43 L111.07,147.55 L109.7,151.35 L106.42,149.02 L107.97,145.43 L107.97,145.43 Z M138.09,144.62 L137.34,145.94 L138.92,146.63 L139.55,145.37 L138.09,144.62 L138.09,144.62 Z M139.2,142.61 L138.44,143.93 L139.87,144.75 L140.63,143.41 L139.2,142.61 L139.2,142.61 Z M140.42,140.67 L139.6,141.95 L140.98,142.85 L141.8,141.52 L140.42,140.67 L140.42,140.67 Z M141.79,138.7 L140.9,139.95 L142.27,140.89 L143.17,139.6 L141.79,138.7 L141.79,138.7 Z M106.33,138.69 L109.36,140.67 L107.88,144.3 L104.85,141.98 L106.33,138.69 L106.33,138.69 Z M143.26,136.85 L142.31,138.05 L143.59,139.05 L144.54,137.85 L143.26,136.85 L143.26,136.85 Z M144.94,134.92 L143.92,136.05 L145.15,137.13 L146.17,135.99 L144.94,134.92 L144.94,134.92 Z M146.61,133.19 L145.55,134.28 L146.71,135.41 L147.77,134.31 L146.61,133.19 L146.61,133.19 Z M105.5,132.1 L107.92,134.7 L106.15,137.77 L103.62,135.33 L105.5,132.1 L105.5,132.1 Z M148.43,131.53 L147.3,132.54 L148.36,133.68 L149.49,132.65 L148.43,131.53 L148.43,131.53 Z M150.24,129.99 L149.07,130.95 L150.08,132.12 L151.25,131.16 L150.24,129.99 L150.24,129.99 Z M153.43,131.23 L153.5,141.49 L140.64,146.49 C143.97,140.76 147.91,135.45 153.43,131.23 L153.43,131.23 Z M152.6,126.72 L152.78,129.6 L152.08,128.55 L150.78,129.55 L151.69,130.76 L152.82,129.87 L152.89,131.03 C145.7,136.26 142.6,142.26 139.69,146.77 L138.39,147.32 L136.91,146.85 L136.19,148.14 L134.94,148.43 C134.9,148.43 137.46,142.91 141.83,137.3 C145.72,132.31 152.58,126.67 152.6,126.72 L152.6,126.72 Z M105.37,126.19 L107.41,128.69 L105.65,131.44 L103.43,128.82 L105.37,126.19 L105.37,126.19 Z M74.51,122.65 L76.45,125.44 L74.3,128.22 L72.47,125.3 L74.51,122.65 L74.51,122.65 Z M26.56,120.87 C26.65,120.86 26.79,121.11 27.08,121.3 C27.34,121.58 27.3,121.56 27.01,121.79 C26.55,122.16 26.41,122.1 26.42,121.53 C26.46,121.05 26.49,120.88 26.56,120.87 L26.56,120.87 Z M105.52,120.23 L107.27,122.6 L105.41,125.15 L103.51,122.73 L105.52,120.23 L105.52,120.23 Z M119.07,118.62 C118.7,118.62 118.38,128.36 119.77,133.12 L125.02,125.97 L119.07,118.62 L119.07,118.62 Z M27.98,117.78 L26.75,118.68 L27.64,119.92 L28.87,119.02 L27.98,117.78 L27.98,117.78 Z M101.61,117.47 L103.06,117.53 C100.68,141.2 105.36,153.18 109.51,163.6 C109.51,163.6 109.5,164.01 109.36,164.14 C108.68,164.37 107.32,164.62 106.22,163.65 C100.65,149.22 99.43,131.45 101.61,117.47 L101.61,117.47 Z M74.41,117.02 L76.55,119.54 L74.38,122.13 L72.34,119.83 L74.41,117.02 L74.41,117.02 Z M29.9,116.24 L28.72,117.21 L29.68,118.39 L30.85,117.43 L29.9,116.24 L29.9,116.24 Z M31.54,114.76 L30.42,115.79 L31.45,116.92 L32.57,115.89 L31.54,114.76 L31.54,114.76 Z M59.85,114.51 L54.63,122.1 L60.61,129.78 C61.25,125.62 61.4,120.8 59.85,114.51 L59.85,114.51 Z M33.24,113.03 L32.19,114.14 L33.29,115.2 L34.34,114.09 L33.24,113.03 L33.24,113.03 Z M117.3,111.54 L128.69,126.33 C124.88,130.9 121.71,136.28 118.88,142.07 C115.71,132.06 114.28,122.23 117.3,111.54 L117.3,111.54 Z M34.84,111.19 L33.86,112.36 L35.01,113.34 L36,112.18 L34.84,111.19 L34.84,111.19 Z M73.51,110.6 L76.07,113.04 L74.45,116.21 L71.86,113.82 L73.51,110.6 L73.51,110.6 Z M36.32,109.31 L35.38,110.52 L36.58,111.46 L37.51,110.25 L36.32,109.31 L36.32,109.31 Z M37.58,107.51 L36.72,108.77 L37.98,109.63 L38.83,108.37 L37.58,107.51 L37.58,107.51 Z M60.62,107.47 C65.14,118.35 64.74,128.16 62.34,136.66 L51.05,122.3 C55.19,117.13 57.93,112.23 60.62,107.47 L60.62,107.47 Z M38.74,105.64 L37.95,106.94 L39.24,107.74 L40.04,106.44 L38.74,105.64 L38.74,105.64 Z M115.92,105.39 L115.91,105.39 C110.89,121.09 112.4,136.07 119.28,149.12 C122.65,140.66 125.42,135 132.01,126 C127.96,120.65 116.32,105.22 115.92,105.39 L115.92,105.39 Z M72.21,104.05 L75.06,106.77 L73.37,109.78 L70.44,107.34 L72.21,104.05 L72.21,104.05 Z M39.86,103.77 L39.11,105.09 L40.42,105.86 L41.18,104.53 L39.86,103.77 L39.86,103.77 Z M38.86,101.84 C35.99,108.3 31.69,113.26 26.04,116.83 L25.82,107.36 L38.86,101.84 L38.86,101.84 Z M41,101.7 L40.24,103.02 L41.56,103.79 L42.32,102.46 L41,101.7 L41,101.7 Z M60.92,100.01 C57.29,107.76 53.71,115.76 47.93,121.8 L63.76,144.04 C68.96,128.34 67.03,113.62 60.92,100.01 L60.92,100.01 Z M44.53,99.99 C44.53,99.99 44.05,101.7 43.23,103.24 C39.33,110.05 35.52,116.11 27.65,121.37 C27.35,121.1 26.49,119.59 26.49,119.59 L26.41,117.57 C30.59,114.19 34.19,111.71 39.72,101.8 L41.33,101.14 L42.69,101.74 L43.62,100.08 L44.53,99.99 L44.53,99.99 Z M70.22,97.29 L73.37,99.59 L71.93,103.29 L68.76,101.09 L70.22,97.29 L70.22,97.29 Z M67.06,90.04 L70.89,92.04 L69.81,96.39 L65.94,94.21 L67.06,90.04 L67.06,90.04 Z M51.82,86.28 C51.82,86.28 55.71,91.98 56.7,93.49 C46.46,97.58 35.74,102.97 26.25,106.46 L26.25,104.17 C26.25,104.17 44.08,90.71 51.82,86.28 L51.82,86.28 Z M39.2,84.5 C38.99,84.5 38.45,84.75 37.72,85.41 C36.38,86.64 34.61,88.65 34.61,89.04 C34.97,89.17 35.29,88.96 35.57,88.67 C36.7,87 38.43,86.34 39.45,84.88 C39.61,84.61 39.44,84.5 39.2,84.5 L39.2,84.5 Z M54.55,84.02 C79.61,122.18 68.86,149.02 48.86,171.37 L45.17,171.43 L36.58,163.39 L36.74,212.22 C36.74,212.22 28.37,220.48 27.41,221.47 C26.46,222.39 25.74,220.97 25.74,220.97 L25.76,156.25 L26.14,153.71 L26.25,139.77 L31.59,136.93 L51.61,163.35 C51.61,163.35 50.8,164.54 50.43,164.75 C50.86,165.72 52.28,163.32 52.4,162.93 C45.13,153.88 31.63,136.14 31.63,136.14 L26.01,139.09 C26.01,139.09 26.18,127.51 26.08,123.07 C26.29,122.02 27.07,122.3 27.6,121.83 C34.91,117.05 40.93,110.18 46.06,98.46 C49.96,97.19 54.04,95.37 57.96,93.74 L52.32,85.23 L54.55,84.02 L54.55,84.02 Z M63,82.66 L67.69,84.89 L66.99,89.73 L62.09,87.45 L63,82.66 L63,82.66 Z M57.4,82.31 C77.27,112.56 76.38,144.69 54.21,169.05 L82.26,169.01 C85.83,161.91 91.78,157.59 99.39,154.92 L100.05,157.15 C91.3,159.98 86.88,164.67 83.36,171.16 L49.91,171.16 C62.76,157.24 68.65,145.47 69.57,129.56 C70.46,114.41 66.63,100.57 55,83.91 L57.4,82.31 L57.4,82.31 Z M61.56,80.03 C62.2,80.51 62.43,81.16 62.66,81.8 C61.81,81.67 59.53,81.01 60.6,80.49 L61.56,80.03 L61.56,80.03 Z M44.74,78.93 C45.49,78.95 45.3,80.7 45.03,81.31 C44.47,81.75 43.92,81.36 43.93,80.54 C43.93,80.27 43.88,80.01 43.81,79.97 C43.4,79.7 44.09,78.92 44.74,78.93 L44.74,78.93 Z M134.44,76.84 C131.73,79.31 129.55,81.87 127.27,84.59 C134.03,93.96 141.55,104.11 147.87,112.22 C147.87,112.22 150.05,110.91 150.04,110.75 C150.04,110.66 149.87,110.23 149.83,110.33 C149.74,110.55 148.06,111.5 148.06,111.5 L128.06,85.07 C128.06,85.07 129.14,83.77 129.48,83.35 C131.03,82.84 135.36,77.45 135.57,77.56 C138.96,80.17 149.17,91.25 153.11,94.64 L153.16,125.39 C152.75,126.62 141.86,131.36 134.17,149.05 C130.3,151.23 126.01,152.4 122.03,154.3 C122.03,154.3 123.04,155.91 123.54,156.35 C122.93,155.02 122.82,154.77 124.2,154.21 L152.99,142.39 L152.93,144.78 C150.05,147.03 130.96,160.93 125.08,164.21 C97.54,125.55 115.1,92.48 131.15,77.02 L134.44,76.84 L134.44,76.84 Z M64.94,76.19 C65.65,76.19 66.22,76.76 66.22,77.48 C66.22,78.19 65.65,78.77 64.94,78.77 C64.23,78.77 63.66,78.19 63.66,77.48 C63.66,76.76 64.23,76.19 64.94,76.19 L64.94,76.19 Z M90.58,75.35 C92.17,76.34 93.76,77.37 95.55,77.84 C91.39,85.38 84.7,89.43 79.1,91.01 C79.29,91.97 79.43,92.94 80.35,93.53 C80.32,93.38 79.91,91.67 80,91.32 C87.72,89.33 94.51,81.72 96.24,77.8 L130.15,77.43 C105.01,101.71 104.01,135.88 124.52,164.52 L122.16,165.9 C106.36,142.07 106.52,119.1 111.26,103.73 C114.62,92.82 120.65,84.49 125.23,79.73 C125.23,79.73 106.85,79.48 97.7,79.82 C96.37,81.87 95.14,83.54 93.35,85.47 C93.35,85.47 98,80.95 97.88,80.17 C106.36,80.16 115.1,79.67 123.57,80.26 C113.66,92.2 108.78,104.53 107.93,116.13 C107.9,117.64 107.81,116.79 107.31,117.35 L105.75,119.79 L104.49,117.25 C103.64,116.97 101.96,117.42 101.25,117.16 C97.77,132.82 101.29,151.72 105.88,164.06 C105.88,164.06 104.72,164.71 103.31,164.6 C101.76,164.25 101.38,164.68 100.03,164.96 C98.49,165.26 97.95,165.25 97.61,165.65 C97.42,165.87 97.07,166.17 96.68,166.38 C92.92,167.76 88.5,172.92 88.5,172.85 L84.35,170.98 C88.17,163.43 92.65,160.71 100.54,157.36 L99.8,153.98 C91.41,157.13 86.07,160.9 81.86,168.22 C76.75,168.15 56.04,168 56.02,168.07 C64.47,158.4 71.12,143.81 71.85,132.44 C72.03,130.23 71.72,131.29 72.7,130.63 L74.23,128.8 L75.43,130.61 C75.43,130.61 76.29,131.72 76.84,130.79 C78.38,114.94 76.76,96.86 69.17,84.25 C70.51,84.16 71.85,84.13 73.14,84.89 C76.11,91.66 77.86,100.02 78.62,106.29 C79.58,114.22 79.45,123.17 78.47,130.76 L78.97,130.83 C80.45,120.96 79.95,110.46 78.59,101.28 C77.9,96.49 75.65,89 74.11,85.55 C73.68,84.59 73.35,84.34 73.76,84.2 C83,83.42 87.25,80.31 90.58,75.35 L90.58,75.35 Z M32.8,75.31 C33.33,75.31 33.89,75.78 34.29,76.46 C35.21,78.03 36.34,80.67 37.05,82.13 C37.23,82.49 37.24,82.82 37.23,83 C37.29,83.85 37.57,84.17 38.07,83.79 C38.57,83.41 39.25,82.78 38.45,82.67 C37.64,82.06 37.19,81.16 37.69,80.61 C38.06,80.2 37.91,79.94 37.62,79.93 C36.48,79.91 34.79,76.51 35.59,75.78 C36.66,74.79 37.85,76.01 40.39,81.07 C41.5,83.31 41.55,85.75 40.6,84.54 C40.27,84.23 40.34,84.39 39.96,85.35 C39.67,86.08 39.43,86.42 38.34,87.48 C37.01,88.77 36.21,89.78 36.17,90.01 C36.12,90.43 36.89,90.04 37.46,89.29 C38.72,88.05 38.77,87.72 38.76,89.37 C38.75,90.86 38.67,91.13 38.94,91.12 C39.36,91.1 39.58,89.92 39.77,88.5 C40,87.22 40.67,86.57 41.77,85.86 C42.07,85.66 42.07,85.53 42.02,84.96 C41.81,83.15 42.83,79.78 43.3,80.61 C43.37,80.8 43.57,81.24 43.68,81.55 C43.76,82.02 44.06,82.56 44.52,82.6 C45.08,83.02 45.08,83.25 45.27,84.81 C45.34,85.32 45.56,86.09 45.72,86.49 C46.01,87.25 46.27,87.69 46.11,87.92 C46.01,88.03 45.79,88.24 45.79,88.24 L36.57,93.74 C36.57,93.74 35.85,94.14 35.58,94.25 C34.85,94.59 34.41,94.34 34.05,93.79 C32.1,90.86 30.76,87.57 29.38,84.54 C28.56,82.73 29.37,81.54 30.43,83 C30.84,83.56 30.63,83.92 30.43,85.01 C30.39,85.21 30.58,85.13 30.92,85.19 C31.46,85.13 31.72,85.61 31.7,86.44 C31.36,87.61 31.83,86.98 32.05,86.92 C32.47,86.92 32.57,87.18 32.81,87.67 C32.96,88.36 33.26,88.16 33.7,87.71 C34.06,87.33 34.06,87.34 33.33,86.46 C32.06,85.08 30.31,81.96 29.86,80.06 C29.73,79.54 29.78,79.12 29.87,78.84 C30.44,77.55 31.24,77.54 32.11,79.35 C32.25,79.66 32.54,80.16 32.75,80.46 C33.08,80.94 33.29,81.36 33.28,82.13 C33.02,82.78 32.98,82.79 33.2,82.88 C33.75,83.1 34.73,84.1 34.78,85 C34.82,85.91 34.97,86.39 35.68,85.85 C36.5,85.24 36.15,84.99 35.35,84.2 C34.51,83.2 34.46,82.33 34.96,81.6 C35.04,81.36 35.01,81.29 34.7,81.32 C33.73,81.41 32.78,80.17 33.46,79.23 C33.77,78.68 33.73,78.54 33.29,78.52 C33.06,78.51 32.68,78.56 32.5,78.45 C32.21,77.91 31.61,77.15 31.62,76.53 C31.9,75.65 32.34,75.3 32.8,75.31 L32.8,75.31 Z M82.19,62.08 C81.31,62.08 80.76,62.74 81.86,62.94 C85.8,63.65 83.16,67.76 80.38,65.64 C77.88,63.37 74.53,63.38 74.49,65 C74.48,65.4 74.5,65.42 75.1,65.53 C76.49,65.8 78.57,66.43 79.37,66.84 C79.84,67.08 80.33,67.3 80.47,67.33 C82.14,67.94 84.28,67.15 84.7,65.74 C85.09,64.44 84.77,62.08 82.19,62.08 L82.19,62.08 Z M76.21,58.85 C76.17,58.85 76.13,58.86 76.1,58.88 C76,58.94 76.23,59.34 76.56,59.8 C78.08,61.87 75.97,62.48 74.48,61.37 C73.06,60.26 70.87,60.37 71.19,61.53 C71.3,61.94 71.19,62.14 71.98,62.15 C72.69,62.16 72.87,62.2 73.5,62.64 C75.93,64.31 79.06,62.07 77.53,59.68 C77.24,59.22 76.52,58.83 76.21,58.85 L76.21,58.85 Z M81.48,52.37 C81.54,52.37 81.61,52.4 81.73,52.45 C82.23,52.64 83.09,53.05 82.72,53.37 C82.28,53.74 80.55,53.91 80.64,53.75 L81.21,52.68 C81.33,52.46 81.39,52.37 81.48,52.37 L81.48,52.37 Z M80.28,52.15 C80.72,52.23 80.72,52.44 80.58,52.7 C80.36,53.1 79.96,53.88 79.96,53.88 C79.96,53.88 79.43,53.98 79.32,53.85 C79.14,53.58 79.75,52.33 80.1,52.15 C80.16,52.12 80.22,52.14 80.28,52.15 L80.28,52.15 Z M114.65,49.7 C116.56,57.11 120.26,63.75 121.16,70.77 C121.36,72.78 121.03,74.75 119.37,76.45 L118.25,76.47 C118.08,76.47 119.81,73.78 119.66,71.48 C119.71,70.25 119.57,68.93 119.22,67.63 C117.05,61.38 114.92,55.72 113.26,49.77 L114.65,49.7 L114.65,49.7 Z M75.21,49.51 C74.64,49.52 74.63,50.05 75.54,50.86 C76.11,51.35 76.06,51.19 76.03,51.5 C75.9,52.85 76.11,54.07 76.65,52.69 C76.8,52.32 77.01,51.91 77.23,51.96 C77.63,52.08 77.43,52.83 77.62,53.21 C77.95,53.88 77.6,54.05 76.8,53.84 C76.22,53.69 76.19,54.01 75.83,54.41 C75.2,55.11 75.3,55.53 76.27,55.31 C76.43,55.27 76.56,55.32 76.69,55.35 C76.99,55.42 77.27,55.61 77.98,56.16 C78.91,56.87 80.21,57.82 81.06,57.96 C82.42,58.19 82.12,57.54 81.01,57.11 C80.05,56.74 78.87,55.72 78.87,55.44 C78.87,55.22 79.18,55.35 80.89,54.87 C81.64,54.67 82.69,54.21 83.13,54 C83.86,53.66 83.89,53.67 85.04,53.7 C86.98,53.76 87.28,53.69 85.91,52.67 C83.16,50.61 79.48,49.27 77.53,50.13 C76.94,50.39 76.95,50.23 76.53,49.98 C75.97,49.66 75.51,49.51 75.21,49.51 L75.21,49.51 Z M111.15,49.48 L112.53,49.61 C113.92,55.67 116.61,61.56 118.35,67.63 C118.68,69 118.96,70.67 118.85,71.9 C118.61,74.48 117.55,76.51 116.61,76.51 L115.66,76.51 C117.61,74.18 117.51,71 116.68,67.59 C115.3,61.94 111.98,55.14 111.15,49.48 L111.15,49.48 Z M117.02,49.21 C118.38,55 121.62,63.85 122.79,66.9 C124.34,70.01 123.87,74.63 121.54,76.46 L120.44,76.48 C121.77,75.22 122.23,73.11 122.02,70.92 C121.42,64.72 117.06,56.13 115.48,49.53 L117.02,49.21 L117.02,49.21 Z M108.76,49.2 L110.1,49.45 C111.67,55.04 114.33,61.97 115.93,67.74 C116.92,71.29 116.52,75.66 114.32,76.47 L113.19,76.49 C115.06,73.98 115.33,71.36 114.47,67.97 C112.72,61.03 110.07,54.97 108.76,49.2 L108.76,49.2 Z M106.5,48.82 L108.08,49.06 C111.05,62.81 117.57,71.36 111.99,76.46 L110.6,76.46 C112.12,74.89 112.81,72.43 112.31,69.52 C111.79,66.56 110.27,61.85 109.01,57.71 C107.54,52.91 106.36,48.85 106.5,48.82 L106.5,48.82 Z M79.12,48.2 C78.39,48.19 77.63,48.3 76.83,48.56 C76,48.88 76.1,49.53 76.87,49.4 C77.13,49.35 77.59,49.27 77.89,49.21 C79.77,48.88 82.09,49.57 84.9,51.28 C85.58,51.69 86.32,52.09 86.5,52.23 C87.02,52.62 87.57,52.62 87.38,52.12 C87.3,51.92 86.22,51.08 85.26,50.54 C83.21,49.29 81.31,48.22 79.12,48.2 L79.12,48.2 Z M103.83,48.07 C104.31,48.34 105,48.47 105.53,48.63 C107.18,55.73 110.2,62.72 111.57,69.34 C112.03,72.96 111.24,75.67 108.98,76.71 L108.5,76.71 C110.52,73.62 110.14,69.73 109.06,65.53 C107.6,59.87 104.78,53.65 103.83,48.07 L103.83,48.07 Z M101.1,47.2 L102.67,47.68 C104.8,57.08 112.98,72.48 107.15,76.74 L106,76.71 C110.39,68.43 103.73,59.87 101.1,47.2 L101.1,47.2 Z M98.66,46.34 L100.11,46.89 C101.79,56.16 110.11,70.02 104.81,76.71 L103.49,76.71 C104.67,74.85 105.16,73.22 104.98,70.72 C104.47,62.29 100.2,54.11 98.66,46.34 L98.66,46.34 Z M95.85,45.23 L97.43,45.83 C97.43,45.83 97.85,47.08 98,47.79 C99.54,54.65 103.72,62.38 104.21,70.41 C104.32,73.04 103.87,75.5 101.95,76.69 L100.51,76.69 C102.05,75.14 103.08,74.69 102.65,69.31 C101.97,62.4 97.44,53.77 95.85,45.23 L95.85,45.23 Z M77.54,44.86 C77.32,44.86 77.11,44.87 76.89,44.88 C74.35,45.02 73.93,45.18 73.92,45.74 C73.91,46.79 74.33,47.25 76.7,46.99 C78.74,46.77 81.7,47.09 83.74,47.97 C86.07,48.98 86.62,49.22 87.46,49.65 C89.56,50.74 89.19,49.66 87.29,48.4 C83.41,45.84 80.73,44.82 77.54,44.86 L77.54,44.86 Z M93.27,44.32 L94.95,44.97 C95.87,50.35 100.22,60.64 101.75,68.31 C102.18,72.93 102.25,74.28 99.15,76.74 L99.15,76.71 L97.47,76.71 C97.47,76.71 97.46,76.6 98.2,76.05 C102.26,72.99 99.83,66.24 98.3,61.06 C95.63,52.78 93.24,44.31 93.27,44.32 L93.27,44.32 Z M139.82,43.83 L142.12,44.74 L142.07,52.36 L140.12,53.04 C137.57,49.12 139.69,43.83 139.83,43.83 L139.82,43.83 L139.82,43.83 Z M91.15,43.68 L92.38,44.03 C92.38,44.03 96.19,57.16 98.38,63.57 C99.04,65.53 99.55,68.17 99.68,70.65 C99.62,74.07 97.71,76.53 95.37,76.79 C93.72,76.98 91.93,76.12 91.11,74.27 C90.42,72.51 90.94,70.44 92.94,69.72 C96.38,68.49 98.91,72.92 95.53,74.28 C93.78,74.99 92.12,73.71 92.9,72.23 C93.46,71.2 95.01,71.31 95.38,72.38 C95.68,73.52 96.17,72.98 95.96,72.21 C95.32,69.75 92.18,70.33 91.93,72.6 C91.93,75.41 94.98,76.07 96.8,74.49 C98.22,73.23 98.37,70.95 98.01,68.97 C97.53,64.86 95.22,59.54 93.58,53.46 C92.76,50.42 91.58,46.8 91.15,43.68 L91.15,43.68 Z M77.77,41.6 C81.96,41.61 86.32,42.29 90.32,43.51 C92.84,56.34 97.27,64.98 97.25,70 C97.25,70 96.9,69.94 96.16,69.4 C94.33,68.08 91.94,68.82 90.66,70.5 C89.45,72.1 90.67,74.33 90.05,75.26 C88.87,77 85.84,80.21 85.33,80.1 C84.96,80.03 85.02,79.86 86.32,77.86 C87.67,75.77 88.71,73.87 88.26,73.41 C88.08,73.21 87.97,73.63 86.96,75.39 C84.59,79.54 82.51,82.1 81.68,81.77 C81.3,81.61 81.5,81.27 83.25,78.93 C85.24,76.3 85.79,74.65 85.59,73.92 C85.44,73.36 85.13,74.26 84.31,75.88 C83.43,77.6 81.85,79.51 80.56,81.34 C80.16,82.01 79.64,82.39 78.97,82.69 C78.47,82.91 77.69,83.26 77.23,83.2 C76.99,83.17 77.16,83.03 77.48,82.72 C80.01,80.09 82.18,77.17 83.41,74.37 C83.6,74 83.33,73.47 83.02,73.86 C81.13,77.21 78.49,81.39 75.63,83.24 C75.02,83.63 74.1,83.97 73.26,83.9 C71.86,83.86 72.35,83.54 73.64,82.71 C76.38,80.94 80.23,75.83 80.85,74.03 C81,73.6 80.84,73.36 80.56,73.39 C78.31,77.03 75.32,81.03 71.86,82.7 C69.99,83.6 67.63,83.78 66.47,83.21 C65.62,82.79 65.84,82.65 67.34,82.55 C70.97,82.19 75.22,78.76 77.32,75.14 C78.55,73.13 77.69,73.59 76.28,75.53 C73.88,78.83 69.11,82 66.16,81.75 C63.17,81.57 61.45,79.24 61.83,77.24 C62.07,76.03 62.92,74.8 64.59,74.45 C67.45,73.84 69.33,78.41 66.71,79.27 C65.81,79.56 65.47,79.34 65.8,78.98 C67.74,78.12 66.88,75.77 65.24,75.53 C64.21,75.38 63.01,76.08 62.96,77.69 C62.99,78.89 63.97,80.06 65.94,80.09 C68.27,80.13 71.85,78.43 74.03,75.32 C75.57,72.94 74.15,73.74 73,75.33 C71.99,76.73 68.71,78.69 68.46,78.62 L68.57,77.01 C68.62,77.29 73.61,73.84 73.32,71.28 C73.13,69.42 73.4,68.85 75.33,68.88 C76.76,68.89 78.59,69.4 79.12,70.06 C79.67,70.72 80.29,70.93 80.01,69.82 C79.57,68.02 80.1,67.73 79.07,68.07 C78.35,68.3 77.72,67.73 77,67.21 C76.22,66.65 75.22,66.41 74.03,66.45 C73.14,66.49 72.74,66.43 72.88,65.59 C72.98,64.99 73.1,64.45 72.93,64.06 C72.65,63.43 71.54,62.78 70.28,61.84 C68.8,60.74 69.07,60.68 72.23,53.34 C73.56,50.27 73.56,49.63 72.77,47.36 C71.51,43.77 71.31,42.33 73.67,41.83 C75,41.67 76.38,41.6 77.77,41.6 L77.77,41.6 Z M133.88,35.87 C135.34,38.9 137,41.59 139.26,43.23 C138.04,46.17 137.52,49.4 139.59,53.76 C138.14,54.56 136.12,56.69 134.04,61.04 C126.5,53.37 128.18,42.25 133.88,35.87 L133.88,35.87 Z M133.15,33.94 L133.71,35.57 C129.45,38.02 124.25,51.7 133.8,61.75 L133.61,63.82 C123.6,54.67 125.45,41.55 133.15,33.94 L133.15,33.94 Z M152.99,25.82 L153.1,93.49 L142.95,83.44 C142.95,83.44 142.75,70.47 142.76,65.17 C142.77,59.87 142.85,54.57 142.83,53.58 C142.81,52.59 142.88,48.4 142.91,44.09 C142.98,35.07 142.16,36.19 143.82,34.46 L152.99,25.82 L152.99,25.82 Z M61.06,21.63 L69.02,36.17 C69.02,36.17 68.91,36.83 68.95,37.22 C69.02,37.78 69.2,38.28 69.52,38.8 C69.73,39.15 69.89,39.62 69.94,40.06 C70.01,40.78 70.01,40.78 71.06,41.73 C71.28,41.93 71.32,42.05 71.24,42.26 C70.89,43.14 71.1,44.93 71.78,47.08 C72.64,49.79 72.87,49.76 71.26,53.39 C70.92,54.15 70.52,55.16 70.08,56.09 C68.1,60.19 67.79,61.31 71.2,63.5 C72.16,64.11 72.44,64.65 72.2,65.88 C72.01,66.84 71.97,67.46 72.43,68 C72.73,68.36 73,68.41 72.93,68.69 C72.88,68.87 72.65,69.67 72.73,70.35 C72.93,72.17 70.84,74.85 68.93,75.79 C68.55,76.06 68.44,75.73 68.23,75.35 C66.25,71.87 61.34,73.28 61.02,77.43 C60.93,78.53 60.96,79 60.68,79.24 C60.59,79.32 60.3,79.48 60.3,79.48 C60.3,79.48 52.95,84.3 48.27,86.77 C47.96,86.93 47.69,87.2 47.48,87.24 C47.23,87.29 47.04,87.25 46.89,87.09 C45.16,83.79 46.12,79.88 46.27,78.5 C46.23,78.01 45.81,77.92 45.19,77.91 C44.12,77.9 42.59,78.98 42.26,80 C41.98,80.85 41.8,81.41 41.54,81.41 C41.28,81.4 41.16,81.06 40.52,79.82 C39.18,77.24 38.98,76.91 37.73,75.41 C36.74,74.22 35.89,74.06 34.92,74.95 C34.24,75.57 34.26,75.03 33.69,74.72 C32.69,74.04 31.2,74.65 31.16,75.6 C31.13,76.41 31.12,77.01 30.31,77.07 C29.41,77.13 29.02,78.3 29.27,79.97 C29.41,80.85 29.43,80.99 29.17,81.32 C28.29,82.37 28.18,83.09 28.66,84.56 C30.03,88.75 32.01,91.57 33.87,95.37 C33.87,95.37 29.27,98.08 26.47,99.65 L26.47,21.63 L61.06,21.63 L61.06,21.63 Z M131.39,21.63 L152.85,21.63 L152.85,24.98 L143.77,34.19 C142.93,35.05 142.26,35.77 142.26,35.77 L142.21,44.07 C136.13,40.78 134.92,36.85 133.8,32.53 C123.64,40.08 123.16,56.61 134.26,65.12 C134.35,61.42 137.15,54.16 142.11,53.62 L142.18,82.41 L136.08,76.42 L122.82,76.59 C125.01,73.02 125.06,70.18 123.64,66.84 C121.26,61.37 117.58,48.89 117.87,48.93 C117.87,48.93 117.97,48.66 118.27,48.59 C119.37,48.35 120.07,47.28 119.76,45.99 C119.7,45.58 119.7,45.68 119.98,45.14 C121.06,43.29 119.77,41.28 119.77,41.28 L131.39,21.63 L131.39,21.63 Z M62.55,20.91 C84.99,21.52 107.56,20.86 130.17,21.04 C130.17,21.04 121.96,35.44 119.47,39.98 C118.92,40.97 118.87,41.68 119.16,42.09 C119.62,42.73 119.58,43.82 119.07,44.44 C118.85,44.71 118.75,44.88 118.73,45.04 C118.72,45.2 118.86,45.38 118.98,45.67 C119.38,47.05 118.34,48.01 117.25,48.45 C116.53,48.75 114.9,48.94 113.71,48.89 C106.21,48.53 91.49,42.14 85.43,41.65 C81.22,40.46 75.79,40.88 71.31,41.13 C70.46,41.18 70.61,39.2 70.61,39.2 C69.9,32.64 65.29,26.93 62.55,20.91 L62.55,20.91 Z M24.49,19.72 C24.56,83.02 24.45,160.63 24.49,229.57 L154.51,229.57 L154.51,19.72 L24.49,19.72 L24.49,19.72 Z" id="Fill-604" fill="#22244E"></path>
        <path d="M62.64,21.19 L129.59,21.31 C125.77,28.88 122.26,35 118.21,42.45 C116.09,45.02 70.38,34.17 70.17,35.25 L62.64,21.19 L62.64,21.19 Z M139.49,53.71 C138.14,54.36 135.46,57.54 134.17,61.12 C125.49,53.31 129.07,38.96 133.82,35.97 C135.2,39.11 139.19,43.26 139.1,43.17 C138.18,46.45 137.48,49.78 139.49,53.71 L139.49,53.71 Z M142.96,35.98 C146.25,33.21 152.85,25.99 152.85,25.99 L152.93,29.69 L145.44,37.54 L145.52,85.97 L142.98,83.53 L142.96,35.98 L142.96,35.98 Z M78.62,131.14 C79.38,132.32 82.79,105.87 73.83,84.7 C74.69,84.05 82.07,82.62 82.07,82.62 L84.06,88.96 L79.02,91.11 L79.95,94.08 C83.86,92.17 92.33,89.35 97.54,80.64 C97.54,80.64 122.85,80.42 123.39,80.47 C123.91,80.51 118.23,86 112.83,97.11 C110.37,102.18 108.41,108.75 108,116.45 C107.92,117.98 102.21,109.3 102.21,109.3 C103.63,101.96 107.44,94.75 111.23,87.53 C111.23,87.53 105.41,87.19 101.34,87.31 C95.02,94.27 91.06,97.94 81.52,101.26 C85,112.48 106.27,117.87 101.54,116.84 C100.57,116.61 99.35,127.15 100.37,139.03 C100.57,148.52 105.64,164.35 105.82,164.22 C105.82,164.22 102.44,164.99 102.17,164.44 C102.74,164.31 97.13,165.73 97.13,165.73 L95.13,159.83 L100.55,157.32 L99.68,153.99 C99.65,154 87.71,157.63 81.86,168.12 L55.7,168.15 C65.79,157.13 69.91,146.23 72.1,131.81 C74.24,132.2 78.62,131.14 78.62,131.14 L78.62,131.14 Z M113.59,141.53 C110,130.31 110.1,118.7 111.75,110.59 C114.27,95.89 123.49,85.37 130.89,77.35 L134.1,77.35 C134.1,77.35 130.26,81.35 128.86,82.8 C126.47,85.57 123,91.34 123,91.34 L142.14,116.54 L153.05,114.16 C153.05,114.16 152.72,125.43 153.06,125.43 C144.58,132.5 138.49,138.9 134.11,149.19 C131.43,150.19 122.54,154.05 122.54,154.05 C118.32,153.01 135.12,126.49 131.92,126.04 C130.61,124.95 116.03,105.16 115.75,105.2 C109.03,125.9 115.58,147.65 127.4,162.84 C126.06,163.71 124.85,164.4 124.96,164.19 C119.9,157.12 115.46,148.68 113.59,141.53 L113.59,141.53 Z M44.83,171.32 C49.38,166.64 52.99,162.99 56.6,157.74 C56.9,157.32 37.39,132.37 37.69,131.93 C40.7,128.58 44.74,126.12 47.88,122.07 C47.88,122.07 63.88,143.16 64.24,142.98 C65.86,136.38 67.05,130.4 66.74,123.5 C65.75,105.86 58.26,95.05 58.21,95.26 C55.67,111.48 30.78,136.04 25.88,134.29 L25.85,122.96 C26.15,123.53 41.62,112.93 45.7,98.94 C46,97.93 58,94.06 57.92,93.91 C57.41,92.6 52.16,85.12 52.16,85.12 C52.16,85.12 54.28,84.12 54.51,84.13 C61.32,92.65 66.46,103.88 68.21,114.57 C70.33,126.09 71.7,147.75 48.76,171.39 L44.83,171.32 L44.83,171.32 Z M40.36,205.01 C42.78,200.1 40.07,194.11 40.07,194.11 C41.48,194.46 45.4,186.97 45.74,187.19 C51.74,194.59 52.78,205.62 45.45,212.45 C43.6,207.7 40.38,205.01 40.36,205.01 L40.36,205.01 Z M34.2,210.45 L33.88,162.81 L36.23,164.29 L36.77,212.14 L26.6,221.95 L26.54,219.07 L34.2,210.45 L34.2,210.45 Z M49.81,227.83 C49.81,227.83 57.32,212.53 60.49,207.95 C65.05,202.13 85.61,210.48 95.84,212.56 C100,213.37 109.64,212.99 109.64,212.99 L117.69,227.61 L49.81,227.83 L49.81,227.83 Z" id="Fill-605" fill="#DACA2C"></path>
        <path d="M71.44,41.16 C71.44,41.16 70.57,40.65 70.66,39.94 C70.95,39.01 69.73,36.92 69.73,36.92 C84.58,32.38 106.19,45.14 119.02,42.46 C118.92,43.36 119.06,44.44 118.7,45.29 C119.1,47.1 119.39,47.15 117.64,48.26 C108.62,50.83 99.12,45.35 90.32,42.73 C83.14,40.46 77.3,41.04 71.44,41.16 L71.44,41.16 Z M84.5,88.68 L82.29,82.41 C85.77,81.09 88.41,78.23 90.86,75.4 C92.52,76.9 94.67,77.43 95.42,77.72 C96.44,77.96 88.36,87.72 84.5,88.68 L84.5,88.68 Z M145.77,37.15 L152.74,30.05 L152.96,93.47 L145.96,86.63 L145.77,37.15 L145.77,37.15 Z M82.32,108.29 L81.57,101.51 C89.23,98.15 96,93.65 101.46,87.5 C107.33,87.21 111.33,87.61 111.3,87.53 C111.31,87.52 105.72,95.78 102.02,108.78 L82.32,108.29 L82.32,108.29 Z M26.12,116.94 L26.22,107.32 L38.84,101.85 C35.35,109.5 30.62,113.61 26.12,116.94 L26.12,116.94 Z M140.62,146.46 C144.77,138.94 149.05,134.57 153.32,131.56 L153.11,141.49 L140.62,146.46 L140.62,146.46 Z M152.69,109.76 C153.35,111.78 152.68,113.95 152.94,113.86 C128.45,126.06 121.45,152.83 121.45,152.83 C121.45,152.83 119.13,149.12 119.23,148.55 C131.91,120.18 140.39,119.33 142.02,116.25 L122.74,91.13 L127.1,85.16 L147.78,112.25 C149.83,111.3 151.01,110.5 152.69,109.76 L152.69,109.76 Z M76.99,139.91 L97.44,139.94 L98.34,147.1 C90.52,149.74 84.05,155.14 78.01,161.38 L68.31,161.21 C71.49,154.19 75.91,147.08 76.99,139.91 L76.99,139.91 Z M56.79,157.22 C56.79,157.22 54.54,160.93 52.42,162.73 C46.1,154.2 31.97,136.03 31.97,136.03 L25.97,139.09 C25.97,139.09 25.95,135.57 26.08,135.33 C42.28,126.92 53.39,111.04 58.28,96.17 C58.28,96.17 60.89,98.85 60.55,99.98 C56.17,111.71 48.68,123.48 37.67,132.3 L56.79,157.22 L56.79,157.22 Z M88.5,172.93 C86.91,171.78 85.42,171.56 83.95,171.31 C86.53,166.74 89.66,162.58 94.88,159.97 L97.3,166.02 C94.24,167.61 91.22,169.5 88.49,172.93 L88.5,172.93 L88.5,172.93 Z M61.37,205.87 C59.8,206.11 60.69,204.64 60.98,203.25 C61.14,202.47 60.39,201.74 60.39,201.5 C60.42,200.12 61.44,199.54 66.1,199.59 C77.07,200.36 82.74,203.89 89.04,205.54 C95.07,207.11 101.04,207.08 107.69,206.93 C108.18,207.21 109.96,211.83 109.63,212.3 C94.59,215.28 75.38,204.16 61.37,205.87 L61.37,205.87 Z M26.46,218.19 L26.01,154.59 L33.62,162.03 L34.07,210.88 L26.46,218.19 L26.46,218.19 Z" id="Fill-606" fill="#C0242A"></path>
        <path d="M111.66,217.23 C111.87,217.67 112.7,219.21 112.63,219.25 C111.4,219.46 111.07,217.63 111.66,217.23 L111.66,217.23 Z M99.05,213.34 L102.83,213.59 C102.33,213.93 101.84,214.25 101.23,214.87 C100.75,214.36 99.85,213.85 99.05,213.34 L99.05,213.34 Z M88.17,211.93 L91.65,212.78 L90,213.72 C89.39,213.05 88.8,212.47 88.17,211.93 L88.17,211.93 Z M58.84,211.63 C59.14,211.87 58.94,212.54 58.7,212.77 C58.09,213.42 57.89,213.37 58.42,212.24 C58.58,211.9 58.73,211.63 58.84,211.63 L58.84,211.63 Z M45,209.85 C44.86,210 44.83,210.08 44.6,209.87 C44.01,209.2 45.6,209.14 45,209.85 L45,209.85 Z M66.79,210.15 C62.96,209.42 62.76,213.73 65.25,214.43 C61.82,219.18 70.81,221.02 69.16,215.16 C73.72,215.99 72.89,210.77 69.5,210.82 C70.3,208.87 76.55,210.35 76.28,211.79 C72.05,212.24 73.74,216.12 75.57,216.13 C71.15,220.34 80,224.22 79.76,217.87 C83.31,218.62 83.73,213.88 80.32,213.57 C81.57,211.8 86.03,212.91 87.27,214.94 C83.75,215.41 83.96,218.52 86.72,219.03 C83.23,223.5 91.83,225.16 90.93,219.95 C94.01,221.02 95.7,216.88 91.71,215.7 C95.8,213.25 100.24,216.9 99.76,216.97 C95.09,216.7 96.02,221.4 99.4,221.15 C97.25,226.04 105.76,226.31 103.61,221.24 C107.43,221.31 107.1,216.84 103.43,216.54 C105.74,214.85 108.34,214.7 110.02,216.29 C106.53,217.21 107.98,221.3 111.49,220.17 C111.82,223.58 114.58,222.86 114.64,222.76 L117.11,227.4 L50.17,227.51 L55.88,216.89 C59.26,217.06 59.14,213.79 58.99,213.71 C61.24,215.32 63.65,211.31 60.37,210.16 C63.05,207.33 67.03,209.95 66.79,210.15 L66.79,210.15 Z M77.63,208.45 L81.78,210.02 C80.82,210.21 80.15,210.49 79.47,210.76 L77.63,208.45 L77.63,208.45 Z M68.58,209.15 C75.45,205.3 78.36,210.62 79.35,211.48 C85.36,210.14 86.53,210.8 89.88,214.45 C95.9,211.49 98.82,214 101.33,215.6 C104.28,212.83 108.01,212.75 109.96,214.14 C110.32,214.75 110.83,215.53 110.87,215.76 C110.9,215.95 110.63,215.73 109.95,215.25 C106.42,212.7 100.55,215.87 102.12,219.23 C102.54,220.13 102.47,220.52 101.84,220.88 C100.95,221.49 99.85,220.48 100.47,219.45 C101.51,217.72 100.73,216.28 98.19,214.94 C94.62,213.06 88.78,215.17 89.98,217.94 C90.75,218.83 90.04,219.45 89.02,219.42 C87.88,219.38 87.49,218.61 88.22,217.78 C89.14,216.73 88.9,215.66 87.83,214.44 C84.62,209.83 78.13,211.66 78.99,215.69 C79.37,216.69 78.29,217.1 77.18,216.65 C76.47,216.37 76.58,215.27 77.35,214.88 C78.24,214.79 78.37,213.48 78.26,212.65 C78.11,211.43 76.33,210.23 74.57,209.6 C73.29,209.14 72.11,209.04 71.17,209.13 C69.2,209.31 68.1,210.66 68.42,212.68 C68.62,213.87 68.29,215.11 66.89,214.45 C66.13,214.09 66.32,213.23 67.1,212.43 C69.83,209.74 64.33,206.47 61.01,208.72 C60.45,209.19 60.04,209.27 60.04,209.27 C62.12,204.05 68.64,208.94 68.58,209.15 L68.58,209.15 Z M66.05,206.44 C68,206.42 69.94,206.63 71.72,206.94 C70.69,207.32 69.67,207.68 68.61,208.3 C67.87,207.66 67.04,207.04 66.05,206.44 L66.05,206.44 Z M44.14,205.84 C44.63,205.85 45.32,208.08 44.96,208.5 C44.68,208.83 43.66,208.61 43.37,208.22 C42.89,207.58 43.5,205.83 44.14,205.84 L44.14,205.84 Z M47.06,205.21 C47.48,205.22 47.35,205.84 46.66,207.16 C46.08,208.28 45.85,208.28 45.52,207.13 C45.17,205.9 45.21,205.76 45.9,205.58 C46.31,205.48 46.66,205.27 47.06,205.21 L47.06,205.21 Z M90.54,209.43 C95.49,210.29 101.99,210.81 106.24,210.48 C108.67,210.23 109.19,210.31 109.17,211.33 C109.16,211.97 109.23,211.96 106.09,211.95 C103.48,212.13 101.12,211.85 98.6,211.71 C93.36,211.45 88.61,210.55 84.21,209.01 C79.34,207.74 75.12,205.3 70.35,204.79 C65.98,204.36 62.04,205.14 61.22,205.6 C60.94,205.6 60.8,205.19 60.81,204.81 C60.83,204.44 60.97,204.14 61.27,203.9 C73.81,200.72 80.52,207.54 90.54,209.43 L90.54,209.43 Z M45.42,202.23 C46.2,202.34 47.48,204.44 46.35,204.77 C45.36,205.06 44.45,205.25 44.33,204.57 C44.84,202.92 45.04,202.27 45.33,202.23 L45.42,202.23 L45.42,202.23 Z M48.01,203.55 C47.78,204.1 46.09,202.31 46.11,201.8 C46.15,201.58 47.51,200.68 48.05,200.32 C48.31,200.12 48.29,200.22 48.29,200.46 C48.3,201.14 48.25,202.88 48.01,203.55 L48.01,203.55 Z M65.72,199.8 C71.13,199.77 77.18,201.44 81.42,203.28 C85.81,205.11 90.46,206.47 95.17,207.17 C99.05,207.66 102.92,207.41 106.63,207.12 C107.04,207.06 107.46,207.11 107.76,207.44 C108.53,208.3 108,208.83 106.08,209.01 C102.99,209.27 99.16,209.16 95.76,208.65 C90.37,208.03 84.67,206.39 79.74,204.33 C73.59,202.01 67.94,201.23 63.47,201.91 C61.02,202.29 60.66,202.35 60.67,201.69 C60.69,200.39 61.75,199.8 65.72,199.8 L65.72,199.8 Z M61.97,199.65 C60.42,200.05 59.78,201.43 60.29,202.68 C60.52,203.25 60.88,203.25 60.46,203.6 C60,204.14 59.75,205.38 60.26,205.84 C60.86,206.18 61.02,205.59 60.38,206.76 L48.76,228.25 L118.52,228.12 L110.14,212.31 C110.16,212.29 110.81,209.7 109.47,209.39 C109.04,209.29 108.79,208.89 108.7,208.5 C108.81,207.4 108.32,206.93 107.9,206.37 C101.27,207.31 95.51,206.84 90.75,205.76 C83.89,204.21 78.99,201.52 75.81,200.68 C71.42,199.51 66.11,199 61.97,199.65 L61.97,199.65 Z M45.23,198.08 C45.41,198.06 45.92,198.39 46.42,198.77 C47.68,199.74 47.4,200.41 45.96,200.88 C44.97,201.2 45.02,201.24 45.04,199.51 C45.06,198.65 45.01,198.1 45.23,198.08 L45.23,198.08 Z M47.75,196.24 C48.11,196.24 48.27,196.92 48.32,198.09 C48.36,199.2 48.12,199.29 47.23,198.49 C46.27,197.64 46.11,197.43 46.99,196.73 C47.25,196.52 47.59,196.24 47.75,196.24 L47.75,196.24 Z M44.18,194.1 C44.37,194.08 44.96,194.17 45.49,194.34 C47.33,194.93 47.4,196.15 45.62,197.04 C44.89,197.42 44.66,197.25 44.23,195.39 C44.02,194.47 43.86,194.13 44.18,194.1 L44.18,194.1 Z M42.32,192.7 C45.08,198.29 44.91,202.66 42.48,206.68 L40.57,205.04 C41.85,201.98 42.49,198.72 40.33,194.57 L42.32,192.7 L42.32,192.7 Z M45.91,191.5 C46.37,191.54 47.03,193.01 47.09,194.06 C47.12,194.17 45.53,193.81 45.1,193.32 C45.15,192.89 45.55,191.79 45.91,191.5 L45.91,191.5 Z M44.59,190.79 C44.79,190.79 44.95,190.85 45.04,190.99 C45.23,191.3 44.28,193.94 43.7,193.32 C43.52,192.97 43.31,192.67 43.15,192.31 C42.96,191.88 43.08,191.67 43.52,191.25 C43.82,190.95 44.26,190.79 44.59,190.79 L44.59,190.79 Z M44.66,189.51 C44.72,189.69 45.08,190.23 44.81,190.2 L44.35,190.11 L44.66,189.51 L44.66,189.51 Z M45.65,187.28 C54.83,198.74 48.78,209.23 45.58,212.16 L44.96,211.14 C51.78,203.16 48.89,193.36 44.92,188.72 L45.65,187.28 L45.65,187.28 Z M45.51,186.28 C44.45,190.11 39.58,194.26 39.49,194.19 C41.9,197.67 41.82,202.63 39.7,205.08 C39.71,205.03 43.57,208.26 44.12,209.94 C44.42,210.61 44.55,211.42 44.93,212.08 C45.04,212.26 45.36,212.7 45.36,212.7 C54.81,203.05 50.31,191.74 45.51,186.28 L45.51,186.28 Z M62.04,163.34 L59.36,167.02 L62.54,167.03 L64.84,163.46 L62.04,163.34 L62.04,163.34 Z M36.21,164.87 L36.47,212.27 L26.76,221.74 L26.69,219.19 L34.41,211.08 C34.42,195.05 34.37,179.01 34.31,162.98 L36.21,164.87 L36.21,164.87 Z M69.87,162.6 L67.23,165.04 L69.33,167.8 L71.75,165.02 L69.87,162.6 L69.87,162.6 Z M74.85,162.47 L72.62,164.84 L74.99,167.55 L77.15,164.72 L74.85,162.47 L74.85,162.47 Z M78.62,161.97 L78.24,165.55 L81.37,167.41 L81.84,163.73 L78.62,161.97 L78.62,161.97 Z M61.22,161.74 L67.06,161.92 L63,168.03 L56.39,168.02 L61.22,161.74 L61.22,161.74 Z M94.79,160.27 L97.01,166.13 C93.94,167.38 90.76,170.07 88.36,172.75 C86.58,171.43 85.53,171.3 84.44,171 C87.46,165.32 91.03,162.35 94.79,160.27 L94.79,160.27 Z M97.43,159.04 L99.16,165.02 L97.71,165.43 L95.64,159.76 C96.21,159.42 96.8,159.17 97.43,159.04 L97.43,159.04 Z M82.33,158.44 L82.37,162.21 L85.4,162.47 L85.52,158.93 L82.33,158.44 L82.33,158.44 Z M100.2,158.04 L102.1,164.34 L99.82,164.74 L98.11,158.81 C98.81,158.45 99.51,158.27 100.2,158.04 L100.2,158.04 Z M64.26,156.84 C64.24,156.88 69.82,157 69.82,157 L67.59,161.06 L65.68,160.98 L68.19,159.25 L66.58,157.18 L64,158.87 L65.44,160.97 L61.67,160.89 L64.26,156.84 L64.26,156.84 Z M26.36,155.07 L33.32,162.02 L33.71,210.54 L26.78,217.53 L26.36,155.07 L26.36,155.07 Z M86.86,154.87 L86.29,158.16 L89.08,158.8 L89.71,155.49 L86.86,154.87 L86.86,154.87 Z M69.42,151.75 L66.7,153.52 L68.49,155.89 L71.11,154.12 L69.42,151.75 L69.42,151.75 Z M91.11,151.71 L90.68,155.28 L93.64,155.91 L94.05,152.52 L91.11,151.71 L91.11,151.71 Z M67.08,151.32 L72.59,151.39 L70.28,156.2 L64.68,156.04 L67.08,151.32 L67.08,151.32 Z M125.04,149.39 C125.26,149.37 125.49,149.75 125.94,150.57 C126.28,151.17 126.72,152.05 126.72,152.05 L125.93,152.35 C125.29,150.14 124.7,150.96 124.63,152.91 L123.54,153.35 C123.54,153.35 123.66,151.47 124.28,150.37 C124.64,149.74 124.84,149.41 125.04,149.39 L125.04,149.39 Z M95.91,149.34 L95.03,152.16 L97.69,153.87 L98.69,150.83 L95.91,149.34 L95.91,149.34 Z M98.19,147.69 C98.19,147.69 99.42,154.68 99.48,153.91 C90,157.5 84.46,162.81 81.83,167.98 L64.05,167.97 L68.02,161.77 L78.55,161.71 C83.64,155.5 89.91,150.54 98.19,147.69 L98.19,147.69 Z M124.1,147.61 C124.42,147.61 124.68,147.87 124.68,148.19 C124.68,148.51 124.42,148.77 124.1,148.77 C123.78,148.77 123.53,148.51 123.53,148.19 C123.53,147.87 123.78,147.61 124.1,147.61 L124.1,147.61 Z M129.47,147.38 C129.95,147.38 130.46,147.42 130.57,147.6 C130.87,148.1 129.64,150.9 129.64,150.9 L127.64,151.7 C127.21,150.81 126.47,149.88 126.29,148.91 C126.22,148.49 126.43,148.34 126.9,148.07 C127.59,147.68 128.66,147.39 129.47,147.38 L129.47,147.38 Z M71.68,146.53 L68.96,148.26 L71.08,150.33 L73.68,148.52 L71.68,146.53 L71.68,146.53 Z M69.13,145.9 L74.82,145.95 L72.95,150.67 L67.33,150.65 L69.13,145.9 L69.13,145.9 Z M127.15,146.16 C127.29,146.54 129.01,145.84 129.1,145.39 C129.09,145.18 128.41,144 128.01,143.95 C127.32,144.06 127.03,145.63 127.15,146.16 L127.15,146.16 Z M128.12,142.1 C128.39,142.08 128.75,142.6 128.85,143.05 C128.98,143.6 129.92,144.97 130.51,145.63 C131.25,146.46 131.21,146.58 130.15,146.66 C128.88,146.77 127.64,147.02 126.93,147.28 C125.82,147.68 125.67,147.59 125.81,146.29 C126.02,144.33 127.32,142.17 128.12,142.1 L128.12,142.1 Z M130.76,140.82 C131.35,140.82 132.13,140.89 132.76,141 C133.78,141.2 133.93,141.22 133.59,142.07 C133.13,143.19 132.1,145.21 131.84,145.37 C130.91,145.95 128.84,141.78 129.54,141.06 C129.73,140.91 130.12,140.83 130.76,140.82 L130.76,140.82 Z M73.38,140.79 L70.62,142.7 L72.78,145.01 L75.63,143.07 L73.38,140.79 L73.38,140.79 Z M97.19,140.17 L97.97,146.91 C91.41,149.31 84.34,153.38 78.16,160.87 C77.1,160.8 68.67,160.95 68.67,160.95 C68.88,160.98 76.48,146.53 77.36,140.26 L97.19,140.17 L97.19,140.17 Z M127.82,140.01 C128.14,140.01 128.4,140.27 128.4,140.59 C128.4,140.91 128.14,141.17 127.82,141.17 C127.5,141.17 127.25,140.91 127.25,140.59 C127.25,140.27 127.5,140.01 127.82,140.01 L127.82,140.01 Z M70.71,140.03 L76.72,140.07 L75.15,145.26 L69.29,145.15 L70.71,140.03 L70.71,140.03 Z M131.78,137.27 C131.24,137.32 130.39,138.5 130.78,138.9 C131.24,139.12 131.94,139.1 132.24,138.71 C132.44,138.32 132.39,137.5 131.78,137.27 L131.78,137.27 Z M31.68,136.36 L52.16,163.13 L50.74,164.87 L30.04,137.58 C30.04,137.58 26.77,139.19 25.81,139.73 L25.94,153.58 L25.38,153.55 L25.46,223.68 L36.88,212.21 L36.74,164.63 C39.16,166.92 41.23,169.37 44.01,171.62 L48.76,171.58 C61.16,158.88 67.96,148.01 69.45,128.54 C70.44,115.52 66.15,99.14 54.75,83.27 L51.97,84.97 L57.46,93.32 L45.82,98.52 C41.18,108.37 35.68,117.45 25.62,122.66 L25.56,135.41 L25.39,135.67 L25.52,139.67 L31.68,136.36 L31.68,136.36 Z M132.81,136.8 C132.98,137.37 133.4,138.31 133.73,138.88 C134.06,139.46 134.43,140.09 134.4,140.2 C134.35,140.47 134.09,140.49 133.53,140.28 C132.29,139.72 129.39,140.31 129.32,140.03 C128.88,139.42 129.53,137.73 130.75,136.56 C131.34,135.99 131.89,135.62 132.2,135.62 C132.52,135.61 132.57,136.05 132.81,136.8 L132.81,136.8 Z M135.31,134.85 C137.47,134.88 138.2,135 137.57,136.07 C136.73,137.11 136.23,138.11 135.31,139.07 C134.78,139.62 134.12,138.5 133.57,136.71 C133.13,135.27 133.35,134.9 134.2,134.89 C135.05,134.88 135.19,134.85 135.31,134.85 L135.31,134.85 Z M131.84,133.38 C132.16,133.38 132.41,133.64 132.41,133.96 C132.41,134.28 132.16,134.54 131.84,134.54 C131.52,134.54 131.26,134.28 131.26,133.96 C131.26,133.64 131.52,133.38 131.84,133.38 L131.84,133.38 Z M71.99,132.87 L76.72,139.08 L70.94,138.95 L71.99,132.87 L71.99,132.87 Z M152.79,132.11 L152.94,141.12 L141.12,146.08 C145.08,139.35 148.95,135.19 152.79,132.11 L152.79,132.11 Z M56.36,157.58 L52.5,162.48 L32.38,136.27 L37.46,132.58 L56.36,157.58 L56.36,157.58 Z M135.81,131.48 C135.29,131.62 134.55,132.59 134.87,132.96 C135.06,133.16 135.82,133.19 136.18,133.05 C136.74,132.85 136.36,131.48 135.81,131.48 L135.81,131.48 Z M153.8,130.69 C144.38,137.55 140.76,145.87 140.02,146.96 L153.84,141.59 L153.8,130.69 L153.8,130.69 Z M40.19,130.6 L58.31,154.74 L56.89,156.78 L38.25,131.96 L40.19,130.6 L40.19,130.6 Z M137.36,131.32 C137.52,131.9 137.76,132.65 137.94,133.18 C138.84,135.19 138.27,134.41 136.65,134.24 C135.57,134.12 133.84,134.3 133.41,134 C133.22,133.75 133.39,133.11 133.74,132.38 C134.23,131.36 135.13,130.49 135.79,130.09 C137.48,129.31 137.08,130.31 137.36,131.32 L137.36,131.32 Z M31.52,130.05 C31.83,130.05 32.09,130.31 32.09,130.63 C32.09,130.95 31.83,131.21 31.52,131.21 C31.2,131.21 30.94,130.95 30.94,130.63 C30.94,130.31 31.2,130.05 31.52,130.05 L31.52,130.05 Z M139.03,129.39 C139.43,129.39 139.99,129.41 140.65,129.54 C142.31,129.89 142.5,130.04 141.5,131.22 C141.13,131.65 140.58,132.31 140.28,132.68 C139.3,134.06 138.77,133.59 138.31,131.8 C137.74,129.94 137.61,129.23 139.03,129.39 L139.03,129.39 Z M26.3,128.49 C27.35,128.87 28.24,129.43 29.32,129.8 C30.02,130.04 29.83,130.6 29.1,131.4 C28.3,132.36 27.5,132.83 26.39,133.36 L26.4,131.74 C27.76,131.27 28.62,130.13 26.34,129.76 L26.3,128.49 L26.3,128.49 Z M136.32,127.94 C136.64,127.94 136.89,128.19 136.89,128.51 C136.89,128.83 136.64,129.09 136.32,129.09 C136,129.09 135.74,128.83 135.74,128.51 C135.74,128.19 136,127.94 136.32,127.94 L136.32,127.94 Z M44.63,129.77 C44.98,131.43 47.29,131.34 47.03,129.61 C46.88,128.6 46.84,128.62 47.35,128.64 C49.74,128.76 49.32,132.56 46.57,132.26 C45.99,132.33 45.92,132.57 46.4,132.77 C46.89,132.97 48.74,133.45 49.02,133.45 C52.02,133.44 56.34,138.08 56.23,142.2 C56.17,144.89 57.07,146.83 58,147.05 C58.74,147.22 59.8,146.55 59.71,145.72 C59.58,144.58 60.5,144.94 61.03,145.76 C61.84,146.89 60.8,148.51 58.88,148.39 C58.06,148.55 59.48,149.07 60.53,149.38 C61.48,149.43 60.68,150.61 60.5,150.82 C59.96,151.45 58.19,150.97 56.81,149.85 C55.11,148.46 54.38,146.61 54.18,142.97 C54.05,140.63 53.88,140.16 53.2,141.12 C51.99,143.28 49.08,142.22 48.71,139.95 C48.51,138.75 49.56,137.88 49.9,138.97 C50.8,141.24 53.01,140.69 52.65,138.44 C52.42,136.96 50.94,136.14 48.02,135.31 C44.52,134.32 43.48,133.11 42.79,130.21 C42.49,128.93 42.54,128.26 43.21,127.59 C43.54,127.26 43.97,126.92 43.97,126.92 C43.97,126.92 44.44,128.87 44.63,129.77 L44.63,129.77 Z M139.89,127.56 C140.17,127.83 141.19,127.82 141.36,127.66 C141.63,127.41 141.51,126.24 141.28,126.1 C140.71,125.91 139.55,127.13 139.89,127.56 L139.89,127.56 Z M37.53,125.31 C37.85,125.31 38.11,125.57 38.11,125.89 C38.11,126.21 37.85,126.47 37.53,126.47 C37.21,126.47 36.96,126.21 36.96,125.89 C36.96,125.57 37.21,125.31 37.53,125.31 L37.53,125.31 Z M33.04,125.18 C32.65,125.18 32.63,125.7 32.9,126.9 C32.98,127.29 33.31,127.26 33.92,126.83 C34.65,126.31 34.62,125.99 33.8,125.49 C33.46,125.29 33.21,125.18 33.04,125.18 L33.04,125.18 Z M141.77,124.44 C142.09,124.44 142.3,124.61 142.29,125.01 C142.28,125.52 142.65,127.75 142.85,128.36 C143.21,129.4 142.95,129.64 142.09,129.18 C141.47,128.84 139.82,128.59 138.92,128.66 C137.91,128.74 137.94,128.46 138.23,127.6 C138.76,126.08 140.8,124.44 141.77,124.44 L141.77,124.44 Z M144.25,124.24 C144.59,124.24 145.01,124.29 145.52,124.41 C147.5,124.86 147.94,125.32 146.26,126.66 C145.63,127.16 144.97,127.78 144.78,128.02 C143.87,129.14 143.24,128.33 143.04,126.29 C142.9,124.87 143.12,124.06 144.25,124.24 L144.25,124.24 Z M30.86,124.17 C31.52,124.73 31.38,128.32 30.65,129.09 C30.27,129.49 29.15,129.12 27.48,128.17 C26.39,127.55 26.18,127.17 26.73,126.78 C27.65,126.22 30.36,124.03 30.86,124.17 L30.86,124.17 Z M32.07,123.93 C33.1,124.24 34.09,124.97 35.06,125.1 C36.18,125.23 36.57,125.16 36.27,125.75 C35.59,127.05 34.3,128.42 32.95,128.87 C31.98,129.18 31.53,129.06 31.68,128.46 C31.96,127.33 32.01,126.4 31.97,125.36 C32.13,124.8 31.65,124.01 32.07,123.93 L32.07,123.93 Z M152.8,122.79 L152.84,125.47 C151.05,126.79 139.66,135.1 133.77,149.09 L130.69,150.41 C135.03,138.37 144.31,128.06 152.8,122.79 L152.8,122.79 Z M47.84,122.89 L63.71,143.4 L62.66,146.07 L46.31,124.42 L47.84,122.89 L47.84,122.89 Z M142.02,122.24 C142.34,122.24 142.59,122.49 142.59,122.81 C142.59,123.13 142.34,123.39 142.02,123.39 C141.7,123.39 141.44,123.13 141.44,122.81 C141.44,122.49 141.7,122.24 142.02,122.24 L142.02,122.24 Z M87.2,126.06 L92.23,126.06 L92.23,121.87 L87.2,121.87 L87.2,126.06 Z M146.51,121.37 C146.25,121.4 145.88,121.61 145.71,121.73 C145.11,122.11 144.86,122.38 145.73,122.68 C146.51,122.95 146.92,123.06 146.86,122.39 C146.82,121.98 146.85,121.39 146.51,121.37 L146.51,121.37 Z M38.37,120.46 C37.73,120.45 37.89,120.8 38.28,121.76 C38.57,122.44 39.05,122.51 39.55,121.93 C40.25,121.11 40.12,120.68 39.1,120.52 C38.88,120.49 38.52,120.46 38.37,120.46 L38.37,120.46 Z M147.36,119.88 C147.8,119.86 147.86,120.21 147.82,121.43 C147.79,122.08 147.91,123.14 147.95,123.63 C148.04,124.66 147.96,124.73 147.15,124.27 C146.64,123.98 145.59,123.5 144.46,123.4 C143.53,123.32 143.47,122.93 143.75,122.32 C144.57,120.95 146.05,120 147.36,119.88 L147.36,119.88 Z M35.65,120.04 C36.38,120.05 37.19,123.89 36.53,124.24 C35.51,124.77 32.33,123.73 32.34,122.85 C32.34,122.57 35.32,120.03 35.65,120.04 L35.65,120.04 Z M149.57,119.51 C150.01,119.5 150.78,119.77 151.47,120.12 C153.32,121.02 153.27,121.23 150.77,123.02 C148.95,124.4 148.52,124.56 148.46,122.37 C148.39,120.53 148.59,119.53 149.57,119.51 L149.57,119.51 Z M43.24,119.59 C43.56,119.59 43.82,119.84 43.82,120.17 C43.82,120.49 43.56,120.75 43.24,120.75 C42.92,120.75 42.66,120.49 42.66,120.17 C42.66,119.84 42.92,119.59 43.24,119.59 L43.24,119.59 Z M36.59,119.07 C36.8,119.07 37.45,119.35 38.02,119.51 C38.87,119.75 39.55,119.85 40.33,119.86 C41.9,119.9 42.11,119.88 41.43,121.18 C40.95,122.12 39.85,123.36 39.08,123.73 C38,124.32 37.58,124.24 37.64,123.16 C37.65,122.43 37.34,121.16 36.93,120.26 C36.61,119.55 36.24,119.08 36.59,119.07 L36.59,119.07 Z M147.76,117.73 C148.08,117.73 148.34,117.99 148.34,118.31 C148.34,118.63 148.08,118.89 147.76,118.89 C147.44,118.89 147.19,118.63 147.19,118.31 C147.19,117.99 147.44,117.73 147.76,117.73 L147.76,117.73 Z M100.86,117.42 C97.66,133.39 100.59,150.34 105.53,164.15 L103.04,164.43 C99.19,153.38 96.13,137.66 99.24,117.43 C99.24,117.43 100.36,117.41 100.86,117.42 L100.86,117.42 Z M86.58,117.41 L92.9,117.41 L92.9,121.61 L97.85,121.61 L97.46,126.4 L92.91,126.4 L92.91,130.6 L86.59,130.6 L86.59,126.4 L82.07,126.4 L82.44,121.61 L86.59,121.61 L86.58,117.41 L86.58,117.41 Z M152.71,118.6 L152.72,119.78 C151.83,119.51 151.28,119.13 150.27,118.79 C149.64,118.58 149.28,118.43 149.83,117.77 C150.69,116.74 151.61,116.09 152.66,115.45 L152.67,116.78 C150.99,117.53 151.15,118.22 152.71,118.6 L152.71,118.6 Z M43.23,115.05 C42.69,115.09 42.98,115.42 43.38,116.36 C43.65,117.02 44.03,117.12 44.46,116.66 C45.03,116.05 45.1,115.56 44.74,115.3 C44.21,115.09 43.82,115.06 43.23,115.05 L43.23,115.05 Z M40.53,114.65 C40.78,114.64 41.01,115.15 41.29,115.9 C41.9,117.54 42.09,118.42 41.91,118.81 C41.63,119.4 37.88,119.02 37.24,118.35 C37.12,118.45 40,114.98 40.53,114.65 L40.53,114.65 Z M47.82,113.85 C48.13,113.85 48.39,114.11 48.39,114.43 C48.39,114.75 48.13,115.01 47.82,115.01 C47.5,115.01 47.24,114.75 47.24,114.43 C47.24,114.11 47.5,113.85 47.82,113.85 L47.82,113.85 Z M44.76,114.17 C46.12,114.14 46.52,114.04 46.51,114.55 C46.53,115.92 45.26,117.86 43.71,118.59 C42.67,119.08 42.64,119.09 42.53,117.86 C42.44,116.9 42.13,115.68 41.64,114.7 C41.48,114.34 40.89,113.51 41.64,113.75 C42.38,113.98 43.91,114.18 44.76,114.17 L44.76,114.17 Z M152.54,110.01 L152.76,113.52 C129.89,124.95 121.32,151.92 121.2,151.92 L119.54,148.81 C130.03,122.76 143.99,115.22 152.54,110.01 L152.54,110.01 Z M48.1,109.4 C47.19,109.43 47.13,109.55 47.56,110.54 C47.91,111.34 48.16,111.41 48.76,110.88 C49.6,110.15 49.25,109.36 48.1,109.4 L48.1,109.4 Z M44.79,109.29 C45.72,110.17 46.91,113.26 46.3,113.48 C45.59,113.74 42.4,113.37 42.04,113 C41.79,112.74 41.79,112.74 42.31,112.03 C42.6,111.65 43.15,110.87 43.53,110.32 C43.88,109.91 44.26,108.8 44.79,109.29 L44.79,109.29 Z M102.76,108.96 L108.71,109 L107.8,116.12 L102.76,108.96 L102.76,108.96 Z M50.18,108.19 C51.16,108.26 50.24,111.41 48.76,112.56 C47.59,113.47 47.09,113.05 46.82,111.39 C46.73,110.79 46.1,109.77 45.55,108.97 C44.94,108.07 45.19,107.93 46.75,108.29 C47.83,108.5 49.18,108.24 50.18,108.19 L50.18,108.19 Z M51.99,107.41 C52.31,107.41 52.57,107.67 52.57,107.99 C52.57,108.31 52.31,108.57 51.99,108.57 C51.67,108.57 51.42,108.31 51.42,107.99 C51.42,107.67 51.67,107.41 51.99,107.41 L51.99,107.41 Z M115.89,105.66 L131.63,126.22 C126.93,132.23 122.25,139.14 119.17,148.27 C113.57,135.07 111.52,122.23 115.89,105.66 L115.89,105.66 Z M106.99,103.64 L104.35,105.48 L106.44,107.56 L109.24,105.82 L106.99,103.64 L106.99,103.64 Z M104.48,103.36 L110.16,103.42 L108.86,108.11 L102.91,108.02 L104.48,103.36 L104.48,103.36 Z M48.14,103.15 C48.66,103.16 49.84,104.98 50.17,106.28 C50.42,107.25 50.16,107.46 48.33,107.73 C47.58,107.94 45.53,107.74 45.7,107.19 C45.99,106.4 47.95,103.15 48.14,103.15 L48.14,103.15 Z M133.37,123.8 L131.77,125.42 L116.21,105.01 L117.19,102.43 L133.37,123.8 L133.37,123.8 Z M26.35,116.51 L26.38,107.48 L38.43,102.37 C36.01,107.64 31.54,112.87 26.35,116.51 L26.35,116.51 Z M51.76,102.71 C50.73,102.69 50.43,103.18 51.04,103.84 C51.55,104.39 51.96,104.27 52.3,103.47 C52.51,102.98 52.32,102.72 51.76,102.71 L51.76,102.71 Z M53.13,101.1 C54.52,101.06 53.83,104.83 52.03,106.12 C51.37,106.63 50.92,106.57 50.71,105.55 C50.59,105.02 50.04,103.9 49.34,102.99 C48.53,101.94 48.54,101.92 49.72,101.84 C51.03,101.86 52.11,101.23 53.13,101.1 L53.13,101.1 Z M39.59,101.19 L25.5,107.15 L25.42,117.79 C33.29,112.38 36.63,106.84 39.59,101.19 L39.59,101.19 Z M60.94,100.25 C66.79,113.1 68.18,127.79 64.11,142.47 L48.32,121.79 C54.38,114.92 58.45,107.06 60.94,100.25 L60.94,100.25 Z M55.26,100 C55.58,100 55.84,100.26 55.84,100.58 C55.84,100.9 55.58,101.16 55.26,101.16 C54.94,101.16 54.69,100.9 54.69,100.58 C54.69,100.26 54.94,100 55.26,100 L55.26,100 Z M109.16,98.42 L106.39,100.03 L107.83,102.06 L110.9,100.61 L109.16,98.42 L109.16,98.42 Z M119.43,97.79 C122.71,97.88 126.16,101.49 125.81,104.46 C125.56,106.55 125.96,108.1 126.53,107.24 C127.78,105.35 131.46,106.61 131.43,108.88 C131.41,110.09 130.61,110.29 130.14,109.2 C129.46,107.58 127.55,107.54 127.27,109.23 C127.01,110.82 128.34,111.98 131.91,113.28 C136.09,114.27 138.6,118.04 137.12,120.21 C136.6,120.78 136.29,120.92 136.19,120.63 C136.16,120.54 136.06,120.09 135.96,119.63 C135.49,117.36 134.41,116.41 133.09,117.19 C132.44,117.58 132.52,118.09 132.9,118.78 C133.42,119.69 133.1,120.04 132.18,119.58 C130.73,118.85 130.25,117.11 131.66,116.31 C133.32,115.64 132.76,115.5 130.63,114.77 C126.1,113.21 124.15,110.35 123.91,104.9 C124,102.41 123.66,101.53 122.5,101.19 C121.44,100.88 120.23,102.24 121,102.95 C121.41,103.34 121.75,103.7 121.53,103.91 C120.83,104.6 119.06,103.48 119.08,102.28 C119.09,101.5 119.39,101.33 120.55,100.41 C120.88,100.16 120.6,99.67 120.13,99.67 C118.34,100.25 118.47,97.87 119.43,97.79 L119.43,97.79 Z M49.39,97.81 C44.88,108.63 38.72,118.08 26.4,126.05 L26.35,123.17 C40.19,114.78 46.17,99.05 46.17,99.04 L49.39,97.81 L49.39,97.81 Z M106.56,98 L112.1,98.1 L110.62,102.37 L104.73,102.32 L106.56,98 L106.56,98 Z M58.7,96.69 L60.45,99.72 C53.41,117.77 42.06,130.71 26.43,138.55 L26.39,135.55 C44.82,124.99 52.38,112.51 58.7,96.69 L58.7,96.69 Z M51.06,97 C51.5,97 52.03,97.54 52.63,98.6 C53.5,100.14 53.47,100.24 52.04,100.68 C49.48,101.37 48.52,101.53 49.31,99.83 C50.16,97.99 50.5,97 51.06,97 L51.06,97 Z M56.22,94.79 C56.38,94.75 55.7,98.6 54.7,99.29 C54.22,99.62 53.97,99.55 53.56,99.1 C53.27,98.79 51.98,96.66 51.98,96.66 L53.08,96.1 C54.42,98.26 54.42,97.22 54.93,95.38 L56.22,94.79 L56.22,94.79 Z M81.89,95.11 L81.22,98.31 L84.33,99.15 L84.99,96.07 L81.89,95.11 L81.89,95.11 Z M86.46,92.94 L85.67,96.2 L88.97,97.08 L89.56,93.59 L86.46,92.94 L86.46,92.94 Z M111.43,92.77 L108.86,94.93 L110.79,97.18 L113.17,95.27 C113.22,95.23 111.43,92.77 111.43,92.77 L111.43,92.77 Z M122.86,91.74 L141.67,116.3 L139.91,117.71 L121.52,93.7 L122.86,91.74 L122.86,91.74 Z M109.26,92.38 L114.97,92.41 L112.57,97.25 L106.91,97.16 L109.26,92.38 L109.26,92.38 Z M91,89.88 L90.15,93.22 L93.33,94.45 L93.91,90.48 L91,89.88 L91,89.88 Z M114.31,87.99 L111.76,89.47 L113.32,91.28 L116.14,90.2 L114.31,87.99 L114.31,87.99 Z M110.69,87.72 C107.96,92.84 104.18,98.69 102.06,108.13 L82.47,108.15 C82.43,105.99 82.16,103.83 81.84,101.68 C90.28,98.57 96.82,93.92 101.63,87.77 L110.69,87.72 L110.69,87.72 Z M111.79,87.63 L117.74,87.72 L115.44,91.56 L109.69,91.52 L111.79,87.63 L111.79,87.63 Z M127.37,85.83 L147.26,112.08 L142.34,115.76 L123.38,91.09 L127.37,85.83 L127.37,85.83 Z M97.6,86.48 L94.26,86.65 L94.37,90.04 L97.86,89.96 L97.6,86.48 L97.6,86.48 Z M25.69,100.83 L25.73,105.21 L56.41,91.96 L51.98,85.4 L25.69,100.83 L25.69,100.83 Z M54.5,84.29 C63.5,96.32 69.94,112.65 68.87,128.75 C67.83,147.48 60.78,158.27 48.4,171.24 L45.21,171.31 C59.86,157.16 66.35,145.05 66.86,129.07 C67.45,110.69 61.88,98.47 52.49,85.44 L54.5,84.29 L54.5,84.29 Z M81.89,108.72 C82.14,117.54 82.27,122.85 80.8,130.59 C80.73,131 79.15,130.64 79.15,130.64 C79.35,130.71 80.04,121.89 79.99,116.35 C79.88,105.8 78.11,95.36 73.99,84.91 C74.78,84.42 76.71,84.18 76.71,84.18 C79.31,92.11 81.61,100.63 81.89,108.72 L81.89,108.72 Z M79.18,83.71 L81.44,90.04 L79.54,90.67 L77.47,84.08 L79.18,83.71 L79.18,83.71 Z M81.77,82.73 L83.97,88.85 L82.04,89.79 L80.09,83.39 L81.77,82.73 L81.77,82.73 Z M117.17,81.82 L114.92,85.36 L118.31,85.42 L120.68,81.89 L117.17,81.82 L117.17,81.82 Z M98.32,81.67 L97.91,85.64 L101.01,86.66 L101.46,83.27 L98.32,81.67 L98.32,81.67 Z M110.2,81.21 L107.79,83.74 L109.67,86.27 L112.17,83.81 L110.2,81.21 L110.2,81.21 Z M104.82,81.28 L102.44,83.92 L104.91,86.45 L107.16,83.89 L104.82,81.28 L104.82,81.28 Z M115.24,80.78 L111.44,86.81 L101.18,86.95 C95.04,94.57 88.45,98.29 81.73,100.82 L80.42,94.31 C80.42,94.32 91.05,91.73 97.93,80.69 L115.24,80.78 L115.24,80.78 Z M116.31,80.73 L123.15,80.71 L118.49,86.79 L112.25,86.77 L116.31,80.73 L116.31,80.73 Z M133.9,77.56 C106,103.53 107.64,136.27 127.18,162.86 L125.13,164.1 C106.78,139.34 103.46,102.72 131.5,77.45 L133.9,77.56 L133.9,77.56 Z M90.9,75.66 C92.09,76.93 93.5,77.68 95.35,77.93 C92.39,82.6 88.77,86.26 84.62,88.48 L82.51,82.5 C87.69,80.07 89.07,77.64 90.9,75.66 L90.9,75.66 Z M84.71,80.69 C84.17,80.71 83.33,81.2 82.96,81.68 C82.5,82.28 82.1,82.2 81.58,82.16 C80.97,82.15 80.04,82.28 78.77,82.86 C78.06,83.19 77.73,83.27 76.68,83.32 C76,83.35 75.31,83.45 75.16,83.53 C75.01,83.61 74.52,83.78 74.07,83.91 C73.15,84.18 73.48,84.45 74,85.63 C76.68,92.53 78.59,100.58 79.29,107.12 C80.07,114.64 79.84,123.75 78.79,130.71 C76.24,130.72 74.63,130.59 71.93,130.64 C70.1,145.68 65.11,157.63 55.14,168.38 L82.09,168.45 C85.17,160.16 99.26,153.83 99.72,154.3 L100.47,157.32 C100.47,157.32 90.33,158.78 83.51,171.73 C84.21,171.31 86.75,171.6 88.42,173.35 C91.78,169.08 97.28,166.28 97.31,166.34 L97.49,165.83 C97.49,165.83 98.5,165.48 99.39,165.31 C99.67,165.26 100.26,165.15 100.64,165.01 C101.24,164.8 101.54,164.58 102.46,164.66 C104.38,164.84 106.31,164.28 106.27,164.27 C100.55,148.39 99.2,134.05 101.43,117.39 C103.54,117.41 108.16,117.49 108.16,117.49 C108.63,112.81 109.21,108.13 110.64,103.71 C112.47,98.03 114.68,92.76 118.24,87.94 C120.25,84.91 122.01,82.76 124.09,79.92 L97.71,79.98 C94.22,85.89 87.49,90.82 82.09,92.88 C80.25,93.57 79.99,93.47 79.68,92.6 C79.14,91.04 79.16,91.11 80.6,90.69 C81.08,90.56 82.62,89.74 85.02,88.61 C90.11,86.01 93.61,81.24 95.67,78.03 C96.49,76.75 95.94,77.04 94.54,77.03 C93.26,76.93 92.67,76.53 91.52,75.45 C91.1,75.05 90.91,74.76 90.72,74.79 C89.21,76.96 86.69,79.83 84.71,80.69 L84.71,80.69 Z M136.17,55.01 C136.22,55.01 136.25,55.02 136.29,55.04 C136.91,55.39 136.81,56.42 136.07,57.19 C135.19,58.11 134.42,57.41 135.03,56.25 C135.42,55.51 135.88,55.02 136.17,55.01 L136.17,55.01 Z M132.48,53.78 C132.69,53.76 133.07,53.91 133.64,54.19 C133.98,54.36 134.56,54.67 134.68,54.94 C134.91,55.41 134.54,56.11 134.06,56.69 C133.74,57.08 133.44,56.79 132.83,55.5 C132.33,54.47 132.13,53.8 132.48,53.78 L132.48,53.78 Z M134.72,50.53 C134.79,50.53 134.85,50.55 134.9,50.6 C135.28,50.92 135.86,53.68 135.62,53.97 C135.27,54.38 133.44,53.84 133.03,53.19 C132.64,52.57 134.05,50.53 134.72,50.53 L134.72,50.53 Z M131.57,49.48 C131.72,49.46 132.2,49.78 132.66,50.05 C133.45,50.52 133.46,50.73 132.79,51.61 C131.99,52.64 131.59,52.48 131.47,50.68 C131.42,50.02 131.37,49.51 131.57,49.48 L131.57,49.48 Z M134.4,47.15 C134.56,47.15 134.69,47.19 134.79,47.27 L134.92,50.02 C134.93,50.27 132.79,49.93 132.5,48.88 C132.15,48.21 133.57,47.13 134.4,47.15 L134.4,47.15 Z M132.05,44.59 C132.28,44.59 132.65,45.16 133.09,45.89 C133.44,46.47 133.37,46.69 132.6,47.39 C131.46,48.55 131.24,48.17 131.49,46.2 C131.62,45.23 131.79,44.59 132.05,44.59 L132.05,44.59 Z M135.22,43.6 L134.77,46.42 C134.74,46.66 132.82,45.09 133,44.3 C133.34,43.37 134.51,43.57 135.22,43.6 L135.22,43.6 Z M137.23,41.64 L139,43.14 C138.02,45.69 137.38,48.94 139.34,53.59 C139.13,53.61 137.86,54.87 137.46,55.08 C136.34,54.61 133.87,45.38 137.23,41.64 L137.23,41.64 Z M133.26,41.13 C133.47,41.13 133.68,41.34 133.94,41.78 C134.42,42.61 134.36,42.77 133.41,43.08 C132.17,43.48 132.08,43.39 132.48,42.27 C132.75,41.51 133,41.14 133.26,41.13 L133.26,41.13 Z M111.13,40.12 L113.74,42.1 C111.78,42.2 109.57,42.28 107.38,41.4 L111.13,40.12 L111.13,40.12 Z M135.44,39.81 C135.55,39.81 135.66,39.82 135.76,39.83 L136.61,40.92 L135.61,42.52 C135.61,42.52 134.72,41.7 134.28,40.9 C134.03,40.38 134.7,39.85 135.44,39.81 L135.44,39.81 Z M95.54,42.8 C103.79,45.92 112.88,49.04 118.84,46.25 C118.84,46.25 118.88,47.43 118.2,47.77 C118.2,47.77 117.57,48.28 115.46,48.58 C105.81,49.37 99.55,45.35 91.76,42.97 C88.81,42.07 84.07,40.98 79.19,40.78 C76.3,40.64 71.87,41.06 71.87,41.06 C70.91,40.98 70.92,40.41 70.91,39.85 C79.3,38.72 87.01,39.56 95.54,42.8 L95.54,42.8 Z M134.54,38.37 L134.99,38.98 C135.18,39.25 133.73,39.39 133.98,39.08 L134.54,38.37 L134.54,38.37 Z M99.9,37.77 L102.17,40.19 C100.46,39.66 98.8,39.06 97.26,38.31 L99.9,37.77 L99.9,37.77 Z M98.33,40.54 C105.25,42.58 110.78,45.77 118.77,42.93 L118.81,44.5 C113.72,47.78 103.59,44.31 96.75,41.77 C85.74,37.68 77.18,37.92 71.06,38.38 C70.52,38.28 70.09,36.86 70.96,36.85 C82.4,36.72 80.55,35.29 98.33,40.54 L98.33,40.54 Z M134,36.38 L134.46,37.53 C128.49,44.88 130.33,54.53 134.65,59.68 L134.03,60.97 C128.75,55.37 126.44,43.51 134,36.38 L134,36.38 Z M134.2,61.53 C135.49,58.6 137.23,54.87 140.03,53.68 C137.94,49.5 138.22,45.32 139.7,43.03 C137.58,41.04 135.4,38.66 134.05,35.24 C127.35,41.19 126.28,53.42 134.2,61.53 L134.2,61.53 Z M121.29,35.51 L120.53,37.09 C120.09,36.59 119.96,35.54 121.29,35.51 L121.29,35.51 Z M89.3,34.65 L91.01,36.32 L87.42,35.56 L89.3,34.65 L89.3,34.65 Z M77.87,33.57 L79.91,34.86 L76.26,34.84 L77.87,33.57 L77.87,33.57 Z M152.66,30.54 L152.71,93.11 L146.25,86.66 L145.94,37.64 L152.66,30.54 L152.66,30.54 Z M68.04,30.15 C68.29,30.63 68.32,31.43 68.05,30.95 C67.91,30.7 67.16,29.57 67.2,29.54 C67.54,29.51 67.89,29.87 68.04,30.15 L68.04,30.15 Z M78.86,27.94 C79.08,28.34 78.99,28.9 78.62,29.35 C77.07,31.29 81.94,34.66 85.45,34.07 C88.11,33.63 90.39,32.01 89.41,30.78 C88.61,29.78 89.13,28.77 90.09,28.78 C91.08,28.79 91.87,29.58 91.01,30.66 C89.11,33.07 92.01,35.9 96.45,35.95 C99.59,36 100.64,35.22 100.47,32.97 C100.39,31.91 100.59,31.62 101.32,31.46 C102.49,31.2 103.07,32.55 102.11,33.57 C100.02,35.78 102.39,39.04 106.33,39.25 C107.78,39.32 108.06,39.25 109.67,38.33 C110.93,37.62 111.37,36.54 110.75,35.7 C109.96,34.62 111.03,33.33 112.27,33.86 C113.15,34.24 113.58,34.92 112.61,36.08 C111.32,37.6 111.93,38.85 114.4,39.69 C116.33,40.35 117.66,40.27 118.56,39.44 C118.84,39.18 119.46,38.65 119.45,38.81 C118.85,39.86 118.31,40.84 118.31,40.84 C114.28,42.65 111.14,39.26 111.24,39.14 C107.09,41.55 103.41,41.04 100.3,36.99 C99.49,37.44 93.7,38.5 89.52,33.88 C85.3,36.01 81.38,35.12 77.89,32.74 C75.32,35.18 72.61,35.57 69.79,34.39 L68.95,32.7 C69.16,32.62 70.07,34.4 74.48,33.57 C75.96,33.29 78.51,30.79 77.09,29.56 C76.43,28.63 76.41,28.21 76.99,27.65 C77.56,27.09 78.53,27.38 78.86,27.94 L78.86,27.94 Z M152.66,29.1 L145.07,36.98 L145.16,85.47 L143.21,83.54 L143.21,36.35 L152.68,26.36 L152.66,29.1 L152.66,29.1 Z M153.57,94.41 C153.57,94.41 153.47,47.35 153.33,24.62 L142.6,35.71 L142.64,83.41 L153.57,94.41 L153.57,94.41 Z M135.2,76.59 L131.08,76.65 C128.2,79.62 107.28,99.02 110.8,128.33 C112.31,140.86 115.78,151.71 125.08,164.52 L127.56,163.05 L127.94,163.31 L153.7,148.39 L153.71,143.86 L123.81,156.49 C123.22,155.85 122.87,155.14 122.37,154.36 L134.35,149.23 C134.35,149.23 134.64,148.5 134.73,148.16 C138.67,138.13 146.67,130.86 153.64,125.25 C153.6,115.37 153.56,94.69 153.56,94.69 L135.54,76.63 C133.23,78.75 131.18,80.94 129.14,83.31 L149.82,110.72 L147.98,111.92 L127.52,84.66 C129.94,81.72 132.57,79.16 135.2,76.59 L135.2,76.59 Z M129.47,21.56 L123.77,31.47 C120.73,30.91 120.01,33.49 119.97,33.85 C116.01,32.83 116.62,38 118.6,38.35 C118.73,39.09 115.35,40.03 113.57,38.27 C116.31,38.64 117.28,34.99 113.93,34.18 C118.34,30.88 110.07,25.95 109.97,32.77 C106.08,32.08 106.59,37.25 109.06,37.66 C107.79,39.06 104.08,39.1 102.15,36.14 C105.44,37.87 107.23,33.42 103.8,32.17 C108.03,28.44 99.75,24.99 99.95,31.03 C96.82,29.17 94.68,33.91 98.84,34.64 C98.61,35.5 93.15,35.5 91.77,33.29 C95.63,34.18 95.81,29.44 92.4,29.05 C95.83,24.67 87.13,22.46 88.59,28.44 C85.23,27.1 83.96,31.32 87.23,32.67 C87.41,33.34 81.93,33.92 80.01,31.49 C84.22,30.86 82.75,26.74 80.02,27.07 C80.02,27.07 80.06,26.96 80.21,26.55 C81.5,22.43 74.57,22.08 75.53,26.46 C75.69,26.86 75.86,27.4 75.86,27.4 C73.95,27.01 72.78,27.79 72.92,29.59 C73.39,31.99 74.65,31.81 76.26,31.34 C76.93,32.05 72.38,34.42 69.52,32.3 C73.02,31.29 71.25,27.16 68.32,27.71 C68.2,26.4 66.78,24.55 64.92,25.45 L62.96,21.56 L129.47,21.56 L129.47,21.56 Z M61.88,20.3 L64.59,25.44 L64.12,25.76 C64.86,27 65.49,28.39 66.24,29.62 L66.79,29.56 C67.68,31.28 68.04,31.91 69.2,33.95 L68.68,33.95 C68.95,34.85 69.64,35.45 69.66,36.1 C69.67,36.91 69.46,37.73 69.95,38.28 C70.54,38.93 70.61,39.11 70.49,39.49 C70.17,40.49 71.07,41.61 71.99,41.51 C78.48,40.64 85.1,41.38 91.71,43.39 C96.46,44.9 100.68,46.59 104.68,47.78 C105.94,48.16 108.48,48.75 110.67,48.92 C116.75,49.36 120.17,48.12 119.14,45.57 C119.06,45.37 118.88,45.22 118.86,45.11 C118.83,44.92 118.86,44.71 119.21,44.43 C120.2,43.4 119.65,42.65 119.04,41.52 C119.04,41.52 126.85,27.48 130.75,20.48 L61.88,20.3 L61.88,20.3 Z" id="Fill-607" fill="#12130F"></path>
        <path d="M48.45,64.67 C44.32,57.84 39.98,51.2 34.54,45.53 C39.98,39.86 44.32,33.22 48.45,26.39 C52.58,33.22 56.93,39.86 62.36,45.53 C56.93,51.2 52.58,57.84 48.45,64.67" id="Fill-608" fill="#C0242A"></path>
        <path d="M14.65,56.12 C12.93,53.27 11.12,50.51 8.86,48.15 C11.12,45.78 12.93,43.02 14.65,40.17 C16.37,43.02 18.18,45.78 20.45,48.15 C18.18,50.51 16.37,53.27 14.65,56.12" id="Fill-609" fill="#C0242A"></path>
        <path d="M130.54,184.63 C126.41,191.46 122.06,198.1 116.63,203.77 C122.06,209.44 126.41,216.08 130.54,222.91 C134.67,216.08 139.02,209.44 144.45,203.77 C139.02,198.1 134.67,191.46 130.54,184.63" id="Fill-610" fill="#C0242A"></path>
        <path d="M164.34,193.17 C162.62,196.02 160.81,198.78 158.55,201.15 C160.81,203.51 162.62,206.28 164.34,209.12 C166.06,206.28 167.87,203.51 170.14,201.15 C167.87,198.78 166.06,196.02 164.34,193.17" id="Fill-611" fill="#C0242A"></path>
        <polyline id="Fill-612" fill="#C0242A" points="15.29 34.77 17.93 34.77 14.05 25.05 11.08 29.16 11.1 34.77 13.18 34.77 13.18 37.67 5.84 37.67 5.84 34.77 8.26 34.77 8.26 13.88 5.84 13.88 5.84 11.36 13.29 11.36 13.29 13.97 11.23 13.97 11.19 24.16 17.7 13.88 15.4 13.88 15.4 11.36 23.33 11.36 23.33 13.88 21.24 13.88 15.88 22.28 21.12 34.78 23.45 34.78 23.46 37.67 15.31 37.67 15.29 34.77"></polyline>
        <polyline id="Fill-613" fill="#C0242A" points="163.71 214.52 161.06 214.52 164.95 224.24 167.91 220.13 167.89 214.52 165.81 214.52 165.81 211.63 173.15 211.63 173.15 214.52 170.73 214.52 170.73 235.42 173.15 235.41 173.15 237.94 165.7 237.94 165.7 235.32 167.76 235.32 167.8 225.14 161.3 235.41 163.59 235.41 163.59 237.94 155.67 237.94 155.67 235.41 157.76 235.41 163.11 227.01 157.87 214.52 155.54 214.52 155.53 211.62 163.68 211.62 163.71 214.52"></polyline>
    </g>
</svg>