<?xml version="1.0" encoding="UTF-8" standalone="no"?>
<svg width="179px" height="250px" viewBox="0 0 179 250" version="1.1" xmlns="http://www.w3.org/2000/svg" xmlns:xlink="http://www.w3.org/1999/xlink">
    <!-- Generator: Sketch 39.1 (31720) - http://www.bohemiancoding.com/sketch -->
    <title>KS</title>
    <desc>Created with Sketch.</desc>
    <defs></defs>
    <g id="Page-1" stroke="none" stroke-width="1" fill="none" fill-rule="evenodd">
        <path d="M9.11,0.87 L169.88,0.87 C174.58,0.87 178.39,4.68 178.39,9.38 L178.39,241.02 C178.39,245.71 174.58,249.52 169.88,249.52 L9.11,249.52 C4.41,249.52 0.6,245.71 0.6,241.02 L0.6,9.38 C0.6,4.68 4.41,0.87 9.11,0.87" id="Fill-296" fill="#FFFFFF"></path>
        <path d="M14.32,40.72 C10.88,45.09 7.21,47.61 7.15,51.02 C7.13,52.12 7.8,54 9.89,54.36 C11.25,54.59 13.12,53.61 13.16,51.62 C13.15,51.22 13.63,51.23 13.63,51.77 C13.56,53.35 13,55.18 12.07,56.67 L16.56,56.67 C15.63,55.18 15.07,53.35 15,51.77 C15,51.23 15.48,51.22 15.47,51.62 C15.51,53.61 17.38,54.59 18.74,54.36 C20.83,54 21.5,52.12 21.48,51.02 C21.42,47.61 17.75,45.09 14.32,40.72" id="Fill-298" fill="#0A0A08"></path>
        <path d="M164.68,209.67 C161.24,205.3 157.57,202.78 157.51,199.37 C157.49,198.27 158.16,196.39 160.25,196.03 C161.61,195.8 163.48,196.78 163.52,198.78 C163.51,199.18 163.99,199.17 163.99,198.62 C163.92,197.05 163.37,195.21 162.43,193.72 L166.93,193.72 C165.99,195.21 165.43,197.05 165.37,198.62 C165.36,199.17 165.84,199.18 165.83,198.78 C165.87,196.78 167.74,195.8 169.1,196.03 C171.2,196.39 171.87,198.27 171.84,199.37 C171.78,202.78 168.11,205.3 164.68,209.67" id="Fill-299" fill="#0A0A08"></path>
        <polyline id="Fill-300" fill="#0A0A08" points="14.95 35.32 17.59 35.32 13.71 25.61 10.74 29.71 10.76 35.32 12.85 35.32 12.85 38.22 5.5 38.22 5.5 35.32 7.92 35.32 7.92 14.43 5.5 14.44 5.5 11.91 12.95 11.91 12.95 14.52 10.9 14.52 10.85 24.71 17.36 14.44 15.06 14.44 15.06 11.91 22.99 11.91 22.99 14.44 20.9 14.44 15.54 22.83 20.79 35.33 23.11 35.33 23.13 38.22 14.97 38.22 14.95 35.32"></polyline>
        <polyline id="Fill-301" fill="#0A0A08" points="164.04 215.07 161.4 215.07 165.28 224.79 168.25 220.68 168.23 215.07 166.14 215.07 166.14 212.18 173.49 212.18 173.49 215.07 171.07 215.07 171.07 235.97 173.49 235.96 173.49 238.49 166.04 238.49 166.04 235.87 168.09 235.87 168.14 225.69 161.63 235.96 163.93 235.96 163.93 238.49 156 238.49 156 235.96 158.09 235.96 163.45 227.56 158.2 215.07 155.88 215.07 155.86 212.17 164.02 212.17 164.04 215.07"></polyline>
        <path d="M120.61,42.96 L133.37,21.72 L62.32,21.66 L74.38,44.22 C84.22,41.93 100.41,39 120.61,42.96 L120.61,42.96 Z M112.09,52.08 C112.09,52.38 112.35,52.19 112.99,51.78 C115.34,50.38 116.7,50.58 118.72,51.25 C119.17,51.4 119.44,50.92 118.96,50.52 C116.57,48.54 113.62,49.8 112.09,52.08 L112.09,52.08 Z M119.31,50.07 C119.55,49.99 119.48,49.64 119.42,49.19 C118.36,47.71 115.74,48.17 114.8,48.46 C113.71,48.82 113.44,48.68 112.7,48.34 C112.09,48.23 112,48.38 111.85,48.67 C111.72,48.93 111.7,49.42 111.66,50.28 C111.62,51 111.65,51.34 111.9,51.11 C112.87,50.24 113.99,49.14 115.63,49.07 C117.61,48.99 119.31,50.1 119.31,50.07 L119.31,50.07 Z M118.97,53.76 C119.23,53.21 119.2,52.72 118.8,52.72 C118.49,52.72 118.4,52.97 118.31,53.5 C118.15,54.44 118.54,54.62 118.97,53.76 L118.97,53.76 Z M114.07,54.33 C113.74,53.34 113.88,52.98 113.03,53.42 C112.38,53.76 111.99,54.12 112.91,54.56 C113.72,54.91 114.28,54.95 114.07,54.33 L114.07,54.33 Z M117.98,52.65 L117.34,52.65 C117.36,54.87 115.4,55.49 114.68,52.83 L114.11,52.96 C114.87,56.72 118.35,55 117.98,52.65 L117.98,52.65 Z M121.06,66.36 C121.3,65.51 120.86,62.11 120.31,60.92 C120.09,60.44 119.69,60.4 119.74,60.95 C119.75,62.13 119.62,64.36 119.74,65.02 C120.34,66.41 120.8,67.29 121.06,66.36 L121.06,66.36 Z M120.01,56.98 C119.86,56.9 119.87,56.96 119.8,57 C119.58,57.16 119.73,57.96 120.24,59.2 C121.6,61.41 121.76,65.71 121.67,67.32 C121.65,67.81 121.6,68.08 121.74,68.52 C121.89,68.94 122.14,69.43 122.55,68.61 C123,65.43 122.64,62.1 121.43,59.4 C121.01,58.44 120.59,57.51 120.01,56.98 L120.01,56.98 Z M82.97,70.07 C84.64,68.34 85.89,66.1 86.8,63.31 C88.78,57.04 90.42,49.84 91.01,44.21 C91.01,44.21 89.59,44.06 89.27,44.36 C89.04,44.58 89.26,44.78 88.65,48.9 C87.63,54.9 86.15,60.86 84,66.02 C83.12,68.11 82.87,68.37 82.25,69.45 C81.38,70.98 81.7,71.37 82.97,70.07 L82.97,70.07 Z M63.83,73.99 C64.97,73.84 66.42,72.92 67.47,71.48 C69.62,68.65 71.11,65.42 72.21,62.91 C73.09,60.89 74.69,56.52 75.12,54.94 C76.04,51.58 76.54,49.41 76.96,47.01 C77,46.79 77.03,46.44 76.97,46.32 C76.52,46.2 75.52,46.27 75.22,46.58 C74.67,50.44 73.39,54.3 72.46,57.52 C70.89,62.99 66.41,71.74 63.96,72.15 C62.65,72.37 61.14,71.22 61.39,70.04 C61.53,69.31 61.63,69.04 61.99,68.86 C62.84,68.55 63.33,69.14 62.4,69.52 C61.32,70.47 63.26,71.92 64.46,70.91 C66.49,69.19 63.51,65.9 61.07,67.41 C58.37,69.08 59.06,71.99 60.76,73.36 C61.62,74.06 62.61,74.16 63.83,73.99 L63.83,73.99 Z M119.03,75 C119.63,74.36 119.69,73.6 119.02,72 C118.83,71.54 118.74,71.29 118.52,71.35 C118.05,71.49 117.5,72.73 117.83,73.79 C118.25,75.17 118.5,75.57 119.03,75 L119.03,75 Z M65.19,75.74 C69.1,74.89 72.62,68.57 74.84,62.92 C76.86,57.24 79.01,50.99 79.35,45.79 C79.35,45.79 77.88,45.85 77.7,46.16 C77.53,46.46 77.45,47.12 77.3,48.05 C76.28,52.84 75.47,56.48 73.69,60.98 C72.46,64.11 71.11,67.65 67.77,72.4 C66.67,73.73 65.42,74.55 63.84,74.78 C63.44,74.83 62.76,74.76 62.59,74.88 C62.29,75.09 62.56,75.57 63.33,75.77 C64.03,75.94 64.73,75.83 65.19,75.74 L65.19,75.74 Z M119.72,76.89 C121.38,75.93 121.54,74.28 120.42,71.28 C119.96,70.05 119.39,69.18 119.08,69.17 C118.95,69.96 118.84,70.38 118.98,70.68 C119.11,70.97 119.33,71.4 119.48,71.77 C120.43,73.98 120.18,75.26 119.26,75.95 C118.41,76.6 118.95,77.14 119.72,76.89 L119.72,76.89 Z M115.29,80.33 C115.6,79.74 115.22,78.3 115.02,77.35 C114.83,76.83 114.62,76.7 114.27,76.78 C113.76,76.91 113.78,77.48 113.97,78.42 C114.35,80.32 114.56,80.56 115.29,80.33 L115.29,80.33 Z M115.69,82.47 C117.14,81.8 117.43,80.61 116.65,77.74 C116.51,77.23 116.35,76.62 116.29,76.39 C116.13,75.68 115.81,75.6 115.39,76.17 C115.14,76.5 115.37,76.58 115.75,78.16 C116.34,80.54 116,81.33 115.12,81.32 C114.34,81.32 113.73,80.67 113.51,79.12 C113.44,78.6 113.33,78.24 113.2,78.02 C112.99,77.67 112.73,77.73 112.53,78.13 C112.26,78.63 112.76,80.72 113.42,81.73 C114.15,82.75 114.64,82.95 115.69,82.47 L115.69,82.47 Z M149.64,41.4 L144.71,36.77 L139.83,41.33 C139.8,63.1 139.95,107.78 139.95,107.78 L144.8,108.13 C144.8,108.13 145.16,107.12 144.7,104.48 C144.02,100.53 144.06,95.7 145.16,88.35 C145.84,83.85 145.17,79.94 144.13,75.83 C143.23,73.08 143.2,70.55 143.36,68.09 C143.71,64.18 144.77,61.23 144.9,55.6 C144.98,52.4 144.83,49.26 144.94,45.3 C144.99,44.77 145.21,44.84 145.25,45.38 C145.4,48.96 145.54,52.37 145.57,55.86 C145.47,60.41 144.36,65.09 144.24,69.25 C144.15,72.13 144.1,73.13 145.31,76.64 C147.21,82.16 145.96,90.63 145.94,90.79 C145.13,96.22 144.55,103.16 147.27,108.36 L149.9,108.6 L149.64,41.4 L149.64,41.4 Z M152.85,108.34 L152.85,21.98 L134.64,21.98 L120.18,44.92 L120.16,50.55 C120.16,50.75 120.49,50.87 120.7,50.63 C121.52,49.98 121.21,50.66 120.26,52.11 C119.31,53.57 119.6,54.78 120.64,56.34 C122.86,59.66 124.01,65.74 123.07,68.96 C122.71,70.17 122.63,70.66 122.87,71.34 C123.13,72.12 123.29,72.53 124.06,73.04 C124.73,73.5 130.23,75.66 139.08,81.4 L139.04,40.92 L144.62,35.53 L150.51,41.21 L150.72,108.05 C150.72,108.75 152.85,109.39 152.85,108.34 L152.85,108.34 Z M119.34,136.14 C122.45,132.89 122.72,129.08 119.81,128.21 C118.2,127.72 115.62,128.9 115.61,130.11 C115.6,130.87 115.75,131 116.4,130.73 C119.15,129.7 121.33,132.37 118.8,135.42 C118.19,136.31 118.11,136.53 118.28,136.72 C118.49,136.93 118.66,136.85 119.34,136.14 L119.34,136.14 Z M130.22,138.96 C130.03,138.38 128.63,135.89 128.33,135.97 C128.02,136.61 128,137.45 127.62,138.13 C127.1,139.15 127.17,138.99 128.81,138.98 C130.03,138.98 130.18,139.15 130.22,138.96 L130.22,138.96 Z M123.73,141.21 C127.43,139.05 128.84,135.97 126.93,133.92 C125.2,132.08 122.34,133.15 119.69,136.5 C118.47,138.04 119.39,137.84 121.03,136.38 C122.94,134.68 125.37,135.5 125.36,137.63 C125.35,138.53 124.08,140.06 122.87,140.77 C122.5,140.99 122.44,141.33 122.58,141.55 C122.72,141.78 123.02,141.63 123.73,141.21 L123.73,141.21 Z M133.41,146.9 C133.51,146.13 132.65,143.47 132.28,144.09 C132.18,144.25 131.84,145 131.4,145.39 C130.14,146.53 130.38,146.1 131.63,146.44 C132.33,146.64 133.31,147.13 133.41,146.9 L133.41,146.9 Z M127.24,146.94 C130.9,145.68 132.6,143.71 131.77,141.51 C130.78,138.92 127.59,138.89 124.38,141.3 C122.88,142.41 123.11,142.82 124.56,142.26 C126.44,141.39 127.65,141.25 128.43,141.94 C129.82,143.2 128.88,145.38 126.77,146.16 C125.74,146.59 125.41,146.83 125.41,147.14 C125.41,147.63 125.6,147.51 127.24,146.94 L127.24,146.94 Z M130.94,153.27 C133.18,152.56 134.37,151.47 134.12,149.66 C133.74,146.99 131.53,146.43 127.39,147.47 C125.4,147.97 125.22,148.91 127.11,148.43 C129.5,147.81 131.37,148.74 131.12,150.5 C130.97,152.02 129.76,152.91 127.63,152.91 C126.51,152.91 126.16,153.01 126.31,153.42 C126.41,153.7 130.01,153.57 130.94,153.27 L130.94,153.27 Z M134.21,152.44 C133.52,152.89 132.94,153.36 132.05,153.76 C131.52,154 131.5,154.06 132.23,154.46 C132.58,154.65 133.15,155.01 133.37,155.25 C133.75,155.66 134.21,155.82 134.38,155.67 C134.36,155.02 134.58,152.87 134.21,152.44 L134.21,152.44 Z M124.34,160.29 C126.27,155.91 127.29,144.43 116.23,136.13 L116.6,138.43 C123.12,144.18 124.68,151.51 123.33,158.23 L124.34,160.29 L124.34,160.29 Z M132.59,160.73 C134.31,159.7 134.69,156.99 133.09,155.7 C132.71,155.4 132.04,154.99 131.24,154.74 C129.61,154.24 127.26,154.02 126.4,154.28 C126.22,154.5 126.21,154.84 126.4,154.95 C126.63,155.04 127.07,155.09 127.69,155.16 C130.09,155.4 131.27,156.12 131.15,157.83 C131.03,159.6 129.63,160.27 127.11,159.72 C125.75,159.42 125.12,159.56 125.66,159.88 C126.31,160.26 127.71,160.76 129.08,161.03 C130.25,161.24 131.59,161.32 132.59,160.73 L132.59,160.73 Z M132.76,163.86 C132.98,162.96 133.3,162.2 133.45,161.68 C133.67,160.86 133.39,161.05 132.86,161.18 C131.48,161.9 130.49,161.51 131.16,162.5 C131.91,163.82 132.52,164.84 132.76,163.86 L132.76,163.86 Z M130.49,167.66 C132.99,165.92 131.96,162.79 128.67,161.63 C128.28,161.5 127.85,161.33 127.71,161.27 C126.2,160.53 125.02,160.31 125.02,160.88 C125.02,161.22 125.47,161.39 126.92,162.1 C129.07,163.16 129.55,164.37 128.5,165.91 C127.73,167.02 129.16,168.28 130.49,167.66 L130.49,167.66 Z M64.75,172.9 C65.12,172.52 65.1,172.69 64.67,171.35 C64.18,169.82 63.92,169.5 63.4,170.03 C63.07,170.35 63.24,170.7 63.61,171.96 C64.04,173.41 64.15,173.49 64.75,172.9 L64.75,172.9 Z M63.34,173.99 C63.63,173.7 63.38,173.28 62.84,171.65 C62.38,170.25 62.59,169.29 63.47,169.01 C64.72,168.7 65.17,170.78 65.43,171.65 C65.57,172.33 66.01,172.51 66.4,172.04 C66.51,171.91 66.54,171.8 66.36,171.07 C65.54,167.85 64.48,166.83 62.77,167.63 C61.19,168.37 61.39,170.03 62.54,173.53 C62.7,173.99 62.8,174.34 62.91,174.39 C63,174.43 63.18,174.15 63.34,173.99 L63.34,173.99 Z M60.79,177.95 C61.52,176.47 60.83,174.55 59.83,175.21 C59.18,175.63 59.15,176.08 59.55,177.31 C60.03,178.81 60.32,178.91 60.79,177.95 L60.79,177.95 Z M59.76,180.85 C59.8,180.66 59.88,179.94 59.91,179.79 C59.94,179.64 59.63,179.21 59.29,178.35 C58.42,176.11 58.4,175.17 59.35,174.52 C59.66,174.34 59.98,174.33 60.02,174.13 C60.1,173.8 60.09,173.26 59.9,173.11 C58.54,173.12 57.91,173.92 57.67,174.68 C57.31,175.88 57.69,177.64 58.76,179.83 C59.27,180.51 59.54,181.75 59.76,180.85 L59.76,180.85 Z M59.19,183.38 C59.46,182.9 59.35,182.4 58.78,181.27 C56.51,176.81 56.22,173.77 58.59,172.66 C58.85,172.54 59.02,172.51 59.19,172.42 C59.94,172 59.66,171.24 58.54,171.55 C55.46,172.42 54.85,175.33 57.45,180.71 C58.77,183.4 58.98,183.77 59.19,183.38 L59.19,183.38 Z M58.86,189.54 C58.8,188.33 59.06,185.65 58.93,185.06 C58.76,184.29 58.3,183.59 58.05,183.41 C57.65,183.12 57.55,183.67 57.69,185.11 C58.01,188.49 58.55,191.05 58.86,189.54 L58.86,189.54 Z M58.89,193.01 C58.88,192.7 58.75,192.2 58.61,191.9 C57.55,189.72 56.97,187.14 57.09,183.94 C57.17,181.64 57.2,180.93 56.73,180.93 C56.07,181.25 55.68,185.52 56.52,189.08 C57.11,191.59 58.93,194.71 58.89,193.01 L58.89,193.01 Z M65.94,196.43 C66.86,195.91 66.54,195.27 65.3,195.03 C64.49,194.83 64.54,195.5 64.96,196.41 C65.17,196.86 65.31,196.78 65.94,196.42 L65.94,196.43 L65.94,196.43 Z M63.97,196.87 L64.59,196.82 C64.27,194.03 61.28,193.91 60.72,197.09 L61.2,197.17 C61.82,194.63 63.63,194.7 63.97,196.87 L63.97,196.87 Z M60.3,196.92 C60.67,196.65 60.76,195.54 60.47,195.48 C60.17,195.41 59.74,195.96 59.63,196.41 C59.51,197.01 59.95,197.16 60.3,196.92 L60.3,196.92 Z M63.78,199.95 C64.74,199.63 65.72,199.11 66.27,198.32 C66.79,197.56 66.78,197.45 66.38,197.6 C64.43,198.57 63.15,199.06 61.4,198.79 C59.03,198.43 58.94,198.73 60.5,199.72 C61.52,200.37 62.37,200.39 63.78,199.95 L63.78,199.95 Z M65.41,200.99 C66.1,200.93 66.55,201.06 66.75,200.88 C66.95,200.69 66.88,200.2 66.94,199.56 C67.08,198.21 66.94,198.28 66.1,199.16 C64.71,200.61 62.18,201.17 60.67,200.29 C59.91,199.85 59.38,199.54 59.31,199.91 C59.23,200.34 59.34,200.67 59.67,200.89 C61.49,201.73 63.23,201.16 65.41,200.99 L65.41,200.99 Z M96.29,204.76 C96.76,199.84 98.27,195.32 99.54,190.8 C101.09,185.27 103.16,181.2 105.58,177.53 C106.35,176.36 107.27,175.26 108.13,174.14 C108.25,174 108.36,173.76 108.33,173.66 C107.77,173.56 107.33,173.74 106.9,173.98 C106.3,174.32 105.45,175.18 104.96,175.81 C101.52,180.24 99.67,185.4 97.95,190.62 C96.3,195.63 95.11,200.45 94.88,204.99 L96.29,204.76 L96.29,204.76 Z M91.79,205.47 C92.53,196.93 95.65,185.4 100.33,177.89 C100.77,177.17 101.31,176.55 101.29,176.3 C101.23,175.57 99.42,176.83 98.03,178.99 C96.47,182.11 94.9,185.44 93.71,189.13 C92.02,194.33 90.79,199.14 90.31,205.67 L91.79,205.47 L91.79,205.47 Z M89.52,205.76 C89.83,202.24 90.58,196.28 92.9,189.35 C93.87,186.44 95.05,183.1 96.71,180.11 C97.37,179.07 97.41,178.66 96.71,179.04 C96.26,179.28 94.23,181.58 93.96,182.17 C90.85,188.79 89.41,196.74 88.27,202.81 C88.01,204.18 87.94,205.87 87.94,205.87 L89.52,205.76 L89.52,205.76 Z M152.85,228.66 L152.85,158.8 C135.42,170.91 127.8,173.32 119.61,176.29 C122.35,181.92 116.32,186.74 112.86,181.02 C109.29,185.06 104.39,199.19 104.21,203.88 C104.21,203.88 113.69,220.42 118.31,228.66 L152.85,228.66 L152.85,228.66 Z M107.17,50.3 C107.11,50.18 106.84,49.39 106.77,49.1 C106.69,48.81 106.62,48.51 106.54,48.51 C104.51,48.83 102.73,48.45 102.25,48.34 C99.18,47.6 96.22,47.75 94.01,48.62 C93.47,48.84 92.8,49.18 92.73,49.24 C92.56,49.41 92.3,49.22 92.3,49.01 C92.3,48.77 93.66,47.69 94.51,47.26 C97.12,45.96 99.87,45.74 102.88,46.55 C104.85,47.32 106.11,47.19 107.37,46.64 C107.99,46.36 107.55,47.04 107.35,47.93 C107.22,48.55 107.37,49.08 107.39,49.43 C107.47,50.28 107.38,50.7 107.17,50.3 L107.17,50.3 Z M94.5,52.72 C98.87,50.73 100.53,50.47 102.3,50.96 C102.71,51.08 103.08,51.31 103.31,51.3 C104.16,51.25 103.62,50.28 102.09,49.73 C100.35,49.1 99.24,49.39 95.89,51.15 C93.93,52.19 92.33,53.71 94.5,52.72 L94.5,52.72 Z M103.35,54.21 C104,53.81 104.14,53.54 103.71,53.11 C103.16,52.54 102.88,52.83 102.7,53.73 C102.55,54.5 102.66,54.63 103.35,54.21 L103.35,54.21 Z M98.49,54.59 C98.25,54.17 97.97,53.2 97.71,53.19 C97,53.16 96.02,53.29 96.25,53.73 C96.62,54.43 98.78,55.08 98.49,54.59 L98.49,54.59 Z M102.46,52.61 L101.86,52.61 C101.17,54.73 99.9,55.45 98.85,52.91 L98.37,52.96 C98.35,55.11 102.01,56.46 102.46,52.61 L102.46,52.61 Z M99.94,57.83 C101.15,57.07 102.32,56.4 102.74,55.95 C102.96,55.71 103.57,54.91 103.1,55.15 C100.62,56.66 97.75,55.41 95.66,54.38 C94.66,53.91 94.91,54.12 94.14,54.17 C93.62,54.21 93.2,54.32 93.11,53.94 C93.07,53.77 92.78,53.84 92.59,53.82 C91.82,53.75 92.31,52.72 93.92,51.59 C95.83,50.25 97.49,49.38 99.14,49.02 C100.86,48.64 102.61,48.85 103.89,50.1 C104.38,50.58 104.34,50.9 104.79,50.61 C105.82,49.93 105.83,50.83 104.96,51.65 C104.37,52.21 104.58,52.37 105.31,52.91 C105.66,53.17 105.37,53.41 105.18,53.78 C105.11,54.01 105.16,54.26 105.13,54.44 C104.97,55.24 101.34,58.09 100.02,58.57 C99.12,58.74 99.59,58.06 99.94,57.83 L99.94,57.83 Z M114.51,67.81 C113.46,67.54 112.56,67.13 111.47,66.93 C110.39,66.74 109.9,66.17 110.1,65.41 C110.3,64.61 111.38,64.53 113,65.53 C114.8,66.64 116.1,66.91 116.76,66.49 C118.09,65.64 117.38,64.27 116.11,63.92 C115.15,63.65 115.85,63.27 116.88,63.58 C118.53,64.21 118.57,67.23 116.87,67.86 C116.3,68.07 115.29,68.01 114.51,67.81 L114.51,67.81 Z M97.77,66.94 C96.84,65.06 98.98,62.57 100.86,63.45 C101.48,63.74 102.04,64.85 101.12,64.34 C96.84,63.47 97.91,69.79 102.5,66.45 C105.55,64.4 107.71,64.09 107.89,66.07 C107.81,66.79 107.17,66.68 106.68,66.74 C105.42,66.92 104.95,67.13 103.48,67.76 C101.25,68.47 99.07,69.05 97.77,66.94 L97.77,66.94 Z M102.54,70.49 C102.59,70.37 102.73,70.02 102.86,69.54 C103.05,68.83 103,68.3 103.17,68.39 C103.88,68.78 105.16,68.79 105.79,68.4 C106.47,67.98 107.86,67.85 108.37,68.19 C109.09,68.66 109.46,68.44 109.96,68.04 C110.54,67.59 110.54,67.78 111.58,68.15 C112.34,68.41 112.64,68.6 112.97,68.54 C113.09,68.51 113.34,68.23 113.42,68.24 C113.67,68.29 113.7,69 113.93,69.81 C114.13,70.53 114.01,70.7 113.38,70.27 C112.9,69.95 111.54,69.8 110.12,70.24 C109.07,70.56 108.83,70.43 108.06,70.3 C106.14,69.97 104.76,69.72 103.33,70.56 C102.56,71 102.29,71.24 102.54,70.49 L102.54,70.49 Z M107.6,72.29 C107.24,72.1 105.52,71.41 105.77,70.85 C105.8,70.79 105.9,70.84 105.95,70.87 C107.53,71.94 109.49,72.21 111.53,70.73 C111.87,70.42 112.13,70.63 111.94,71.01 C111.32,72.25 108.57,72.78 107.6,72.29 L107.6,72.29 Z M92.55,78.09 C91.72,77.57 91.38,76.27 91.87,75.21 C92.32,74.33 93.47,70.98 94.01,70.79 C94.87,70.76 94.41,71.49 93.34,73.56 C92.06,76.29 92.11,77.02 93.09,77.44 C94,77.82 94.43,77.03 95.77,73.84 C95.98,73.33 96.28,72.81 96.45,72.92 C96.66,72.91 97.03,73.07 96.33,74.52 C96.16,74.86 95.88,75.59 95.56,76.26 C94.65,78.24 93.61,78.75 92.55,78.09 L92.55,78.09 Z M92.39,80.22 C91.99,80.14 91.3,79.62 90.82,79.17 C89.18,77.66 89.45,75.57 91.48,71.64 C91.64,71.33 92.23,70.14 92.42,69.75 C92.76,69.05 93.09,69.33 93.09,69.79 C93.09,69.92 92.58,71.01 92.07,72.01 C89.83,76.43 89.9,78.24 92.08,79.29 C94.21,80.32 95.16,79.73 96.85,76.35 C97.83,73.82 98.31,73.78 98.26,74.74 C98.26,75.1 97.07,77.53 96.31,78.66 C95.2,80.29 94.24,80.58 92.39,80.22 L92.39,80.22 Z M101.07,82.09 C100.81,81.5 100.84,80.9 100.98,80.34 C101.29,79.07 101.79,77.84 102.39,76.78 C103.35,76.32 102.61,78.14 102.49,78.41 C101.34,80.85 101.23,81.79 102.31,82.08 C103.23,82.32 103.73,81.75 104.6,79.56 C105.05,78.44 105.23,77.94 105.39,77.88 C105.73,77.74 105.89,77.88 105.87,78.22 C105.29,79.65 104.84,81.16 103.89,82.36 C102.96,83.14 101.56,83.15 101.07,82.09 L101.07,82.09 Z M88.03,74.68 C88.45,74.23 88.82,73.49 90.32,70.37 C90.59,69.81 91.02,68.95 91.19,68.55 C91.42,67.81 92.26,67.36 91.85,68.67 C91.76,68.95 91.6,69.34 91.34,69.84 C90.84,70.75 90.37,71.87 90.01,72.59 C88.09,76.49 88.18,78.76 90.33,80.45 C91.93,82 95.31,82.18 97.1,79.67 C97.37,79.27 97.61,78.75 97.69,78.56 C98.47,76.65 99.04,75.69 99.19,75.5 C99.99,74.48 100.12,75.75 98.92,77.7 C97.56,79.94 97.53,82.36 98.71,84.07 C100.47,86.6 103.79,86.67 105.88,84.64 C106.97,83.36 107.83,81.72 108.52,79.63 C108.68,79.17 108.84,78.82 108.95,78.55 C109.12,78.13 109.37,77.98 110.02,77.85 C114.47,76.99 118.2,72.38 118.73,67.35 C118.79,66.67 118.99,65.47 119.06,64.75 C119.2,63.33 119.2,55.94 119.06,55.5 C118.98,55.26 118.85,55.14 118.56,55.14 C118.34,55.14 118.02,55.22 117.57,55.38 C116.11,55.91 115.42,56.05 114.02,55.54 C113.55,55.37 113.23,55.31 113.04,55.33 C112.42,55.38 113.24,56.28 115.05,57.28 C115.83,57.7 116.44,58.28 115.81,58.24 C115.63,58.22 113.45,57.08 113.14,56.9 C112.15,56.28 112.41,57.06 112.92,59.1 C113.61,61.84 113.21,62.61 111.07,63.69 C110.67,63.89 110.14,64.3 109.87,64.57 C108.73,66.27 109.03,65.02 109.6,64.12 C110.58,63.08 109.98,62.73 107.97,63.45 C105.69,64.26 104.65,63.67 104.01,62.38 C103.29,60.93 104.65,59.06 105.79,59.1 C106.15,59.11 106.09,59.25 105.54,59.62 C104.89,60.07 104.58,60.5 104.51,61.27 C104.38,62.84 105.49,63.51 107.04,62.46 C107.78,61.96 108.35,61.62 108.91,61.49 C109.46,61.36 110.29,61.57 110.28,62.02 C110.28,62.2 110.26,62.65 110.3,62.75 C110.44,63.25 111.23,62.54 111.57,62.29 C112.74,61.41 112.7,61.23 112.38,59.8 C111.86,57.79 111.6,55.96 111.1,53.93 C110.83,52.86 110.79,51.66 110.95,50.57 C111.03,50.03 111.24,48.91 111.28,48.14 C111.33,47.38 111.28,46.28 111.31,46.28 C112.47,47.18 112.94,47.34 114.08,46.9 C115.83,46.18 116.94,46.25 118.42,46.96 C118.97,47.23 119.46,47.42 119.46,47.42 L119.53,45.11 C119.53,45.11 118.16,44.83 115.63,44.49 C108.02,43.48 92.39,43.27 91.81,44.2 C91.66,44.43 91.51,46.08 91.1,48.37 C90.18,53.12 89.14,57.86 87.76,62.5 C87.48,63.44 87.21,63.82 87.35,63.85 C87.41,63.86 87.7,63.49 87.83,63.34 C88.57,62.48 88,64.53 86.88,67 C86.78,67.22 86.7,67.47 86.7,67.54 C86.7,67.69 85.99,69.41 85.51,70.45 C85.21,71.1 84.96,71.29 84.96,70.88 C85.3,69.46 86.2,67.62 86.33,66.35 C85.54,67.5 84.4,69.39 83.53,70.52 C83.37,70.83 83.54,70.92 83.68,71.3 C84.2,72.71 85.46,72.83 86.19,71.56 C86.6,70.85 87.86,68.17 88.3,67 C88.75,65.8 89.07,65.16 89.22,65.08 C89.52,64.93 89.58,65.61 89.05,66.75 C87.42,70.21 86.72,72.14 85.92,72.86 C85.31,73.41 84.24,73.38 83.64,72.39 C82.63,70.72 81.77,71.27 82.7,72.99 C83.65,74.76 85.84,74.93 86.98,73.33 C87.35,72.8 89.12,69.39 89.68,68 C89.99,67.23 90.32,66.62 90.43,66.58 C91.03,66.35 90.35,68.12 88.64,71.66 C88.09,73.03 87.2,74.46 86,74.91 C83.08,75.55 82.68,73.99 81.66,72.21 C81.17,71.77 80.72,72.48 80.91,73.26 C81.22,74.53 81.79,75.03 82.68,75.66 C84.53,76.85 87.1,76.04 88.03,74.68 L88.03,74.68 Z M49.08,77.25 C52.76,75.52 55.28,74.65 59.02,73.54 C59.53,73.31 59.61,73.26 59.07,72.19 C56.7,67.44 63.21,63.66 65.43,68.31 C65.72,68.94 65.79,69.28 66.08,68.98 C66.62,68.26 67.27,67.24 67.94,66.07 C70.44,62.17 71.56,57.72 72.89,53.79 C73.44,51.49 74.21,49.08 74.43,46.6 C69.49,37.91 60.8,21.98 60.8,21.98 L26.07,21.98 L26.07,91.66 C35.74,83.5 42.32,80.55 49.08,77.25 L49.08,77.25 Z M73.41,165.21 C71.5,166.38 69.55,172.03 69.55,172.03 C62.87,172.83 60.08,179.46 59.78,184.98 C59.54,189.35 59.25,194.44 59.69,194.88 C64.06,192.9 65.75,195.19 66.16,194.57 C66.35,194.3 65.19,193.41 63.74,192.61 C63.4,192.42 62.87,192.08 62.67,191.92 C62.14,191.47 63.73,191.86 64.74,192.55 C66.02,193.43 66.24,193.25 65.68,190.67 C65.08,187.87 64.98,187.52 67.11,186.41 C67.97,185.97 68.45,185.59 69.06,184.9 C69.55,184.35 69.68,184.21 69.5,185.03 C69.18,186.43 67.94,187.05 66.83,187.62 C66.27,187.91 66.04,188.49 66.04,188.98 C66.04,189.49 66.61,192.23 66.88,193.1 C67.13,193.93 67.22,194.77 67.41,195.61 C67.91,197.81 67.94,198.24 67.69,199.84 C67.54,200.78 67.46,201.31 67.51,201.88 C67.56,202.39 67.63,203.09 67.63,203.09 C67.63,203.06 66.44,201.85 63.83,202.89 C61.94,203.64 60.45,202.86 59.4,202.3 C59.15,203.17 59.21,204.11 59.24,205.11 C70.11,207.11 79.39,206.84 87.2,206.02 C87.4,203.68 88.39,196.27 90.46,189.58 C91.32,186.8 92.29,183.86 93.39,181.9 C94.14,180.57 94.9,179.67 95.17,179.51 C95.26,179.46 95.27,179.44 95.26,179.4 L95.26,179.19 C95.24,178.76 95.13,178.09 94.76,177.79 C93.86,177.06 92.42,178 91.95,179.62 C91.54,180.59 89.64,184.79 89.51,184.71 C89.4,184.64 89.13,184.64 89.23,184.31 C89.95,182.61 90.95,180.81 91.51,179.29 C92.28,177.09 93.97,175.93 95.22,177.31 C95.65,177.79 95.83,178.23 96.03,178.38 C96.17,178.49 96.38,178.41 96.5,178.23 C96.97,177.5 95.87,175.87 94.69,175.54 C92.99,175.06 91.72,176.32 89.79,180.38 C88.68,182.73 88.48,183.32 88.3,183.14 C88.26,183.15 87.97,183.15 88.08,182.7 C88.3,181.72 89.78,178.88 90.86,177.08 C92.44,174.41 95.38,174.2 96.62,176.51 C96.81,176.83 96.82,177.24 97.03,177.52 C97.41,178.02 98.04,177.92 98.19,177.1 C98.02,176.57 96.99,174.62 96.27,174.28 C94.61,173.13 92.6,173.35 90.91,174.88 C90.53,175.22 90.13,175.93 89.01,178.23 C87.36,181.91 87.31,181.93 86.86,181.33 C87.52,179.54 89.27,176.63 89.98,174.84 C90.11,174.57 90.14,174.29 90.13,174.01 C90.09,172.71 90.3,170.41 87.58,168.78 C85.25,167.52 82.19,168.84 81.14,171.33 C80.34,173.24 79.76,174.54 79.36,174.82 C78.79,175.19 78.9,174.67 78.95,174.47 C79.76,172.75 80.89,171.01 81.07,169.27 C81.19,164.58 76.47,162.84 73.41,165.21 L73.41,165.21 Z M123.44,130.5 C122.2,129.49 122.66,129.61 122.3,131.87 C122.09,133.24 121.82,133.27 123.22,132.82 C124.01,132.54 125.65,132.72 124.91,131.78 C124.92,131.79 123.69,130.71 123.44,130.5 L123.44,130.5 Z M117.09,126.41 C115.48,125.58 115.52,125.59 115.51,127.17 C115.51,128.34 115.54,128.63 115.97,128.47 C116.61,128.15 117.38,127.85 117.96,127.6 C119.08,127.21 117.66,126.72 117.09,126.41 L117.09,126.41 Z M39.84,169.1 L39.81,208.81 L33.84,214.46 C31.28,212.25 27.91,208.78 27.91,208.78 L28.02,141.65 L26.1,141.5 C25.63,170.34 26.09,199.76 26.07,228.66 L43.59,228.66 L58.19,205.63 C58.19,205.63 58.38,205.36 58.44,205.21 C58.62,204.77 58.59,204.1 58.51,201.66 C58.47,200.66 58.58,199.9 58.44,199.67 C58.29,199.43 57.98,199.6 57.69,199.73 C57.39,199.87 57.21,199.82 57.37,199.46 C57.46,199.27 57.76,198.83 58.01,198.41 C58.83,197.05 59.03,196.62 58.75,195.11 C58.68,194.74 58.35,194.43 58.05,193.99 C55.6,190.33 54.59,184.91 55.82,180.93 C56.2,179.17 56.06,178.82 55.22,177.45 L39.84,169.1 L39.84,169.1 Z M62.46,165.55 C59.34,166.35 59.24,170.12 61.31,174.93 C61.47,175.3 61.44,175.5 61.6,175.64 C61.96,175.95 62.24,175.51 62.28,175.23 C62.34,174.79 62.15,174.2 61.82,173.34 C60.54,170.01 60.84,168.09 62.12,167.24 C65.38,165.55 66.25,169.03 66.75,170.63 C66.87,171.02 66.91,171.55 67.12,171.58 C67.77,171.67 68.08,171.44 68.07,171.44 C68.07,171.44 67.21,168.44 66.68,167.32 C65.83,165.5 63.8,165.12 62.46,165.55 L62.46,165.55 Z M113.87,173.95 C105.24,175.09 99.61,201.76 99.42,203.98 C99.42,204.01 99.38,204.18 99.38,204.18 L101.1,203.83 C101.1,203.83 101.12,203.74 101.13,203.7 C102.31,196.88 103.46,192.11 106.15,185.95 C108.25,181.38 111.14,175.54 115.46,174.98 C115.81,174.93 116.14,175.07 116.02,174.66 C115.75,174.01 114.46,173.92 113.87,173.95 L113.87,173.95 Z M109.45,173.93 C105.49,177.19 102.34,184.32 100.26,190.9 C98.01,198.03 97,204.55 97.17,204.55 L98.74,204.32 C98.62,203.9 103.15,178.81 111.55,174.25 C112.28,173.88 112.43,173.51 111.81,173.35 C110.87,173.22 110.11,173.53 109.45,173.93 L109.45,173.93 Z M102.71,175.37 C99.66,179.23 98.15,183.19 96.28,188.6 C94.41,194.01 93.07,199.3 92.49,205.37 L94.13,205.15 C94.07,201.25 98.31,182.67 104.27,175.72 C104.61,175.28 104.88,174.91 104.85,174.81 C104.52,173.87 103.11,175 102.71,175.37 L102.71,175.37 Z M116.11,175.63 C113.57,175.62 111.4,178.08 109.48,181.17 C105.38,187.51 102.63,198.1 101.96,203.73 L103.5,203.43 C103.27,203.54 106.39,188.45 111.15,181.99 C113.72,177.92 113.61,177.85 115.05,177.48 C116.88,177.01 118.34,179 117.44,180.2 C117.11,180.6 116.75,180.3 116.85,179.73 C117.17,177.88 114.5,177.53 113.76,179.34 C112.9,181.42 115.18,183.28 117.41,182.46 C119.4,181.75 120.24,178.95 118.84,176.87 C118.12,176.17 117.08,175.55 116.11,175.63 L116.11,175.63 Z M69.6,75.76 C72.99,73.85 76.97,64.92 80.21,53.71 C80.77,51.79 81.78,45.37 81.78,45.37 C81.78,45.37 80.43,45.42 80.17,45.7 C79.91,46.09 79.95,47.08 79.57,49.43 C78.11,56.52 75.91,62.99 72.6,69.38 C71.17,72.21 68.79,74.88 67.29,75.64 C66.45,76.07 66.21,76.53 66.82,76.57 C67.86,76.61 67.95,76.82 68.7,76.42 L69.6,75.76 L69.6,75.76 Z M71.9,76.09 C73.4,75.23 76.05,71.5 77.92,67.47 C80.02,62.72 81.78,57.35 82.93,52.7 C83.43,50.66 84.14,45.57 84.04,45.24 C83.92,44.84 82.45,45.17 82.65,45.45 C82.65,45.45 81.19,53.63 79.62,58.13 C76.7,66.5 74.18,72.18 71.46,74.91 C71.11,75.27 70.41,75.97 70.41,75.97 C70.41,75.97 70.42,76.28 70.65,76.33 C71.19,76.43 71.55,76.27 71.9,76.09 L71.9,76.09 Z M76.58,73.83 C79.66,69.57 81.85,64.46 83.54,58.43 C84.62,54.53 85.56,50.57 86.13,46.55 C86.25,45.69 86.34,45.11 86.17,44.86 C85.76,44.74 84.98,44.81 84.71,45.02 C84.55,45.27 84.66,45.77 84.51,46.93 C84.11,49.93 83.52,52.94 82.53,56.88 C79.91,65.59 77.49,70.47 74.33,74.74 C74.07,75.1 73.84,75.34 73.87,75.49 C73.9,75.71 74.21,75.69 74.71,75.38 C75.37,74.86 76.12,74.4 76.58,73.83 L76.58,73.83 Z M79.87,72.13 C80.83,71.05 82.95,67.31 83.6,65.35 C85.61,59.52 87.71,52.81 88.3,46.6 C88.36,45.82 88.4,44.63 88.44,44.53 C88.28,44.36 87.29,44.45 86.95,44.62 C86.79,44.83 86.9,45.29 86.84,45.9 C85.95,52.87 84.29,59.22 81.83,65.69 C80.76,68.5 79.76,70.35 78.47,72.31 C78.24,72.65 77.95,73 77.84,73.2 C77.51,73.67 77.75,73.98 78.13,73.78 C78.81,73.4 79.39,72.66 79.87,72.13 L79.87,72.13 Z M122.7,73.17 C122.67,71.76 119.73,65.66 119.53,66.3 C119.53,66.3 119.52,67.73 119.63,68.29 C119.67,68.51 119.83,68.7 119.95,68.93 C122.51,73.52 122.12,76.75 119.9,77.46 C119.14,77.8 118.98,78.14 119.32,78.5 C120,79.25 121.71,77.77 122.05,77.23 C122.89,76.03 122.77,73.83 122.7,73.17 L122.7,73.17 Z M112.59,83.65 C113.46,84.49 114.94,84.91 115.9,84.61 C118.25,83.78 119.32,81.54 118.43,77.94 C117.98,75.92 117.59,74.66 117.2,74.41 C117.01,74.29 116.8,74.52 116.62,74.8 C116.46,75.05 116.71,75.4 116.97,76.35 C118.1,80.35 117.81,82.16 116.43,82.93 C114.44,84.04 112.73,82.76 112.15,79.9 C112.06,79.46 111.79,78.56 111.79,78.56 C111.63,78.17 110.4,78.25 110.85,79.58 C110.98,80.61 111.92,83.06 112.59,83.65 L112.59,83.65 Z M101.82,84.83 C100.04,84.39 98.81,82.3 99.27,80.29 C99.53,79.16 100.59,76.49 100.79,76.32 C101.58,75.69 101.48,76.53 100.75,77.98 C100.09,79.47 99.58,80.66 99.78,81.54 C100.07,82.8 100.58,83.76 101.88,84.08 C102.79,84.3 103.65,83.92 104.23,83.5 C105,82.96 105.73,81.55 106.61,79.61 C106.88,79.06 107.26,77.38 107.72,78.41 C107.95,78.94 106.09,82.47 105.39,83.36 C104.52,84.49 103.04,85.15 101.82,84.83 L101.82,84.83 Z M46.33,88.68 C47.9,87.94 49.03,88.36 47.83,87.34 C47.16,86.71 46.58,84.93 46.11,86.44 C45.75,87.34 45.49,88.94 45.48,89.09 C45.59,89.2 45.56,89.02 46.33,88.68 L46.33,88.68 Z M53.65,88.94 C53.65,88.77 53.5,88.64 53.16,88.51 C52.66,88.31 52.33,88.27 51.21,87.52 C49.72,86.5 49.27,84.54 50.26,83.44 C51.23,82.41 49.49,81.2 48.11,82.36 C46.67,83.56 46.79,85.45 48.45,86.94 C49.97,88.32 53.64,89.75 53.65,88.94 L53.65,88.94 Z M52.53,95.32 C52.53,94.98 51.98,94.93 50.17,94.66 C47.76,94.3 46.68,92.05 48.13,90.7 C48.68,90.19 50,89.97 50.73,90.1 C52.32,90.39 53.29,90.72 53.31,90.18 C53.31,89.69 52.85,89.66 49.86,89.02 C45.35,88.06 42.87,92.52 46.48,94.7 C47.85,95.53 52.52,96 52.53,95.32 L52.53,95.32 Z M51.04,102.44 C52.96,102.25 53.16,102.06 53.16,101.66 C53.16,101.26 52.93,101.34 51.96,101.47 C49.41,101.83 47.72,101.18 47.35,99.81 C46.98,98.39 48.71,97.06 51.01,97.14 C52.26,97.18 53.09,96.74 52.33,96.33 C51.93,96.11 48.5,96.16 47.72,96.38 C45.43,97.05 44.5,98.33 44.71,100.1 C45.03,102.29 46.21,102.91 49.11,102.76 C49.66,102.73 50.37,102.5 51.04,102.44 L51.04,102.44 Z M46.99,105.31 C47.09,105.15 47.36,104.78 47.61,104.39 C48.69,103.13 47.78,103.51 46.83,103.17 C46.33,102.98 45.81,102.79 45.52,102.84 C44.95,102.92 45.71,104.03 45.89,104.75 C46.4,106.34 46.35,106.29 46.99,105.31 L46.99,105.31 Z M51.88,109.97 C53.03,109.6 52.77,109.68 54.28,108.69 C56.02,107.55 56.09,106.93 54.35,107.81 C52.11,108.93 50.14,108.65 49.41,107.18 C48.76,105.87 50.11,104.23 52.35,103.6 C53.12,103.38 53.52,103.19 53.52,102.86 C53.53,101.83 49.72,103.2 48.15,104.75 C45.12,107.74 47.77,111.29 51.88,109.97 L51.88,109.97 Z M50.69,112.34 C51.59,110.61 51.62,110.8 49.88,110.78 C47.9,110.76 48.13,110.52 49.24,112.22 C50.14,113.59 49.99,113.71 50.69,112.34 L50.69,112.34 Z M62.61,113.87 L62.44,111.26 C59.61,108.8 56.93,104.61 56,101.14 C55.06,98.05 55.81,91.62 55.95,92.09 L54.42,89.18 C53.09,92.27 52.51,96.99 53.96,101.79 C55.19,105.86 57.65,110.8 62.61,113.87 L62.61,113.87 Z M59.8,112.75 C59.96,112.37 59.63,112.22 59.32,112.29 C59.29,112.3 58.75,112.71 58.11,113.21 C56.17,114.75 54.75,114.93 53.79,113.76 C52.82,112.57 53.22,111.17 55.4,109.56 C56.36,108.85 56.59,108.8 56.13,108.49 C55.78,108.26 55.76,108.29 54.38,109.23 C51.59,111.13 50.76,112.42 51.04,114.31 C51.1,115.08 51.5,115.49 51.89,115.79 C54.54,118.15 58.22,114.89 59.8,112.75 L59.8,112.75 Z M56.27,118.75 C56.22,118.13 56.4,117.45 56.48,117.25 C56.75,116.53 56.74,116.44 55.47,117.04 C54.97,117.2 54.36,117.34 54.13,117.34 C53.09,117.33 53.35,117.66 54.84,118.91 C56.33,120.16 56.38,120.27 56.27,118.75 L56.27,118.75 Z M61.93,121.27 C62.95,120.63 63.29,120.29 63.34,119.56 C63.35,118.72 63.25,118.42 62.52,119 C60.03,120.98 57.47,117.09 59.75,114.94 C60.21,114.5 60.8,113.81 60.81,113.63 C60.84,112.38 59.44,113.6 58.3,115.32 C57.03,116.88 56.24,118.83 57.36,120.71 C58.25,122.08 60.22,122.36 61.93,121.27 L61.93,121.27 Z M63.4,123.81 C63.43,123.3 63.49,122.52 63.48,121.95 C63.58,120.87 63.38,121.18 62.8,121.54 C62.37,121.82 61.68,122.25 61.4,122.38 C60.33,122.92 60.46,122.95 61.97,123.68 C63.24,124.25 63.38,124.19 63.4,123.81 L63.4,123.81 Z M44.62,97.36 C45.36,97.08 45.89,96.5 46.68,96.06 C47.2,95.77 47.04,95.81 46.37,95.42 C45.84,95.17 44.78,94.09 44.68,94.35 C44.44,94.81 44.47,97.33 44.62,97.36 L44.62,97.36 Z M145.87,120.15 C146.36,119.89 146.46,119.47 146.02,118.99 C145.23,118.31 143.85,118.84 144.29,119.83 C144.51,120.31 145.27,120.46 145.87,120.15 L145.87,120.15 Z M145.17,123.15 C146.01,122.92 146.27,122.1 145.69,121.5 C145.27,121.08 143.98,121.03 143.63,121.41 C142.74,122.39 143.74,123.54 145.17,123.15 L145.17,123.15 Z M146.1,125.43 C146.56,124.83 146.06,124.03 145.22,124.02 C144.63,124.02 144.32,124.38 144.33,124.84 C144.34,125.71 145.72,125.93 146.1,125.43 L146.1,125.43 Z M147.23,127.32 C146.91,126.95 146.35,126.73 146.03,126.88 C145.74,127.04 145.84,127.36 145.93,127.61 C146.18,128.29 147.88,128.07 147.23,127.32 L147.23,127.32 Z M145.21,127.32 C144.49,124.68 142.53,127.3 142.52,127.33 C142.45,124.62 142.96,123.42 140.94,122.49 C142.97,119.4 142.55,118.98 140.4,117.79 C140.6,117.81 143.25,117.21 143.71,115.68 C143.81,115.75 147.87,116.76 148.38,114.53 C147.15,115.09 144.74,115.18 144.71,112.78 C144.94,112.71 145.51,112.83 145.46,112.9 C145.14,114.44 147.93,114.82 148.39,113.61 C148.39,113.61 149.32,114.24 149.74,114.33 C149.78,114.37 148.47,116.2 147.27,116.48 C145.11,117.2 144.37,117.39 144.36,117.82 C144.36,117.99 144.71,118.02 145.36,118.15 C146.7,118.24 146.67,118.53 146.85,118.98 C147,119.37 147.15,119.45 147.6,119.41 C149.13,118.9 149.9,118.63 150.97,117.56 C151.1,117.53 151.25,118.69 151.33,118.73 C151.34,118.54 150.25,118.86 148.56,119.85 C147.19,120.66 146.65,120.78 146.47,121 C146.34,121.16 146.68,121.67 146.71,122.23 C146.74,122.69 146.43,122.92 146.66,123.07 C146.93,123.23 147.34,123.2 147.88,123.06 C149.06,122.77 149.94,122.3 151.01,121.64 C150.78,122.07 151.16,123.17 151.16,123.17 C151.16,123.17 150.63,122.79 150.2,122.99 C149.36,123.36 148.01,123.86 147.65,123.95 C147.29,124.03 147.14,124.08 147,124.2 C146.83,124.34 146.86,124.69 146.86,125.2 C146.86,125.56 146.75,125.89 146.98,126 C147.48,126.16 148.48,126.11 149.51,125.75 C149.95,125.56 150.87,125.05 150.87,125.05 L150.58,126.57 C150.19,126.13 149.08,126.45 148.33,126.75 C147.95,126.87 147.84,127.11 147.74,127.44 C147.58,128 147.93,128.39 148.35,128.58 C148.62,128.7 149.04,128.65 149.04,128.65 C147.11,129.39 147.49,129.67 146.36,129.11 C145.87,128.57 145.39,128.01 145.21,127.32 L145.21,127.32 Z M31.72,122.41 C31.28,122.62 31.26,123.14 31.67,123.46 C33.3,124.37 32.8,121.95 31.72,122.41 L31.72,122.41 Z M34.43,125.74 C34.5,124.92 33.69,124.4 32.95,124.79 C32.02,125.28 32.58,126.3 33.74,126.24 C34.39,126.21 34.39,126.21 34.43,125.74 L34.43,125.74 Z M34.93,129.15 C35.33,128.83 35.38,128.07 35.03,127.64 C34.44,126.89 32.9,127.34 32.82,128.28 C32.73,129.28 34.09,129.8 34.93,129.15 L34.93,129.15 Z M34.23,131.63 C34.55,131.42 34.61,130.83 34.33,130.58 C34.07,130.37 32.98,130.48 32.67,130.76 C31.98,131.31 33.25,132.24 34.23,131.63 L34.23,131.63 Z M32.49,136.62 C32.02,136.1 30.85,136.01 30.36,136.4 C30.25,136.5 30,137 29.93,136.99 C29.28,136.82 28.83,136.68 28.74,136.13 L29.43,135.07 C29.98,134.24 30.77,133.95 32.1,133.63 C32.58,133.52 33.29,133.42 33.54,133.31 C34.54,132.88 34.89,131.94 33.88,132.36 C33.14,132.56 32.1,132.5 31.96,131.82 C31.85,131.26 31.38,131.04 30.85,131.1 C29.88,131.34 28.98,131.85 28.12,132.37 C27.74,132.6 27.01,133.13 27.01,133.13 C26.9,133.31 26.47,131.99 26.87,131.6 C27.36,131.66 27.78,131.67 28.26,131.48 C29.45,131 30.59,130.42 31.79,129.96 C32.56,129.66 32.63,129.68 32.43,129.14 C32.33,128.94 32.24,128.27 32.37,127.92 C32.51,127.55 32.5,127.36 32.26,127.2 C31.72,126.84 30.42,127.17 28.6,128.06 C28.04,128.32 27.68,128.43 27.33,128.72 C27.55,128.14 27.42,128.03 27.41,127.42 C28.16,127.52 28.83,127.22 29.42,126.9 C29.91,126.65 30.46,126.39 31.81,126.22 C32.18,126.17 32.01,124.82 31.59,124.42 C31.19,124.05 30.36,124.04 29.35,124.34 C28.45,124.55 27.34,124.76 26.72,125.74 C25.94,126.48 26.74,124.5 28.16,123.71 C28.78,123.7 30.16,123.4 30.48,123.33 C31.03,123.21 31.12,121.91 30.32,121.36 C29.82,120.92 32.14,120.91 32.09,121.04 C32.07,121.12 32.04,121.67 32.22,121.81 C33.22,122.11 33.21,122.93 33.3,123.28 C34.44,125.17 35.01,123.99 35.79,123.33 C35.63,127.45 37.06,127.92 37.25,128.18 C35.28,131.87 36.77,131.96 38.61,132.81 C38.61,132.81 37.91,133.1 37.44,133.07 C36.71,133.03 35.3,133.9 34.69,134.42 C34.35,134.7 34.34,134.46 32.99,134.42 C31.71,134.39 31.62,134.48 31.03,134.74 C29.89,135.25 29.89,135.74 31.01,135.55 C32.21,135.34 33.38,136.07 33.52,137.07 C33.61,137.26 33.53,137.59 33.51,137.58 C33.26,137.53 32.7,137.62 32.71,137.5 C32.71,137.38 32.71,136.93 32.48,136.62 L32.49,136.62 L32.49,136.62 Z M39.43,168.28 C39.43,168.28 46.92,172.62 55.17,176.88 C54.39,172 56.88,171.27 59.22,170.7 C58.66,161.29 67.24,163.22 68.55,171.4 L69.39,171.4 C70.88,167.33 72.35,164.51 75.73,163.84 C78.36,163.32 80.94,164.99 81.6,168.92 C81.48,168.65 90.29,163.72 90.54,174.13 C94.54,171.63 97.39,173.79 98.55,176.96 C100.24,174.37 104.46,174.25 105.82,174.07 C106.29,173.52 107.12,173.21 108.63,173.22 C109.92,173.15 111.66,172.18 112.55,173.36 C113.92,173.58 114.95,173.33 116.11,174.24 C117.04,174.94 118.07,176.52 119.61,175.43 C122.55,174.01 125.85,173.37 128.48,171.65 C128.48,171.65 127.78,170.75 127.98,170.88 C128.06,170.93 128.38,171.36 128.88,171.55 C129.05,171.63 130.67,170.65 130.67,170.65 C119.73,157.98 110.73,133.23 116.67,110.34 C116.84,109.95 116.18,109.8 115.85,109.66 C115.95,109.49 117.56,109.72 116.88,111.18 C116.19,115.56 115.41,120.32 115.24,123.95 C115.24,124.4 115.27,124.79 115.27,124.79 C139.8,136.17 136.79,160.82 130.49,169.4 L131.49,170.73 C131.92,171.02 150.78,159.96 150.16,159.51 L153.73,157.72 L153.15,109.4 L139.04,108.31 C139.04,108.31 139.19,107.91 139.37,107.8 C139.5,104.85 139.23,100.49 139.38,96.83 C139.43,86.4 139.53,82.85 139.4,82.56 C135.05,79.68 128.56,75.46 123.1,73.42 C123.32,73.48 123.01,77.74 122.84,77.99 C117.73,79.63 120.1,81.72 118.21,83.97 C116.95,85.38 113.98,85.64 112.54,83.96 C110.83,82.29 110.03,78.47 110.03,78.47 C107.32,81.37 107.88,84.89 104.26,86.21 C98.44,89.11 96.59,80.43 96.93,80.63 C94.7,82.8 88.45,84.55 87.77,75.43 C84.96,78.03 81.8,76.74 80.46,73.53 C78.75,73.59 76.82,74.95 75.08,75.68 C73.47,76.4 71.41,76.82 69.88,76.79 C67.96,77.02 66.38,77.01 64.66,76.49 C63.85,76.76 62.02,75.96 61.45,74.83 C60.59,73.81 59.84,73.75 59.02,73.94 C56.22,75.42 53.23,75.77 49.93,77.32 C49.72,77.47 50.22,77.74 50.05,77.69 C49.98,77.66 48.32,78.51 48.32,78.51 C65.03,100.61 65.94,122.92 62.44,138.74 C62.3,139.29 62.22,139.69 62.58,140.12 C62.05,140.02 62.04,140.18 61.95,139.84 L63.68,126.56 C63.74,124.96 63.93,125.08 62.53,124.48 C61.24,123.93 60.01,123.39 58.94,122.73 C54.87,119.7 50.26,115.96 48.02,111.29 C41.61,101.27 43.73,89.3 48.52,79.82 L47.33,78.58 C33.32,85.64 25.05,93.25 25.05,93.25 L25.11,140.67 L39.51,142.34 L39.43,168.28 L39.43,168.28 Z M39.08,142.66 L33.82,142.29 C34.75,147.95 34.79,154.17 33.85,158.59 C33.05,162.36 33.04,165.14 33.28,168.41 C33.56,172.22 35.16,175.45 35.57,179.49 C35.86,182.41 35.21,185.47 34.64,188.38 C33.68,193.25 33.87,193.75 34.02,199.46 C34.15,204.75 33.66,204.56 33.35,204.25 C33.31,204.21 33.27,203.27 33.27,202.16 C33.28,201.05 33.21,198.32 33.15,196.43 C33.02,192.66 33.44,189.32 33.74,187.95 C34.36,185.16 35.05,182.29 34.62,179.2 C33.76,175.3 32.54,171.4 32.11,167.64 C31.58,163 32.88,158.34 33.31,154.97 C33.72,151.72 33.28,146.09 32.44,143.75 C32.29,142.97 31.6,141.96 31.6,141.96 C30.8,141.84 30.01,141.73 28.89,141.74 C28.83,164.08 28.89,186.43 28.91,208.77 L33.82,213.35 L38.86,208.53 L39.08,142.66 L39.08,142.66 Z M75.95,172.89 C75.95,172.74 76.18,172.3 76.43,171.69 C77.47,169.09 77.48,168.3 75.96,168.27 C75.05,168.38 74.91,168.76 74.11,170.8 C73.85,171.47 73.71,171.94 73.56,172.15 C73.39,172.36 73.08,172.23 72.95,172.1 C72.63,171.77 74.05,168.41 74.81,167.78 C76.54,166.27 78.78,168.42 77.73,170.35 C77.24,171.7 76.81,172.61 76.52,173.03 C76.27,173.4 75.95,173.35 75.95,172.89 L75.95,172.89 Z M77.38,173.75 C77.29,173.59 77.47,173.38 78.14,171.94 C79.07,169.96 79.35,169.22 78.98,168.09 C78.31,166.07 75.79,165.58 74.26,166.9 C73.76,167.33 73.42,167.92 73.19,168.45 C72.64,169.68 72.18,171.27 71.85,171.61 C71.56,171.9 71.16,171.95 71.19,171.45 C71.55,170.38 71.72,169.55 72.58,167.98 C74.73,163.31 80.9,165.47 79.46,170.39 C78.92,172.17 78.3,173.53 77.93,173.97 C77.73,174.21 77.39,174 77.38,173.75 L77.38,173.75 Z M84.39,178.78 C84.39,178.64 84.56,178.1 84.82,177.58 C86.39,174.48 86.82,173.73 86.34,173.15 C85.41,172.02 84.17,173 83.02,176.24 C82.59,177.45 82.3,177.19 82.09,177 C81.69,176.63 83.46,172.87 84.32,172.31 C86.25,171.07 87.78,172.5 86.92,175.03 C86.25,176.17 85.7,177.93 85.08,178.85 C84.78,179.27 84.38,179.14 84.39,178.78 L84.39,178.78 Z M66.52,179.06 C66.85,177.59 71.53,176.91 72.76,178.84 C72.88,179.02 72.81,179.02 72.28,178.87 C69.9,178.08 69.43,178.12 67.15,179.03 C66.81,179.16 66.56,179.22 66.52,179.06 L66.52,179.06 Z M85.98,179.22 C86.17,178.89 86.44,178.44 86.7,177.93 C88.76,173.81 88.9,172.67 87.45,171.28 C85.49,169.42 83.82,170.22 81.94,173.95 C81.49,174.85 81.21,175.53 81.03,175.81 C80.82,176.13 80.57,175.88 80.45,175.76 C80.22,175.52 82.3,171.57 83.12,170.71 C85.25,168.45 89.22,170.25 88.97,173.32 C88.84,174.87 88.55,175.72 87.14,178.55 C86.79,179.25 86.49,179.85 86.3,180.13 C85.64,180.58 85.79,179.56 85.98,179.22 L85.98,179.22 Z M66.05,181.5 C65.79,181.49 65.32,181.75 65.19,181.65 C64.92,181.45 64.96,180.87 64.74,180.26 C64.36,179.16 64.73,179.51 65.41,179.8 C66.34,180.16 67.21,180.09 67.99,179.82 C68.79,179.54 69.85,179.6 71.53,179.82 C72.89,180 73.65,179.95 74.88,179.6 C76.22,179.18 75.87,179.33 75.64,180.16 C75.5,180.7 75.32,181.43 75.15,181.6 C74.22,181.08 73.52,181.28 72.91,181.64 C71.92,182.08 71.21,182.15 70.39,181.91 C69.62,181.47 69.17,181.5 68.55,181.88 C67.49,182.4 67.01,181.54 66.05,181.5 L66.05,181.5 Z M77.71,186.28 C77.02,185.79 77.13,185.05 77.92,185.61 C78.94,186.33 80.6,185.02 80.26,183.78 C79.85,182.28 77.87,181.92 76.22,183.26 C73.6,185.37 70.74,185.48 70.74,183.83 C70.74,183.36 70.68,183.25 71.76,183.18 C73.03,183.09 74.45,182.51 75.16,182.08 C78.34,180.13 81.72,181.47 81.02,184.72 C80.71,186.25 78.84,186.99 77.71,186.28 L77.71,186.28 Z M90.59,186.77 C90.3,186.9 90.17,186.27 90.29,185.93 C91.08,184.07 91.8,182.58 92.51,180.84 C93.08,179.44 93.46,178.84 93.71,178.85 C93.97,178.85 94.09,179.05 93.66,179.91 C93,181.64 90.6,186.92 90.59,186.77 L90.59,186.77 Z M61.74,186.41 C60.17,185.69 59.96,183.22 61.43,182.25 C62.36,181.61 63.32,181.44 65.9,182.72 C67.72,183.62 68.76,182.65 68.72,183.7 C68.69,184.34 68.65,184.98 67.59,185.14 C65.87,185.39 64.7,183.04 62.49,183.27 C60.89,183.42 61.09,185.34 62.24,185.73 C63.78,186.25 62.85,186.86 61.74,186.41 L61.74,186.41 Z M72.57,190.51 C72.45,190.3 72.47,189.93 72.94,189.71 C75.82,188.38 73.72,185.55 71.5,187.67 C70.79,188.25 69.74,188.52 68.93,188.17 C68.17,187.84 68.16,186.91 69.17,186.71 C69.5,186.64 70.35,186.46 70.67,186.24 C74.53,184.16 76.59,188.68 73.84,190.18 C73.28,190.51 72.68,190.7 72.57,190.51 L72.57,190.51 Z M81.99,196.69 C82.66,196.32 82.56,196.06 81.7,195.62 C81.1,195.3 80.77,195.24 80.66,195.44 C80.67,195.89 80.69,196.53 80.95,196.88 C81.22,197.05 81.58,196.89 81.99,196.69 L81.99,196.69 Z M76.67,197.06 C77.31,194.89 78.73,194.93 79.74,197 L80.46,197.01 C78.99,192.97 76.14,195.01 76.04,197.03 C76.38,197.14 76.67,197.06 76.67,197.06 L76.67,197.06 Z M75.77,196.52 C75.89,196.13 75.98,195.61 75.87,195.44 C75.68,195.13 75.27,195.36 74.75,196.02 C74.42,196.43 74.47,196.49 74.79,196.81 C74.94,196.92 75.07,197 75.16,197.06 C75.6,197.25 75.67,196.83 75.77,196.52 L75.77,196.52 Z M79.78,200.06 C81.23,199.63 83,198.71 84.08,197.75 C85.4,196.59 84.66,196.77 83.14,197.5 C80.95,198.56 79.41,198.87 76.94,198.81 C74.88,198.76 74.94,198.68 74.87,198.94 C74.6,199.84 77.44,200.77 79.78,200.06 L79.78,200.06 Z M74.31,199.44 C74.04,199.27 73.86,199.25 73.51,199.41 C72.16,200.05 72.51,199.14 73.49,198.22 C73.93,197.8 73.92,197.59 73.58,197.15 C73.41,196.93 73.12,196.9 73.19,196.56 C73.48,195.13 75.49,192.95 77.74,191.98 C78.67,191.58 78.82,192.02 77.64,192.72 C75.82,193.79 75.23,194.7 76.26,194.33 C78.25,193.61 80.07,194.12 82.62,195.4 C83.35,195.76 83.68,195.83 84.3,195.77 C84.76,195.38 85.17,195.84 85.45,196.08 C85.63,196.23 85.67,196.3 85.87,196.25 C87.32,195.91 86.45,196.83 84.47,198.29 C80.92,200.81 77.05,202 74.31,199.44 L74.31,199.44 Z M72.44,202.63 C71.71,202.64 70.9,203.09 71.05,202.7 C71.14,202.48 71.34,200.21 71.43,199.39 C71.65,199.03 71.96,199.98 71.92,200.86 C71.9,201.36 72.14,201 73.79,201.09 C75.58,201.18 77.04,201.52 77.64,201.65 C79.75,202.11 83.83,201.78 85.58,200.5 C86.52,199.81 86.88,200.56 85.91,201.3 C81.5,204.66 78.01,203.38 74.18,202.81 C73.61,202.73 73.03,202.61 72.44,202.63 L72.44,202.63 Z M116.9,229.12 C112.04,220.26 104.36,205.83 104.13,205.72 C101.29,207.24 72.35,211.14 58.43,207.36 C53.67,214.56 48.99,221.68 44.85,228.81 L116.9,229.12 L116.9,229.12 Z M24.19,230.46 L154.8,230.46 L154.8,19.93 L24.19,19.93 L24.19,230.46 Z" id="Fill-302" fill="#22244E"></path>
        <path d="M73.1,41.31 C72.17,39.57 62.71,21.44 62.71,21.44 L133.06,21.87 L122.51,39.36 C121.51,40.31 116.55,42.96 111.5,36.96 C111.4,37.83 103.99,43.15 97.62,36.74 C93.79,40.25 89.88,42.28 83.43,38.33 C83.29,39.43 78.26,44.37 73.1,41.31 L73.1,41.31 Z M116.39,85.52 C94.94,123.34 103.71,151.32 119.5,175.46 C119.5,175.46 118.13,175.78 117.98,175.64 C114.53,172.54 112.11,173.09 110.34,173.06 C106.97,173 106.03,174.02 104.09,174.21 C99.14,174.71 99.54,174.83 95.35,173.24 C90.05,168.89 82.95,165.55 77.3,163.79 C72.77,164.2 65.87,166.36 63.26,164.61 C81.42,130.83 78.7,109.2 59.9,73.79 C61.46,74.26 61.7,75.72 62.87,76.09 C66.73,77.59 72.06,77.02 75.25,75.62 C80.32,73.29 85.74,79.54 101.32,86.42 C102.59,87.08 104.19,86.04 105.6,85.75 C108.47,85.17 110.93,83.93 113.08,84.66 C113.76,84.89 116.39,85.52 116.39,85.52 L116.39,85.52 Z M152.86,109.39 L152.91,112.58 C147.92,113.68 139.09,109.42 136.42,116.28 C136.75,123.7 138.4,127.02 139.55,129.26 C140.42,131.27 146.49,128.98 148.63,131.01 C154.76,138.62 153.31,148.75 153.37,157.88 L150.71,159.24 C132.31,148.3 118.19,114.34 116.23,104.67 C116.11,98.46 133.11,78.52 133.11,78.52 C133.14,78.47 139.3,82.29 139.3,82.29 C139.45,82.35 139.17,108.47 139.17,108.35 C144.03,108.6 148.74,109.08 152.86,109.39 L152.86,109.39 Z M26.04,103.61 C25.65,102.52 24.07,91.27 28.09,90.99 C34.59,93.9 42.89,104.29 46.73,110.64 C51.5,118.5 56.31,136.59 53.65,135.8 C53.27,135.69 61.86,144.35 62.45,145.2 C63.42,146.59 47.97,172.53 45.42,171.6 C44.65,171.32 39.5,168.22 39.5,168.22 L39.65,159.57 L39.77,142.11 L25.61,140.86 L26.11,137.06 C30.86,137.45 35.73,138.35 40.13,137.32 C43.03,131.98 41.92,124.02 38.44,120.8 C36.6,119.68 34.86,120.04 32.99,120.28 C25.41,119 29.34,106.12 26.04,103.61 L26.04,103.61 Z M57.6,209.18 C59.11,206.92 66.56,210.95 66.95,212.54 C71.37,209.05 76.72,208.79 81.03,213.17 C85.46,208.29 90.21,208.62 95.14,211.45 C94.59,210.35 101.45,205.48 105.62,208.57 L116.9,228.81 L44.65,229.05 C48.92,222.59 52.7,214.88 57.6,209.18 L57.6,209.18 Z" id="Fill-303" fill="#DACA2C"></path>
        <path d="M83.5,38.22 C88.57,41.35 93.12,41.02 97.53,36.78 C103.06,41.85 109.04,39.49 111.57,37.2 C113.91,39.86 116.96,41.34 121.42,40.46 L120.31,42.8 C120.58,41.56 89.57,39.53 74.56,43.77 C74.56,43.77 73.69,42 73.78,41.99 C75.09,41.91 79.44,43.53 83.5,38.22 L83.5,38.22 Z M45.35,108.09 C41.89,100.96 27.49,89.74 28.22,90.87 C34.18,85.47 40.83,82.05 47.47,78.59 C47.47,78.59 48.65,79.72 48.47,80 C44.39,86.49 42.41,100.25 46.36,108.13 C50.16,116.55 56.9,121.53 63.76,125.44 C63.23,130.7 62.97,134.51 61.69,139.74 C61.69,139.74 57.37,137.45 53.84,135.98 C53.28,126.04 51.24,117.14 45.35,108.09 L45.35,108.09 Z M97.94,112.31 C99.18,104.48 102.39,90.17 109.96,78.56 C110.82,80.62 111.54,82.74 112.72,84.67 C107.01,93.05 103.5,102.62 101.36,112.4 L97.94,112.31 L97.94,112.31 Z M77.61,112.16 C76.15,95.22 64.65,76.05 64.49,76.46 C65.85,76.68 68.23,77.35 69.54,76.73 C71.13,76.99 72.51,76.81 72.59,76.66 C72.69,76.07 83.28,101.25 81.86,112.12 C81.69,112.49 77.96,112.51 77.61,112.16 L77.61,112.16 Z M94.34,129.04 C94.9,126.22 95.29,123.38 94.14,120.38 L102.94,120.53 L102.73,129.13 L94.34,129.04 L94.34,129.04 Z M75.81,129.15 L76,120.51 L84.12,120.75 C83.43,123.68 83.21,126.61 84.13,129.54 L75.81,129.15 L75.81,129.15 Z M39.69,159.27 L39.85,142.26 C42.6,141.66 44.77,142.46 47.04,137.48 C47.04,137.48 50.85,139.31 52.12,139.98 C48.56,146.42 45.48,153.3 39.69,159.27 L39.69,159.27 Z M130.6,169.58 C138.19,155.74 136.88,135.81 115.33,124.79 C115.33,124.79 115.9,110.17 117.5,110.14 C117.86,110.25 127.25,110.02 127.25,110.02 C129.71,103.93 133.67,96.55 139.2,91.58 L139.34,107.91 C135.25,108.32 132.75,109.64 131.51,112.87 L125.84,114.15 C126.25,130.56 132.37,145.72 150.51,159.34 C146.18,163.1 131.36,170.73 131.42,170.6 L130.6,169.58 L130.6,169.58 Z M68.57,171.43 C68.57,171.43 67.01,167.38 66.09,165.64 C71.15,156.91 75.3,147.88 77.43,137.84 L80.88,137.87 C79.86,151.73 68.86,172.79 68.57,171.43 L68.57,171.43 Z M96.69,137.85 L101.51,137.76 C102.42,151.91 114.13,173.57 114.42,173.57 C113.6,172.43 105.87,173.33 105.92,173.48 C101.67,162.02 97,150.58 96.69,137.85 L96.69,137.85 Z M80.79,212.77 C73.98,206.32 66.88,212.14 67.04,212.51 C64.35,209.74 61.71,207.48 58.15,208.59 C58.15,208.59 58.15,207.62 58.18,207.6 C68.78,209.56 85.02,210.06 104,206.06 L104.97,208.11 C99.88,206.29 97.26,208.75 95,211.62 C86.83,206.48 84.84,210.99 80.79,212.77 L80.79,212.77 Z" id="Fill-304" fill="#C0242A"></path>
        <path d="M81.25,217.26 C81.81,217.26 82.27,217.72 82.27,218.29 C82.27,218.85 81.81,219.31 81.25,219.31 C80.69,219.31 80.24,218.85 80.24,218.29 C80.24,217.72 80.69,217.26 81.25,217.26 L81.25,217.26 Z M65.32,216.96 C65.85,216.96 66.28,217.39 66.28,217.93 C66.28,218.46 65.85,218.9 65.32,218.9 C64.79,218.9 64.36,218.46 64.36,217.93 C64.36,217.39 64.79,216.96 65.32,216.96 L65.32,216.96 Z M53.31,215.94 C53.45,216.51 53.51,217.07 52.49,217.18 L53.31,215.94 L53.31,215.94 Z M96.42,215.88 C97,215.88 97.46,216.35 97.46,216.93 C97.46,217.52 97,217.99 96.42,217.99 C95.84,217.99 95.38,217.52 95.38,216.93 C95.38,216.35 95.84,215.88 96.42,215.88 L96.42,215.88 Z M108.33,214.16 L109.25,215.85 C108.64,215.91 107.76,215.25 108.33,214.16 L108.33,214.16 Z M107.3,211.83 C107.3,211.83 106.63,211.95 106.42,212 C103.51,212.79 104.15,216.92 107.14,216.92 C107.42,216.92 108.13,216.81 108.13,216.81 C108.07,219.61 108.91,220.3 111.75,220.14 L116.55,228.81 L45.52,228.5 L50.04,221.21 C52.3,221.48 53.73,220.21 53.22,218.26 C53.22,218.26 54.62,218.69 55.01,218.69 C57.58,218.71 58.24,214.73 55.78,214.04 C55.51,213.96 54.82,213.89 54.74,213.86 C55.86,211.02 58.96,212.7 59.84,213.88 C61.83,212.22 64.04,212.96 64.98,215.11 C64.98,215.11 64.61,214.9 64.5,214.81 C62.16,213.09 59.99,216.66 62.28,218.31 C62.5,218.47 62.98,218.61 62.98,218.61 C62.98,218.61 62.7,218.84 62.44,219.28 C61.26,221.29 63.17,223.75 65.48,223.12 C67.25,222.42 67.27,221.07 67.27,219.59 C67.27,219.59 67.88,219.64 68.43,219.64 C70.56,219.67 71.17,216.92 69.87,215.64 C69.16,214.95 68.24,215 67.79,214.91 C70.24,212.48 71.9,214.16 73.63,215.28 C73.89,215.27 76.63,211.95 79.89,215.21 C78.31,214.79 76.69,215.83 76.67,217.49 C76.7,218.56 77.46,219.51 79.1,219.59 C78.92,220.12 78.8,220.52 78.79,221.05 C78.76,222.79 80.1,223.88 81.81,223.61 C83.24,223.43 84.29,221.78 83.78,220.41 C83.55,219.79 83.24,219.57 83.24,219.57 C87.08,220.05 87.01,215.14 84.03,214.84 C83.32,214.77 82.77,215.08 82.06,215.74 C83.81,212.11 87.02,212.84 88.23,214.33 C89.88,213.12 92.15,211.46 94.87,214.41 C94.42,214.31 93.79,214.29 93.24,214.44 C91.09,215.01 91.08,217.78 92.79,218.62 C93.27,218.86 93.86,219 94.49,218.97 C93.92,221.3 96.48,222.96 98.29,221.85 C99.58,221.05 99.92,219.16 98.52,217.44 C100.88,217.34 101.11,214.37 99.75,213.32 C98.68,212.51 97.42,212.89 96.51,213.97 C96.21,213.12 98.55,210.15 101.84,212.29 C103.59,210.81 105.32,210.36 107.3,211.83 L107.3,211.83 Z M86.22,209.12 C84.43,209.97 82.49,211.26 80.94,212.61 C79.27,211.23 77.54,210.04 75.67,209.44 C79.11,209.61 82.93,209.46 86.22,209.12 L86.22,209.12 Z M62.48,208.59 C65.77,209.04 69.06,209.24 72.35,209.4 C70.45,210.11 68.49,210.72 66.94,212.14 C65.77,210.48 64.13,209.52 62.48,208.59 L62.48,208.59 Z M105.24,208.55 L105.9,209.88 C104.31,209.02 97.5,207.07 95.57,213.91 C93.54,211.13 85.15,207.11 80.9,215.67 C79.69,213.35 72.65,206.68 66.23,215.18 C63.71,209.89 61.59,209.45 56.95,210.17 C60.25,206.97 64.89,210.3 66.86,213.03 C72.4,208.39 77.03,209.79 81.07,213.56 C86.3,207.82 91.5,209.2 95.16,212.08 C97.74,208.26 100.25,207.11 105.24,208.55 L105.24,208.55 Z M58.42,207.94 L59.46,208.06 C59.46,208.06 59.11,208.33 58.86,208.28 C58.67,208.23 58.42,207.94 58.42,207.94 L58.42,207.94 Z M99.72,207.34 C97.39,208.43 95.99,209.73 94.91,211.11 C93.57,210.06 91.87,209.31 89.84,208.85 L99.72,207.34 L99.72,207.34 Z M103.99,206.28 L104.43,207.5 C103.21,207.35 101.79,207.28 100.35,207.21 C101.62,206.95 102.89,206.63 103.99,206.28 L103.99,206.28 Z M104.44,205.22 C79.97,211.08 60.1,207.46 58.13,206.76 L56.57,209.11 C56.38,209.51 56.26,210.71 55.21,211.03 L53.62,213.42 L53.93,213.75 L52.53,214.99 L52.87,215.41 L51.85,216.91 L51.44,216.86 L49.08,220.5 L49.44,220.9 L44,229.5 L117.5,229.52 C113.23,221.38 108.66,213.39 104.44,205.22 L104.44,205.22 Z M117.69,165.48 C119.7,166.44 121.21,166.26 122.57,167.45 C123.75,168.07 123.4,169.79 122.54,170.17 C122.15,170.29 121.51,170.23 121.51,170.23 C122.22,171.12 123.78,172.24 123.78,172.24 L121.3,173.29 C121.3,173.29 120.96,171.6 120.64,170.68 C120.19,172.05 118.66,172.01 117.79,171.37 C117.18,170.89 116.92,169.29 117.21,167.9 C117.29,167.54 117.69,165.48 117.69,165.48 L117.69,165.48 Z M42.81,164.98 C42.81,164.98 42.82,164.98 42.82,164.99 C42.93,165.14 42.53,169.4 42.53,169.4 L39.71,167.79 C39.71,167.79 42.57,165.03 42.81,164.98 L42.81,164.98 Z M55.37,164.84 L57.33,166.28 L55.39,168.08 C57.13,167.99 57.28,169.64 56.62,170.56 C56.19,171.2 54.55,171.88 52.9,172.15 C51.91,172.31 51.1,172.43 51.1,172.43 C51.1,172.43 51.06,171.66 51.03,170.38 C50.98,167.75 51.15,166.72 52.15,166.21 C52.87,165.84 54.08,166.42 54.37,167.09 C54.47,167.31 54.73,167.69 54.73,167.69 L55.37,164.84 L55.37,164.84 Z M40.45,163.65 C41.11,163.63 42.06,163.76 42.47,163.7 C43.06,163.76 42.64,164.05 41.37,165.22 C40.28,166.23 39.96,166.67 39.84,166.24 C39.78,165.55 39.8,164.74 39.81,163.78 C39.91,163.69 40.15,163.65 40.45,163.65 L40.45,163.65 Z M84.43,161.19 C84.72,162.98 81.52,166.05 79.72,163.9 C78.8,162.8 79.63,160.54 80.8,161.93 C82.09,162.9 83.33,161.78 84.43,161.19 L84.43,161.19 Z M91.17,161.15 C91.66,161.11 92.89,163.25 93.2,165.04 C93.91,169.13 96.34,171.08 98.05,169.43 C98.74,168.46 98.82,169.52 98.79,170.02 C98.43,175.21 92.61,173.05 91.95,167.9 C89.91,169.24 88,166.53 89.22,166.58 C92.1,165.65 91.31,162.98 91.17,161.15 L91.17,161.15 Z M46.88,160.56 C47.12,160.51 47.06,161.13 47.02,162.51 L46.95,164.85 L45.21,166.55 C43.19,168.37 43.44,168.49 43.45,166.78 C43.46,165.42 43.45,164.47 43.74,163.87 C44.62,162.8 45.54,161.85 46.54,160.83 C46.69,160.67 46.81,160.58 46.88,160.56 L46.88,160.56 Z M44.15,159.42 C44.95,159.42 45.95,159.45 46.4,159.48 C46.74,159.75 46.03,160.57 44.65,162.03 C43.55,163.19 43.39,163.03 42.05,163.04 C39.81,163.06 39.76,163.08 40.79,161.89 C41.91,160.6 42.57,159.76 43.09,159.49 C43.26,159.45 43.67,159.43 44.15,159.42 L44.15,159.42 Z M87.94,157.11 C88.56,157.11 89.06,157.62 89.06,158.24 C89.06,158.87 88.56,159.37 87.94,159.37 C87.32,159.37 86.82,158.87 86.82,158.24 C86.82,157.62 87.32,157.11 87.94,157.11 L87.94,157.11 Z M113.28,156.97 C113.28,156.97 116.25,158.1 117.58,159.34 C118.83,160.39 118.24,162.12 117,162.16 C116.91,162.16 116.39,162.08 116.39,162.08 C116.81,162.72 118.21,164.31 118.21,164.31 L115.92,165.25 C115.92,165.25 115.55,163.46 115.27,162.46 C114.47,164.33 112.5,163.11 112.37,161.95 C112.05,160.25 112.77,158.58 113.28,156.97 L113.28,156.97 Z M87.94,156.59 C87.05,156.59 86.33,157.32 86.33,158.21 C86.33,159.11 87.05,159.84 87.94,159.84 C88.83,159.84 89.55,159.11 89.55,158.21 C89.55,157.32 88.83,156.59 87.94,156.59 L87.94,156.59 Z M61.19,155.79 L63.46,157.02 L61.19,159.34 C61.19,159.34 61.76,159.34 61.95,159.38 C63.4,159.66 63.29,161.23 61.83,162.39 C60.93,162.97 57.83,164.11 57.83,164.11 C57.72,162.79 57.45,161.58 57.5,160.17 C57.52,159.53 57.58,158.82 58.08,158.26 C58.42,157.87 58.99,157.65 59.79,158.17 C60.21,158.55 60.43,158.98 60.43,158.98 L61.19,155.79 L61.19,155.79 Z M50.69,155.43 C50.81,155.43 50.85,155.7 50.85,156.3 C50.85,156.75 50.91,158.15 50.97,158.75 C51.09,159.86 51.09,159.85 50.63,160.51 C50.06,161.13 49.47,162.04 48.74,162.75 C47.64,163.98 47.75,164.05 47.77,161.41 C47.78,159.35 47.63,159.35 48.04,158.87 C48.27,158.6 48.97,157.73 49.43,157.06 C50.13,156.03 50.5,155.43 50.69,155.43 L50.69,155.43 Z M49.03,154.53 C49.7,154.52 50.23,154.58 50.12,154.74 C50.12,155.08 48.65,157.15 47.78,158.09 C47.04,158.89 46.94,158.78 45.13,158.69 C44.42,158.65 43.95,158.65 43.97,158.46 C44.8,157.35 45.96,155.93 46.75,154.74 C47.06,154.64 48.17,154.54 49.03,154.53 L49.03,154.53 Z M151.16,153.25 L152.86,154.24 L152.86,156.15 L150.44,154.34 L151.16,153.25 L151.16,153.25 Z M87.94,152.44 C89.19,152.46 89.96,153.8 89.9,155.03 L89.85,156.2 C91.46,155.58 93.46,156.18 93.55,157.78 C93.7,160.49 91.73,160.17 90.06,160.06 C90.23,160.12 90.47,162.51 89.48,163.42 C87.92,165.18 85.02,163.38 85.75,160.79 C85.9,160.26 85.93,159.92 85.93,159.92 C85.93,159.92 84.89,160.3 84.52,160.28 C81.36,160.15 81.6,155.63 84.78,156.16 C85.43,156.27 85.86,156.43 85.86,156.43 C85.86,156.43 85.8,156.14 85.69,155.74 C85.23,154 86.2,152.42 87.94,152.44 L87.94,152.44 Z M54.07,151.15 C54.07,153.72 54.93,154.56 54.3,155.37 C53.52,156.64 52.53,158.02 52.17,158.45 C51.57,159.19 51.63,159.05 51.47,157.13 C51.36,155.73 51.23,154.8 51.41,154.36 C51.93,153.1 52.55,152.5 53.19,151.16 C53.69,150.08 54.07,150.26 54.07,151.15 L54.07,151.15 Z M52.52,149.67 C52.82,149.67 53.04,149.69 53.11,149.75 C53.24,150.09 52.64,151.13 51.77,152.47 C51.3,153.19 51.1,153.39 50.82,153.56 C50.14,153.94 49.19,153.84 48.4,153.9 C47.22,153.91 47.43,153.89 48.73,151.84 C49.32,150.92 49.68,150.17 50.03,149.93 C50.1,149.88 51.63,149.67 52.52,149.67 L52.52,149.67 Z M84.26,148.92 C85.6,148.91 86.57,149.87 85.29,150.46 C83.29,151.4 84.48,153.66 84.53,154.94 C84.56,155.72 82.74,154.25 82.36,152.67 C81.86,150.62 82.09,149.1 84.26,148.92 L84.26,148.92 Z M91.3,148.42 C95.59,148.31 93.08,155.42 90.93,154.96 C90.9,154.89 92.71,150.76 90.27,150.1 C89.16,149.8 90.12,148.41 91.3,148.42 L91.3,148.42 Z M110.2,148.06 C110.2,148.06 111.67,148.83 113.04,149.89 C114.83,151.28 115.13,152.91 113.35,153.54 C113.14,153.62 112.55,153.58 112.55,153.58 C113.05,154.45 114.21,155.74 114.21,155.74 C113.63,156.15 112.8,156.47 111.89,156.76 C111.89,156.76 111.66,154.61 111.44,153.78 C111.44,153.78 111.21,154.25 110.92,154.43 C109.2,155.51 107.85,153.48 108.77,150.9 C109.33,149.33 110.2,148.06 110.2,148.06 L110.2,148.06 Z M65.78,145.96 L68.23,146.77 L66.3,149.12 C66.3,149.12 67.11,148.97 67.2,149.01 C69.13,149.14 68.81,151.07 67.32,152.25 C66.7,152.82 63.65,154.22 63.65,154.22 C63.32,152.49 62.65,151.38 62.81,149.6 C62.92,148.64 63.01,147.78 64.17,147.75 C64.78,147.72 65.03,148.35 65.43,148.86 L65.78,145.96 L65.78,145.96 Z M57.18,147.49 C57.66,149.24 57.65,149.58 57.32,150.19 C56.72,151.33 55.93,152.66 55.71,153.02 C55.17,153.93 55.01,153.74 54.69,151.55 C54.49,150.19 54.31,149.58 54.46,148.98 C54.73,148.31 55.54,146.74 56,145.81 C56.66,143.84 57.01,147.31 57.18,147.49 L57.18,147.49 Z M55.54,144.68 C55.99,144.69 55.6,145.25 54.99,146.61 C54.41,147.94 54.22,148.41 53.68,148.63 C52.9,148.91 51.79,148.92 50.8,149.09 C50.37,149.17 50.55,148.84 51.2,147.5 C51.97,145.93 52.01,145.61 53.21,145.28 C53.9,145.17 54.83,144.67 55.54,144.68 L55.54,144.68 Z M60.48,144.48 C60.48,144.48 61.52,144.99 61.86,145.22 C57.19,159.36 44.75,171.04 44.82,170.77 L42.88,169.62 C51.15,162.06 57.22,153.13 60.48,144.48 L60.48,144.48 Z M57.22,142.93 C57.66,142.9 59.46,143.91 59.85,144.27 C59.98,144.7 59.6,145.37 59.03,146.61 C58.15,148.52 57.98,148.57 57.72,147 C57.67,146.73 57.41,145.83 57.26,145.24 C56.89,143.86 56.86,143.07 57.22,142.93 L57.22,142.93 Z M54.24,141.35 C54.95,141.61 55.75,142.05 56.41,142.42 C56.64,142.51 56.58,142.71 56.58,142.92 C56.3,143.63 55.05,143.94 54.58,144.08 C54.02,144.25 53.46,144.36 53.35,144.38 C52.71,144.54 52.91,143.88 53.62,142.44 C53.93,141.79 54.06,141.36 54.24,141.35 L54.24,141.35 Z M52.08,140.3 L53.56,141.01 C50.36,148.5 47.49,154.44 39.91,161.75 L39.88,159.57 C45.21,154.36 48.8,147.48 52.08,140.3 L52.08,140.3 Z M97.11,137.98 L101.28,137.98 C102.58,148.32 105.74,159.49 113.76,173.06 C113.76,173.06 112.96,173.14 112.34,172.77 C110.97,171.91 110.02,173.04 109.21,173 C107.93,172.93 107.72,172.85 106.4,173.17 C99.79,159.07 97.91,147.97 97.11,137.98 L97.11,137.98 Z M77.7,137.98 L80.46,137.98 C79.24,150.96 70.75,168.51 69.16,170.63 L68.63,171.03 C68.67,171.01 67.55,167.05 66.28,165.62 C71.06,159.1 76.08,146.56 77.7,137.98 L77.7,137.98 Z M47.02,137.72 L51.5,139.98 C48.45,147.01 44.95,153.6 39.88,158.6 L40.01,142.35 C42.78,142.27 45.61,142.24 47.02,137.72 L47.02,137.72 Z M107.92,137.39 C108.67,137.98 109.48,138.55 110.25,139.11 C112.3,140.57 112.27,143.32 110.28,143.31 C110.06,143.31 109.57,143.28 109.57,143.28 C109.57,143.28 110.39,145.08 110.9,145.99 C110.07,146.22 108.33,146.55 108.33,146.55 C108.33,146.55 108.58,144.78 108.53,143.31 C108.53,143.31 108.2,143.68 107.92,143.81 C106.6,144.37 105.48,143.21 105.64,141.83 C105.87,139.96 107.92,137.39 107.92,137.39 L107.92,137.39 Z M93.74,135.29 L102.85,135.29 C104.53,152.31 110.22,163.92 118.68,175.41 C118.68,175.41 118.15,175.53 117.83,175.39 C116.96,174.28 116.15,173.61 114.84,173.27 C107.72,162.91 102.95,148.44 101.8,137.36 L96.38,137.36 C96.99,151.27 100.8,162.67 105.88,173.72 L103.13,174.23 C99.05,164.35 94.58,155.75 93.74,135.29 L93.74,135.29 Z M75.08,135.14 L83.26,135.24 C82.07,143.6 79.75,154.76 75.16,163.85 L73.24,164.35 C77.28,155.32 79.97,146.84 81.22,137.36 L77.13,137.36 C74.78,147.53 71.3,156.96 65.95,165.15 L63.57,164.37 C69.29,155.2 73.82,144.98 75.08,135.14 L75.08,135.14 Z M68.74,135.07 L71.42,135.67 L69.71,138.49 C70.22,138.26 70.57,138.11 71.08,138.3 C72.17,138.7 72.19,140.1 71.38,141.4 C70.75,142.35 68.97,143.49 67.75,144.19 C67.07,142.7 65.56,140.11 66.16,138.69 C66.48,137.93 67.36,137.57 68.18,137.98 C68.46,138.14 68.98,138.41 68.98,138.41 L68.74,135.07 L68.74,135.07 Z M43.38,134.5 C44.32,134.5 45.29,135.04 45.87,136.25 C47.26,139.17 44.24,141.57 41.46,141.76 C36.64,141.83 30.91,141.13 26.07,140.48 L26.15,137.72 C30.59,137.98 35.59,138.34 40.99,138.6 C40.37,136.04 41.83,134.5 43.38,134.5 L43.38,134.5 Z M85.82,133.24 C86.19,133.21 86.65,133.37 86.94,133.68 C87.86,134.31 88.04,135.12 88.09,138.17 C88.14,140.86 88.09,140.93 88.53,141.25 C89.61,142.05 90.25,140.83 89.95,138.11 C89.65,135.48 90.59,133.57 92.15,133.58 C92.93,133.59 93.07,134.05 92.48,134.63 C91.87,135.25 91.72,136 91.91,137.52 C92.41,141.41 91.98,143.32 90.36,144.11 C88.67,144.94 86.5,143.99 86.12,141.84 C85.88,140.4 85.88,138.7 86.05,137.09 C86.08,135.41 86.04,135.21 85.46,134.25 C85.05,133.6 85.35,133.27 85.82,133.24 L85.82,133.24 Z M146.72,131.97 C146.57,132 146.46,132.34 146.44,133.08 C146.27,134.6 145.02,135.21 143.65,134.5 C143.1,134.22 142.63,133.8 142.63,134.12 C142.63,134.29 143.07,135.2 143.38,135.51 C144.54,136.57 147.37,136.32 147.3,133.86 C147.27,132.7 146.96,131.91 146.72,131.97 L146.72,131.97 Z M145.06,130.41 C146.92,130.41 148.42,131.93 148.42,133.8 C148.42,135.68 146.92,137.19 145.06,137.19 C143.21,137.19 141.71,135.68 141.71,133.8 C141.71,131.93 143.21,130.41 145.06,130.41 L145.06,130.41 Z M107.36,126.58 C107.36,126.58 108.23,127.49 108.77,128.08 C110.62,130.13 110.93,132.04 110,132.62 C109.19,133 108.69,132.74 108.04,132.21 C108.18,133.48 109.17,135.35 109.15,135.35 L106.39,135.8 C106.39,135.8 107.07,133.26 107.01,132.3 C107.01,132.3 106.45,132.74 106.2,132.85 C104.39,133.52 103.5,131.45 104.98,129.38 C106.22,127.65 107.36,126.58 107.36,126.58 L107.36,126.58 Z M69.96,124.36 L72.06,124.56 L71.31,127.59 C71.31,127.59 71.65,127.23 71.76,127.2 C74.45,125.92 74.64,128.81 71.9,131.42 C71.3,132 70.33,132.79 70.33,132.79 C70.33,132.79 69.57,131.63 68.96,130.57 C68.27,129.51 67.8,128.38 67.92,127.78 C68.09,126.91 69.13,126.33 69.79,126.86 C70.12,127.13 70.5,127.52 70.5,127.52 L69.96,124.36 L69.96,124.36 Z M89.23,120.85 C91.33,122.08 91.91,126.58 88.99,128.9 C86.22,126.02 86.78,122.51 89.23,120.85 L89.23,120.85 Z M76.19,120.84 L84,120.93 C82.71,123.98 83.19,127.11 83.67,128.87 L76.02,128.75 L76.19,120.84 L76.19,120.84 Z M94.46,120.65 L102.62,120.81 L102.38,128.89 L94.7,128.75 C94.7,128.75 96.38,125.14 94.46,120.65 L94.46,120.65 Z M35.47,120.2 C37.46,120.16 38.72,120.86 39.32,122.25 C40.26,124.41 40.39,124.82 40.58,125.95 C40.69,126.6 40.86,127.57 40.96,128.12 C41.99,133.99 41.23,136.2 37.7,137.12 C36.65,137.39 35.18,137.48 34.16,137.23 C33.89,137.16 32.9,137.16 32.13,137.13 C30.59,137.08 30.12,136.92 29.35,136.29 C29.07,136.06 28.8,135.87 28.47,135.82 C26.71,135.54 26.18,133.91 27.52,132.71 C28.28,132.02 28.35,131.93 28.28,131.81 C28.24,131.75 27.92,131.69 27.56,131.69 C25.79,131.68 25.8,129.83 27.59,128.51 C28.44,127.89 28.82,127.3 28.26,127.44 C26.64,127.83 26.07,125.44 27.76,124.7 C28.66,124.19 29.31,123.76 28.44,123.72 C27.71,123.78 27.12,123.24 27.34,122.59 C27.61,121.82 29.09,121.11 29.95,121.38 C30.61,121.58 31.26,121.77 31.68,121.47 C32.69,120.73 33.14,120.4 34.01,120.28 C34.52,120.22 35.05,120.2 35.47,120.2 L35.47,120.2 Z M89.17,120.03 C85.65,122.71 86.22,126.9 88.88,129.73 C91.75,127.81 92.77,122.62 89.17,120.03 L89.17,120.03 Z M135.64,119.43 L136.53,119.85 C137.63,128.61 142.76,140.62 152.86,147.81 L152.86,148.91 C145,143.21 137.79,133.38 135.64,119.43 L135.64,119.43 Z M89.33,118.68 C90.56,118.85 92.06,121.25 92.4,122.12 C93.05,123.84 93.11,125.83 92.51,127.38 C92.03,128.64 90.58,130.88 89.66,131.51 C88.92,131.92 88.3,131.62 87.24,130.16 C85.14,127.29 84.74,123.83 86.39,121.46 C87.66,119.65 88.59,118.68 89.33,118.68 L89.33,118.68 Z M133.26,118.35 L135.03,119.24 C137.3,134.34 144.65,143.56 152.88,149.92 L152.86,151.32 L150.65,149.59 L148.01,152.39 L145.86,150.61 L146.67,149.82 L147.89,150.61 L149.45,148.84 L146.38,146.07 L143.7,148.42 L141.46,146.09 L142.14,145.52 L143.69,146.88 L145.41,145.34 L142.43,141.95 L139.75,144 L137.89,141.5 L138.7,141.01 L139.68,142.36 L141.74,141.07 L139.56,137.68 L136.45,139.29 L134.86,136.4 L135.77,135.96 L136.8,137.58 L138.73,136.64 L136.79,132.65 L133.61,133.71 L132.44,130.57 L133.35,130.23 L134.15,132.09 L136.3,131.39 L134.84,127.09 L131.56,128.03 L130.75,124.87 L131.76,124.65 L132.29,126.36 L134.55,125.9 L133.72,121.8 L130.37,122.23 C130.25,121.54 129.76,119.67 129.77,118.96 L130.8,118.87 L131.13,120.67 L133.39,120.6 L133.26,118.35 L133.26,118.35 Z M89.21,117.78 C89.02,117.8 88.83,117.93 88.53,118.17 C87.13,119.3 86.04,120.71 85.47,122.17 C84.27,125.25 85.05,128.72 87.76,131.42 C89.13,132.79 89.62,132.7 91.73,129.87 C93.49,127.49 93.86,124.43 92.77,121.77 C92.24,120.47 91.28,119.21 90.13,118.29 C89.68,117.93 89.45,117.76 89.21,117.78 L89.21,117.78 Z M108.28,116.59 C109.27,118.11 110.51,119.68 110.65,121.54 C110.58,123.37 109.36,123.71 108.09,122.64 C107.93,123.6 108.48,125.48 108.48,125.48 L106.19,125.23 C106.19,125.23 107.08,123.64 107.12,122.65 C105.53,123.77 104.32,122.31 104.53,121.14 C104.99,119.13 106.62,117.78 108.28,116.59 L108.28,116.59 Z M89.14,115.95 C89.96,115.92 90.83,116.7 92.25,118.37 C96.25,123.05 95.18,130.28 89.96,134.05 C89.2,134.6 88.89,134.55 87.97,133.75 C82.61,129.1 82.3,122.88 87.07,117.42 C87.89,116.47 88.5,115.97 89.14,115.95 L89.14,115.95 Z M127.94,115.73 C127.94,115.73 131.02,117.32 132.64,118.06 L132.7,120.06 L131.62,120.1 L131.25,118.22 L129.01,118.38 L129.71,123.02 L133.33,122.57 L133.83,125.37 L132.61,125.63 L131.98,123.91 L129.91,124.42 L131.25,128.92 L134.51,127.86 L135.53,130.8 L134.44,131.2 L133.74,129.48 L131.59,130.24 L133.25,134.63 L136.65,133.53 L138.02,136.28 L136.99,136.74 L136.01,135.04 L133.97,136.09 L136.36,140.19 L139.42,138.57 L140.86,140.76 L139.73,141.52 L138.71,140.18 L137.06,141.28 L139.7,144.93 L142.34,142.92 L144.32,145.23 L143.44,146.01 L142.1,144.63 L140.5,146.07 L143.65,149.56 L146.38,147.16 L148.32,148.98 L147.75,149.6 L146.44,148.77 L144.71,150.63 L148.02,153.54 L150.64,150.63 L152.86,152.29 L152.86,153.51 L150.88,152.49 L149.54,154.52 L152.86,157.06 L152.84,158.05 C133.89,146.63 128.9,128.91 127.94,115.73 L127.94,115.73 Z M126.08,114.82 L127.31,115.45 C128.96,137.61 140.04,150.63 151.69,158.39 L150.77,158.95 C136.47,149.7 126.55,133.12 126.08,114.82 L126.08,114.82 Z M33.49,114.34 C32.27,114.39 31.12,115.14 31.27,116.14 C31.38,116.57 32.03,115.95 32.66,115.55 C33.15,115.24 33.74,115.19 34.3,115.43 C34.79,115.61 35,116.07 35.29,116.43 C35.53,116.73 35.8,116.97 35.95,116.82 C36.08,116.67 36.03,116.47 35.99,116.29 C35.73,114.92 34.61,114.31 33.49,114.34 L33.49,114.34 Z M71.47,114.1 L71.16,117.14 C71.16,117.14 71.66,116.74 71.78,116.64 C72.68,115.88 74.09,116.73 73.77,117.9 C73.66,118.94 71.89,122.02 71.19,122.67 C71.19,122.67 68.35,119.54 68.04,118.93 C67.37,117.57 68.29,116.15 69.52,116.75 C69.69,116.84 70.2,117.22 70.2,117.22 L69.3,114.34 L71.47,114.1 L71.47,114.1 Z M33.26,113.08 C35.16,113.08 36.7,114.63 36.7,116.55 C36.7,118.47 35.16,120.03 33.26,120.03 C31.36,120.03 29.82,118.47 29.82,116.55 C29.82,114.63 31.36,113.08 33.26,113.08 L33.26,113.08 Z M146.27,113.02 C147.85,112.96 148.27,113.15 148.4,113.87 C148.53,114.56 149.04,114.72 149.63,114.5 C151.09,113.96 151.97,116.57 150.77,117.73 C150.02,118.44 150.15,118.72 150.77,118.72 C152.29,118.73 152.24,120.74 150.7,121.88 C150.06,122.35 150.07,122.57 150.74,122.9 C151.86,123.46 151.63,124.57 150.21,125.48 C149.44,125.98 149.41,126.1 150.05,126.27 C151.66,126.72 150.02,129.04 148.25,128.63 C147.53,128.46 146.84,128.62 146.15,129.07 C144.26,129.87 143.95,130.02 141.91,129.77 C140.12,129.44 139.32,128.84 138.86,127.25 C137.81,124.02 136.68,120.45 136.66,116.92 C136.51,114.76 140.1,112.8 141.8,112.72 C143.18,112.5 144.77,113.01 146.27,113.02 L146.27,113.02 Z M117.21,110.4 L125.47,114.51 C126.63,130.19 131.98,146.75 150.22,159.31 C147.26,161.45 139.85,166.69 131.38,170.29 L130.69,169.54 C140.75,152.25 133.15,133.22 115.53,124.61 C115.58,119.81 116.18,115.08 117.21,110.4 L117.21,110.4 Z M139.24,108.47 C143.06,108.62 152.73,109.41 152.73,109.41 L152.81,112.3 C152.38,112.57 145.17,111.45 139.86,111.55 C138.62,111.58 137.74,112.13 136.84,111.67 C137.7,112.03 137.62,116.38 133.83,115.33 C130.61,114.16 132.18,109.76 136.29,108.65 C137.35,108.5 138.27,108.46 139.24,108.47 L139.24,108.47 Z M89.36,106.02 C91.34,106.04 92.81,108.02 92.51,110.83 C92.01,115.67 92.3,115.37 92.82,115.85 C93.77,116.73 92.49,117.26 91.35,116.42 C90.57,115.84 90.31,115.26 90.35,112.6 C90.39,109.53 90.23,108.75 89.14,109.02 C88.46,109.18 88.25,109.76 88.33,111.83 C88.43,114.74 88.24,115.47 87.15,116.4 C85.97,117.31 84.71,116.5 85.78,115.89 C86.27,115.33 86.36,114.62 86.17,112.87 C85.97,111.37 85.11,106 89.36,106.02 L89.36,106.02 Z M125.34,105.62 C125.89,105.59 125.63,106.13 125.02,107.38 C124.35,108.77 124.52,108.65 123.1,107.92 C121.11,106.94 121.23,106.78 123.75,106.1 C124.54,105.8 125.05,105.63 125.34,105.62 L125.34,105.62 Z M110.8,105.58 C110.8,105.58 111.49,106.49 112.27,108.88 C113.02,111.16 111.87,112.88 110.3,112.01 C110.02,111.86 109.73,111.53 109.73,111.53 C109.62,112.63 109.81,114.62 109.84,114.64 L107.32,114.19 C107.32,114.19 108.7,111.97 108.8,111.42 C108.8,111.42 108.65,111.54 107.95,111.54 C105.42,111.54 105.94,108.49 108.87,106.8 C109.31,106.55 110.8,105.58 110.8,105.58 L110.8,105.58 Z M69.95,103.09 L69.9,106.42 C69.9,106.42 70.29,105.94 70.5,105.79 C71.28,105.22 72.46,106.01 72.51,106.99 C72.57,108.35 72.37,108.91 71.29,110.8 C70.95,111.39 70.45,112.13 70.45,112.13 C70.45,112.13 69.17,111.21 67.78,109.81 C66.27,108.29 66.56,106.27 67.88,106.26 C68.28,106.26 68.63,106.39 68.97,106.5 C68.69,105.52 67.63,103.62 67.63,103.62 L69.95,103.09 L69.95,103.09 Z M120.35,102.94 C120.8,102.85 121.6,106.06 121.36,106.73 C121.19,107.21 119.63,106.07 119.07,105.83 C118.78,105.71 120.05,103 120.35,102.94 L120.35,102.94 Z M26.09,101.2 C36.55,108.01 43.15,122.11 43.97,130.65 C43.97,130.65 43.69,130.46 43.12,130.2 C42.33,129.83 42.13,129.59 41.9,128.43 C39.83,117.97 33.99,109.11 26.14,102.84 L26.09,101.2 L26.09,101.2 Z M127.73,100.65 C128.43,100.65 128.12,101.2 127.27,102.84 C126.31,104.68 126.14,104.72 124.36,105.16 C122.19,105.69 122.25,105.81 123.42,103.28 C123.88,102.3 124.21,101.45 124.62,101.13 C125.17,100.7 126.22,100.86 127.37,100.69 C127.51,100.67 127.63,100.65 127.73,100.65 L127.73,100.65 Z M31.06,97.69 L33.32,99.52 L32.68,100.15 L31.43,99.22 L29.58,101.22 L32.62,104.02 L35.19,101.46 L37.4,103.79 L36.72,104.36 L35.43,103.1 L33.49,104.77 L36.38,108.23 L39.29,105.98 L41.12,108.4 L40.38,108.87 L39.18,107.7 L37.29,109.03 L39.65,112.39 L42.62,110.67 L44.31,113.47 L43.37,113.93 L42.41,112.39 L40.28,113.63 L42.29,117.56 L45.5,116.21 L46.79,119.2 L45.81,119.61 L44.99,117.8 L42.83,118.67 L44.28,122.79 L47.53,121.85 L48.32,124.91 L47.32,125.19 L46.82,123.5 L44.75,124 L45.62,128.14 L48.93,127.93 L49.32,131.27 L48.29,131.32 L48.04,129.32 L45.93,129.35 C45.94,130.05 46.02,131.49 46.02,131.49 L44.74,130.89 C42.85,118.17 36.09,107.56 26.03,100.17 L25.97,98.65 L28.42,100.22 C28.42,100.22 30.67,98.2 31.06,97.69 L31.06,97.69 Z M123.34,97.09 C123.53,97.08 123.68,97.43 123.86,98.16 C124.29,99.85 124.4,99.89 123.71,101.28 C123.36,101.98 122.76,103.16 122.52,103.65 C121.89,104.91 121.85,104.9 121.46,103.77 C120.7,101.61 120.63,101.83 121.88,99.41 C122.67,97.89 123.06,97.11 123.34,97.09 L123.34,97.09 Z M128.29,96.11 C128.59,96.1 128.97,96.13 129.5,96.13 C131.1,96.13 131.51,95.91 130.8,96.92 C130.53,97.31 129.86,98.41 129.66,98.78 C129.25,99.53 129.17,99.77 128.5,99.92 C127.53,100.11 126.42,99.98 125.31,100.03 C125.07,100.02 125.57,99.18 125.84,98.66 C126.52,97.39 126.94,96.51 127.52,96.24 C127.75,96.14 127.98,96.11 128.29,96.11 L128.29,96.11 Z M115.1,95.4 C115.1,95.4 115.31,97.54 115.62,98.49 C116.57,101.16 115.36,102.79 113.58,101.9 C113.33,101.77 112.88,101.19 112.88,101.19 L112.71,104.26 L110.18,103.51 C110.73,102.63 111.52,102 112.1,101 C112.1,101 111.72,100.98 111.39,100.98 C109.89,101.04 109.33,99.35 110.91,97.96 C112.09,96.93 115.1,95.4 115.1,95.4 L115.1,95.4 Z M93.76,94.81 C93.76,94.81 94.74,95.53 94.94,95.72 C96.75,97.48 96.76,99.99 95.13,100.87 C94.04,101.45 92.8,100.98 92.38,100.13 C92.18,99.74 92.5,99.33 92.92,99.33 C93.7,99.33 94.3,97.83 94.06,96.23 C93.97,95.6 93.76,94.81 93.76,94.81 L93.76,94.81 Z M87.02,94.72 C87.73,95.71 85.25,98.65 88.49,99.83 C88.49,99.83 88.57,100.5 87.9,100.91 C86.31,102.08 84.03,99.95 84.73,97.76 C85.19,96.35 86.5,94.73 87.02,94.72 L87.02,94.72 Z M25.97,93.99 L28.41,95.57 L27.9,96.5 L25.97,95.62 L25.97,93.99 L25.97,93.99 Z M65.91,93.06 L66.44,96.17 C66.95,95.32 67.35,94.74 68.44,95.07 C69.75,95.61 69.77,97.6 68.66,100.66 C68.46,101.22 68.2,101.71 68.2,101.71 C68.2,101.71 67.63,101.47 67.24,101.21 C66.44,100.65 65.09,100.03 64.4,98.92 C63.68,97.77 63.66,96.16 64.99,96.3 C65.25,96.3 65.77,96.42 65.77,96.42 L63.78,93.86 L65.91,93.06 L65.91,93.06 Z M26.75,92.31 C40.81,101.11 51.1,116.14 51.52,134.3 C51.52,134.3 48.53,132.87 46.68,131.83 L46.58,130.07 L47.56,130.04 L47.87,132.03 L50.02,131.96 L49.45,126.99 L46.09,127.32 L45.41,124.5 L46.43,124.28 L46.99,126.1 L49.18,125.51 L48.01,121.09 L44.64,122.02 L43.56,119.03 L44.68,118.63 L45.58,120.42 L47.64,119.69 L45.7,115.26 L42.59,116.74 L41.02,113.84 L42.23,113.19 L43.21,114.91 L45.13,113.91 L42.75,109.83 L39.8,111.49 L38.32,109.25 L39.24,108.6 L40.25,109.78 L41.94,108.57 L39.35,105.06 L36.53,107.29 L34.44,104.85 L35.4,104.02 L36.84,105.32 L38.44,103.91 L35.37,100.52 L32.68,103 L30.68,101.24 L31.66,100.14 L32.9,101.11 L34.23,99.52 L30.89,96.73 L28.38,99.24 L25.97,97.63 L25.97,96.44 C26.76,96.74 27.58,97.09 28.32,97.49 L29.57,95.59 L25.97,93.14 L26.75,92.31 L26.75,92.31 Z M126.54,92.13 C126.77,92.13 126.9,92.61 126.97,93.54 C127.23,95.21 127.2,95.41 126.51,96.48 C126.17,97.02 125.69,97.77 125.46,98.16 C125.06,98.84 124.78,99.04 124.68,98.71 C124.13,96.91 123.96,95.79 124.16,95.43 C124.47,94.83 125.96,92.69 126.17,92.42 C126.32,92.22 126.44,92.13 126.54,92.13 L126.54,92.13 Z M138.9,91.9 C138.9,91.9 139.24,101.63 138.99,107.84 C135,107.69 132.66,109.22 131.68,112.12 L127.49,110.02 C130.57,102.04 134.68,96.48 138.9,91.9 L138.9,91.9 Z M131.61,91.32 C132.01,91.33 132.54,91.39 133.33,91.48 C134.77,91.56 134.95,91.65 133.95,92.81 C133.68,93.12 133.16,93.79 132.79,94.28 C132.42,94.78 131.96,95.3 131.76,95.38 C131.45,95.48 128.91,95.36 128.19,95.26 C127.95,95.23 128.26,94.98 129.5,93.19 C130.45,91.82 130.55,91.37 131.45,91.33 C131.5,91.33 131.55,91.32 131.61,91.32 L131.61,91.32 Z M28.04,91.16 C45.53,102.51 53.37,120.09 53.34,135.2 L52.35,134.75 C51.33,113.4 39.85,100.28 27.44,91.79 L28.04,91.16 L28.04,91.16 Z M90.34,90.45 C90.98,90.45 91.5,90.97 91.5,91.62 C91.5,92.27 90.98,92.79 90.34,92.79 C89.7,92.79 89.19,92.27 89.19,91.62 C89.19,90.97 89.7,90.45 90.34,90.45 L90.34,90.45 Z M90.35,89.91 C89.43,89.91 88.68,90.67 88.68,91.61 C88.68,92.54 89.43,93.31 90.35,93.31 C91.28,93.31 92.04,92.54 92.04,91.61 C92.04,90.67 91.28,89.91 90.35,89.91 L90.35,89.91 Z M138.97,88.09 L139,91.1 C133.39,96.65 129.58,102.88 126.98,109.75 L125.03,108.97 C128.42,100.19 133.48,93.34 138.97,88.09 L138.97,88.09 Z M130.48,87.24 C130.52,87.24 130.55,87.26 130.57,87.28 C130.75,87.45 130.69,88.22 130.67,89.37 C130.65,90.59 130.66,90.59 130.16,91.23 C129.52,92.04 128.98,92.87 128.31,93.66 C127.73,94.29 127.75,94.23 127.4,92.69 C127.06,91.21 127.25,90.74 129.14,88.59 C129.79,87.76 130.24,87.23 130.48,87.24 L130.48,87.24 Z M135.38,86.93 C136.17,86.9 137.38,87.13 138.33,87.23 C139.06,87.36 138.66,87.78 137.01,89.4 C135.5,90.88 135.55,90.74 134.38,90.72 C131.67,90.68 131.19,90.74 132.77,89.01 C133.6,88.11 134.33,87.29 134.92,86.99 C135.05,86.95 135.2,86.93 135.38,86.93 L135.38,86.93 Z M120.8,85.84 C120.98,87.34 121.57,88.98 121.4,90.38 C121.15,92.16 119.64,93.22 118.46,92.06 C118.32,91.92 118.05,91.62 118.05,91.62 C117.52,92.3 117.19,94.23 117.19,94.23 L115.1,92.93 C115.1,92.93 116.55,91.91 116.95,91.32 C117.06,91.16 117.11,90.85 117.11,90.85 C115.95,91.21 114.97,90.01 115.28,88.96 C115.91,87.22 119.04,86.58 120.8,85.84 L120.8,85.84 Z M92.69,88.34 C92.61,89.12 92.39,89.47 92.19,90.13 C92.19,90.13 92.85,89.87 93.17,89.72 C94.67,89.01 96.24,90.32 96.22,91.86 C96.29,92.89 95.18,94.12 93.87,94.13 C93.41,94.13 92.92,93.99 92.45,93.63 C92.79,95.52 92.86,96.39 91.5,97.33 C90.36,98.1 87.96,97.22 88.1,95.12 L88.18,93.82 L87.03,93.97 C83.81,94.1 83.75,90.1 86.35,89.47 C87.39,89.22 88.51,90.08 88.51,90.08 C88.02,89.1 88.01,87.41 88.67,86.63 C90.31,84.71 92.89,86.46 92.69,88.34 L92.69,88.34 Z M97.04,84.97 C98.18,84.93 99.02,85.74 98.95,87.17 C98.94,88.49 98.82,88.68 97.9,88.15 C96.69,87.46 95.74,87.45 94.66,88.23 C94.06,88.66 93.48,89.01 93.48,89.01 C93.48,89.01 94,86.73 94.8,86.02 C95.57,85.33 96.36,85 97.04,84.97 L97.04,84.97 Z M113.08,84.72 L115.1,85.47 C110.89,92.4 106.54,99.25 103.37,114.86 L94.9,114.86 C96.08,105.32 98.48,95.94 102.77,86.81 C102.77,86.81 104.43,86.3 105.37,85.99 C105.37,85.99 98.37,102.18 97.55,112.6 L101.65,112.68 C103.83,102.54 107.92,92.02 113.08,84.72 L113.08,84.72 Z M62.08,84.38 L62.67,86.91 C62.67,86.91 62.84,86.57 62.89,86.51 C64.07,84.67 65.52,85.75 65.5,88.29 C65.49,89.1 64.76,92.31 64.76,92.31 C64.76,92.31 60.31,90.15 59.96,89.2 C59.61,88.27 60.1,87.45 60.92,87.37 C61.23,87.34 61.55,87.31 61.9,87.37 L59.99,85.4 L62.08,84.38 L62.08,84.38 Z M138.85,83.55 L138.88,83.55 C139.09,83.68 139.05,86.26 138.91,86.43 C138.27,86.6 136.55,86.32 136.11,86.08 C136.02,85.79 138.44,83.53 138.85,83.55 L138.85,83.55 Z M134.76,82.94 C134.85,82.93 134.92,82.96 134.97,83.04 C135.1,83.54 135.08,84.69 134.88,85.83 C134.72,86.57 132.52,88.45 131.73,89.2 C131.42,89.41 131.27,89.33 131.21,88.96 C131.24,88.37 131.3,87.58 131.31,86.78 C131.31,86.54 131.26,86.28 131.48,86.09 C132.56,84.8 134.13,82.97 134.76,82.94 L134.76,82.94 Z M136.65,80.98 C137.08,81 137.59,81.55 138.38,81.99 C139.15,82.42 138.95,82.65 137.5,83.77 C135.78,85.1 135.62,85.04 135.64,83.14 C135.65,81.88 135.96,81.04 136.56,80.98 L136.65,80.98 L136.65,80.98 Z M134.46,79.44 L136.02,80.4 C127.83,87.33 122.43,96.13 118.47,105.61 L116.39,104.62 C122.54,90.86 128.61,84.75 134.46,79.44 L134.46,79.44 Z M110.08,78.96 C110.45,80.99 112.36,84.67 112.49,84.46 C112.47,84.34 104.56,94.7 101.13,112.03 L98.19,112.04 C100.11,100.5 103.96,89.6 110.08,78.96 L110.08,78.96 Z M47.38,78.83 L48.35,79.92 C39.75,95.33 42.78,115.02 63.54,125.37 C63.4,130.09 62.8,134.88 61.69,139.31 L54.03,135.56 C54.08,118.14 44.32,101.54 28.74,90.62 C34.4,86.03 40.65,82 47.38,78.83 L47.38,78.83 Z M127.63,77.7 C127.63,77.7 127.71,81.27 127.58,82.06 C127.32,84.44 124.24,84.69 124.12,82.78 C123.62,83.54 123.27,84.49 123.07,85.34 L120.89,83.83 C121.72,83.22 122.51,82.7 123.12,81.95 C121.5,82.08 120.6,80.66 121.68,79.46 C122.88,78.08 126.21,77.93 127.63,77.7 L127.63,77.7 Z M81.74,76.76 C83.28,76.78 84.9,78.33 85.78,80.88 C86.26,82.3 86.46,82.21 87.11,81.98 C88.8,81.4 90.59,83.27 88.33,83.58 C86.12,83.95 87.38,88.33 87.19,88.72 C86.29,88.88 84.61,85.15 84.65,84.05 C84.76,81.33 82.23,79.06 80.66,80.2 C79.92,80.74 80,81.12 79.77,80.93 C79.07,80.33 78.92,78.67 79.75,77.74 C80.35,77.06 81.03,76.75 81.74,76.76 L81.74,76.76 Z M65.07,76.57 C65.78,76.98 67.62,77.42 68.68,77.02 C69.54,76.7 70.18,76.88 71.07,76.95 C71.58,77 72.6,76.77 72.6,76.77 C77.67,87.56 81.16,100.35 81.74,112.06 L77.75,112.08 C76.24,99.65 71.48,87.02 65.44,77.65 C65.17,77.24 64.82,76.59 65.07,76.57 L65.07,76.57 Z M57.14,76.26 L58.01,79.02 C58.01,79.02 58.12,78.38 58.38,78.13 C60.08,76.59 61.7,78.62 60.93,81.38 C60.76,82.22 60.42,83.89 60.42,83.89 C60.42,83.89 58.72,83.01 57.86,82.73 C55.5,81.72 54.72,79.72 56.52,79.49 C56.82,79.45 57.44,79.43 57.44,79.43 C56.69,78.83 55.04,77.47 55.04,77.47 L57.14,76.26 L57.14,76.26 Z M60.43,74.12 C60.67,74.11 61.41,75.12 61.41,75.12 C62.1,75.89 63.03,76.28 63.99,76.85 C64.08,76.72 75.24,91.84 77.13,112.7 L82.32,112.73 C81.35,92.46 75.82,82.72 73.29,76.47 L75.15,75.87 C79.32,83.95 84.41,100.35 84.24,114.71 L75.67,114.71 C74.46,100.33 68.92,86.31 61.19,75.67 C60.65,74.86 60.23,74.29 60.38,74.14 C60.39,74.13 60.41,74.13 60.43,74.12 L60.43,74.12 Z M79.94,72.54 C79.77,72.54 79.55,72.75 79.18,73.11 C78.38,73.9 78.2,74 77.43,74.12 C76.85,74.2 75.62,74.92 74.88,75.6 C74.68,75.79 74.29,75.94 73.83,76.02 C73.43,76.09 72.88,76.19 72.61,76.24 C72.34,76.28 72.04,76.37 71.95,76.43 C71.56,76.67 70.93,76.7 70.21,76.53 C69.52,76.36 69.41,76.37 68.65,76.6 C67.55,76.95 66.82,76.95 66.28,76.6 C65.74,76.26 64.87,76.13 64.32,76.31 C63.51,76.58 61.41,75.3 61.42,74.55 C61.42,74.38 60.22,73.48 59.92,73.48 C58.86,73.32 49.51,77.05 49.56,77.27 C61.04,91.6 70.71,113.44 63.42,140.16 L62.14,139.54 C63.22,134.68 63.65,129.79 63.98,124.83 C42.42,115.42 40.57,93.55 48.94,79.75 L47.52,78.22 C42.45,80.95 37.29,82.5 24.76,93.13 L24.8,110.32 C24.83,125.87 24.82,141.02 24.82,141.02 C29.36,141.52 34.35,141.94 39.28,142.37 C39.28,142.37 39.21,157.74 39.1,163.75 C39,168.84 39.19,168.52 39.19,168.52 L55.5,177.21 C54.36,172.63 57.18,170.82 59.55,171.01 C58.51,166.59 61.1,164.57 64.07,165.14 C66.07,165.52 66.78,166.64 67.92,170.33 C68.11,170.93 68.37,171.73 68.37,171.73 L69.51,171.69 C70.94,168.58 71.89,164.63 75.26,164.12 C79.67,163.45 81.31,166.51 81.31,169.57 C85.58,165.76 90.69,168.71 90.36,174.39 C92.51,172.99 96.15,171.73 98.44,177.11 C99.3,176.93 99.74,175.96 100.95,175.65 C101.41,175.56 102.44,175 102.44,175 L102.45,174.81 C102.45,174.81 103.4,174.48 104.68,174.27 C105.78,174.68 105.46,174.67 106.05,173.93 C106.71,173.59 107.77,173.37 108.6,173.44 C109.46,173.52 109.84,173.58 110.35,173.36 C111.14,173.01 111.87,172.92 112.34,173.45 C112.68,173.83 113.16,173.64 113.68,173.62 C114.72,173.58 116.11,174.01 116.54,174.96 C117.18,175.61 118.57,176.28 118.57,176.28 L119.7,176.02 L119.83,175.6 L129.07,172.03 C110.23,151.18 110.72,123.53 115.16,109.53 L116.87,110.35 C115.96,114.5 114.94,118.77 115.07,124.95 C132.04,132.6 140.47,152.35 130.19,169.6 L131.28,171.02 C135.56,169.21 146.32,163.1 150.04,159.78 L150.83,159.85 C150.83,159.85 153.09,158.37 154.08,157.58 L154.21,111.81 L153.43,112.02 L153.29,109.35 L139.3,108.23 C139.48,108.09 139.61,108.04 139.65,107.77 L139.57,82.43 C139.05,81.63 127.34,74.69 122.98,73.07 C122.81,73.07 122.93,73.37 122.99,74.09 C123.2,76.58 121.54,78.79 119.62,78.79 C118.93,78.8 118.81,79.09 118.84,80.52 C118.89,82.55 118.17,83.91 116.05,84.68 C113.54,85.6 111.85,84.27 110.45,79.06 C110.09,77.69 109.37,78.04 108.68,79.91 C108.34,80.83 107.24,83.09 106.58,84.27 C106.07,85.19 105.27,85.59 104.18,86.08 C103.33,86.5 101.49,86.43 100.43,85.88 C98.51,84.9 97.76,83.71 97.21,80.77 C97.13,80.39 96.88,80.42 96.26,80.9 C92.86,83.48 88.09,80.81 88.12,76.34 C88.12,75.03 88.07,74.97 87.31,75.6 C85.01,77.5 81.88,76.54 80.62,73.54 C80.33,72.84 80.17,72.53 79.95,72.54 L79.94,72.54 L79.94,72.54 Z M74.01,42.2 C74.01,42.2 76.94,42.54 77.17,42.6 C77.42,42.8 74.7,43.56 74.69,43.5 L74.01,42.2 L74.01,42.2 Z M97.59,36.93 C104.32,43.29 111.38,37.79 111.56,37.4 C111.67,37.75 115.51,42.39 121.05,40.64 L120.15,42.2 C109.73,40.42 100.14,39.28 78.19,42.54 C78.19,42.54 81.69,41.49 83.47,38.67 C84.45,39.32 92.07,43.61 97.59,36.93 L97.59,36.93 Z M96.99,34.09 C102.97,40.98 108.34,38.94 111.85,34.36 C113.35,38.27 116.7,40.97 122.47,38.34 C122.13,38.97 121.25,40.07 121.25,40.07 C116.15,41.46 113.62,39.03 111.65,36.72 C106.46,41.07 101.58,40.02 97.54,36.18 C94.1,40.56 88.53,41.5 83.38,37.92 C81.02,41.44 77.63,42.86 73.38,41.1 C73.38,41.1 72.48,39.67 72.4,39.58 C73.02,40.1 80.85,43.38 82.76,35.48 C85.49,40.16 94.43,40.41 96.99,34.09 L96.99,34.09 Z M69.97,34.99 L69.09,33.34 C70.67,33.45 70.2,34.59 69.97,34.99 L69.97,34.99 Z M125.9,32.79 L125.01,34.39 C124.03,33.52 124.71,32.38 125.9,32.79 L125.9,32.79 Z M82.17,31.52 C82.73,31.52 83.19,31.98 83.19,32.55 C83.19,33.13 82.73,33.59 82.17,33.59 C81.6,33.59 81.14,33.13 81.14,32.55 C81.14,31.98 81.6,31.52 82.17,31.52 L82.17,31.52 Z M112.7,30.35 C113.28,30.35 113.76,30.83 113.76,31.42 C113.76,32.02 113.28,32.5 112.7,32.5 C112.11,32.5 111.63,32.02 111.63,31.42 C111.63,30.83 112.11,30.35 112.7,30.35 L112.7,30.35 Z M97.12,30.23 C97.67,30.23 98.12,30.68 98.12,31.24 C98.12,31.8 97.67,32.26 97.12,32.26 C96.57,32.26 96.12,31.8 96.12,31.24 C96.12,30.68 96.57,30.23 97.12,30.23 L97.12,30.23 Z M63.08,21.88 L132.79,21.96 L128.86,28.45 C126.52,27.72 125.21,28.81 124.88,31.08 C124.88,31.08 124.59,30.95 124.04,30.89 C120.61,30.52 120.17,35.09 123.38,35.64 C124.2,35.78 124.34,35.62 124.34,35.62 C121.48,38.04 119.85,36.41 118.51,35.61 C118.47,35.89 115.94,37.81 113.56,35.51 C116.97,35.86 117.5,32.4 115.87,31.09 C115.53,30.75 115.18,30.49 115.18,30.49 C115.99,29.78 116.16,28.84 115.65,27.77 C114.61,25.61 111.37,25.73 110.87,28.09 C110.68,29.01 110.67,29.17 110.67,29.17 C108.05,29.34 107.52,31.84 108.42,33.23 C108.93,34.01 110.06,34.19 111.1,34.13 C109.7,36.14 106.49,35.45 105.06,33.8 C102.8,36.5 100.21,36.17 98.92,34.72 C99.8,34.71 100.4,34.7 101.21,33.95 C102.58,32.67 101.91,30.39 99.96,29.75 C99.58,29.62 99.31,29.6 99.29,29.6 C99.3,29.58 99.34,29.45 99.42,28.77 C99.91,24.79 94.01,25.18 94.58,29.09 C94.65,29.55 94.77,29.79 94.77,29.79 C94.77,29.79 94.14,29.76 93.79,29.92 C90.51,31.45 92.77,35.65 95.3,34.57 C95.54,34.46 96.19,34.14 96.29,34.14 C93.15,38.07 90.52,35.29 89.83,34.86 C87.71,38.03 84.03,35.87 83.96,35.65 C84.19,35.71 84.88,35.57 85.53,35.23 C87.6,34.14 87.02,31.33 85.4,30.72 C84.91,30.54 84.31,30.53 83.63,30.58 C83.63,30.58 83.69,29.87 83.62,29.62 C82.6,25.8 77.89,27.71 79.05,30.94 C79.15,31.22 79.43,31.51 79.43,31.51 C79.43,31.51 78.79,31.9 78.5,32.16 C76.26,34.2 78.54,37.57 81.17,36.17 C81.51,35.99 81.84,35.61 81.93,35.63 C80.7,37.91 78.82,38.7 76.15,36.82 C74.5,39.46 71.81,38.36 71.05,37.04 C73.57,37.27 75.2,32.41 70.37,32.25 C69.99,30.93 70.01,28.91 66.95,29.26 L63.08,21.88 L63.08,21.88 Z M61.68,20.88 L74.22,44.45 C74.22,44.45 74.58,44.38 74.77,44.35 C92.14,40.92 105.9,40.45 120.68,43.08 L133.82,21.13 C109.91,20.85 61.68,20.88 61.68,20.88 L61.68,20.88 Z" id="Fill-305" fill="#0A0A08"></path>
        <path d="M48.27,26.94 C40.92,37.44 33.06,43.47 32.93,51.66 C32.88,54.31 34.31,58.81 38.8,59.68 C41.71,60.23 45.71,57.88 45.79,53.09 C45.78,52.13 46.8,52.16 46.79,53.47 C46.66,57.24 45.46,61.64 43.46,65.22 L53.08,65.22 C51.07,61.64 49.88,57.24 49.74,53.47 C49.73,52.16 50.75,52.13 50.74,53.09 C50.82,57.88 54.83,60.23 57.74,59.68 C62.22,58.81 63.65,54.31 63.61,51.66 C63.48,43.47 55.62,37.44 48.27,26.94" id="Fill-306" fill="#0A0A08"></path>
        <path d="M130.72,223.45 C123.38,212.96 115.51,206.92 115.38,198.73 C115.34,196.08 116.77,191.58 121.25,190.72 C124.16,190.16 128.17,192.52 128.25,197.31 C128.24,198.26 129.26,198.23 129.25,196.93 C129.11,193.15 127.92,188.75 125.91,185.17 L135.54,185.17 C133.53,188.75 132.34,193.15 132.2,196.93 C132.19,198.23 133.21,198.26 133.2,197.31 C133.28,192.52 137.29,190.16 140.19,190.72 C144.68,191.58 146.11,196.08 146.06,198.73 C145.93,206.92 138.07,212.96 130.72,223.45" id="Fill-307" fill="#0A0A08"></path>
    </g>
</svg>