<?xml version="1.0" encoding="UTF-8" standalone="no"?>
<svg width="178px" height="250px" viewBox="0 0 178 250" version="1.1" xmlns="http://www.w3.org/2000/svg" xmlns:xlink="http://www.w3.org/1999/xlink">
    <!-- Generator: Sketch 39.1 (31720) - http://www.bohemiancoding.com/sketch -->
    <title>QH</title>
    <desc>Created with Sketch.</desc>
    <defs></defs>
    <g id="Page-1" stroke="none" stroke-width="1" fill="none" fill-rule="evenodd">
        <path d="M8.52,0.42 L169.3,0.42 C174,0.42 177.81,4.23 177.81,8.93 L177.81,240.57 C177.81,245.27 174,249.07 169.3,249.07 L8.52,249.07 C3.83,249.07 0.02,245.27 0.02,240.57 L0.02,8.93 C0.02,4.23 3.83,0.42 8.52,0.42" id="Fill-437" fill="#FFFFFF"></path>
        <path d="M13.73,56.22 C13.73,56.22 11.96,53.68 9.57,50.69 C7.97,48.69 6.69,46.52 6.58,44.65 C6.44,42.52 7.73,40.38 10.07,40.28 C12.4,40.17 13.35,41.92 13.73,43.36 C14.12,41.92 15.07,40.17 17.4,40.28 C19.74,40.38 21.03,42.52 20.89,44.65 C20.77,46.52 19.49,48.69 17.9,50.69 C15.5,53.68 13.73,56.22 13.73,56.22" id="Fill-439" fill="#C0242A"></path>
        <path d="M164.09,193.27 C164.09,193.27 162.32,195.82 159.93,198.81 C158.33,200.81 157.05,202.98 156.94,204.84 C156.8,206.97 158.09,209.11 160.43,209.22 C162.76,209.32 163.71,207.57 164.09,206.13 C164.48,207.57 165.43,209.32 167.76,209.22 C170.1,209.11 171.39,206.97 171.25,204.84 C171.13,202.98 169.86,200.81 168.26,198.81 C165.87,195.82 164.09,193.27 164.09,193.27" id="Fill-440" fill="#C0242A"></path>
        <path d="M16.27,16.98 C15.46,14.69 13.39,13.91 11.87,15.34 C10.92,16.24 10.77,17.17 10.75,22.27 C10.74,25.42 10.74,26.74 10.74,26.74 C13.69,27.7 16.45,31.15 16.43,31.1 L16.5,21.59 C16.56,20.04 16.48,18.5 16.27,16.98 L16.27,16.98 Z M15.37,34.3 C14.28,32.72 12.45,30.57 10.72,29.81 C10.62,31.62 10.77,33.14 11.41,33.96 C12.42,35.26 14.05,35.55 15.37,34.3 L15.37,34.3 Z M7.94,29.06 L5.75,29.06 L5.75,26.07 L7.94,26.07 C7.94,26.07 7.96,24.45 8.02,21.6 C8.16,15.53 8.31,14.58 10.07,12.91 C13.54,9.61 19.34,12.3 19.27,17.27 C19.17,24.28 19.25,30.97 19.04,31.91 C18.68,33.58 18.64,33.67 18.79,33.98 C19.09,34.59 21.72,34.86 21.72,34.69 L21.72,37.64 C19.71,37.79 18.88,37.61 17.28,36.46 C16.28,37.43 13.23,38.4 10.81,37.25 C8.96,36.39 7.57,34.14 7.94,29.06 L7.94,29.06 Z" id="Fill-441" fill="#C0242A"></path>
        <path d="M161.55,232.52 C162.36,234.81 164.44,235.58 165.96,234.15 C166.9,233.26 167.05,232.32 167.08,227.22 C167.09,224.08 167.09,222.75 167.09,222.75 C164.13,221.79 161.38,218.35 161.4,218.39 L161.33,227.91 C161.27,229.45 161.35,231 161.55,232.52 L161.55,232.52 Z M162.46,215.2 C163.55,216.77 165.38,218.92 167.1,219.68 C167.21,217.87 167.05,216.35 166.42,215.54 C165.41,214.24 163.77,213.94 162.46,215.2 L162.46,215.2 Z M169.88,220.43 L172.08,220.43 L172.08,223.43 L169.88,223.43 C169.88,223.43 169.87,225.04 169.8,227.89 C169.67,233.97 169.51,234.91 167.76,236.58 C164.29,239.89 158.48,237.2 158.55,232.23 C158.65,225.21 158.58,218.53 158.78,217.58 C159.15,215.91 159.18,215.82 159.04,215.52 C158.73,214.9 156.11,214.64 156.11,214.81 L156.11,211.86 C158.11,211.7 158.94,211.89 160.55,213.04 C161.55,212.07 164.59,211.1 167.02,212.24 C168.86,213.11 170.26,215.35 169.88,220.43 L169.88,220.43 Z" id="Fill-442" fill="#C0242A"></path>
        <path d="M77.91,227.39 C78.21,227.55 78.44,228.12 78.44,228.12 L78.17,228.15 L77.91,227.39 L77.91,227.39 Z M97.42,227.17 L97.42,228.04 L96.42,228.04 C96.48,227.94 97.04,227.33 97.42,227.17 L97.42,227.17 Z M97.42,224.64 C97.44,224.64 97.44,224.65 97.42,224.69 L97.42,226.21 C97.42,226.25 96.01,227.18 95.41,228.04 L93.82,228.04 C94.92,226.05 97.19,224.63 97.42,224.64 L97.42,224.64 Z M75.73,223.41 C77.14,224.22 79.48,226.4 80.33,228.08 L79.57,228.11 C78.8,227.13 77.58,226 76.58,225.1 C75.94,224.35 75.73,223.41 75.73,223.41 L75.73,223.41 Z M97.42,221.93 L97.42,223.85 C95.57,224.95 94.02,226.39 92.94,228.04 L90.98,228.04 C92.55,225.36 94.71,223.23 97.42,221.93 L97.42,221.93 Z M97.42,219.55 L97.42,221.11 C94.49,222.6 92.04,224.88 90.19,228.04 L88.53,228.01 C90.43,224.63 93.27,221.46 97.42,219.55 L97.42,219.55 Z M72.54,217.21 C77.28,218.91 82.67,223.03 85.06,228.04 L83.6,228.03 C81.97,225.17 78.75,221.54 73.45,218.99 C72.98,218.6 72.73,217.91 72.54,217.21 L72.54,217.21 Z M96.19,213.82 C96.86,213.54 97.15,213.44 97.3,213.56 C97.99,214.14 96.86,215.05 94.81,215.4 C93.16,215.67 92.17,215.73 90.29,214.33 C88.84,213.24 89.53,212.72 90.36,213.21 C92.58,214.52 94.23,214.56 96.19,213.82 L96.19,213.82 Z M72.06,212.69 C71.87,212.69 71.81,212.8 71.85,213.03 C71.97,213.82 77.33,216.91 79.57,217.33 C81.41,217.67 82.83,217.52 83.96,216.86 C86.69,215.26 85.99,213.1 83.32,214.73 C81.52,215.82 76.97,215.32 74.27,213.75 C73.06,213.05 72.38,212.7 72.06,212.69 L72.06,212.69 Z M89.62,211.32 C89.71,211.32 89.83,211.36 89.97,211.45 C91.97,212.76 94.55,213.34 96.4,212.41 C96.82,212.2 97.09,212.21 97.09,212.41 C97.09,212.63 96.63,213.08 95.77,213.34 C93.86,213.92 90.71,213.16 89.62,211.98 C89.3,211.63 89.34,211.31 89.62,211.32 L89.62,211.32 Z M76.62,209.57 C76.74,209.75 76.52,210.29 76.46,210.37 C76.44,210.4 75.72,210.37 75.74,210.32 C75.75,210.27 75.67,209.86 75.85,209.56 C76.04,209.43 76.48,209.37 76.62,209.57 L76.62,209.57 Z M96.11,209.41 C96.45,209.44 96.81,209.6 96.88,209.98 C96.88,210.23 96.59,210.51 96.26,210.52 C96.11,210.53 95.55,210.11 95.66,209.52 C95.78,209.31 95.92,209.39 96.11,209.41 L96.11,209.41 Z M82.09,209.49 C82.31,209.99 81.69,210.37 81.61,210.2 C81.48,210.15 81.31,209.32 81.39,209.27 C81.6,209.26 82,209.33 82.09,209.49 L82.09,209.49 Z M91.42,209.39 C91.63,209.71 91.25,210.23 91.03,210.47 C90.82,210.7 90.35,210.5 90.15,210.28 C89.98,210.05 90.11,209.61 90.39,209.46 C90.69,209.31 91.2,209.17 91.42,209.39 L91.42,209.39 Z M95.48,210.74 L94.95,210.82 C94.61,209.84 93.03,208.52 92.29,210.91 L91.62,210.88 C92.08,207.65 95,208.15 95.48,210.74 L95.48,210.74 Z M78.98,208.47 C79.91,208.5 80.86,209.22 81.15,210.52 C81.18,210.64 81.2,210.76 81.22,210.88 L80.42,210.91 C79.76,208.26 77.77,209.14 77.57,210.69 L76.85,210.6 C77.12,209.12 78.04,208.44 78.98,208.47 L78.98,208.47 Z M78.01,204.9 C77.87,204.9 77.78,204.95 77.74,205.05 C77.64,205.29 77.93,205.44 79.59,206.6 C81.03,207.6 82.14,208.34 82.05,208.48 C81.99,208.58 81.1,208.36 80.47,208.17 C78.8,207.67 76.34,208.27 74.96,209.25 C74.61,209.48 74.03,209.22 73.52,209.09 C73.32,209.03 72.88,208.98 72.65,209.04 C71.61,209.31 72.62,210.32 75.17,211.62 C78.3,213.21 80,213.36 81.9,212.39 C83.16,211.73 83.62,212.22 82.24,212.97 C79.82,214.28 77.51,213.88 73.7,211.24 C71.94,210.01 71.23,210.22 72.75,211.38 C75.41,213.48 80.54,216.04 83.69,212.91 C83.81,212.87 84.09,212.89 84.23,212.89 C84.88,212.89 84.91,212.68 84.23,211.6 C83.82,210.94 82.99,210.25 84,209.45 C84.77,208.84 84.71,208.55 83.79,208.27 C83.54,208.2 83.56,208.37 83.2,208.07 C80.97,206.26 78.79,204.89 78.01,204.9 L78.01,204.9 Z M62.76,197.6 L63.42,198.96 C67.07,200.74 66.85,205.63 66.65,205.44 L67.22,206.71 C68.14,203.55 66.47,198.87 62.76,197.6 L62.76,197.6 Z M61.26,194.73 L61.79,195.61 C66.65,197.36 69.94,201.35 68,208.09 L68.46,208.83 C70.89,202.04 68.11,196.43 61.26,194.73 L61.26,194.73 Z M80.88,192.45 C80.76,192.47 80.89,192.76 81.3,193.48 C81.53,193.87 81.58,194.67 81.63,195.16 C81.57,196.39 81.57,196.35 82.18,195.64 C82.56,195.26 83.3,195.35 84.46,195.67 C85.22,195.87 85.4,195.95 85.92,195.62 C86.53,195.23 86.67,195.42 87.2,195.53 C87.7,195.63 88.16,195.43 88.71,195.28 C89.38,195.09 89.51,195.13 90.1,195.28 C91,195.7 90.87,195.67 90.94,194.13 C91.02,192.63 90.94,192.52 90.07,193.03 C89.23,193.52 88.65,193.74 87.36,193.29 C85.96,192.8 85.76,192.92 84.77,193.22 C83.56,193.59 83.01,193.71 82.05,193.12 C81.42,192.73 81,192.42 80.88,192.45 L80.88,192.45 Z M85.58,191.16 C84.48,191.18 83.39,191.54 83.29,192.13 C83.25,192.42 83.67,192.31 85.72,192.05 C86.81,191.92 87.32,192.57 88.32,192.5 C88.82,192.44 88.35,191.97 88.19,191.83 C87.64,191.36 86.56,191.14 85.58,191.16 L85.58,191.16 Z M95.89,189.87 C95.68,190.46 95.43,191.14 94.93,191.66 L94.28,190.27 L95.89,189.87 L95.89,189.87 Z M97.6,189.33 C97.15,191.01 96.47,192.25 95.61,193.54 L95.34,192.65 C95.93,191.69 96.32,190.58 96.83,189.51 L97.6,189.33 L97.6,189.33 Z M83.09,188.21 C83,188.22 82.97,188.3 82.97,188.48 C82.97,189.12 83.63,189.62 84.83,189.89 C86.46,190.27 88.75,189.7 88.75,188.92 C88.75,188.47 88.43,188.44 87.5,188.88 C86.33,189.42 85.3,189.31 83.77,188.5 C83.42,188.31 83.21,188.2 83.09,188.21 L83.09,188.21 Z M100.79,188.21 C100.96,188.49 98.06,195.45 96.63,196.71 L96.07,194.92 C97.24,193.14 98.96,188.86 98.91,188.82 L100.79,188.21 L100.79,188.21 Z M103.44,187.05 C102.07,191.5 100.31,195.88 97.32,199.73 L96.95,197.81 C99.76,193.46 101.1,189.51 101.7,187.78 L103.44,187.05 L103.44,187.05 Z M82.14,182.28 C88.99,182.26 95.77,183.77 101.17,186.89 C99.33,187.92 93.48,189.35 93.48,189.35 C90.19,185.64 88.52,181.92 82.57,183.82 C76.34,185.44 70.73,190.87 67.58,194.47 C64.41,192.57 62.7,192.11 59.9,191.95 C59.73,191.95 59.49,192.66 59.69,191.5 C60.49,190.26 61.05,188.85 61.58,187.42 C67.46,184.06 74.84,182.3 82.14,182.28 L82.14,182.28 Z M51.19,174.81 C50.65,176.29 50.51,176.65 51.89,176.04 C54.33,176.95 56.96,180.95 56.12,184.96 C55.85,185.43 56.32,184.65 56.64,185.97 C57.84,183.04 56.64,176.7 51.19,174.81 L51.19,174.81 Z M50.11,172.61 C56.8,173.66 60.9,181.9 57.8,187.87 C57.43,188.14 58,189.44 58.38,188.95 C61.65,184.29 59.21,172.84 49.69,171.75 C47.75,171.51 49.51,172.09 50.11,172.61 L50.11,172.61 Z M79.86,156.16 L79.83,157.53 L76.98,157.7 L79.86,156.16 L79.86,156.16 Z M39.44,155.71 L40.37,156.35 L39.49,157.92 L38.53,157.21 L39.44,155.71 L39.44,155.71 Z M34.39,155.64 C34.62,155.65 34.82,155.79 35.91,156.31 C40.28,159.49 42.03,161.4 43.11,164.89 C43.76,166.97 43.75,166.89 41.62,165.75 C39.6,164.68 36.85,162.89 35.07,160.59 C34.78,166.01 35.41,172.76 35.41,172.76 C38.14,174.11 37.25,177.64 37.24,177.62 C44.27,175.69 42.73,185.02 37.5,183.01 C38.74,190.01 30.78,189.44 31.6,183.44 C25.26,183.19 26.38,176.24 31.64,177.2 C31.09,175.05 31.85,173.6 33.79,172.68 L33.49,163.51 C33.49,163.51 28.33,170.98 27.46,170.86 C26.96,170.79 26.19,169.93 27.48,163.39 C28.15,159.98 31.74,155.83 33.75,155.7 C34.1,155.67 34.25,155.63 34.39,155.64 L34.39,155.64 Z M86.26,155.62 L89.31,157.43 L89.31,157.89 L86.26,157.64 L86.26,155.62 L86.26,155.62 Z M98.17,154.52 C109.15,157.05 119.9,162.52 130.33,172.07 L128.15,173.63 C128.15,173.63 119.01,163.13 98.69,156.97 L98.17,154.52 L98.17,154.52 Z M32.26,154.21 C32.41,154.21 32.55,154.23 32.67,154.28 C33.36,154.6 33.18,155.15 32.14,155.72 C31.09,156.3 30.73,156.2 30.5,155.55 C30.31,155 31.45,154.23 32.26,154.21 L32.26,154.21 Z M79.89,152.68 L79.9,154.99 L74.03,157.99 L74.33,155.8 L79.89,152.68 L79.89,152.68 Z M86.2,152.26 L92.51,156.11 L92.74,158.61 L86.2,154.82 L86.2,152.26 L86.2,152.26 Z M79.89,149.26 L79.87,151.62 L74.56,154.44 L74.97,152.05 L79.89,149.26 L79.89,149.26 Z M86.11,149.21 L91.75,152.33 L92.3,154.89 L86.11,151.53 L86.11,149.21 L86.11,149.21 Z M30.72,149.07 C31.03,149.04 31.31,149.44 31.56,149.87 C31.65,149.98 32,149.93 32.25,149.93 C33.21,149.94 33.34,150.35 32.41,150.86 C32.14,151.01 31.25,151.7 30.65,152.21 C29.05,153.75 28.18,153.39 28.39,151.81 C28.58,150.3 29.88,149.15 30.72,149.07 L30.72,149.07 Z M33.18,147.87 C33.39,147.87 33.58,147.92 33.74,148.04 C34.1,148.34 33.89,148.92 33.39,149.18 C32.96,149.4 32.25,149.3 32.05,149.1 C31.57,148.61 32.45,147.89 33.18,147.87 L33.18,147.87 Z M86.11,146.19 L91.22,149.01 L91.66,151.39 L86.11,148.28 L86.11,146.19 L86.11,146.19 Z M29.83,146.17 C30.15,146.15 30.45,146.22 30.72,146.42 C31.01,146.79 31.36,146.9 31.56,146.91 C32.39,146.94 32.13,147.25 31.25,147.65 C30.04,148.21 29.19,148.92 28.32,149.73 C27.42,150.58 27.35,150.76 27.05,150.41 C25.95,149.12 28.1,146.27 29.83,146.17 L29.83,146.17 Z M79.85,145.89 L79.87,148.27 L75,150.86 L75.32,148.44 L79.85,145.89 L79.85,145.89 Z M32.24,144.89 C32.46,144.88 32.69,144.92 32.85,145.03 C33.22,145.28 33.24,145.78 32.88,146.03 C32.05,146.56 30.76,145.83 31.45,145.2 C31.64,145.02 31.95,144.91 32.24,144.89 L32.24,144.89 Z M28.85,143.39 C29.07,143.38 29.25,143.44 29.34,143.6 C29.42,143.75 29.52,144.13 29.83,144.31 C30.42,144.65 30.48,144.72 29.37,145.21 C28.9,145.42 27.98,146.05 27.66,146.26 C26.68,146.93 26.28,146.71 26.21,145.92 C26.12,144.93 27.91,143.44 28.85,143.39 L28.85,143.39 Z M86.04,143.34 L90.55,145.78 L90.89,147.83 L86.04,145.29 L86.04,143.34 L86.04,143.34 Z M79.86,143.08 L79.86,144.92 L75.48,147.24 L75.76,145.19 L79.86,143.08 L79.86,143.08 Z M31,142.4 C31.09,142.39 31.18,142.4 31.26,142.42 C31.73,142.54 32.02,143.22 31.73,143.6 C31.21,144.32 29.81,143.82 30.02,142.92 C30.07,142.68 30.58,142.43 31,142.4 L31,142.4 Z M29.79,140.23 C30.43,140.22 30.67,140.91 30.18,141.36 C29.85,141.66 28.94,141.6 28.85,141.36 C28.44,140.95 29.01,140.24 29.79,140.23 L29.79,140.23 Z M85.91,140.16 L89.87,142.43 L90.39,144.56 L85.97,142.27 L85.91,140.16 L85.91,140.16 Z M79.92,139.98 L79.92,142.03 L75.91,144.11 L76.18,142.08 L79.92,139.98 L79.92,139.98 Z M85.85,137.21 L89.39,139.11 L89.8,141.36 L85.88,139.32 L85.85,137.21 L85.85,137.21 Z M79.93,136.93 L79.91,138.96 L76.34,140.92 L76.72,138.66 L79.93,136.93 L79.93,136.93 Z M57.38,136.42 C57.65,136.71 57.53,137.63 56.95,137.57 C56.78,137.55 56.76,136.62 56.87,136.12 C57.03,136.04 57.29,136.32 57.38,136.42 L57.38,136.42 Z M117.03,135.79 C117.23,135.78 117.28,135.98 117.27,136.35 C117.22,137.44 115.45,141.46 114.03,139.4 C113.64,138.63 114.04,137.84 115.28,136.9 C116.26,136.15 116.77,135.79 117.03,135.79 L117.03,135.79 Z M92.37,135.67 C93.22,136.07 104.18,139.14 107.8,138.09 C107.8,138.09 110.91,142.6 113.21,144.21 C109.65,149.47 97.61,154.62 97.61,154.62 L92.37,135.67 L92.37,135.67 Z M79.89,134.36 L79.91,135.97 L76.89,137.71 L77.14,135.91 L79.89,134.36 L79.89,134.36 Z M85.85,134.19 L88.94,136.02 L89.04,137.87 L85.98,136.3 L85.85,134.19 L85.85,134.19 Z M115.5,133.29 C115.57,133.29 115.61,133.32 115.61,133.41 C115.61,133.61 115.55,134.35 115.95,134.41 C116.73,134.54 116.56,134.79 115.87,135.39 C115.13,136.05 114.45,136.83 113.55,137.32 C111.24,138.18 110.52,135.72 112.7,134.44 C113.46,134 114.14,133.7 114.65,133.55 C115.04,133.44 115.34,133.29 115.5,133.29 L115.5,133.29 Z M85.78,131.57 L88.44,133.3 L88.59,134.8 L85.84,133.27 L85.78,131.57 L85.78,131.57 Z M80,131.5 L80.01,133.25 L77.18,134.68 L77.44,132.75 L80,131.5 L80,131.5 Z M59.03,132.42 C60.53,134.67 60.71,135.71 59.73,136.37 C59.11,136.85 57.78,136.16 57.48,134.71 C57.25,133.6 57.14,132.44 57.5,131.52 C58.04,130.13 58.88,132.19 59.03,132.42 L59.03,132.42 Z M114.06,130.82 C114.47,130.82 114.44,130.96 114.26,131.44 C114.12,131.86 113.89,132 114.48,132.27 C114.58,132.31 114.8,132.59 114.6,132.7 C114.13,133.02 112.04,133.98 111.28,134.24 C109.81,134.73 108.9,133.52 109.77,132.32 C110.13,131.82 112.62,130.91 113.86,130.83 C113.94,130.82 114.01,130.82 114.06,130.82 L114.06,130.82 Z M60.21,129.42 C60.42,129.43 60.75,129.75 61.24,130.35 C63.48,133.12 63.79,133.65 63.05,134.39 C62.18,135.26 60.96,134.42 59.64,131.99 C59.46,131.66 59.24,131.24 59.12,131.09 C58.63,130.52 58.84,130.34 59.46,130.39 C59.79,130.41 59.95,130.29 59.96,129.95 C59.97,129.58 60.05,129.41 60.21,129.42 L60.21,129.42 Z M80.01,128.91 L79.99,130.53 L77.66,131.66 L77.92,130.01 L80.01,128.91 L80.01,128.91 Z M112.7,128.19 C113.01,128.19 113.25,128.2 113.4,128.23 C113.79,128.31 113.91,128.53 113.66,128.75 C113.28,129.1 113.39,129.44 113.78,129.63 C114.04,129.75 113.93,130.02 113.61,130.2 C113.43,130.31 113.14,130.42 112.76,130.55 C110.51,131.25 108.86,131.04 108.42,129.99 C107.93,128.78 108.88,128.19 111.62,128.19 L112.7,128.19 L112.7,128.19 Z M62.31,127.8 C62.63,127.95 63.11,128.27 63.77,128.75 C65.17,129.79 65.98,130.5 66.01,131.12 C66.03,131.43 65.8,131.83 65.45,132.02 C64.6,132.47 63.79,132.1 61.97,130.22 C61.38,129.61 60.98,129.29 60.8,129.02 C60.59,128.7 60.75,128.41 61.09,128.53 C62.58,129.21 61.29,127.34 62.31,127.8 L62.31,127.8 Z M78.17,127.35 L79.81,128.09 L77.95,129.02 L78.17,127.35 L78.17,127.35 Z M72.22,125.67 L74.71,126.24 L68.49,153.64 C66.36,154.25 65.14,154.52 63.65,155.33 L67.95,154.58 L67.58,156.54 L63.67,157.28 L63.58,157.86 L68.06,157.05 C68.06,157.05 67.9,158.92 67.74,159.64 C72.01,159.3 76.23,158.1 80.52,158.07 C80.52,158.07 80.63,136.45 80.61,134.09 C80.6,131.55 80.61,128.5 80.61,128.5 L84.92,130.95 L85.63,158.2 L99.12,160.4 C99.02,159.94 98.66,157.84 98.66,157.84 C108.65,160.81 118.79,165.19 127.77,174.26 C123.59,176.54 119.64,178.79 115.59,180.98 L115,181.83 C125.29,177 140.87,166.93 152.16,155.81 L152.16,228.07 L98.42,228.07 L98.42,221.34 L98.45,215.31 C98.23,211.45 98.9,207.2 97.72,203.95 L97.49,200.56 C100.82,196.66 102.62,191.74 104.21,186.71 C104.21,186.71 105.81,186.09 106.59,185.81 L106.86,184.82 C105.31,185.62 101.76,186.96 101.76,186.96 C102.14,186.65 94.2,183.29 89.29,182.5 C81.19,181.19 70.3,182.54 61.62,186.87 C61.2,187.17 61.01,187.17 61.12,186.77 C63.14,179.39 58.89,171.98 51.44,169.83 C49.86,169.38 48.56,169.38 48.56,169.38 L48.7,170.03 C60.88,171.41 63.73,184.37 59.04,190.39 C57.81,192.38 57.63,192.96 60.21,192.89 C70.64,192.8 74.26,204.54 69.51,211.03 C69.52,210.98 69.89,211.79 69.89,211.79 C72.86,207.85 73.65,200.36 68.39,195.1 C72.28,190.74 79.73,183.76 86.18,184.17 C88.53,184.32 90.84,187.18 92.38,189.46 C95.65,194.3 96.49,201.05 96.72,204.9 C96.78,205.91 96.91,206.64 96.91,207.17 C96.92,208.71 96.63,208.53 95.64,208.27 C94.4,207.95 92.69,207.94 91.43,208.32 C89.41,208.94 89.74,208.59 91.54,206.34 C92.6,205.02 92.74,204.61 92.3,204.52 C92.17,204.5 91.72,204.95 91.13,205.86 C89.36,208.61 89.49,207.48 90.78,203.2 C91.61,200.41 91.53,200.21 89.25,198.48 C88.5,197.91 87.58,197.35 87.5,197.18 C87.07,196.26 86.89,197.41 87.27,198.16 C87.65,198.9 86.86,199.24 85.46,198.48 C82.18,196.64 80.04,200.35 82.97,201.96 C83.66,202.34 84.05,202.03 83.51,201.53 C81.71,199.85 82.96,198.44 85.4,199.92 C86.81,200.78 87.35,200.51 87.82,199.43 C88.08,198.99 90.27,200.57 90.27,201.19 C90.27,201.59 90.01,202.88 89.77,203.74 C89.06,206.17 88.87,206.93 88.57,208.5 C88.02,211.36 88.03,212.83 88.62,214.09 C89.95,216.9 93.27,218.23 96.16,217.1 C96.58,216.93 97.38,216.8 97.38,216.8 L97.42,218.86 C91.72,221.03 87.61,227.81 87.8,228.04 L85.77,228.04 C83.08,222.66 78.34,218.6 72.31,216.36 C71.13,215.33 72.61,219.11 73.96,219.94 C76.82,221.41 80.61,224.01 82.7,228.04 L81.26,228.06 C79.5,225.37 77.23,223.55 75.08,221.97 C74.57,221.86 75.45,226.85 77.52,228.39 L40.42,229.04 C42.95,219.06 43.44,207.99 37.5,193.49 C42.42,193.79 46.78,192.73 50.78,190.97 L50.42,189.94 C45.87,192.13 40.87,192.56 35.87,192.04 C39.66,199.12 42.98,213.81 39.75,228.07 L25.69,228.07 L25.69,150.55 C25.69,150.55 26.48,151.04 26.64,151.2 C27.07,151.64 27.36,152.28 27.48,152.75 C27.64,153.35 27.8,153.38 28.65,154.02 C29.06,154.33 29.29,154.6 29.29,154.76 C29.27,154.93 29.26,155.48 29.54,155.82 C30.29,156.73 30.15,157.31 29.59,157.9 C26.98,160.63 25.35,166.38 26.67,172.44 C29.76,170.34 32.95,164.86 33.05,164.85 L33.35,172.34 C33.08,172.28 31.19,173.41 31.16,174.88 C30.31,175.14 29.26,174.71 28.4,174.45 L29.02,176.66 C25.84,177.94 25.67,182.31 29.36,183.56 C29.36,183.56 29.02,185.27 28.73,186.19 L31.12,185.83 C32.51,190 37.84,188.67 37.82,185.75 C37.82,185.75 39.44,186.37 40.06,186.64 L39.46,183.79 C45.52,180.74 40.98,176.76 39.6,176.81 C39.62,176.02 39.98,175.77 40.31,174.84 L37.86,174.99 C37.42,173.52 35.77,172.32 35.71,172.48 L35.37,161.75 C37.22,163.38 39.04,165.05 41.5,166.34 C43.76,167.54 43.99,167.27 43.66,165.21 C43.51,164.28 43.52,163.67 43.52,163.67 C44.37,163.87 46.51,166.67 46.41,168.06 C47.19,169.08 47.9,166.32 45.88,163.96 C51.26,158.29 55.36,148.89 56.23,142.49 L63.38,139.62 L63.46,138.68 C68.34,135.4 70.88,130.84 72.21,125.67 L72.22,125.67 L72.22,125.67 Z M63.45,125.37 C63.62,125.37 63.92,125.46 64.48,125.64 C67.73,126.67 69.05,127.92 67.46,129.13 C67,129.49 66.28,129.34 64.93,128.58 C63.54,127.8 62.85,127.37 62.59,127.1 C62.34,126.82 62.48,126.51 62.87,126.54 C63.41,126.57 63.33,126.3 63.29,125.84 C63.25,125.52 63.24,125.37 63.45,125.37 L63.45,125.37 Z M109.94,124.53 C110.72,124.54 112.04,124.84 113.33,125.35 C114.45,125.77 114.59,125.88 113.81,126.21 C113.35,126.41 113.4,126.59 113.54,126.9 C113.75,127.13 114.16,127.59 113.52,127.5 C112.77,127.56 110.79,127.44 110.18,127.34 C108.37,127.02 107.88,125.38 109.36,124.61 C109.48,124.55 109.68,124.52 109.94,124.53 L109.94,124.53 Z M120.05,122.93 C119.71,126.27 119.43,128.87 118.93,132.14 C118.56,131.99 115.97,125.83 120.05,122.93 L120.05,122.93 Z M64.25,122.93 C64.47,122.93 64.77,122.97 65.16,123.04 C65.63,123.11 66.37,123.19 66.75,123.18 C69.15,123.14 70.14,124.82 68.16,125.68 C67.62,125.91 67.4,125.89 65.92,125.45 C65.21,125.25 64.34,125.03 63.98,124.93 C63.27,124.72 63.02,124.5 63.49,124.33 C63.93,124.18 63.97,123.88 63.7,123.47 C63.63,123.06 63.76,122.92 64.25,122.93 L64.25,122.93 Z M99.57,121.07 L99.57,123.23 L97.46,122.25 L99.57,121.07 L99.57,121.07 Z M110.78,121.05 C111.24,121.05 111.8,121.19 112.45,121.48 C113.95,122.17 114.95,122.72 115.18,123.09 C115.32,123.32 115.1,123.51 114.79,123.59 C114.43,123.7 114.38,123.85 114.48,124.29 C114.48,124.54 114.55,124.82 114.23,124.83 C113.65,124.86 112.36,124.45 111.05,123.75 C108.84,122.55 109.14,121.02 110.78,121.05 L110.78,121.05 Z M120.06,120.06 C120.18,120.05 120.17,120.27 120.12,120.82 L120.03,122 C119.25,122.13 115.34,127.02 118.52,132.7 L118.25,133.71 C118.13,134.21 118.09,134.29 117.68,133.98 C115.3,132.32 114.53,123.9 119.45,120.42 C119.77,120.2 119.96,120.06 120.06,120.06 L120.06,120.06 Z M67.52,119.64 C69.25,119.58 70.22,121.31 68.5,122.22 C67.81,122.58 65.54,122.33 64.48,122.24 C63.29,122.13 63.99,121.77 64.06,121.67 C64.22,121.4 64.35,121.35 63.73,120.98 C63.23,120.46 62.95,120.33 64.19,120.17 C64.78,120.09 66.24,119.95 66.74,119.78 C67.01,119.69 67.28,119.65 67.52,119.64 L67.52,119.64 Z M100.02,118.36 L100,120.14 L97.43,121.39 L97.45,119.79 L100.02,118.36 L100.02,118.36 Z M112.7,117.8 C113.98,117.8 117.58,121.09 116.04,121.21 C115.86,121.22 115.92,121.46 115.92,121.61 C115.92,121.76 115.92,122.04 115.88,122.15 C115.76,122.44 115.34,122.38 114.7,122 C113.06,121.02 112.69,120.71 112.12,120.17 C111.01,119.11 111.32,117.79 112.7,117.8 L112.7,117.8 Z M59.62,116.57 C59.69,116.56 59.76,116.62 59.87,116.76 C63.12,120.72 62.29,126.5 58.17,129.35 C57.71,129.66 57.69,129.37 57.74,128.75 L57.82,127.58 C57.84,127.34 62.55,124.44 59.07,117.97 L59.36,117.06 C59.45,116.76 59.52,116.58 59.62,116.57 L59.62,116.57 Z M67.06,116 C67.7,115.98 68.09,116.23 68.29,116.73 C68.78,117.93 67.92,118.66 65.35,119.2 C63.11,119.74 63.16,119.77 63.47,118.93 C63.68,118.38 62.99,118.32 62.6,118.17 C61.95,117.92 62.48,117.85 64.36,116.9 C65.54,116.31 66.42,116.02 67.06,116 L67.06,116 Z M89.41,115.35 L91.49,116.47 L91.58,118.59 L89.73,117.79 L89.41,115.35 L89.41,115.35 Z M114.81,115.21 C115.61,115.21 116.82,116.15 118.2,118.03 C118.51,118.45 118.75,118.82 118.8,119.08 C118.84,119.31 118.69,119.45 118.46,119.42 C117.92,119.32 117.72,119.12 117.57,119.8 C117.53,119.97 117.63,120.27 117.44,120.22 C116.47,119.93 113.71,117.12 113.88,116.22 C114,115.54 114.33,115.21 114.81,115.21 L114.81,115.21 Z M100.6,115.11 L100.35,117.27 L97.49,118.62 L97.49,116.77 L100.6,115.11 L100.6,115.11 Z M73.55,113.7 C76.79,113.68 82.98,114.36 91.55,119.75 C92.64,120.44 93.74,121.2 94.97,121.82 C98.22,123.58 100.9,124.78 105.09,125.56 L104.98,127.75 C104.94,128.44 106.07,132.43 105.55,134.67 C104.78,134.66 106.29,135.33 106.29,135.33 L107.27,137.36 C107.27,137.36 102.13,137.32 99.79,136.85 C96.03,136.24 89.15,133.02 85.83,130.49 C82.38,127.94 77.17,125.82 72.7,125 L72.64,123.13 C72.64,123.13 72.19,116.7 71.84,115.82 L71.01,113.78 C71.21,113.87 72.08,113.71 73.55,113.7 L73.55,113.7 Z M117.84,113.38 C118.22,113.38 118.68,113.6 119.17,114.13 C119.99,115.03 120.59,116.93 120.14,117.42 C119.79,117.38 119.62,117.9 119.6,118.1 C119.55,118.7 118.47,117.61 117.44,115.89 C116.61,114.5 117.01,113.39 117.84,113.38 L117.84,113.38 Z M65.1,112.7 C66.17,112.68 66.94,113.41 66.58,114.49 C66.16,115.54 63.76,116.2 62.68,116.92 C61.97,117.27 61.8,116.89 62.02,116.27 C62.12,115.99 62.2,115.77 61.66,115.69 C60.34,115.49 61.14,114.85 63.55,113.23 C64.07,112.87 64.62,112.71 65.1,112.7 L65.1,112.7 Z M120.38,112.3 C120.47,112.29 120.54,112.32 120.6,112.4 C120.81,112.7 120.85,114.01 120.63,114.76 C120.27,115.63 119.55,113.43 119.63,112.87 C119.78,112.61 120.13,112.31 120.38,112.3 L120.38,112.3 Z M88.79,112.13 L91.42,113.44 L91.46,115.58 L89.07,114.32 L88.79,112.13 L88.79,112.13 Z M101.02,111.93 L100.73,114.13 L97.48,115.8 L97.48,113.68 L101.02,111.93 L101.02,111.93 Z M63.22,110.15 C64,110.15 64.61,110.68 64.15,111.57 C63.86,112.13 63.64,112.33 62.4,113.22 C61.89,113.58 61.45,113.91 61.41,113.96 C61.38,114 61.05,114.22 60.84,114.37 C59.72,115.15 60.11,113.53 61.51,111.13 C61.91,110.44 62.62,110.14 63.22,110.15 L63.22,110.15 Z M101.3,108.89 L101.15,110.88 L97.51,112.7 L97.56,110.75 L101.3,108.89 L101.3,108.89 Z M88.3,108.83 L91.43,110.55 L91.41,112.63 L88.54,110.95 L88.3,108.83 L88.3,108.83 Z M148.45,108.79 C148.57,109.03 148.5,109.46 148.27,109.59 C147.96,109.73 147.15,109.59 147.02,109.35 C146.92,109.16 146.94,109.05 147.14,108.86 C147.47,108.59 148.21,108.39 148.45,108.79 L148.45,108.79 Z M147.02,106.57 C147.73,106.62 147.64,107.32 147.07,107.65 C146.64,107.95 146.08,107.79 145.86,107.44 C145.35,106.47 146.51,106.58 147.02,106.57 L147.02,106.57 Z M101.81,105.67 L101.73,107.84 L97.52,109.92 L97.5,107.86 L101.81,105.67 L101.81,105.67 Z M87.77,105.51 L91.43,107.5 L91.41,109.61 L87.92,107.62 L87.77,105.51 L87.77,105.51 Z M145.42,104.02 C146.15,104.02 146.8,104.54 146.39,104.88 C146.08,105.14 144.89,105.26 144.66,105.03 C144.22,104.58 144.61,104.01 145.42,104.02 L145.42,104.02 Z M150.9,103.33 C151.19,103.35 151.28,103.68 151.28,104.26 C151.28,105.23 150.64,106.12 149.69,106.55 C148.99,106.87 148.5,106.85 148.15,106.47 C147.99,106.3 147.77,106.16 147.66,106.16 C146.16,106.1 146.4,105.71 147.83,105.11 C148.34,104.9 149.33,104.21 149.79,103.87 C150.32,103.49 150.67,103.32 150.9,103.33 L150.9,103.33 Z M102.43,102.45 L102.13,104.55 L97.5,106.94 L97.51,105.21 L102.43,102.45 L102.43,102.45 Z M87.06,102.14 L91.35,104.31 L91.37,106.53 L87.43,104.46 L87.06,102.14 L87.06,102.14 Z M144.85,100.93 C145.92,100.91 146.3,101.8 145.04,102.19 C144.14,102.47 143.63,102.27 143.63,101.66 C143.82,101.04 144.37,100.96 144.85,100.93 L144.85,100.93 Z M149.97,100.02 C150.13,100.01 150.26,100.07 150.39,100.21 C151.07,100.98 149.77,103.31 148.29,104.01 C147.72,104.28 147.37,104.24 146.89,103.83 C146.67,103.63 146.33,103.37 146.13,103.39 C145.28,103.47 145.75,102.52 146.43,102.46 C146.62,102.45 147.81,101.55 148.71,100.8 C149.31,100.3 149.69,100.05 149.97,100.02 L149.97,100.02 Z M102.8,99.18 L102.54,101.44 L97.5,104.08 L97.53,102 L102.8,99.18 L102.8,99.18 Z M86.39,98.9 L91.23,101.4 L91.28,103.46 L86.8,101.01 L86.39,98.9 L86.39,98.9 Z M148.26,97.38 C149.48,97.34 149.39,99.21 147.85,100.47 C147.06,101.12 146.7,101.03 146.12,100.51 C145.95,100.28 145.45,100.12 145.09,100.16 C144.22,100.16 145.93,98.36 147.45,97.61 C147.77,97.46 148.04,97.39 148.26,97.38 L148.26,97.38 Z M80.12,96.31 C80.15,96.31 80.16,96.31 80.16,96.32 C82.16,103.1 84.63,115.46 84.63,115.46 C79.34,112.89 70.53,113.36 70.53,113.36 C70.53,113.36 65.58,106.92 64.62,106.39 C68.58,101.01 79.37,96.35 80.12,96.31 L80.12,96.31 Z M76.38,95.53 L78.61,96.1 C70.37,99.8 62.22,105.17 59.06,114.54 C58.07,117.34 57.4,120.46 56.97,124.45 C56.76,128.67 56.22,132.81 56.02,136.33 C55.62,143.48 53.28,153.17 45.21,163.46 L44.43,162.85 C49.39,156.7 51.96,151.13 53.55,145.23 C56.08,135.86 54.83,125.52 57.51,116.08 C59.15,110.34 62.56,105.21 67.66,100.77 C71.21,98 76.38,95.53 76.38,95.53 L76.38,95.53 Z M103.44,95.48 L103.12,98.19 L97.53,101.17 L97.49,98.82 L103.44,95.48 L103.44,95.48 Z M85.76,95.41 L91.18,98.36 L91.17,100.44 L85.94,97.55 L85.76,95.41 L85.76,95.41 Z M146.13,94.54 C146.33,94.55 146.51,94.59 146.65,94.68 C147.03,94.93 146.98,95.55 146.55,95.85 C145.99,96.25 144.46,96.22 144.3,95.81 C144.08,95.23 145.28,94.52 146.13,94.54 L146.13,94.54 Z M101.52,92.49 L97.74,94.69 L97.74,92.5 L101.52,92.49 L101.52,92.49 Z M138.08,92.19 L139.47,93.07 L138.46,94.27 L137.25,93.5 L138.08,92.19 L138.08,92.19 Z M104.18,92.12 L103.99,94.22 L97.68,97.83 L97.68,95.78 L104.18,92.12 L104.18,92.12 Z M66.47,91.84 L69.09,93.03 L71.31,95.61 L72.98,94.51 L74.78,95.19 C69.07,98.15 64.01,101.68 60.06,107.78 C55.67,114.58 55.18,123.48 54.62,132.07 C53.68,143.92 51.66,152.24 43.84,161.84 L42.69,161.11 L46.91,154.36 L42.15,151.26 L44.32,147.27 L45.41,147.65 L44.56,150.03 L48.5,152.12 L51.52,143.61 L45.97,141.87 L46.9,136.55 L48.29,136.67 L47.92,140.48 L51.89,141.12 L53.03,132.12 L47.68,131.29 L47.8,126.54 L49.11,126.67 L49.1,129.56 L53.32,129.79 L53.65,121.58 L48.4,121 L49.05,115.2 L50.52,115.35 L50.18,118.83 L54.22,119.41 L56.13,111.91 L50.89,109.52 L53.72,104.45 L54.99,105.04 L53.69,107.85 L57.33,109.63 L61.14,103.77 L57.09,99.85 L61.07,95.66 L62.04,96.62 L59.88,99.12 L62.88,101.91 L68.81,96.9 L65.91,92.52 L66.47,91.84 L66.47,91.84 Z M86.71,91.78 L91.2,92.4 L91.22,94.23 L86.71,91.78 L86.71,91.78 Z M84.94,91.72 L91.24,95.07 L91.15,97.29 L85.32,94.35 L84.94,91.72 L84.94,91.72 Z M134.32,88.53 L135.15,89.34 L130.61,95.8 L135.08,98.98 L133.31,103.15 L131.95,102.65 L132.92,99.8 L129.15,98.2 L126.1,106.5 L131.47,108.2 L130.59,113.61 L129.5,113.32 L129.5,109.63 L125.52,108.81 L124.36,118.08 L130.23,118.91 L129.8,123.69 L128.41,123.59 L128.36,120.75 L124.29,120.53 L123.36,128.56 L129.13,129.55 L128.09,135.26 L126.86,134.97 L127.13,131.2 L123.26,130.69 L121.02,138.4 L125.89,140.87 L123.49,145.81 L122.46,145.09 L123.79,142.17 L120,140.29 L116.35,146.67 L120.31,150.6 L116.44,154.68 L115.57,153.57 L117.57,151.4 L114.59,148.42 L108.37,153.4 L111.55,157.61 L111.17,158.14 L107.9,156.81 L106.33,154.73 L104.45,155.56 L102.97,154.99 C112.15,150.14 118.12,144.52 120.58,136.05 C121.94,131.37 122.34,126.26 122.78,121.1 C123.01,118.43 123.24,115.74 123.63,113.1 C124.08,108.78 124.74,105.16 126.48,100.99 C128.59,95.94 131.15,92.38 134.31,88.53 L134.32,88.53 L134.32,88.53 Z M132.79,86.93 L133.6,87.84 C131.07,90.71 129.24,93.66 127.22,97.26 C125.5,100.33 124.01,104.63 123.22,109.32 C122.62,112.2 122.53,115.12 122.16,118.06 C121.78,121.22 121.7,125.48 121.1,128.82 C119.99,137.97 117.44,142.85 111.89,148.04 C109.45,150.32 101.86,154.64 101.65,154.6 L99.85,154.15 C115.42,146.12 119.31,140.59 120.99,121.6 C121.32,97.77 132.08,88.54 132.79,86.93 L132.79,86.93 Z M47.15,78.3 C52.27,83.12 57.52,86.78 62.83,89.86 L64.7,90.99 L63.74,91.98 L66.86,96.51 L62.84,99.82 L61.88,98.86 L63.98,96.79 L60.99,93.83 L54.91,100.03 L59.08,103.75 L56.66,107.5 L55.79,107.1 L57.07,104.49 L53.19,102.36 L48.86,110.38 L54.38,112.91 L53.13,117.83 L51.84,117.76 L52.28,113.9 L48.13,113.17 L46.74,122.17 L52.07,123.02 L51.94,128.21 L50.52,128.18 L50.62,125.25 L46.41,125.05 L46.03,132.61 L51.22,133.29 L50.7,139.43 L49.43,139.1 L49.57,135.12 L45.62,134.72 L44.26,143.19 L49.59,144.73 L47.7,150.01 L46.55,149.37 L47.3,146.64 C46.33,146.22 43.6,145.07 43.6,145.07 L40.12,151.65 L44.63,154.75 L41.85,159.66 L40.78,158.94 L42.7,156.07 L38.95,153.7 L36.81,156.64 C35.9,155.84 34.27,154.74 33.65,154 C32.98,153.39 32.48,153.3 31.62,153.5 C30.95,153.66 30.3,153.79 30.45,153.55 C30.52,153.43 31.8,152.56 33.76,151.31 C34.31,150.96 34.74,150.65 34.73,150.34 C34.72,150.11 35.03,149.74 35.42,149.5 C35.86,149.23 35.76,148.98 35.69,148.71 C35.31,147.23 35.55,144.92 36.29,143.37 C36.79,142.33 36.94,142.14 36.62,142.14 C35.67,142.26 34.5,145.74 34.28,146.72 C34.21,146.64 34.1,145.73 34.04,145.37 C33.91,144.74 33.83,144.34 33.32,144.22 C32.71,144.08 32.9,143.78 32.84,143.32 C32.74,142.58 32.39,142.1 31.76,141.84 C31.15,141.59 31.08,141.48 31.11,140.87 C31.11,140.39 30.61,139.58 30.24,139.32 L28.12,140.07 C27.96,140.63 28.18,141.36 28.53,141.63 C29.59,142.63 28.04,142.65 26.97,143.3 C26.68,143.49 26.34,143.9 26.11,143.76 C25.43,143.54 25.48,145.57 24.82,145.32 L24.98,96.53 C30.64,90.62 47.15,78.3 47.15,78.3 L47.15,78.3 Z M49.59,76.72 C57.67,83.57 62.83,88.19 79.29,93.35 L79.69,95.8 C70.23,93.6 59.91,89.15 47.64,78.08 L49.59,76.72 L49.59,76.72 Z M145.98,67.56 C145.94,67.57 145.9,67.58 145.9,67.58 C145.92,67.58 145.95,67.57 145.98,67.56 L145.98,67.56 Z M142.14,95.45 C142.09,95.5 142.11,95.5 142.14,95.45 L142.14,95.45 Z M143.2,62.82 C146.25,62.77 146.57,67.18 145.98,67.56 C146.15,67.5 146.67,67.34 147.41,67.36 C149.65,67.42 150.82,68.67 150.95,70.48 C151.08,72.31 149.7,73.33 147.69,73.23 C146.94,73.19 146.43,73.12 146.46,73.25 C146.84,74.71 146.39,76.91 144.46,77.46 C144.24,77.52 143.93,77.83 143.92,77.94 C143.78,80.26 144.43,88.22 144.43,88.22 C144.43,88.22 148.04,82.12 148.85,81.2 C150.43,79.02 151,79.22 150.72,82.83 C150.34,87.83 149.58,88.99 146.72,93.23 C145.46,95.04 142.48,94.09 142.75,95.32 C142.81,95.59 143.3,96.08 143.78,96.54 C144.09,96.83 144.41,97.02 145.13,96.99 C146.41,96.95 146.9,96.69 146.14,97.8 C145.54,98.68 143.43,98.87 143.19,99.33 C142.64,100.39 143.02,100.15 142.07,101.09 C141.35,101.89 141.6,101.48 141.93,102.14 C142.45,102.99 142.23,104.68 141.72,105.82 C141.3,106.75 141.34,107.41 141.34,107.41 C141.35,107.49 142.52,106.2 142.87,104.71 C143.17,103.46 143.51,102.84 143.51,103.54 C143.51,104.41 143.66,105.61 144.44,106.06 C145.06,106.42 145.15,106.78 145.05,107.22 C144.94,107.68 145.43,108.08 145.91,108.46 C146.02,108.58 146.4,108.73 146.36,108.97 C146.23,109.73 146.54,110.63 147.09,110.78 C147.34,110.9 148.9,110.76 149.16,109.87 C149.14,109.59 149.16,108.42 148.54,108.36 C148.1,108.15 148.14,108.03 148.81,107.63 C149.81,107.03 150.53,106.6 151.03,106.51 C151.69,106.42 152.32,105.69 152.32,105.69 L152.45,153.66 C146.52,159.77 140.02,165.85 131.46,171.83 C126.48,167.65 121.04,163.42 115.26,160.25 L113.26,159.06 L113.98,158.14 L110.51,153.54 L114.41,150.38 L115.4,151.64 L113.56,153.45 L116.32,156.53 L122.54,150.42 L118.45,146.47 L120.58,142.45 L121.94,143.12 L120.91,145.67 L124.03,147.66 L127.93,139.85 L122.99,137.58 L124.24,132.34 L125.77,132.51 L125.26,136.28 L129.11,137.05 L130.68,128.15 L125.02,127.13 L125.5,122.06 L127.08,122.08 L126.85,124.88 L130.85,125.46 L131.61,117.7 L126.06,116.77 L126.77,110.78 L128.04,110.97 L127.79,114.66 L131.87,115.36 C132.31,112.86 132.68,109.71 133.34,107.25 L128.1,105.29 L129.96,100.26 L131.14,100.67 L130.11,103.4 L133.98,105.05 L137.24,98.57 L132.68,95.32 C133.7,93.62 134.72,91.99 136.18,90.61 L137.08,91.4 C137.08,91.4 136.75,91.69 136.25,92.4 C135.63,93.25 135.44,93.69 135.52,93.91 C135.61,94.13 138.42,96.22 138.64,96.22 C138.88,96.22 139.82,95.37 140.3,94.79 C140.82,94.18 141.09,94.12 141.62,94.5 C141.73,94.58 141.88,94.73 141.99,94.86 C142.12,95.02 142.17,95.15 142.18,95.24 C142.19,95.34 142.17,95.41 142.14,95.45 C142.19,95.4 142.29,95.33 142.5,95.21 C142.88,95 141.75,94 140.83,93.48 C138.09,91.93 134.85,89 134.1,85.34 C133.83,83.69 138.05,85.67 140.96,88.59 C141.4,89.03 143.04,90.63 143.04,90.63 C142.8,86.4 142.46,82.09 142.65,77.81 L142,77.36 C141.11,76.73 140.76,75.69 140.68,74.66 C140.62,73.94 141.23,73.58 139.84,73.62 C136.94,73.65 135.27,70.91 137.03,68.56 C137.65,67.68 140.32,67.25 140.32,67.27 C139.64,64.47 141.69,62.96 143.2,62.82 L143.2,62.82 Z M92.13,60.22 C90.99,60.21 89.79,60.49 89.02,61.11 C88.32,61.66 89.17,62.01 90.08,61.57 C91.25,60.99 93.21,61.04 94.36,61.77 C95.24,62.37 95.7,62.26 95.11,61.34 C94.65,60.62 93.43,60.23 92.13,60.22 L92.13,60.22 Z M118.91,59.43 L119.92,61.75 C118.17,65.56 117.01,76.03 128.7,79.28 L129.21,80.78 C121.25,80.94 113.28,70.75 118.91,59.43 L118.91,59.43 Z M82.9,58.98 L83.26,59.77 L82.65,59.99 L82.9,58.98 L82.9,58.98 Z M94.18,58.22 C93.78,58.24 93.17,58.51 91.77,58.52 C91.01,58.52 90.42,58.45 90.13,58.51 C89.52,58.64 90.23,58.91 91.59,59.3 C92.95,59.69 94.62,59.11 94.83,58.51 C94.88,58.36 94.7,58.19 94.18,58.22 L94.18,58.22 Z M81.94,56.41 L82.52,57.97 L81.66,60.31 L80.03,60.98 C80.34,59.38 80.94,58.07 81.94,56.41 L81.94,56.41 Z M110.88,55.14 C113.22,57.3 115.62,58.04 118.22,58.85 C117.91,59.92 117.28,61.13 116.98,62.53 C103.44,69.74 89.83,69.51 76.99,62.97 L83.65,60.4 C87.29,66.75 91.96,68.45 97.21,66.37 C103.07,63.62 107.41,59.8 110.88,55.14 L110.88,55.14 Z M87.39,54.29 C87.36,54.29 87.33,54.29 87.3,54.3 C87.28,54.65 87.28,55.63 87.36,57.24 C87.37,57.55 87.67,57.42 88.51,56.99 C89.24,56.61 89.17,56.55 89.88,56.79 C91.85,57.47 92.74,57.17 93.51,56.98 C94.68,56.67 95.16,56.79 95.84,57.21 C96.22,57.43 96.73,57.6 96.83,57.63 C97.37,57.83 97.17,57.59 96.8,56.13 C96.38,54.47 96.56,54.29 95.9,54.72 C95.76,54.82 95.34,55.05 95.11,55.08 C94.54,55.14 93.58,54.44 93.01,54.66 C91.63,55.21 91.65,55.06 90.36,54.75 C89.72,54.59 89.11,54.98 88.55,55.09 C88.23,55.13 87.83,54.28 87.39,54.29 L87.39,54.29 Z M81.11,53.54 L81.62,55.34 C80.68,57.07 79.69,59.02 79.09,61.29 L77.11,62.03 C78,59.02 79.3,56.09 81.11,53.54 L81.11,53.54 Z M80.35,50.29 L80.74,52.38 C78.85,55.55 77.41,58.67 76.21,62.31 L74.42,62.97 C75.85,58.37 77.16,54.73 80.35,50.29 L80.35,50.29 Z M111.29,44.61 C111.14,47.79 111.97,50.87 115.41,52.85 L114.67,51.49 C113.79,50.78 111.94,48.76 112.17,46.35 L111.29,44.61 L111.29,44.61 Z M96.32,39.76 L96.34,39.76 C96.41,39.81 97.01,40.19 96.5,40.88 C96.47,40.93 95.79,40.69 95.78,40.61 C95.72,40.2 96.23,39.79 96.32,39.76 L96.32,39.76 Z M101.78,39.64 C102.03,39.65 102.7,39.94 102.63,40.27 C102.62,40.35 101.68,41.04 101.47,40.93 C101.07,40.71 101.63,39.72 101.71,39.66 C101.72,39.65 101.75,39.64 101.78,39.64 L101.78,39.64 Z M81.75,39.39 L81.88,39.39 C82.19,39.63 82.3,40.34 82.14,40.71 C81.96,40.9 81.22,40.64 81.07,40.35 C80.85,39.94 81.11,39.38 81.75,39.39 L81.75,39.39 Z M87.51,39.31 C88.01,39.25 88.18,40 88.04,40.14 C88,40.18 87.09,41.08 86.97,40.55 C86.81,39.78 87.3,39.35 87.51,39.31 L87.51,39.31 Z M97.03,39.23 L97.38,39.25 C98.45,41.92 99.99,40.38 100.3,39.26 L101.08,39.28 C100.84,42.04 96.68,42.51 97.03,39.23 L97.03,39.23 Z M108.73,39.09 L109.75,41.28 C107.52,46.81 110.55,54.25 117.13,56.04 C117.13,56.04 118.19,57.68 117.98,57.89 C105.63,55.13 106.58,43.27 108.73,39.09 L108.73,39.09 Z M86.72,39.08 C85.98,42.91 82.19,41.73 82.62,39.1 L83.32,39.1 C83.37,41.42 85.67,41.4 86.06,39.13 L86.72,39.08 L86.72,39.08 Z M88.62,37.61 C89.13,37.81 88.9,38.39 88.44,38.21 C85.67,36.96 85.12,36.35 81.82,37.51 C80.74,37.89 80.3,37.55 81.64,36.97 C84.55,35.75 86.66,36.58 88.62,37.61 L88.62,37.61 Z M98.19,35.52 C96.64,35.52 95.22,35.93 94.56,36.81 C94.23,37.22 94.14,37.27 93.77,37.21 C93.05,37.08 93.09,37.5 93.91,38.65 C94.31,39.21 94.25,39.84 93.71,40.6 C93.1,41.47 93.22,41.5 95.04,42.38 C96.44,43.07 97.56,44.03 98.82,44.83 C99.73,45.35 99.91,44.89 99.07,44.22 C98.79,43.98 97.94,43.37 97.17,42.87 C95.88,42.03 94.93,41.17 95.96,41.55 C96.43,41.7 96.55,41.76 97.07,41.85 C98.4,42.14 99.72,42.3 100.84,42.08 C101.64,41.91 102.69,41.38 103.54,40.63 C103.76,40.53 103.98,40.64 104.51,40.66 C106.55,40.74 106.1,40.14 103.18,38.53 C100.28,36.94 98.01,36.65 96.16,37.52 C95.38,37.89 94.93,37.99 95.04,37.75 C95.16,37.51 95.38,37.23 95.73,37.02 C98.72,35.22 101.13,36.71 103.76,38.07 C104.9,38.74 105.2,38.92 105.34,38.7 C105.51,38.43 104.07,37.4 102.15,36.43 C101.02,35.84 99.55,35.52 98.19,35.52 L98.19,35.52 Z M83.35,34.59 C85.8,34.61 88.61,35.7 88.67,37.15 C87.05,35.78 83.78,35.12 80.65,36.52 C80.41,36.47 80.38,35.61 80.52,35.3 C81.2,34.8 82.24,34.58 83.35,34.59 L83.35,34.59 Z M97.08,32.39 C95.37,32.39 93.82,32.86 92.7,33.78 C91.51,34.76 92.38,35.82 94.09,35.02 C97,33.66 100.35,34.27 103.96,36.26 C107,37.94 105.94,36.19 103.1,34.33 C101.15,33.03 99.02,32.4 97.08,32.39 L97.08,32.39 Z M98.51,21.18 L99.76,21.18 L101.41,24.1 C100.31,23.48 99.48,22.13 98.51,21.18 L98.51,21.18 Z M96.48,21.18 L97.59,21.18 C98.77,22.83 100.19,24.25 101.85,25.36 L102.86,27.33 C100.62,25.81 98.12,23.88 96.48,21.18 L96.48,21.18 Z M91.96,21.18 L93.52,21.18 C95.66,25.47 100.11,29.61 105,31.38 L105.74,33.12 C99.3,30.79 95.04,27.31 91.96,21.18 L91.96,21.18 Z M88.41,21.18 L89.71,21.18 C87.47,25.47 84.36,28.51 80.28,30.16 L80.28,29.13 C84.75,26.73 86.7,23.97 88.41,21.18 L88.41,21.18 Z M85.96,21.18 L87.56,21.18 C85.38,24.56 83.14,26.91 80.28,28.34 L80.28,26.96 C82.05,25.58 84.56,23.45 85.96,21.18 L85.96,21.18 Z M83.08,21.18 L84.82,21.18 C83.46,23.36 82.02,24.76 80.28,25.79 L80.31,24.09 C81.32,23.2 82.28,22.2 83.08,21.18 L83.08,21.18 Z M80.29,21.18 L81.91,21.18 C81.56,21.92 81.04,22.56 80.25,23.01 L80.29,21.18 L80.29,21.18 Z M113.58,93.17 L113.62,94.59 L113.91,94.52 L113.74,93.14 L113.58,93.17 L113.58,93.17 Z M142.07,58.27 C142.08,58.28 142.09,58.29 142.09,58.28 C142.09,58.28 142.08,58.28 142.07,58.27 L142.07,58.27 Z M138.13,21.18 L152.17,21.18 L152.17,102.34 C152.17,102.34 151.01,102.32 151.09,101.75 C151.2,100.99 151.08,99.57 150.55,98.97 C150.33,98.72 149.96,98.32 149.82,98.04 C149.46,97.31 148.87,96.56 148.39,96.36 C148.15,96.26 147.88,96.2 147.84,96.04 C147.81,95.88 147.73,95.38 147.63,94.92 C147.38,93.75 147.16,93.79 147.89,92.63 C150.44,88.62 151.42,84.93 151.1,81.27 C151,80.13 150.71,78.65 150.58,78.45 C148.12,80.93 146.33,84 144.66,86.27 C144.29,83.03 144.34,80.58 144.29,77.99 C145.6,77.61 146.39,76.9 146.96,75.1 C146.96,75.1 148.37,76.21 149.23,76.05 L148.66,73.96 C152.43,72.8 152.95,67.84 148.5,66.8 L148.9,64.19 C148.9,64.19 147.55,64.64 146.96,64.93 C146.67,65.06 146.6,64.96 146.39,64.53 C144.32,61.28 141.09,61.97 139.67,65.18 L137.93,64.43 C138.12,65.32 138.35,66.22 138.19,67.11 C134.54,68.74 135.44,73.22 138.35,73.8 L138.1,75.9 L140.29,75.18 C140.61,76.17 140.45,76.73 142.2,77.84 C142.15,82.22 142.08,84.96 142.22,88.85 C139.94,86.5 137.74,84.86 133.88,83.67 C133.88,83.67 133.84,84.61 134.06,86.04 C134.14,86.51 134.12,86.45 133.9,86.44 C133.4,86.43 131.14,82.77 131.14,82.77 C131.14,82.77 130.87,82.77 130.65,83 C130.38,83.27 130.99,83.77 131.86,85.06 C132.87,86.58 132.77,86.51 131.98,87.19 C127.45,91.05 120.92,105.76 122.02,107.19 C119.16,107.36 108.02,112.86 106,124.2 C105.88,124.71 105.64,125.37 105.64,125.37 L102.42,124.57 C104.37,115.28 108.75,96.39 108.75,96.39 C108.75,96.39 111.83,95.51 113.64,95.32 L113.62,94.59 L109.37,95.58 L109.58,93.96 L113.58,93.17 L113.57,92.79 L109.33,93.36 L110.02,90.66 C110.02,90.66 100.5,92.07 97.09,91.97 C97.31,102.45 96.49,111.15 96.93,122.44 L92.28,119.6 C91.86,111.74 91.74,91.88 91.74,91.88 L78.89,89.85 L79.32,92.97 C68.66,88.72 57.98,84.81 50.11,76.5 C54.95,72.75 63.04,69.04 63.04,69.04 L62.77,68.44 C42.89,78.76 35.68,85.93 25.69,94.83 L25.69,21.18 L79.51,21.18 L79.33,34.68 C79.33,34.68 79.26,35.03 79.15,35.15 C78.49,38.39 80.39,44.16 80.01,46.97 C80.19,47.84 80.13,49.45 80.13,49.45 C76.89,53.91 75.17,58.16 73.73,63.35 C73.17,63.57 72.35,64.03 71.77,64.19 L71.6,64.9 C72.87,64.19 76.48,63.05 76.48,63.05 C92.53,70.93 104.33,69 116.96,63.14 C114.94,70.26 119.32,79.31 126.52,81.21 C127.34,81.43 128.75,81.61 129.56,81.4 C130.37,81.17 127.75,75.13 126.59,74.9 C123.11,73.38 121.67,69.82 122.04,65.73 L121.47,64.75 C120.28,69.72 123.14,74.76 127.05,76 L128.11,78.31 C121.01,76.17 117.98,69.47 120.35,62.85 C120.39,58.72 117.73,56.89 116.51,55.11 C110.33,52.74 109.19,46.98 110.27,42.32 C113.14,43.55 108.33,38.24 108.33,38.24 C106.21,42.85 105.33,48.69 110.17,54.61 C107.04,58.79 103,62.1 98.48,64.92 C91.88,68.39 86.92,66.06 83.74,58.37 C81.82,53.76 81.13,49.16 81.14,44.35 C81.16,41.37 81.19,41.28 82.3,41.78 C83.34,42.26 85.6,42.32 86.95,41.62 C88.79,40.67 88.7,41.25 86.7,43.32 C86.15,43.89 85.57,44.4 85.57,44.5 C85.57,45.12 86.43,44.6 87.65,43.38 C88.09,42.94 88.42,42.51 88.56,42.51 C88.72,42.52 88.71,43.09 88.53,43.71 C88.46,43.95 88.23,44.96 88.03,45.94 C87.82,46.93 87.54,48.09 87.4,48.52 C86.86,50.23 87.01,51.03 88.64,51.82 C89.5,52.24 90.97,53.66 90.96,53.66 C90.96,53.66 90.6,52.1 90.73,51.6 C90.89,51 91.6,51.42 92.33,51.77 C93.92,52.54 94.86,52.56 95.71,51.84 C96.9,50.84 96.56,48.61 95.1,48.02 C94.02,47.59 93.83,47.99 94.91,48.74 C96.51,49.87 94.7,51.62 93.33,50.54 C92.26,49.69 90.41,49.6 90.2,50.3 C90.01,50.97 89.8,50.85 89.06,50.41 C87.91,49.73 87.9,49.62 88.87,45.88 C90.69,38.81 90.51,36.21 88.09,34.07 C86.3,32.48 83.35,31.74 80.28,33.5 L80.28,31.1 C84.78,29.29 88.06,26.2 90.7,21.18 L91.22,21.18 C93.85,26.92 98.1,31.12 106.1,34.14 C109.22,37.25 102.14,25.22 104.4,30.14 C100.15,28.49 96.37,25.2 94.29,21.18 L95.45,21.18 C96.67,22.96 99.14,26.28 103.53,28.51 C105.45,28.53 100.71,22.67 100.02,21.18 L136.9,21.18 C135.73,30.23 134.08,39.9 140.56,57.51 C137.52,55.91 125.33,59.33 127.47,60.01 C128.55,58.76 136.32,56.91 142.07,58.27 C141.6,57.86 133.3,38.44 138.13,21.18 L138.13,21.18 Z M23.61,230.01 L154.22,230.01 L154.22,19.49 L23.61,19.49 L23.61,230.01 Z" id="Fill-443" fill="#22244E"></path>
        <path d="M109.58,22.75 C109.11,22.54 111.2,20.99 111.2,20.99 C111.2,20.99 128.6,21.22 137.24,21.1 C134.09,34.1 136.32,45.74 140.38,56.93 C139.3,56.67 132.15,57.26 130.41,58.04 C130.13,58.33 109.8,23.07 109.58,22.75 L109.58,22.75 Z M116.97,63.2 C114.52,71.71 121.24,81.44 127.59,81.41 C128.87,81.21 131.32,81.91 130.47,82.59 C120.46,90.77 97.07,92.46 97.07,92.11 C97.31,102.14 96.87,112.27 96.63,122.3 L92.34,119.7 C92.21,110.55 91.98,101.2 91.77,92.05 C76.79,90.08 63.33,85.22 52.69,74.87 C59.75,69.6 68.19,66.31 76.3,62.98 C86.51,68.32 100.72,71.4 116.97,63.2 L116.97,63.2 Z M142.17,94.13 C139.48,93.72 133.2,87.17 134.5,85.19 C134.54,83.7 142.31,89.39 143.11,90.93 C142.72,90.47 142.66,77.03 142.54,77.57 C142.24,77.72 140.16,76.23 140.71,73.43 C134.75,74.75 135.08,66.97 140.28,67.28 C139.61,60.2 148.2,62.8 145.92,67.55 C153.27,66.18 152,74.49 146.44,73.14 C146.92,76.29 145.62,77.16 143.82,77.79 C143.93,79.11 144.43,87.93 144.43,87.93 C144.43,87.93 149.86,79.54 150.25,80.26 C151.64,82.29 149.4,96.18 142.17,94.13 L142.17,94.13 Z M134.62,113.35 C132.07,133.04 132.21,152.86 117.73,159.71 C128.62,170.34 137.73,162.15 151.45,155.26 C151.83,155.26 151,113.09 150.77,113.12 C145.33,113.41 139.96,113.54 134.62,113.35 L134.62,113.35 Z M72.34,121.14 L71.85,116.75 C70.59,114.02 104.8,129.93 105.19,130.27 L106.18,134.95 C106.38,137.01 84.42,126.62 72.34,121.14 L72.34,121.14 Z M42.62,137.37 C42.17,137.19 26.05,136.36 26.05,136.36 L26.9,96.85 C35.13,77.82 66.09,86.72 61.16,90.77 C46.37,100.53 44.11,118.33 42.62,137.37 L42.62,137.37 Z M33.71,172.84 C33.89,169.77 33.7,166.7 33.47,163.57 C33.41,162.85 27.32,172.89 26.98,170.46 C26.13,164.36 29.14,156.61 33.86,155.66 C34.33,155.01 43.69,160.85 43.26,165.89 C43.12,167.53 34.91,160.34 34.88,160.77 C34.69,161.61 35.12,172.86 35.38,172.84 C37.74,174.18 37.23,175.9 37.48,177.32 C43.82,176.38 43.47,183.46 37.49,183.24 C37.86,191.6 30.15,187.82 31.67,183.37 C23.91,183 27.73,175.7 31.6,177.3 C31.36,175.46 31.82,173.54 33.71,172.84 L33.71,172.84 Z M47.2,168.18 C57.71,159.41 68.72,159.35 80.55,158.14 L80.82,128.34 L85.1,130.92 L85.19,158.23 C100.8,159.4 114.26,165.16 125.83,175.23 C125.97,175.45 109.09,184.54 101.7,186.95 C95.96,182.7 80.82,180.03 70.77,183.29 C68.01,184.19 64.63,185.62 61.33,186.68 C63.72,172.29 52.56,170.17 48.64,169.5 C48.15,169.42 47.56,168.35 47.2,168.18 L47.2,168.18 Z M37.42,193.61 C40.71,193.7 47.67,192.46 47.56,192.59 C47.56,192.59 69.13,228.68 68.25,228.32 C67.97,228.77 40.62,228.75 40.62,228.75 C40.02,228.76 46.42,215.38 37.42,193.61 L37.42,193.61 Z" id="Fill-444" fill="#DACA2C"></path>
        <path d="M126.99,59.17 L104.88,21.2 L108.07,21.17 L129.83,57.75 L126.99,59.17 L126.99,59.17 Z M143.35,73.44 L140.4,70.51 L143.06,67.53 L146.22,70.28 C145.17,71.86 143.35,73.44 143.35,73.44 L143.35,73.44 Z M50.16,76.32 L52.44,74.89 C60.41,82.1 69.22,87.07 78.83,89.9 L79.15,92.59 C68.32,89.23 58.41,84.56 50.17,76.32 L50.16,76.32 L50.16,76.32 Z M110.38,90.79 L113.36,90.13 L113.46,92.45 L109.89,93.11 L110.38,90.79 L110.38,90.79 Z M41.24,96.34 L42.71,94.5 L44.63,96.02 L43.17,98.06 L41.24,96.34 L41.24,96.34 Z M70.54,113.23 C69.03,111.02 66.97,108.75 64.81,106.47 C68.36,101.5 74.25,98.62 80.5,96.36 L84.73,115.31 C79.95,113.86 74.79,112.29 70.54,113.23 L70.54,113.23 Z M33.15,121.09 L31.06,119.13 L32.83,117.18 L34.67,119.08 L33.15,121.09 L33.15,121.09 Z M102.63,124.44 C102.63,124.44 106.95,104.28 108.82,96.37 L113.6,95.26 L113.38,111.59 C108.63,115.49 105.29,124.79 105.45,124.79 L102.63,124.44 L102.63,124.44 Z M57.67,127.14 C57.61,124.2 58,121.39 58.69,118.68 C60.41,121.81 60.39,124.96 57.67,127.14 L57.67,127.14 Z M118.79,132.19 C117.18,129.29 117.07,126.02 120.05,122.79 L118.79,132.19 L118.79,132.19 Z M144.48,133.34 L142.51,131.63 L144.27,129.45 L146.43,131.11 L144.48,133.34 L144.48,133.34 Z M97.69,154.35 C95.92,148.58 92.45,135.52 92.45,135.52 C92.57,135.95 103.74,139.15 107.72,137.98 C109.42,140.33 111.29,142.38 113.26,144.27 C109.13,148.34 103.99,151.74 97.69,154.35 L97.69,154.35 Z M63.43,138.84 C68.64,136.36 72.7,126.35 72.19,125.68 L75.03,126.36 L68.48,153.78 L63.94,154.78 C63.92,149.53 63.43,144.08 63.43,138.84 L63.43,138.84 Z M134.65,156.17 L132.55,154.47 L134.06,152.67 L136.09,154.29 L134.65,156.17 L134.65,156.17 Z M64.06,158.06 L67.52,157.31 L67.41,159.46 L64.06,160.13 L64.06,158.06 L64.06,158.06 Z M98.89,160.39 L98.46,157.83 C110.59,160.82 120.51,167.09 127.65,173.93 L125.95,175.18 C126.48,175.03 108.72,161.63 98.89,160.39 L98.89,160.39 Z M31.37,180.45 L34.41,177.3 L37.46,180.41 L34.27,183.39 L31.37,180.45 L31.37,180.45 Z M68.82,228.27 L47.77,192.5 L50.93,191.12 L72.63,228.32 L68.82,228.27 L68.82,228.27 Z" id="Fill-445" fill="#C0242A"></path>
        <path d="M64.07,227.1 C64.97,227.15 65.75,227.46 66.24,228.25 L62.9,228.26 C62.9,228.26 62.92,227.1 64.07,227.1 L64.07,227.1 Z M61.56,228.23 L58.91,228.24 C59.44,225.9 61.58,226.51 61.56,228.23 L61.56,228.23 Z M64.85,222.72 L67.32,227.13 C66.35,226.57 65.3,225.86 63.99,226 C64.61,224.65 64.96,223.92 64.85,222.72 L64.85,222.72 Z M52.72,213.36 C53.32,213.36 53.81,213.85 53.81,214.46 C53.81,215.06 53.32,215.55 52.72,215.55 C52.12,215.55 51.63,215.06 51.63,214.46 C51.63,213.85 52.12,213.36 52.72,213.36 L52.72,213.36 Z M57.55,210.15 L59.22,213.15 C58.41,212.8 57.72,212.46 56.45,212.43 C56.91,211.88 57.31,210.97 57.55,210.15 L57.55,210.15 Z M45.56,200.75 C46.19,200.75 46.71,201.27 46.71,201.91 C46.71,202.54 46.19,203.06 45.56,203.06 C44.93,203.06 44.41,202.54 44.41,201.91 C44.41,201.27 44.93,200.75 45.56,200.75 L45.56,200.75 Z M50.13,197.41 L51.87,200.56 C51.15,200.14 50.42,199.87 49.3,199.77 C49.88,198.9 49.93,198.11 50.13,197.41 L50.13,197.41 Z M47.27,192.8 L48.46,194.66 C46.13,192.79 42.71,194.36 42.86,196.71 C42.97,197.76 43.85,198.4 43.86,197.39 C43.75,196.33 45.24,195.41 46.32,195.46 C48.31,195.49 49.53,198.07 48.15,199.35 C47.25,200.19 46.02,200.15 46.44,199 C46.5,198.6 46.47,198.46 46.28,198.29 C45.71,197.76 44.66,198.45 44.91,199.2 C45.08,199.69 45.13,199.81 44.54,200.22 C42.27,201.83 43.85,205.01 46.61,203.56 C47.18,203.36 47.41,203.33 47.66,203.42 C48.81,203.87 49.59,202.87 48.5,202.34 C47.87,202.04 47.86,201.52 48.47,201.11 C49.77,200.24 51.8,201.61 51.79,203.36 C51.78,204.6 50.16,205.52 48.6,205.16 C47.68,204.94 47.57,205.57 48.42,206.23 C50.06,207.5 52.52,206.45 53.26,204.16 C53.49,203.44 53.45,203.29 53.45,203.29 L55.65,206.94 C55.65,206.94 54.97,206.61 54.55,206.49 C52.49,205.85 50.18,207.2 50.17,209.04 C50.17,209.91 50.67,210.25 50.96,209.56 C51.63,207.98 53.07,207.36 54.56,208.03 C55.93,208.65 56.56,210.05 56.02,211.3 C55.46,212.61 53.57,212.99 53.79,211.76 C53.89,211.17 53.53,210.81 52.9,210.87 C52.66,210.89 52.36,211.58 52.44,211.92 C52.52,212.23 52.46,212.31 51.66,212.94 C49.74,214.44 51.21,216.9 53.61,216.19 C54.01,216.07 54.16,216.08 54.52,216.25 C55.38,216.67 56.29,216.41 56.29,215.74 C56.29,215.28 56.09,215.11 55.55,215.1 C54.73,215.1 54.9,214.17 55.81,213.71 C58.09,212.57 60.41,215.46 59.03,217.71 C58.43,218.68 58.05,218.78 55.93,218.54 C55.58,218.5 55.43,218.74 55.63,219.02 C56.26,219.92 58.13,220.21 59.23,219.71 C60.4,219.17 61.12,217.82 61.2,216.37 L63.61,220.6 C61.74,218.63 58.51,219.38 57.99,222.21 C57.99,222.92 58.64,223.29 58.86,222.7 C59.83,220.16 63.53,220.94 63.52,223.69 C63.52,224.13 63.43,224.38 63.15,224.77 C62.47,226.08 60.74,226.41 61.05,225.23 C61.19,224.86 60.91,224.46 60.44,224.35 C59.97,224.24 59.67,224.63 59.68,225.35 C59.69,225.89 59.69,226.06 59.69,226.06 C58.83,226.42 58.28,227.14 58.08,228.21 L41.25,228.24 C43.25,216.5 42.78,205.89 38.96,195.85 C38.62,194.98 38.15,193.72 38.15,193.72 L41.12,193.8 C41.84,194.42 44.55,194.18 45.6,193.21 L47.27,192.8 L47.27,192.8 Z M50.8,191.4 L72.29,228.18 L68.89,228.11 L48.09,192.57 L50.8,191.4 L50.8,191.4 Z M99.38,182.8 L98.77,184.14 L100.48,184.9 L101.07,183.61 L99.38,182.8 L99.38,182.8 Z M32.82,182.5 L34.41,184.09 L36.29,182.38 C37.93,183.84 37.9,187.26 35,187.83 C32.46,188.33 30.14,184.5 32.82,182.5 L32.82,182.5 Z M65.07,182.45 L63.51,183.1 L64.16,184.54 L65.64,183.86 L65.07,182.45 L65.07,182.45 Z M96.55,181.59 L96,183.05 L97.54,183.68 L98.22,182.35 L96.55,181.59 L96.55,181.59 Z M67.8,181.43 L66.15,182.02 L66.57,183.47 L68.25,182.9 L67.8,181.43 L67.8,181.43 Z M93.49,180.67 L93.16,182.19 L94.94,182.68 L95.29,181.22 L93.49,180.67 L93.49,180.67 Z M70.4,180.61 L68.82,181.03 L69.16,182.61 L70.83,182.19 L70.4,180.61 L70.4,180.61 Z M90.49,179.96 L90.18,181.45 L91.93,181.87 L92.21,180.35 L90.49,179.96 L90.49,179.96 Z M73.47,179.96 L71.6,180.25 L71.8,181.87 L73.63,181.51 L73.47,179.96 L73.47,179.96 Z M34.42,179.48 L35.26,180.39 L34.42,181.23 L33.53,180.35 L34.42,179.48 L34.42,179.48 Z M87.32,179.47 L87.18,181.08 L88.94,181.28 L89.18,179.74 L87.32,179.47 L87.32,179.47 Z M76.75,179.45 L74.81,179.66 L75.02,181.23 L76.87,181.01 L76.75,179.45 L76.75,179.45 Z M84.13,179.25 L84.05,180.8 L85.76,180.88 L85.88,179.34 L84.13,179.25 L84.13,179.25 Z M81.08,179.23 L81.11,180.79 L82.83,180.78 L82.83,179.24 L81.08,179.22 L81.08,179.23 L81.08,179.23 Z M79.78,179.22 L77.88,179.3 L77.98,180.86 L79.84,180.82 L79.78,179.22 L79.78,179.22 Z M34.41,178.9 L32.96,180.35 L34.4,181.9 L35.81,180.4 L34.41,178.9 L34.41,178.9 Z M110.88,177.92 C111.56,177.92 112.11,178.46 112.11,179.14 C112.11,179.81 111.56,180.36 110.88,180.36 C110.21,180.36 109.65,179.81 109.65,179.14 C109.65,178.46 110.21,177.92 110.88,177.92 L110.88,177.92 Z M106.15,184.94 L104.62,185.64 L102.54,184.38 L101.93,185.57 L103.08,186.31 L101.88,186.76 C88.02,178.92 72.36,181.19 61.95,186.39 L62.04,185.59 L63.17,185 L62.75,183.56 L62.14,183.74 L62.1,182.14 C76.96,175.4 93.83,176.94 106.15,184.94 L106.15,184.94 Z M34.47,177.67 L37.19,180.4 L34.31,183.1 L31.65,180.41 L34.47,177.67 L34.47,177.67 Z M39.06,177.35 C40.53,177.36 41.67,178.5 41.81,179.81 C41.92,180.85 41.38,181.85 40.23,182.56 C38.65,183.52 36.83,181.96 36.86,181.87 L38.18,180.54 L36.59,178.9 C36.54,178.87 37.64,177.34 39.06,177.35 L39.06,177.35 Z M110.88,177.28 C109.87,177.28 109.04,178.11 109.04,179.14 C109.04,180.16 109.87,180.99 110.88,180.99 C111.9,180.99 112.73,180.16 112.73,179.14 C112.73,178.11 111.9,177.28 110.88,177.28 L110.88,177.28 Z M32.38,178.56 L30.73,180.24 L32.24,181.94 C32.24,181.94 31.76,182.35 31.42,182.54 C29.44,183.62 27.28,181.91 27.38,180.07 C27.54,177.38 30.75,176.1 32.38,178.56 L32.38,178.56 Z M118.7,176.36 C119.38,176.36 119.93,176.9 119.93,177.58 C119.93,178.25 119.38,178.79 118.7,178.79 C118.02,178.79 117.47,178.25 117.47,177.58 C117.47,176.9 118.02,176.36 118.7,176.36 L118.7,176.36 Z M108.75,183.89 L106.74,184.65 C91.91,175.05 76.1,175.56 61.97,181.32 L61.75,179.97 C78.39,172.71 95.08,175.02 108.75,183.89 L108.75,183.89 Z M110.2,174.78 L114.98,177.74 L111.94,182.43 L107.27,179.43 L110.2,174.78 L110.2,174.78 Z M111.28,182.82 L109.3,183.63 C97.15,175.59 80.52,171.2 61.51,179.29 L60.86,177.7 C74.97,171.79 92.77,169.94 111.28,182.82 L111.28,182.82 Z M118.34,172.99 L122.81,176.67 C122.81,176.67 120.85,177.87 120.48,178.08 C120.53,177.92 120.55,177.75 120.55,177.58 C120.55,176.55 119.72,175.72 118.7,175.72 C117.69,175.72 116.86,176.55 116.86,177.58 C116.86,178.46 117.47,179.2 118.29,179.39 C117.83,179.65 117.22,180 117.22,180 L114.86,178.01 L118.34,172.99 L118.34,172.99 Z M34.55,172.99 C36.02,173.05 37.13,174.38 37.2,175.77 C37.25,176.83 35.91,178.21 35.91,178.21 L34.36,176.76 L32.86,178.14 C32.61,178.23 31.45,176.24 31.8,175.21 C32.27,173.88 33.22,172.93 34.55,172.99 L34.55,172.99 Z M100.57,172.34 C101.25,172.34 101.8,172.88 101.8,173.56 C101.8,174.23 101.25,174.78 100.57,174.78 C99.89,174.78 99.34,174.23 99.34,173.56 C99.34,172.88 99.89,172.34 100.57,172.34 L100.57,172.34 Z M100.57,171.7 C99.55,171.7 98.72,172.53 98.72,173.56 C98.72,174.58 99.55,175.42 100.57,175.42 C101.58,175.42 102.41,174.58 102.41,173.56 C102.41,172.53 101.58,171.7 100.57,171.7 L100.57,171.7 Z M66.42,170.62 C67.1,170.62 67.65,171.16 67.65,171.83 C67.65,172.5 67.1,173.05 66.42,173.05 C65.74,173.05 65.19,172.5 65.19,171.83 C65.19,171.16 65.74,170.62 66.42,170.62 L66.42,170.62 Z M66.42,169.97 C65.4,169.97 64.57,170.8 64.57,171.83 C64.57,172.86 65.4,173.69 66.42,173.69 C67.44,173.69 68.26,172.86 68.26,171.83 C68.26,170.8 67.44,169.97 66.42,169.97 L66.42,169.97 Z M108.82,169.78 C109.5,169.78 110.05,170.32 110.05,170.99 C110.05,171.66 109.5,172.21 108.82,172.21 C108.14,172.21 107.59,171.66 107.59,170.99 C107.59,170.32 108.14,169.78 108.82,169.78 L108.82,169.78 Z M98.83,169.67 L104.47,171.61 L102.22,176.92 L96.83,174.85 L98.83,169.67 L98.83,169.67 Z M108.82,169.13 C107.8,169.13 106.97,169.96 106.97,170.99 C106.97,172.02 107.8,172.85 108.82,172.85 C109.83,172.85 110.66,172.02 110.66,170.99 C110.66,169.96 109.83,169.13 108.82,169.13 L108.82,169.13 Z M89.08,169.12 C89.76,169.12 90.31,169.66 90.31,170.34 C90.31,171.01 89.76,171.56 89.08,171.56 C88.4,171.56 87.85,171.01 87.85,170.34 C87.85,169.66 88.4,169.12 89.08,169.12 L89.08,169.12 Z M77.98,168.8 C78.66,168.8 79.21,169.34 79.21,170.01 C79.21,170.69 78.66,171.23 77.98,171.23 C77.3,171.23 76.75,170.69 76.75,170.01 C76.75,169.34 77.3,168.8 77.98,168.8 L77.98,168.8 Z M89.08,168.48 C88.06,168.48 87.23,169.31 87.23,170.34 C87.23,171.36 88.06,172.19 89.08,172.19 C90.1,172.19 90.92,171.36 90.92,170.34 C90.92,169.31 90.1,168.48 89.08,168.48 L89.08,168.48 Z M68.66,168.39 L70.17,173.98 L64.55,175.6 L62.82,170.22 L68.66,168.39 L68.66,168.39 Z M77.98,168.16 C76.96,168.16 76.13,168.99 76.13,170.01 C76.13,171.04 76.96,171.87 77.98,171.87 C79,171.87 79.82,171.04 79.82,170.01 C79.82,168.99 79,168.16 77.98,168.16 L77.98,168.16 Z M58.87,167.41 C59.55,167.41 60.1,167.96 60.1,168.63 C60.1,169.3 59.55,169.85 58.87,169.85 C58.19,169.85 57.64,169.3 57.64,168.63 C57.64,167.96 58.19,167.41 58.87,167.41 L58.87,167.41 Z M86.84,167.25 L92.67,168.06 L91.3,173.59 L86.02,172.74 L86.84,167.25 L86.84,167.25 Z M80.7,166.95 L80.97,172.69 L75.85,173.05 L74.92,167.35 L80.7,166.95 L80.7,166.95 Z M58.87,166.77 C57.85,166.77 57.03,167.6 57.03,168.63 C57.03,169.66 57.85,170.49 58.87,170.49 C59.89,170.49 60.72,169.66 60.72,168.63 C60.72,167.6 59.89,166.77 58.87,166.77 L58.87,166.77 Z M107.25,166.28 L113.03,169.35 L110.04,174.79 L104.66,171.96 L107.25,166.28 L107.25,166.28 Z M96.58,164.92 C97.26,164.92 97.81,165.46 97.81,166.13 C97.81,166.8 97.26,167.35 96.58,167.35 C95.9,167.35 95.35,166.8 95.35,166.13 C95.35,165.46 95.9,164.92 96.58,164.92 L96.58,164.92 Z M60.8,164.49 L62.71,170.18 L57.26,172.4 L55.22,166.78 L60.8,164.49 L60.8,164.49 Z M96.58,164.27 C95.56,164.27 94.73,165.11 94.73,166.13 C94.73,167.16 95.56,167.99 96.58,167.99 C97.6,167.99 98.42,167.16 98.42,166.13 C98.42,165.11 97.6,164.27 96.58,164.27 L96.58,164.27 Z M71.16,163.53 C71.84,163.53 72.39,164.07 72.39,164.74 C72.39,165.42 71.84,165.96 71.16,165.96 C70.48,165.96 69.93,165.42 69.93,164.74 C69.93,164.07 70.48,163.53 71.16,163.53 L71.16,163.53 Z M71.16,162.88 C70.14,162.88 69.32,163.72 69.32,164.74 C69.32,165.77 70.14,166.6 71.16,166.6 C72.18,166.6 73.01,165.77 73.01,164.74 C73.01,163.72 72.18,162.88 71.16,162.88 L71.16,162.88 Z M83.91,162.87 C84.59,162.87 85.14,163.42 85.14,164.09 C85.14,164.76 84.59,165.31 83.91,165.31 C83.23,165.31 82.68,164.76 82.68,164.09 C82.68,163.42 83.23,162.87 83.91,162.87 L83.91,162.87 Z M83.91,162.23 C82.89,162.23 82.07,163.06 82.07,164.09 C82.07,165.11 82.89,165.95 83.91,165.95 C84.93,165.95 85.76,165.11 85.76,164.09 C85.76,163.06 84.93,162.23 83.91,162.23 L83.91,162.23 Z M94.2,162.14 L100.62,163.87 L98.5,169.81 L92.86,168.19 L94.2,162.14 L94.2,162.14 Z M73.74,161.37 L74.65,167.2 L69.03,168.26 L67.43,162.42 L73.74,161.37 L73.74,161.37 Z M80.69,160.94 L87.15,161.13 L86.75,167.18 L80.88,166.98 L80.69,160.94 L80.69,160.94 Z M81.98,158.45 C98.41,158.41 113.39,164.84 125.48,175.23 L123.5,176.48 C112.48,167.3 100.26,161.18 83.83,160.45 C73.08,159.98 60.83,162.75 48.75,169.44 L47.85,167.8 C59.58,161.35 71.1,158.48 81.98,158.45 L81.98,158.45 Z M99.17,158.18 C109.15,160.89 120.24,167.04 127.45,173.98 L126,174.93 C118.52,167.97 108.65,162.68 99.58,160.06 L99.17,158.18 L99.17,158.18 Z M67.3,157.57 L67.06,159.31 L64.36,159.99 L64.29,158.13 L67.3,157.57 L67.3,157.57 Z M126.25,157.38 C126.19,157.38 126.14,157.39 126.1,157.4 C125.25,157.76 125.6,158.87 125.52,159.72 L120.86,159.55 L120.83,160.21 L125.2,160.45 C125.28,161.11 124.93,162.54 125.5,162.78 C126.72,163.3 127.39,161.71 126.35,160.75 C125.98,160.42 125.58,160.28 126.61,159.81 C127.29,159.23 127.39,158.09 126.81,157.58 C126.65,157.44 126.42,157.37 126.25,157.38 L126.25,157.38 Z M35.56,156.67 C36.91,157.07 39.34,159.26 40.34,160.39 C41.5,161.65 43.06,165.14 42.79,165.68 C42.7,165.91 42.5,165.87 41.82,165.49 C37.51,163.05 34.43,160.04 35.24,159.06 C35.46,158.79 36.39,159.35 37.63,160.51 C38.47,161.26 39.33,162.03 40.1,162.79 C41.31,163.99 41.59,164.17 40.86,162.83 C40.2,161.64 38.34,159.63 36.1,157.92 C35.18,157.22 34.98,156.66 35.56,156.67 L35.56,156.67 Z M32.43,156.43 L32.48,156.43 C32.92,156.47 32.47,157.64 31.26,159.43 C30.44,160.63 29.29,162.76 28.95,163.62 C28.21,165.5 27.7,168.87 28.2,168.25 C28.66,166.84 28.7,166.25 29.09,165.24 C29.6,163.92 31.99,159.58 32.46,159.15 C32.86,158.79 32.97,159.01 32.96,160.23 C32.94,162.98 31.64,165.88 28.56,169.26 C28.04,169.83 27.36,170.45 27.31,170.45 C27.01,170.44 27.02,169.82 27.02,168.51 C27.04,163.32 28.96,158.68 31.91,156.68 C32.14,156.53 32.31,156.45 32.43,156.43 L32.43,156.43 Z M125.98,156.41 C126.07,156.4 126.15,156.41 126.24,156.42 C128.25,156.59 128.77,158.85 127.86,159.86 C127.51,160.26 127.38,160.34 127.57,160.59 C128.43,161.69 127.95,163.43 127.1,163.7 C124.38,164.55 123.97,163.05 123.97,161.29 L119.78,161.13 L119.8,158.67 L124.43,158.77 C124.08,157.65 124.75,156.46 125.98,156.41 L125.98,156.41 Z M34.38,155.86 L35,172.49 L34.08,172.48 L33.28,155.87 L34.38,155.86 L34.38,155.86 Z M34.07,155.61 C30.96,155.62 28.01,160.7 27.31,163.1 C26.47,166.18 26.35,171.75 27.14,171.91 C29.93,169.89 31.26,166.46 33.35,163.89 C33.68,166.86 33.63,172.58 33.63,172.58 C33.63,172.58 32.38,173.24 31.72,174.28 C31.23,175.14 31.08,176.17 31.49,177.13 C29.94,176.63 27.13,177.2 26.97,180.08 C27.07,184.15 31.47,183.57 31.49,183.52 C31.4,183.49 30.62,187.84 34.53,188.3 C35.93,188.46 38.4,187.44 37.67,183.48 C40.14,183.89 42.26,182.53 42.29,180.13 C42.32,178.5 41.09,177.09 38.96,177.08 C38.51,177.08 37.58,177.28 37.58,177.28 C37.61,177.04 38.43,174.5 35.57,172.66 L35.12,160.9 C35.12,160.9 36.1,161.99 36.55,162.4 C38.45,164.16 39.69,165.05 41.89,166.21 C44.02,167.35 43.76,167.07 43.39,164.91 C42.38,161.68 40.27,159.23 35.8,156.17 C35.23,155.78 34.65,155.6 34.07,155.61 L34.07,155.61 Z M82.13,156.68 L83.74,156.68 L83.74,155.45 L82.13,155.45 L82.13,156.68 Z M134.13,152.9 L135.89,154.27 L134.63,155.88 L132.88,154.53 L134.13,152.9 L134.13,152.9 Z M82.13,154.2 L83.74,154.2 L83.74,152.72 L82.13,152.72 L82.13,154.2 Z M133.87,151.36 L131.33,154.76 L134.75,157.6 L137.46,154.17 L133.87,151.36 L133.87,151.36 Z M82.13,151.71 L83.74,151.71 L83.74,150.36 L82.13,150.36 L82.13,151.71 Z M82.13,149.23 L83.74,149.23 L83.74,147.86 L82.13,147.86 L82.13,149.23 Z M134.86,147.55 L136.63,150.18 L138.58,150.31 L138.81,152.44 L141.78,154.3 L139.21,155.92 L139.19,157.98 L136.74,158.19 L134.57,161.08 L132.72,158.53 L130.88,158.54 L130.44,156.26 L127.18,154.59 L130.53,152.66 L130.44,150.27 L132.72,150.25 L134.86,147.55 L134.86,147.55 Z M82.13,145.42 L82.13,146.75 C82.13,146.75 83.01,146.72 83.74,146.75 L83.74,145.42 L82.13,145.42 L82.13,145.42 Z M82.13,144.16 L83.74,144.16 L83.74,142.83 L82.13,142.83 L82.13,144.16 Z M82.13,141.68 L83.75,141.68 L83.75,140.48 L82.13,140.48 L82.13,141.68 Z M133.74,138.11 C133.24,138.11 133.25,138.6 133.71,139.19 C134.11,139.61 134.19,139.8 133.63,140.16 C132.92,140.82 132.77,141.81 133.25,142.57 C133.99,143.71 135.68,143.08 135.49,141.74 C135.35,140.79 136.09,140.38 137.25,140.73 C138.95,141.24 139.76,143.15 139.09,145.08 C138.96,145.44 138.71,146.28 138.71,146.28 L139.22,146.59 C139.22,146.59 139.81,145.63 140.04,145.34 C141.97,142.96 146.53,144.17 146.02,147.15 C145.94,148.09 145.94,148.21 144.93,147.92 C144.26,147.57 143.61,148.3 143.63,149.2 C143.66,150.02 144.36,150.67 145.34,150.54 C146.11,150.4 146.3,150.42 146.25,151.47 C146.33,152.2 146.6,152.68 147.07,152.93 C148.22,153.41 148.81,152.75 147.89,151.78 C147.34,151.19 147.37,150.29 147.72,149.44 C148.14,148.42 147.92,146.18 147.28,144.92 C146.35,143.1 143.76,142.34 141.6,143.25 C140.61,143.78 140.5,143.9 140.4,142.97 C139.86,140.65 138.13,138.89 135.96,138.74 C135.13,138.68 134.27,138.22 133.74,138.11 L133.74,138.11 Z M82.13,139.3 L83.75,139.3 L83.75,138 L82.13,138 L82.13,139.3 Z M133.44,136.43 C133.65,136.43 133.87,136.51 134.08,136.7 C134.76,137.3 135.28,137.51 136.66,137.74 C138.89,138.11 140.58,139.5 141.07,141.37 C141.27,142.16 141.38,142.2 142.49,141.92 C146.69,140.85 149.93,144.36 148.93,149.04 C148.58,150.67 148.47,150.87 148.96,151.52 C150.03,152.68 150.26,152.69 149.09,153.71 C148.03,154.68 145.91,154.21 145.46,152.65 C145.04,151.79 145.04,151.73 144.34,151.62 C141.6,151.17 141.71,147.36 144.29,146.92 C144.51,146.88 144.67,146.92 144.78,146.87 C145.51,146.54 143.98,144.79 142.71,145.06 C141.16,145.39 140.39,146.39 139.77,147.96 L137.33,146.56 C137.94,145.28 138.39,143.64 137.86,142.62 C137.43,141.76 136.88,141.73 136.72,142.55 C136.33,144.48 133.94,145.06 132.37,143.49 C131.5,142.61 131.4,141.66 132.04,140.39 C132.46,139.56 132.47,139.5 132.29,139.16 C131.67,137.95 132.51,136.42 133.44,136.43 L133.44,136.43 Z M92.87,135.94 C97.15,137.22 102.62,138.99 107.66,138.09 C108.96,140.44 110.84,142.38 112.97,144.17 C109.15,148.35 103.63,151.53 97.93,153.99 L92.87,135.94 L92.87,135.94 Z M82.13,136.85 L83.74,136.85 L83.74,135.6 L82.13,135.6 L82.13,136.85 Z M91.85,134.79 C93.66,141.56 95.49,148.32 97.3,155.09 C99.03,154.39 108.97,149.95 113.66,144.26 C113.48,144.28 109.4,140.26 107.96,137.65 C103.28,138.43 97.89,137.44 91.85,134.79 L91.85,134.79 Z M82.13,134.59 L83.74,134.59 L83.74,133.25 L82.13,133.25 L82.13,134.59 Z M82.13,131.96 L83.74,131.96 L83.74,130.69 L82.13,130.69 L82.13,131.96 Z M144.35,129.73 L146.08,131.23 L144.58,133.02 L142.73,131.6 L144.35,129.73 L144.35,129.73 Z M28.51,129.1 C28.22,129.13 28.4,129.59 28.61,130.3 C28.8,130.93 28.85,131.33 28.79,131.77 C28.39,134.72 31.75,136.22 34.18,134.17 C34.82,133.43 34.93,133.48 35.47,134.28 C36.14,135.12 37.11,135.39 39.14,135.27 C40.07,135.21 40.68,135.71 41.08,135.38 C41.37,135.17 41.09,134.6 40.53,134.28 C40.19,134.08 40.17,134.04 40.24,133.35 C40.41,131.6 38.98,131.14 37.97,132.61 C37.13,133.83 35.86,133.03 35.45,131.02 C35.21,129.47 35.02,129.49 34.83,130.84 C34.63,132.48 32.49,134.26 31.63,133.46 C31.4,133.22 31.4,133.28 31.64,132.45 C31.95,131.39 31.7,131 30.55,130.73 C30.37,130.68 30.15,130.52 30.08,130.38 C29.47,129.43 29.5,129.1 28.51,129.1 L28.51,129.1 Z M80.94,128.72 L84.72,130.9 L85.2,157.85 L80.93,157.73 L80.94,128.72 L80.94,128.72 Z M144.08,128.23 L141.36,131.65 L144.6,134.57 L147.61,131 L144.08,128.23 L144.08,128.23 Z M28.4,127.94 C29.37,127.93 30.41,128.63 30.48,129.27 C30.65,129.67 30.78,129.84 31.04,129.87 C32.67,130.1 32.72,130.53 32.76,131.47 C32.54,133.28 33.73,131.76 34.07,129.97 C34.11,129.78 34.09,128.41 34.09,128.41 L36.07,128.39 C36.07,128.39 36.14,129.82 36.17,130.05 C36.34,131.44 36.93,132.56 37.34,131.83 C38.73,129.3 41.93,130.59 41.42,133.02 C41.3,133.6 41.31,133.63 41.7,134.07 C42.33,134.78 42.57,135.54 42.36,136.2 C42.16,136.84 41.71,136.94 40.75,136.55 C40.3,136.37 39.75,136.3 38.29,136.26 C36.22,136.2 36.09,136.16 35.29,135.37 L34.78,134.88 L33.9,135.39 C32.44,136.26 31.12,136.29 29.57,135.5 C28.57,134.98 27.98,133.73 27.83,131.8 C27.8,130.77 27.51,130.02 26.88,129.78 C26.54,129.45 26.92,128.81 27.5,128.22 C27.77,128.03 28.08,127.94 28.4,127.94 L28.4,127.94 Z M72.5,125.94 L74.56,126.37 L68.14,153.53 C68.14,153.53 64.54,154.53 64.32,154.39 C64.03,149.3 63.92,138.92 63.92,138.92 C70.26,133.59 71.25,129.83 72.5,125.94 L72.5,125.94 Z M71.95,125.33 C70.66,131.54 67.56,135.79 63.19,138.65 L63.21,139.27 L55.85,142.25 C54.24,149.82 51.34,157.21 45.26,164.15 L46.95,167.62 L38.73,170.46 L50.5,190.79 C51.31,190.79 44.8,193.89 36.94,193.08 C41.91,205.35 42.94,218.06 40.18,229.18 L78.72,229.02 L49.27,170.83 L48.79,169.88 C48.38,169.12 64.44,172.15 61.03,187.16 C60.98,187.5 61.1,187.55 61.3,187.41 C64.42,184.7 85.16,177.21 101.72,187.1 L106.64,185.05 C104.3,193.31 101.64,198.99 97.15,203.96 L97.91,215.71 C105.85,209.16 114.47,197.14 115.63,181.16 C119.2,179.41 122.31,177.42 125.65,175.54 L126.09,175.68 L128.25,174.38 C121.33,166.76 107.21,159.48 98.15,157.56 L98.69,160.14 C93.7,158.79 89.96,158.5 86.08,158.08 L85.48,130.74 L80.45,127.76 L80.29,157.91 C76.53,157.96 67.89,159.45 67.89,159.45 L68.28,156.88 L64.32,157.7 L64.25,155.18 L68.72,153.89 L75.21,126.19 L71.95,125.33 L71.95,125.33 Z M144.25,124.52 L146.29,127.11 L148.11,127.24 L148.51,129.11 L151.16,131.28 L148.51,133.09 L148.27,135.16 L146.3,135.36 L144.35,138.45 L142.44,135.42 L140.61,135.22 L140.55,133.23 L137.67,131.1 L140.42,129.44 L140.47,127.19 L142.62,127.2 L144.25,124.52 L144.25,124.52 Z M119.88,123.08 L118.84,131.62 C117.49,130.11 117.25,125.62 119.88,123.08 L119.88,123.08 Z M120.41,122.26 C116.55,124.71 117.17,131.35 119.07,133.05 C119.21,133.05 120.43,125.88 120.41,122.26 L120.41,122.26 Z M58.72,119.11 C61.07,122.86 58.48,126.4 57.84,126.65 C57.84,123.83 58.25,121.18 58.72,119.11 L58.72,119.11 Z M93.6,119.36 L95.45,119.36 L95.45,118.14 L93.6,118.14 L93.6,119.36 Z M58.59,117.95 C58.44,118.41 57.37,121.04 57.36,127.75 C57.48,127.91 60,125.33 60.12,122.92 C60.24,120.65 58.6,117.95 58.59,117.95 L58.59,117.95 Z M74.1,117.71 C74.49,117.71 74.87,117.99 76.16,118.71 C77.24,119.46 78.1,119.93 77.79,118.75 C78.03,118.42 79.23,119.52 80.64,120.21 C82.35,121.59 82.35,121.26 82.57,120.58 C82.8,120.08 83.12,120.41 84.48,121.68 C86.26,123.35 86.1,123.35 86.46,122.94 C86.87,122.16 87,122.17 88.46,123.85 C89.97,125.55 90.29,125.91 90.62,125.19 C91.11,124.81 91.37,125.17 93.43,127.12 C94.44,128.13 94.67,127.97 94.86,127.29 C95.06,126.59 95.11,126.75 96.82,128.11 C98.8,129.7 98.99,129.82 99.07,129.27 C99.2,128.39 99.82,128.7 101.85,130.17 C103.08,131.06 103.55,131.3 103.81,131.08 C104.08,130.61 103.14,129.69 105.13,130.55 L105.67,133.46 L104.99,133.26 C104.56,133.14 103.64,132.82 103.99,133.73 C104.19,134.25 103.69,134.19 102.14,133.26 C99.93,131.94 99.53,131.63 99.36,131.91 C99.07,132.9 99.11,132.96 97.62,131.79 C95.88,130.46 95.53,130.1 95.29,130.55 C95.26,131.55 94.77,131.34 93.16,129.94 C91.79,128.74 91.5,128.11 90.88,129.03 C90.72,129.35 90.55,129.27 90.32,129.1 C89.53,128.51 87.93,126.81 87.47,126.32 C87.12,125.93 86.92,126.06 86.63,126.38 C86.35,126.68 86.33,126.58 85.45,125.77 C83.34,123.82 82.95,123.34 82.65,123.6 C82.41,124.06 82.64,124.68 81.02,123.39 C78.99,121.92 78.11,121.27 78.25,122.23 C77.9,122.66 78.14,122.75 76.11,121.62 C74.18,120.54 73.93,120.22 73.65,120.59 C73.46,121.17 72.82,120.96 72.82,120.93 L72.42,117.97 L73.12,117.98 C73.12,117.98 73.79,117.71 74.1,117.71 L74.1,117.71 Z M32.84,117.45 L34.5,119.05 L33.16,120.76 L31.3,119.14 L32.84,117.45 L32.84,117.45 Z M32.93,116.06 L30,119.13 L33.18,122.17 L35.89,119.07 L32.93,116.06 L32.93,116.06 Z M93.61,116.92 L95.46,116.92 L95.46,115.85 L93.61,115.85 L93.61,116.92 Z M72.58,115.63 C72.14,115.64 71.63,115.73 71.19,115.77 C71.68,118.36 71.91,120.96 72.13,123.55 C74.39,123.15 77.31,123.52 81.16,125.33 C83.53,126.44 86.41,128.33 89.44,130.47 C92.71,132.79 96.55,134.16 99.83,134.87 C103.81,135.74 107.01,135.67 106.92,135.48 C106.74,135.51 105.48,129.12 105.65,127.75 C100.14,127.24 94.82,125.19 90.75,122.41 C85.37,118.72 79.15,115.52 72.58,115.63 L72.58,115.63 Z M136.11,114.67 C135.6,114.71 135.89,115.62 136.74,116.11 C137.22,116.38 137.22,116.38 137.16,117.22 C137.04,118.75 138.5,119.5 139.15,118.24 C139.26,118.03 139.31,117.75 139.27,117.57 C139,116.46 141.38,116.76 141.95,117.91 C142.08,118.17 142.23,118.87 142.3,119.58 C142.37,120.25 142.38,121.03 142.38,121.03 L143.15,121.03 C143.15,121.03 143.14,120.56 143.18,120.12 C143.37,118.23 144.2,117.03 145.33,117.03 C145.81,117.03 145.82,117.12 145.49,117.75 C144.92,118.8 145.47,119.57 146.79,119.58 C147.63,119.58 147.63,119.58 147.94,120.18 C148.28,120.84 148.54,121.05 148.86,120.93 C149.09,120.84 149.09,120.97 148.8,118.72 C148.36,115.37 146.42,114.46 143.74,116.36 C142.98,116.9 142.82,116.88 142.15,116.23 C141.14,115.25 140.5,115.03 138.53,114.95 C137.59,114.92 136.67,114.83 136.48,114.75 C136.33,114.69 136.21,114.66 136.11,114.67 L136.11,114.67 Z M93.61,114.6 L95.46,114.6 L95.46,113.54 L93.61,113.54 L93.61,114.6 Z M135.82,113.43 C135.98,113.44 136.17,113.48 136.37,113.58 C137.02,113.92 137.22,113.95 138.92,114.04 C140.89,114.14 141.59,114.32 142.56,114.97 C143.15,115.37 143.19,115.37 143.82,114.95 C146.58,113.1 149.74,114.78 149.97,118.21 C150.03,119.12 150.12,119.48 150.47,120.24 C150.71,120.76 150.96,121.18 150.82,121.51 C150.37,122.53 148.24,122.6 147.08,121.08 C146.88,120.85 146.67,120.75 146.38,120.75 C145.8,120.97 144.33,119.8 144.34,119.75 C144.21,120.56 144.14,121.21 143.99,122.39 L141.41,122.35 C141.41,122.35 141.36,121.88 141.24,120.21 C141.1,118.31 140.63,117.75 140.02,118.78 C138.98,120.55 136.21,119.77 136.05,117.66 C135.99,116.94 135.95,116.85 135.56,116.55 C134.26,115.54 134.64,113.41 135.82,113.43 L135.82,113.43 Z M33.49,112.17 L35.04,114.81 L36.89,114.9 L36.97,116.71 L40.11,119.13 L37.36,121.11 L37.16,123.08 L34.98,123.15 L33.22,126.14 L31.04,123.51 L29.3,123.23 L29.1,120.84 L26.41,118.81 L28.94,116.78 L29.14,114.66 L31.2,114.84 L33.49,112.17 L33.49,112.17 Z M93.61,112.19 L95.46,112.19 L95.46,111 L93.61,111 L93.61,112.19 Z M93.61,109.77 L95.46,109.77 L95.46,108.58 L93.61,108.58 L93.61,109.77 Z M93.61,107.49 L95.46,107.49 L95.46,106.22 L93.61,106.22 L93.61,107.49 Z M93.61,105.06 L95.46,105.06 L95.46,103.86 L93.61,103.86 L93.61,105.06 Z M93.61,102.51 L95.46,102.51 L95.46,101.33 L93.61,101.33 L93.61,102.51 Z M93.63,98.99 L93.63,100.13 L95.46,100.14 L95.46,99 L93.63,98.99 L93.63,98.99 Z M30.4,97.58 C30.12,97.58 29.8,97.7 29.46,98 C29.46,98 29.76,98.25 29.92,98.59 C30.18,99.13 30.18,99.13 29.89,100.33 C28.55,105.15 31.72,108.33 36.23,106.94 C37.34,106.59 37.3,106.63 37.62,107.94 C38.14,110.1 39.65,111.21 42.66,111.62 C42.85,111.65 43.16,111.71 43.4,111.86 C44.72,112.71 44.18,111.58 43.82,111.14 C43.56,110.79 43.09,110.45 43.09,110.45 C43.09,110.45 43.49,110.19 43.68,110.09 C44.53,109.63 44.85,107.86 44.15,107.48 C43.51,107.13 42.42,107.66 42.42,108.31 C42.41,109.52 40.9,109.65 39.58,108.65 C37.89,107.36 39.39,104.12 39.4,104.13 L38.44,103.7 C38.57,103.82 36.43,106.88 33.8,105.81 C31.96,105.07 30.67,102.92 31.52,102.31 C32.14,102.14 32.88,102.49 33.36,102.12 C34.29,101.38 33.54,100.08 32.19,100.12 C31.91,100.13 31.27,100.26 31.27,100.26 C31.34,99.65 31.5,99.22 31.42,98.64 C31.34,98.05 30.94,97.59 30.4,97.58 L30.4,97.58 Z M79.99,96.68 L84.37,115.16 C79.56,113.38 74.84,112 70.66,113.03 C68.75,109.96 67.12,108.44 64.99,106.44 C69.13,101.42 74.38,98.62 79.99,96.68 L79.99,96.68 Z M32.32,98.14 C32.46,98.56 32.5,99.01 32.5,99.01 C36.5,98.67 35.48,103.35 32.93,103.51 C32.63,103.54 33.18,104.33 33.77,104.59 C35.29,105.23 36.37,104.82 37.37,103.48 C38.13,102.46 38.17,102.31 38.17,102.31 L40.64,103.63 C40.64,103.63 40.71,103.59 40.28,104.73 C39.48,106.81 40.64,109.35 41.53,107.5 C42.01,106.51 43.41,105.95 44.38,106.36 C45.51,106.83 45.9,108.87 45.11,110.15 C44.87,110.54 44.86,110.62 45.01,110.98 C45.23,111.52 45.37,112.91 45.14,113.36 C44.83,113.95 44.49,114.08 43.81,113.6 C42.87,112.95 42.35,112.68 40.73,112.23 C37.89,111.69 37.33,110.68 36.2,108.33 C32.83,109.34 27.79,107.21 28.46,102.18 C28.77,101.07 28.85,98.93 28.29,98.5 C27.19,97.64 28.4,96.41 30.05,96.21 C31.42,96.07 32.07,97.37 32.32,98.14 L32.32,98.14 Z M93.61,97.53 L95.46,97.53 L95.46,96.14 L93.61,96.14 L93.61,97.53 Z M80.5,95.79 C75.05,98.4 69.55,100.38 64.15,106.61 C66.24,108.5 68.45,110.44 70.42,113.67 C74.92,113 79.93,113.81 85.39,115.97 L80.5,95.79 L80.5,95.79 Z M113.34,95.43 L113.29,111.31 C107.23,116.1 105.34,124.53 105.34,124.53 L102.88,124.38 L109.14,96.41 L113.34,95.43 L113.34,95.43 Z M42.69,94.68 L44.52,96.02 L43.13,97.87 L41.37,96.33 L42.69,94.68 L42.69,94.68 Z M93.61,94.87 L95.46,94.87 L95.46,93.53 L93.61,93.53 L93.61,94.87 Z M42.64,93.09 L40.05,96.39 L43.18,99.15 L45.94,95.92 L42.64,93.09 L42.64,93.09 Z M92.28,92.36 L96.69,92.49 L96.44,121.51 C96.44,121.51 95.57,121.5 95.41,121.5 L95.39,120.37 L93.98,120.42 L92.54,119.54 L92.28,92.36 L92.28,92.36 Z M113.25,90.27 L113.35,92.34 L110.08,92.93 L110.5,90.82 L113.25,90.27 L113.25,90.27 Z M42.64,88.72 L44.63,92.14 L46.96,92.23 L47.17,94.31 L50,96.14 L47.1,97.85 L46.96,99.95 L44.76,100.23 L42.72,102.8 L40.76,100.23 L38.6,100.24 L38.57,98.09 L35.6,96.17 L38.85,94.33 L38.82,91.88 L41.12,91.72 L42.64,88.72 L42.64,88.72 Z M51.77,87.13 C51.52,87.13 51.25,87.24 51,87.49 C50.67,87.82 50.67,88.77 51,89.32 C51.32,89.84 51.31,89.99 50.94,90.33 C50.29,90.94 50.27,92.15 50.91,92.61 C51.48,93.03 52.1,92.48 52.1,91.64 C52.1,90.72 52.75,90.73 52.75,90.73 L56.96,90.81 L56.97,90.12 L53.92,89.96 C53.49,89.96 53.04,89.92 52.72,89.69 C52.37,89.45 51.97,89.03 52.35,88.52 C52.88,87.8 52.41,87.13 51.77,87.13 L51.77,87.13 Z M51.28,85.76 C52.43,85.73 53.74,86.47 53.79,87.82 C53.83,88.78 53.89,88.85 54.75,88.87 C55.57,88.88 57.94,89.17 57.94,89.17 L57.95,91.85 C57.95,91.85 56.81,91.84 55.49,91.78 C53.25,91.67 53.26,91.67 52.97,92.66 C52.86,93.06 52.7,93.26 52.25,93.55 C50.24,94.89 48.29,92.47 49.54,90.19 C49.97,89.4 50,89.13 49.7,88.66 C49.1,87.3 49.9,85.83 51.28,85.76 L51.28,85.76 Z M134.9,85.28 C135,85.28 135.13,85.3 135.22,85.3 C136.56,85.28 141.07,88.55 142.23,90.53 C143.19,92.27 142.69,92.96 141.59,91.4 C140.06,89.7 137.25,87.16 136.89,87.16 C136.5,87.16 137.03,87.71 138.83,89.47 C140.6,91.21 142.48,93.49 142.48,93.89 C142.48,94.16 142.12,94.13 141.62,93.81 C140.51,93.12 139.54,92.43 139.05,91.96 C138.76,91.68 138.19,91.16 137.79,90.81 C136.13,89.34 134.24,85.97 134.77,85.32 C134.8,85.29 134.85,85.29 134.9,85.28 L134.9,85.28 Z M94.03,84.92 C94.72,84.92 95.29,85.49 95.29,86.19 C95.29,86.88 94.72,87.44 94.03,87.44 C93.34,87.44 92.78,86.88 92.78,86.19 C92.78,85.49 93.34,84.92 94.03,84.92 L94.03,84.92 Z M106.46,84.44 C107.15,84.44 107.71,85.01 107.71,85.7 C107.71,86.4 107.15,86.96 106.46,86.96 C105.77,86.96 105.21,86.4 105.21,85.7 C105.21,85.01 105.77,84.44 106.46,84.44 L106.46,84.44 Z M94.06,84.3 C93.02,84.3 92.19,85.15 92.19,86.19 C92.19,87.22 93.02,88.06 94.06,88.06 C95.09,88.06 95.92,87.22 95.92,86.19 C95.92,85.15 95.09,84.3 94.06,84.3 L94.06,84.3 Z M106.48,83.82 C105.45,83.82 104.61,84.66 104.61,85.7 C104.61,86.74 105.45,87.58 106.48,87.58 C107.51,87.58 108.35,86.74 108.35,85.7 C108.35,84.66 107.51,83.82 106.48,83.82 L106.48,83.82 Z M81.33,83.29 C82.02,83.29 82.58,83.85 82.58,84.55 C82.58,85.25 82.02,85.81 81.33,85.81 C80.64,85.81 80.07,85.25 80.07,84.55 C80.07,83.85 80.64,83.29 81.33,83.29 L81.33,83.29 Z M91.24,83.04 L97.24,83.39 L97.29,89.41 L90.78,89.13 L91.24,83.04 L91.24,83.04 Z M81.35,82.67 C80.32,82.67 79.48,83.51 79.48,84.55 C79.48,85.59 80.32,86.43 81.35,86.43 C82.38,86.43 83.22,85.59 83.22,84.55 C83.22,83.51 82.38,82.67 81.35,82.67 L81.35,82.67 Z M109.05,82.08 L110.68,87.88 L104.06,89.02 L103.03,83.14 L109.05,82.08 L109.05,82.08 Z M150.23,80.58 C151.15,83.47 149.47,87.18 149.38,87.42 C148.36,90.33 147.14,92.71 146.69,92.84 C146.31,92.99 146.14,92.9 146.14,92.54 C146.14,91.99 147.4,88.26 148.38,85.87 C148.62,85.28 149.18,83.51 149.18,83.21 C149.18,82.76 148.75,83.49 148.29,84.61 C147.38,86.85 146.07,89.24 145.78,91.41 C145.58,93.19 145.24,92.93 145,90.82 C144.66,87.89 145.3,86.39 148.57,82.31 C149.35,81.33 150.15,80.33 150.23,80.58 L150.23,80.58 Z M79.32,80.73 L84.93,82.18 L83.63,88.09 L77.3,86.4 L79.32,80.73 L79.32,80.73 Z M118.94,80.63 C119.63,80.63 120.2,81.2 120.2,81.9 C120.2,82.59 119.63,83.16 118.94,83.16 C118.25,83.16 117.69,82.59 117.69,81.9 C117.69,81.2 118.25,80.63 118.94,80.63 L118.94,80.63 Z M118.96,80.02 C117.93,80.02 117.1,80.86 117.1,81.9 C117.1,82.94 117.93,83.77 118.96,83.77 C120,83.77 120.83,82.94 120.83,81.9 C120.83,80.86 120,80.02 118.96,80.02 L118.96,80.02 Z M99.89,79.37 C100.58,79.37 101.14,79.94 101.14,80.63 C101.14,81.33 100.58,81.89 99.89,81.89 C99.2,81.89 98.63,81.33 98.63,80.63 C98.63,79.94 99.2,79.37 99.89,79.37 L99.89,79.37 Z M88.49,78.9 C89.18,78.9 89.74,79.47 89.74,80.17 C89.74,80.86 89.18,81.42 88.49,81.42 C87.79,81.42 87.23,80.86 87.23,80.17 C87.23,79.47 87.79,78.9 88.49,78.9 L88.49,78.9 Z M99.91,78.75 C98.88,78.75 98.04,79.6 98.04,80.63 C98.04,81.67 98.88,82.51 99.91,82.51 C100.94,82.51 101.78,81.67 101.78,80.63 C101.78,79.6 100.94,78.75 99.91,78.75 L99.91,78.75 Z M88.51,78.29 C87.48,78.29 86.64,79.13 86.64,80.17 C86.64,81.21 87.48,82.04 88.51,82.04 C89.54,82.04 90.38,81.21 90.38,80.17 C90.38,79.13 89.54,78.29 88.51,78.29 L88.51,78.29 Z M120.77,78.26 L122.79,83.66 L117.18,85.97 L115.16,80.29 L120.77,78.26 L120.77,78.26 Z M69.08,78.06 C69.77,78.06 70.34,78.62 70.34,79.32 C70.34,80.01 69.77,80.58 69.08,80.58 C68.39,80.58 67.83,80.01 67.83,79.32 C67.83,78.62 68.39,78.06 69.08,78.06 L69.08,78.06 Z M47.15,78.05 C38.64,83.4 24.49,96.17 24.57,96.46 L24.63,145.53 L25.74,145.58 L26.65,143.78 C25.24,143.42 25.63,140.74 28.34,140.21 C28.8,140.11 30.22,139.64 30.56,139.37 C32.62,137.79 35.97,136.86 38.31,137.48 C41.73,138.36 42.43,140.89 40.79,145.3 C39.49,148.77 36.92,153.21 34.51,154.47 C34.31,154.58 33.88,154.79 33.88,154.79 C33.88,154.79 34.44,155.3 34.65,155.43 C41.3,151.56 44.65,137.68 44.47,129.05 C44.74,120.2 46.26,111.33 49.8,104.87 C55.66,94.2 63.41,89.92 63.37,89.88 C63.37,89.88 52.92,83.49 47.15,78.05 L47.15,78.05 Z M142.8,77.96 L143.6,77.96 C143.67,82.96 144.07,88.75 144.64,93.03 C144.73,93.67 144.77,93.86 144.7,93.97 C144.15,94.97 143.5,93.72 143.25,90.87 C143.18,90.09 143.09,88.95 143,88.2 C142.71,85.93 142.8,77.96 142.8,77.96 L142.8,77.96 Z M102.24,77.44 L102.98,83.26 L97.32,83.54 L96.99,77.74 L102.24,77.44 L102.24,77.44 Z M69.11,77.44 C68.07,77.44 67.24,78.28 67.24,79.32 C67.24,80.36 68.07,81.2 69.11,81.2 C70.14,81.2 70.97,80.36 70.97,79.32 C70.97,78.28 70.14,77.44 69.11,77.44 L69.11,77.44 Z M111.24,77.36 C111.93,77.36 112.49,77.92 112.49,78.62 C112.49,79.31 111.93,79.88 111.24,79.88 C110.55,79.88 109.99,79.31 109.99,78.62 C109.99,77.92 110.55,77.36 111.24,77.36 L111.24,77.36 Z M111.26,76.74 C110.23,76.74 109.4,77.58 109.4,78.62 C109.4,79.66 110.23,80.5 111.26,80.5 C112.3,80.5 113.13,79.66 113.13,78.62 C113.13,77.58 112.3,76.74 111.26,76.74 L111.26,76.74 Z M86.23,76.59 L91.42,77.35 L91.18,83.13 L85.13,82.4 C85.36,80.37 86.23,76.59 86.23,76.59 L86.23,76.59 Z M77.3,75.82 C77.99,75.82 78.56,76.39 78.56,77.08 C78.56,77.78 77.99,78.34 77.3,78.34 C76.61,78.34 76.05,77.78 76.05,77.08 C76.05,76.39 76.61,75.82 77.3,75.82 L77.3,75.82 Z M68.03,75.63 L73.42,78.5 L70.73,83.91 L65,80.82 L68.03,75.63 L68.03,75.63 Z M77.33,75.2 C76.29,75.2 75.46,76.05 75.46,77.08 C75.46,78.12 76.29,78.96 77.33,78.96 C78.36,78.96 79.19,78.12 79.19,77.08 C79.19,76.05 78.36,75.2 77.33,75.2 L77.33,75.2 Z M52.26,75.11 C58.74,81.4 67.89,86.9 78.64,90.02 L78.91,92.34 C67.49,88.89 58.88,84.28 50.48,76.28 L52.26,75.11 L52.26,75.11 Z M113.19,74.91 L114.87,80.56 L109.09,82.1 L107.8,76.37 L113.19,74.91 L113.19,74.91 Z M54.45,73.75 C75.78,93.11 106.08,94.5 128.11,81.65 L129.45,81.63 L130.16,82.36 C105.07,97.3 73.88,94.05 52.82,74.82 L54.45,73.75 L54.45,73.75 Z M75.94,73.16 L81.17,75.18 L79.19,80.9 L73.47,78.54 L75.94,73.16 L75.94,73.16 Z M144.9,72.31 C144.9,72.31 145.59,72.57 145.76,72.83 C147.11,74.92 145.7,77.41 143.43,77.36 C140.78,77.31 140.08,73.96 141.9,72.59 L143.39,74 L144.9,72.31 L144.9,72.31 Z M59.05,71.71 C59.74,71.71 60.31,72.28 60.31,72.97 C60.31,73.67 59.74,74.23 59.05,74.23 C58.36,74.23 57.8,73.67 57.8,72.97 C57.8,72.28 58.36,71.71 59.05,71.71 L59.05,71.71 Z M60.46,70.38 L62.99,72.45 C62.19,74 59.64,77.27 59.64,77.27 L54.97,73.5 L57.41,72.11 C57.28,72.37 57.21,72.66 57.21,72.97 C57.21,74.01 58.04,74.85 59.08,74.85 C60.11,74.85 60.94,74.01 60.94,72.97 C60.94,71.98 60.17,71.16 59.2,71.1 L60.46,70.38 L60.46,70.38 Z M67.22,70.29 C67.91,70.29 68.46,70.85 68.46,71.54 C68.46,72.23 67.91,72.8 67.22,72.8 C66.53,72.8 65.97,72.23 65.97,71.54 C65.97,70.85 66.53,70.29 67.22,70.29 L67.22,70.29 Z M143.26,69.67 L144.03,70.45 L143.26,71.21 L142.47,70.45 L143.26,69.67 L143.26,69.67 Z M96.78,69.67 L95.03,69.68 L95.03,71.3 L96.84,71.31 L96.78,69.67 L96.78,69.67 Z M67.22,69.61 C66.17,69.61 65.32,70.47 65.32,71.53 C65.32,72.58 66.17,73.44 67.22,73.44 C68.27,73.44 69.12,72.58 69.12,71.53 C69.12,70.47 68.27,69.61 67.22,69.61 L67.22,69.61 Z M99.77,69.6 L97.99,69.66 L98,71.26 L99.82,71.15 L99.77,69.6 L99.77,69.6 Z M91.93,69.44 L91.91,71.09 L93.69,71.24 L93.69,69.6 L91.93,69.44 L91.93,69.44 Z M102.69,69.26 L100.87,69.46 L101.05,71.04 L102.95,70.8 L102.69,69.26 L102.69,69.26 Z M89.05,69.04 L88.82,70.65 L90.85,70.92 L91,69.29 L89.05,69.04 L89.05,69.04 Z M143.26,68.99 L141.79,70.45 L143.26,71.99 L144.75,70.45 L143.26,68.99 L143.26,68.99 Z M105.88,68.61 L104.09,69 L104.39,70.6 L106.19,70.22 L105.88,68.61 L105.88,68.61 Z M85.95,68.34 L85.63,69.94 L87.57,70.36 L87.89,68.77 L85.95,68.34 L85.95,68.34 Z M108.66,67.87 L106.97,68.38 L107.36,69.87 L109.1,69.41 L108.66,67.87 L108.66,67.87 Z M141.33,68.58 L139.76,70.43 L141.46,72.25 C139.44,74.42 136.42,73.08 136.45,70.43 C136.47,68.41 139.55,66.44 141.33,68.58 L141.33,68.58 Z M143.07,67.75 L145.88,70.2 L143.3,73.23 L140.67,70.56 L143.07,67.75 L143.07,67.75 Z M66.58,67.62 L70.99,70.67 L67.79,75.69 L63.04,72.47 L66.58,67.62 L66.58,67.62 Z M150.79,70.19 C151.04,72.94 146.99,74.27 145.47,71.7 L146.81,70.07 L145.61,68.95 C147.23,66.36 150.55,67.61 150.79,70.19 L150.79,70.19 Z M83.03,67.53 L82.63,69.14 L84.51,69.67 L84.83,68.05 L83.03,67.53 L83.03,67.53 Z M111.34,67.08 L109.74,67.61 L110.24,69.15 L111.9,68.58 L111.34,67.08 L111.34,67.08 Z M80.23,66.42 L79.57,68.03 L81.4,68.73 L81.93,67.15 L80.23,66.42 L80.23,66.42 Z M68.86,66.36 C83.65,75.97 99.52,77.85 116.62,70.81 L117.28,72.65 C100.62,79.39 83.04,78.61 66.99,67.16 L68.86,66.36 L68.86,66.36 Z M113.89,66.09 L112.27,66.74 L112.91,68.23 L114.58,67.51 L113.89,66.09 L113.89,66.09 Z M71.04,65.35 C89.24,76.85 106.19,73.43 116.37,68.72 L116.5,69.95 C103.36,75.58 86.09,77.09 69.65,65.96 L71.04,65.35 L71.04,65.35 Z M77.47,65.17 L76.79,66.72 L78.49,67.63 L79.13,66.07 L77.47,65.17 L77.47,65.17 Z M76.43,63.13 C88.25,69.79 103.07,70.26 116.64,63.48 L116.48,64.61 L114.99,65.45 L115.83,67 L116.3,66.78 L116.31,67.8 C105.12,73.89 86.38,75.15 71.72,65.04 L72.99,64.45 C72.99,64.45 73.28,64.65 73.56,64.82 C74.09,65.16 74.97,65.69 75.56,65.95 L76.45,64.67 C76.45,64.67 75.09,63.83 75.22,63.78 L76.43,63.13 L76.43,63.13 Z M143.17,63.03 C146.1,63.12 146.68,66.37 144.88,68.21 C144.88,68.21 143.72,67.31 143.11,66.8 C142.53,67.27 142.36,67.67 141.71,68.14 C140.95,67.58 140.49,66.57 140.49,65.61 C140.52,64.1 142.03,63 143.17,63.03 L143.17,63.03 Z M143.22,62.73 C140.42,62.91 139.77,65.07 140.1,67.26 C137.97,66.92 135.58,68.96 136.25,71.45 C136.88,73.81 139.06,73.9 140.57,73.74 C140.45,74.31 140.13,76.24 142.45,77.87 L142.76,90.14 C142.76,90.14 141.74,89.2 141.07,88.53 C138.16,85.61 133.78,83.5 134.06,85.14 C134.1,85.38 134.19,86 134.26,86.5 C134.73,89.28 138.43,92.28 140.96,93.79 C141.86,94.3 142.42,94.84 142.42,94.84 C137.69,99.93 135.15,105.35 134.52,110.74 C133.93,115.75 133.46,120.25 132.99,124.85 C131.06,147.9 121.24,153.7 120.77,154.82 L120.59,157.9 L117.85,157.69 L114.69,160.44 C125.04,165.83 131.08,172.33 130.99,172.45 C139.26,167 146.39,160.95 153.12,154.68 L152.99,103.36 C152.99,103.36 152.43,103.57 152.29,103.57 C151.78,103.57 151.71,103.8 151.54,104.78 C151.44,105.3 151.13,105.79 150.89,106.13 C150.42,106.79 150.59,106.46 151.17,106.7 C152.5,107.24 150.78,109.68 148.89,109.98 C147.53,110.2 146.78,110.45 146.55,110.76 C143.69,113.28 140.84,113.68 138.69,112.75 C137.63,112.3 136.48,111.63 136.09,110.52 C135.21,108 137.05,104.38 138.13,102.28 C140.11,98.43 143.4,95.55 143.4,95.55 L142.86,94.96 C142.86,94.96 143.51,94.97 143.63,94.92 C146.47,93.88 146.65,93.87 147.17,93.11 C147.69,92.35 149.01,90.19 149.28,89.48 C150.74,85.66 150.94,85.41 150.93,82.9 C150.93,80.87 150.8,79.51 150.41,79.41 C148.17,81.13 145.91,85.17 144.59,87.54 C144.13,84.02 144,77.87 144,77.87 C144.47,77.35 147.16,77.64 146.56,73.23 C148.93,74.31 151.42,72.66 151.31,70.37 C151.15,66.8 148.42,66.91 146.2,67.36 C147.26,65.2 145.24,62.6 143.22,62.73 L143.22,62.73 Z M129.51,55.94 C130.68,56.63 131.96,56.57 132.72,56.65 C131.91,56.81 131.15,57.02 130.28,57.36 L129.51,55.94 L129.51,55.94 Z M125.75,49.76 C126.57,50.23 128.18,50.49 128.2,50.37 C128.1,50.29 127.73,51.93 127.67,52.97 L125.75,49.76 L125.75,49.76 Z M132.47,47.06 C133.13,47.06 133.66,47.6 133.66,48.26 C133.66,48.93 133.13,49.47 132.47,49.47 C131.81,49.47 131.27,48.93 131.27,48.26 C131.27,47.6 131.81,47.06 132.47,47.06 L132.47,47.06 Z M121.63,42.85 C122.52,43.28 123.58,43.92 125.45,43.72 C124.21,45.84 124.48,46.42 124.35,47.35 L121.63,42.85 L121.63,42.85 Z M118.32,37.13 C119.28,37.48 120.29,37.72 121.41,37.67 C120.86,38.44 120.67,39.61 120.63,40.94 L118.32,37.13 L118.32,37.13 Z M125.32,34.26 C125.95,34.26 126.47,34.77 126.47,35.41 C126.47,36.04 125.95,36.56 125.32,36.56 C124.69,36.56 124.18,36.04 124.18,35.41 C124.18,34.77 124.69,34.26 125.32,34.26 L125.32,34.26 Z M114.07,29.88 C115.41,30.36 116.56,31.09 118.76,30.35 C117.59,31.39 116.93,32.64 116.43,33.96 L114.07,29.88 L114.07,29.88 Z M109.67,22.57 C110.98,23.32 112.19,23.94 113.83,24.1 C113.35,25.09 112.91,26.16 112.83,28 L109.67,22.57 L109.67,22.57 Z M105.17,21.3 L107.91,21.3 L129.54,57.59 L126.97,58.85 L105.17,21.3 L105.17,21.3 Z M117.24,21.21 C117.92,21.21 118.49,21.44 118.49,22.13 C118.49,22.81 117.94,23.37 117.26,23.37 C116.58,23.37 116.02,22.81 116.02,22.13 C116.02,21.44 116.56,21.21 117.24,21.21 L117.24,21.21 Z M136.45,21.13 C134.36,33.26 135.05,45.07 139.88,56.29 C139.88,56.29 139.18,56.33 139.09,56.31 C139.02,56.3 139.17,55.71 139.14,55.55 C139.04,55.13 138.35,55.32 137.76,55.72 C137.51,55.89 137.22,56.09 137.03,56.18 C136.44,56.48 133.4,56.46 133.4,56.46 C134.39,55.78 135.79,53.88 134.98,52.78 C134.79,52.54 134.68,52.64 134.5,52.96 C133.64,54.5 133.21,54.75 132.06,54.73 C130.26,54.71 128.96,53.58 129.11,51.88 C129.25,50.23 131.67,49.36 131.31,50.96 C131.21,52.39 132.62,52.67 132.88,51.24 C132.98,50.71 132.9,50.96 133.01,50.33 C135.83,48.83 134.27,45.77 131.65,46.41 C131.03,46.58 130.95,46.63 130.52,46.41 C129.71,45.99 129.04,46.12 128.73,46.71 C128.46,47.23 128.87,47.64 129.47,47.65 C130.1,47.65 130.22,47.95 130.21,48.33 C130.21,49.2 128.71,49.63 127.71,49.11 C125.09,47.76 126.06,44.26 129.11,44.27 C130.04,44.27 130.42,44.33 130.46,44.13 C130.58,43.57 129.16,42.59 128.36,42.73 C127.68,42.86 127.27,43.04 127.63,42.13 C127.85,41.2 127.84,40.77 127.66,40.07 C127.17,39.07 127.18,39.58 126.88,40.4 C125.88,42.07 124.36,42.44 123.06,41.53 C121.85,40.67 121.89,39.06 123.04,37.91 C123.84,37.11 124.69,37.65 124.21,38.54 C124.01,38.92 124.17,39.38 124.53,39.47 C125.25,39.65 125.7,39.22 125.7,38.34 C125.69,37.86 125.55,37.75 126.42,37.25 C128.67,35.96 126.99,32.43 124.45,33.57 C123.89,33.82 123.76,34.06 123.51,33.94 C122.45,32.93 120.93,34.21 121.83,34.88 C122.22,35.07 122.7,35.15 122.82,35.16 C123.04,35.28 122.97,35.6 122.65,35.99 C121.6,37.24 119.22,36.62 118.65,34.86 C118,32.83 120.07,30.69 121.65,31.88 C122.12,32.23 122.53,32.26 122.53,31.74 C122.53,30.93 121.52,30.01 120.23,30.1 C118.92,30.19 119.06,30.36 119.78,29.17 C120.3,28.11 120.23,27.07 119.78,26.45 C119.42,25.97 119.06,25.87 119.1,26.37 C119.38,27.95 117.55,29.45 116.05,28.79 C114.6,28.14 113.88,26.51 114.59,25.09 C115.25,23.79 116.84,23.65 116.57,25.05 C116.45,25.94 117.12,26.4 117.77,25.88 C118.01,25.69 118.06,25.52 118.08,24.95 C118.1,24.31 117.84,24.12 118.25,23.75 C119.32,23.6 119.39,21.31 119.22,21.21 L136.45,21.13 L136.45,21.13 Z M115.42,21.21 C115.41,23.86 111.98,23.59 111.56,21.2 L115.42,21.21 L115.42,21.21 Z M104.68,20.56 L99.4,20.58 L129.38,81.3 C129.38,81.3 128.57,81.43 126.98,81.01 C119.78,79.11 115.34,71.45 116.97,63.94 C117.13,63.35 117.17,62.85 117.17,62.85 C98.61,71.31 87.12,68.2 76.4,62.81 L71.83,64.58 C72.13,61.8 75.55,51.36 80.66,46.44 L80.65,41.18 L80.52,38.69 L80.12,34.18 C72.52,41.39 63.65,52.73 62.54,68.83 C62.54,68.83 55.62,72.41 49.72,76.37 C50.05,76.33 58.92,87.3 80.23,93.46 L79.29,89.96 C82.46,90.85 86.97,91.56 91.45,92.13 L92.05,119.62 L97.14,122.66 L97.31,92.22 C97.47,92.35 105.43,91.94 109.72,90.91 L109.12,93.84 L113.35,93 L113.35,95.14 L108.71,96.25 L102.1,124.7 L105.95,125.56 C107.08,119.83 109.92,115.19 114.05,112.35 L114.01,111.26 C116.65,109.35 122.15,107.83 122.19,107.86 C124.06,98.64 128.43,92.24 133.07,86.16 L130.86,83.14 L139.34,80.01 L127.57,59.85 C132.1,56.7 141.08,57.88 141.08,57.88 C137.23,47.41 133.84,36.63 137.65,20.79 L104.91,20.82 L104.68,20.56 L104.68,20.56 Z" id="Fill-446" fill="#0A0A08"></path>
        <path d="M47.69,64.77 C47.69,64.77 43.97,58.67 38.96,51.49 C35.6,46.69 32.92,41.48 32.67,37 C32.38,31.89 35.09,26.75 39.99,26.5 C44.89,26.26 46.88,30.45 47.69,33.91 C48.49,30.45 50.48,26.26 55.38,26.5 C60.28,26.75 62.99,31.89 62.7,37 C62.45,41.48 59.77,46.69 56.42,51.49 C51.4,58.67 47.69,64.77 47.69,64.77" id="Fill-447" fill="#C0242A"></path>
        <path d="M130.14,184.72 C130.14,184.72 126.43,190.83 121.41,198.01 C118.06,202.81 115.38,208.01 115.13,212.49 C114.84,217.61 117.55,222.74 122.45,222.99 C127.34,223.24 129.33,219.04 130.14,215.59 C130.95,219.04 132.94,223.24 137.83,222.99 C142.73,222.74 145.44,217.61 145.16,212.49 C144.91,208.01 142.22,202.81 138.87,198.01 C133.86,190.83 130.14,184.72 130.14,184.72" id="Fill-448" fill="#C0242A"></path>
    </g>
</svg>