<?xml version="1.0" encoding="UTF-8"?>
<svg width="17px" height="27px" viewBox="0 0 17 27" version="1.1" xmlns="http://www.w3.org/2000/svg" xmlns:xlink="http://www.w3.org/1999/xlink">
    <!-- Generator: Sketch 43.1 (39012) - http://www.bohemiancoding.com/sketch -->
    <title>Fill 516</title>
    <desc>Created with Sketch.</desc>
    <defs></defs>
    <g id="Page-1" stroke="none" stroke-width="1" fill="none" fill-rule="evenodd">
        <path d="M13.63,17.2 C13.66,13.59 12.02,10.88 8.92,10.59 C5.83,10.29 2.7,13.32 2.92,17 C3.13,20.69 4.56,23.8 8.32,23.78 C12.36,23.77 13.61,19.77 13.63,17.2 L13.63,17.2 Z M0.52,18.57 C0.19,16.36 0.2,10.63 0.47,8.94 C1.28,3.75 3.26,1.38 6.58,0.6 C9.8,-0.15 14.32,0.69 15.31,5.02 L12.62,5.08 C11.17,2.14 7.48,2.93 5.41,4.2 C3.75,5.22 3,9.46 3.32,9.72 C3.32,9.72 6.45,7.4 8.92,7.57 C14.2,8.12 16.37,12.7 16.19,17.03 C16.02,22.23 14.37,26.39 8.78,26.67 C3.47,26.46 1.03,23.56 0.52,18.58 L0.52,18.57 L0.52,18.57 Z" id="Fill-516" fill="#C0242A"></path>
    </g>
</svg>