<?xml version="1.0" encoding="UTF-8"?>
<svg width="17px" height="27px" viewBox="0 0 17 27" version="1.1" xmlns="http://www.w3.org/2000/svg" xmlns:xlink="http://www.w3.org/1999/xlink">
    <!-- Generator: Sketch 43.1 (39012) - http://www.bohemiancoding.com/sketch -->
    <title>Fill 600</title>
    <desc>Created with Sketch.</desc>
    <defs></defs>
    <g id="Page-1" stroke="none" stroke-width="1" fill="none" fill-rule="evenodd">
        <path d="M10.61,5.88 C9.8,3.59 7.72,2.81 6.21,4.24 C5.26,5.13 5.11,6.07 5.09,11.17 C5.07,14.32 5.07,15.64 5.07,15.64 C8.03,16.6 10.79,20.04 10.76,20 L10.83,10.49 C10.89,8.94 10.82,7.4 10.61,5.88 L10.61,5.88 Z M9.7,23.2 C8.62,21.62 6.78,19.47 5.06,18.71 C4.95,20.52 5.11,22.04 5.74,22.86 C6.76,24.16 8.39,24.45 9.7,23.2 L9.7,23.2 Z M2.28,17.96 L0.08,17.96 L0.08,14.96 L2.28,14.96 C2.28,14.96 2.3,13.35 2.36,10.5 C2.5,4.42 2.65,3.48 4.4,1.81 C7.87,-1.49 13.68,1.2 13.61,6.17 C13.51,13.18 13.58,19.86 13.38,20.81 C13.01,22.48 12.98,22.57 13.13,22.88 C13.43,23.49 16.05,23.75 16.05,23.58 L16.05,26.54 C14.05,26.69 13.22,26.5 11.61,25.36 C10.61,26.33 7.57,27.3 5.14,26.15 C3.3,25.29 1.9,23.04 2.28,17.96 L2.28,17.96 Z" id="Fill-600" fill="#C0242A"></path>
    </g>
</svg>