<?xml version="1.0" encoding="UTF-8"?>
<svg width="16px" height="27px" viewBox="0 0 16 27" version="1.1" xmlns="http://www.w3.org/2000/svg" xmlns:xlink="http://www.w3.org/1999/xlink">
    <!-- Generator: Sketch 43.1 (39012) - http://www.bohemiancoding.com/sketch -->
    <title>Fill 474</title>
    <desc>Created with Sketch.</desc>
    <defs></defs>
    <g id="Page-1" stroke="none" stroke-width="1" fill="none" fill-rule="evenodd">
        <path d="M0.425,26.61 L0.553,24.99 C0.958,19.98 2.033,18.29 8.138,13.05 C11.101,10.51 12.072,9.26 12.209,7.81 C12.597,4.38 9.569,3.31 7.597,3.3 C5.041,3.27 2.149,4.83 3.529,8.45 L0.662,9.31 C0.085,5.93 0.679,2.77 3.361,1.36 C6.945,-0.47 11.541,0.25 13.861,3.13 C15.421,5.07 15.777,7.75 14.94,9.85 C12.496,15.21 4.205,17.57 3.521,23.77 L12.685,23.77 L12.685,20.32 L15.385,20.32 L15.385,26.67 L0.425,26.61" id="Fill-474" fill="#C0242A"></path>
    </g>
</svg>