<?xml version="1.0" encoding="UTF-8"?>
<svg width="16px" height="27px" viewBox="0 0 16 27" version="1.1" xmlns="http://www.w3.org/2000/svg" xmlns:xlink="http://www.w3.org/1999/xlink">
    <!-- Generator: Sketch 43.1 (39012) - http://www.bohemiancoding.com/sketch -->
    <title>Fill 558</title>
    <desc>Created with Sketch.</desc>
    <defs></defs>
    <g id="Page-1" stroke="none" stroke-width="1" fill="none" fill-rule="evenodd">
        <path d="M10.09,14.92 C11.22,14.2 11.85,13.53 12.36,12.52 C12.78,11.69 12.92,11.26 12.8,9.55 C12.49,5.13 10.18,2.62 6.83,3.12 C4.96,3.4 3.93,4.45 3.34,6.4 C2.26,10.01 3.63,14.22 6.21,15.19 C7.37,15.63 9.16,15.51 10.09,14.92 L10.09,14.92 Z M0.64,21.6 L3.05,20.83 C3.96,23.26 5.79,23.98 7.73,23.82 C11.21,23.55 12.36,19.65 12.62,16.21 C11.27,17.65 9.23,18.38 7.49,18.31 C1.95,18.01 0.53,13.56 0.47,8.91 C0.32,4.98 1.94,2.14 4.72,0.84 C6.19,0.18 9.56,0.18 11.04,0.96 C14.45,2.75 15.71,5.86 15.48,13.26 C15.48,19.36 14.18,26.46 7.66,26.61 C3.89,27.13 1.03,24.2 0.64,21.6 L0.64,21.6 Z" id="Fill-558" fill="#C0242A"></path>
    </g>
</svg>