<?xml version="1.0" encoding="UTF-8"?>
<svg width="18px" height="27px" viewBox="0 0 18 27" version="1.1" xmlns="http://www.w3.org/2000/svg" xmlns:xlink="http://www.w3.org/1999/xlink">
    <!-- Generator: Sketch 43.1 (39012) - http://www.bohemiancoding.com/sketch -->
    <title>Fill 543</title>
    <desc>Created with Sketch.</desc>
    <defs></defs>
    <g id="Page-1" stroke="none" stroke-width="1" fill="none" fill-rule="evenodd">
        <path d="M14.23,7.53 C14.29,4.84 11.81,2.91 9.25,2.99 C6.97,3.06 4.56,4.8 4.56,7.05 C4.56,9.87 7.3,11.27 9.64,11.33 C11.76,11.38 14.18,9.57 14.23,7.53 L14.23,7.53 Z M15.25,18.98 C15.47,15.78 12.64,13.62 9.46,13.59 C6.35,13.55 3.58,16.21 3.58,19.08 C3.58,22.16 7.19,23.84 9.52,23.85 C12.36,23.86 15.06,21.73 15.25,18.98 L15.25,18.98 Z M0.86,18.96 C0.99,15.43 2.26,14.1 4.78,12.26 C2.77,10.81 1.93,8.68 2.1,6.86 C2.51,2.46 5.9,0.26 9.6,0.36 C13.31,0.46 16.5,3.4 16.74,6.59 C16.96,9.37 16.14,10.71 14.17,12.17 C16.5,14.15 18,15.44 17.94,18.92 C17.89,22.4 14.93,26.54 9.78,26.67 C4.62,26.79 0.74,22.5 0.86,18.96 L0.86,18.96 Z" id="Fill-543" fill="#C0242A"></path>
    </g>
</svg>