<?xml version="1.0" encoding="UTF-8"?>
<svg width="17px" height="27px" viewBox="0 0 17 27" version="1.1" xmlns="http://www.w3.org/2000/svg" xmlns:xlink="http://www.w3.org/1999/xlink">
    <!-- Generator: Sketch 43.1 (39012) - http://www.bohemiancoding.com/sketch -->
    <title>Fill 483</title>
    <desc>Created with Sketch.</desc>
    <defs></defs>
    <g id="Page-1" stroke="none" stroke-width="1" fill="none" fill-rule="evenodd">
        <path d="M-0.042,20.9 L1.981,19.41 C3.737,22.28 5.701,24.16 8.705,23.84 C13.213,23.53 15.081,18.8 14.138,15.23 C13.226,12.03 9.493,10.48 6.525,12.18 C5.825,12.58 5.149,12.91 5.018,12.91 C4.706,12.91 4.002,11.51 4.098,11.08 C6.09,8.17 10.926,3.07 10.926,3.07 L3.37,3.07 L3.37,6.49 L0.47,6.49 L0.47,0.36 L15.237,0.36 L15.237,2.44 C15.237,2.44 11.281,6.54 9.974,8.79 C13.193,8.91 15.789,10.96 16.721,14.19 C17.265,15.89 17.021,19.78 16.31,21.46 C15.121,24.25 11.874,26.52 8.905,26.65 C3.922,26.98 1.278,23.49 -0.042,20.9" id="Fill-483" fill="#C0242A"></path>
    </g>
</svg>