<?xml version="1.0" encoding="UTF-8"?>
<svg width="20px" height="34px" viewBox="0 0 20 34" version="1.1" xmlns="http://www.w3.org/2000/svg" xmlns:xlink="http://www.w3.org/1999/xlink">
    <!-- Generator: Sketch 41 (35326) - http://www.bohemiancoding.com/sketch -->
    <title>nine</title>
    <desc>Created with Sketch.</desc>
    <defs></defs>
    <g id="Page-1" stroke="none" stroke-width="1" fill="none" fill-rule="evenodd">
        <path d="M0.55204,26.819901 L3.57084,25.862741 C4.71124,28.905781 7.01134,29.806651 9.44644,29.611561 C13.81524,29.263251 15.26674,24.379181 15.59334,20.062081 C13.89104,21.867741 11.33384,22.784331 9.15464,22.691371 C2.18874,22.318171 0.40554,16.742751 0.34124,10.906741 C0.15094,5.986011 2.18494,2.421811 5.67424,0.785051 C7.52304,-0.043789 11.75554,-0.043789 13.61464,0.938271 C17.88314,3.190421 19.46584,7.080661 19.17914,16.369561 C19.17914,24.011231 17.55654,32.911241 9.36544,33.105041 C4.63544,33.759741 1.03934,30.077711 0.55204,26.819901 L0.55204,26.819901 L0.55204,26.819901 Z M12.40994,18.446281 C13.83064,17.546721 14.63034,16.702151 15.26804,15.438581 C15.79004,14.400231 15.97134,13.858131 15.82084,11.710711 C15.43384,6.170621 12.53084,3.025451 8.31764,3.648711 C5.96734,4.002261 4.68174,5.316891 3.94374,7.761551 C2.58214,12.282941 4.31014,17.571591 7.54494,18.789341 C9.00034,19.341901 11.25024,19.183481 12.40994,18.446281 L12.40994,18.446281 L12.40994,18.446281 Z" id="path29-2" fill="#000000"></path>
    </g>
</svg>