<?xml version="1.0" encoding="UTF-8"?>
<svg width="21px" height="34px" viewBox="0 0 21 34" version="1.1" xmlns="http://www.w3.org/2000/svg" xmlns:xlink="http://www.w3.org/1999/xlink">
    <!-- Generator: Sketch 41 (35326) - http://www.bohemiancoding.com/sketch -->
    <title>queen</title>
    <desc>Created with Sketch.</desc>
    <defs></defs>
    <g id="Page-1" stroke="none" stroke-width="1" fill="none" fill-rule="evenodd">
        <path d="M2.8864,22.261581 L0.1286,22.261581 L0.1286,18.502031 L2.8864,18.502031 C2.8864,18.502031 2.9074,16.476251 2.9867,12.902631 C3.1577,5.285351 3.3479,4.102871 5.5529,2.006371 C9.9075,-2.136859 17.1999,1.239001 17.1137,7.469571 C16.9877,16.262801 17.0787,24.646171 16.8219,25.833881 C16.3654,27.925141 16.3192,28.042991 16.5056,28.425361 C16.8874,29.192711 20.1814,29.525321 20.1814,29.310561 L20.1814,33.013831 C17.6653,33.208931 16.62,32.973231 14.6067,31.535401 C13.3506,32.747991 9.5244,33.965821 6.4812,32.533221 C4.1669,31.443751 2.4132,28.629631 2.8864,22.261581 L2.8864,22.261581 L2.8864,22.261581 Z M12.2076,28.824771 C10.8409,26.850051 8.5408,24.155101 6.377,23.197881 C6.242,25.468531 6.438,27.372521 7.2359,28.396561 C8.5061,30.026871 10.5594,30.400061 12.2076,28.824771 L12.2076,28.824771 L12.2076,28.824771 Z M13.3416,7.105531 C12.3272,4.232511 9.7211,3.258251 7.817,5.056181 C6.6265,6.174501 6.4362,7.351711 6.4105,13.745961 C6.3955,17.690161 6.3955,19.347981 6.3955,19.347981 C10.1022,20.550081 13.5671,24.871401 13.5375,24.815091 L13.6275,12.886931 C13.6995,10.951501 13.6035,9.013461 13.3421,7.105531 L13.3421,7.105531 L13.3416,7.105531 Z" id="path37-9" fill="#000000"></path>
    </g>
</svg>