<?xml version="1.0" encoding="UTF-8"?>
<svg width="22px" height="34px" viewBox="0 0 22 34" version="1.1" xmlns="http://www.w3.org/2000/svg" xmlns:xlink="http://www.w3.org/1999/xlink">
    <!-- Generator: Sketch 41 (35326) - http://www.bohemiancoding.com/sketch -->
    <title>five</title>
    <desc>Created with Sketch.</desc>
    <defs></defs>
    <g id="Page-1" stroke="none" stroke-width="1" fill="none" fill-rule="evenodd">
        <path d="M0.8561,24.638471 L4.0909,24.607071 C4.708,26.598891 6.0734,28.623471 7.9274,29.185271 C13.1652,30.438501 16.535,27.456641 17.6446,24.019091 C18.9907,19.849461 17.6146,13.994481 14.0086,11.916231 C11.0207,10.192851 6.5812,11.646451 4.5422,15.332821 L2.2768,13.921131 L3.493,0.181351 L18.2925,0.181351 L18.2925,3.429041 L6.2997,3.429041 L6.1094,9.153081 C8.6911,7.306591 12.6587,7.326241 15.239,8.621391 C20.1259,10.995611 22.3964,16.393581 21.4476,22.755361 C20.1311,29.083101 17.228,32.668671 10.68,33.180701 C3.3966,33.247501 0.8252,28.146791 0.8561,24.638501 L0.8561,24.638501 L0.8561,24.638471 Z" id="path21-2" fill="#000000"></path>
    </g>
</svg>