<?xml version="1.0" encoding="UTF-8"?>
<svg width="22px" height="34px" viewBox="0 0 22 34" version="1.1" xmlns="http://www.w3.org/2000/svg" xmlns:xlink="http://www.w3.org/1999/xlink">
    <!-- Generator: Sketch 41 (35326) - http://www.bohemiancoding.com/sketch -->
    <title>jack</title>
    <desc>Created with Sketch.</desc>
    <defs></defs>
    <g id="Page-1" stroke="none" stroke-width="1" fill="none" fill-rule="evenodd">
        <path d="M10.92,0.181351 L10.92,3.635581 L14.2744,3.635581 C14.2744,3.635581 14.3554,6.965431 14.3849,14.028381 C14.4109,20.887081 14.5508,24.288921 14.1136,26.242571 C12.9385,30.744331 6.4149,30.769211 5.119,27.532361 C4.3656,25.649421 4.5661,24.185491 4.5314,22.289451 L0.925,22.289451 C0.925,22.289451 0.946,23.244041 0.951,24.412021 C0.972,29.474201 2.6481,31.895301 6.5707,32.849861 C10.6039,33.939301 15.3198,32.277651 16.9964,28.831291 C17.9953,26.867171 17.8809,26.732291 17.9053,14.855931 C17.9203,6.932691 18.0403,3.635581 18.0403,3.635581 L21.1286,3.635581 L21.1286,0.181351 L10.9202,0.181351 L10.92,0.181351 Z" id="path35-0" fill="#000000"></path>
    </g>
</svg>