<?xml version="1.0" encoding="UTF-8"?>
<svg width="20px" height="34px" viewBox="0 0 20 34" version="1.1" xmlns="http://www.w3.org/2000/svg" xmlns:xlink="http://www.w3.org/1999/xlink">
    <!-- Generator: Sketch 41 (35326) - http://www.bohemiancoding.com/sketch -->
    <title>two</title>
    <desc>Created with Sketch.</desc>
    <defs></defs>
    <g id="Page-1" stroke="none" stroke-width="1" fill="none" fill-rule="evenodd">
        <path d="M0.48101,33.110621 L0.64181,31.075651 C1.14961,24.787381 2.50081,22.665981 10.16481,16.101401 C13.88561,12.919281 15.10571,11.349181 15.27671,9.527661 C15.76401,5.231161 11.96221,3.890211 9.48601,3.870571 C6.27691,3.841771 2.64611,5.794251 4.37921,10.333001 L0.77801,11.410731 C0.05421,7.177081 0.79901,3.205351 4.16841,1.442741 C8.66831,-0.855459 14.43841,0.045491 17.35181,3.666301 C19.30991,6.095431 19.75731,9.456941 18.70691,12.087751 C15.63801,18.808141 5.22781,21.765021 4.36891,29.540911 L15.87451,29.540911 L15.87451,25.211671 L19.26491,25.211671 L19.26491,33.181351 L0.48101,33.110651 L0.48101,33.110621 Z" id="path15-9" fill="#000000"></path>
    </g>
</svg>