<?xml version="1.0" encoding="UTF-8"?>
<svg width="21px" height="34px" viewBox="0 0 21 34" version="1.1" xmlns="http://www.w3.org/2000/svg" xmlns:xlink="http://www.w3.org/1999/xlink">
    <!-- Generator: Sketch 41 (35326) - http://www.bohemiancoding.com/sketch -->
    <title>six</title>
    <desc>Created with Sketch.</desc>
    <defs></defs>
    <g id="Page-1" stroke="none" stroke-width="1" fill="none" fill-rule="evenodd">
        <path d="M0.69482,23.028801 C0.28852,20.251371 0.29882,13.071371 0.63082,10.947381 C1.65552,4.440471 4.14072,1.462691 8.30372,0.491031 C12.34722,-0.455729 18.02742,0.598411 19.27322,6.036761 L15.89312,6.102261 C14.06492,2.425191 9.43902,3.407321 6.83292,5.007511 C4.75402,6.281661 3.81412,11.602141 4.21652,11.929521 C4.21652,11.929521 8.14822,9.017201 11.24802,9.231971 C17.87182,9.922051 20.60392,15.666821 20.37242,21.090761 C20.16162,27.615991 18.09292,32.834321 11.07182,33.181351 C4.39652,32.923371 1.33792,29.284271 0.69512,23.028821 L0.69512,23.028821 L0.69482,23.028801 Z M17.15792,21.305501 C17.19392,16.778561 15.13942,13.385651 11.24772,13.013751 C7.35982,12.639241 3.43712,16.434171 3.70842,21.048831 C3.97972,25.683151 5.77322,29.581531 10.48912,29.560561 C15.56112,29.540961 17.13352,24.528171 17.15792,21.305501 L17.15792,21.305501 L17.15792,21.305501 Z" id="path23-2" fill="#000000"></path>
    </g>
</svg>