<?xml version="1.0" encoding="UTF-8"?>
<svg width="17px" height="27px" viewBox="0 0 17 27" version="1.1" xmlns="http://www.w3.org/2000/svg" xmlns:xlink="http://www.w3.org/1999/xlink">
    <!-- Generator: Sketch 43.1 (39012) - http://www.bohemiancoding.com/sketch -->
    <title>Fill 588</title>
    <desc>Created with Sketch.</desc>
    <defs></defs>
    <g id="Page-1" stroke="none" stroke-width="1" fill="none" fill-rule="evenodd">
        <path d="M8.4,0.36 L8.4,3.11 L11.07,3.11 C11.07,3.11 11.14,5.77 11.16,11.4 C11.18,16.87 11.29,19.58 10.94,21.14 C10.01,24.73 4.81,24.75 3.78,22.17 C3.18,20.66 3.34,19.5 3.31,17.99 L0.44,17.99 C0.44,17.99 0.46,18.75 0.46,19.68 C0.48,23.71 1.81,25.65 4.94,26.41 C8.15,27.28 11.9,25.95 13.24,23.2 C14.04,21.64 13.94,21.53 13.96,12.06 C13.98,5.74 14.07,3.11 14.07,3.11 L16.53,3.11 L16.53,0.36 L8.4,0.36" id="Fill-588" fill="#C0242A"></path>
    </g>
</svg>