<?xml version="1.0" encoding="UTF-8"?>
<svg width="17px" height="27px" viewBox="0 0 17 27" version="1.1" xmlns="http://www.w3.org/2000/svg" xmlns:xlink="http://www.w3.org/1999/xlink">
    <!-- Generator: Sketch 43.1 (39012) - http://www.bohemiancoding.com/sketch -->
    <title>Fill 504</title>
    <desc>Created with Sketch.</desc>
    <defs></defs>
    <g id="Page-1" stroke="none" stroke-width="1" fill="none" fill-rule="evenodd">
        <path d="M0.37,19.86 L2.95,19.83 C3.44,21.42 4.52,23.04 6,23.48 C10.17,24.48 12.86,22.11 13.74,19.36 C14.81,16.04 13.72,11.37 10.84,9.71 C8.46,8.34 4.93,9.5 3.3,12.44 L1.5,11.31 L2.47,0.36 L14.26,0.36 L14.26,2.95 L4.7,2.95 L4.55,7.51 C6.61,6.04 9.77,6.05 11.82,7.09 C15.72,8.98 17.52,13.28 16.77,18.36 C15.72,23.4 13.41,26.26 8.19,26.67 C2.39,26.72 0.34,22.66 0.37,19.86" id="Fill-504" fill="#C0242A"></path>
    </g>
</svg>