<?xml version="1.0" encoding="UTF-8"?>
<svg width="19px" height="27px" viewBox="0 0 19 27" version="1.1" xmlns="http://www.w3.org/2000/svg" xmlns:xlink="http://www.w3.org/1999/xlink">
    <!-- Generator: Sketch 43.1 (39012) - http://www.bohemiancoding.com/sketch -->
    <title>Fill 612</title>
    <desc>Created with Sketch.</desc>
    <defs></defs>
    <g id="Page-1" stroke="none" stroke-width="1" fill="none" fill-rule="evenodd">
        <polyline id="Fill-612" fill="#C0242A" points="10.29 23.77 12.93 23.77 9.05 14.05 6.08 18.16 6.1 23.77 8.18 23.77 8.18 26.67 0.84 26.67 0.84 23.77 3.26 23.77 3.26 2.88 0.84 2.88 0.84 0.36 8.29 0.36 8.29 2.97 6.23 2.97 6.19 13.16 12.7 2.88 10.4 2.88 10.4 0.36 18.33 0.36 18.33 2.88 16.24 2.88 10.88 11.28 16.12 23.78 18.45 23.78 18.46 26.67 10.31 26.67 10.29 23.77"></polyline>
    </g>
</svg>