<?xml version="1.0" encoding="UTF-8" standalone="no"?>
<svg width="179px" height="250px" viewBox="0 0 179 250" version="1.1" xmlns="http://www.w3.org/2000/svg" xmlns:xlink="http://www.w3.org/1999/xlink">
    <!-- Generator: Sketch 39.1 (31720) - http://www.bohemiancoding.com/sketch -->
    <title>4C</title>
    <desc>Created with Sketch.</desc>
    <defs></defs>
    <g id="Page-1" stroke="none" stroke-width="1" fill="none" fill-rule="evenodd">
        <path d="M8.86,0.973 L169.64,0.973 C174.34,0.973 178.14,4.779 178.14,9.477 L178.14,241.12 C178.14,245.82 174.34,249.62 169.64,249.62 L8.86,249.62 C4.17,249.62 0.36,245.82 0.36,241.12 L0.36,9.477 C0.36,4.779 4.17,0.973 8.86,0.973" id="Fill-26" fill="#FFFFFF"></path>
        <path d="M130.48,27.376 C122.66,27.546 119.15,36.35 124.94,43.187 C125.78,44.184 125.87,44.756 124.33,43.799 C120.43,41.191 112.96,42.905 112.57,50.876 C112.1,60.698 125.82,63.527 128.4,53.084 C128.54,51.982 129.43,52.007 129.21,53.571 C128.98,57.816 127.65,61.784 125.83,65.653 L135.13,65.653 C133.31,61.784 131.98,57.816 131.75,53.571 C131.53,52.007 132.42,51.982 132.56,53.084 C135.14,63.527 148.86,60.698 148.39,50.876 C148,42.905 140.53,41.191 136.63,43.799 C135.09,44.756 135.18,44.185 136.02,43.187 C141.81,36.35 138.3,27.546 130.48,27.376 C130.48,27.376 130.48,27.376 130.47,27.376 L130.48,27.376" id="Fill-28" fill="#0A0A08"></path>
        <path d="M48.02,27.376 C40.2,27.546 36.69,36.35 42.49,43.187 C43.33,44.184 43.41,44.756 41.87,43.799 C37.97,41.191 30.5,42.905 30.12,50.876 C29.64,60.698 43.37,63.527 45.94,53.084 C46.08,51.982 46.97,52.007 46.76,53.571 C46.52,57.816 45.2,61.784 43.38,65.653 L52.67,65.653 C50.85,61.784 49.52,57.816 49.29,53.571 C49.07,52.007 49.97,51.982 50.1,53.084 C52.68,63.527 66.4,60.698 65.93,50.876 C65.55,42.905 58.07,41.191 54.17,43.799 C52.63,44.756 52.72,44.185 53.56,43.187 C59.35,36.35 55.85,27.546 48.03,27.376 C48.03,27.376 48.03,27.376 48.02,27.376" id="Fill-29" fill="#0A0A08"></path>
        <path d="M130.48,223.88 C122.66,223.71 119.15,214.91 124.94,208.07 C125.78,207.08 125.87,206.5 124.33,207.46 C120.43,210.07 112.96,208.35 112.57,200.38 C112.1,190.56 125.82,187.73 128.4,198.17 C128.54,199.28 129.43,199.25 129.21,197.69 C128.98,193.44 127.65,189.47 125.83,185.61 L135.13,185.61 C133.31,189.47 131.98,193.44 131.75,197.69 C131.53,199.25 132.42,199.28 132.56,198.17 C135.14,187.73 148.86,190.56 148.39,200.38 C148,208.35 140.53,210.07 136.63,207.46 C135.09,206.5 135.18,207.08 136.02,208.07 C141.81,214.91 138.3,223.71 130.48,223.88 C130.48,223.88 130.48,223.88 130.47,223.88 L130.48,223.88" id="Fill-30" fill="#0A0A08"></path>
        <path d="M48.02,223.88 C40.2,223.71 36.69,214.91 42.49,208.07 C43.33,207.08 43.41,206.5 41.87,207.46 C37.97,210.07 30.5,208.35 30.12,200.38 C29.64,190.56 43.37,187.73 45.94,198.17 C46.08,199.28 46.97,199.25 46.76,197.69 C46.52,193.44 45.2,189.47 43.38,185.61 L52.67,185.61 C50.85,189.47 49.52,193.44 49.29,197.69 C49.07,199.25 49.97,199.28 50.1,198.17 C52.68,187.73 66.4,190.56 65.93,200.38 C65.55,208.35 58.07,210.07 54.17,207.46 C52.63,206.5 52.72,207.08 53.56,208.07 C59.35,214.91 55.85,223.71 48.03,223.88 C48.03,223.88 48.03,223.88 48.02,223.88" id="Fill-31" fill="#0A0A08"></path>
        <path d="M164.43,209.77 C167.56,209.7 168.96,206.03 166.65,203.19 C166.31,202.77 166.28,202.53 166.89,202.93 C168.45,204.02 171.44,203.3 171.6,199.98 C171.79,195.89 166.3,194.71 165.27,199.06 C165.21,199.52 164.85,199.51 164.94,198.86 C165.03,197.09 165.56,195.44 166.29,193.82 L162.57,193.82 C163.3,195.44 163.83,197.09 163.93,198.86 C164.01,199.51 163.66,199.52 163.6,199.06 C162.57,194.71 157.08,195.89 157.27,199.98 C157.42,203.3 160.41,204.02 161.97,202.93 C162.59,202.53 162.55,202.77 162.22,203.19 C159.9,206.03 161.3,209.7 164.43,209.77" id="Fill-32" fill="#0A0A08"></path>
        <path d="M14.07,40.823 C10.94,40.894 9.54,44.563 11.86,47.411 C12.19,47.826 12.23,48.064 11.61,47.666 C10.05,46.579 7.06,47.294 6.91,50.615 C6.72,54.707 12.21,55.887 13.24,51.535 C13.29,51.075 13.65,51.086 13.57,51.737 C13.47,53.507 12.94,55.16 12.21,56.771 L15.93,56.771 C15.2,55.16 14.67,53.507 14.58,51.737 C14.49,51.086 14.85,51.075 14.9,51.535 C15.93,55.887 21.42,54.707 21.23,50.615 C21.08,47.294 18.09,46.579 16.53,47.666 C15.92,48.064 15.95,47.826 16.29,47.411 C18.6,44.563 17.2,40.894 14.07,40.823" id="Fill-33" fill="#0A0A08"></path>
        <path d="M16.35,18.396 L9.15,29.457 L16.35,29.457 L16.35,18.396 L16.35,18.396 Z M14.25,38.319 L14.25,35.995 L16.35,35.995 L16.35,32.161 L5.87,32.161 L5.87,29.456 L17.21,12.007 L19.06,12.017 L19.06,29.456 L22.27,29.456 L22.27,32.161 L19.06,32.161 L19,35.995 L20.76,35.995 L20.76,38.323 L14.25,38.323 L14.25,38.319 L14.25,38.319 Z" id="Fill-34" fill="#0A0A08"></path>
        <path d="M162.15,232.2 L169.35,221.14 L162.15,221.14 L162.15,232.2 L162.15,232.2 Z M164.25,212.28 L164.25,214.6 L162.15,214.6 L162.15,218.43 L172.63,218.43 L172.63,221.14 L161.29,238.59 L159.44,238.58 L159.44,221.14 L156.23,221.14 L156.23,218.43 L159.44,218.43 L159.5,214.6 L157.75,214.6 L157.75,212.27 L164.25,212.27 L164.25,212.28 L164.25,212.28 Z" id="Fill-35" fill="#0A0A08"></path>
    </g>
</svg>