<?xml version="1.0" encoding="UTF-8" standalone="no"?>
<svg width="178px" height="250px" viewBox="0 0 178 250" version="1.1" xmlns="http://www.w3.org/2000/svg" xmlns:xlink="http://www.w3.org/1999/xlink">
    <!-- Generator: Sketch 39.1 (31720) - http://www.bohemiancoding.com/sketch -->
    <title>QC</title>
    <desc>Created with Sketch.</desc>
    <defs></defs>
    <g id="Page-1" stroke="none" stroke-width="1" fill="none" fill-rule="evenodd">
        <path d="M8.52,0.973 L169.3,0.973 C174,0.973 177.81,4.779 177.81,9.477 L177.81,241.12 C177.81,245.82 174,249.62 169.3,249.62 L8.52,249.62 C3.83,249.62 0.02,245.82 0.02,241.12 L0.02,9.477 C0.02,4.779 3.83,0.973 8.52,0.973" id="Fill-131" fill="#FFFFFF"></path>
        <path d="M164.1,209.77 C167.22,209.7 168.63,206.03 166.31,203.19 C165.97,202.77 165.94,202.53 166.55,202.93 C168.11,204.02 171.1,203.3 171.26,199.98 C171.45,195.89 165.96,194.71 164.93,199.06 C164.87,199.52 164.51,199.51 164.6,198.86 C164.69,197.09 165.22,195.44 165.95,193.82 L162.24,193.82 C162.96,195.44 163.49,197.09 163.59,198.86 C163.67,199.51 163.32,199.52 163.26,199.06 C162.23,194.71 156.74,195.89 156.93,199.98 C157.08,203.3 160.08,204.02 161.63,202.93 C162.25,202.53 162.21,202.77 161.88,203.19 C159.56,206.03 160.97,209.7 164.09,209.77 L164.1,209.77" id="Fill-133" fill="#0A0A08"></path>
        <path d="M13.73,40.823 C10.6,40.894 9.2,44.563 11.52,47.411 C11.85,47.826 11.89,48.064 11.27,47.666 C9.71,46.579 6.72,47.294 6.57,50.615 C6.38,54.707 11.87,55.887 12.9,51.535 C12.96,51.076 13.31,51.086 13.23,51.738 C13.13,53.507 12.6,55.16 11.87,56.772 L15.59,56.772 C14.86,55.16 14.33,53.507 14.24,51.738 C14.15,51.086 14.51,51.075 14.56,51.535 C15.6,55.887 21.08,54.707 20.9,50.615 C20.74,47.294 17.75,46.579 16.19,47.666 C15.58,48.064 15.61,47.826 15.95,47.411 C18.26,44.563 16.86,40.894 13.73,40.823" id="Fill-134" fill="#0A0A08"></path>
        <path d="M16.27,17.528 C15.46,15.237 13.39,14.461 11.87,15.895 C10.92,16.786 10.77,17.725 10.75,22.824 C10.74,25.97 10.74,27.291 10.74,27.291 C13.69,28.25 16.45,31.696 16.43,31.651 L16.5,22.139 C16.56,20.596 16.48,19.05 16.27,17.528 L16.27,17.528 Z M15.37,34.849 C14.28,33.273 12.45,31.125 10.72,30.361 C10.62,32.172 10.77,33.69 11.41,34.507 C12.42,35.808 14.05,36.104 15.37,34.849 L15.37,34.849 Z M7.94,29.615 L5.75,29.615 L5.75,26.617 L7.94,26.617 C7.94,26.617 7.96,25.001 8.02,22.151 C8.16,16.077 8.31,15.134 10.07,13.462 C13.54,10.158 19.34,12.851 19.27,17.819 C19.17,24.831 19.25,31.517 19.04,32.463 C18.68,34.131 18.64,34.225 18.79,34.53 C19.09,35.142 21.72,35.407 21.72,35.235 L21.72,38.188 C19.71,38.345 18.88,38.157 17.28,37.01 C16.28,37.977 13.23,38.948 10.81,37.806 C8.96,36.937 7.57,34.692 7.94,29.614 L7.94,29.615 L7.94,29.615 Z" id="Fill-135" fill="#0A0A08"></path>
        <path d="M161.56,233.07 C162.36,235.36 164.44,236.14 165.96,234.7 C166.9,233.81 167.05,232.87 167.08,227.77 C167.09,224.63 167.09,223.3 167.09,223.3 C164.13,222.35 161.38,218.9 161.4,218.95 L161.33,228.46 C161.27,230 161.35,231.55 161.55,233.07 L161.56,233.07 L161.56,233.07 Z M162.46,215.75 C163.55,217.32 165.38,219.47 167.1,220.23 C167.21,218.42 167.05,216.91 166.42,216.09 C165.41,214.79 163.77,214.49 162.46,215.75 L162.46,215.75 Z M169.88,220.98 L172.08,220.98 L172.08,223.98 L169.88,223.98 C169.88,223.98 169.87,225.59 169.8,228.44 C169.67,234.52 169.51,235.46 167.76,237.13 C164.29,240.44 158.48,237.75 158.55,232.78 C158.65,225.76 158.58,219.08 158.78,218.13 C159.15,216.46 159.18,216.37 159.04,216.07 C158.73,215.45 156.11,215.19 156.11,215.36 L156.11,212.41 C158.11,212.25 158.94,212.44 160.55,213.59 C161.55,212.62 164.59,211.65 167.02,212.79 C168.86,213.66 170.26,215.9 169.88,220.98 L169.88,220.98 Z" id="Fill-136" fill="#0A0A08"></path>
        <path d="M136.4,60.595 L111.92,21.829 L117.8,21.297 C119.98,24.771 141.25,57.895 141.25,57.895 L136.4,60.595 L136.4,60.595 Z M61.85,86.704 C60.93,86.643 60.28,78.078 61.4,75.365 C63.78,63.926 71.04,55.594 75.56,48.586 C82.81,38.151 81.91,20.818 82.22,21.509 L83.24,21.629 C83.24,21.629 82.45,31.79 82.9,36.381 C83.37,40.418 83.26,40.669 82.98,41.068 C82.9,41.445 83.01,42.545 82.93,42.923 C79.7,57.869 72,73.237 64.05,84.839 L61.85,86.704 L61.85,86.704 Z M81.47,92.99 C81.47,92.99 80.59,91.88 80.43,91.04 C80.38,90.73 80.6,90.81 81.1,91.24 C82.71,92.63 84.92,90.14 83.42,88.62 C82.91,88.098 82.38,87.946 81.78,88.262 C81.03,88.656 81.09,88.465 81.47,88.058 C82.02,87.46 81.98,86.369 81.38,85.84 C79.75,84.375 77.16,86.558 78.68,88.123 C79.34,88.804 79.03,88.716 78.3,88.278 C76.92,87.45 75.39,89.719 76.43,91.05 C77.66,92.09 78.58,91.58 79.42,90.93 C79.61,90.83 79.77,90.78 79.77,90.86 C79.77,91.01 78.92,93.02 78.92,93.02 L81.47,92.99 L81.47,92.99 Z M79.16,109.17 C79.16,109.17 78.42,108.14 78.37,107.32 C78.28,106.79 78.42,106.76 78.69,107.3 C80.03,108.78 81.83,107.35 81.84,106.04 C81.99,104.84 80.6,103.81 79.7,104.41 C79.07,104.83 78.9,104.71 79.46,103.93 C80.25,102.83 79.39,101.4 77.98,101.41 C76.14,101.43 75.44,103.16 76.75,104.39 C77.73,105.29 76.82,104.76 76.05,104.43 C74.54,103.8 73.56,105.34 74.23,106.89 C74.7,107.96 76.07,108.24 76.87,107.37 C77.31,106.9 77.71,106.62 77.47,107.34 C77.35,107.92 76.68,109.15 76.68,109.15 L79.16,109.17 L79.16,109.17 Z M77.84,120.98 C78.55,120.79 75.34,110.6 73,106.05 C75.67,99.61 79.33,93.38 73.18,84.11 L88.14,84.068 C83.52,94.59 83.42,121.15 82.33,121.22 L77.84,120.98 L77.84,120.98 Z M129.94,90.96 C129.88,90.66 129.96,90.75 130.27,91.08 C131.25,92.1 132.94,91.94 133.37,90.58 C133.8,89.228 132.49,87.676 131.34,88.209 C130.75,88.486 130.74,88.388 131.08,87.943 C131.96,86.799 130.99,85.29 129.49,85.307 C128.11,85.322 127.3,86.65 127.97,87.791 C128.24,88.258 128.15,88.357 127.67,88.123 C126.27,87.438 124.96,89.672 125.99,91 C126.59,91.78 127.99,91.86 128.79,91.08 C129.22,90.67 129.22,90.87 128.91,91.72 C128.64,92.46 128.34,93.06 128.34,93.06 L130.77,93.08 C130.77,93.08 130.12,91.84 129.94,90.96 L129.94,90.96 Z M112.37,86.984 C112.37,87.577 113.46,88.283 113.21,88.446 C113.1,88.506 112.46,87.941 112.16,87.909 C110.01,87.68 109.56,91.04 111.69,91.42 C112.11,91.49 112.98,91.23 113.24,91.02 C113.58,90.74 113.82,90.5 113.89,90.53 C114.02,90.58 113.72,91.18 113.48,91.62 C113.27,92.03 112.96,92.89 112.96,92.89 L115.41,92.9 C115.41,92.9 115.19,92.15 114.97,91.62 C114.69,90.93 114.63,90.5 114.82,90.54 C114.9,90.56 114.99,90.78 115.16,90.92 C116.22,91.84 117.78,91.45 118.19,90.02 C118.57,88.68 116.97,87.298 115.86,88.049 C115.47,88.311 115.47,88.114 115.86,87.525 C116.21,86.988 116.12,86.174 115.8,85.689 C114.63,84.443 112.31,85.335 112.37,86.984 L112.37,86.984 Z M130.23,83.989 C133.15,86.682 136.06,88.655 138.98,90.38 L136.23,94.74 C117.58,93.01 104.03,100.41 98.37,120.47 L95.29,121.06 C96.45,108.55 100.63,96.14 112.98,84.009 L130.23,83.989 L130.23,83.989 Z M105.08,95.95 C105.16,96.2 106.04,97.15 106.04,97.24 C105.79,97.05 104.29,96.21 103.56,97.03 C103.31,97.33 102.98,98.04 103.02,98.79 C103.32,100.11 104.83,100.58 105.9,99.67 C106.21,99.41 106.47,99.09 106.54,99.21 C106.59,99.3 106.42,99.76 106.28,100.12 C106.13,100.49 105.54,101.27 105.96,101.27 L108.03,101.27 C108.03,101.27 107.96,100.78 107.71,100.24 C107.25,99.24 107.27,98.69 107.83,99.42 C108.91,100.83 111.02,99.65 110.8,97.96 C110.64,96.74 109.41,96.04 108.5,96.62 C108.4,96.68 108.11,96.97 108.07,96.97 C107.96,96.98 108.26,96.51 108.46,96.13 C109.13,94.84 108.13,93.65 106.61,93.78 C106.12,93.82 105.58,94.13 105.58,94.18 C105,94.64 104.91,95.44 105.08,95.95 L105.08,95.95 Z M25.26,120.01 L54.39,96.16 L55.72,98.17 L24.98,123.45 L25.26,120.01 L25.26,120.01 Z M120.54,130.15 C117.55,113.57 135.29,117.03 134.35,118.51 L120.54,130.15 L120.54,130.15 Z M43.16,131.59 C47.4,128.57 52.11,123.13 56.77,120.3 C60.16,128.14 52.19,135.83 43.16,131.59 L43.16,131.59 Z M152.64,126.42 L152.76,129.18 L123.32,153.81 L122.09,151.91 L152.64,126.42 L152.64,126.42 Z M48.62,163.91 C49.56,163.47 49.88,162.38 49.35,161.67 C48.82,160.96 48.56,160.51 49.5,161.15 C50.75,161.78 51.85,160.94 51.84,159.51 C51.82,158 50.14,157.3 48.91,158.21 C48.7,158.36 48.44,158.5 48.39,158.5 C48.24,158.5 48.52,157.69 48.82,157.16 C48.95,156.93 49.18,156.46 49.18,156.46 L46.9,156.37 C46.9,156.37 47.03,156.99 47.21,157.47 C47.57,158.45 47.66,158.77 47.02,158.22 C45.31,156.61 43.48,158.66 44.2,160.42 C44.58,161.42 45.75,161.42 46.44,160.92 C47.07,160.43 46.75,161.08 46.32,161.59 C45.15,163 46.87,164.74 48.62,163.91 L48.62,163.91 Z M62.99,164.37 C64.07,163.89 64.53,162.65 63.81,161.82 C63.16,161.07 63.09,160.83 64.09,161.42 C65.43,162.2 66.72,160.64 66.06,159.11 C65.66,158.16 64.37,157.87 63.44,158.51 C62.63,159.12 62.65,158.85 63.07,157.89 C63.28,157.41 63.44,156.65 63.44,156.65 L61.17,156.68 C61.17,156.68 61.33,157.23 61.5,157.6 C61.88,158.45 62.01,158.85 61.84,158.85 C61.75,158.85 61.47,158.59 61.31,158.44 C60.85,158.02 59.61,157.94 59.15,158.38 C57.79,159.69 58.56,161.97 60.29,161.55 C61.41,161.28 61.67,160.85 60.74,161.91 C59.6,163.21 61.37,165.08 62.99,164.37 L62.99,164.37 Z M79.71,129.7 L83.43,129.71 C80.63,144.67 74.88,157.19 65.22,165.82 L47.05,165.76 L38.29,159.61 L41.67,155.2 C64.75,157.59 74.58,146.1 79.71,129.7 L79.71,129.7 Z M69.64,152.54 C69.82,152.4 69.89,152.49 69.78,152.67 C69.68,152.82 69.44,153.04 69.24,153.27 C68.19,154.44 69.54,155.92 71.23,155.69 C72.38,155.54 73.05,153.72 72.2,153.01 C71.93,152.83 71.71,152.79 71.5,152.54 C71.49,152.44 71.53,152.37 71.63,152.41 C71.79,152.47 72.09,152.72 72.24,152.76 C73.31,153.05 74.12,152.61 74.39,151.85 C74.56,150.98 74.39,150.04 73.68,149.55 C73.02,149.11 72.04,149.23 71.47,149.99 C70.89,150.77 70.81,150.03 71.29,148.96 C71.46,148.56 71.59,147.98 71.59,147.98 L69.53,148.09 C69.53,148.09 69.64,148.54 69.82,149.05 C70.28,150.22 70.6,150.55 70.02,149.95 C67.5,148.46 66.67,150.49 66.63,151.29 C66.55,152.8 68.75,153.66 69.64,152.54 L69.64,152.54 Z M100.61,148.15 C101.23,147.59 101.31,146.58 100.74,145.91 C100.03,145.06 100.19,145.02 101.15,145.57 C102.52,146.37 103.84,144.64 103.03,143.12 C102.51,142.15 100.84,141.93 100.21,142.79 C99.67,143.51 99.73,142.86 100.14,141.9 C100.29,141.55 100.51,140.89 100.51,140.89 L98.27,140.94 C98.27,140.94 98.56,141.57 98.71,141.98 C99.12,143.07 99.14,143.41 98.51,142.71 C97.14,141.56 95.54,142.39 95.52,144.05 C95.54,145.32 96.68,146.14 97.69,145.55 C98.3,145.19 98.58,145.1 97.89,145.93 C97.41,146.72 97.58,147.73 98.21,148.2 C99.07,148.72 99.99,148.7 100.61,148.15 L100.61,148.15 Z M95.77,129.82 L100.39,129.69 L105.48,143.77 C101.41,150.55 100.31,158.2 105.05,165.95 L90.39,165.97 C93.83,154.29 94.36,141.9 95.77,129.82 L95.77,129.82 Z M92.67,160.16 C92.88,161.23 93.72,161.81 94.61,161.32 C95.48,160.84 95.58,160.81 95.04,161.65 C93.84,163.52 96.27,165.32 97.83,163.72 C98.38,163.15 98.47,162.23 97.97,161.76 C97.4,161.23 97.28,160.95 98.12,161.36 C100.22,162.21 101.38,159.16 99.34,158.13 C98.82,157.86 97.79,158.1 97.41,158.5 C96.94,158.99 96.88,158.82 97,158.44 C97.07,158.22 97.13,157.85 97.3,157.42 C97.44,157.08 97.54,156.62 97.54,156.62 L95.39,156.64 C95.39,156.64 95.56,157.14 95.74,157.55 C95.9,157.94 95.96,158.24 96.04,158.4 C96.33,158.99 95.99,158.77 95.41,158.33 C94.59,157.72 93.56,157.89 92.97,158.7 C92.76,159.17 92.57,159.67 92.67,160.16 L92.67,160.16 Z M61.57,229.25 L37.52,191.96 L42.74,189.41 L67.46,229.12 L61.57,229.25 L61.57,229.25 Z M95.17,229 C95.61,222.49 95.23,215.5 95.53,210.21 C95.33,209.83 96.05,208.81 96.09,208.81 C95.66,208.02 95.52,206 96.06,204.21 C100.3,187.98 107.99,175.35 115.9,163.57 C122.34,183.04 102.13,196.69 97.88,213.71 C96.46,219.6 96.67,223.71 96.13,229.03 L95.17,229 L95.17,229 Z" id="Fill-137" fill="#C0242A"></path>
        <path d="M117.33,20.996 C117.33,20.996 142.47,20.39 142.47,21.13 C141.67,34.69 144.82,47.06 152.42,58.5 C152.42,58.5 141.28,58.104 141.49,58.244 L117.33,20.996 L117.33,20.996 Z M74.53,67.309 C80.05,67.813 86.1,66.071 90.7,66.993 C91.22,67.065 91.79,67.843 92.11,68.016 C94.48,69.316 96.97,68.912 100.79,67.459 C101.74,67.101 119.26,67.237 119.26,67.237 C123.25,73.157 130.35,84.295 130.5,83.917 C130.5,83.917 120.79,83.807 116.31,84.072 C113.17,84.26 115.02,84.69 112.83,84.785 C97.52,96.33 94.6,121.29 94.6,121.29 C94.6,121.29 99.47,120 100.74,121.35 C106.76,103.67 118.19,95.59 134.13,97.18 C141.5,97.91 150.28,105.18 150.28,105.18 L134.52,118.06 C122.31,111.87 117.08,130.1 120.78,130.14 L152.53,104.1 C152.53,104.1 153.07,106.22 153.01,106.29 C150.75,109.27 112.91,140.11 112.91,140.11 L111.25,138.27 C111.25,138.27 110.21,139.2 109.66,139.82 C109.6,140.83 109.96,141.68 110.72,142.47 C103.22,148.51 102.98,159.6 108.5,165.64 C108.5,165.64 106.05,165.82 105.79,165.86 C102.68,166.4 99.46,150.98 105.63,143.81 C102.52,137.68 100.6,129.33 100.21,128.95 C100.29,129.93 95.29,129.6 95.29,129.6 C94.91,142.06 93.62,154.28 90.63,166.05 L113.6,166.55 L103.82,183.58 C103.82,183.58 92.85,183.31 88.13,182.98 C83.19,180.09 80.35,182.29 75.72,183.35 C69.13,183.55 59.42,183.24 59.42,183.33 C56.13,176.77 52.6,171.95 47.79,166.32 C47.18,165.3 67.3,165.93 67.3,165.93 C67.3,165.93 77.36,150.66 79.19,146.34 C80.62,142.98 83.82,130.72 83.82,130.72 C83.97,131.36 82,127.53 77.4,127.62 C73.6,153 43.56,161.55 25.48,145.22 L25.31,142.26 L65.15,109.83 L66.92,111.88 C66.54,111.57 42.46,131.69 42.86,131.56 C50,135.31 58.25,132.27 57.29,119.97 C62.95,115.86 67.95,111.08 72.87,106.21 C72.98,106.01 78.36,118.34 78.23,120.71 C81.33,119.66 83.16,121.85 83.1,121.48 C81.99,114.35 88.21,87.335 88.32,84.229 C84.87,83.949 80.29,84.077 73.12,83.791 C78.88,95 76.88,102.59 68.82,109.49 L67.13,107.36 C67.82,107.75 78.91,98.11 69.98,83.718 C69.57,83.752 65.27,83.328 65.27,83.328 C65.27,83.328 74.08,69.295 74.53,67.309 L74.53,67.309 Z M29.79,84.065 C31.7,84.527 34.71,86.456 36.15,87.515 C37.94,88.855 37.45,91.49 38.88,91.72 C39.85,91.24 41.63,86.931 41.63,86.931 C41.63,86.931 42.07,84.715 40.81,84.033 C37.67,82.335 37.73,80.502 37.93,80.339 C38.86,77.916 40.71,78.347 41.71,78.212 C41.73,76.886 41.69,74.086 44.42,74.374 C46.82,74.602 47.05,78.031 46.04,78.063 C46.03,78.006 50.57,77.409 50.52,80.417 C50.5,82.048 47.8,84.134 46.97,83.376 C46.97,83.376 47.42,86.627 43.35,87.741 C42.4,88.712 41.62,92.84 41.62,92.48 C44.07,90.25 47.92,89.732 53.98,90.53 C50.22,97.52 39.84,94.25 39.03,92.9 C33.8,91.31 28.9,89.254 29.79,84.065 L29.79,84.065 Z M30.9,113.09 C29.34,113.09 30.74,108.82 31.7,107.46 C32.02,107.04 33.26,107.94 33.33,108.56 C33.44,109.67 31.75,113.53 30.9,113.09 L30.9,113.09 Z M144.37,141.32 C144.07,141.01 144.61,138.88 145.34,137.66 C145.73,137 146.63,136.56 147.16,136.65 C148.1,136.82 147.96,138.19 146.71,142.22 C146.65,142.81 145.38,142.87 144.37,141.32 L144.37,141.32 Z M130.87,171.79 C125.17,170.98 127.42,166.23 131.08,165.74 C130.61,165.82 131.47,163.38 134.43,162.39 C135.1,161.17 135.63,159.08 136.24,158.11 C134.47,158.69 132.32,160.2 124.27,159.01 C124.97,155.18 132.67,154.53 135.45,155.12 C137.05,155.5 138.63,157.89 139.12,157.94 C144.06,157.12 150.34,161.6 148.44,166.16 C148.15,166.81 147.39,165.39 145.73,164.78 C140.36,162.83 139.98,159.91 138.74,158.6 C138.29,158.51 135.92,163.24 135.92,163.24 L136.66,166.44 C137.95,166.33 143.68,169.88 136.55,172.29 C134.57,179.11 130.86,174.3 130.87,171.79 L130.87,171.79 Z M35.58,229.94 C38.36,219.69 30.82,195.86 26.1,192.74 C31.63,192.51 38.28,192.61 38.07,192.09 C38.07,192.09 61.58,229.22 61.39,229.41 C61.21,229.6 35.58,229.94 35.58,229.94 L35.58,229.94 Z" id="Fill-138" fill="#DACA2C"></path>
        <path d="M75.86,228.87 C75.7,229.12 74.74,229.16 74.38,228.88 C74.26,228.79 74.15,227.27 74.28,227 C74.65,226.76 75.98,228.54 75.86,228.87 L75.86,228.87 Z M94.49,225.5 C94.5,225.49 94.51,225.49 94.52,225.5 C94.74,225.54 94.62,228.61 94.44,228.86 C94.09,229.04 93.42,229.06 93.06,228.86 C92.85,228.75 92.78,228.53 92.86,228.29 C93.07,227.7 94.14,225.57 94.49,225.5 L94.49,225.5 Z M73.75,223.92 C73.78,223.35 78.71,228.34 78.04,228.9 C77.39,229.01 77.01,229.04 76.74,228.81 C76.21,227.62 73.86,225.37 73.86,225.37 L73.75,223.92 L73.75,223.92 Z M94.77,221.81 C94.81,222.93 94.72,223.21 94.6,223.8 C94.52,224.21 94.25,224.4 94,224.71 C93.37,225.5 92.66,226.86 92.3,227.96 C92,228.84 92.14,229.05 91.05,228.93 C90.55,228.87 90.67,228.73 90.87,228.15 C91.55,226.22 93.19,223.11 94.77,221.81 L94.77,221.81 Z M69.47,221.76 C69.56,221.74 69.9,222.08 70.53,222.74 C72.38,224.68 73.55,226.84 73.28,227.94 C73.05,228.86 72.78,228.35 70.67,224.3 C69.78,222.59 69.35,221.79 69.47,221.76 L69.47,221.76 Z M73.57,221.14 C74.02,221.22 75.26,222.03 76.3,222.8 C78.14,224.15 80.94,228.3 80.36,228.89 C80.18,229.08 79.53,229.09 79.2,228.96 C77.23,225.44 74.68,223.76 73.64,222.78 C73.32,222.25 72.59,221 73.57,221.14 L73.57,221.14 Z M72.79,218.27 C74.23,218.23 79.38,222.09 81.46,225.47 C82.83,227.68 83.19,228.59 82.88,228.91 C82.71,229.08 81.98,229.11 81.6,228.96 C81.25,228.82 81.12,228.29 80.47,227.06 C78.77,223.85 76.32,221.52 73.66,220.3 C73.17,220.07 72.91,219.92 72.75,219.75 C72.57,219.38 72.34,218.34 72.79,218.27 L72.79,218.27 Z M94.74,218.19 C95.01,218.17 95.08,218.67 94.99,219.68 C94.91,220.51 94.86,220.49 93.95,221.45 C92.48,222.64 90.75,225.43 89.95,228.28 C89.96,228.38 89.88,228.59 89.74,228.71 C89.37,229.04 88.89,228.88 88.57,228.87 C88.33,228.75 88.4,228.23 88.44,227.94 C89.11,225.36 90.75,222.19 93.33,219.41 C94.06,218.63 94.5,218.21 94.74,218.19 L94.74,218.19 Z M72.22,215.83 C72.43,215.83 72.76,215.94 73.23,216.14 C75.97,217.32 76.99,217.75 78.76,219.2 C82.06,221.9 85.72,228.31 84.65,228.91 C84.17,229.18 83.84,229.01 83.65,228.42 C83.61,228.31 83.27,227.41 82.85,226.65 C80.64,222.56 77.76,219.76 73.71,217.77 C72.21,217.04 72.06,217.12 71.95,216.51 C71.86,216.05 71.94,215.84 72.22,215.83 L72.22,215.83 Z M94.78,217.11 C91.74,219.45 88.04,225.01 87.71,227.76 C87.64,228.28 87.7,228.67 87.51,228.86 C87.35,229.01 87.01,229.03 86.55,228.94 C86.26,228.89 86.33,228.85 86.26,228.53 C86,227.28 87.2,224.12 89.68,220.39 C90.98,218.44 93.94,215.8 94.76,215.78 C95.31,216.01 94.78,217.13 94.78,217.11 L94.78,217.11 Z M65.67,214.21 L65.7,214.21 C65.89,214.24 66.33,214.63 67.02,215.41 C70.63,219.52 72.63,221.89 72.26,223.08 C72.23,223.08 72.21,223.33 72.05,223.2 C70.07,221.48 68.45,219.6 67.24,217.63 C65.92,215.47 65.37,214.24 65.67,214.21 L65.67,214.21 Z M87.2,209.97 C87.39,209.96 87.75,210.18 88.19,210.43 C90.91,211.97 92.91,211.69 94.58,210.65 C94.88,210.38 95.05,210.51 95.09,210.78 C95.23,211.72 95.27,212.4 94.84,212.85 C94.6,213.11 94.17,213.23 93.53,213.45 C90.91,214.33 87.71,213.7 87.1,211.72 C86.9,210.7 86.77,210 87.2,209.97 L87.2,209.97 Z M72.26,208.97 C72.5,208.97 72.96,209.08 73.71,209.28 C76.95,210.26 77.93,210.23 79.79,209.37 C80.97,208.82 81.46,208.9 80.96,209.72 C80.02,211.23 76.72,211.4 74.25,210.56 C73.59,210.33 73.01,209.94 72.38,209.47 C72.04,209.11 71.96,208.96 72.26,208.97 L72.26,208.97 Z M62.2,207.98 C65.57,210.84 68.1,214.08 70.79,217.07 C71.33,217.74 71.58,218.38 71.48,218.82 C71.35,219.36 70.24,218.07 70.24,218.07 C70.27,218.08 63.67,211.01 63.67,211.01 C63.67,211.01 62,207.99 62.2,207.98 L62.2,207.98 Z M94.74,208.35 C95.75,208.32 95.07,210.04 93.67,210.45 C92.13,211.24 90.35,211.05 88.54,210.02 C87.51,209.43 87.2,208.81 88.1,209.05 C91.48,209.99 92.3,209.82 94.34,208.49 C94.46,208.39 94.59,208.36 94.74,208.35 L94.74,208.35 Z M80.61,206.61 C80.88,206.58 80.81,206.97 80.73,207.13 C80.56,207.33 80.49,207.4 80.39,207.14 C80.34,207.02 80.27,206.92 80.21,206.85 C80.08,206.67 80.09,206.67 80.26,206.64 C80.34,206.62 80.51,206.62 80.61,206.61 L80.61,206.61 Z M75.38,206.31 C75.78,206.31 75.66,206.28 75.48,206.51 C75.3,206.75 75.06,207.16 74.93,207.53 C74.87,207.78 74.83,207.88 74.59,207.88 C74.13,207.9 73.21,207.74 73.21,207.74 C72.86,207.41 74.32,206.34 75.38,206.31 L75.38,206.31 Z M88.88,206.07 C89.01,206.07 89.14,206.09 89.26,206.14 C88.92,206.66 88.86,207.09 88.79,207.56 C88.45,207.7 87.97,207.99 87.62,207.62 C86.95,207.01 87.97,206.05 88.88,206.07 L88.88,206.07 Z M80.47,207.92 L79.61,207.96 C77.96,205.79 76.73,207.25 75.99,208.15 L75.06,208.03 C75.21,205.64 79.41,204.81 80.47,207.92 L80.47,207.92 Z M93.61,205.77 C93.93,205.78 94.49,205.95 94.62,206.28 C94.77,206.59 94.61,206.93 94.16,206.92 C94.1,206.91 93.67,206.39 93.46,206.06 C93.3,205.87 93.37,205.76 93.61,205.77 L93.61,205.77 Z M93.78,207.27 L93.01,207.65 C91.84,205.89 90.77,205.87 89.87,207.93 L89.29,207.78 C88.87,207.31 90.83,202.83 93.78,207.27 L93.78,207.27 Z M59.1,202.05 C62.68,204.46 67.6,209.92 70.11,213.13 C70.69,213.88 70.72,214.72 70.49,215.17 C70.44,215.26 70,214.98 70,214.98 C67.09,211.55 63.8,208.42 60.56,205.25 C60.56,205.25 58.64,202.15 59.1,202.05 L59.1,202.05 Z M82.38,197.74 C82.33,197.74 82.28,197.74 82.23,197.75 C80.57,197.83 79.72,199.7 81.15,201.02 C81.68,201.52 82.54,201.81 82.53,201.54 C82.53,201.48 82.26,201.21 82.08,201.07 C80.89,200.15 81.01,198.72 82.36,198.71 C82.83,198.7 82.86,198.87 83.95,199.65 C85.22,200.57 86.72,200.57 86.71,199.65 C86.69,198.97 86.44,198.27 85.3,198.38 C85,198.41 84.6,198.45 84.25,198.36 C83.92,198.27 83.63,198.07 83.5,198.01 C83.1,197.83 82.72,197.75 82.38,197.74 L82.38,197.74 Z M56.07,196.4 C60.74,199.69 66.3,205.42 69.39,209.39 C69.91,210.08 69.49,210.29 69.75,211.12 C69.84,211.43 69.33,210.97 67.84,209.37 C65.99,207.38 62.95,204.38 60.95,202.64 C58.75,200.73 58.12,200.25 57.65,199.6 C57.28,199.06 55.78,196.47 56.07,196.4 L56.07,196.4 Z M25.41,193.44 C37.11,208.08 35.25,229.18 34.86,229.01 L25.41,229.05 L25.41,193.44 L25.41,193.44 Z M82.84,192.45 C81.96,192.88 80.79,192.79 79.64,192.39 C78.61,192.04 78.85,192.34 79.25,193.47 C79.42,193.99 79.54,194.71 79.54,194.82 C79.54,195.07 79.54,195.09 80.27,194.68 C80.9,194.33 81.04,194.2 82.39,194.52 C83.77,194.84 83.79,194.72 84.44,194.38 C85,194.09 85.12,193.91 85.5,194.07 C86.26,194.37 87.11,194.5 88.08,193.99 C88.82,193.6 89.06,193.86 89.41,194.04 C89.87,194.27 90.05,194.12 89.87,193.66 C89.8,193.47 89.66,192.67 89.66,192.42 C89.65,191.94 89.53,191.51 89.33,191.62 C88.59,191.99 87.99,192.39 87.29,192.37 C85.99,192.35 84.86,191.57 82.84,192.45 L82.84,192.45 Z M53.58,191.49 C58.28,194.38 64,200.15 67.43,204.27 C68,204.98 68.42,205.85 68.42,206.37 C68.43,207.11 68.27,206.7 65.15,203.53 C62.71,201.01 59.02,197.59 56.57,195.75 C55.1,194.68 54.84,194.54 54.15,193.26 C53.5,192.07 53.27,191.47 53.58,191.49 L53.58,191.49 Z M84.43,190.15 C83.15,190.17 81.81,190.55 82.11,191.02 C82.22,191.2 82.57,191.52 83.41,191.06 C84.62,190.46 87.1,191.25 87.17,191.27 C87.42,191.34 86.35,190.56 85.98,190.4 C85.58,190.22 85.01,190.15 84.43,190.15 L84.43,190.15 Z M81.06,188.15 C80.81,188.14 80.85,188.38 80.98,188.6 C82.37,189.83 86.03,189.77 87.29,188.78 C88.44,187.88 86.94,188.35 86.47,188.55 C85.38,189.03 84.2,188.97 82.68,188.57 C81.79,188.33 81.3,188.16 81.06,188.15 L81.06,188.15 Z M51.16,186.83 C51.98,186.84 60.72,193.99 61.97,195.68 C62.12,195.88 63,196.82 63.94,197.76 C66.2,200.03 67.13,201.35 67.14,202.29 C67.14,202.73 66.74,202.44 66.14,201.77 C61.61,196.72 58.66,193.98 53.07,190.11 C52.44,189.77 50.46,187.14 51.13,186.84 C51.14,186.84 51.15,186.83 51.16,186.83 L51.16,186.83 Z M60.68,185.38 L71.69,185.55 C68.92,186.95 63.89,191.96 63.89,191.96 C62.46,189.06 62.01,187.61 60.68,185.38 L60.68,185.38 Z M83.68,182.23 C87.6,182.34 89.14,185.33 91.55,190.83 C93.53,196.24 94.35,201.21 94.44,205.16 C94.45,205.42 93.97,205.2 93.75,205.14 C92.7,204.86 91.39,204.59 89.88,204.98 C88.76,205.26 87.7,205.23 88.85,204.48 C89.21,204.23 90.21,203.31 90.74,202.97 C91.82,202.3 91.17,202.31 90.1,202.84 C89.29,203.24 88.75,203.74 88.42,203.82 C88.21,203.87 88.34,203.19 88.54,202.71 C89.68,199.89 90.02,198.22 88.32,197.7 C87.86,197.55 87.24,197.13 86.95,196.84 C86.72,196.61 86.52,195.7 86.44,195.67 C86.37,195.63 86.31,196.5 86.31,196.63 C86.32,197.08 86.9,198 87.59,198.5 C88.77,199.35 89.01,199.59 88.37,201.6 C87.47,204.43 87.27,205.12 87.11,205.77 C87.01,206.15 86.83,206.79 86.74,207.21 C86.38,208.81 86.42,210.21 86.49,211.54 C86.88,214.51 90.07,215.98 94.35,214.32 C94.76,214.17 94.93,214.31 94.93,214.31 C91.52,217.79 87.69,220.02 85.45,227.06 C82.58,221.25 78.52,216.7 71.76,214.88 L71.66,213.67 C74.02,214.8 78.59,216.34 81.49,214.61 C83.04,213.54 82.57,212.86 80.68,213.59 C78.44,214.46 74.38,214.36 72.36,213.22 C71.95,212.98 71.53,213.19 71.41,213.23 C71.3,212.54 70.33,209.97 70.47,209 C70.39,208.87 71.09,208.86 71.22,209.04 C71.78,209.79 74.63,212.03 77.58,211.85 C79.05,211.77 80.26,211.32 81.54,209.97 C81.64,209.87 82.16,209.8 82.23,209.72 C82.35,209.59 82.26,209.4 82.26,209.33 C82.23,209.23 82.04,208.95 81.91,208.63 C81.75,208.35 81.71,208.06 81.74,207.84 C81.74,207.66 81.87,207.56 81.96,207.43 C82.07,207.18 82.04,206.86 81.98,206.69 C81.72,206.52 81.75,206.18 81.89,206.03 C82.29,205.58 78.45,202.06 77.7,202.06 C77.43,202.07 77.59,202.57 78.14,202.94 C80.09,204.24 81.51,205.94 81.19,206.16 C80.94,206.33 80.07,205.96 79.18,205.75 C77.39,205.33 75.25,205.06 72.92,206.74 C72.05,207.46 69.75,207.57 69.75,207.57 C69.72,206.31 64.43,192.26 64.42,192.87 C66.34,190.62 72.4,185.28 78.46,182.98 C80.33,182.37 82.33,182.05 83.68,182.23 L83.68,182.23 Z M48.52,182.12 C48.63,182.12 48.81,182.26 49.13,182.43 C54.63,185.48 62.6,193.14 64.11,194.99 C64.45,195.55 64.99,196.6 64.95,197.23 C64.88,197.74 64.68,197.31 62.46,195.11 C58.89,191.6 54.78,188.21 50.43,185.35 C49.59,184.77 49.75,184.7 49.14,183.64 C48.54,182.57 48.29,182.1 48.52,182.12 L48.52,182.12 Z M61.45,189.24 C62.06,189.86 63.03,192.05 62.81,192.32 C62.7,192.45 62.71,192.38 62.46,192.21 C61.06,190.81 53.9,184.43 47.92,180.85 C47.36,180.57 45.48,177.59 45.88,177.53 C49,178.56 57.94,185.72 61.45,189.24 L61.45,189.24 Z M43.84,173.59 C49.14,175.84 55.8,181.26 59.17,184.49 C60.01,185.32 60.61,186.53 60.72,187.09 C60.79,187.44 60.62,187.42 60.55,187.61 C56.19,182.58 46.61,176.85 45.34,176.4 C45.35,176.72 44.29,174.46 43.84,173.59 L43.84,173.59 Z M41.74,169.7 C42.16,169.45 53.46,176.14 55.11,177.87 C55.86,178.44 57.62,181.24 57.63,181.81 C57.63,182.31 57.08,181.87 56.07,180.94 C50.87,176.06 43.35,172.38 43.29,172.46 L41.74,169.7 L41.74,169.7 Z M39.02,165.97 C38.94,165.96 46.66,168.76 52.81,173.68 C53.63,174.33 54.63,176.77 54.63,176.77 C54.08,175.73 44.37,169.9 40.97,168.57 C40.96,168.56 39.02,165.97 39.02,165.97 L39.02,165.97 Z M35.27,162.36 C36.68,162.25 44.39,165.44 47.84,167.82 C48.8,168.81 50.2,170.54 50.2,170.71 C50.21,171.17 49.53,170.6 46.19,168.7 C43.67,167.27 41.06,166.14 38.51,165.04 C38.39,164.99 38.16,164.89 38.16,164.89 C38.16,164.89 37.97,164.68 37.65,164.42 C36.74,163.72 34.98,162.47 35.27,162.36 L35.27,162.36 Z M51.42,189.77 C57.33,200.06 62.84,211.67 72.08,228.85 L71.19,229.13 L35.96,229.19 C37.7,210.21 27.49,192.12 26.79,192.83 C34.77,192.98 41.4,191.43 42.8,188.48 L41.66,188.15 C37.02,192.17 30.05,192.36 25.41,191.12 C25.51,181.22 25.1,170.78 25.41,160.89 C30.9,160.48 35.28,162.5 38.32,166.52 C43.43,173.29 46.9,181.89 51.42,189.77 L51.42,189.77 Z M44.85,165.33 C42.34,164.13 36.11,161.35 33.11,161.31 C27.55,159.74 27.36,160.45 25.41,159.95 C35.73,157.26 42.65,162.43 45.26,164.94 C46.44,166.13 45.79,165.79 44.85,165.33 L44.85,165.33 Z M137.94,154.41 C137.63,154.4 137.43,154.59 137.51,155.11 C137.8,155.25 138.25,155.11 138.58,155.24 C139.04,155.4 139.32,156.15 139.81,156.03 C139.86,155.4 138.63,154.42 137.94,154.41 L137.94,154.41 Z M142.5,151.88 L142.58,151.88 C143.03,151.91 143.26,152.34 143.77,153.37 C144.55,154.93 144.32,155.79 142.98,156.48 C142.07,156.95 141.37,157.09 141.25,156.55 C141.22,156.4 141.22,155.95 141.14,155.51 C141.04,154.92 140.91,154.31 140.39,153.53 C139.57,152.29 139.43,151.85 140.33,152.21 C140.81,152.41 141.33,152.39 141.87,152.1 C142.11,151.97 142.32,151.9 142.5,151.89 L142.5,151.88 L142.5,151.88 Z M139.97,149.77 C140.47,149.75 141.12,150.02 141.6,150.59 C142.15,151.16 142.09,151.69 141.01,151.8 C140.53,151.99 139.21,151.12 139.21,150.54 C139.2,150.05 139.53,149.8 139.97,149.77 L139.97,149.77 Z M143.84,148.35 C144.38,148.32 144.83,148.88 145.49,149.95 C146.61,151.77 146.67,152.38 145.71,153.58 C145.02,154.44 144.95,154.49 144.28,153.11 C143.73,151.99 142.68,150.67 141.71,149.88 C141.31,149.55 141.16,149.09 141.46,149.06 C141.54,149.05 141.9,149.03 142.25,149.02 C142.77,149 142.96,148.93 143.24,148.65 C143.43,148.47 143.63,148.37 143.84,148.35 L143.84,148.35 Z M142.23,146.93 C143.18,147.42 143.27,148.07 142.71,148.52 C142.05,148.89 140.88,148.46 140.65,147.8 C140.32,146.83 141.33,146.34 142.23,146.93 L142.23,146.93 Z M144.72,145.8 C145.14,145.76 145.76,146.34 146.45,147.3 C147.22,148.37 147.28,148.72 147.06,149.38 C146.74,150.33 146.54,150.51 145.85,149.58 C145.59,149.22 144.99,148.4 144.56,147.95 C143.64,146.98 143.49,147.22 144.04,146.48 C144.3,146.14 144.47,145.82 144.72,145.8 L144.72,145.8 Z M142.82,144.58 C143.88,144.74 144.16,145.55 143.67,146.15 C143.01,146.96 141.52,146.22 141.87,145.26 C142.03,144.82 142.42,144.59 142.82,144.58 L142.82,144.58 Z M119.2,143.82 C119.79,143.82 120.28,144.3 120.28,144.89 C120.28,145.49 119.79,145.97 119.2,145.97 C118.61,145.97 118.13,145.49 118.12,144.89 C118.12,144.3 118.61,143.82 119.2,143.82 L119.2,143.82 Z M122.53,143.4 C123.13,143.4 123.61,143.88 123.61,144.48 C123.61,145.08 123.13,145.56 122.53,145.56 C121.94,145.56 121.46,145.08 121.46,144.48 C121.46,143.88 121.94,143.4 122.53,143.4 L122.53,143.4 Z M145.35,142.98 C146.31,143 147.37,145.28 147.18,145.95 C146.89,146.73 146.63,146.76 145.28,145.61 C143.94,144.48 143.92,144.43 144.46,143.81 C144.76,143.46 144.91,143 145.35,142.98 L145.35,142.98 Z M144.11,142.29 C145.04,143.02 144.11,144.04 143.22,143.64 C142.44,143.31 142.5,142.52 143.11,142.2 C143.49,142.02 143.78,142.07 144.11,142.29 L144.11,142.29 Z M119.88,140.61 C120.47,140.61 120.95,141.09 120.95,141.69 C120.95,142.29 120.47,142.77 119.88,142.77 C119.28,142.77 118.8,142.29 118.8,141.69 C118.8,141.09 119.28,140.61 119.88,140.61 L119.88,140.61 Z M121.29,155.14 L109.75,140.19 L111.14,139.06 L122.77,153.85 L121.29,155.14 L121.29,155.14 Z M125.96,137.37 L127.9,137.27 C127.66,137.97 127.53,138.7 127.39,139.42 L128.97,140.59 L122.12,141.76 L125.08,135.67 L125.96,137.37 L125.96,137.37 Z M129.8,134.91 C130.4,134.91 130.88,135.39 130.88,135.99 C130.88,136.58 130.4,137.07 129.8,137.07 C129.21,137.07 128.73,136.58 128.73,135.99 C128.73,135.39 129.21,134.91 129.8,134.91 L129.8,134.91 Z M133.28,134.45 C133.88,134.45 134.36,134.93 134.36,135.53 C134.36,136.12 133.88,136.61 133.28,136.61 C132.69,136.61 132.21,136.12 132.21,135.53 C132.21,134.93 132.69,134.45 133.28,134.45 L133.28,134.45 Z M130.94,131.49 C131.53,131.49 132.01,131.97 132.01,132.57 C132.01,133.16 131.53,133.64 130.94,133.64 C130.34,133.64 129.86,133.16 129.86,132.57 C129.86,131.97 130.34,131.49 130.94,131.49 L130.94,131.49 Z M26.66,131.24 C27.25,131.24 27.73,131.72 27.73,132.32 C27.73,132.92 27.25,133.4 26.66,133.4 C26.06,133.4 25.58,132.92 25.58,132.32 C25.58,131.72 26.06,131.24 26.66,131.24 L26.66,131.24 Z M123.52,159.3 C123.34,160 123.33,159.99 124.17,159.91 C124.6,159.87 126.31,159.87 127.5,159.92 C129.69,160.09 133.14,160.1 134.87,158.78 C135.21,158.46 135.39,158.48 135.45,158.66 C135.6,159.51 133.92,162.32 133.92,162.32 L131.15,163.86 C131.15,163.86 130.01,163.92 128.6,163.88 L128.58,166.39 C127.48,167.04 125.58,169.85 128.63,172 L128.52,174.73 L131.2,174.78 C132.98,176.49 134.43,176.48 136.06,174.87 L139.15,174.87 L139.14,171.92 C140.67,170.69 140.88,168.61 139.33,166.94 L139.29,163.95 L136.91,163.96 C136.91,163.96 136.42,163.58 136.4,163.28 C136.4,163.08 138.14,159.72 138.47,159.24 C138.9,158.62 138.79,158.97 139.48,160.41 C140.47,162.47 141.45,163.32 143.95,164.53 C146.19,165.62 146.99,166.13 147.64,166.75 C148.16,167.24 148.46,167.09 148.66,166.35 C149.09,164.7 148.96,163.06 148.06,161.55 C146.16,158.38 142.84,158.23 142.31,157.5 C142.24,157.32 142.92,157.12 143.64,156.79 C144.9,156.03 146.74,153.71 146.97,152.78 C146.93,152.33 147.22,150.92 147.44,150.61 C147.69,150.06 147.72,149.8 147.71,148.31 C147.48,147.46 147.69,146.35 147.79,145.97 C147.91,145.2 147.5,144.29 146.92,143.17 C146.7,142.13 146.75,142.4 147.42,140.06 C147.53,139.68 148.28,136.43 147.32,136.2 C147.33,136.23 147.42,136.33 147.45,136.39 C147.76,137.45 147.55,138.46 147.31,139.43 C146.55,142.04 146.54,142.35 145.85,142.13 C145.67,142.07 144.45,141.13 144.45,141.13 C144.45,141.13 144.44,139.9 144.7,138.69 C144.54,139.1 144.44,140.16 143.96,140.41 C143.71,140.47 143.35,140.24 142.69,139.67 C142.43,139.45 141.89,139.06 141.89,139.06 C141.89,139.06 149.64,132.39 152.57,130.18 L152.57,228.96 L96.91,228.98 C96.21,222.86 98.04,214.77 101.07,206.66 C102.95,201.65 105.64,197.93 108.68,193.45 C114.5,184.89 118.91,176.21 117.21,165.2 C116.99,163.57 116.77,162.78 116.84,162.34 C117.55,161.01 120.36,156.97 122.41,155.29 C125.42,152.81 129.61,149.12 129.95,149.34 C130.95,151.28 132.13,152.85 133.7,154.03 C133.98,154.33 133.98,154.6 133.35,154.73 C129.19,154.69 124.91,155.61 123.52,159.3 L123.52,159.3 Z M134.36,154.89 C135.53,155.36 138.58,157.58 138.58,157.58 L135.8,163.38 C136.31,164.29 136.51,166.55 136.51,166.55 C140.02,166.28 141.93,172.22 136.46,171.68 C137.08,175.35 131.18,178.23 131.34,171.64 C125.2,172.12 127.27,165.14 131.05,166.45 C130.94,163.49 132.9,163.11 134.29,162.38 C135.43,161.09 136.12,158.17 136.12,158.17 L135.85,157.27 C134.68,159.32 129.72,159.9 124.27,158.82 C125.75,155.31 130.22,155.41 134.36,154.89 L134.36,154.89 Z M130.21,148.75 L141.13,139.83 C141.13,139.83 142.81,140.69 143.13,141.09 C143.24,141.52 142.94,141.65 142.49,142.05 C142.29,142.32 142.16,142.57 142.15,143.14 C142.13,143.75 142.34,144.03 142.09,144.3 C141.68,144.28 141.35,144.82 141.37,145.25 C141.38,145.58 140.95,145.96 140.69,146.21 C140.24,146.65 140.11,146.74 139.82,148.25 C139.79,148.41 139.8,148.8 139.59,149 C138.95,149.06 138.5,150.61 138.21,150.71 C137.75,150.68 137.02,150.12 136.84,149.28 C136.72,148.74 136.75,147.68 136.88,147 C137.03,146.19 137.1,145.46 137.05,145.27 C136.93,144.82 136.64,145.09 136.64,145.73 C136.64,145.98 136.54,146.75 136.38,147.48 C136.22,148.2 135.78,149.17 135.98,149.74 C136.27,150.6 137.36,150.96 137.85,151.41 C139.15,152.6 139.43,153.18 139.57,153.45 C140.61,155.34 140.61,155.67 140.35,157.09 C140.2,157.92 139.41,157.78 138.93,157.44 C138.93,157.44 135.86,155.2 134.52,154.08 C132.49,152.4 131.07,150.67 130.21,148.75 L130.21,148.75 Z M147.27,161.17 C148.69,163.3 148.6,165.61 148,165.97 C147.38,165.62 146.84,165 146.2,164.73 C142.95,163.32 140.36,162.17 139.89,160.1 C138.13,155.42 146.1,159.41 147.27,161.17 L147.27,161.17 Z M136.87,128.49 L138.76,128.13 L138.43,130.07 L139.75,131.47 L132.79,133.01 L136.16,126.74 L136.87,128.49 L136.87,128.49 Z M34.15,125.84 L31.19,132.55 L29.91,130.74 L28.04,130.61 L28.49,128.8 L26.77,127.63 L34.15,125.84 L34.15,125.84 Z M152.75,126.29 L152.66,129.34 C143.06,137.56 123.42,153.88 123.49,153.89 L122,151.83 C122,151.83 143.53,133.22 152.75,126.29 L152.75,126.29 Z M140.73,125.91 C141.32,125.91 141.8,126.39 141.8,126.98 C141.8,127.58 141.32,128.07 140.73,128.07 C140.14,128.07 139.65,127.58 139.65,126.98 C139.65,126.39 140.14,125.91 140.73,125.91 L140.73,125.91 Z M143.77,125.71 C144.37,125.71 144.85,126.19 144.85,126.79 C144.85,127.39 144.37,127.87 143.77,127.87 C143.18,127.87 142.7,127.39 142.7,126.79 C142.7,126.19 143.18,125.71 143.77,125.71 L143.77,125.71 Z M36.13,125.45 C36.72,125.45 37.2,125.93 37.2,126.53 C37.2,127.13 36.72,127.61 36.13,127.61 C35.53,127.61 35.05,127.13 35.05,126.53 C35.05,125.93 35.53,125.45 36.13,125.45 L36.13,125.45 Z M152.57,123.11 L152.57,125.51 L121.75,151.24 L120.46,149.57 L152.57,123.11 L152.57,123.11 Z M141.57,122.95 C142.17,122.95 142.65,123.43 142.65,124.03 C142.65,124.62 142.17,125.11 141.57,125.11 C140.98,125.11 140.5,124.62 140.5,124.03 C140.5,123.43 140.98,122.95 141.57,122.95 L141.57,122.95 Z M33.97,122.3 C34.57,122.3 35.05,122.79 35.05,123.38 C35.05,123.98 34.57,124.46 33.97,124.46 C33.38,124.46 32.9,123.98 32.9,123.38 C32.9,122.79 33.38,122.3 33.97,122.3 L33.97,122.3 Z M37.07,122.18 C37.66,122.18 38.15,122.67 38.15,123.26 C38.15,123.86 37.66,124.34 37.07,124.34 C36.47,124.34 35.99,123.86 35.99,123.26 C35.99,122.67 36.47,122.18 37.07,122.18 L37.07,122.18 Z M146.81,117.62 L147.8,119.28 L149.88,119.33 L149.09,120.91 L150.59,122.47 L143.82,124.14 L146.81,117.62 L146.81,117.62 Z M44.63,116.95 L41.46,123.24 L40.67,121.35 L38.54,121.38 L39.23,119.18 L37.9,118.05 L44.63,116.95 L44.63,116.95 Z M151.07,116.7 C151.66,116.7 152.14,117.18 152.14,117.77 C152.14,118.37 151.66,118.85 151.07,118.85 C150.47,118.85 149.99,118.37 149.99,117.77 C149.99,117.18 150.47,116.7 151.07,116.7 L151.07,116.7 Z M46.85,116.42 C47.44,116.42 47.93,116.9 47.93,117.5 C47.93,118.1 47.44,118.58 46.85,118.58 C46.26,118.58 45.77,118.1 45.77,117.5 C45.77,116.9 46.26,116.42 46.85,116.42 L46.85,116.42 Z M62.1,115.48 L57.14,119.46 C58.42,129.9 53.37,135.21 42.5,131.63 L37.24,135.82 C51.44,145.62 70.03,132.98 62.1,115.48 L62.1,115.48 Z M44.72,113.29 C45.32,113.29 45.76,113.74 45.76,114.33 C45.76,114.93 45.32,115.45 44.72,115.45 C44.13,115.45 43.65,114.96 43.65,114.37 C43.65,113.77 44.13,113.29 44.72,113.29 L44.72,113.29 Z M47.99,113.02 C48.58,113.02 49.06,113.51 49.06,114.1 C49.06,114.7 48.58,115.18 47.99,115.18 C47.39,115.18 46.91,114.7 46.91,114.1 C46.91,113.51 47.39,113.02 47.99,113.02 L47.99,113.02 Z M115.59,134.32 L120.59,130.3 C118.44,119.4 127.02,115.07 135.18,118.23 L140.25,113.89 C130.84,105.93 108.7,111.33 115.59,134.32 L115.59,134.32 Z M55.83,108 L53.02,114.33 L52.18,112.69 L50.08,112.69 L50.72,110.8 L49.49,109.29 L55.83,108 L55.83,108 Z M152.44,107.76 L152.44,110.49 L114.49,142.21 L113.21,140.52 L152.44,107.76 L152.44,107.76 Z M58.01,107.7 C58.61,107.7 59.09,108.18 59.09,108.78 C59.09,109.38 58.61,109.86 58.01,109.86 C57.42,109.86 56.93,109.38 56.93,108.78 C56.93,108.18 57.42,107.7 58.01,107.7 L58.01,107.7 Z M34.08,106.12 L34.28,106.12 C35.27,106.17 35.32,107.11 34.74,107.62 C34.39,107.92 34.07,108.02 33.62,107.65 C32.8,107 33.1,106.17 34.08,106.12 L34.08,106.12 Z M55.62,104.68 C56.21,104.68 56.69,105.16 56.69,105.76 C56.69,106.35 56.21,106.84 55.62,106.84 C55.02,106.84 54.54,106.35 54.54,105.76 C54.54,105.16 55.02,104.68 55.62,104.68 L55.62,104.68 Z M58.83,104.23 C59.43,104.23 59.91,104.71 59.91,105.31 C59.91,105.91 59.43,106.39 58.83,106.39 C58.24,106.39 57.76,105.91 57.76,105.31 C57.76,104.71 58.24,104.23 58.83,104.23 L58.83,104.23 Z M34.88,103.34 C35.91,103.38 36.39,104.58 35.58,105.17 C35.13,105.49 34.01,104.93 33.9,104.34 C33.83,103.96 34.49,103.32 34.88,103.34 L34.88,103.34 Z M30.96,103.21 C31.13,103.2 31.44,103.45 31.96,103.99 C32.36,104.4 33.05,104.75 33.33,104.9 C33.96,105.25 33.98,105.37 33.65,105.65 C33.5,105.77 33.03,105.78 32.9,106.16 C32.53,107.24 30.97,105.98 30.82,104.44 C30.75,103.65 30.74,103.22 30.96,103.21 L30.96,103.21 Z M36.23,101.14 C37.05,101.11 37.64,102.07 37.1,102.84 C36.79,103.14 36.52,103.28 35.92,102.92 C35.13,102.46 34.99,101.74 35.64,101.33 C35.84,101.21 36.04,101.15 36.23,101.14 L36.23,101.14 Z M31.16,99.06 C31.24,99.04 31.38,99.34 31.74,99.88 C32.46,100.97 33.13,101.69 33.89,102.27 C34.6,102.81 34.68,103.11 34.19,103.12 C33.98,103.12 33.69,103.34 33.54,103.6 C33.24,104.13 33.21,104 32.74,103.73 C32.07,103.33 31.4,102.74 31.13,101.96 C30.88,101.22 30.85,100.1 31.05,99.29 C31.09,99.14 31.12,99.07 31.16,99.06 L31.16,99.06 Z M56.07,98.76 L57.48,100.6 L25.41,126.67 L25.41,123.67 C26.19,123.77 46.75,105.8 56.07,98.76 L56.07,98.76 Z M36.84,98.4 C37.06,98.39 37.35,98.47 37.68,98.68 C38.32,98.94 38.37,99.09 38.26,99.7 C38.16,100.29 37.71,100.44 36.84,99.67 C36.18,99.04 36.29,98.43 36.84,98.4 L36.84,98.4 Z M32.64,96.28 C32.88,96.29 33.15,96.59 33.53,97.17 C33.86,97.68 34.57,98.7 35.32,99.39 C36.79,100.75 36.93,100.63 35.74,100.76 C35.27,100.81 35.11,100.75 34.83,101.48 C33.95,102.57 31.37,98.65 31.97,97.15 C32.21,96.56 32.41,96.28 32.64,96.28 L32.64,96.28 Z M54.38,95.89 L55.67,98.07 C55.67,98.07 51.94,101.27 50.96,102.18 C43.03,108.62 25.13,123.26 25.13,123.26 L24.89,120.31 L54.38,95.89 L54.38,95.89 Z M56.39,94.98 L68.44,109.78 L67.08,110.83 L54.99,96.24 L56.39,94.98 L56.39,94.98 Z M35.3,93.65 C36.41,93.64 36.62,93.94 36.64,94.9 C36.64,95.46 36.85,95.9 37.73,97.02 C38.09,97.48 38.33,97.83 38.31,98.01 C38.27,98.31 38.17,98 36.95,97.86 C36.51,97.8 36.29,97.8 36.14,98.02 C35.72,98.65 34.83,98 34.28,97.08 C32.98,94.88 33.44,93.67 35.3,93.65 L35.3,93.65 Z M38.2,92.99 C38.58,92.99 39.18,93.22 39.81,93.71 C40.48,94.22 42.13,95.31 42.82,95.6 C43.17,95.75 43.27,95.79 43.27,95.79 L47.67,100.8 L36.35,110.05 C36.35,110.05 35.43,109.1 35.13,108.79 C34.86,108.49 34.94,108.24 35.28,107.9 C35.56,107.63 35.58,107.04 35.53,106.75 C35.46,106.32 35.48,105.84 36.02,105.44 C36.45,105.12 36.52,104.55 36.5,104.4 C36.48,104.27 36.74,103.86 37.12,103.58 C37.91,103 38.15,102.29 37.88,101.46 C37.77,101.11 37.71,101.02 38.16,100.71 C38.97,100.17 39.17,99.66 39.23,98.87 C39.24,98.74 39.21,98.61 39.19,98.51 C39.03,97.67 39.77,97.88 40.38,98.94 C40.71,99.51 40.81,100.46 40.97,101.53 C41.17,102.8 41.3,103.14 41.37,102.96 C41.76,101.94 41.3,98.1 40.14,97.58 C38.44,96.82 37.01,95.27 37.44,94.66 C37.59,94.45 37.61,94.52 38.65,95 C39.26,95.28 39.82,95.51 39.9,95.51 C41.1,95.55 40.38,95.03 39.99,94.98 C39.52,94.91 38.11,94.06 37.95,93.75 C37.67,93.25 37.82,93 38.2,92.99 L38.2,92.99 Z M127.39,78.917 C131.87,81.44 135.67,83.888 139.75,85.204 C140.33,85.423 140.63,85.438 140.92,85.644 C141.21,85.849 142.45,86.62 142.74,86.793 C144.6,87.888 144.79,87.836 144.33,88.02 C143.82,88.223 140.55,87.266 137.79,86.241 C132.9,84.424 131.17,83.394 129.4,81.791 C129,81.376 127.14,79.144 127.39,78.917 L127.39,78.917 Z M124.15,73.962 C125.31,74.854 135.09,80.996 136.89,81.135 C136.89,81.135 137.76,82.108 138.47,82.995 C139.14,83.82 139.38,83.95 139.46,84.117 C139.53,84.282 139.21,84.274 139.15,84.269 C134.75,82.348 130.28,80.327 126.47,77.135 C125.96,76.697 125.84,76.498 125.59,76.164 C125.25,75.719 124.26,74.128 124.15,73.962 L124.15,73.962 Z M42.35,94.37 C42.35,94.37 37.79,92.19 37.45,92.12 C35.46,91.76 30.66,89.25 29.84,87.542 C29.74,87.319 29.47,84.203 29.39,83.565 C29.42,83.362 29.5,83.369 29.7,83.515 C30.21,83.87 32.2,85.172 32.93,85.53 C35.97,87.011 37.14,88.064 37.88,90.29 C38.07,90.85 38.27,91.43 38.38,91.55 C38.62,91.81 38.72,91.79 39.03,91.56 C40.33,89.868 40.93,88.462 41.54,86.648 C41.61,86.447 41.78,86.24 41.68,85.947 C41.45,85.147 40.86,84.11 41.46,83.327 C39.56,83.415 37.74,82.021 37.97,80.623 C38.48,78.034 39.57,78.501 41.62,78.124 C41.38,72.138 46.97,73.592 46.95,77.761 C53.08,78.279 50.19,83.972 46.62,83.101 C48.04,86.335 43.79,87.549 43.2,86.998 C42.96,88.044 41.34,91.41 41,92.41 C45.54,89.177 52.85,90.61 53.91,90.4 C51.27,95.95 42.64,94.6 42.35,94.37 L42.35,94.37 Z M41.92,91.57 C42.52,90.27 43.14,88.834 43.54,87.659 C45.33,87.678 46.21,87.003 46.85,86.189 C47.76,86.165 48.46,86.168 49.69,86.133 C49.65,84.903 49.71,83.163 49.71,83.163 C50.96,81.865 51.82,80.367 49.87,78.073 C49.87,78.073 49.79,77.005 49.76,75.182 C48.87,75.038 46.86,75.131 46.86,75.131 C45.23,72.834 42.35,73.413 41.47,75.13 C41.47,75.13 40.18,75.201 39.29,75.205 C39.27,75.69 39.12,77.844 39.12,77.844 C39.12,77.844 35.33,80.438 39.26,83.497 L39.2,86.066 C39.94,86.126 40.47,86.076 41.43,86.261 C41.43,86.261 39.92,89.768 38.93,91.43 C38.6,91.52 38.68,91.33 38.27,90.16 C37.78,88.792 36.66,87.293 35.72,86.556 C34.44,85.564 32.69,85.257 31.47,84.396 C30.29,83.566 29.46,82.496 29.09,82.695 C28.96,83.112 28.83,85.507 29.27,87.045 C29.9,89.576 33.52,91.19 36.55,92.4 C36.78,92.55 36.99,92.78 36.99,92.86 C37,93.28 36.59,93.15 35.6,93.05 C34.1,92.9 33.48,93.31 32.95,94.6 C32.79,94.92 32.42,95.47 32.11,95.83 C31.81,96.19 31.49,96.54 31.45,96.7 C31.4,96.85 31.09,97.63 30.78,98.29 C30.59,98.69 30.28,99.11 30.25,99.71 C30.18,101.52 30.16,103.96 30.43,105.49 C30.63,106.62 32.05,107.27 32.54,107.36 C33.29,107.5 33.42,108.26 33.31,108.89 C32.73,111.97 30.96,113.86 30.39,112.85 C30.24,112.58 30.09,111.32 30.04,111.33 C30.02,111.35 29.75,112.41 29.85,112.84 C29.96,113.3 30.55,113.64 31.14,113.43 C32,113.12 32.68,112.26 33.22,110.3 C33.44,109.5 33.64,109.06 34.02,109 C34.7,109.04 35.77,110.46 35.77,110.46 C32.22,113.42 25.41,118.81 25.41,118.81 L25.41,21.635 L81.33,21.635 C81.65,29.341 80.72,35.906 77.96,42.771 C74.69,50.166 69.62,55.662 65.75,62.469 C61.06,70.686 59.56,79.21 61.16,87.783 C56.37,94.07 52.34,97.09 48.52,100.01 C48.52,100.01 45.65,96.98 44.05,95.29 C44.05,95.29 44.73,95.23 45.51,95.2 C49.15,94.79 53.08,94.27 54.6,90.47 C54.82,90.05 54.73,89.864 54.47,89.806 C51.62,90.2 49.15,89.8 47.54,89.915 C43.59,90.19 41.92,91.57 41.92,91.57 L41.92,91.57 Z M120.8,68.182 C120.8,68.182 127.39,73.778 134.9,77.577 C135.21,77.871 135.96,79.672 136.21,79.864 C136.46,80.06 135.91,80.059 135.37,79.779 C131.44,77.961 123,72.141 123,72.141 C122.2,70.81 121.04,69.425 120.8,68.182 L120.8,68.182 Z M118.33,63.015 C121.91,66.332 125.37,69.383 133.07,73.822 C133.62,75.037 134.43,76.491 134.57,76.617 C127.35,73.099 119.48,66.155 119.48,66.155 C119.48,66.155 118.24,63.94 117.96,62.992 C117.93,62.672 118.23,62.935 118.33,63.015 L118.33,63.015 Z M94.2,60.37 C92.29,60.397 90.5,61.063 90.37,61.839 C90.34,61.988 90.5,62.157 90.79,61.979 C92.08,61.199 95.28,60.945 97.7,61.823 C98.09,61.965 98.16,61.721 97.75,61.384 C96.85,60.634 95.5,60.353 94.2,60.37 L94.2,60.37 Z M96.06,58.46 C94.25,59.185 93.97,59.335 92.17,58.895 C91.12,58.639 91.41,59.249 91.95,59.502 C93.3,60.141 95.27,59.689 96,59.185 C96.48,58.873 96.81,58.16 96.06,58.46 L96.06,58.46 Z M114.39,58.32 L117.67,64.51 L106.62,64.486 C109.43,62.806 112.11,60.563 114.39,58.32 L114.39,58.32 Z M115.64,57.232 C118.6,60.083 122.25,64.433 130.84,69.473 C131.28,70.26 131.89,71.306 132.27,72.121 C132.31,72.348 132.25,72.549 132.03,72.471 C126.73,69.094 123.78,67.454 116.42,60.177 C115.96,59.438 115.48,58.183 115.1,57.159 C115.18,56.87 115.52,57.159 115.64,57.232 L115.64,57.232 Z M98.96,54.872 C98.76,54.899 98.5,55.202 98.17,55.385 C97.49,55.757 97.28,55.856 95.62,55.357 C94.72,55.086 94.58,55.105 94.04,55.505 C93.57,55.854 93.31,55.911 92.79,55.676 C91.84,55.252 91.41,55.56 90.53,55.866 C89.7,56.168 89.42,55.8 88.67,55.629 C88.57,55.63 88.53,58.658 88.63,58.755 C88.66,58.789 89.4,58.299 89.83,58.083 C90.55,57.713 90.45,57.771 91.5,57.815 C93.07,58.086 94.61,57.994 95.66,57.582 C96.96,57.213 97.98,57.281 98.88,58.021 C99.42,58.471 100.15,58.396 99.72,57.57 C99.58,57.285 99.25,56.233 99.29,55.843 C99.35,55.258 99.22,54.884 99,54.872 C98.99,54.871 98.98,54.87 98.96,54.872 L98.96,54.872 Z M113.57,52.324 C113.42,52.188 119.85,59.264 128.62,65.108 C128.96,65.503 129.8,67.544 129.94,67.818 C129.9,68.011 129.71,67.822 129.71,67.822 C125.28,65.252 119.44,60.155 113.9,54.371 C113.9,54.371 113.37,53.089 113.2,52.254 C113.32,52.199 113.45,52.271 113.57,52.324 L113.57,52.324 Z M96.14,48.813 C98.34,49.881 97.39,52.07 95.07,50.678 C93.24,49.561 91.79,49.459 91.8,50.426 C91.8,50.834 92.3,51.358 92.79,51.354 C93.69,51.412 94.51,51.744 95.4,51.939 C96.79,52.239 97.82,51.869 98.17,51.023 C98.76,49.589 97.36,48.022 96.44,48.106 C95.51,48.189 95.75,48.634 96.14,48.813 L96.14,48.813 Z M111.15,46.927 C111.12,46.822 123.75,59.669 125.37,59.423 C126.12,59.868 128,63.52 128,63.52 C128.05,63.636 128.04,63.85 127.74,63.698 C125.6,62.639 116.68,55.205 112.12,49.672 C111.79,48.866 111.38,47.842 111.15,46.927 L111.15,46.927 Z M84.18,42.775 C84.48,42.765 84.92,43.455 84.68,43.87 C84.48,44.026 84.17,43.784 84.04,43.595 C83.91,43.406 83.91,43.061 83.99,42.907 C84.04,42.817 84.1,42.777 84.18,42.775 L84.18,42.775 Z M110.01,42.477 C112.72,45.474 115.45,48.483 123.43,55.008 C123.43,55.008 124.56,57.021 124.8,57.808 C124.61,58.048 124.51,58.021 123.95,57.741 C118.74,53.708 113.91,48.803 110.12,44.243 C109.94,43.6 109.54,42.979 110.01,42.477 L110.01,42.477 Z M97.85,42.294 C98.03,42.237 98.45,43.028 98.09,43.218 C97.88,43.33 97.56,43.007 97.53,42.768 C97.5,42.578 97.62,42.368 97.85,42.294 L97.85,42.294 Z M90.81,42.298 C91.27,42.612 90.98,43.046 89.98,43.656 C89.08,44.219 88.85,43.539 89.59,42.596 C89.91,42.292 90.42,42.04 90.81,42.298 L90.81,42.298 Z M89,41.898 C89.15,44.824 85.09,45.36 84.84,42.169 L85.22,42.15 C86.55,44.66 88.09,43.145 88.57,41.898 L89,41.898 L89,41.898 Z M104.38,41.781 C105.88,41.765 105.78,42.664 104.23,43.269 C103.03,43.731 102.9,43.647 103.34,42.752 C103.76,41.891 103.71,41.789 104.38,41.781 L104.38,41.781 Z M102.58,41.612 L103.04,41.646 C102.47,44.894 99.24,44.577 98.37,41.787 L98.83,41.777 C100.53,44.445 101.8,42.876 102.58,41.612 L102.58,41.612 Z M86.55,38.775 C87.21,38.771 87.92,38.916 88.61,39.222 C90.83,40.194 91.22,40.827 89.33,40.522 C88.35,40.365 86.56,40.381 85.27,40.713 C84.87,40.818 84.42,41.056 84.31,41.09 C83.86,41.236 83.73,40.895 83.92,40.321 C84.26,39.33 85.3,38.783 86.55,38.775 L86.55,38.775 Z M101.37,38.563 C102.03,38.557 102.75,38.764 103.32,38.99 C105.13,39.712 106.27,40.48 104.39,40.224 C101.78,39.867 100.89,39.849 99.93,40.003 C98.16,40.289 98.02,40.487 97.86,40.204 C97.46,39.461 99.4,38.582 101.37,38.563 L101.37,38.563 Z M108.41,37.964 C112.01,41.583 115.66,45.604 119.55,48.717 C120.1,49.184 120.47,49.482 120.72,49.734 C121.23,50.756 122.41,53.189 122.41,53.189 C118.24,50.263 108.85,40.172 108.96,40.239 C109.05,40.286 108.17,38.393 108.41,37.964 L108.41,37.964 Z M87.26,36.171 C88.69,36.128 90.09,36.498 90.8,37.377 C91.45,38.177 91.71,39.442 91.35,39.81 C91.13,40.039 90.33,39.393 90.33,39.393 C86.97,37.499 85.81,38.411 83.99,38.967 C83.73,39.046 83.45,38.342 83.79,37.646 C84.46,36.488 86.15,36.204 87.26,36.171 L87.26,36.171 Z M117.45,43.75 C118.1,44.813 118.58,45.766 118.89,46.391 C119.41,47.381 119.23,47.408 118.78,47.043 C115.32,44.199 112.42,40.736 109.16,37.563 C108.73,37.126 107.89,36.154 107.89,36.154 C107.92,36.189 106.83,33.867 107.51,33.914 C108.05,34.124 108.4,34.709 108.75,35.081 C110.46,36.919 113.71,40.078 117.45,43.75 L117.45,43.75 Z M106.96,30.158 C106.96,30.158 111.79,35.461 114.56,38.068 C115.11,39.218 116.15,40.873 116.13,41.152 C116.12,41.275 115.54,40.826 115.54,40.826 C112.47,37.993 109.64,34.811 106.71,31.793 C106.73,31.81 106.47,30.545 106.47,30.034 C106.54,29.784 106.83,30.06 106.96,30.158 L106.96,30.158 Z M105.85,25.826 C107.7,27.665 109.99,30.161 111.38,31.937 C112.14,32.884 112.54,33.854 113.14,34.85 C113.26,35.029 113.37,35.235 113.29,35.319 C113.26,35.354 112.99,35.201 112.85,35.09 C111.5,34.067 105.91,27.685 105.91,27.685 C105.65,26.637 105.48,26.279 105.85,25.826 L105.85,25.826 Z M93.31,22.363 C93.09,22.367 96.32,31.749 105.55,34.547 C106.35,34.798 106.81,35.145 106.76,35.618 C106.7,36.216 106.72,36.29 105.83,35.844 C103.31,34.523 99.73,33.906 96.73,35.435 C96.26,35.673 95.79,36.323 96.17,36.733 C96.38,36.941 96.91,36.786 97.58,36.523 C101.07,35.161 106.41,35.962 107.35,38.104 C108.02,39.624 108.13,40.744 107.77,40.931 C107.49,41.073 107.02,40.563 106.18,39.828 C103.53,37.491 100.36,36.841 97.84,39.086 C97.29,39.572 96.75,39.488 96.56,39.688 C96.38,39.882 96.59,40.318 96.75,40.744 C96.91,41.189 96.92,41.312 96.76,41.688 C96.54,42.203 96.53,42.863 96.55,43.354 C96.61,44.551 97.4,45.581 99.67,47.159 C101.44,48.389 102.82,49.08 100.67,47.33 C96.95,44.311 96.28,43.08 98.69,44.127 C101.09,45.097 104.42,44.124 106.78,42.317 C107.59,42.304 108.06,42.163 108.49,42.473 C110.25,46.621 111.69,52.141 114.03,57.492 C111.23,60.662 101.5,68.424 94.57,68.147 C88.58,67.908 86.46,58.066 85.14,52.627 C84.69,50.325 84.18,47.983 84.24,44.732 C84.24,44.732 84.35,44.645 84.51,44.674 C85.51,44.864 87.24,44.996 88.12,44.791 C89.71,44.417 90.03,44.132 90.12,44.367 C90.23,44.646 89.57,45.271 88.41,46.068 C87.91,46.415 86.44,47.125 86.59,47.229 C86.94,47.465 88.72,46.516 89.02,46.263 C89.48,45.867 89.8,45.843 90.02,46.061 C90.28,46.316 90.34,46.044 89.48,48.185 C88.53,50.544 88.62,50.758 90.47,52.212 C91.11,52.717 91.7,53.222 91.84,53.442 C92.01,53.732 92.13,54.074 92.22,54.185 C92.53,54.604 92.34,53.929 92.15,52.856 C91.94,52.063 91.16,51.274 90.61,50.892 C89.6,50.188 89.76,49.498 90.59,47.102 C93.06,40.034 92.43,36.882 89.72,35.347 C88.5,34.654 85.07,34.839 84,35.744 C83.46,36.189 83.54,35.314 83.62,35.256 C90.12,30.77 91.65,26.49 93.31,22.363 L93.31,22.363 Z M95.02,21.891 C96.34,24.323 99.06,29.843 105.46,32.073 C105.92,32.174 106.41,33.487 106.05,33.849 C102.55,32.828 96.19,29.382 94.03,21.925 C94.24,21.727 94.8,21.757 95.02,21.891 L95.02,21.891 Z M99.02,21.84 C99.27,21.836 99.57,21.883 99.82,21.934 C101.29,24.704 104.87,27.137 104.86,27.124 C104.86,27.124 104.95,28.33 104.82,28.543 C104.74,28.914 99.13,24.63 98.5,22.065 C98.56,21.9 98.77,21.845 99.02,21.84 L99.02,21.84 Z M109.17,27.421 C109.3,27.654 110.28,29.18 109.48,28.605 C109.16,28.337 108.56,27.66 107.62,26.586 C105.39,24.044 105.33,24.202 105.37,23.569 C105.39,22.746 104.8,21.395 106.07,21.745 C107.32,23.215 108.1,25.586 109.17,27.421 L109.17,27.421 Z M91.59,21.79 C91.92,21.79 92.23,21.902 92.31,22.05 C92.43,22.25 92.27,22.573 92.17,22.975 C91.02,26.224 88.18,30.9 84.84,33.557 C83.54,34.562 83.32,34.556 83.23,33.518 C83.17,32.914 83.45,32.738 84.06,32.313 C86.89,30.342 89.44,26.92 90.51,23.425 C90.72,22.744 90.64,22.133 91.01,21.926 C91.18,21.83 91.39,21.789 91.59,21.79 L91.59,21.79 Z M89.23,21.767 C89.53,21.778 89.98,21.761 90.05,21.984 C90.42,23.51 86.95,29.456 84.42,31.141 C83.52,31.739 83.46,31.582 83.53,30.578 C83.58,29.902 83.65,29.956 84.57,29.071 C85.89,27.807 87.33,25.856 88.12,24.128 C89.14,21.911 88.89,21.771 89.23,21.767 L89.23,21.767 Z M102.26,21.817 C102.95,22.522 104.04,23.376 104.29,24.182 C104.44,24.676 104.55,25.243 104.44,25.51 C103.84,25.89 100.83,22.391 100.95,21.981 C101.33,21.729 101.81,21.676 102.26,21.817 L102.26,21.817 Z M96.82,21.819 C97.09,21.822 97.36,21.817 97.44,21.945 C99.05,25.236 102.08,28.206 105.17,29.793 C105.63,30.051 105.41,30.696 105.56,31.149 C102.08,30.631 97.52,25.682 96.3,22.069 C96.29,21.808 96.55,21.817 96.82,21.819 L96.82,21.819 Z M87.37,21.692 C87.6,21.683 87.8,21.746 87.87,21.914 C88.1,22.512 86.75,25.098 85.08,27.242 C84.21,28.354 83.78,28.677 83.51,28.411 C83.28,27.904 83.28,27.316 84.08,26.392 C84.74,25.629 85.86,23.847 86.32,22.849 C86.52,22.264 86.72,21.734 87.37,21.692 L87.37,21.692 Z M143.22,21.635 L152.57,21.635 L152.57,57.111 C145.69,47.4 142.13,36.246 143.22,21.635 L143.22,21.635 Z M84.89,21.568 C85.09,21.567 85.27,21.658 85.4,21.871 C85.64,22.256 84.68,24.497 84.08,24.893 C83.52,25.267 83.48,24.832 83.88,22.663 C84,22.027 84.47,21.571 84.89,21.568 L84.89,21.568 Z M69.83,83.693 C69.92,83.295 65.29,83.449 65.29,83.449 C68.17,79.145 70.61,74.717 73.02,70.277 C76.75,63.558 81.92,51.785 83.54,43.253 C84.74,53.233 86.5,68.046 95,68.63 C97.79,68.822 101.02,66.903 101.55,67.221 L119.22,67.08 C122.85,74.457 126.74,79.211 131.35,84.257 C134.66,86.153 138.71,87.655 142.61,88.629 C144.83,89.183 145.04,88.814 149.42,89.441 C150.57,89.606 152.33,89.116 152.31,89.116 C148.82,91.89 144.79,91.1 140.34,89.915 C140.09,89.849 139.83,89.771 139.57,89.68 L136.22,94.75 C128.75,92.97 104.79,94.23 98.47,120.39 C98.47,120.39 99.12,120.72 98.96,120.54 C103.98,97.83 125.18,93.31 135.29,95.57 L134.42,96.9 C117.65,94.84 104,105.37 100.75,120.3 L101.07,120.6 C107.36,98.02 133.81,89.669 150.21,105.32 L153.22,103.18 L153.12,106.07 L112.8,139.99 L111.19,138.31 C111.19,138.31 110.91,138.53 110.59,138.8 C109.55,139.67 109.13,139.88 109.43,140.37 C109.72,140.85 110.85,141.94 110.9,142.07 C104.21,147.54 102.09,158.09 108.44,165.48 C109.15,166.26 109.02,166.47 108.89,165.59 C103.19,159.36 103.92,148.35 111.02,143.13 L112.46,145.01 C109.33,151.91 107.66,162.67 115.89,163.6 C118.83,171.53 115.44,180.93 111.66,187.23 C107.64,194.48 102.78,200.51 99.75,208.42 C98.27,211.72 95.93,221.5 96.05,228.97 L95.17,228.96 C95.16,225.92 95.37,222.3 95.39,219.99 C95.52,208.71 95.5,209.38 95.75,209.09 C95.84,209 96.07,208.9 96.09,208.82 C96.13,208.7 95.91,208.47 95.82,208.19 C95.74,207.91 95.59,207.41 95.6,207 C95.62,206.58 96.01,205.97 95.93,205.83 C94.16,199.61 94.02,188.43 88.3,183.3 C85.5,180.88 81.78,180.78 76.96,182.76 C66.33,182.78 67.91,183.33 59.32,182.84 C55.76,176.31 51.46,169.95 46.79,165.23 C44.61,162.79 41.58,161.46 38.74,159.69 C39.88,157.51 41.17,155.92 42.59,154.89 C42.89,154.47 43.08,154.01 43.46,153.66 C72.42,156.45 78.7,128.29 77.38,129.01 L77.13,129.23 C69.21,158.24 41.03,157.19 26.87,144.64 C26.87,144.64 24.87,146.39 24.86,144.47 C24.86,142.73 25.49,142.23 25.49,142.23 L65.24,109.68 C65.97,110.15 66.75,111.7 67.08,111.52 C67.81,111.13 68.89,110.35 68.85,109.88 C68.83,109.52 67.4,107.26 67.4,107.26 C78.04,96.21 73.24,91.27 69.83,83.693 L69.83,83.693 Z M67.01,106.83 L65,104.35 C65,104.35 63.45,103.1 64.84,101.68 C68.87,97.59 68.89,92.39 65,87.708 C64.74,87.113 66.21,84.111 66.21,84.111 L69.27,84.162 C74.05,89.993 75.35,100.29 67.01,106.83 L67.01,106.83 Z M62.26,86.455 C62.11,86.512 61.94,86.569 61.76,86.628 C60.79,82.261 61.34,76.426 62.49,72.039 C64.17,65.95 67.3,61.065 70.78,56.158 C78.74,44.95 82.27,36.501 82.12,21.445 L83.26,21.566 C83.21,23.944 82.9,25.733 82.81,28.897 C82.67,32.288 82.72,34.866 83.08,38.178 C83.26,39.805 83.37,40.858 83.09,41.07 C82.96,41.177 82.84,41.739 82.96,41.946 C82.94,42.398 82.88,43.3 82.88,43.3 C81.06,52.264 71.28,75.248 62.26,86.455 L62.26,86.455 Z M25.41,141.54 L25.41,139.29 L63.46,107.84 L64.68,109.4 L25.41,141.54 L25.41,141.54 Z M141.94,20.951 C141.93,20.939 140.26,43.23 151.84,57.83 C144.76,56.754 140.71,57.843 136.59,60.766 L137.16,61.349 C142.83,57.848 147.65,58.769 152.57,59.314 L152.57,87.992 C152.54,89.385 146.67,88.764 143.05,86.031 C141.34,85.013 139.12,82.875 138.13,81.271 C137.83,80.782 137.51,80.3 137.42,80.198 C137.09,79.814 135.02,75.954 131.24,68.646 C129.31,64.93 126.76,59.86 124.69,55.932 C123.36,53.389 120.87,48.583 120.69,48.2 C120.33,47.401 117.62,42.093 116.56,40.162 C113.77,35.06 109.28,26.157 107.67,22.967 C107.32,22.14 106.78,21.758 107.74,21.784 C107.96,21.79 108.17,21.803 108.29,21.832 C108.46,21.918 108.67,21.539 108.67,21.539 L141.94,20.951 L141.94,20.951 Z M23.61,230.56 L154.22,230.56 L154.22,20.035 L23.61,20.035 L23.61,230.56 Z" id="Fill-139" fill="#22244E"></path>
        <path d="M47.64,219.32 C48.21,219.32 48.67,219.78 48.67,220.35 C48.67,220.92 48.21,221.38 47.64,221.38 C47.08,221.38 46.62,220.92 46.62,220.35 C46.62,219.78 47.08,219.32 47.64,219.32 L47.64,219.32 Z M39.9,207.16 C40.47,207.16 40.92,207.62 40.92,208.18 C40.92,208.75 40.47,209.2 39.9,209.2 C39.34,209.2 38.88,208.75 38.88,208.18 C38.88,207.62 39.34,207.16 39.9,207.16 L39.9,207.16 Z M34.44,196.17 C37.52,195.97 41.98,199.28 40.8,205.48 C40.6,205.04 40.35,204.09 39.86,203.42 C37.74,200.55 35.24,204.48 36.92,206.08 C37.75,206.87 38.13,207.18 38.04,207.25 C36.15,206.89 34.71,208.58 35.5,210.45 C36.82,212.87 38.64,211.58 39.7,210.15 C39.7,210.15 40.35,212.31 41,212.59 C41.99,213.01 43.36,212.48 43.82,211.28 C44.51,209.49 42.83,209.03 42.46,208.03 C46.02,208.15 50.55,213.37 48.48,217.9 C48.76,216.86 47.65,214.55 45.51,215.15 C44.44,215.52 44.07,217.09 44.93,218.7 C45.21,219.21 45.36,219.4 45.36,219.4 C45.36,219.4 44.43,219.53 44.19,219.68 C41.41,221.4 44.99,226.08 47.06,223.15 C47.27,222.8 47.62,222.41 47.62,222.41 C47.96,223.06 48.06,223.98 48.69,224.29 C51.25,225.59 52.39,222.85 51.31,221.52 C50.71,220.76 50.02,219.89 50.02,219.89 C49.92,219.41 57.69,221.46 56.75,229.06 L36.12,229.03 C38.04,217.36 33.41,204 31.04,199.93 L32.07,198.58 C32.32,199.08 32.75,200.35 33.5,200.59 C35.89,201.37 36.62,199.69 36.3,197.96 C36.13,197.04 34.85,196.3 34.44,196.17 L34.44,196.17 Z M32.32,195.34 C32.91,195.34 33.39,195.83 33.39,196.42 C33.39,197.02 32.91,197.5 32.32,197.5 C31.73,197.5 31.25,197.02 31.25,196.42 C31.25,195.83 31.73,195.34 32.32,195.34 L32.32,195.34 Z M28.66,193.01 C29,194.39 29.7,194.66 30.66,195.59 C30.66,195.59 29.44,195.8 29.15,195.6 C28.64,195.25 27.58,193 27.58,193 L28.66,193.01 L28.66,193.01 Z M33.58,192.96 C33.53,193.18 34.03,195.25 33.1,194.87 L33.04,192.96 L33.58,192.96 L33.58,192.96 Z M37.37,192.38 L60.74,229.04 C59.67,229.02 58.68,229.09 57.6,229.07 C58.04,222.22 52.55,219.01 49.32,218.85 C51.26,210.84 45.44,207.47 41.56,206.83 C43.14,196.42 34.55,194.95 34.43,195.05 C34.47,194.2 34.31,193.58 34.2,192.87 L37.37,192.38 L37.37,192.38 Z M42.33,189.82 L67.09,229.05 L61.62,228.99 L38.11,192.09 L42.33,189.82 L42.33,189.82 Z M57.94,180.26 L104.88,180.38 L103.8,182.63 L87.59,182.56 C84.42,180.19 80.81,181.28 76.68,182.63 C76.68,182.63 64.27,182.76 59.38,182.63 L57.94,180.26 L57.94,180.26 Z M56.18,177.34 L106.28,177.79 L105.43,179.42 L57.46,179.43 L56.18,177.34 L56.18,177.34 Z M53.61,173.45 L57.02,173.45 L55.57,176.14 L53.61,173.45 L53.61,173.45 Z M97.76,173.32 L103.11,173.32 L101.45,176.68 L95.79,176.68 L97.76,173.32 L97.76,173.32 Z M86.19,173.32 L91.59,173.32 L89.83,176.68 L84.38,176.68 L86.19,173.32 L86.19,173.32 Z M74.58,173.32 L80,173.32 L78.09,176.68 L72.93,176.68 L74.58,173.32 L74.58,173.32 Z M63.59,173.29 L68.54,173.29 L66.67,176.65 L61.83,176.65 L63.59,173.29 L63.59,173.29 Z M135.11,171.31 C137.05,172.88 135.7,175.46 133.67,175.5 C132.28,175.54 130.25,173.16 132.44,171.23 L133.9,172.57 L135.11,171.31 L135.11,171.31 Z M50.33,168.96 L53.73,168.96 L52.34,171.42 L50.33,168.96 L50.33,168.96 Z M106.2,168.94 L111.26,168.94 L109.21,172.67 L104,172.67 L106.2,168.94 L106.2,168.94 Z M94.51,168.94 L99.76,168.94 L97.84,172.67 L92.4,172.67 L94.51,168.94 L94.51,168.94 Z M83.03,168.94 L88.16,168.94 L86.08,172.67 L80.81,172.67 L83.03,168.94 L83.03,168.94 Z M71.61,168.94 L76.44,168.94 L74.4,172.67 L69.51,172.67 L71.61,168.94 L71.61,168.94 Z M59.88,168.91 L65.15,168.96 L63.19,172.64 L57.85,172.62 L59.88,168.91 L59.88,168.91 Z M135.99,170.53 L137.03,169.21 L135.86,167.92 C137.78,166.02 139.59,167.69 139.77,169.28 C139.96,170.97 137.33,172.88 135.99,170.53 L135.99,170.53 Z M131.87,167.77 L130.57,169.16 L131.7,170.35 C130.54,172.8 127.44,170.89 127.55,169.06 C127.67,166.91 130.16,166.04 131.87,167.77 L131.87,167.77 Z M133.83,166.78 L136.21,169.11 L133.88,171.74 L131.43,169.16 L133.83,166.78 L133.83,166.78 Z M48.17,166.29 L112.43,166.58 L111.58,168.28 L49.39,167.83 L48.17,166.29 L48.17,166.29 Z M115.88,163.66 C117.34,169.38 118.92,177.27 106.24,195.51 C98.74,206.29 96.28,216.46 95.98,228.88 L95.23,228.88 C95.58,222.07 95.63,209.72 95.63,209.72 L96.34,209.08 C96.34,209.08 96.02,208.56 95.88,207.94 C95.64,206.9 95.84,207.25 96.46,204.46 C99.05,190.98 115.88,163.66 115.88,163.66 L115.88,163.66 Z M133.75,163.12 C134.88,163.1 136.01,163.88 136.02,165.4 C136.02,166.19 135.35,167.3 135.35,167.3 L133.81,165.82 L132.34,167.3 C131.61,166.7 131.18,165.55 131.42,164.9 C131.88,163.79 132.86,163.15 133.75,163.12 L133.75,163.12 Z M24.8,162.23 L42.07,189.34 C37.82,191.6 35.73,192.58 28.67,192.03 L28.69,192.38 L25.69,192.21 C30.87,200.33 37.27,210.93 35.46,229.41 L56.5,229.39 C56.5,229.39 56.83,229.7 56.86,229.72 C57.17,229.93 57.63,229.36 57.63,229.36 L67.13,229.31 L67.38,229.61 L71.81,229.58 C71.81,229.58 51.57,191.55 41.4,172.67 C37.23,165.1 32.88,161.73 24.8,162.23 L24.8,162.23 Z M140.87,158.2 C141.2,158.2 141.67,158.29 143.37,158.75 C145.95,159.44 147.77,161.35 148.24,163.86 C148.26,163.96 148.39,165.91 147.95,165.84 C147.28,165.65 146.92,164.97 145.84,164.52 C144.5,163.95 142.61,163.21 141.46,162.16 C140.52,161.3 140.01,160.39 139.9,159.6 C139.78,158.79 140.05,158.7 140.74,159.36 C142.26,160.58 143.77,161 145.28,162.18 C145.7,162.51 147.21,163.35 146.18,162.3 C145.48,161.59 143.43,160.36 142.34,159.83 C140.82,159.1 140,158.21 140.87,158.2 L140.87,158.2 Z M139.31,158.44 C139.86,162.48 142.91,163.43 145.83,164.7 C146.6,165.06 147.25,165.69 148.02,166.09 C149.47,164.12 147.84,160.27 145.29,159.02 C143.41,158.14 141.68,157.43 140.62,157.51 C140,157.56 139.32,157.96 139.31,158.44 L139.31,158.44 Z M138.11,158.18 C137.75,159.33 135.87,162.84 135.87,162.84 C135.64,163.07 134.81,163.24 134.88,162.35 C134.88,161.39 136.67,157.46 137.15,157.38 C137.72,157.34 138.14,157.76 138.11,158.18 L138.11,158.18 Z M135.01,155.41 C135.52,156.09 132.88,157.21 130.08,157.45 C129.45,157.5 128.06,157.63 128.03,157.7 C127.72,158.23 133.45,157.84 135.24,156.84 C135.85,156.49 135.91,156.79 135.64,157.33 C133.57,160 128.56,159.34 124.65,158.87 C124.43,158.65 124.62,158.37 125.5,157.66 C127.1,156.35 128.26,155.91 130.8,155.65 C131.51,155.63 134.69,155.02 135.01,155.41 L135.01,155.41 Z M134.63,154.29 C134.63,154.29 134.25,154.46 134.09,154.55 C133.96,154.63 132.96,154.75 131.86,154.83 C129.69,155 128.24,155.34 126.92,155.87 C124.94,156.67 123.61,159.14 123.61,159.14 C125.1,159.04 133.49,160.57 135.82,157.53 C136.3,156.89 134.56,162.33 133.67,162.57 C131.46,162.3 130.53,165.79 130.75,165.64 C128.52,166.51 126.79,167.02 127.36,169.62 C127.6,170.75 128.75,172.1 131.17,171.76 C130.51,176.27 136.01,177.43 136.61,172 C136.61,172 137.69,171.79 138.1,171.75 C140.6,171.15 141.21,167.47 137.53,166.31 C136.51,166 136.46,165.81 136.46,165.81 C136.64,164.98 136.6,164.11 136,163.15 C136.81,161.21 138.83,157.46 138.83,157.46 L134.63,154.29 L134.63,154.29 Z M51.04,146.53 C52.72,146.54 53.08,146.66 54.7,147.41 C56.73,148.13 56.24,148.77 52.63,149.67 C50.83,150.09 49.01,149.79 47.69,148.98 C44.79,147.19 44.98,146.83 48.22,147.63 C49.29,147.89 50.35,147.94 50.42,147.74 C50.47,147.59 49.18,147.26 48.13,146.91 C47,146.53 47.97,146.57 50.24,146.54 C50.54,146.54 50.81,146.53 51.04,146.53 L51.04,146.53 Z M38.75,144.49 C38.92,144.49 39.35,144.64 40.06,144.93 C41.56,145.38 43.63,145.87 45.05,147.43 C46.2,148.54 46.48,148.9 46.24,149.29 C45.95,149.77 42.39,149.41 40.89,148.76 C39.91,148.34 38.73,147.43 38.19,146.64 C36.89,144.74 37.44,144.24 39.09,145.57 C41.09,147.17 41.38,147.34 41.74,147.26 C41.88,147.24 41.53,146.91 40.86,146.41 C39.18,145.15 38.36,144.48 38.75,144.49 L38.75,144.49 Z M62.05,143.4 C63.31,143.39 64.29,143.62 64.29,144.1 C64.3,144.88 61.92,146.59 60.35,146.93 C59.99,147.01 59.46,147.13 59.19,147.19 C58.64,147.31 55.62,147.21 55.33,147.1 C53.91,146.58 54.89,146.38 57.49,146.08 C58.62,145.95 59.16,145.65 59.16,145.44 C59.16,145.33 58.33,145.3 57.09,145.46 C55.7,145.63 55.97,145.23 57.7,144.33 C58.84,143.74 60.63,143.42 62.05,143.4 L62.05,143.4 Z M46.94,143.19 C47.88,143.19 48.76,143.29 49.54,143.46 C50.06,143.58 50.9,143.68 50.19,144.33 C49.38,145.09 47.21,146.13 45.6,146.2 C45.38,146.21 42.06,145.97 42.77,145.26 C42.91,145.18 43.36,145.2 43.75,145.13 C45.58,144.78 45.09,144.48 42.83,144.6 C40,144.75 39.87,144.46 42.01,143.87 C43.58,143.44 45.12,143.22 46.53,143.19 L46.94,143.19 L46.94,143.19 Z M57.82,141.05 C58.2,141.04 57.85,141.48 57.19,142.62 C55.94,144.75 55.69,145.29 53.67,145.82 C53.14,145.96 52.4,145.85 52.1,145.89 C51.23,146 51.61,145.89 52.95,145.02 C54.8,143.82 53.23,144.43 51.52,145.32 C50.53,145.83 49.49,145.81 49.4,145.54 C49.35,145.39 49.8,145.01 50.09,144.75 C52.69,142.41 53.49,142.51 55.91,141.67 C56.97,141.3 57.56,141.07 57.82,141.05 L57.82,141.05 Z M109.02,140.81 C109.02,140.81 110.01,141.84 110.38,142.32 C104.33,148.26 102.02,156.56 107.86,165.4 L105.05,165.39 C99.8,155.01 102.29,147.2 109.02,140.81 L109.02,140.81 Z M33.03,140.73 C33.03,140.73 33.48,141.13 34.06,141.57 C34.69,142.04 35.42,142.63 35.93,143.4 C36.67,144.31 37.83,146.55 37.7,146.96 C37.4,147.89 34.29,146.25 31.75,143.7 C30.92,142.87 30.44,142.25 30.44,142.25 L31.41,141.37 C31.41,141.37 32.26,142.08 33.24,142.96 C35.09,144.59 35.08,144.03 33.22,142.31 C32.7,141.82 32.21,141.38 32.21,141.38 C32.24,141.07 32.53,140.8 33.03,140.73 L33.03,140.73 Z M35.16,139.99 C35.69,139.99 36.35,140.04 36.91,140.24 C38.55,140.72 41.57,142.07 42.04,142.52 C42.71,143.17 40.95,143.86 38.83,143.88 C37.7,143.89 37.49,143.66 35.93,142.72 C35.73,142.59 34.83,142 35.09,141.78 C35.38,141.48 36.25,141.86 37.33,142.41 C37.68,142.59 38.54,142.54 38.54,142.38 C38.54,142.2 36.38,141.39 34.76,140.87 C33.69,140.53 33.72,140.19 34.37,140.04 C34.56,140.02 34.83,139.99 35.16,139.99 L35.16,139.99 Z M146.98,138.81 C147.24,138.79 147.25,139.04 147.11,139.66 C147.04,139.98 146.71,141.7 146.15,142.18 C146.08,142.22 145.25,141.73 145.03,141.5 C144.93,141.4 144.6,141.16 144.56,141 C144.42,140.48 144.57,139.8 144.96,139.47 C145.12,139.33 145.42,139.26 145.59,139.26 C145.72,139.26 146.1,139.13 146.44,138.98 C146.68,138.88 146.86,138.81 146.98,138.81 L146.98,138.81 Z M34.87,138.78 C34.87,138.78 35.68,139.08 35.34,139.47 C35.11,139.74 34.11,139.51 34.11,139.43 L34.87,138.78 L34.87,138.78 Z M108.38,137.38 C108.51,137.39 108.64,137.64 108.72,138.21 C109.12,139.26 109.14,139.55 108.76,139.86 C108.11,140.38 107.94,140.24 107.95,139.02 C107.96,138.02 108.17,137.36 108.38,137.38 L108.38,137.38 Z M69.76,137.37 C71.99,137.35 67.59,142.25 64.75,142.96 C63.87,143.18 62.23,143.24 62.12,143.05 C62,142.87 62.13,142.72 62.5,142.62 C63.08,142.46 65.99,140.61 65.99,140.39 C65.98,140.12 64.78,140.57 63.76,141.24 C63.09,141.67 62.78,141.58 63.14,141.06 C64.81,138.65 67.04,137.4 69.76,137.37 L69.76,137.37 Z M62.79,137.23 L62.87,137.23 C63.13,137.25 63.35,137.37 63.52,137.57 C63.85,137.98 63.71,138.62 63.56,139.15 C63.16,140.54 60.56,143.24 59.63,143.25 C59.07,143.16 61.4,140.19 61.47,139.69 C61.29,139.52 59.85,141.19 59.18,142.35 C58.87,142.88 58.52,143.52 58.34,143.64 C57.85,143.69 57.29,144 57.29,143.68 C57.37,142.2 60.26,138.97 61.24,138.07 C61.85,137.5 62.37,137.24 62.79,137.23 L62.79,137.23 Z M146.93,136.81 C146.96,136.8 146.99,136.81 147.02,136.81 C147.52,136.83 147.44,137.35 146.75,138.1 C146.39,138.49 145.64,138.68 145.39,138.43 C145.03,138.08 145.77,137.11 146.58,136.87 C146.71,136.83 146.83,136.81 146.93,136.81 L146.93,136.81 Z M109.06,136.21 C109.11,136.2 109.17,136.22 109.24,136.28 C109.73,136.77 109.92,137.64 110.17,138.26 C110.17,138.39 110.12,138.62 110.05,138.75 C109.63,139.56 108.97,138.77 108.91,137.38 C108.87,136.59 108.91,136.23 109.06,136.21 L109.06,136.21 Z M147.04,136.14 C146.3,136.14 145.06,137.12 144.82,138.12 C144.1,141.17 144.1,141.04 144.75,141.49 C144.94,141.62 145.08,141.71 145.18,141.77 C145.55,142.07 146.07,142.53 146.14,142.44 C146.75,142.44 147.69,138.54 147.66,137.73 C147.7,136.88 147.73,136.78 147.52,136.39 C147.42,136.22 147.25,136.14 147.04,136.14 L147.04,136.14 Z M109.63,136.03 C109.81,136.03 110.2,136.23 110.58,136.67 C111.34,137.55 111.25,138.29 110.4,138.08 C110.06,137.57 109.88,136.8 109.55,136.22 C109.47,136.09 109.51,136.02 109.63,136.03 L109.63,136.03 Z M110.01,134.27 C110.21,134.26 110.49,134.34 110.83,134.54 C111.1,134.7 111.58,134.99 111.91,135.17 C113.07,135.81 113.17,136.01 112.62,136.66 C111.93,137.45 111.5,137.15 110.31,135.82 C109.52,134.92 109.5,134.29 110.01,134.27 L110.01,134.27 Z M67.25,130.17 C67.4,130.16 67.51,130.41 67.77,130.85 C68.61,132.29 68.02,134.33 66.79,136.46 C65.87,138.06 65.71,136.84 66.13,134.54 C66.39,133.09 65.66,135.26 65.32,137.01 C65.13,137.96 64.68,138.73 64.18,138.68 C63.72,138.61 63.86,137.28 63.88,136.98 C63.98,134.89 64.76,133.4 66.27,131.32 C66.84,130.53 67.08,130.18 67.25,130.17 L67.25,130.17 Z M96,130.14 L100.19,130.15 C101.53,137.95 103.87,141.15 105.22,143.62 C99.92,152.15 101.13,159.25 104.36,165.52 L91.09,165.47 C94.49,153.79 96.25,142.03 96,130.14 L96,130.14 Z M84.72,130.08 L85.63,130.11 C85.63,130.11 85.78,130.31 85.99,130.53 C86.58,131.13 86.6,131.48 86.02,131.8 C85.45,132.11 85.67,132.54 86.14,133.23 C86.64,133.97 86.64,133.89 85.92,134.61 C85.18,135.21 84.8,135.38 85.62,136.52 C86.08,137.05 86.02,137.6 85.3,138.07 C84.75,138.44 83.83,138.74 84.8,140.13 C85.27,141.12 85.31,141.05 84.32,141.75 C83.01,142.69 82.77,142.53 83.37,143.89 C84.04,145.4 84.1,145.42 82.73,146.44 C81.13,147.62 81.08,147.71 81.74,149.12 C82.41,150.55 82.43,150.19 80.74,151.51 C79.5,152.48 79.22,152.53 79.59,153.33 C80.28,154.83 80.57,155.23 78.56,156.26 C76.25,157.45 76.13,157.54 77.25,159.31 C78.15,160.75 77.95,160.55 76.46,161.41 C74.3,162.65 73.35,163.2 73.28,163.58 C73.24,164.02 74.96,165.32 74.96,165.32 L71.95,165.4 C71.95,165.4 70.69,164.37 70.2,163.89 C68.84,162.56 68.82,163 73.35,160.79 C75.84,159.58 75.63,159.85 75.23,159.14 C74.02,157.05 73.98,156.83 76.24,155.69 C78.2,154.7 77.87,154.62 77.39,153.12 C76.97,151.82 77.04,151.94 78.07,151.17 C80.57,149.3 80.5,149.5 80.12,148.58 C79.73,147.69 79.44,147.27 79.72,146.83 C80.63,145.53 82.54,145.25 81.76,143.71 C81.39,142.71 81.26,142.49 82.37,141.63 C83.36,140.79 83.37,140.89 82.73,139.8 C81.95,138.79 82.07,138.62 83.2,137.83 C84.01,137.09 84,137.11 83.55,136.38 C82.92,135.38 82.95,135.35 83.84,134.57 C84.57,133.92 84.7,133.89 84.23,133.18 C83.62,132.25 83.72,132.04 84.53,131.58 C85.03,131.3 85.03,131.18 84.98,130.71 C84.98,130.61 84.72,130.08 84.72,130.08 L84.72,130.08 Z M93.27,130.06 C93.27,130.06 94.05,130.87 94.37,131.42 C94.72,132.03 94.82,132.56 94.18,133.02 C93.44,133.65 93.13,133.41 94.34,134.97 C94.98,135.8 94.77,135.93 93.98,136.62 C93.17,137.34 93.12,137.38 93.88,138.34 C94.69,139.38 94.83,139.54 93.78,140.34 C92.82,141.06 92.81,141.22 93.56,142.39 C94.24,143.47 94.45,143.46 93.13,144.58 C92.01,145.53 91.98,145.27 93.07,147.02 C93.47,147.67 93.44,147.71 92.71,148.36 C90.91,149.95 91.01,149.85 91.26,150.27 C93.23,153.1 92.34,153.02 90.42,154.37 C90.03,154.7 90.13,155.08 91,156.5 C91.73,157.7 91.63,157.96 89.9,159.15 C88.1,160.39 88.04,160.56 88.94,161.83 C89.82,163.08 89.84,163 88.4,164.29 C87.75,164.87 87.22,165.4 87.22,165.4 L84.03,165.4 C84.03,165.4 84.7,164.79 85.16,164.44 C87.78,162.5 87.77,162.7 86.67,161.3 C85.69,160.06 85.78,159.97 86.78,159.26 C87.49,158.75 88.45,158.23 89.17,157.7 C89.56,157.43 89.27,157.19 88.62,155.97 C87.9,154.59 87.86,154.75 89.21,153.64 C90.68,152.42 90.71,152.46 89.91,150.92 C89.11,149.37 89.09,149.5 90.11,148.67 C91.61,147.44 91.68,147.51 90.89,146.08 C90.26,144.94 90.25,144.97 91.32,143.9 C92.4,142.82 92.26,142.89 91.63,141.9 C90.98,140.89 91.01,140.76 91.87,140 C92.79,139.17 92.65,139.22 91.89,138.17 C91.14,137.14 91.15,137.22 92.07,136.41 C92.55,135.99 93.03,135.56 93,135.37 C92.93,134.86 92.45,134.13 91.98,133.43 C91.8,133.17 92.16,133.08 92.73,132.49 C93.31,131.88 93.28,132.03 92.84,131.23 C92.61,130.79 92.16,130.06 92.16,130.06 L93.27,130.06 L93.27,130.06 Z M90.97,130.05 C90.58,141.71 87.68,154.38 82.09,165.4 L76.86,165.42 C83.26,155.95 87.34,144.24 88.48,130.1 L90.97,130.05 L90.97,130.05 Z M73.24,129.22 C73.62,129.2 73.69,129.58 73.63,130.37 C73.41,133.08 71.61,135.92 69.65,136.68 C67.69,137.43 67.51,137.28 68.67,135.88 C69.55,134.81 70.08,133.69 69.93,133.54 C69.85,133.46 69.66,133.91 68.94,134.83 C68.05,135.98 67.9,135.01 68.72,133.32 C69.42,131.86 70.07,131.09 71.39,130.2 C72.32,129.57 72.9,129.24 73.24,129.22 L73.24,129.22 Z M106.98,128.08 C107.11,128.1 107.18,128.29 107.14,128.73 C107.01,130.16 106.66,133.26 106.73,133.53 C106.78,133.69 107.19,131.48 107.29,131.08 C107.79,129.03 108.55,133.94 108.09,136.14 C108.02,136.48 107.87,137.04 107.8,137.38 C107.72,137.73 107.48,138.31 107.38,138.47 C106.55,139.77 104.61,134.58 104.94,131.93 C105.14,130.29 106.49,128.04 106.98,128.08 L106.98,128.08 Z M152.51,126.75 L152.57,128.91 L123.41,153.4 L122.27,152 C122.27,152 149.74,129.06 152.51,126.75 L152.51,126.75 Z M107.62,126.12 C107.75,126.09 108.06,126.31 108.65,126.96 C109.68,128.35 110.76,130.26 111.16,131.72 C111.31,132.29 111.55,133.05 111.7,133.4 C111.92,133.94 111.93,134.08 111.8,134.24 C111.26,134.92 108.99,133.22 108.26,131.61 C107.23,129.33 107.21,127.29 108.24,129.28 C108.61,130.01 109.08,131.06 109.07,130.64 C109.07,130.52 108.62,129 108.27,128.32 C108.05,127.89 107.27,126.19 107.62,126.12 L107.62,126.12 Z M152.84,125.67 L121.53,151.71 L123.33,154.05 L152.9,129.54 L152.84,125.67 L152.84,125.67 Z M68.11,121.75 C68.43,121.76 69.99,123.83 70.15,124.59 C70.62,126.44 70.45,129.93 69.78,129.81 C69.07,127.29 69.35,125.99 69.09,126.28 C68.64,126.75 69.36,130.6 69.13,131.55 C69.01,131.79 68.63,131.5 68.2,130.88 C67.05,129.22 67.2,122.72 68.08,121.76 C68.09,121.75 68.1,121.75 68.11,121.75 L68.11,121.75 Z M89.4,120.92 L90.79,122.75 L93.32,122.88 L92.02,124.8 L93.32,127.26 L90.48,127.32 L88.86,129.2 L87.44,127.5 L84.96,127.37 L86.41,125.06 L85.24,122.85 L87.92,122.72 L89.4,120.92 L89.4,120.92 Z M56.9,120.74 C58.3,130.41 50.35,134.54 43.49,131.63 C43.63,131.59 56.9,120.74 56.9,120.74 L56.9,120.74 Z M106.54,120.32 C106.93,120.33 107.02,120.85 106.68,121.86 C106.43,122.57 105.62,124.85 105.71,124.84 C105.77,124.84 106.65,122.79 106.83,122.45 C107.12,121.9 107.23,121.8 107.49,121.82 C107.74,122.83 107.48,124.1 107.36,125.15 C106.83,127.88 104.97,130.71 104.26,129.87 C103.1,128.5 103.65,122.95 105.18,121.27 C105.76,120.63 106.24,120.32 106.54,120.32 L106.54,120.32 Z M73.85,120 C74.79,120.37 75.06,123.53 74.04,126.58 C73.6,127.89 72.93,128.74 71.93,129.27 C71.21,129.65 71.04,129.53 71.37,128.87 C71.96,127.8 72.28,126.69 72.52,125.31 C72.62,123.96 71.91,125.04 71.96,125.62 C71.41,128.14 70.68,128.51 70.77,125.86 C70.84,123.91 71.1,123.07 72.02,121.73 C72.48,121.05 72.97,120.13 73.85,120 L73.85,120 Z M109.77,118.35 C110.2,118.26 110.56,121 110.64,124.84 C110.71,128.6 110.81,128.97 109.65,127.58 C109.16,127.02 108.56,126.48 108.29,125.98 C107.52,124.51 107.77,122.97 107.98,120.83 C108.18,118.82 108.89,119.14 108.78,121.23 C108.7,122.58 108.71,124.26 108.93,124.26 C109,124.26 109.02,124.13 108.98,123.95 C108.88,123.56 109.34,119.21 109.53,118.7 C109.61,118.48 109.69,118.37 109.77,118.35 L109.77,118.35 Z M133.97,118.37 L120.94,129.27 C118.26,120.24 128.11,115.08 133.97,118.37 L133.97,118.37 Z M61.91,115.78 C69.13,129.69 53.59,146.4 37.78,135.6 L42.52,131.82 C50.77,135.8 59.97,130.87 57.34,119.45 L61.91,115.78 L61.91,115.78 Z M66.62,115 C68.19,115.16 70.49,118.03 70.61,119.63 C70.85,120.76 70.54,120.96 69.98,120.16 C69.05,118.42 69.16,119.52 69.95,121.25 C70.38,122.12 70.47,123.16 70.04,123.21 C69.43,123.09 68.13,121.01 67.74,120.16 C66.79,118.28 66.72,118.59 66.2,115.81 C66.11,115.29 66.24,115.01 66.62,115 L66.62,115 Z M64.43,114.43 C73.91,138.11 47.94,148.5 36.22,137.55 L37.59,136.46 C53.89,147.56 69.98,129.78 62.61,115.86 C62.61,115.86 63.28,115.3 64.43,114.43 L64.43,114.43 Z M109.36,112.7 C109.94,112.69 109.94,112.9 109.32,113.79 C105.86,118.79 106.56,118.04 108.76,115.31 C109.98,113.79 110.2,113.65 110.33,113.99 C110.43,114.24 108.98,117.2 108.22,118.27 C107.83,118.83 106.5,119.75 105.83,120.09 C104.19,120.93 104.37,120.59 104.98,118.52 C105.75,115.3 107.7,112.72 109.36,112.7 L109.36,112.7 Z M66.46,112.65 C66.46,112.65 67.54,114.06 67.99,114.56 C68.15,114.83 68.14,114.91 67.89,115 C67.46,115.17 66.02,114.2 65.45,113.91 C65.14,113.66 65.28,113.47 65.28,113.47 C65.67,113.17 66.06,112.88 66.46,112.65 L66.46,112.65 Z M71.38,111.92 C71.69,111.91 72.02,112.22 72.32,112.98 C73.45,115.83 73.34,119.04 72.07,120.55 C71.86,120.8 71.81,120.81 71.56,120.65 C71.35,120.52 71.33,119.17 71.53,118.78 C71.59,118.66 71.78,117.84 71.79,117.38 C71.83,116.29 71.53,116.15 71.38,117.17 C71.22,118.34 71.04,119.16 70.72,118.45 C70.56,118.1 70.48,117.74 70.36,117.36 C69.72,114.89 70.46,111.95 71.38,111.92 L71.38,111.92 Z M67.74,111.68 C67.74,111.68 68.34,112.78 68.49,113.66 C68.58,114.2 68.57,114.1 67.98,113.88 C67.52,113.59 67.42,113.42 67.13,113.06 C66.94,112.72 66.75,112.47 66.75,112.47 L67.74,111.68 L67.74,111.68 Z M68.71,111.03 C69.29,111.05 69.89,112.61 69.51,113.32 C69.19,113.9 69.13,113.79 68.58,112.67 C68.29,112.08 68.06,111.44 68.06,111.44 L68.54,111.07 C68.57,111.05 68.62,111.03 68.65,111.03 C68.67,111.03 68.69,111.02 68.71,111.03 L68.71,111.03 Z M31.69,110.85 C31.87,110.86 32.01,110.96 32.09,111.18 C32.14,111.36 32.2,111.73 32.1,111.91 C31.85,112.48 31.33,112.85 30.81,112.82 C30.58,112.8 30.33,112.6 30.3,112.35 C30.27,112.13 30.33,111.74 30.61,111.45 C30.98,111.07 31.38,110.84 31.69,110.85 L31.69,110.85 Z M114.3,110.8 L114.34,110.8 C114.37,110.81 114.41,110.83 114.44,110.86 C114.61,111.03 114.27,113.78 114.02,114.29 C113.92,114.47 113.85,114.71 113.85,114.82 C113.86,115.04 112.96,116.93 112.26,118.17 C111.99,118.64 111.71,119.26 111.63,119.54 C111.07,122.27 109.85,117.89 110.28,115.35 C110.48,114.16 112.17,111.69 112.66,111.88 C112.91,111.97 112.89,112.16 112.45,113.11 C111.24,115.77 110.93,117.14 112.21,114.57 C113.69,111.6 114.07,110.84 114.3,110.8 L114.3,110.8 Z M139.76,113.96 L134.9,117.99 C125.18,112.92 117.38,121.96 120.13,130.17 L115.93,133.83 C108.41,113.1 130.41,106.01 139.76,113.96 L139.76,113.96 Z M65.15,109.95 L66.5,111.61 L61.84,115.38 L61.28,115.42 L25.57,145.11 L25.56,142.47 L65.15,109.95 L65.15,109.95 Z M143.08,109.85 C143.25,109.84 143.41,109.85 143.55,109.87 C144,109.92 144,110.33 143.58,110.72 C143.12,111.14 142.88,111.17 142.41,110.83 C142,110.52 141.98,110.3 142.34,110.04 C142.52,109.92 142.81,109.87 143.08,109.85 L143.08,109.85 Z M70.44,109.39 C70.56,109.39 70.75,109.79 70.73,110.29 C70.7,110.88 70.45,111.66 70.05,111.83 C69.6,112.01 69.31,110.66 69.31,110.66 C69.59,110.21 69.97,109.76 70.44,109.39 L70.44,109.39 Z M130.44,108.17 C134.5,108.17 138.53,109.37 141.49,112 L139.91,113.46 C132.96,108.48 124.88,109.94 120.08,113.29 C115.34,116.61 111.14,123.96 115.25,134.32 L113.76,135.67 C109.16,127.34 111.63,116.34 119.79,111.13 C122.66,109.29 126.35,108.24 130.04,108.17 L130.44,108.17 L130.44,108.17 Z M31.89,107.58 C32.25,107.58 32.97,108.17 33.06,108.6 C33.07,109.34 32.65,110.57 32.33,110.39 C31.8,109.73 31.2,110.15 31.1,109.91 C31.03,109.18 31.5,108.22 31.82,107.59 C31.84,107.58 31.86,107.58 31.89,107.58 L31.89,107.58 Z M31.71,106.87 C31.68,106.87 31.66,106.88 31.64,106.89 C31.33,107.09 30.17,110.5 29.94,111.91 C29.87,112.33 29.97,112.74 30.31,113.07 C30.55,113.3 30.94,113.15 31.06,113.1 C31.83,112.75 32.25,112.21 32.93,110.51 C33.38,109.58 33.44,108.47 33.35,108.08 C33.32,107.92 33.07,107.55 32.75,107.34 C32.41,107.11 31.92,106.87 31.71,106.87 L31.71,106.87 Z M72.58,106.83 C81.71,122.63 76.64,138.69 66.06,146.87 C54.99,155.43 37.77,154.92 27.61,144.65 L29.02,143.32 C29.01,143.32 45.04,159.71 65.22,145.16 C75.46,137.78 79.69,120.35 71.24,108.2 L72.58,106.83 L72.58,106.83 Z M115.24,106.52 C116.1,106.52 116.39,106.83 115.29,107.35 C114.23,107.84 112.14,109.31 112.09,109.48 C112,109.75 112.78,109.32 114.09,108.61 C115.83,107.65 115.98,107.67 115.14,108.77 C114.19,110 111.9,111.54 110.1,112.12 C107.58,112.81 107.64,112.32 109.05,110.45 C110.39,108.41 111.53,107.44 113.24,106.89 C113.99,106.64 114.72,106.53 115.24,106.52 L115.24,106.52 Z M120.41,106.28 C120.7,106.3 120.8,106.57 120.53,106.93 C120.12,107.48 119.92,107.94 119.55,108.62 C118.22,110.68 117.38,111.5 116.1,112.3 C114.82,113.1 114.64,112.96 114.75,111.3 C114.89,109.57 116.13,107.75 117.87,106.9 C118.67,106.78 119.13,106.57 118.29,107.58 C116.79,109.38 117.82,109.2 119.21,107.16 C119.66,106.51 120.12,106.27 120.41,106.28 L120.41,106.28 Z M138.98,106.16 C140.57,106.14 142.87,107.24 142.62,107.91 C142.53,108.16 142.35,108.15 141.14,107.83 C140.34,107.61 138.92,107.39 139.11,107.57 C139.17,107.63 140.28,108.05 140.71,108.16 C142.11,108.49 143.79,109.29 143.42,109.53 C142.77,109.92 142.17,109.61 141.4,109.53 C139.48,109.26 136.32,108.29 135.8,107.8 C135.21,107.25 137.27,106.18 138.98,106.16 L138.98,106.16 Z M152.53,104.33 L152.62,106.46 L112.8,139.89 L111.45,138.38 L152.53,104.33 L152.53,104.33 Z M132.21,103.88 C133.01,103.87 134,104.04 135.57,104.37 C136.67,104.72 136.38,104.79 135.06,104.94 C132.58,105.21 133.61,105.5 136.02,105.46 C139.31,105.43 134.38,106.65 132.78,106.89 C131.53,106.95 131.16,106.9 128.44,106.39 C127.4,106.19 128.02,105.43 129.99,104.49 C130.79,104.1 131.4,103.9 132.21,103.88 L132.21,103.88 Z M125.72,103.85 C126.24,103.84 125.97,104.12 124.97,104.82 C123.17,106.1 124.11,105.84 126.22,104.75 C126.86,104.42 127.63,104.16 127.91,104.11 C128.18,104.06 128.5,103.99 128.63,103.95 C129.19,103.78 128.75,104.48 127.83,105.22 C125.89,106.78 123.7,108.01 122.19,108.38 C120.26,108.86 119.85,108.93 120.56,107.72 C121.69,105.8 123.34,104.26 124.92,103.96 C125.27,103.89 125.54,103.86 125.72,103.85 L125.72,103.85 Z M141.41,102.87 C142.67,102.9 145.37,104.74 146.57,106.47 C147.36,107.6 146.97,108.41 145.78,107.5 C145.54,107.32 143.84,105.87 143.74,105.83 C143.58,105.77 145.16,107.27 145.39,107.7 C145.59,108.06 146.04,108.88 145.19,108.89 C143.87,108.73 140.75,105.24 140.73,103.51 C140.73,103.05 140.99,102.86 141.41,102.87 L141.41,102.87 Z M121.27,102.44 C123.77,102.47 125.13,103.41 122.39,103.6 C117.69,104.35 116.78,105.38 122,104.15 C123.21,103.87 123.19,104.31 122.35,104.72 C121.66,105.05 120.81,105.22 120.09,105.57 C118.81,106.1 115.86,106.22 114.71,105.78 C113.02,105.14 118.34,102.41 121.27,102.44 L121.27,102.44 Z M127.32,100.45 C127.84,100.45 128.31,100.49 128.64,100.58 C130.75,101.19 131.42,101.51 132.2,102.13 C132.74,102.54 132.57,102.85 131.94,102.58 C131.22,102.27 128.91,101.58 128.5,101.62 C127.9,101.68 128.5,102.08 129.36,102.29 C131.27,102.77 132.21,103.26 130.85,103.29 C130.14,103.39 127.04,103.4 126.19,103.3 C124.77,103.13 122.66,101.84 123.14,101.38 C123.67,100.88 125.75,100.46 127.32,100.45 L127.32,100.45 Z M133.53,100.4 C135.21,100.41 138.29,101.57 139.59,103.14 C141.11,104.97 140.67,105.79 138.74,104.06 C136.67,102.55 134.96,102.2 137.84,103.98 C138.47,104.38 139.04,105.15 139.07,105.23 C139.18,105.54 138.65,105.22 136.24,104.33 C134.8,103.81 132.99,102.39 132.52,101.43 C132.16,100.7 132.66,100.39 133.53,100.4 L133.53,100.4 Z M149.77,105.23 L148.69,106.39 C119.18,84.347 92,117.82 106.98,141.77 C106.85,142.07 105.81,142.84 105.81,142.84 C89.1,115.04 121.06,82.512 149.77,105.23 L149.77,105.23 Z M54.27,96.56 L55.57,98.14 L25.35,122.86 L25.24,120.27 L54.27,96.56 L54.27,96.56 Z M54.33,95.72 C54.33,95.72 33.98,112.63 23.93,120.8 L23.99,124.45 L56.18,97.99 L54.33,95.72 L54.33,95.72 Z M53.44,90.62 C53.46,93.96 43.02,95.65 42.48,93.96 C44.3,92.53 49.68,93.17 50.81,91.89 C49.44,91.81 47.58,92.03 46.3,92.06 C44.71,92.08 42.14,92.77 42.12,93.05 C41.95,92.17 44.85,90.52 47.15,90.42 C49.29,90.32 51.62,90.58 53.44,90.62 L53.44,90.62 Z M42.22,87.05 C42.46,87.041 42.65,87.339 42.64,87.893 C42.6,88.672 42.23,89.444 41.88,90.22 C41.14,91.8 40.4,92.96 40.02,92.97 C39.11,92.98 39.13,92.77 40.34,90.39 C40.9,89.307 41.47,88.066 41.56,87.826 C41.75,87.306 42.01,87.058 42.22,87.05 L42.22,87.05 Z M103.84,84.464 L107.11,84.521 C107.11,84.521 107.72,85.261 108,85.527 C109.41,87.132 109.53,86.813 106.42,88.572 C104.46,89.684 103.59,90.2 103.48,90.67 C103.39,91.13 104.34,92.07 104.45,92.69 C104.45,92.76 101.78,94.55 101.3,94.81 C100.63,95.14 100.59,95.42 101.26,96.58 C102.03,97.92 101.97,97.88 100.31,99.04 C98.69,100.17 98.38,100.06 99.06,101.18 C100.02,102.75 99.57,103.1 97.32,104.32 C96.75,104.63 96.74,104.94 97.13,106.01 C97.69,107.49 97.83,107.34 96.67,108.15 C95.29,109.1 95.05,109.12 95.35,109.71 C96.24,111.39 96.59,111.81 95.41,112.36 C94.51,112.78 94.49,113.02 94.99,114.13 C95.49,115.25 95.62,115.21 94.73,115.84 C93.9,116.43 93.42,116.3 94.22,117.25 C94.86,118.01 94.8,118.61 94.28,119.08 C93.84,119.26 93.63,120.11 93.76,120.13 L92.62,120.16 C91.72,118.95 92.78,118.25 92.94,118.14 C93.08,117.86 92.9,117.66 92.54,117 C92.04,116.1 92.06,115.99 92.78,115.46 C93.5,114.93 93.52,115.06 93.04,113.88 C92.48,112.51 92.51,112.35 93.39,111.72 C94.26,111.09 94.27,110.95 93.68,109.75 C93.06,108.48 93.06,108.48 94.6,107.45 C95.69,106.72 95.7,106.77 95.13,105.43 C94.73,104.5 95.01,104.18 96.49,103.16 C97.33,102.58 97.4,102.47 97,101.78 C95.9,99.87 95.91,99.81 97.8,98.58 C99.35,97.58 99.33,97.49 98.74,96.15 C98.09,94.7 98.04,94.81 100.15,93.54 C101.9,92.49 101.99,92.55 101.28,91.29 C100.38,89.715 100.44,89.972 103.93,87.97 C105.19,87.104 106.32,87.404 105.07,85.932 C104.52,85.225 103.84,84.464 103.84,84.464 L103.84,84.464 Z M130.29,84.628 C134.08,87.831 136.88,89.664 138.88,90.39 C138.88,90.39 136.21,94.84 136,94.68 C120.63,91.7 102.36,100.7 98.22,120.1 L95.8,120.12 C96.69,112.5 98.69,106.15 102.36,99.51 C106.01,93.08 109.37,89.313 114.43,84.57 L130.29,84.628 L130.29,84.628 Z M96.27,84.397 L102.89,84.482 C95.21,94.33 91.52,106.92 90.19,120.21 L87.69,120.17 C87.53,109.79 90.78,96.83 96.27,84.397 L96.27,84.397 Z M93.38,84.366 C93.38,84.366 93.8,84.92 93.86,85.15 C93.97,85.649 93.49,86.107 91.95,86.793 C91.42,87.029 90.98,87.156 91,87.465 C91.07,88.19 92.45,89.297 92.28,90.28 C91.96,91.04 90.04,91.78 89.56,92.67 C89.57,93.29 90.81,94.22 90.63,95.06 C90.54,95.31 90.14,95.56 89.54,96.08 C88.32,97.14 88.25,97.3 88.69,98.13 C89.73,100.05 89.77,99.91 88.35,101.27 C86.92,102.64 86.95,102.63 87.63,103.82 C88.37,105.11 88.34,105.05 87.35,105.88 C86.38,106.68 86.42,106.85 86.94,107.85 C87.44,108.82 87.55,108.84 86.71,109.59 C85.72,110.47 85.54,110.56 86.23,111.66 C86.95,112.8 87.01,112.76 86.2,113.69 C85.43,114.57 85.34,114.61 85.75,115.22 C86.28,115.97 86.38,116.17 85.83,117 C85.23,117.9 85.24,117.84 85.78,118.67 C86.24,119.38 86.16,120.16 86.16,120.16 L84.44,120.16 C84.44,120.16 84.43,119.16 84.23,118.8 C83.74,117.92 83.76,117.64 84.33,116.86 C84.93,116.05 84.83,115.98 84.28,115.18 C83.72,114.37 83.8,114.38 84.52,113.45 C85.19,112.6 85.22,112.2 84.85,111.71 C83.95,110.56 83.95,110.08 84.85,109.32 C85.54,108.74 85.61,108.48 85.01,107.48 C84.43,106.51 84.36,106.42 85.43,105.45 C86.52,104.46 86.51,104.48 85.77,103.36 C85.06,102.27 85.1,102.2 86.24,101.13 C87.4,100.06 87.41,100.06 86.66,98.7 C85.95,97.43 85.94,97.45 87.32,96.21 C88.7,95.06 89.17,94.92 87.8,93.26 C87.03,91.95 87.58,91.82 88.83,91.17 C91.04,89.818 90.03,89.902 89.11,87.896 C88.33,86.552 88.78,86.542 90.13,85.869 C90.46,85.725 90.83,85.559 91.21,85.345 C92.11,84.84 91.63,84.378 91.63,84.378 L93.38,84.366 L93.38,84.366 Z M30.05,84.312 C30.29,84.31 30.79,84.622 31.75,85.201 C32.61,85.722 33.73,86.379 34.24,86.665 C36.15,87.738 37.1,88.751 37.64,90.3 C38.04,91.45 37.79,91.48 36.63,90.39 C35.76,89.574 34.83,88.876 32.52,87.286 C31.71,86.727 31.45,86.818 31.92,87.5 C32.26,87.991 32.99,88.55 34.48,89.457 C35.55,90.12 37.04,91.43 36.92,91.63 C36.81,91.8 36.63,91.79 36.11,91.56 C35.87,91.46 35.1,91.14 34.39,90.85 C31.37,89.62 30.08,88.107 29.9,85.594 C29.84,84.718 29.78,84.314 30.05,84.312 L30.05,84.312 Z M73.71,84.297 L87.58,84.351 C84.61,95.72 82.53,102.41 82.21,120.19 L78.2,120.22 C78.64,119.81 76.13,109.48 73.2,105.9 C79.34,95.42 76.03,89.505 73.71,84.297 L73.71,84.297 Z M72.75,84.164 C76.19,89.564 79.17,99.79 68.91,109.16 L67.68,107.65 C76.61,98.9 74.51,91.54 70.51,84.23 L72.75,84.164 L72.75,84.164 Z M66.44,83.916 L64.78,83.924 L63.15,85.83 C69.29,92.33 69.07,97.96 63.34,102.87 L65.65,105.46 C72.06,99.94 73.49,91.28 66.44,83.916 L66.44,83.916 Z M45.48,82.712 C47.91,84.203 46.12,87.346 43.52,86.812 C41.58,85.958 41.18,83.94 42.93,82.769 L44.29,83.899 L45.48,82.712 L45.48,82.712 Z M66.97,81.407 L128.09,81.605 L129.72,83.613 C108.38,83.982 87.49,83.269 65.69,83.252 L66.97,81.407 L66.97,81.407 Z M126.25,78.833 L127.77,80.93 L124.92,80.953 L126.25,78.833 L126.25,78.833 Z M42.07,79.2 L40.74,80.702 L42.2,82.107 C41.26,83.417 37.65,83.313 38.37,80.162 C38.83,78.161 40.86,77.793 42.07,79.2 L42.07,79.2 Z M50.31,80.582 C49.88,83.469 47.11,83.312 46.32,81.899 L47.45,80.606 L46.07,79.242 C47.41,77.077 50.64,78.401 50.31,80.582 L50.31,80.582 Z M44.09,78.161 L46.54,80.646 L44.15,83.054 L41.68,80.685 L44.09,78.161 L44.09,78.161 Z M115.82,77.524 L120.97,77.524 L118.85,80.953 L113.88,80.953 L115.82,77.524 L115.82,77.524 Z M104.49,77.524 L109.5,77.524 L107.46,80.953 L102.53,80.953 L104.49,77.524 L104.49,77.524 Z M92.87,77.524 L97.81,77.524 L95.86,80.953 L90.98,80.953 L92.87,77.524 L92.87,77.524 Z M86.47,77.524 L84.4,80.739 L79.63,80.739 L81.54,77.59 L86.47,77.524 L86.47,77.524 Z M69.24,77.524 L74.71,77.524 L72.51,80.619 L67.35,80.619 C67.35,80.619 68.5,78.643 69.24,77.524 L69.24,77.524 Z M123.43,74.483 L124.86,76.6 L121.91,76.6 L123.43,74.483 L123.43,74.483 Z M44.02,74.451 C46.92,74.472 46.85,77.146 45.58,78.664 L44.04,77.389 L42.8,78.542 C41.44,77.673 41.45,74.433 44.02,74.451 L44.02,74.451 Z M43.97,73.753 C40.66,73.715 41.28,78.126 41.59,77.988 C39.51,77.51 37.97,78.502 37.72,80.281 C37.51,81.692 38.89,83.705 41.29,83.424 C40.97,83.794 41.3,85.929 41.62,86.123 C41.62,86.123 41.66,86.433 40.39,89.089 C38.88,92.24 38.58,92.39 37.89,90.32 C37.16,88.092 36.03,86.964 33.07,85.523 C32.28,85.14 31.17,84.471 30.59,84.036 C29.28,83.038 29.26,83.054 29.32,85.081 C29.4,87.713 30.2,88.867 33,90.42 C34.37,91.18 36.99,92.25 37.46,92.25 C37.8,92.25 39.03,92.8 40.84,93.77 C41.2,93.96 42.42,94.63 43.97,94.79 C45.63,94.9 49.35,94.51 51.51,93.26 C52.72,92.56 53.19,91.93 54.08,90.13 C54.08,90.13 51.02,90.29 49.63,89.924 C46.72,89.752 45.28,89.921 43.08,91.07 C41.23,92.03 41.13,92.2 41.9,90.61 C42.25,89.886 42.58,89.029 42.88,88.176 C43.2,87.327 43.28,87.256 44.09,87.174 C45.85,86.993 46.86,85.97 47.02,84.195 C47.07,83.72 47,83.218 47,83.218 C48.2,83.396 50.66,82.798 50.58,80.297 C50.51,78.048 48.92,77.531 46.95,77.377 C47.2,76.225 46.37,73.78 43.97,73.753 L43.97,73.753 Z M112.6,73.229 L117.71,73.229 L115.8,76.6 L110.51,76.6 L112.6,73.229 L112.6,73.229 Z M106.21,73.229 L104.06,76.6 L98.87,76.6 L101.1,73.26 L106.21,73.229 L106.21,73.229 Z M89.71,73.229 L94.81,73.229 L92.54,76.6 L87.48,76.6 L89.71,73.229 L89.71,73.229 Z M77.84,73.229 L83.19,73.229 L81.21,76.604 L75.69,76.604 L77.84,73.229 L77.84,73.229 Z M73.24,70.402 L120.88,70.402 L122.08,72.348 L72.06,72.348 L73.24,70.402 L73.24,70.402 Z M74.61,67.439 L91.16,67.458 C94.04,69.675 96.86,69.382 100.94,67.604 L119.35,67.604 L120.39,69.501 L73.71,69.501 C73.97,68.796 74.61,67.439 74.61,67.439 L74.61,67.439 Z M145.52,55.563 C145.88,55.741 146.17,57.108 145.92,57.343 C145.48,57.436 145.19,57.404 145.04,57.252 C144.82,56.892 145.24,55.634 145.52,55.563 L145.52,55.563 Z M148.78,53.96 C149.66,55.104 150.44,56.282 150.88,57.528 C150.47,57.516 150.09,57.644 149.63,57.287 C149.52,56.028 149.01,55.272 148.36,54.434 L148.78,53.96 L148.78,53.96 Z M146.46,52.683 C147.06,52.683 147.54,53.171 147.54,53.77 C147.54,54.369 147.06,54.854 146.46,54.854 C145.87,54.854 145.38,54.369 145.38,53.77 C145.38,53.171 145.87,52.683 146.46,52.683 L146.46,52.683 Z M83.25,43.08 C83.64,44.666 75.84,68.475 64.76,83.625 L69.6,83.726 L69.75,84.262 C76.53,94.31 72.29,103.2 66.82,107.33 L68.71,109.86 L67.01,111.25 L65.3,109.21 C51.43,119.66 24.36,142.78 24.36,142.78 L24.51,146.49 L26.62,144.82 C40.35,158.17 69.47,157.44 77.11,129.89 L79.15,129.94 C74.53,150.13 55.74,158.03 41.56,154.68 L38.23,159.47 L39.12,159.95 C38.96,159.7 38.81,159.61 39.05,159.37 L41.87,155.73 C63.09,158.46 75.91,146.4 80.06,130.06 L82.77,130.11 C80.45,143.83 74.04,155.91 64.91,165.36 C58.31,165.34 46.72,165.19 46.72,165.19 C50.94,169.29 59,181.82 59.33,183.1 C59.33,183.1 67.62,183.36 76.51,183.14 C79.77,181.67 84.14,181.08 86.18,182.11 C89.76,183.92 93.12,190.64 94.63,201.43 C95.02,204.21 95.38,205.38 95.49,205.95 C95.5,206.05 95.75,206.12 95.78,206.1 C95.92,206.03 95.57,206.59 95.55,207.01 C95.54,207.43 95.55,208.06 95.75,208.28 C96,208.55 95.97,208.73 95.93,208.85 C95.91,208.93 95.43,209.38 95.43,209.38 C95.36,215.67 95.39,221.37 95.05,229.1 L96.28,229.11 C96.27,216.67 100.01,205.16 105.77,197.24 C109.27,192.04 112.97,186.44 115.02,181.11 C117.33,175.1 117.65,168.79 116.41,163.47 L115.57,163.52 C110.5,160.03 108.44,152.59 114.68,147.27 L112.47,144.39 C106.24,149.22 104.81,158.15 111.26,165.53 L108.74,165.52 C102.44,157.63 103.83,148.57 111.11,142.1 L109.48,140.02 L111.25,138.46 L112.85,140.21 L153.48,106.13 L153.46,102.39 L150.34,104.93 C132.11,88.012 105.08,99.88 101.12,120.26 L98.64,120.29 C103.84,98.36 122.98,92.16 136.83,95.08 L140.24,89.888 C137.73,89.179 135.28,87.504 132.96,85.524 C131.99,84.69 131.37,84.18 130.66,83.345 C124.11,76.387 119.65,66.725 119.45,66.708 L101.61,66.664 C99,67.963 94.52,69.44 92.06,67.447 C86.78,63.167 85.01,54.533 84.28,48.978 C84.06,47.249 83.88,44.24 83.72,43.242 C83.62,43.06 83.42,43.049 83.24,43.08 L83.25,43.08 L83.25,43.08 Z M138.8,40.912 C139.41,40.912 139.9,41.409 139.9,42.022 C139.9,42.636 139.41,43.134 138.8,43.134 C138.19,43.134 137.69,42.636 137.69,42.022 C137.69,41.409 138.19,40.912 138.8,40.912 L138.8,40.912 Z M131.07,28.772 C131.67,28.772 132.16,29.266 132.16,29.872 C132.16,30.478 131.67,30.971 131.07,30.971 C130.46,30.971 129.97,30.478 129.97,29.872 C129.97,29.266 130.46,28.772 131.07,28.772 L131.07,28.772 Z M117.4,21.662 L140.72,58.064 L136.46,60.158 L112.6,21.795 L117.4,21.662 L117.4,21.662 Z M82.18,21.704 L83.14,21.704 C82.86,26.037 82.24,31.755 82.64,35.98 C83.11,40.017 83.13,40.59 82.85,40.99 C82.45,41.435 82.66,41.645 82.74,42.007 C82.84,42.671 82.85,42.678 82.76,43.055 C81.91,46.443 80.84,49.955 79.47,53.506 C75,65.89 67.7,79.393 61.97,86.475 C61.97,86.449 61.71,86.497 61.71,86.472 C60.14,76.59 63.49,68.354 65.24,64.973 C68.78,58.119 74.34,52.27 77.65,45.089 C80.46,38.979 82.53,31.636 82.18,21.704 L82.18,21.704 Z M141.94,21.644 C141.13,30.73 142.95,43.211 147.2,50.585 C147.2,50.585 147.07,51.08 146.98,51.215 C146.57,51.827 146.37,51.297 146.13,50.803 C145.22,49.123 143.51,48.862 142.76,49.797 C141.11,52.061 142.9,52.954 144.29,54.232 C138.6,53.884 136.71,47.596 138.02,44.485 C137.99,45.078 138.31,45.974 138.73,46.608 C140.33,49.044 142.66,46.989 141.99,45.063 C141.71,44.266 140.69,42.937 140.69,42.937 C140.69,42.937 142.08,42.731 142.65,42.388 C143.18,42.058 143.51,41.474 143.37,40.675 C143.26,40.034 143.24,39.754 142.89,39.176 C142.47,38.65 141.72,38.286 141.12,38.326 C139.95,38.405 139.8,39.217 139.03,39.772 C138.84,38.311 137.91,37.198 136.39,37.475 C135.23,37.686 134.39,38.922 135.1,40.47 C135.46,41.261 135.97,41.5 136.47,42.186 C128.3,41.267 129.19,31.518 130.09,31.692 C130.09,31.692 130.34,31.646 130.27,32.02 C129.8,34.404 132.75,35.83 134.04,34.097 C134.87,32.69 133.1,30.471 133.1,30.471 C133.1,30.471 134.28,30.217 134.81,29.906 C136.95,28.67 134.67,25.118 132.69,25.99 C131.99,26.31 131.81,26.958 131.13,27.304 C130.68,26.796 130.65,26.24 129.83,25.783 C127.59,24.53 126.19,27.495 127.43,28.8 C127.94,29.328 128.83,29.811 128.66,29.875 C121.71,28.994 121.77,21.689 121.93,21.74 L141.94,21.644 L141.94,21.644 Z M118.38,21.644 L121.03,21.698 C121.44,29.832 128.26,30.891 129.31,30.771 C127.57,36.272 130.46,42.31 137.4,43.167 C135.81,48.267 138.63,54.989 144.19,54.807 L144.77,55.18 C144.42,55.914 144.34,57.424 144.36,57.447 C143.12,57.538 142.45,57.719 141.65,57.878 C134.47,47.007 118.38,21.644 118.38,21.644 L118.38,21.644 Z M79.58,39.293 C76.77,48.399 69.82,55.891 65.7,63.436 C61.28,71.667 60.24,78.83 61.48,86.665 L62.29,86.735 C71.72,73.827 79.02,58.405 83.1,43.239 C83.19,42.909 83.04,42.326 83.11,41.991 C82.94,41.591 83.09,41.157 83.2,41.04 C83.44,40.789 83.35,39.805 83.17,38.178 C82.73,33.346 82.82,29.552 83.22,25.172 C83.53,21.809 83.51,21.279 83.51,21.279 L81.9,21.255 C82.2,26.979 81.44,34.033 79.58,39.293 L79.58,39.293 Z M107.98,21.247 C107.96,21.235 107.96,21.229 107.96,21.247 L107.98,21.247 L107.98,21.247 Z M110.98,20.412 L111.6,21.228 L107.98,21.247 C108.57,21.748 121.97,48.82 139.1,80.099 C141.94,85.588 147.35,87.566 153.63,87.807 L136.99,60.903 C138.76,59.935 142.28,57.34 144.41,57.821 C144.54,58.478 145.17,58.217 145.18,57.634 L145.95,57.649 L146.22,58.072 L149.46,58.072 L149.72,57.689 L152.51,58.092 C145.06,48.873 141.13,34.667 142.41,20.801 L117.7,20.854 L117.37,20.42 L110.98,20.412 L110.98,20.412 Z" id="Fill-140" fill="#0A0A08"></path>
        <path d="M130.14,223.55 C137.96,223.38 141.47,214.58 135.68,207.74 C134.84,206.74 134.75,206.17 136.29,207.13 C140.19,209.74 147.67,208.02 148.05,200.05 C148.52,190.23 134.8,187.4 132.22,197.84 C132.09,198.95 131.19,198.92 131.41,197.36 C131.64,193.11 132.97,189.14 134.79,185.27 L125.49,185.27 C127.32,189.14 128.64,193.11 128.88,197.36 C129.09,198.92 128.2,198.95 128.06,197.84 C125.48,187.4 111.76,190.23 112.23,200.05 C112.62,208.02 120.09,209.74 123.99,207.13 C125.53,206.17 125.44,206.74 124.6,207.74 C118.81,214.58 122.32,223.38 130.14,223.55 L130.15,223.55 L130.14,223.55" id="Fill-141" fill="#0A0A08"></path>
        <path d="M47.69,27.045 C55.51,27.215 59.01,36.019 53.22,42.855 C52.38,43.853 52.3,44.425 53.83,43.467 C57.73,40.859 65.21,42.573 65.59,50.545 C66.07,60.366 52.34,63.196 49.77,52.753 C49.63,51.65 48.73,51.676 48.95,53.24 C49.19,57.485 50.51,61.453 52.33,65.322 L43.04,65.322 C44.86,61.453 46.19,57.485 46.42,53.24 C46.64,51.676 45.74,51.65 45.6,52.753 C43.03,63.196 29.3,60.366 29.78,50.545 C30.16,42.573 37.64,40.859 41.54,43.467 C43.07,44.425 42.99,43.853 42.15,42.855 C36.36,36.019 39.86,27.215 47.68,27.045 L47.69,27.045" id="Fill-142" fill="#0A0A08"></path>
    </g>
</svg>