<?xml version="1.0" encoding="UTF-8"?>
<svg width="40px" height="49px" viewBox="0 0 40 49" version="1.1" xmlns="http://www.w3.org/2000/svg" xmlns:xlink="http://www.w3.org/1999/xlink">
    <!-- Generator: Sketch 41 (35326) - http://www.bohemiancoding.com/sketch -->
    <title>spade</title>
    <desc>Created with Sketch.</desc>
    <defs></defs>
    <g id="Page-1" stroke="none" stroke-width="1" fill="none" fill-rule="evenodd">
        <path d="M20.02022,0.746031 C10.79422,13.903151 0.92252,21.474601 0.75852,31.739361 C0.70352,35.063261 2.50062,40.712791 8.12962,41.794151 C11.78162,42.492471 16.80972,39.536671 16.91472,33.531631 C16.89872,32.336081 18.18062,32.367151 18.16862,34.005351 C17.99662,38.742061 16.49722,44.256911 13.97722,48.746031 L26.06322,48.746031 C23.54322,44.256901 22.04382,38.742061 21.87182,34.005351 C21.85982,32.367151 23.14172,32.336081 23.12572,33.531631 C23.23072,39.536671 28.25882,42.492471 31.91082,41.794151 C37.53982,40.712791 39.33692,35.063261 39.28192,31.739361 C39.11792,21.474601 29.24622,13.903151 20.02022,0.746031 L20.02022,0.746031 Z" id="path4259" fill="#000000"></path>
    </g>
</svg>