<?xml version="1.0" encoding="UTF-8" standalone="no"?>
<svg width="179px" height="250px" viewBox="0 0 179 250" version="1.1" xmlns="http://www.w3.org/2000/svg" xmlns:xlink="http://www.w3.org/1999/xlink">
    <!-- Generator: Sketch 39.1 (31720) - http://www.bohemiancoding.com/sketch -->
    <title>4H</title>
    <desc>Created with Sketch.</desc>
    <defs></defs>
    <g id="Page-1" stroke="none" stroke-width="1" fill="none" fill-rule="evenodd">
        <path d="M8.86,0.42 L169.64,0.42 C174.34,0.42 178.14,4.23 178.14,8.93 L178.14,240.57 C178.14,245.27 174.34,249.07 169.64,249.07 L8.86,249.07 C4.17,249.07 0.36,245.27 0.36,240.57 L0.36,8.93 C0.36,4.23 4.17,0.42 8.86,0.42" id="Fill-332" fill="#FFFFFF"></path>
        <path d="M14.07,56.22 C14.07,56.22 12.3,53.68 9.91,50.69 C8.31,48.69 7.03,46.52 6.91,44.65 C6.78,42.52 8.07,40.38 10.4,40.28 C12.74,40.17 13.69,41.92 14.07,43.36 C14.46,41.92 15.41,40.17 17.74,40.28 C20.08,40.38 21.37,42.52 21.23,44.65 C21.11,46.52 19.83,48.69 18.23,50.69 C15.84,53.68 14.07,56.22 14.07,56.22" id="Fill-334" fill="#C0242A"></path>
        <path d="M164.43,193.27 C164.43,193.28 162.66,195.82 160.27,198.81 C158.67,200.81 157.39,202.98 157.28,204.84 C157.14,206.97 158.43,209.11 160.76,209.22 C163.1,209.32 164.05,207.57 164.43,206.13 C164.82,207.57 165.77,209.32 168.1,209.22 C170.44,209.11 171.73,206.97 171.59,204.84 C171.47,202.98 170.19,200.81 168.59,198.81 C166.21,195.82 164.43,193.28 164.43,193.27" id="Fill-335" fill="#C0242A"></path>
        <path d="M48.02,64.77 C48.02,64.77 44.31,58.67 39.29,51.49 C35.94,46.69 33.26,41.48 33.01,37 C32.72,31.89 35.43,26.75 40.33,26.5 C45.23,26.26 47.21,30.45 48.02,33.91 C48.83,30.45 50.82,26.26 55.72,26.5 C60.62,26.75 63.32,31.89 63.04,37 C62.79,41.48 60.11,46.69 56.75,51.49 C51.74,58.67 48.03,64.77 48.02,64.77" id="Fill-336" fill="#C0242A"></path>
        <path d="M130.48,64.77 C130.48,64.77 126.76,58.67 121.75,51.49 C118.4,46.69 115.72,41.48 115.47,37 C115.18,31.89 117.89,26.75 122.79,26.5 C127.68,26.26 129.67,30.45 130.48,33.91 C131.29,30.45 133.28,26.26 138.17,26.5 C143.07,26.75 145.78,31.89 145.49,37 C145.25,41.48 142.56,46.69 139.21,51.49 C134.2,58.67 130.48,64.77 130.48,64.77" id="Fill-337" fill="#C0242A"></path>
        <path d="M130.48,184.72 C130.48,184.73 126.76,190.83 121.75,198.01 C118.4,202.81 115.72,208.01 115.47,212.49 C115.18,217.61 117.89,222.74 122.79,222.99 C127.68,223.24 129.67,219.04 130.48,215.59 C131.29,219.04 133.28,223.24 138.17,222.99 C143.07,222.74 145.78,217.61 145.49,212.49 C145.25,208.01 142.56,202.81 139.21,198.01 C134.2,190.83 130.48,184.73 130.48,184.72" id="Fill-338" fill="#C0242A"></path>
        <path d="M48.02,184.72 C48.02,184.73 44.31,190.83 39.29,198.01 C35.94,202.81 33.26,208.01 33.01,212.49 C32.72,217.61 35.43,222.74 40.33,222.99 C45.23,223.24 47.21,219.04 48.02,215.59 C48.83,219.04 50.82,223.24 55.72,222.99 C60.62,222.74 63.32,217.61 63.04,212.49 C62.79,208.01 60.11,202.81 56.75,198.01 C51.74,190.83 48.03,184.73 48.02,184.72" id="Fill-339" fill="#C0242A"></path>
        <path d="M16.35,17.84 L9.15,28.91 L16.35,28.91 L16.35,17.84 L16.35,17.84 Z M14.25,37.77 L14.25,35.44 L16.35,35.44 L16.35,31.61 L5.87,31.61 L5.87,28.91 L17.21,11.46 L19.06,11.47 L19.06,28.91 L22.27,28.91 L22.27,31.61 L19.06,31.61 L19,35.44 L20.76,35.44 L20.76,37.77 L14.25,37.77 L14.25,37.77 Z" id="Fill-340" fill="#C0242A"></path>
        <path d="M162.15,231.65 L169.35,220.59 L162.15,220.59 L162.15,231.65 L162.15,231.65 Z M164.25,211.73 L164.25,214.05 L162.15,214.05 L162.15,217.88 L172.63,217.88 L172.63,220.59 L161.29,238.04 L159.44,238.03 L159.44,220.59 L156.23,220.59 L156.23,217.88 L159.44,217.88 L159.5,214.05 L157.74,214.05 L157.74,211.72 L164.25,211.72 L164.25,211.73 L164.25,211.73 Z" id="Fill-341" fill="#C0242A"></path>
    </g>
</svg>