<?xml version="1.0" encoding="UTF-8" standalone="no"?>
<svg width="179px" height="250px" viewBox="0 0 179 250" version="1.1" xmlns="http://www.w3.org/2000/svg" xmlns:xlink="http://www.w3.org/1999/xlink">
    <!-- Generator: Sketch 39.1 (31720) - http://www.bohemiancoding.com/sketch -->
    <title>5H</title>
    <desc>Created with Sketch.</desc>
    <defs></defs>
    <g id="Page-1" stroke="none" stroke-width="1" fill="none" fill-rule="evenodd">
        <path d="M9.45,0.42 L170.22,0.42 C174.92,0.42 178.73,4.23 178.73,8.93 L178.73,240.57 C178.73,245.27 174.92,249.07 170.22,249.07 L9.45,249.07 C4.75,249.07 0.94,245.27 0.94,240.57 L0.94,8.93 C0.94,4.23 4.75,0.42 9.45,0.42" id="Fill-342" fill="#FFFFFF"></path>
        <path d="M14.65,56.22 C14.65,56.22 12.88,53.68 10.49,50.69 C8.89,48.69 7.62,46.52 7.5,44.65 C7.36,42.52 8.65,40.38 10.99,40.28 C13.32,40.17 14.27,41.92 14.65,43.36 C15.04,41.92 15.99,40.17 18.32,40.28 C20.66,40.38 21.95,42.52 21.81,44.65 C21.69,46.52 20.42,48.69 18.82,50.69 C16.43,53.68 14.65,56.22 14.65,56.22" id="Fill-344" fill="#C0242A"></path>
        <path d="M165.02,193.27 C165.02,193.27 163.24,195.82 160.85,198.81 C159.25,200.81 157.98,202.98 157.86,204.84 C157.72,206.97 159.01,209.11 161.35,209.22 C163.68,209.32 164.63,207.57 165.02,206.13 C165.4,207.57 166.35,209.32 168.68,209.22 C171.02,209.11 172.31,206.97 172.17,204.84 C172.05,202.98 170.78,200.81 169.18,198.81 C166.79,195.82 165.02,193.27 165.02,193.27" id="Fill-345" fill="#C0242A"></path>
        <path d="M48.61,64.77 C48.61,64.77 44.89,58.67 39.88,51.49 C36.52,46.69 33.84,41.48 33.59,37 C33.31,31.89 36.01,26.75 40.91,26.5 C45.81,26.26 47.8,30.45 48.61,33.91 C49.42,30.45 51.4,26.26 56.3,26.5 C61.2,26.75 63.91,31.89 63.62,37 C63.37,41.48 60.69,46.69 57.34,51.49 C52.32,58.67 48.61,64.77 48.61,64.77" id="Fill-346" fill="#C0242A"></path>
        <path d="M131.06,64.77 C131.06,64.77 127.35,58.67 122.33,51.49 C118.98,46.69 116.3,41.48 116.05,37 C115.76,31.89 118.47,26.75 123.37,26.5 C128.27,26.26 130.25,30.45 131.06,33.91 C131.87,30.45 133.86,26.26 138.76,26.5 C143.66,26.75 146.36,31.89 146.08,37 C145.83,41.48 143.15,46.69 139.79,51.49 C134.78,58.67 131.06,64.77 131.06,64.77" id="Fill-347" fill="#C0242A"></path>
        <path d="M89.83,143.89 C89.83,143.89 86.12,137.78 81.11,130.6 C77.75,125.8 75.07,120.6 74.82,116.12 C74.54,111 77.24,105.87 82.14,105.62 C87.04,105.37 89.03,109.57 89.83,113.02 C90.64,109.57 92.63,105.37 97.53,105.62 C102.43,105.87 105.13,111 104.85,116.12 C104.6,120.6 101.92,125.8 98.56,130.6 C93.55,137.78 89.83,143.89 89.83,143.89" id="Fill-348" fill="#C0242A"></path>
        <path d="M131.06,184.72 C131.06,184.72 127.35,190.83 122.33,198.01 C118.98,202.81 116.3,208.01 116.05,212.49 C115.76,217.61 118.47,222.74 123.37,222.99 C128.27,223.24 130.25,219.04 131.06,215.59 C131.87,219.04 133.86,223.24 138.76,222.99 C143.66,222.74 146.36,217.61 146.08,212.49 C145.83,208.01 143.15,202.81 139.79,198.01 C134.78,190.83 131.06,184.72 131.06,184.72" id="Fill-349" fill="#C0242A"></path>
        <path d="M48.61,184.72 C48.61,184.72 44.89,190.83 39.88,198.01 C36.52,202.81 33.84,208.01 33.59,212.49 C33.31,217.61 36.01,222.74 40.91,222.99 C45.81,223.24 47.8,219.04 48.61,215.59 C49.42,219.04 51.4,223.24 56.3,222.99 C61.2,222.74 63.91,217.61 63.62,212.49 C63.37,208.01 60.69,202.81 57.34,198.01 C52.32,190.83 48.61,184.72 48.61,184.72" id="Fill-350" fill="#C0242A"></path>
        <path d="M6.37,30.96 L8.95,30.93 C9.44,32.52 10.52,34.14 12,34.59 C16.17,35.58 18.86,33.21 19.74,30.47 C20.81,27.14 19.72,22.47 16.84,20.81 C14.46,19.44 10.93,20.6 9.3,23.54 L7.5,22.41 L8.47,11.46 L20.26,11.46 L20.26,14.05 L10.7,14.05 L10.55,18.61 C12.61,17.14 15.77,17.15 17.82,18.19 C21.72,20.08 23.52,24.38 22.77,29.46 C21.72,34.5 19.41,37.36 14.19,37.77 C8.39,37.83 6.34,33.76 6.37,30.96" id="Fill-351" fill="#C0242A"></path>
        <path d="M173.3,218.54 L170.72,218.56 C170.23,216.97 169.14,215.36 167.67,214.91 C163.5,213.91 160.81,216.29 159.93,219.03 C158.86,222.35 159.95,227.02 162.82,228.68 C165.2,230.05 168.74,228.9 170.36,225.96 L172.17,227.08 L171.2,238.04 L159.41,238.04 L159.41,235.45 L168.96,235.45 L169.12,230.88 C167.06,232.36 163.9,232.34 161.84,231.31 C157.95,229.41 156.14,225.11 156.9,220.04 C157.95,214.99 160.26,212.13 165.47,211.72 C171.28,211.67 173.32,215.74 173.3,218.54" id="Fill-352" fill="#C0242A"></path>
    </g>
</svg>