<?xml version="1.0" encoding="UTF-8" standalone="no"?>
<svg width="179px" height="250px" viewBox="0 0 179 250" version="1.1" xmlns="http://www.w3.org/2000/svg" xmlns:xlink="http://www.w3.org/1999/xlink">
    <!-- Generator: Sketch 39.1 (31720) - http://www.bohemiancoding.com/sketch -->
    <title>6H</title>
    <desc>Created with Sketch.</desc>
    <defs></defs>
    <g id="Page-1" stroke="none" stroke-width="1" fill="none" fill-rule="evenodd">
        <path d="M9.03,0.42 L169.81,0.42 C174.5,0.42 178.31,4.23 178.31,8.93 L178.31,240.57 C178.31,245.27 174.5,249.07 169.81,249.07 L9.03,249.07 C4.33,249.07 0.52,245.27 0.52,240.57 L0.52,8.93 C0.52,4.23 4.33,0.42 9.03,0.42" id="Fill-353" fill="#FFFFFF"></path>
        <path d="M14.24,56.22 C14.24,56.22 12.46,53.68 10.08,50.69 C8.48,48.69 7.2,46.52 7.08,44.65 C6.94,42.52 8.23,40.38 10.57,40.28 C12.9,40.17 13.85,41.92 14.24,43.36 C14.62,41.92 15.57,40.17 17.91,40.28 C20.24,40.38 21.53,42.52 21.39,44.65 C21.28,46.52 20,48.69 18.4,50.69 C16.01,53.68 14.24,56.22 14.24,56.22" id="Fill-355" fill="#C0242A"></path>
        <path d="M164.6,193.27 C164.6,193.27 162.83,195.82 160.44,198.81 C158.84,200.81 157.56,202.98 157.44,204.84 C157.3,206.97 158.59,209.11 160.93,209.22 C163.27,209.32 164.21,207.57 164.6,206.13 C164.98,207.57 165.93,209.32 168.27,209.22 C170.6,209.11 171.89,206.97 171.76,204.84 C171.64,202.98 170.36,200.81 168.76,198.81 C166.37,195.82 164.6,193.27 164.6,193.27" id="Fill-356" fill="#C0242A"></path>
        <path d="M48.19,64.77 C48.19,64.77 44.47,58.67 39.46,51.49 C36.11,46.69 33.42,41.48 33.17,37 C32.89,31.89 35.6,26.75 40.5,26.5 C45.39,26.26 47.38,30.45 48.19,33.91 C49,30.45 50.99,26.26 55.88,26.5 C60.78,26.75 63.49,31.89 63.2,37 C62.95,41.48 60.27,46.69 56.92,51.49 C51.91,58.67 48.19,64.77 48.19,64.77" id="Fill-357" fill="#C0242A"></path>
        <path d="M130.65,143.89 C130.65,143.89 126.93,137.78 121.92,130.6 C118.56,125.8 115.88,120.6 115.63,116.12 C115.35,111 118.05,105.87 122.95,105.62 C127.85,105.37 129.84,109.57 130.65,113.02 C131.46,109.57 133.44,105.37 138.34,105.62 C143.24,105.87 145.95,111 145.66,116.12 C145.41,120.6 142.73,125.8 139.38,130.6 C134.36,137.78 130.65,143.89 130.65,143.89" id="Fill-358" fill="#C0242A"></path>
        <path d="M130.65,64.77 C130.65,64.77 126.93,58.67 121.92,51.49 C118.56,46.69 115.88,41.48 115.63,37 C115.35,31.89 118.05,26.75 122.95,26.5 C127.85,26.26 129.84,30.45 130.65,33.91 C131.46,30.45 133.44,26.26 138.34,26.5 C143.24,26.75 145.95,31.89 145.66,37 C145.41,41.48 142.73,46.69 139.38,51.49 C134.36,58.67 130.65,64.77 130.65,64.77" id="Fill-359" fill="#C0242A"></path>
        <path d="M48.19,143.89 C48.19,143.89 44.47,137.78 39.46,130.6 C36.11,125.8 33.42,120.6 33.17,116.12 C32.89,111 35.6,105.87 40.5,105.62 C45.39,105.37 47.38,109.57 48.19,113.02 C49,109.57 50.99,105.37 55.88,105.62 C60.78,105.87 63.49,111 63.2,116.12 C62.95,120.6 60.27,125.8 56.92,130.6 C51.91,137.78 48.19,143.89 48.19,143.89" id="Fill-360" fill="#C0242A"></path>
        <path d="M130.65,184.72 C130.65,184.72 126.93,190.83 121.92,198.01 C118.56,202.81 115.88,208.01 115.63,212.49 C115.35,217.61 118.05,222.74 122.95,222.99 C127.85,223.24 129.84,219.04 130.65,215.59 C131.46,219.04 133.44,223.24 138.34,222.99 C143.24,222.74 145.95,217.61 145.66,212.49 C145.41,208.01 142.73,202.81 139.38,198.01 C134.36,190.83 130.65,184.72 130.65,184.72" id="Fill-361" fill="#C0242A"></path>
        <path d="M48.19,184.72 C48.19,184.72 44.47,190.83 39.46,198.01 C36.11,202.81 33.42,208.01 33.17,212.49 C32.89,217.61 35.6,222.74 40.5,222.99 C45.39,223.24 47.38,219.04 48.19,215.59 C49,219.04 50.99,223.24 55.88,222.99 C60.78,222.74 63.49,217.61 63.2,212.49 C62.95,208.01 60.27,202.81 56.92,198.01 C51.91,190.83 48.19,184.72 48.19,184.72" id="Fill-362" fill="#C0242A"></path>
        <path d="M19.63,28.3 C19.66,24.69 18.02,21.99 14.92,21.69 C11.83,21.39 8.7,24.42 8.92,28.1 C9.13,31.79 10.56,34.9 14.32,34.88 C18.36,34.87 19.61,30.87 19.63,28.3 L19.63,28.3 Z M6.52,29.68 C6.19,27.46 6.2,21.74 6.47,20.04 C7.28,14.85 9.26,12.48 12.58,11.7 C15.8,10.95 20.32,11.79 21.31,16.13 L18.62,16.18 C17.17,13.25 13.48,14.03 11.41,15.3 C9.75,16.32 9,20.56 9.32,20.83 C9.32,20.83 12.45,18.5 14.92,18.67 C20.2,19.22 22.37,23.8 22.19,28.13 C22.02,33.33 20.37,37.5 14.78,37.77 C9.47,37.57 7.03,34.66 6.52,29.68 L6.52,29.68 Z" id="Fill-363" fill="#C0242A"></path>
        <path d="M159.2,221.19 C159.18,224.8 160.81,227.51 163.91,227.8 C167.01,228.1 170.13,225.08 169.92,221.4 C169.7,217.7 168.27,214.59 164.52,214.61 C160.48,214.63 159.22,218.62 159.2,221.19 L159.2,221.19 Z M172.32,219.82 C172.64,222.03 172.63,227.76 172.37,229.45 C171.55,234.64 169.57,237.02 166.26,237.79 C163.04,238.55 158.51,237.71 157.52,233.37 L160.21,233.32 C161.67,236.25 165.35,235.47 167.43,234.19 C169.08,233.17 169.83,228.93 169.51,228.67 C169.51,228.67 166.38,230.99 163.91,230.82 C158.63,230.27 156.46,225.69 156.64,221.36 C156.81,216.16 158.46,212 164.05,211.72 C169.37,211.93 171.8,214.83 172.32,219.82 L172.32,219.82 Z" id="Fill-364" fill="#C0242A"></path>
    </g>
</svg>