<?xml version="1.0" encoding="UTF-8" standalone="no"?>
<svg width="178px" height="250px" viewBox="0 0 178 250" version="1.1" xmlns="http://www.w3.org/2000/svg" xmlns:xlink="http://www.w3.org/1999/xlink">
    <!-- Generator: Sketch 39.1 (31720) - http://www.bohemiancoding.com/sketch -->
    <title>7H</title>
    <desc>Created with Sketch.</desc>
    <defs></defs>
    <g id="Page-1" stroke="none" stroke-width="1" fill="none" fill-rule="evenodd">
        <path d="M8.61,0.42 L169.39,0.42 C174.09,0.42 177.89,4.23 177.89,8.93 L177.89,240.57 C177.89,245.27 174.09,249.07 169.39,249.07 L8.61,249.07 C3.91,249.07 0.11,245.27 0.11,240.57 L0.11,8.93 C0.11,4.23 3.91,0.42 8.61,0.42" id="Fill-365" fill="#FFFFFF"></path>
        <path d="M13.82,56.22 C13.82,56.22 12.05,53.68 9.66,50.69 C8.06,48.69 6.78,46.52 6.66,44.65 C6.53,42.52 7.82,40.38 10.15,40.28 C12.49,40.17 13.43,41.92 13.82,43.36 C14.21,41.92 15.15,40.17 17.49,40.28 C19.82,40.38 21.11,42.52 20.98,44.65 C20.86,46.52 19.58,48.69 17.98,50.69 C15.59,53.68 13.82,56.22 13.82,56.22" id="Fill-367" fill="#C0242A"></path>
        <path d="M164.18,193.27 C164.18,193.27 162.41,195.82 160.02,198.81 C158.42,200.81 157.14,202.98 157.02,204.84 C156.89,206.97 158.18,209.11 160.51,209.22 C162.85,209.32 163.79,207.57 164.18,206.13 C164.57,207.57 165.51,209.32 167.85,209.22 C170.19,209.11 171.48,206.97 171.34,204.84 C171.22,202.98 169.94,200.81 168.34,198.81 C165.95,195.82 164.18,193.27 164.18,193.27" id="Fill-368" fill="#C0242A"></path>
        <path d="M89,104.33 C89,104.33 85.28,98.22 80.27,91.05 C76.92,86.24 74.24,81.04 73.99,76.56 C73.7,71.44 76.41,66.31 81.31,66.06 C86.2,65.81 88.19,70.01 89,73.47 C89.81,70.01 91.8,65.81 96.69,66.06 C101.59,66.31 104.3,71.44 104.01,76.56 C103.76,81.04 101.08,86.24 97.73,91.05 C92.72,98.22 89,104.33 89,104.33" id="Fill-369" fill="#C0242A"></path>
        <path d="M47.77,64.77 C47.77,64.77 44.06,58.67 39.04,51.49 C35.69,46.69 33.01,41.48 32.76,37 C32.47,31.89 35.18,26.75 40.08,26.5 C44.97,26.26 46.96,30.45 47.77,33.91 C48.58,30.45 50.57,26.26 55.46,26.5 C60.37,26.75 63.07,31.89 62.79,37 C62.54,41.48 59.86,46.69 56.5,51.49 C51.49,58.67 47.77,64.77 47.77,64.77" id="Fill-370" fill="#C0242A"></path>
        <path d="M130.23,143.89 C130.23,143.89 126.51,137.78 121.5,130.6 C118.14,125.8 115.46,120.6 115.21,116.12 C114.93,111 117.63,105.87 122.54,105.62 C127.43,105.37 129.42,109.57 130.23,113.02 C131.04,109.57 133.03,105.37 137.92,105.62 C142.82,105.87 145.53,111 145.24,116.12 C144.99,120.6 142.31,125.8 138.96,130.6 C133.95,137.78 130.23,143.89 130.23,143.89" id="Fill-371" fill="#C0242A"></path>
        <path d="M130.23,64.77 C130.23,64.77 126.51,58.67 121.5,51.49 C118.14,46.69 115.46,41.48 115.21,37 C114.93,31.89 117.63,26.75 122.54,26.5 C127.43,26.26 129.42,30.45 130.23,33.91 C131.04,30.45 133.03,26.26 137.92,26.5 C142.82,26.75 145.53,31.89 145.24,37 C144.99,41.48 142.31,46.69 138.96,51.49 C133.95,58.67 130.23,64.77 130.23,64.77" id="Fill-372" fill="#C0242A"></path>
        <path d="M47.77,143.89 C47.77,143.89 44.06,137.78 39.04,130.6 C35.69,125.8 33.01,120.6 32.76,116.12 C32.47,111 35.18,105.87 40.08,105.62 C44.97,105.37 46.96,109.57 47.77,113.02 C48.58,109.57 50.57,105.37 55.46,105.62 C60.37,105.87 63.07,111 62.79,116.12 C62.54,120.6 59.86,125.8 56.5,130.6 C51.49,137.78 47.77,143.89 47.77,143.89" id="Fill-373" fill="#C0242A"></path>
        <path d="M130.23,184.72 C130.23,184.72 126.51,190.83 121.5,198.01 C118.14,202.81 115.46,208.01 115.21,212.49 C114.93,217.61 117.63,222.74 122.54,222.99 C127.43,223.24 129.42,219.04 130.23,215.59 C131.04,219.04 133.03,223.24 137.92,222.99 C142.82,222.74 145.53,217.61 145.24,212.49 C144.99,208.01 142.31,202.81 138.96,198.01 C133.95,190.83 130.23,184.72 130.23,184.72" id="Fill-374" fill="#C0242A"></path>
        <path d="M47.77,184.72 C47.77,184.72 44.06,190.83 39.04,198.01 C35.69,202.81 33.01,208.01 32.76,212.49 C32.47,217.61 35.18,222.74 40.08,222.99 C44.97,223.24 46.96,219.04 47.77,215.59 C48.58,219.04 50.57,223.24 55.46,222.99 C60.37,222.74 63.07,217.61 62.79,212.49 C62.54,208.01 59.86,202.81 56.5,198.01 C51.49,190.83 47.77,184.72 47.77,184.72" id="Fill-375" fill="#C0242A"></path>
        <path d="M9.78,37.77 C11.51,28.62 13.35,21.75 18.18,14.3 L8.36,14.3 L8.36,17.51 L5.75,17.51 L5.75,11.46 L20.11,11.46 L21.89,14.3 C16.75,19.91 12.06,38.03 12.89,37.77 L9.78,37.77" id="Fill-376" fill="#C0242A"></path>
        <path d="M168.22,211.73 C166.49,220.88 164.65,227.74 159.82,235.2 L169.64,235.2 L169.64,231.99 L172.25,231.99 L172.25,238.04 L157.88,238.04 L156.11,235.2 C161.24,229.59 165.94,211.46 165.11,211.73 L168.22,211.73" id="Fill-377" fill="#C0242A"></path>
    </g>
</svg>