<?xml version="1.0" encoding="UTF-8" standalone="no"?>
<svg width="179px" height="249px" viewBox="0 0 179 249" version="1.1" xmlns="http://www.w3.org/2000/svg" xmlns:xlink="http://www.w3.org/1999/xlink">
    <!-- Generator: Sketch 39.1 (31720) - http://www.bohemiancoding.com/sketch -->
    <title>4D</title>
    <desc>Created with Sketch.</desc>
    <defs></defs>
    <g id="Page-1" stroke="none" stroke-width="1" fill="none" fill-rule="evenodd">
        <path d="M8.86,0.32 L169.64,0.32 C174.34,0.32 178.14,4.13 178.14,8.82 L178.14,240.47 C178.14,245.16 174.34,248.97 169.64,248.97 L8.86,248.97 C4.17,248.97 0.36,245.16 0.36,240.47 L0.36,8.82 C0.36,4.13 4.17,0.32 8.86,0.32" id="Fill-485" fill="#FFFFFF"></path>
        <path d="M14.07,56.12 C12.35,53.27 10.54,50.51 8.28,48.15 C10.54,45.78 12.35,43.02 14.07,40.17 C15.79,43.02 17.6,45.78 19.87,48.15 C17.6,50.51 15.79,53.27 14.07,56.12" id="Fill-487" fill="#C0242A"></path>
        <path d="M130.48,64.67 C126.35,57.84 122,51.2 116.57,45.53 C122,39.86 126.35,33.22 130.48,26.39 C134.61,33.22 138.96,39.86 144.39,45.53 C138.96,51.2 134.61,57.84 130.48,64.67" id="Fill-488" fill="#C0242A"></path>
        <path d="M164.43,209.12 C162.71,206.28 160.9,203.51 158.64,201.15 C160.9,198.78 162.71,196.02 164.43,193.17 C166.15,196.02 167.96,198.78 170.23,201.15 C167.96,203.51 166.15,206.28 164.43,209.12" id="Fill-489" fill="#C0242A"></path>
        <path d="M48.02,64.67 C43.89,57.84 39.55,51.2 34.12,45.53 C39.55,39.86 43.89,33.22 48.02,26.39 C52.15,33.22 56.5,39.86 61.93,45.53 C56.5,51.2 52.15,57.84 48.02,64.67" id="Fill-490" fill="#C0242A"></path>
        <path d="M48.02,222.9 C43.89,216.07 39.55,209.44 34.12,203.76 C39.55,198.09 43.89,191.46 48.02,184.63 C52.15,191.46 56.5,198.09 61.93,203.76 C56.5,209.44 52.15,216.07 48.02,222.9" id="Fill-491" fill="#C0242A"></path>
        <path d="M130.48,222.91 C126.35,216.08 122,209.44 116.57,203.77 C122,198.1 126.35,191.46 130.48,184.63 C134.61,191.46 138.96,198.1 144.39,203.77 C138.96,209.44 134.61,216.08 130.48,222.91" id="Fill-492" fill="#C0242A"></path>
        <path d="M16.35,17.74 L9.15,28.8 L16.35,28.8 L16.35,17.74 L16.35,17.74 Z M14.25,37.67 L14.25,35.34 L16.35,35.34 L16.35,31.51 L5.87,31.51 L5.87,28.8 L17.21,11.36 L19.06,11.36 L19.06,28.8 L22.27,28.8 L22.27,31.51 L19.06,31.51 L19,35.34 L20.76,35.34 L20.76,37.67 L14.25,37.67 L14.25,37.67 Z" id="Fill-493" fill="#C0242A"></path>
        <path d="M162.15,231.55 L169.35,220.49 L162.15,220.49 L162.15,231.55 L162.15,231.55 Z M164.25,211.63 L164.25,213.95 L162.15,213.95 L162.15,217.78 L172.63,217.78 L172.63,220.49 L161.29,237.94 L159.44,237.93 L159.44,220.49 L156.23,220.49 L156.23,217.78 L159.44,217.78 L159.5,213.95 L157.74,213.95 L157.74,211.62 L164.25,211.62 L164.25,211.63 L164.25,211.63 Z" id="Fill-494" fill="#C0242A"></path>
    </g>
</svg>