<?xml version="1.0" encoding="UTF-8" standalone="no"?>
<svg width="179px" height="249px" viewBox="0 0 179 249" version="1.1" xmlns="http://www.w3.org/2000/svg" xmlns:xlink="http://www.w3.org/1999/xlink">
    <!-- Generator: Sketch 39.1 (31720) - http://www.bohemiancoding.com/sketch -->
    <title>8D</title>
    <desc>Created with Sketch.</desc>
    <defs></defs>
    <g id="Page-1" stroke="none" stroke-width="1" fill="none" fill-rule="evenodd">
        <path d="M9.19,0.32 L169.97,0.32 C174.67,0.32 178.48,4.13 178.48,8.82 L178.48,240.47 C178.48,245.16 174.67,248.97 169.97,248.97 L9.19,248.97 C4.5,248.97 0.69,245.16 0.69,240.47 L0.69,8.82 C0.69,4.13 4.5,0.32 9.19,0.32" id="Fill-531" fill="#FFFFFF"></path>
        <path d="M14.4,56.12 C12.68,53.27 10.87,50.51 8.61,48.15 C10.87,45.78 12.68,43.02 14.4,40.17 C16.12,43.02 17.93,45.78 20.2,48.15 C17.93,50.51 16.12,53.27 14.4,56.12" id="Fill-533" fill="#C0242A"></path>
        <path d="M130.81,64.67 C126.68,57.84 122.33,51.2 116.9,45.53 C122.33,39.86 126.68,33.22 130.81,26.39 C134.94,33.22 139.29,39.86 144.72,45.53 C139.29,51.2 134.94,57.84 130.81,64.67" id="Fill-534" fill="#C0242A"></path>
        <path d="M164.76,209.12 C163.04,206.28 161.23,203.51 158.97,201.15 C161.23,198.78 163.04,196.02 164.76,193.17 C166.48,196.02 168.29,198.78 170.56,201.15 C168.29,203.51 166.48,206.28 164.76,209.12" id="Fill-535" fill="#C0242A"></path>
        <path d="M48.35,64.67 C44.22,57.84 39.88,51.2 34.45,45.53 C39.88,39.86 44.22,33.22 48.35,26.39 C52.49,33.22 56.83,39.86 62.26,45.53 C56.83,51.2 52.49,57.84 48.35,64.67" id="Fill-536" fill="#C0242A"></path>
        <path d="M89.58,104.21 C85.45,97.38 81.11,90.75 75.68,85.08 C81.11,79.41 85.45,72.77 89.58,65.94 C93.71,72.77 98.06,79.41 103.49,85.08 C98.06,90.75 93.71,97.38 89.58,104.21" id="Fill-537" fill="#C0242A"></path>
        <path d="M48.35,143.76 C44.22,136.93 39.88,130.29 34.45,124.62 C39.88,118.95 44.22,112.31 48.35,105.48 C52.49,112.31 56.83,118.95 62.26,124.62 C56.83,130.29 52.49,136.93 48.35,143.76" id="Fill-538" fill="#C0242A"></path>
        <path d="M130.81,143.77 C126.68,136.94 122.33,130.3 116.9,124.63 C122.33,118.96 126.68,112.32 130.81,105.49 C134.94,112.32 139.29,118.96 144.72,124.63 C139.29,130.3 134.94,136.94 130.81,143.77" id="Fill-539" fill="#C0242A"></path>
        <path d="M48.35,222.9 C44.22,216.07 39.88,209.44 34.45,203.76 C39.88,198.09 44.22,191.46 48.35,184.63 C52.49,191.46 56.83,198.09 62.26,203.76 C56.83,209.44 52.49,216.07 48.35,222.9" id="Fill-540" fill="#C0242A"></path>
        <path d="M130.81,222.91 C126.68,216.08 122.33,209.44 116.9,203.77 C122.33,198.1 126.68,191.46 130.81,184.63 C134.94,191.46 139.29,198.1 144.72,203.77 C139.29,209.44 134.94,216.08 130.81,222.91" id="Fill-541" fill="#C0242A"></path>
        <path d="M89.58,183.33 C85.45,176.5 81.11,169.86 75.68,164.19 C81.11,158.52 85.45,151.88 89.58,145.05 C93.71,151.88 98.06,158.52 103.49,164.19 C98.06,169.86 93.71,176.5 89.58,183.33" id="Fill-542" fill="#C0242A"></path>
        <path d="M19.23,18.53 C19.29,15.84 16.81,13.91 14.25,13.99 C11.97,14.06 9.56,15.8 9.56,18.05 C9.56,20.87 12.3,22.27 14.64,22.33 C16.76,22.38 19.18,20.57 19.23,18.53 L19.23,18.53 Z M20.25,29.98 C20.47,26.78 17.64,24.62 14.46,24.59 C11.35,24.55 8.58,27.21 8.58,30.08 C8.58,33.16 12.19,34.84 14.52,34.85 C17.36,34.86 20.06,32.73 20.25,29.98 L20.25,29.98 Z M5.86,29.96 C5.99,26.43 7.26,25.1 9.78,23.26 C7.77,21.81 6.93,19.68 7.1,17.86 C7.51,13.46 10.9,11.26 14.6,11.36 C18.31,11.46 21.5,14.4 21.74,17.59 C21.96,20.37 21.14,21.71 19.17,23.17 C21.5,25.15 23,26.44 22.94,29.92 C22.89,33.4 19.93,37.54 14.78,37.67 C9.62,37.79 5.74,33.5 5.86,29.96 L5.86,29.96 Z" id="Fill-543" fill="#C0242A"></path>
        <path d="M169.59,230.76 C169.65,233.45 167.17,235.38 164.61,235.3 C162.33,235.23 159.93,233.5 159.92,231.24 C159.92,228.43 162.66,227.02 165,226.96 C167.13,226.92 169.54,228.72 169.59,230.76 L169.59,230.76 Z M170.61,219.32 C170.83,222.52 168,224.67 164.82,224.7 C161.71,224.74 158.94,222.08 158.94,219.21 C158.94,216.13 162.55,214.45 164.88,214.45 C167.72,214.43 170.42,216.56 170.61,219.32 L170.61,219.32 Z M156.22,219.33 C156.35,222.86 157.63,224.19 160.14,226.04 C158.13,227.48 157.29,229.62 157.46,231.43 C157.87,235.83 161.26,238.03 164.97,237.93 C168.67,237.84 171.86,234.9 172.11,231.7 C172.32,228.92 171.5,227.58 169.53,226.12 C171.87,224.15 173.36,222.85 173.3,219.37 C173.25,215.89 170.29,211.75 165.14,211.62 C159.99,211.5 156.1,215.8 156.23,219.33 L156.22,219.33 L156.22,219.33 Z" id="Fill-544" fill="#C0242A"></path>
    </g>
</svg>