<?xml version="1.0" encoding="UTF-8" standalone="no"?>
<svg width="179px" height="249px" viewBox="0 0 179 249" version="1.1" xmlns="http://www.w3.org/2000/svg" xmlns:xlink="http://www.w3.org/1999/xlink">
    <!-- Generator: Sketch 39.1 (31720) - http://www.bohemiancoding.com/sketch -->
    <title>AD</title>
    <desc>Created with Sketch.</desc>
    <defs></defs>
    <g id="Page-1" stroke="none" stroke-width="1" fill="none" fill-rule="evenodd">
        <path d="M9.115,0.32 L169.893,0.32 C174.589,0.32 178.396,4.13 178.396,8.82 L178.396,240.47 C178.396,245.16 174.589,248.97 169.893,248.97 L9.115,248.97 C4.419,248.97 0.611,245.16 0.611,240.47 L0.611,8.82 C0.611,4.13 4.419,0.32 9.115,0.32" id="Fill-461" fill="#FFFFFF"></path>
        <path d="M14.323,56.12 C12.603,53.27 10.792,50.51 8.529,48.15 C10.792,45.78 12.603,43.02 14.323,40.17 C16.045,43.02 17.855,45.78 20.118,48.15 C17.855,50.51 16.045,53.27 14.323,56.12" id="Fill-463" fill="#C0242A"></path>
        <path d="M164.685,209.12 C162.964,206.28 161.153,203.51 158.891,201.15 C161.153,198.78 162.964,196.02 164.685,193.17 C166.406,196.02 168.217,198.78 170.479,201.15 C168.217,203.51 166.406,206.28 164.685,209.12" id="Fill-464" fill="#C0242A"></path>
        <path d="M89.504,143.79 C85.373,136.96 81.028,130.32 75.598,124.65 C81.028,118.98 85.373,112.34 89.504,105.51 C93.635,112.34 97.979,118.98 103.41,124.65 C97.979,130.32 93.635,136.96 89.504,143.79" id="Fill-465" fill="#C0242A"></path>
        <path d="M16.908,29.11 L14.321,16.22 L11.897,29.11 L16.908,29.11 L16.908,29.11 Z M6.285,37.67 L6.285,35.42 L8.429,35.42 L12.997,11.36 L15.597,11.36 L20.629,35.42 L22.36,35.42 L22.36,37.67 L16.46,37.67 L16.46,35.42 L18.052,35.42 L17.416,31.73 L11.464,31.73 L11.004,35.42 L12.597,35.42 L12.597,37.67 L6.285,37.67 L6.285,37.67 Z" id="Fill-466" fill="#C0242A"></path>
        <path d="M167.27,220.19 L164.682,233.07 L162.259,220.19 L167.27,220.19 L167.27,220.19 Z M156.646,211.62 L156.646,213.87 L158.79,213.87 L163.358,237.94 L165.958,237.94 L170.989,213.87 L172.721,213.87 L172.721,211.62 L166.821,211.62 L166.821,213.87 L168.413,213.87 L167.777,217.56 L161.825,217.56 L161.365,213.87 L162.958,213.87 L162.958,211.62 L156.646,211.62 L156.646,211.62 Z" id="Fill-467" fill="#C0242A"></path>
    </g>
</svg>