<?xml version="1.0" encoding="UTF-8" standalone="no"?>
<svg width="179px" height="249px" viewBox="0 0 179 249" version="1.1" xmlns="http://www.w3.org/2000/svg" xmlns:xlink="http://www.w3.org/1999/xlink">
    <!-- Generator: Sketch 39.1 (31720) - http://www.bohemiancoding.com/sketch -->
    <title>JD</title>
    <desc>Created with Sketch.</desc>
    <defs></defs>
    <g id="Page-1" stroke="none" stroke-width="1" fill="none" fill-rule="evenodd">
        <path d="M8.94,0.32 L169.72,0.32 C174.42,0.32 178.22,4.13 178.22,8.82 L178.22,240.47 C178.22,245.16 174.42,248.97 169.72,248.97 L8.94,248.97 C4.25,248.97 0.44,245.16 0.44,240.47 L0.44,8.82 C0.44,4.13 4.25,0.32 8.94,0.32" id="Fill-578" fill="#FFFFFF"></path>
        <path d="M14.49,56.12 C12.76,53.27 10.95,50.51 8.69,48.15 C10.95,45.78 12.76,43.02 14.49,40.17 C16.21,43.02 18.02,45.78 20.28,48.15 C18.02,50.51 16.21,53.27 14.49,56.12" id="Fill-580" fill="#C0242A"></path>
        <path d="M164.18,209.12 C162.46,206.28 160.64,203.51 158.38,201.15 C160.64,198.78 162.46,196.02 164.18,193.17 C165.9,196.02 167.71,198.78 169.97,201.15 C167.71,203.51 165.9,206.28 164.18,209.12" id="Fill-581" fill="#C0242A"></path>
        <path d="M48.29,64.67 C44.16,57.84 39.81,51.2 34.38,45.53 C39.81,39.86 44.16,33.22 48.29,26.39 C52.42,33.22 56.76,39.86 62.19,45.53 C56.76,51.2 52.42,57.84 48.29,64.67" id="Fill-582" fill="#C0242A"></path>
        <path d="M130.38,222.91 C126.24,216.08 121.9,209.44 116.47,203.77 C121.9,198.1 126.24,191.46 130.38,184.63 C134.51,191.46 138.85,198.1 144.28,203.77 C138.85,209.44 134.51,216.08 130.38,222.91" id="Fill-583" fill="#C0242A"></path>
        <path d="M76.68,44.28 C75.5,44.68 74.39,45.3 74.24,45.87 C74.01,46.8 74.43,46.81 75.98,46.33 C77.97,45.67 80.2,45.97 81.9,46.95 C83.19,47.89 83.57,47.58 83.35,46.79 C82.63,44.18 78.6,43.71 76.68,44.28 L76.68,44.28 Z M81.5,48.32 C82.91,48.85 83.62,48.91 82.86,48.19 C81.8,47.02 76.98,45.68 74.39,47.59 C74.2,47.85 74.24,48.86 74.44,48.81 C76.55,47.38 79.25,47.46 81.5,48.32 L81.5,48.32 Z M75.91,50.82 C75.87,50.51 75.83,50.21 75.75,50.11 C75.43,49.73 74.76,50 74.76,50.48 C74.76,50.85 75.28,51.27 75.71,51.27 C76.01,51.27 75.97,51.35 75.91,50.82 L75.91,50.82 Z M81.62,51.4 C82.61,51.05 82.81,50.95 82.76,50.62 C82.71,50.27 81.92,49.81 81.48,49.89 C81.16,50.09 80.32,51.42 80.37,51.65 C80.48,51.84 80.81,51.67 81.62,51.4 L81.62,51.4 Z M79.18,51.83 C80.08,51.45 80.73,50.28 80.51,49.69 C80.37,49.32 79.99,49.61 79.62,50.16 C79.02,51.03 78.86,51.12 78.33,51.12 C77.77,51.12 77.55,50.98 77.16,50.22 C76.89,49.5 76.7,49.39 76.46,49.7 C76.34,49.84 76.35,50.04 76.5,50.57 C76.9,51.94 77.92,52.37 79.18,51.83 L79.18,51.83 Z M143.54,167.04 L143.55,162.86 C141.44,165 138.68,168.59 137.85,169.93 L143.54,167.04 L143.54,167.04 Z M105.09,199.76 C105.2,199.27 104.75,198.45 104.04,198.16 C103.74,198.09 103.44,198.03 103.53,198.36 C103.63,198.74 103.84,199.36 104.04,199.77 C104.18,200.08 104.27,200.24 104.57,200.12 C104.81,200.04 105.01,199.97 105.09,199.76 L105.09,199.76 Z M99.17,198.02 C98.66,197.88 97.54,198.38 96.99,198.74 C96.79,198.96 96.79,198.99 97.03,199.31 C97.55,200 98.35,200.33 98.41,200.07 C98.64,199.71 99.22,198.16 99.17,198.02 L99.17,198.02 Z M102.75,200.38 L103.65,200.4 C103.65,200.4 103.37,198.83 102.91,198.38 C101.96,197.44 100.62,197.59 99.76,198.5 C99.37,198.92 99.08,200.41 99.08,200.41 L99.79,200.42 C100.06,199.73 101.2,196.48 102.75,200.38 L102.75,200.38 Z M105.41,204.05 L105.42,201.58 C105.42,201.58 101.48,202.8 99.48,202.05 C97.42,201.49 97.43,201.39 97.47,201.61 C97.54,202.01 99.07,202.82 100.48,203.15 C101.48,203.39 103.47,203.15 104.45,202.86 C105,202.7 105.06,202.85 104.84,203.02 C102.42,204.91 99.36,204.04 97.43,202.47 C96.41,201.46 95.72,201.46 96.27,202.81 C98.92,208.18 105.48,205.01 105.41,204.05 L105.41,204.05 Z M143.44,93.65 C143.6,91.91 143.52,86.8 143.52,86.8 C143.52,86.8 142.59,87.58 142,87.61 C142.22,86.86 142.45,86.59 142.79,85.85 C142.98,85.08 143.08,83.7 143.03,82.92 C142.97,82.06 142.37,82.03 142.99,80.49 C143.31,79.7 143.37,78.87 142.95,77.89 C142.78,77.4 142.72,77.13 143.18,76.51 C143.61,75.95 143.44,75.66 143.43,74.47 C143.42,72.83 143.43,72.56 142.94,73.89 C142.2,74.99 141.85,74.78 140.72,74.65 C139.63,77.1 138.35,79.67 138.3,81.79 C138.27,83.12 138.25,83.32 139.08,86.11 C139.39,87.15 139.49,87.5 139.51,88.75 C139.53,89.95 139.62,90.37 139.8,91.04 C140.12,92.21 141.44,94.16 143.44,93.65 L143.44,93.65 Z M147.18,93.01 C147.46,92.49 147.34,91.78 146.59,91.34 C146.2,91.14 145.9,91.25 145.58,91.7 C144.84,93.05 146.68,93.64 147.18,93.01 L147.18,93.01 Z M150.9,92.05 C151.9,91.52 152.36,90.49 151.75,89.87 C151.57,89.69 151.32,89.7 151.11,89.7 C150.76,89.7 148.14,90.4 147.63,90.67 C147.3,90.85 147.42,91.16 147.74,91.45 C147.88,91.58 147.99,91.86 148.01,92.17 C148.04,92.57 147.96,92.93 148.23,92.87 C148.76,92.75 149.61,92.63 150.9,92.05 L150.9,92.05 Z M101.88,45.03 C97.69,43.42 94.38,42.78 90.4,44.48 C89.12,45.04 88.39,45.09 88.33,44.64 C88.28,44.26 89.2,43.13 90.19,42.61 C92.97,41.33 96.31,41.21 99.11,42.56 C100.15,43.07 103.08,45.16 103.08,45.35 C103.08,45.56 102.82,45.4 101.88,45.03 L101.88,45.03 Z M98.98,51.3 C99.82,51.04 100.22,50.66 100.15,50.29 C100.09,49.99 99.48,49.63 99.07,49.63 C98.89,49.63 98.53,49.62 98.4,49.8 C98.11,50.18 97.66,51.33 97.64,51.46 C97.74,51.71 98.02,51.59 98.98,51.3 L98.98,51.3 Z M96.4,51.53 C97.23,51.13 98.07,49.71 97.69,49.25 C97.46,48.97 97.26,49.23 96.83,50 C96.62,50.37 96.26,50.84 96.11,50.95 C95.43,51.42 94.54,50.98 94.16,49.93 C93.94,49.3 93.7,48.9 93.43,49.14 C92.96,49.57 93.5,51.14 94.45,51.54 C95.01,51.78 95.82,51.82 96.4,51.53 L96.4,51.53 Z M93.31,51.39 C93.3,51.14 92.85,50.09 92.58,49.81 C92.33,49.55 92.12,49.65 91.57,50.04 C91.16,50.33 91.11,50.57 91.49,50.91 C92.3,51.63 93.32,51.81 93.31,51.39 L93.31,51.39 Z M93.89,54.68 C92.96,54.01 91.32,52.5 90.89,51.97 C90.17,51.07 89.88,50.49 89.97,49.76 C90.04,49.2 90.13,48.86 89.76,48.67 C89.38,48.47 89.01,47.62 89.08,47.17 C89.1,47.05 89.54,47.12 89.8,47.45 C90.13,47.5 90.06,47.31 90.43,47.07 C94.2,44.53 97.22,45.02 100.79,46.76 C101.83,47.26 104.54,49.32 103.09,48.65 C103,48.61 102.05,48.2 101.09,47.71 C97.99,46.23 94.54,45.33 91.73,47.24 C91.24,47.58 90.95,47.84 91.33,47.84 C92.91,47.53 94.47,46.87 96.09,46.97 C98.52,47.01 99.98,48.2 101.8,49.03 C103.77,49.91 104.15,50.21 103.43,50.94 C103.23,51.17 103.07,51.16 102.11,51.09 C101.09,51.01 101,51.04 100.43,51.41 C98.92,52.38 96.96,52.91 95.22,52.76 C93.17,52.59 92.95,52.42 92.9,52.72 C92.88,52.91 93.32,53.23 93.93,53.79 C94.39,54.21 95.01,54.84 95.06,54.93 C95.23,55.24 94.45,55.09 93.89,54.68 L93.89,54.68 Z M89.75,61.11 C88.73,60.85 87.57,59.93 86.73,60.18 C85.69,60.25 85.1,59.02 85.63,58.35 C86.54,57.46 87.96,58.35 88.51,58.77 C89.7,59.68 89.87,59.75 90.35,59.75 C92.33,59.71 91.96,57.86 91,57.18 C90.43,56.58 90.37,56.2 90.49,56.05 C90.69,55.81 91.26,56.01 91.88,56.67 C93.06,57.78 93.09,60.01 91.63,60.68 C90.91,61.09 90.43,61.28 89.75,61.11 L89.75,61.11 Z M80.29,67.51 C80.36,66.7 80.96,66.04 81,65.21 C81,65.03 81.15,64.82 81.63,65.08 C82.26,65.41 82.46,65.18 83.17,64.85 C84.44,64.26 84.8,64.28 85.78,64.67 C86.41,65.01 86.61,65 87.2,64.7 C88.01,64.16 88.87,63.99 89.58,64.24 C90.65,64.61 91.02,64.81 91.62,64.52 C91.93,64.37 92.31,63.81 92.38,63.86 C92.81,64.51 92.73,65.53 93.01,66.1 C93.5,67.08 93.31,67.78 92.72,67.3 C91.5,66.29 90.55,66.27 88.8,66.7 C87.77,66.96 87.25,67.15 86.12,67.02 C82.59,66.6 82.35,66.71 81.64,67.19 C80.94,67.65 80.4,67.7 80.29,67.51 L80.29,67.51 Z M72.12,64.47 C73.08,64 74.24,57.44 73.87,56.31 C72.7,58.1 71.39,58.9 69.52,58.59 C66.47,58.09 66.35,54.32 68.71,53.94 C69.66,53.79 70.81,54.41 71,54.26 C72.01,53.79 72.8,50.4 73.04,49.31 C73.22,48.23 73.49,45.25 73.53,44.3 C73.61,42.29 73.54,39.31 73.54,39.31 L58.67,21.42 L26.29,21.42 C26.29,21.42 26.21,46.32 26.29,59.09 L35.29,67.96 L35.41,82.29 C45.71,77.79 55.69,73.06 65.45,67.94 C64.32,66.58 64.35,63.17 66.42,61.87 C69.46,59.97 71.98,62.49 72.13,64.47 L72.12,64.47 L72.12,64.47 Z M83.09,67.78 C83.18,67.69 84.34,67.99 84.98,68.16 C86.68,68.61 88.09,68.34 89.88,67.83 C90.3,67.7 90.51,67.99 90.25,68.21 C89.34,68.84 88.16,69.21 87.14,69.3 C84.91,69.51 82.5,68.37 83.09,67.78 L83.09,67.78 Z M83.95,72.03 C83.95,71.79 85.11,70.94 85.98,70.74 C87.08,70.5 88.47,70.63 89.45,71.11 C90.28,71.53 91.19,72.54 89.85,71.92 C88.61,71.37 85.96,71.37 85,71.81 C84.29,72.17 83.95,72.27 83.95,72.03 L83.95,72.03 Z M69.71,84.12 C70.38,83.56 70.52,83.44 70.03,82.96 C69.59,82.52 69.08,82.41 68.81,82.68 C68.66,82.88 68.81,84.04 68.79,84.27 C68.77,84.64 69.26,84.5 69.71,84.12 L69.71,84.12 Z M70.99,85.54 C71.6,85.03 72.1,84.65 72.14,84.54 C72.23,84.31 71.76,83.89 71.41,83.89 C71.03,83.89 70.74,84.09 69.8,84.9 C68.97,85.61 68.8,85.46 68.86,85.87 C68.9,86.1 68.91,86.62 68.98,86.71 C69.18,86.95 69.61,86.68 70.99,85.54 L70.99,85.54 Z M70.78,87.72 C73.92,85.53 73.8,85.63 73.8,85.23 C73.8,84.89 73.49,85.04 73.01,85.01 C72.56,84.98 72.55,85.1 71.69,85.76 C69.85,87.15 69.18,87.53 68.99,87.94 C68.93,88.07 68.88,88.58 69,88.69 C69.22,88.91 69.47,88.64 70.78,87.72 L70.78,87.72 Z M69.89,90.76 C70.06,90.61 71.14,89.89 72.29,89.06 C75.38,86.82 75.75,86.6 75.75,86.36 C75.75,85.71 74.85,85.57 74.04,86.23 C72.55,87.45 68.99,89.66 68.99,89.98 C68.97,90.44 68.9,90.9 69.03,91.1 C69.2,91.36 69.45,91.14 69.89,90.76 L69.89,90.76 Z M70.17,92.95 C72.24,91.42 74.15,90.08 76.3,88.64 C78.12,87.43 78.42,87.16 77.72,86.79 C77.48,86.67 77,86.47 76.69,86.58 C74.27,88.54 71.57,90.41 69.01,92.31 C68.95,92.6 69.01,93.16 68.99,93.41 C68.97,93.8 69.48,93.46 70.17,92.95 L70.17,92.95 Z M70.51,100.38 C73.35,98.32 74.88,97.28 74.98,97.05 C75.09,96.8 75.12,95.82 74.94,95.72 C73.88,96.52 71.06,98.25 69.13,99.82 C69.08,100.15 69.02,100.87 69.18,101.02 C69.57,101.19 69.68,100.97 70.51,100.38 L70.51,100.38 Z M70.52,102.72 C71.6,102 74.14,100.24 74.77,99.8 C75.85,99.05 76.06,98.8 75.68,98.24 C75.52,98.02 75.31,97.89 74.96,98.05 C71.84,100.22 71.57,100.59 69.21,102.11 C69.05,102.54 69.09,103.18 69.33,103.4 C69.51,103.42 69.81,103.19 70.52,102.72 L70.52,102.72 Z M71.72,104.24 C72.71,103.41 76.32,101.47 76.73,100.51 C76.89,100.07 76.38,99.66 76.3,99.7 C76.36,99.76 71.13,102.9 69.22,104.54 C69.05,104.76 69.09,105.12 69.21,105.42 C69.42,105.97 69.84,105.52 71.72,104.24 L71.72,104.24 Z M71.43,107.05 C72.35,105.92 73.11,105.18 73.25,104.34 C72.66,104.44 69.27,106.83 69.21,107.08 C69.24,108.34 68.96,108.49 69.99,107.93 C70.45,107.69 70.82,107.38 71.43,107.05 L71.43,107.05 Z M69.89,109.33 C70.02,109.03 69.93,109.04 69.67,109.05 C69.47,109.06 69.37,109.24 69.36,109.44 C69.35,109.66 69.37,109.71 69.54,109.68 C69.67,109.66 69.83,109.48 69.89,109.33 L69.89,109.33 Z M77.48,100.12 C77.48,100.12 71.09,107.83 69.03,111.66 C69.03,111.66 69.02,116.05 68.96,118.58 L68.61,118.68 C68.61,118.68 68.58,111.9 68.49,104.55 C68.28,86.17 68.09,81.71 68.09,81.71 L66.02,80.18 L65.93,79.46 C65.93,79.46 75.15,85.93 79.65,86.96 C76.36,92.12 73.32,94.11 77.48,100.12 L77.48,100.12 Z M78.08,88.45 C78.03,88.18 77.85,88.35 77.38,88.75 C76.77,89.27 71.55,93.14 70.17,94.12 C69.64,94.49 69.14,94.8 69.09,94.93 C69.03,95.05 68.98,96.1 69.18,96.37 C70.31,95.5 75.67,91.9 75.76,91.78 C76.31,90.89 77.55,89.34 78.08,88.45 L78.08,88.45 Z M75.17,93.06 C73.59,94.07 70.92,95.97 69.11,97.24 C69.06,97.51 69.03,98.21 69.11,98.75 C70.13,98.05 73.44,95.94 74.94,94.75 C75.01,94.3 75.12,93.51 75.17,93.06 L75.17,93.06 Z M102.6,88.39 C103.04,87.84 102.66,87.53 101.95,87.86 C101.78,87.94 101.69,88.14 101.66,88.23 C101.44,88.8 102.18,88.92 102.6,88.39 L102.6,88.39 Z M100.96,90.01 C101.35,89.62 101.34,89.27 100.95,88.75 C100.66,88.37 100.57,88.34 99.99,88.34 C98.87,88.34 98.84,88.62 99.7,89.55 C100.34,90.23 100.52,90.45 100.96,90.01 L100.96,90.01 Z M99.42,91.53 C99.62,91.32 99.78,91.05 99.78,90.93 C99.78,90.66 99.1,89.8 98.47,89.24 C98.17,88.98 97.8,88.71 97.56,88.71 C97.15,88.71 96.45,88.94 96.33,89.13 C96.25,89.26 97.18,90.41 98.09,91.37 C98.69,92.01 98.93,92.06 99.42,91.53 L99.42,91.53 Z M97.68,93.33 C98.41,92.71 98.27,92.5 95.87,90.02 C95.08,89.21 95.03,89.08 94.42,89.08 C93.8,89.08 93.6,89.2 93.6,89.5 C93.6,89.68 96.73,93.41 96.96,93.5 C97.26,93.62 97.3,93.64 97.68,93.33 L97.68,93.33 Z M96.01,94.96 C96.26,94.73 96.45,94.43 96.45,94.29 C96.45,94.14 96,93.57 95.52,93 C95.04,92.44 94.24,91.48 93.75,90.87 C92.47,89.3 92.46,89.24 91.51,89.14 C90.08,89 90.27,89.31 91.9,91.22 C92.29,91.68 93.04,92.59 93.55,93.24 C94.76,94.77 95.29,95.33 95.53,95.33 C95.64,95.33 95.77,95.19 96.01,94.96 L96.01,94.96 Z M94.38,96.53 C94.57,96.34 94.73,96.1 94.73,95.98 C94.73,95.86 94.39,95.44 94.04,95.02 C93.68,94.6 92.99,93.75 92.49,93.13 C89.65,89.58 89.45,89.32 89.02,89.68 C88.73,89.92 88.66,90.75 88.8,91.06 C89.05,91.6 92.15,95.34 93.15,96.31 C93.78,96.92 93.91,96.98 94.38,96.53 L94.38,96.53 Z M92.77,98.23 C92.96,98.03 93.15,97.69 93.15,97.57 C92.11,96.31 89.1,92.31 88.56,92.46 C88.5,92.48 88.48,92.48 88.44,92.59 C88.31,92.99 88.25,93.82 88.35,94.49 C89.3,95.4 91.54,98.38 92.04,98.57 C92.35,98.68 92.48,98.51 92.77,98.23 L92.77,98.23 Z M90.74,100.09 C91.1,99.87 91.57,99.41 91.38,99.03 C91.17,98.65 88.68,96 88.41,95.86 C87.89,95.57 87.9,95.98 87.9,97.29 L87.9,97.97 L89.05,99.1 C90.72,100.74 90.35,100.34 90.74,100.09 L90.74,100.09 Z M89.17,101.78 C89.45,101.49 89.67,101.14 89.67,100.99 C89.67,100.67 88.25,99.02 87.81,98.79 C87.44,98.59 87.22,98.67 86.85,99.19 C86.42,99.79 86.59,100.07 87.43,101.04 C88.23,101.97 88.49,102.25 88.64,102.25 C88.69,102.25 88.89,102.06 89.17,101.78 L89.17,101.78 Z M87.51,103.39 C87.77,103.16 87.95,102.89 87.95,102.72 C87.95,102.42 86.63,100.96 86.16,100.68 C85.82,100.49 85.47,100.6 85.04,100.97 C84.78,101.2 84.79,101.25 84.85,101.5 C84.95,101.9 86.65,103.7 86.93,103.7 C87.04,103.7 87.27,103.6 87.51,103.39 L87.51,103.39 Z M85.84,105.19 C86.52,104.42 86.39,104.27 84.76,102.55 C84.2,101.96 84.09,101.9 83.69,101.93 C83.32,101.96 83.29,102.05 83.1,102.45 C82.74,103.18 83.01,103.55 84.03,104.65 C85.09,105.77 85.24,105.87 85.84,105.19 L85.84,105.19 Z M84.34,106.56 C84.66,106.23 84.57,106.25 84.35,105.89 C84,105.33 83,104.4 82.71,104.4 C82.35,104.4 82.03,104.98 82.04,105.55 C82.04,106.12 82.31,106.35 83.03,106.91 C83.51,107.29 83.36,107.32 83.73,107.11 C83.93,106.99 84.21,106.74 84.34,106.56 L84.34,106.56 Z M82.46,108.48 C82.88,108.03 82.83,107.71 82.21,107.07 C81.7,106.54 81.33,106.49 80.88,106.92 C80.41,107.36 80.5,107.82 81.04,108.35 C81.58,108.89 81.98,108.98 82.46,108.48 L82.46,108.48 Z M80.79,110.12 C81.29,109.7 81.22,109.35 80.67,108.79 C80.09,108.21 79.64,108.21 79.23,108.83 C79.08,109.06 79.05,109.29 79.05,109.35 C79.05,109.58 80,110.43 80.26,110.43 C80.39,110.43 80.58,110.3 80.79,110.12 L80.79,110.12 Z M79.06,110.39 C78.59,109.99 78.28,109.99 77.9,110.38 C77.45,110.83 77.49,111.32 78.03,111.79 C78.44,112.21 78.61,112.17 79.16,111.83 C79.62,111.36 79.7,110.92 79.06,110.39 L79.06,110.39 Z M77.58,113.34 C77.79,113.1 77.96,112.86 77.96,112.79 C77.96,112.53 77.31,111.93 77.02,111.93 C76.65,111.93 75.99,112.55 75.99,112.89 C75.99,113.18 76.65,113.78 76.97,113.78 C77.1,113.78 77.37,113.58 77.58,113.34 L77.58,113.34 Z M76.02,114.93 C76.42,114.54 76.41,114.25 76.07,113.91 C75.61,113.45 74.93,113.73 74.7,114.48 C74.48,115.24 75.37,115.54 76.02,114.93 L76.02,114.93 Z M74.24,116.68 C74.75,116.17 74.87,116 74.58,115.76 C74.13,115.39 73.28,116.15 73.28,116.91 C73.28,117.4 73.66,117.25 74.24,116.68 L74.24,116.68 Z M70.43,120.63 L72.43,118.65 C72.65,117.19 73.05,115.33 74.74,113.3 C76.61,111.05 78.67,108.94 80.19,106.94 C82.02,104.54 83.01,102.36 82.53,101.35 C85.26,100.86 87.76,98.45 87.84,94.08 C87.87,91.78 88.98,88.43 89.06,88.48 C89.06,88.48 108.08,87.83 121.15,75.34 C121.15,75.34 122.07,75.54 121.86,75.7 C116.9,80.67 111.63,84.34 105.4,86.68 L71.04,121.07 L70.43,120.63 L70.43,120.63 Z M71.16,73.22 C74.97,74.49 79.79,77.46 85.81,76.34 C80.33,74.16 76.16,69.07 74.38,58.69 C74,60.71 73.19,64.89 71.93,65.35 C70.15,58.46 63.02,62.46 65.88,68.08 C58.64,73.06 49.94,75.87 42.05,79.71 C42.05,79.71 40.87,83.37 34.96,88.37 C33.84,82.5 35.17,73.8 34.48,67.91 L25.21,59.14 C25.35,60.81 25.29,61.84 25.21,63.8 C25.46,64.14 25.82,64.32 26.17,64.53 C26.77,98.32 25.97,131.72 25.97,162.42 C25.88,181.22 26.38,200.82 26.1,218.58 L25.76,219.22 L25.77,223.47 L35.23,214.44 C35.23,214.44 34.79,208.04 35.29,203.14 C41.26,204.35 46.83,207.16 51.82,210.24 C52.45,210.42 48.76,197.94 35.33,192.4 C35.33,192.4 35.31,188.51 35.31,180.04 C35.31,171.87 35.18,171.01 35,170.87 C34.46,171.47 27.59,173.79 27.24,173.39 C27.42,173.46 25.3,158.93 27.14,156.73 L33.71,156.87 C35.59,158.39 34.83,156.54 35.93,156.23 C36.58,156.05 39.62,157.24 39.62,157.24 C52.15,142.42 50.9,118.05 41.91,104.34 C39.6,106.22 37.16,108.76 34.85,109.85 C34.82,109.77 34.8,102.29 34.8,102.29 C46.77,94.59 59.8,72.29 58.96,72.21 C58.96,72.21 62.67,75.83 64.11,77.88 L52.29,95.02 C55,100.48 57.74,105.44 59.51,110.24 C59.75,110.89 60.5,110.87 60.68,111.55 C60.84,112.14 60.13,112.95 60.23,113.59 C62.72,123.15 63.29,133.29 60.83,142.48 C60.31,144.54 61.26,146.22 62.53,147.77 C62.63,147.91 61.34,146.66 61.23,146.59 C60.79,146.32 60.05,147.25 59.9,148.43 C60,149.15 60.39,149.28 60.91,149.86 C61.82,150.62 65.44,154.2 67.04,155.83 C68.45,157.28 68.82,157.35 69.78,156.32 C70.04,156.07 70.33,155.72 70.59,155.51 C70.63,155.59 70.99,155.22 71.11,155.1 L92.45,134.23 C94.93,131.81 71.14,156.13 71.14,156.13 C71.14,156.13 59.6,167.48 56.77,170.27 C53.85,173.16 53.46,173.8 53.34,174.01 C53.13,174.39 54.28,174.38 54.81,174.31 C54.85,174.3 54.37,174.42 53.88,174.41 C50.88,174 49.85,177.07 47.96,177.74 C42.95,181.3 46.32,187.03 51.1,185.14 L52.27,184.58 C55.17,189.97 59.36,199.81 61.32,208.36 L60.53,208.73 L47.91,227.7 L119.49,227.7 C114.35,222.57 109.98,216.27 105.52,211.56 C98.38,213.7 76.79,213.26 77.14,212.33 C77.14,212.33 73.87,199.07 72.02,192.56 C77.89,187.52 77.29,179.58 68.77,176.01 C74.97,171.11 81.21,169.45 87.3,169.05 C89.28,174.08 93.92,174.39 96.11,169.79 C96.12,169.74 104.34,172.32 107.37,175.11 C102.88,174.65 98.44,173.75 93.95,173.54 C97.9,175.1 101.93,179.19 103.22,183.87 C103.85,185.54 104.82,191.05 105.08,191.07 C105.08,191.07 106.58,184.7 107.74,185.05 C110.7,191.25 115.81,186.59 113.66,181.65 C121.21,178.04 129.71,174 136.65,170.66 C138.68,167.59 143.67,161.78 143.99,161.75 C143.99,161.75 153.16,109.12 153.16,91.53 C152.86,70.38 153.53,46.83 152.62,27.05 L152.62,21.42 L133.3,21.42 L119.47,41.74 C119.47,41.74 119.37,42.06 119.37,42.2 C121.26,50.42 123.68,57.42 127.48,65.01 C132.72,61.04 137.14,67.58 133.21,71.37 C132.47,72.08 132.67,72.26 133.4,72.75 C134.13,73.24 139.11,75.75 139.34,75.75 C140.24,74.41 140.5,72.43 141.11,70.92 C141.26,70.35 141.69,70.28 142.56,70.38 C143.67,70.51 143.67,70.97 143.63,63.87 L143.6,57.77 C136.88,54.67 127.98,46.78 127.57,38.58 C131.45,41.42 140.38,45.53 142.76,45.9 C143.81,46.2 143.65,44.37 143.68,43.63 C143.97,43.82 144.07,46.65 144.07,46.65 C140.13,45.45 138.06,45.7 128.21,39.98 C129.9,48.05 137.96,54.41 143.81,57.31 C143.81,57.31 144.05,61.14 144.04,65.43 C144,78.52 144.13,79.1 144.13,79.1 C144.13,79.09 147.35,78.28 148.24,77.83 C149.84,76.55 152.4,77.53 152.75,78.48 C153.27,83.41 152.77,87.99 152.66,92.71 C149.93,92.91 148.44,93.48 147.1,93.54 C146.22,93.42 145.69,93.41 145.25,92.91 C143.95,90.1 144.03,91.88 143.87,94 C143.75,94.63 140.5,93.54 140.17,93.35 C126.1,109.57 127.3,128.25 136.86,145.55 C138.43,144.48 141.15,142.44 143.87,141.11 C143.93,143.31 143.97,147.84 143.97,147.84 C132.96,155.93 119.77,177.38 120.22,177.44 L115.74,172.09 C115.74,172.09 118.56,167.6 119.55,166.42 C119.67,166.28 119.74,164.89 119.74,164.89 L126.58,154.98 C123.66,148.37 119.66,143.29 118.63,136.84 C114.07,116.19 119.01,105.92 118.65,105.14 C118.65,105.14 118.59,104.72 118.49,104.64 C118.34,104.52 118.53,104.4 118.7,104.1 C119.02,103.53 119.54,102.36 119.37,102.01 C119.23,101.75 115.54,98.05 112.37,95 C110.7,93.39 110.76,93.21 109.9,94.08 C109.58,94.41 108.79,95.33 108.79,95.33 C97.34,105.96 88.24,115.63 76.75,126.93 L76.19,126.43 C92.92,109.77 109.8,93.28 126.37,76.46 L123.45,76.51 C123.54,76.3 123.66,76.1 123.83,76.05 C125.39,76.05 126.99,75.57 128.16,74.91 C130.52,73.15 133.91,70.8 134.17,68.48 C134,64.02 130.25,63.37 127.53,65.55 C123.76,58.76 120.78,50.6 119.18,42.97 C119.1,42.59 118.57,41.94 118.49,41.51 C119.3,38.98 132.11,21.49 132.11,21.49 L60.17,21.49 L73.86,37.82 C73.86,37.17 93.37,34.86 102.31,37.59 L107.75,56.96 C102.81,61.75 101.35,69.62 110.44,73.72 C110.62,74.11 109.58,74.74 109.58,74.74 C109.72,74.5 109.97,74.26 109.87,74.04 C107.42,72.97 104.79,70.25 104.79,70.25 C99.33,74.53 94.21,76.92 89.2,77.13 C89.2,77.13 91.85,78.92 92.36,80.9 C92.36,80.9 92.11,80.87 92.05,80.79 C91.51,80.12 90.26,77.97 89.21,77.34 C87.42,76.91 86.37,77.22 84.96,78.19 L83.06,80.04 C78.69,78.71 73.83,76.53 71.16,73.22 L71.16,73.22 Z M83.04,79.83 L85.2,77.48 C81.78,77.06 78.2,76.45 74,75.13 C76.91,77.3 79.96,78.64 83.04,79.83 L83.04,79.83 Z M52.73,211.84 C49.68,208.78 41.99,205.45 36.7,203.92 C36.28,203.83 35.86,203.63 35.86,204.13 L35.79,214.64 L26.29,223.51 L26.29,227.74 L46.56,227.74 L59.86,208.2 C59.86,208.2 60.5,208.08 60.57,207.96 C58.13,197.58 54.45,189.29 52.12,185.14 C52.16,185.19 48.76,187.89 45.77,184.53 C44.09,182.65 45.12,179.34 46.71,178.13 C45.37,177.14 42.59,175.35 40.77,174.83 C40.39,174.74 39.82,175.51 39.64,176.2 C39.3,177.33 38.75,178.34 38.38,179.48 C37.97,180.44 37.57,180.58 36.96,180.31 C36.01,180.03 35.76,179.93 35.76,179.93 L35.79,192.28 C43.08,194.82 50.59,201.31 52.73,211.84 L52.73,211.84 Z M107.31,56.65 C107.15,56.23 103.24,43.47 102.15,38.13 C91.58,37.51 83.76,36.63 74.46,39.28 C74.46,39.28 74.26,42.88 74.35,43.05 C74.45,43.5 74.77,43.49 75.03,43.34 C79.33,40.97 83.99,42.04 84.31,47.88 C84.43,50.1 83.69,51.67 83.55,53.79 C83.43,55.63 81.98,58.09 82.86,59.5 C82.97,59.67 83.59,60.01 84.44,60.37 C86.02,61.05 86.63,61.67 86.75,62.71 C86.92,63.42 86.49,63.9 86.36,63.17 C86.27,62.7 86.19,62.29 84.24,61.62 C82.34,60.97 81.83,60.21 81.64,59.82 C81.38,59.27 81.43,58.88 81.67,58.01 C82.2,56.15 82.71,54.25 82.66,53.35 C82.64,53.03 82.29,53.19 81.83,53.57 C81.25,54.07 78.78,55.7 78.71,55.63 C78.67,55.6 79.12,54.94 79.81,54.28 C80.65,53.47 81.7,52.5 81.7,52.32 C81.7,52 81.57,52.22 80.76,52.46 C79.34,52.85 77.7,52.8 76.6,52.31 C75.66,51.9 75.01,51.66 74.87,51.89 C74.52,57.57 75.37,63.43 77.75,68 C79.88,72.15 84.31,77.36 90.98,76.19 C97.86,74.98 104.56,69.43 104.32,69.43 C101.75,63.6 104.68,59.25 107.31,56.65 L107.31,56.65 Z M77.4,211.47 C84.43,212.25 91.99,212.81 105.3,210.73 L105.37,206.21 C101.22,209.45 95.76,207.23 95.45,203.49 C95.41,200.16 96.3,196.32 97.05,193.58 C97.6,191.54 97.76,190.76 97.24,190.36 C96.09,189.71 94.05,189.63 93.53,188.28 C93.28,187.57 93.26,186.8 93.62,187.35 C93.79,187.6 95.12,188.21 96.15,188.45 C97.96,188.85 98.25,188.98 98.45,189.73 C98.58,190.2 98.28,191.81 97.81,193.27 C97.47,194.32 97.07,195.99 97.07,196.32 C97.07,196.67 97.35,196.73 97.66,196.63 C97.79,196.59 98.43,195.95 98.82,195.6 C100.56,194.05 101.06,194.09 99.58,195.61 C98.99,196.21 98.18,197.04 98.18,197.11 C98.18,197.43 98.48,197.39 99.14,197.15 C100.17,196.78 102.57,196.82 103.64,197.36 C104.97,198.03 105.03,198 105,195.97 C104.76,192.18 104.14,187.7 102.91,184.2 C101.03,178.87 97.13,173.92 91.36,174.14 C84.33,174.51 80.09,177.31 75.31,180.67 C78.2,187.09 74.03,192.01 72.51,192.65 C72.37,192.72 74.41,199.18 75.28,202.46 C76.07,205.44 77.4,211.47 77.4,211.47 L77.4,211.47 Z M103.67,137.44 C104.04,137.07 104.03,136.75 103.7,136.33 C103.39,135.94 103.07,135.83 102.75,136.01 C102.18,136.31 102.24,136.83 102.8,137.42 C103.14,137.77 103.29,137.81 103.67,137.44 L103.67,137.44 Z M102.57,138.91 C102.83,138.51 102.71,138.06 102.21,137.6 C101.74,137.17 101.51,137.15 101.18,137.52 C100.74,138.02 100.81,138.18 101.28,138.71 C101.82,139.3 102.25,139.39 102.57,138.91 L102.57,138.91 Z M101.19,140.69 C101.58,140.23 101.59,140 101.23,139.57 C101.08,139.39 100.86,139.13 100.74,138.98 C100.42,138.6 99.99,138.66 99.55,139.16 C99.34,139.4 99.2,139.65 99.2,139.73 C99.2,139.81 99.43,140.14 99.7,140.46 C100.32,141.19 100.71,141.27 101.19,140.69 L101.19,140.69 Z M92.2,151.98 C92.37,151.72 92.51,151.39 92.51,151.23 C92.51,151.05 92.12,150.58 91.55,149.94 C90.5,148.76 90.23,148.63 89.66,149.18 C89.09,149.73 89.28,149.98 90.29,151.12 C91.55,152.55 91.69,152.72 92.2,151.98 L92.2,151.98 Z M91.21,154.5 C91.34,154.09 91.52,153.73 91.52,153.58 C91.52,153.29 89.17,150.89 88.77,150.63 C88.3,150.33 87.4,151.33 87.63,151.92 C87.69,152.08 88.39,152.91 89.18,153.75 C90.19,154.83 90.69,155.33 90.86,155.31 C91.03,155.28 91.05,155.03 91.21,154.5 L91.21,154.5 Z M88.03,161.01 C88.16,160.68 87.86,160.37 86.02,158.33 C84.15,156.26 83.73,155.77 83.41,155.77 C83.13,155.77 82.47,156.45 82.47,156.73 C82.47,156.85 82.76,157.27 83.12,157.66 C83.48,158.05 84.15,158.8 84.63,159.34 C85.44,160.27 85.83,160.72 86.14,160.94 C86.44,161.15 86.67,161.14 87.16,161.14 C87.83,161.14 87.97,161.16 88.03,161.01 L88.03,161.01 Z M77.45,162.47 C77.5,162.08 77.14,161.97 76.83,162.29 C76.52,162.6 76.64,162.84 77.08,162.79 C77.31,162.76 77.42,162.67 77.45,162.47 L77.45,162.47 Z M96.08,148.29 C95.97,148.83 95.74,149.18 95.22,149.43 C91.24,152.31 91.36,157.01 90.51,161.34 C84.05,161.28 73.84,163.93 73.9,164.07 L108.24,129.36 C108.24,129.36 108.66,129.47 108.4,129.77 C105.62,131.78 105.8,135.67 103.97,137.62 C100.91,141.31 98.08,144.52 96.08,148.29 L96.08,148.29 Z M98.38,144.17 C98.47,143.82 98.25,143.45 97.75,142.82 C97.12,142.04 96.82,141.99 96.23,142.59 C96.01,142.82 95.91,143.01 95.91,143.12 C95.91,143.42 97.22,145.08 97.46,145.08 C98.02,145.01 98.2,144.61 98.38,144.17 L98.38,144.17 Z M96.98,146 C96.97,145.58 95.72,143.95 95.33,143.79 C95,143.79 94.3,144.56 94.3,144.91 C94.3,145.1 94.57,145.52 95.02,146.05 C95.91,147.08 96.14,147.31 96.33,147.15 C96.65,146.89 96.98,146.42 96.98,146 L96.98,146 Z M93.55,145.65 C93.25,145.64 92.75,146.18 92.75,146.47 C92.75,146.72 93.74,147.96 94.43,148.58 C94.99,149.08 95.25,149.22 95.64,148.89 C95.93,148.46 95.87,148.08 95.68,147.75 C95.19,147.19 94.11,145.67 93.55,145.65 L93.55,145.65 Z M94.19,149.29 C92.97,147.83 92.29,147.16 92.04,147.16 C91.88,147.16 91.62,147.32 91.35,147.63 C90.89,148.06 90.94,148.04 91.22,148.56 C91.37,148.82 91.79,149.35 92.16,149.72 C92.83,150.42 93.17,150.64 93.5,150.31 C93.78,150.01 94.49,149.66 94.19,149.29 L94.19,149.29 Z M86.48,152.51 C85.97,152.93 85.78,153.1 85.77,153.39 C85.77,153.82 90.14,158.63 90.53,158.63 C90.76,158.63 90.72,158.59 90.86,158.08 C91.13,156.51 90.7,156.05 89.57,155.01 C88.81,154.32 87.28,151.93 86.48,152.51 L86.48,152.51 Z M90.44,160.29 C90.44,159.64 90.1,159.28 88.73,157.79 C88.23,157.25 87.39,156.31 86.86,155.7 C85.83,154.53 85.39,154.17 84.98,154.17 C84.65,154.16 84.16,154.69 84.16,155.03 C84.16,155.24 86.69,158.15 88.98,160.62 C89.49,161.16 89.72,161.32 90.21,161.06 C90.49,160.87 90.44,160.55 90.44,160.29 L90.44,160.29 Z M85.06,161.02 C85.01,160.74 81.96,157.5 81.74,157.5 C81.45,157.5 80.88,158.14 80.88,158.43 C80.88,158.67 81.86,159.96 82.77,160.91 C83.22,161.38 83.26,161.45 83.81,161.36 C84.42,161.27 85.21,161.4 85.06,161.02 L85.06,161.02 Z M81.97,160.86 C81.43,160.29 80.36,159.03 80.19,159.03 C79.91,159.03 79.26,159.71 79.26,160 C79.26,160.33 80.24,161.69 80.56,161.8 C81.38,161.73 82.88,161.82 81.97,160.86 L81.97,160.86 Z M79.47,161.66 C79.2,161.13 78.62,160.58 78.36,160.67 C78.08,160.77 77.81,161.17 77.81,161.42 C77.92,161.94 78.36,162.29 78.69,162.29 C79.32,162.21 79.7,162.1 79.47,161.66 L79.47,161.66 Z M100.01,141.87 C99.89,141.41 99.33,140.79 98.9,140.57 C98.48,140.35 98.22,140.39 97.82,140.9 C97.45,141.38 97.62,141.66 98.18,142.37 C98.59,142.88 98.75,143.05 99.08,143.05 C99.47,142.9 100.09,142.37 100.01,141.87 L100.01,141.87 Z M105.31,133.98 C105.21,133.48 105.05,133.59 104.54,134.04 C103.59,134.88 103.44,135.48 104.03,135.79 C104.34,135.96 104.59,135.94 104.77,135.53 C105.17,134.64 105.29,134.33 105.31,133.98 L105.31,133.98 Z M109.04,142.29 C110.06,141.61 110.16,141.59 110.05,140.69 C109.91,139.56 109.79,139.63 108.82,141.12 C108.17,142.11 107.95,142.39 108.05,142.58 C108.22,142.89 108.4,142.71 109.04,142.29 L109.04,142.29 Z M104.95,147.72 C106.28,146.82 107.49,145.74 108.82,144.83 C109.81,144.15 110.09,143.94 110.03,143.08 C110,142.59 109.57,142.87 107.88,143.99 C106.65,144.82 106.08,145.14 105.64,145.71 C105.34,146.42 104.33,147.08 104.27,147.9 C104.27,148.2 104.47,148.06 104.95,147.72 L104.95,147.72 Z M106.09,151.9 C107.83,150.66 109.75,149.27 110.01,148.94 C110.33,148.54 110.28,147.66 109.87,147.66 C108.12,148.83 106.01,150.38 104.53,151.59 C104.34,151.76 104.1,151.92 104.02,152.14 C104.01,152.43 104.37,152.81 104.51,152.82 C104.8,152.82 105.24,152.5 106.09,151.9 L106.09,151.9 Z M106.63,153.99 C110.42,151.29 110.32,151.52 110.24,150.51 C110.21,150.17 110.13,150.02 109.98,149.99 C109.87,149.97 109.2,150.45 108.44,150.98 C107.69,151.51 106.79,152.22 106.34,152.54 C105.03,153.45 104.59,153.7 104.59,154.22 C104.59,154.74 104.73,155.07 104.96,155.07 C105.04,155.07 105.8,154.58 106.63,153.99 L106.63,153.99 Z M105.4,157.19 C106.63,156.37 109.59,154.32 109.86,154.06 C110.33,153.62 110.41,152.92 109.99,152.84 C109.78,152.8 107.49,154.33 105.56,155.79 C104.62,156.51 104.41,156.67 104.41,157.35 C104.41,157.76 104.65,157.68 105.4,157.19 L105.4,157.19 Z M102.78,161.59 C105.18,159.77 107.52,158.34 109.9,156.41 C110.16,156.2 110.31,156.19 110.31,155.71 C110.33,154.81 110.15,154.8 109.26,155.44 C108.86,155.72 107.42,156.73 106.04,157.66 C104.61,158.63 103.29,159.49 103.02,159.8 C101.68,161.36 101.18,162.09 101.32,162.31 C101.46,162.55 101.74,162.29 102.78,161.59 L102.78,161.59 Z M100.23,163.16 C100.61,161.9 101.14,160.91 102.01,159.97 C105.48,156.88 104.42,153.08 102.23,149.99 C105.07,146.01 107.9,141.79 110.34,137.92 L110.33,131.64 L110.66,131.67 C110.54,145.39 111.17,167.88 111.17,167.88 L113.99,170.03 L113.61,170.22 C114.08,170.15 105.39,164.7 100.23,163.16 L100.23,163.16 Z M110.28,167.29 C110.49,167.22 110.49,167.11 110.46,166.85 C110.43,166.57 110.39,166.58 110.08,166.58 C109.24,166.61 109.99,167.37 110.28,167.29 L110.28,167.29 Z M110,165.78 C110.4,165.42 110.48,165.36 110.48,164.95 C110.5,164.21 110.32,164.24 109.26,165 C108.53,165.47 108.08,165.81 108.21,166.09 C108.74,166.91 109.48,166.26 110,165.78 L110,165.78 Z M107.24,165.55 C107.54,165.35 110.12,163.7 110.33,163.48 C110.57,163.23 110.5,162.1 110.27,162.01 C109.61,162.53 106.17,164.63 106.16,164.97 C106.51,165.29 106.98,165.58 107.24,165.55 L107.24,165.55 Z M105.41,164.63 C106.86,163.44 108.6,162.3 110.15,161.15 C110.37,160.93 110.43,160.2 110.21,159.9 C110.03,159.66 110.18,159.71 109.75,159.95 C109.12,160.31 105.36,162.88 104.66,163.46 C104.25,163.8 103.91,163.96 104.01,164.08 C104.48,164.39 104.98,164.57 105.41,164.63 L105.41,164.63 Z M103.26,163.69 C105.47,162.15 107.26,160.56 110.14,158.78 C110.37,158.49 110.4,158.05 110.26,157.69 C110.1,157.25 109.86,157.43 108.99,158.03 C106.87,159.47 104.68,161.15 102.86,162.41 C102.27,162.8 101.78,163.02 101.9,163.25 C102.06,163.54 102.97,163.63 103.26,163.69 L103.26,163.69 Z M103.56,151.2 C103.9,151.15 104.55,150.74 105.51,149.92 C106.53,149.04 109.75,147.09 110.1,146.31 C110.26,145.86 110.15,145.22 109.81,145.17 C109.55,145.14 109.5,145.33 107.35,146.88 C105.91,147.93 103.36,149.8 102.98,150.19 C102.81,150.62 103.19,151.15 103.56,151.2 L103.56,151.2 Z M142.21,73.9 C142.64,73.37 143.13,71.56 142.9,71.19 C142.69,70.98 142.14,71.01 141.87,71.25 C141.6,71.5 140.93,73.78 141.03,74.05 C141.13,74.33 141.83,74.2 142.21,73.9 L142.21,73.9 Z M137.26,75.71 C137.26,75.59 136.53,75.13 135.38,74.5 C131.84,72.57 131.78,72.56 130.67,73.46 C130.29,73.77 129.98,74.12 129.98,74.24 C129.98,74.37 130.75,75.19 131.73,76.12 C133.76,78.04 134.25,78.46 134.54,78.46 C135.12,78.02 137.17,76.24 137.26,75.71 L137.26,75.71 Z M131.63,81.78 C131.81,81.64 132.13,81.27 132.34,80.97 C132.79,80.32 132.75,79.95 132.22,79.61 C132.02,79.48 131.15,78.69 130.28,77.86 C129.41,77.02 128.59,76.29 128.45,76.24 C127.74,76.14 126.44,77.29 126.58,77.88 C126.65,78.19 129.84,81.33 130.55,81.8 C131.01,82.1 131.23,82.1 131.63,81.78 L131.63,81.78 Z M129.24,84.32 C129.24,83.89 125.09,79.81 124.65,79.81 C123.96,79.81 122.98,80.88 123.13,81.47 C123.2,81.73 127.09,85.66 127.58,85.95 C128.26,86.35 129.2,84.97 129.24,84.32 L129.24,84.32 Z M149.51,85.84 C151,85.33 151.57,84.93 152,84.11 C152.34,83.46 152.19,83.17 152.15,82.54 C152.08,81.58 151.6,81.69 150.21,82.19 C149.54,82.45 146.3,83.36 146.25,83.7 C147.82,84.59 147.42,85.06 147.43,86.21 C147.51,86.46 148.25,86.28 149.51,85.84 L149.51,85.84 Z M146.09,86.36 C147.12,85.83 146.91,84.56 145.76,84.06 C144.25,83.66 143.27,85.48 144.51,86.37 C144.85,86.61 145.69,86.57 146.09,86.36 L146.09,86.36 Z M148.33,89.69 C150.45,89.13 151.47,88.76 151.91,88.09 C152.22,87.64 152.25,87.36 151.91,86.61 C151.59,85.92 151.22,85.71 149.89,86.44 C148.98,86.94 146.95,87.18 146.24,87.6 C145.96,87.84 146.1,87.84 146.33,87.98 C146.84,88.31 147.09,88.53 147.03,88.96 C146.91,89.9 147.01,90.04 148.34,89.69 L148.33,89.69 L148.33,89.69 Z M145.86,89.99 C147.11,88.79 145.69,87.47 144.66,88.08 C144.22,88.35 143.96,88.94 144.1,89.33 C144.32,89.99 145.2,90.34 145.86,89.99 L145.86,89.99 Z M125.54,90.19 C125.9,90 126.57,88.74 126.49,88.42 C126.45,88.27 125.32,87.05 123.97,85.71 C121.31,83.06 121.16,82.96 120.49,83.56 C119.89,84.09 119.51,84.63 119.59,84.85 C119.68,85.11 123.66,89.17 124.48,89.83 C125.12,90.35 125.2,90.38 125.54,90.19 L125.54,90.19 Z M123.82,92.82 C123.82,92.61 123.5,92.19 122.74,91.41 C120.74,89.34 117.89,86.73 117.64,86.73 C117.32,86.73 116.45,87.44 116.22,87.88 C116.06,88.19 116.06,88.27 116.25,88.56 C116.6,89.11 121.06,93.36 122.33,94.42 C123.09,95.13 123.78,93.35 123.82,92.82 L123.82,92.82 Z M120.63,99.3 C120.98,99.02 121.48,97.99 121.48,97.57 C121.48,97.2 121.21,96.88 118.61,94.24 C115.15,90.73 114.56,90.19 114.11,90.19 C113.69,90.19 112.6,91.23 112.6,91.62 C112.6,91.81 113.62,92.91 116.02,95.32 C120.48,99.78 120.27,99.59 120.63,99.3 L120.63,99.3 Z M133.8,147.38 C130.98,142.66 115.92,117.11 138.92,88.61 C138.92,88.61 138.84,87.16 138.67,86.61 C138.36,85.64 137.88,85.24 137.88,85.24 C128.22,99.77 114.18,117.96 131.71,149.53 L133.8,147.38 L133.8,147.38 Z M131.22,149.65 C114,123.13 125.57,99.79 137.54,84.92 C137.93,84.43 138.02,84.41 137.94,84.02 C137.82,83.51 137.68,80.93 137.77,79.44 C115.63,101.43 115.06,130.07 128.95,152.8 C129.94,151.91 131.94,150.72 131.22,149.65 L131.22,149.65 Z M105.58,174.53 C102.91,172.64 99.73,171.5 96.43,170.62 L93.9,173.24 C93.76,173.15 101.22,173.31 105.58,174.53 L105.58,174.53 Z M74.88,179.91 C80.39,176.03 83.63,173.82 90.7,173.44 C88.18,172.4 87.76,171.03 87.05,169.72 C78.3,170.55 73.65,173.35 69.49,175.97 C71.21,176.78 73,177.72 74.88,179.91 L74.88,179.91 Z M144.32,80.04 C143.78,80.42 143.58,81.17 143.74,81.79 C144.27,83.19 146.13,82.75 146.35,81.74 C146.46,81.3 146.17,80.63 145.66,80.49 C145.57,80.46 145.25,80.49 145.09,80.32 C144.97,80.2 145.71,79.82 146.15,79.96 C146.69,80.14 147.13,80.86 147.13,81.49 C147.13,81.73 147.07,82.09 147.15,82.21 C148.05,82.19 149.08,81.69 150.04,81.42 C151.67,80.97 152.26,80.04 151.9,78.94 C151.6,78.03 150.66,77.67 149.44,78.13 C147.76,78.76 145.79,79.07 144.32,80.04 L144.32,80.04 Z M119.29,175.49 L120.27,175.36 L119.93,171.29 L123.51,170.22 L123.26,166.18 L127.08,164.86 L126.85,160.31 L130.82,159.52 L131.34,155.54 L135.09,155.27 L135.87,150.94 L139.89,150.8 L140.72,147.19 L143.4,147.18 L143.39,145.15 L139.21,145.17 L138.33,149.07 L134.39,149.18 L133.56,153.46 L129.43,153.43 L128.9,158.05 L125.02,158.69 L125.02,163.66 L121.27,164.64 L121.56,168.89 L117.82,170.26 L118.25,174.31 L119.29,175.49 L119.29,175.49 Z M90.84,179.14 C89.53,178.65 88.88,178.13 88.88,177.97 C88.88,177.79 89.16,177.82 90.19,178.11 C91.6,178.63 93.26,178.9 94.64,178.42 C95.64,178.05 96.14,177.81 96.14,178.04 C96.14,178.27 95.73,178.88 95.04,179.23 C93.68,179.79 91.88,179.53 90.84,179.14 L90.84,179.14 Z M89.21,182.14 C89.14,182.02 89.78,181.38 90.22,181.16 C91.5,180.5 94.04,180.53 95.86,181.2 C96.8,181.55 96.95,182.15 96.03,182.02 C94.11,181.62 91.71,181.29 89.85,182.17 C89.71,182.25 89.25,182.2 89.21,182.14 L89.21,182.14 Z M86.16,182.94 C86.02,182.62 86.37,182.66 86.99,183.05 C87.63,183.46 88.57,183.8 89.23,183.8 C89.51,183.8 90.5,183.62 91.44,183.41 C92.55,183 93.54,182.97 94.7,183.22 C95.56,183.34 96.43,183.43 96.63,183.43 C97.21,183.51 98.18,182.8 98.45,182.35 C99.15,181.14 98.99,183.34 98.99,183.6 C99,184.73 99.14,186.03 98.33,185.42 C97.86,185.17 97.02,184.95 96.35,185.4 C95.68,185.85 95.13,185.94 94.34,185.47 C93.7,185.22 93.35,185.16 92.87,185.61 C92.33,186.11 91.03,185.93 90.33,185.7 C89.13,185.5 88.45,185.33 87.65,185.97 C87.22,186.21 87.11,186.03 86.78,185.08 C86.46,184.12 86.21,183.06 86.15,182.94 L86.16,182.94 L86.16,182.94 Z M39.39,105.84 L40.8,101.54 L45.1,101.42 L45.7,97.14 L50.13,96.5 L50.2,92.08 L54.43,91.5 L54.17,86.76 L58.09,85.83 L57.89,81.44 L61.46,80.34 L61.32,76.53 L61.93,76.04 L60.39,74.47 L59.06,74.91 L59.04,78.83 L55.47,79.98 L55.85,84.32 L52.25,85.14 L52.21,89.87 L48.07,90.33 L47.77,94.5 L43.74,95.29 L43.14,99.38 L39.22,99.64 L38.03,103.23 L35.44,103.26 L35.44,105.66 L39.39,105.84 L39.39,105.84 Z M34.07,158.29 C34.08,158.02 34.01,157.75 33.81,157.54 C33.32,157.01 32.4,157.29 32.17,157.99 C31.96,159.63 34,159.7 34.07,158.29 L34.07,158.29 Z M66.75,159.16 C66.75,158.68 59.55,151.94 59.04,151.94 C58.7,151.94 58.45,152.22 58.12,152.99 C57.84,153.65 57.87,154.04 58.22,154.38 C58.74,154.89 60.13,156.17 61.45,157.36 C62.23,158.07 63.12,158.91 63.44,159.24 C64.18,160 64.99,160.59 65.3,160.59 C65.75,160.33 66.37,159.97 66.75,159.16 L66.75,159.16 Z M34.45,162.69 C35.27,162.33 35.42,161.43 34.96,160.72 C34.06,159.93 32.81,160.59 32.79,161.61 C32.95,162.56 33.76,162.97 34.45,162.69 L34.45,162.69 Z M63.29,162.53 C63.29,162.29 62.8,161.76 61.11,160.13 C56.91,156.11 57.1,156.27 56.63,156.52 C56.34,156.67 55.78,157.75 55.78,158.15 C55.78,158.45 56.18,158.87 59.29,161.78 C61.12,163.49 61.66,163.92 61.97,163.92 C62.47,163.68 63.27,163.14 63.29,162.53 L63.29,162.53 Z M34.34,164.04 C33.94,163.92 33.57,163.99 33.26,164.24 C31.58,165.67 33.97,167.51 34.95,166.36 C35.6,165.72 35.58,164.33 34.34,164.04 L34.34,164.04 Z M59.8,166.07 C59.89,165.76 59.71,165.49 59.25,165.05 C58.92,164.73 57.77,163.6 56.68,162.52 C54.39,160.27 54.39,160.27 53.65,161.32 C52.9,162.4 52.9,162.41 55.13,164.59 C57.5,166.91 58.06,167.38 58.43,167.38 C58.99,167.12 59.6,166.69 59.8,166.07 L59.8,166.07 Z M56.39,169.48 C56.39,169.27 56.04,168.84 55.19,168 C53.02,165.87 51.81,164.89 51.43,164.89 C51.01,165.03 50.26,166.3 50.21,166.74 C50.36,167 53.99,170.3 54.46,170.62 C55.04,171.19 56.31,169.88 56.39,169.48 L56.39,169.48 Z M53.03,172.8 C52.63,172.49 49.47,168.98 48.53,168.8 C48.17,168.74 47.02,170.04 47.02,170.34 C47.02,170.54 49,172.56 50.4,173.78 C50.8,174.13 51.24,174.42 51.38,174.42 C51.83,174.19 52.97,173.27 53.03,172.8 L53.03,172.8 Z M48.07,177.39 C48.5,177.22 49.16,176.31 49.16,176 C49.16,175.66 46.51,173.08 45.41,172.37 C44.91,172.04 44.67,172.27 43.79,173.46 C43.01,174.52 42.9,174.53 43.05,174.73 C43.22,174.98 45.92,176.73 46.82,177.23 C47.13,177.41 47.65,177.54 48.07,177.39 L48.07,177.39 Z M40.52,165.47 C40.36,165.01 40.19,163.97 40.1,163.17 C40.04,162.65 40.02,162.16 40,161.65 C39.83,160.64 39.42,158.32 39.08,157.8 C38.72,157.25 37.84,156.85 36.85,156.79 C36.01,156.73 35.94,156.75 35.76,157.02 C35.46,157.49 35.67,159.87 35.98,160.74 C36.33,161.77 36.13,162.32 35.84,163.33 C35.74,163.7 35.7,163.73 35.88,163.75 C36.67,163.7 36.93,162.73 37.24,163.02 C37.35,163.12 37.08,163.92 36.71,164.72 C36.32,165.57 36.21,166.73 36.67,168.17 C36.92,168.97 36.81,169.22 36.66,169.71 C36.55,170.03 36.37,171.03 36.37,172.01 C36.73,173.25 36.55,173.8 36.33,174.21 C35.86,175.26 35.5,176.69 35.75,177.49 C35.86,177.84 36.15,177.54 36.37,176.94 C36.7,175.75 37.08,175.49 38.06,175.49 C38.76,175.49 38.83,175.73 39.07,175.42 C39.6,174.7 40.9,172.14 40.92,171.43 C41.42,169.62 41.45,168.06 40.52,165.47 L40.52,165.47 Z M41.57,170.53 C57.35,153.69 67.13,130.39 50.02,98.25 C48.98,97.22 47.51,100.55 47.33,100.68 L45.15,102.59 C56.72,122.59 54.71,145.6 40.56,161.96 L40.57,163 C40.61,165.28 41.26,165.18 42.22,164.11 C43.24,163.04 42.56,163.91 42.14,164.36 C41.79,164.73 41.22,165.49 41.06,165.69 C41.25,167.06 42.11,169.61 41.57,170.53 L41.57,170.53 Z M37.53,179.11 C37.74,178.86 38.22,177.28 38.22,176.89 C38.12,176.24 37.64,176.09 37.21,176.51 C36.7,176.98 36.83,177.68 36.53,178.22 C36.42,178.41 36.31,178.66 36.34,178.77 C36.5,179.34 37.2,179.44 37.53,179.11 L37.53,179.11 Z M27.27,167.44 C27.3,168.34 27.55,168.74 28.14,168.75 C29.38,168.53 30.54,167.94 31.69,167.57 C32.59,167.27 32.96,166.94 32.27,166.37 C32.06,166.13 31.88,165.79 31.98,165.14 C32.22,164.39 32.04,164.35 31.72,164.32 C31.41,164.28 30.69,164.58 28.84,165.29 C27.87,165.67 27.68,165.83 27.43,166.36 C27.32,166.77 27.25,167.02 27.26,167.44 L27.27,167.44 L27.27,167.44 Z M35.13,170.34 C36.49,169.46 35.93,167.91 34.66,167.66 C32.96,167.69 32.53,169.65 33.75,170.33 C33.75,170.57 33.14,170.38 32.81,170.13 C32.3,169.75 32.77,168.26 32.29,168.2 C31.93,168.2 28.41,169.45 28.03,169.7 C26.45,170.6 27.93,172.63 28.85,172.4 C30.76,171.92 33.35,171.49 35.13,170.34 L35.13,170.34 Z M87.48,192.83 C85.93,191.6 86.76,189.73 88.04,189.16 C88.72,188.87 89.82,188.91 91.02,189.33 C92.07,189.82 92.7,189.75 93.79,189.61 C94.5,189.53 94.37,191.04 93.62,191.43 C93.09,191.7 91.88,191.57 90.41,190.73 C87.86,189.28 86.75,191.16 88.32,192.86 C89.2,193.79 87.7,193.04 87.48,192.83 L87.48,192.83 Z M112.54,193.53 C112.64,195.12 111.05,196.21 109.44,195.84 C108.79,195.67 108.59,195.82 108.16,196.76 C107.21,199.32 106.83,201.89 106.58,203.57 C106.47,205.08 105.92,209.02 106.32,210.27 C110.91,215.96 115.75,221.88 121.04,227.74 L152.62,227.74 L152.62,190.58 L143.57,181.92 L143.59,168.18 C133.8,172.8 124.04,177.49 114.27,182.15 C116.4,188.99 109.18,190.43 107.59,185.84 C106.22,187.1 105.1,193.89 105.61,194.23 C105.61,194.23 105.79,194.47 106.09,193.93 C106.59,193.04 107.24,192.39 107.94,191.95 C109.98,190.69 112.4,191.31 112.54,193.53 L112.54,193.53 Z M105.51,197.55 C105.57,198.33 105.59,199.53 105.59,200.17 C105.56,201.43 106.06,201.72 106.6,201.03 C107.13,199.39 107.34,196.8 108.6,195.49 C109.54,195.22 110.69,195.7 111.36,195.05 C112.89,193.55 111.69,191.87 110.28,191.74 C107.4,191.69 105.31,195.2 105.51,197.55 L105.51,197.55 Z M27.43,164.39 C27.85,164.81 27.97,164.83 29.22,164.36 C29.66,164.07 30.57,163.7 31.22,163.66 C32.73,163.26 32.73,163.42 32.3,162.45 C32.1,162 32.04,161.63 32.1,161.22 C32.17,160.73 32.23,160.67 31.96,160.58 C31.23,160.35 27.88,161.61 27.28,162.59 C26.85,163.28 26.91,163.87 27.43,164.39 L27.43,164.39 Z M27.71,160.96 C27.94,160.96 30.17,160.23 30.96,159.88 C31.75,159.57 31.84,159.58 31.53,159.15 C31.41,158.98 31.31,158.52 31.37,158.02 L31.43,157.31 C30.06,157.04 28.01,157.8 27.3,158.76 C26.8,159.37 26.85,160.74 27.71,160.96 L27.71,160.96 Z M88.12,200.13 C88.49,199.76 88.56,199.52 88.23,199.1 C88.08,198.91 87.66,198.72 87.2,198.56 C86.61,198.37 86.35,198.12 86.72,198.93 L87.25,200.07 C87.52,200.62 87.76,200.48 88.12,200.13 L88.12,200.13 Z M81.21,198.53 C80.58,198.81 79.75,199 79.55,199.43 C79.3,200 80.19,200.17 80.65,200.36 C81.29,200.67 81.3,200.55 81.51,200.06 C81.64,199.75 81.81,199.35 81.97,198.98 C82.45,198.06 81.97,198.19 81.21,198.53 L81.21,198.53 Z M86.69,200.94 C86.78,200.95 86.38,199.27 85.92,198.78 C85.02,197.8 83.65,197.63 82.82,198.62 C82.35,199.19 81.84,200.75 81.84,200.75 C81.84,200.75 82.57,200.96 82.77,200.96 C82.8,200.61 82.8,199.63 83.52,199.06 C83.88,198.78 84.64,198.79 84.94,199.02 C85.53,199.31 85.78,200.49 85.79,200.94 C86.11,201.04 86.85,200.95 86.69,200.94 L86.69,200.94 Z M76.77,201.15 C75.77,199.64 77.1,200.78 77.54,201.21 C80.77,204.22 85.14,205.24 88.9,202.4 C89.07,202.21 89.1,202.03 89.05,201.89 C88.94,201.61 88.94,201.91 87.33,202.47 C83.73,203.82 80.69,202.71 77.73,200.44 C76.51,199.5 75.94,199.03 75.94,198.79 C75.94,198.56 76.17,198.42 76.58,198.49 C76.83,198.53 77.54,198.68 78.06,198.72 C78.96,198.8 78.9,198.76 79.82,198.33 C81.79,197.42 83.61,197.08 85.68,197.45 C86.16,197.54 86.76,197.7 86.84,197.67 C87.3,197.52 86.62,196.91 84.87,195.52 C84.52,195.24 84.1,195.01 83.95,194.77 C83.73,194.4 83.97,194.31 84.22,194.31 C84.94,194.32 88.17,197.02 89.28,198.63 C89.62,199.12 89.85,199.17 89.85,199.68 C89.79,200.21 89.7,200.71 90.27,201.45 C90.68,201.98 91.08,202.83 91.08,202.88 C91.09,202.92 91,203.19 90.63,202.94 C90.46,202.91 90.37,202.73 90.06,202.77 C89.79,202.81 89.35,203.03 88.86,203.25 C84.33,206.17 80.16,204.75 76.77,201.15 L76.77,201.15 Z M79.07,206.27 C77.97,205.71 76.65,204.52 76.85,204.31 C76.95,204.21 77.54,204.4 78.09,204.64 C82.45,206.48 85.84,206.36 91.04,204.47 C91.43,204.33 92.02,205.08 91.8,205.49 C89.5,208.91 82.04,207.69 79.07,206.27 L79.07,206.27 Z M40.96,80.78 L35.37,83.27 L35.35,87.45 C37.68,85.59 39.5,83.33 40.96,80.78 L40.96,80.78 Z M71.13,54.61 C66.48,53.34 66.59,57.97 69.99,58.14 C73.81,58.47 75.44,51.96 73.62,49.39 C73.62,49.39 72.04,54.3 71.13,54.61 L71.13,54.61 Z M24.31,229.57 L154.35,229.57 L154.35,19.72 L24.31,19.72 L24.31,229.57 Z" id="Fill-584" fill="#22244E"></path>
        <path d="M108.59,192.13 C106,192.9 104.92,198.36 105.76,201.01 C105.91,201.5 105.81,201.61 106.23,201.13 C107.24,199.64 106.92,196.68 108.7,195.12 C113.42,196.54 112.95,190.4 108.59,192.13 L108.59,192.13 Z M26.37,173.99 C26.27,173.99 26.09,204.14 26.31,219.12 C26.06,219.74 25.89,223.05 25.89,223.05 L35.15,214.33 L35.43,203.07 C37.85,202.49 52.92,210.15 51.71,210.11 C52.87,209.63 44.76,194.29 35.3,192.58 C35.13,183.89 35.04,174.05 34.79,171.41 C31.5,172.04 26.37,174.01 26.37,173.99 L26.37,173.99 Z M109.99,133.9 C109.98,133.91 109.97,133.91 109.96,133.92 C106.68,138.6 100.41,148.76 99.96,148.73 C99.83,148.43 93.48,148.71 92.29,152.71 C91.28,155.69 91.2,158.43 90.47,161.5 C77.74,161.09 68.42,165.12 58.6,174.18 C53.79,174.15 50.22,175.26 48.55,177.3 C46.06,179.1 45.39,180.65 45.51,182.54 C45.73,185.96 51.77,186.45 52.08,184.03 C52.38,184.03 57.98,196.86 58.53,199.04 C59.85,202.57 61.26,209.18 61.43,209.19 C63.69,209.34 76.35,212.89 76.39,211.6 C77.59,211.09 71.99,192.74 71.99,192.74 C81.77,184.52 70.99,175.74 68.46,176.06 C74.02,172.09 80.41,169.41 87.46,169.06 C88.55,172.98 93.61,175 96.16,169.79 C96.16,169.79 107.11,173.71 107.07,175.01 C102.55,174.33 98.85,173.98 94.33,173.54 C102.98,178.25 103.25,184.45 105.02,190.63 C105.26,189.53 107.54,184.76 107.54,184.76 C110.47,191.28 116.06,186.75 113.75,181.49 L120.7,178.26 C121.5,177.85 110.32,165.25 100.15,163.47 C100.66,162.53 100.86,161.65 101.39,160.88 C103.94,158.37 105.92,154.7 102.02,150.31 C104.59,146.71 110.56,138.01 110.18,137.86 C110.18,137.86 110.3,133.79 109.99,133.9 L109.99,133.9 Z M108.95,95.13 C105.07,98.31 91.71,111.43 91.74,111.57 C95.28,117.52 109.27,129.44 115.97,136.1 L116.94,170.05 C117.93,168.72 118.65,167.47 119.72,166.14 C119.72,166.14 119.54,148.95 119.13,140.89 C119,138.51 118.46,136.63 118.63,136.41 C116.74,126.63 115.96,115.83 118.63,105.34 C112.3,99.88 110.29,96.25 108.95,95.13 L108.95,95.13 Z M143.92,148.31 C133.82,157.35 124.59,166.63 120.81,177.9 C126.21,175.72 131.34,173.07 136.6,170.62 C139.14,167.56 141.1,164.6 144.01,161.69 C144.01,161.69 144.33,174.99 144.07,181.66 C146.7,183.61 152.94,189.73 152.94,189.73 C152.94,189.73 154.66,95.25 150.94,92.85 C147.33,93.55 145.52,94.87 144.17,90.68 C143.22,109.91 143.92,148.31 143.92,148.31 L143.92,148.31 Z M62.87,80.14 L59.59,84.9 C59.59,84.9 59.67,101.25 59.85,109.12 C59.99,110.69 61.41,112.13 60.27,113.53 C60.97,113.53 64,134.74 61.12,143.33 C60.6,144.87 61.08,145.96 61.89,146.31 C66.01,150.88 68.27,155.26 73.7,152.67 C79.62,147.25 88.03,137.74 88.03,137.74 L65.79,116.68 C63.89,111.57 62.87,80.14 62.87,80.14 L62.87,80.14 Z M25.75,60.07 C25.9,92.53 26.48,124.97 27.24,157.42 C30.17,156.69 32.29,156.14 35.17,157.4 C35.44,148.17 34.63,124.9 34.82,102.36 C45.76,93.83 53.45,84.43 58.85,72.14 L42.14,79.97 C42.14,79.97 36.68,87.82 34.94,88.32 C34.69,87.2 34.41,73.93 34.63,68.24 L25.75,60.07 L25.75,60.07 Z M73.65,49.92 C73.32,49.94 72.12,55.28 71.06,55.23 C66.58,52.34 66.49,58.33 70.34,58.06 C73.6,57.83 75.42,52.56 73.66,49.92 L73.65,49.92 L73.65,49.92 Z M104.23,38.2 C103.39,38.21 102.88,38.44 102.89,38.99 C102.64,38.95 106.11,51.76 107.69,57.11 C104.61,60.22 101.4,65.63 106,70.63 C106.98,71.7 108.77,72.61 110.48,73.63 C111.24,74.37 101.14,80.9 92.15,80.9 C89.26,74.57 85.24,78.07 83.02,80.28 C81.28,80.13 74.81,76.26 71.5,74.05 C71.44,74.01 71.48,73.1 71.48,72.93 C71.71,74.44 84.46,77.7 85.04,76.18 C84.67,76.18 79.32,72.56 77.78,68.98 C75.82,64.95 74.25,59.41 74.25,59.41 C73.54,61.46 73.78,64.3 71.81,65.31 C71.23,58.64 61.72,62.04 66.45,68.57 C63.79,69.35 61.52,70.73 58.94,71.87 C64.34,79.23 71.77,84.13 79.62,87.01 C78.58,89.22 72.47,94.2 77.49,100.06 C77.72,100.24 72.7,105.73 70.22,110.03 C68.36,113.26 68.92,115.74 69.14,115.82 C75.94,108 79.77,101.39 79.77,101.39 C79.71,102.3 87.85,101.81 87.71,94.47 C87.89,92.49 88.25,90.34 89.01,88.5 C101.43,89.09 112.1,84.65 121.13,75.35 C121.13,75.35 122.96,75.87 124.12,76.05 C127.31,75.97 129.14,74.34 130.61,72.89 C131.96,71.79 133.31,70.74 133.79,69.61 C135.56,61.97 127.76,64.95 127.4,65.36 C122.94,59.29 119.17,42.04 118.56,41.91 C116.08,41.4 107.56,38.14 104.23,38.2 L104.23,38.2 Z M152.64,27.5 L143.94,36.14 L144.06,46.36 C144.94,47.97 130.63,41.78 128.37,39.91 C128.63,46.74 137.94,54.52 143.99,57.37 L144.15,79.23 C146.65,77.96 149.74,77.19 151.94,76.98 C153.13,62.11 154.14,42.76 152.64,27.5 L152.64,27.5 Z" id="Fill-585" fill="#DACA2C"></path>
        <path d="M71.13,21.49 L77.37,21.49 L79.8,28.91 L76.21,29.31 L71.13,21.49 L71.13,21.49 Z M89.88,28.66 L88,21.49 L103.63,21.49 L101.62,29.5 C97.49,28.8 93.72,28.67 89.88,28.66 L89.88,28.66 Z M111.33,30.96 L114.3,21.48 L123.17,21.49 L116.38,32.32 L111.33,30.96 L111.33,30.96 Z M73.82,37.78 L60.81,21.49 L67.11,21.49 L74.86,33.02 L84.14,31.96 L80.88,21.49 L84.72,21.49 L87.44,31.79 C93.13,31.92 98.69,32.37 104.09,32.91 L106.87,21.49 L110.79,21.49 L107.23,33.44 L117.71,36.2 L127.05,21.49 L131.69,21.49 L118.46,40.48 C101.15,35.27 87.26,35.87 73.82,37.78 L73.82,37.78 Z M52.31,95.35 L59.06,86.51 L59.54,109.51 L52.31,95.35 L52.31,95.35 Z M70.94,113.11 C73.92,109.04 77.07,105.51 79.96,101.77 C80.71,102.02 82.68,102.07 82.68,102.07 C82.88,102.18 82.02,105.17 79.88,107.24 C74,114.28 72.66,115.58 72.45,118.49 C72.38,119.42 70.31,120.5 70.31,120.5 L68.82,118.92 C69.27,116.62 69.99,114.85 70.94,113.11 L70.94,113.11 Z M140.03,93.61 C140.29,93.31 143.57,94.68 143.57,94.68 L143.78,140.98 L137.22,145.21 C135.31,146.17 120.44,115.79 140.03,93.61 L140.03,93.61 Z M96.13,148.3 L104.39,137.03 C104.39,137.03 105.95,132.55 107.27,131.22 L108.78,129.88 C109.29,130.37 110.32,131.4 110.32,131.4 L109.41,134.87 C106.35,139.59 103.14,144.3 99.75,149.01 C99.75,149.01 96.82,148.5 96.13,148.3 L96.13,148.3 Z M128.95,152.75 C110.83,122.12 120.13,99.75 137.59,79.92 C137.64,81.45 137.67,83.01 137.81,84.53 C122.81,101.73 116.82,127.17 131.52,150.19 L128.95,152.75 L128.95,152.75 Z M35.14,155.79 C34.96,140.73 35.18,110.22 35.18,110.22 L41.79,105.16 C49.7,114.77 54.01,140.11 39.81,156.98 C38.78,156.23 35.97,156.54 35.14,155.79 L35.14,155.79 Z M119.39,140.67 C122.2,145.47 123.92,150.33 126.9,155.15 L119.84,164.7 L119.39,140.67 L119.39,140.67 Z M41.3,166.26 C60.88,143.44 58.28,119.49 47.46,100.17 L49.76,97.8 C62.27,118.39 64.93,147.68 41.88,170.38 C41.64,169.01 41.3,166.26 41.3,166.26 L41.3,166.26 Z M99.87,219.89 L103.88,218.82 L109.9,227.7 L102.59,227.7 L99.87,219.89 L99.87,219.89 Z M75.78,227.7 L77.22,219.27 C80.64,219.95 85.1,220.08 89.8,220.04 L92.01,227.7 L75.78,227.7 L75.78,227.7 Z M62.64,216.78 L67.72,218.16 L65.24,227.7 L55.93,227.7 L62.64,216.78 L62.64,216.78 Z M48.6,227.7 L60.86,209.14 C75.49,214.04 90.43,214.13 105.53,211.71 L119.03,227.7 L113.51,227.7 L105.02,215.55 C101.94,216.26 98.74,216.57 95.55,217.01 L99.53,227.7 L95.2,227.7 L92.08,217.12 C84.75,217.41 79.76,216.75 74.68,216.16 L72.84,227.7 L68.44,227.7 L71.41,215.78 C67.95,215.13 64.46,214.58 61.56,213.64 L52.56,227.7 L48.6,227.7 L48.6,227.7 Z" id="Fill-586" fill="#C0242A"></path>
        <path d="M102.6,227.7 L102.92,228.62 L110.53,228.62 L109.9,227.7 L102.6,227.7 L102.6,227.7 Z M95.2,227.7 L95.47,228.62 L99.89,228.62 L99.53,227.7 L95.2,227.7 L95.2,227.7 Z M75.78,227.7 L75.64,228.62 L92.25,228.62 L92.01,227.7 L75.78,227.7 L75.78,227.7 Z M68.44,227.7 L68.22,228.62 L72.69,228.62 L72.84,227.7 L68.44,227.7 L68.44,227.7 Z M55.93,227.7 L55.37,228.62 L65.04,228.62 L65.24,227.7 L55.93,227.7 L55.93,227.7 Z M34.79,203.44 L34.88,214.08 L26.31,222.4 L26.3,220.2 L33.6,212.94 L33.45,203.09 L34.79,203.44 L34.79,203.44 Z M30.74,202.69 C30.41,204.32 30.67,206 31.04,207.15 C31.89,209.65 31.51,214.11 31.51,214.11 L29,216.62 C29.18,214.28 29.46,211.82 29.33,209.85 C29.24,208.55 28.65,207.33 28.5,206.02 C28.36,204.81 28.57,202.38 28.57,202.38 L30.74,202.69 L30.74,202.69 Z M41.59,199.99 C42.05,199.99 42.43,200.37 42.43,200.84 C42.43,201.3 42.05,201.68 41.59,201.68 C41.12,201.68 40.74,201.3 40.74,200.84 C40.74,200.37 41.12,199.99 41.59,199.99 L41.59,199.99 Z M38.49,198.02 C39.09,198.02 39.58,198.51 39.58,199.12 C39.58,199.72 39.09,200.21 38.49,200.21 C37.89,200.21 37.4,199.72 37.4,199.12 C37.4,198.51 37.89,198.02 38.49,198.02 L38.49,198.02 Z M34.13,196.55 C34.87,196.55 35.47,197.15 35.47,197.89 C35.47,198.63 34.87,199.24 34.13,199.24 C33.38,199.24 32.79,198.63 32.79,197.89 C32.79,197.15 33.38,196.55 34.13,196.55 L34.13,196.55 Z M29.34,195.52 C30.17,195.52 30.84,196.19 30.84,197.02 C30.84,197.85 30.17,198.53 29.34,198.53 C28.51,198.53 27.83,197.85 27.83,197.02 C27.83,196.19 28.51,195.52 29.34,195.52 L29.34,195.52 Z M108.8,194.69 C107.12,196.07 107.07,198.06 106.56,199.9 C106.28,201.14 105.9,201.79 105.74,199.92 C105.46,197.34 105.82,195.41 106.94,193.89 C107.63,192.77 108.77,192.02 109.79,191.95 C111.99,191.79 112.21,193.54 111.6,194.48 C111.16,195.16 109.93,195.46 108.8,194.69 L108.8,194.69 Z M106.31,193.92 C105.59,195.06 105.62,195.01 105.27,196 C105.31,196.32 105.37,198.31 105.42,199.48 C105.48,200.96 105.52,201.61 105.64,201.75 C105.83,201.99 106.24,202.02 106.41,201.81 C106.48,201.72 106.6,201.4 106.68,201.1 C107.63,197.49 108.08,196.15 108.46,195.7 C108.72,195.37 108.8,195.4 109.85,195.52 C112.2,195.73 113,192.92 111.46,191.79 C109.4,190.65 107.22,192.57 106.31,193.92 L106.31,193.92 Z M26.29,191.32 C37.82,192.1 46.74,196.97 51.51,209.83 C49.82,208.87 41.23,202.27 26.42,201.39 L26.39,199.61 C37.01,199.52 47.37,205.06 47.15,204.98 C43.2,196.82 33.28,193.51 26.25,193.3 L26.29,191.32 L26.29,191.32 Z M53.66,183.14 C56.1,187.47 58.13,192.44 59.83,197.28 C61.15,201.06 62.23,204.76 62.85,208.03 C62.91,208.36 62.99,208.54 62.85,208.68 C62.61,208.92 61.44,208.33 61.44,208.33 C59.4,201.28 57.76,194.22 52.9,185.25 C52.9,185.25 52.69,184.9 52.63,184.67 C52.57,184.11 52.73,183.39 53.07,183 C53.21,182.85 53.4,182.84 53.66,183.14 L53.66,183.14 Z M68.2,181.38 C70.35,181.51 72.04,184.55 71.11,186.66 C70.82,187.05 70.41,187.32 70.21,187.07 C70.14,186.98 69.81,185.99 69.36,184.94 C68.9,183.88 68.48,182.86 68.35,182.6 C68.01,181.87 67.77,181.37 68.2,181.38 L68.2,181.38 Z M113.04,182.13 C114.88,183.8 114.02,187.49 111.54,187.87 C109.34,188.13 107.39,185.75 108.78,184.13 C109.67,183.16 110.8,183.06 111.49,183.9 C112.2,184.77 111.9,185.95 110.88,186.07 C110.76,186.11 110.67,186.2 110.67,186.27 C110.67,186.49 111.57,186.43 111.88,186.18 C112.5,185.5 112.51,184.45 111.95,183.71 C111.46,183.05 110.42,182.52 109.58,182.86 C108.11,183.39 106.61,185.39 105.75,187.92 C105.51,188.63 105.37,189.29 105.26,189.45 C105.05,189.77 105.07,189.76 104.87,189.64 C104.7,189.53 104.39,187.99 104.39,187.4 C104.39,186.95 104.77,185.77 105.28,184.76 C106.88,181.78 110.47,179.79 113.04,182.13 L113.04,182.13 Z M110.99,179.3 C111.39,179.4 112.23,180.2 112.23,180.49 C112.23,180.82 112.07,180.76 111.14,180.6 C108.94,180.21 106.74,181.48 104.9,184.26 C104,185.93 103.89,185.77 103.42,184.34 C103.18,183.6 103.18,183.61 104.11,182.25 C105.86,180.01 108.44,178.98 110.99,179.3 L110.99,179.3 Z M67.39,178.88 C72.62,179.12 75.02,185.28 72.27,189 C71.57,189.89 71.13,189.73 70.83,188.58 C70.68,188.11 70.52,188.04 70.94,187.67 C73.39,185.32 71.38,180.75 67.34,180.57 C67.34,180.57 66.59,179.47 66.51,178.89 C66.78,178.79 67.15,178.87 67.39,178.87 L67.39,178.88 L67.39,178.88 Z M49.14,177.88 C51.3,177.88 53.45,178.93 54.67,180.63 C59.09,187.26 64.06,202.01 65.24,209.28 C65.12,209.51 64.81,209.54 64.2,209.36 C63.85,209.26 63.89,209.15 63.68,208.48 C62.29,203.18 60.77,198.04 58.98,193.32 C58.05,190.89 56.97,188.51 55.94,186.37 C55.3,185.02 54,182.62 53.5,181.88 C52.34,179.7 49.99,179.05 48.51,179.76 C46.97,180.59 46.78,182.58 47.95,183.46 C48.92,184.13 50.45,184.02 51.01,182.97 C51.2,182.6 51.14,182.14 51.01,182.02 C50.89,181.91 50.68,181.94 50.63,182.07 C50.71,183.36 49.07,183.44 48.35,182.93 C47.21,182.07 47.97,179.36 51.09,180.45 C52.29,181.09 52.7,182.29 52.13,183.56 C51.54,184.86 50.64,185.46 49.24,185.45 C47.54,185.42 45.62,184.22 45.61,182.08 C45.62,180.48 46.35,179.15 47.74,178.26 C48.25,177.93 48.45,177.88 49.14,177.88 L49.14,177.88 Z M108.97,177.31 C109.41,177.42 110.37,178.31 110.25,178.5 C110.1,178.74 109.28,178.74 108.09,178.96 C105.55,179.41 104.46,181.06 103.29,182.29 C103.03,182.37 102.79,182.19 102.56,181.79 C102.39,181.49 102.25,181.14 102.25,181 C103.56,179.08 107.09,177.14 108.97,177.31 L108.97,177.31 Z M72.26,192.08 C72.02,192.08 71.82,191.63 71.66,190.9 C71.58,190.54 71.48,190.28 72.15,189.86 C76.4,185.34 72.75,178.7 67.42,178.12 C66.92,178.05 66.28,178.04 66.1,177.98 C65.83,177.82 65.33,176.86 65.11,176.47 C72.49,174.68 80.31,185.25 72.26,192.08 L72.26,192.08 Z M50.88,176.18 C54.3,176.28 56.97,180.26 58.38,182.95 C58.92,184 59.63,185.14 60.17,186.34 C62.95,192.56 65.3,200.36 66.45,205.34 C67.01,207.74 67.64,209.5 67.42,209.96 C67.14,210.14 66.54,210.01 66.27,209.77 C66.09,209.63 66,209.08 65.69,208.08 C64.89,205.51 63.57,198.17 60.12,190.46 C60.05,190.29 58.38,185.41 55.5,180.78 C54.33,178.89 52.43,177.71 50.71,177.32 C49.83,177.18 49.58,177.28 49.63,176.81 C49.66,176.51 49.76,176.43 50.22,176.29 C50.43,176.22 50.65,176.18 50.88,176.18 L50.88,176.18 Z M106.55,176 C106.74,176 106.82,175.98 107.16,176.1 C107.69,176.28 107.86,176.4 107.89,176.61 C107.94,176.92 107.61,177.02 106.57,177.26 C105.76,177.45 104.17,178.3 103.07,179.22 C102.56,179.64 102.12,180.1 102,180.1 C101.74,180.1 101.14,179.43 101.14,179.16 C101.98,177.86 104.67,176.09 106.55,176 L106.55,176 Z M64.46,176.76 C68.5,183.8 70.28,188.13 71.51,192.38 C73.37,198.83 75.58,203.98 76.54,211.5 C76.54,211.5 75.48,211.52 75.06,211.35 C74.88,211.17 74.7,210.42 74.58,209.81 C73.61,204.49 72.03,198.2 70.35,193.24 C68.54,187.73 66.39,182.48 63.21,177.41 C62.38,176.05 62.22,175.51 62.73,175.49 C63.64,175.55 64.04,176.25 64.46,176.76 L64.46,176.76 Z M53.14,174.91 C54.45,174.91 56.62,176.47 58.09,178.47 C61.21,182.76 63,187.76 64.85,192.62 C66.98,198.19 68.52,204.38 69.43,209.25 C69.59,209.95 69.84,210.25 69.19,210.47 C68.19,210.19 68.21,210.22 67.93,209 C67.54,207.7 67.42,206.38 67.06,205.05 C64.95,197.47 62.6,189.05 58.68,182.2 C53.98,174.66 52.61,176.76 51.86,175.43 C51.91,175.13 52.44,174.92 53.14,174.91 L53.14,174.91 Z M59.82,174.78 C60.79,174.75 61.74,176.01 62.19,176.8 C65.17,181.2 67.73,187.48 69.83,193.63 C72.1,200.26 73.54,206.63 74.16,211.14 C74.11,211.29 73.83,211.34 73.5,211.33 C72.89,211.33 72.81,211.19 72.65,210.7 C71.09,203.23 69,195.51 66.47,188.96 C65.11,185.47 63.57,181.96 61.4,178.45 C59.92,176.27 59.08,175.13 59.15,174.96 C59.19,174.85 59.44,174.79 59.72,174.79 C59.75,174.79 59.79,174.79 59.82,174.78 L59.82,174.78 Z M103.3,174.78 C103.98,174.94 105.63,175.14 105.01,175.69 C102.69,176.58 101.93,177.55 100.7,178.54 C100.52,178.54 99.78,177.63 99.78,177.4 C100.78,176.17 102.04,175.65 103.3,174.78 L103.3,174.78 Z M56.46,174.54 C57.2,174.54 58.52,175.46 59.32,176.52 C60.13,177.79 61.06,179.09 61.81,180.37 C63.51,183.29 64.83,186.24 65.93,189.27 C68.82,196.47 70.51,203.45 71.92,210.39 C71.9,210.97 71.39,210.96 70.97,210.82 C70.76,210.75 70.54,210.61 70.5,210.5 C69.9,208.8 69.7,207.06 69.24,205.36 C68.1,201.09 67.69,198.65 65.5,192.64 C64.36,189.52 62.71,185.17 60.9,181.83 C59.75,179.69 58.41,177.72 56.68,175.97 C56.22,175.51 55.65,175.09 55.65,175 C55.65,174.71 55.94,174.54 56.46,174.54 L56.46,174.54 Z M100.49,174.32 C100.85,174.37 101.91,174.35 101.98,174.68 C102,174.88 101.58,175.2 100.74,175.78 C99.45,176.66 99.01,176.83 98.63,176.42 C98.27,176.02 98.38,175.61 98.98,175.05 C99.57,174.51 99.91,174.32 100.49,174.32 L100.49,174.32 Z M98.6,174.18 C98.77,174.34 98.47,174.83 98.05,175.08 C97.66,175.31 97.75,175.28 97.11,175.05 C96.49,174.82 95.7,174.23 95.7,174.01 C96.15,174.02 98.21,174 98.6,174.18 L98.6,174.18 Z M31.42,172.64 C28.75,182.67 30.82,185.26 31.79,191.11 L29.58,190.75 C27.43,184.83 27.21,179.44 29.02,173.15 L31.42,172.64 L31.42,172.64 Z M34.67,171.55 L34.83,191.7 L33.43,191.42 L33.24,171.93 L34.67,171.55 L34.67,171.55 Z M115.67,180.45 L113.72,181.37 C107.91,173.82 102.66,171.67 96.69,169.75 L97.33,168.08 C105.35,170.21 111.24,174.29 115.67,180.45 L115.67,180.45 Z M87.62,167.03 L87.15,169.01 C81.01,169.2 74.54,171.38 68.23,175.76 L65.96,175.4 C72.3,170.41 79.55,167.57 87.62,167.03 L87.62,167.03 Z M100.17,163.56 C111.13,167.23 116.2,172.6 120.34,178.22 L118.61,179.11 C114.26,173.48 108.9,168.33 98.92,165.35 L100.17,163.56 L100.17,163.56 Z M89.95,161.77 L88.87,164.09 C79.14,164.13 69.7,167.61 61.29,174.73 L59.16,174.03 C68.07,165.59 79.11,161.49 89.95,161.77 L89.95,161.77 Z M95.17,161.39 C95.17,161.39 95.44,162.88 94.86,165.6 C94.58,166.89 93.34,170.66 91.39,169.77 C89.72,168.3 91.75,165.57 92.77,164.28 C93.56,163.35 94.42,162.35 95.17,161.39 L95.17,161.39 Z M143.68,158.56 L143.66,161.76 C141.22,164.53 139.11,166.64 136.61,170.46 L132.64,172.27 C135.23,167.33 139.48,162.7 143.68,158.56 L143.68,158.56 Z M95.64,157.02 C95.86,157.01 95.85,157.43 95.78,158.04 C95.63,159.42 95.46,159.91 94.96,160.58 C93.22,162.64 90.46,165.43 90.09,168.03 C89.9,169.42 90.98,170.72 92.04,170.59 C95.35,170.17 95.7,164.29 95.98,161.39 C96.09,160.68 96.15,160.07 96.27,159.85 C96.96,158.96 97.71,158.09 98.65,157.39 L99.05,161.88 L100.92,161.26 C95.67,168.4 97.18,168.85 94.41,171.78 C91.84,174.5 86.85,171.4 88.13,167.26 C89.23,164.48 90.95,161.69 91.42,158.71 C91.54,157.82 91.61,157.21 91.61,157.21 L92.81,159.7 C93.41,159.1 95.18,157.12 95.64,157.02 L95.64,157.02 Z M143.48,153.03 L143.54,157.68 C138.79,162.25 134.67,166.97 131.09,173.05 C128.99,174.05 125.12,175.97 125.12,175.97 C124.63,175.85 135.68,158.61 143.48,153.03 L143.48,153.03 Z M143.42,148.92 L143.49,152.04 C138.11,156.22 130.45,165.02 123.88,176.48 L120.98,177.71 C125.44,167.03 134.85,156.16 143.42,148.92 L143.42,148.92 Z M97.86,149.14 C100.82,149.09 103.55,151.44 103.9,153.83 C104.54,156.58 103.13,159.53 100.82,160.44 C100.01,160.73 99.54,160.75 99.54,160.75 C99.26,159.09 99.38,157.5 99.01,155.82 C99.01,155.82 97.62,157.65 96.84,158.3 C96.43,158.52 96.25,158.58 96.31,158.05 C96.33,157.12 96.4,155.06 96.4,155.06 L92.98,158.61 C92.98,158.61 92.7,158.23 92.37,157.34 C91.29,154.46 92.69,151.44 94.9,150.06 C95.86,149.43 96.87,149.15 97.86,149.14 L97.86,149.14 Z M119.55,141.17 C121.72,146.29 123.98,151.1 126.48,155 L120.03,164.12 L119.55,141.17 L119.55,141.17 Z M116.53,137.8 L118.94,140.18 L119.54,165.74 L117,169.88 L116.53,137.8 L116.53,137.8 Z M63.21,135.28 C63.29,135.28 63.37,135.29 63.47,135.29 C64.35,135.34 64.37,135.65 63.55,136.42 C63.21,136.74 62.82,137 62.67,137 C62.41,137 62.4,136.96 62.48,136.29 C62.57,135.48 62.67,135.29 63.21,135.28 L63.21,135.28 Z M109.93,134.19 L109.95,137.68 C108.55,140.67 105.33,145.06 102.06,149.76 L100.35,148.84 C104.44,143.46 107.86,138.46 109.93,134.19 L109.93,134.19 Z M80.87,133.16 C81.13,133.14 81.16,133.8 81.23,135.67 C81.29,137.42 81.36,138.25 81.48,138.43 C81.63,138.67 81.78,138.69 83.84,138.76 C86.02,138.82 86.47,138.89 86.47,139.12 C86.47,139.19 86.19,139.52 85.85,139.87 L85.23,140.49 L83.29,140.46 C82.26,140.49 81.04,140.47 81.01,140.5 C80.83,140.66 81.48,140.87 82.42,140.88 C83.01,140.88 83.95,140.98 84.05,141.02 C84.42,141.16 84.25,141.53 83.45,142.3 L82.65,143.07 L80.89,143.03 C79.92,143.02 78.75,143.04 78.59,143.1 C78.06,143.27 78.33,143.42 79.21,143.43 C80.69,143.45 81.71,143.57 81.76,143.81 C81.78,143.92 81.5,144.33 81.14,144.72 L80.48,145.43 L77.89,145.32 C75.45,145.34 75.12,145.52 77.16,145.72 C77.94,145.8 79.17,145.99 79.21,146 C79.25,146.01 79.32,146.1 79.36,146.21 C79.45,146.43 78.46,147.54 77.94,147.82 C77.67,147.96 77.48,147.96 77.01,147.86 C76.46,147.73 74.09,147.76 73.83,147.91 C73.62,148.04 74.08,148.18 74.74,148.2 C75.73,148.22 76.91,148.5 76.91,148.74 C76.91,148.94 76.41,149.56 75.88,150.03 C75.63,150.24 75.04,150.05 73.41,150.1 C72.28,150.14 71.54,150.25 71.54,150.32 C71.54,150.39 72.09,150.61 72.81,150.66 C73.52,150.71 74.49,150.88 74.55,150.95 C74.72,151.11 73.46,152.6 73.46,152.6 L68.08,152.53 L67.58,146.82 L68.04,146.29 C69.07,145.09 69.29,145.27 69.5,147.41 C69.65,148.97 69.76,149.45 69.99,149.22 C70.07,149.14 70.04,148.25 69.95,146.93 C69.88,145.85 69.83,144.86 69.83,144.74 C69.83,144.44 71.05,143.15 71.29,143.2 C71.53,143.25 71.66,143.78 71.78,145.24 C71.89,146.44 71.94,146.77 72.18,146.53 C72.29,146.42 72.31,145.79 72.2,144.27 L72.05,142.29 L72.57,141.67 C73.61,140.43 73.82,140.57 73.94,142.58 C74.03,143.94 74.16,144.65 74.41,144.65 C74.49,144.65 74.5,143.64 74.44,142.1 L74.37,139.8 L75.02,139.14 C75.38,138.78 75.74,138.48 75.83,138.48 C76.08,138.48 76.23,139.06 76.39,140.42 C76.56,141.95 76.62,142.21 76.77,142.06 C76.83,142 76.82,141.08 76.74,139.89 L76.55,137.61 L77.35,136.8 C77.79,136.36 78.22,136.02 78.32,136.04 C78.56,136.08 78.72,136.77 78.74,137.75 C78.75,138.66 78.91,139.44 79.11,139.64 C79.21,139.74 79.24,139.18 79.21,137.56 C79.17,135.06 79.11,134.87 80.23,133.69 C80.53,133.38 80.73,133.18 80.87,133.16 L80.87,133.16 Z M110.55,131.67 L113.03,134.2 L113.63,169.88 C109.81,166.87 105.3,164.65 100.49,162.95 L101.33,161.03 L102.25,160.04 C105.52,156.49 104.8,152.67 102.31,149.97 C105.34,145.54 108.08,142.25 110.39,137.92 L110.36,134.96 C110.34,132.23 110.55,131.67 110.55,131.67 L110.55,131.67 Z M108.78,130 C109.24,130.47 109.8,130.98 110.22,131.49 C108.79,136.25 104.29,142.44 99.81,148.58 L96.53,148.22 C96.47,148.08 101.07,141.65 103.28,139.21 C104.12,138.19 104.69,137.23 105.43,135.73 C105.71,135.19 106.18,133.78 106.54,132.32 C107.32,131.38 108.79,130.02 108.78,130 L108.78,130 Z M116.86,129.31 L118.51,136.85 L116.81,136.82 L116.64,131.34 L111.31,130.83 L113.22,128.99 L116.86,129.31 L116.86,129.31 Z M106.91,128.17 C106.91,128.17 108.16,129.24 108.16,129.54 C108.16,129.68 107.67,130.27 107,130.93 C105.76,132.15 105.64,132.36 105.5,133.66 C105.44,134.15 105.2,134.79 104.63,135.95 C104.19,136.83 103.56,137.86 103.56,137.86 C101.58,140.23 99.72,142.39 96.25,147.39 C96.05,147.85 96.04,148.31 95.84,148.69 C95.69,148.97 95.34,149.2 95.18,149.27 C94.95,149.36 94.5,149.65 94.16,149.9 C92.87,150.89 92.04,152.19 91.66,153.81 C91.46,154.69 91.34,155.48 90.98,158.18 C90.84,159.29 90.35,161.22 90.35,161.22 C82.91,161.12 75.94,162.41 69.73,165.92 L106.91,128.17 L106.91,128.17 Z M74.51,126.41 C74.53,126.41 74.55,126.41 74.57,126.42 C74.79,126.5 74.85,127.05 74.94,129.7 C74.99,130.95 75.07,131.93 75.15,132.02 C75.24,132.13 75.63,132.18 76.35,132.18 C76.93,132.18 78.03,132.22 78.79,132.26 C80.46,132.36 80.5,132.43 79.51,133.41 L78.84,134.07 L76.76,133.99 C74.62,133.9 74.27,133.94 74.27,134.23 C74.27,134.43 74.63,134.53 75.31,134.51 C75.58,134.5 76.26,134.54 76.82,134.59 C78.07,134.71 78.1,134.8 77.17,135.8 L76.5,136.53 L75.84,136.44 C74.8,136.29 72.05,136.33 71.89,136.49 C71.63,136.75 71.97,136.86 73.22,136.93 C75.16,137.05 75.5,137.11 75.5,137.33 C75.5,137.44 75.22,137.8 74.89,138.14 L74.28,138.74 L71.82,138.61 C70.09,138.58 69.5,138.61 69.46,138.73 C69.39,138.92 69.68,138.98 71.46,139.17 C73.17,139.34 73.42,139.52 72.77,140.33 C72.06,141.22 71.79,141.32 70.44,141.19 C68.96,141.05 67.44,141.05 67.22,141.18 C66.88,141.4 67.23,141.55 68.29,141.63 C69.88,141.74 70.81,141.92 70.81,142.15 C70.81,142.41 70.29,143.09 69.77,143.49 L69.35,143.81 L67.53,143.61 C65.72,143.42 64.79,143.52 65.05,143.77 C65.12,143.85 65.8,143.96 66.54,144.01 C67.91,144.11 68.59,144.29 68.59,144.57 C68.59,144.65 68.25,145.07 67.82,145.49 C67.39,145.92 66.9,146.21 66.9,146.21 L61.29,145.7 C61.29,145.7 61.01,144.7 61.57,141.97 C62.08,139.52 62.29,138.96 62.53,139.42 C62.6,139.55 62.66,140.14 62.71,140.55 C62.82,141.54 63.06,142.16 63.21,142.16 C63.37,142.16 63.37,141.57 63.16,140.19 C62.86,138.27 62.83,138.2 63.56,137.42 C64.19,136.76 64.54,136.6 64.73,136.9 C64.79,136.99 64.86,137.86 64.94,138.59 C65.07,139.88 65.15,140.17 65.31,140 C65.42,139.9 65.5,139.53 65.38,137.62 L65.23,135.77 L66.05,134.93 C66.8,134.17 66.89,134.11 67.04,134.31 C67.14,134.45 67.26,135.24 67.31,136.19 C67.39,137.59 67.5,138.05 67.71,137.85 C67.8,137.75 67.76,134.57 67.65,133.83 C67.59,133.35 67.62,133.28 68.23,132.6 C68.95,131.78 69.33,131.45 69.53,131.44 C69.79,131.44 69.93,132.24 69.93,133.3 C69.93,134.43 70.03,134.88 70.13,135.02 C70.4,135.39 70.43,134.11 70.37,132.84 L70.3,130.54 L71.04,129.79 C71.75,129.08 71.81,129.05 72.01,129.25 C72.17,129.41 72.16,129.8 72.23,130.97 C72.33,132.58 72.64,133.36 72.73,132.25 C72.78,131.99 72.77,131.5 72.72,131.15 C72.66,130.8 72.61,130 72.62,129.39 C72.62,128.44 72.66,128.19 72.89,127.82 C73.22,127.28 74.2,126.44 74.51,126.41 L74.51,126.41 Z M116.4,125.95 L116.8,128.8 L113.7,128.59 L116.4,125.95 L116.4,125.95 Z M62.48,121.75 C62.82,121.7 64.72,121.73 65,121.79 C64.52,122.55 63.5,123.54 62.8,123.97 C62.63,123.98 62.45,122.13 62.48,121.75 L62.48,121.75 Z M68.02,120.02 C68.33,120.01 68.34,120.74 68.37,122.67 C68.41,124.79 68.44,125.16 68.62,125.34 C68.79,125.51 69.23,125.57 71.09,125.67 C73.93,125.81 74,125.86 73,126.82 C72.3,127.5 72.27,127.41 71.7,127.34 C70.2,127.17 68,127.21 67.91,127.35 C67.76,127.59 67.93,127.64 69.3,127.74 C70.97,127.87 71.43,127.93 71.43,128.21 C71.43,128.34 71.14,128.71 70.8,129.03 L70.17,129.62 L68.41,129.55 C66.55,129.48 65.6,129.45 65.6,129.7 C65.6,129.86 66.66,130.02 68.34,130.19 C68.77,130.23 69.22,130.24 69.24,130.31 C69.3,130.5 68.46,131.55 67.93,131.94 C67.51,132.25 67.36,132.08 65.5,132.04 C63.61,132 63.44,132.07 63.8,132.42 C63.88,132.5 64.2,132.51 64.9,132.56 C66.07,132.64 66.62,132.82 66.62,133.11 C66.62,133.38 65.58,134.47 65.09,134.7 C64.65,134.91 64.47,134.92 63.51,134.78 C62.76,134.68 62.61,134.52 62.63,133.81 C62.64,133.49 62.7,131.42 62.75,129.21 C62.87,124.93 62.9,124.71 63.47,124.79 C63.71,124.83 63.77,125.12 63.83,126.57 C63.9,128.11 63.96,128.42 64.22,128.42 C64.31,128.42 64.33,127.8 64.27,126.32 C64.18,124.01 64.17,123.67 64.87,123 C65.19,122.7 65.43,122.46 65.58,122.68 C65.88,123.59 65.79,124.58 65.88,125.5 C65.87,126.42 66.23,126.61 66.31,125.73 C66.27,124.34 66.26,123.1 66.25,121.61 L67.11,120.76 C67.56,120.31 67.84,120.03 68.03,120.02 L68.02,120.02 L68.02,120.02 Z M113.87,115.77 C114.5,115.76 116.15,116.05 116.34,116.24 C116.49,116.39 116.5,116.77 116.37,119.03 C116.32,119.84 116.27,121.59 116.26,122.92 C116.24,125.32 116.24,125.33 115.96,125.36 C115.6,125.42 115.55,125.29 115.46,123.71 C115.4,122.82 115.28,122.04 115.17,122.01 C115.06,121.97 115.07,122.75 115.07,124.37 L115.07,126.47 C114.71,126.76 114.38,127.16 113.97,127.36 C113.72,127.36 113.59,126.97 113.46,125.87 C113.34,124.79 113.22,124.02 113.08,124.26 C113.04,124.32 113.06,125.5 113.13,126.48 L113.25,128.25 L112.47,129.04 C111.66,129.85 111.56,129.92 111.43,129.71 C111.13,128.9 111.56,125.21 110.83,124.74 C110.71,124.68 109.75,124.65 108.63,124.6 C106.74,124.52 105.67,124.49 105.41,124.26 C105.25,124.13 106.14,123.09 106.6,122.88 C106.93,122.73 107.3,122.72 108.86,122.83 C110.66,122.95 111.57,122.94 111.33,122.71 C111.27,122.64 110.35,122.51 109.63,122.44 C108.18,122.29 107.67,122.15 107.67,121.88 C108.01,121.28 108.42,120.93 108.92,120.41 L109.62,120.49 C110.01,120.52 110.92,120.62 111.65,120.71 C112.38,120.79 113.85,120.8 113.25,120.75 C113.45,120.56 112.69,120.36 111.65,120.23 C109.68,119.99 109.5,119.76 110.49,118.79 L111.1,118.19 C112.14,118.27 113.18,118.29 114.2,118.45 C114.95,118.57 115.36,118.53 115.36,118.27 C115.36,118.1 114.99,118.1 114.08,117.92 C113.75,117.86 112.06,117.88 112.03,117.38 C112.43,116.83 113.15,115.82 113.87,115.77 L113.87,115.77 Z M60.55,113.65 C60.55,113.65 61.93,113.65 62.62,113.67 C62.62,113.67 62.72,117.17 63,119.2 L67.48,119.41 L65.74,121.22 L62.35,121.11 C62.35,121.11 61.32,116.14 60.55,113.65 L60.55,113.65 Z M116.59,112.81 C116.8,112.78 116.8,113.13 116.74,113.85 C116.69,114.43 116.6,115.05 116.54,115.21 C116.42,115.53 116.33,115.54 115.31,115.39 C114.16,115.23 114.18,115.02 115.44,113.77 C116.06,113.16 116.41,112.84 116.59,112.81 L116.59,112.81 Z M41.94,105.5 C52.38,124.22 50.82,141.86 39.7,156.88 C38.42,156.13 37.06,155.73 35.61,155.57 L35.33,110.36 L41.94,105.5 L41.94,105.5 Z M112.19,104.41 L113.04,104.46 C115.97,104.64 117.8,104.82 117.9,104.94 C117.97,105.02 118.05,105.47 118.09,105.94 C118.16,106.66 118.09,107.13 117.72,108.84 C117.47,109.96 117.2,110.95 117.1,111.04 C116.77,111.39 116.63,111.05 116.48,109.46 C116.38,108.49 116.34,107.79 116.22,107.87 C116.16,107.91 116.03,108.94 116.06,109.71 C116.16,111.71 116.15,112.2 115.53,112.8 C114.44,113.86 114.38,113.75 114.3,111.88 C114.27,111.1 114.08,109.96 114.03,109.91 C113.79,109.67 113.71,110.75 113.71,112.58 L113.71,114.52 L113.2,115.09 C112.52,115.82 112.3,115.93 112.05,115.68 C111.9,115.53 111.96,115.19 111.96,114.08 C111.96,112.78 111.73,112.03 111.48,112.28 C111.44,112.33 111.43,113.59 111.42,114.68 C111.42,115.78 111.41,116.75 111.39,116.84 C111.35,117.11 110.12,118.35 109.9,118.35 C109.64,118.35 109.43,116.91 109.43,115.74 C109.43,114.96 109.26,114.82 109.1,115.25 C109.06,115.36 109.03,116.46 109.03,117.44 L109.03,119.24 L108.3,119.98 C107.33,120.99 107.18,120.93 107.17,119.56 C107.17,118.37 107.09,117.75 106.85,117.75 C106.72,117.75 106.68,118.31 106.68,119.64 C106.68,120.55 106.63,121.45 106.55,121.64 C106.48,121.83 106.16,122.25 105.85,122.58 C105.53,122.9 105.21,123.16 105.13,123.16 C105,123.16 104.8,122.04 104.85,121.56 C104.87,121.46 104.87,120.75 104.85,119.99 C104.83,118.17 104.95,118.25 102.05,118.15 C98.65,118.05 98.6,118.03 99.63,117.04 C100.6,116.09 100.46,116.13 102.72,116.28 C104.53,116.4 104.75,116.39 104.93,116.21 C105.04,116.1 105.1,115.98 105.07,115.94 C105.03,115.91 104.34,115.84 103.53,115.8 C101.29,115.68 101.1,115.51 102.05,114.56 L102.58,114.02 L104.87,114.02 C106.42,114.02 107.47,113.96 107.53,113.86 C107.68,113.62 107.07,113.56 105.59,113.48 C104.8,113.43 104.06,113.37 103.94,113.33 C103.57,113.22 103.71,112.84 104.34,112.25 L104.95,111.68 L106.97,111.68 C108.85,111.68 109.77,111.56 109.77,111.31 C109.77,111.13 109.39,111.06 108.43,111.05 C107.07,111.03 106.16,110.9 106.1,110.71 C106.43,110.07 106.89,109.71 107.42,109.17 L109.48,109.24 C111.55,109.32 112.2,109.24 112.2,108.88 C112.2,108.69 111.31,108.56 110.17,108.63 C109.43,108.67 108.53,108.49 108.53,108.23 C108.53,108.12 108.83,107.73 109.2,107.37 L109.86,106.71 L111.88,106.79 C113,106.84 114.2,106.83 114.29,106.76 C114.62,106.54 113.85,106.36 112.58,106.28 C110.63,106.17 110.5,106.02 111.54,105.04 L112.19,104.41 L112.19,104.41 Z M79.9,102.03 L82.54,102.2 C81.96,104.07 81.16,105.41 80.23,106.62 C79.03,108.18 77.59,109.75 75.92,111.66 C73.48,114.43 72.27,117.26 72.38,118.5 C71.77,119.14 71.35,119.58 70.58,120.24 L69.04,118.82 C70.18,112.96 75.71,107.57 79.9,102.03 L79.9,102.03 Z M79.23,101.62 C76.38,105.92 72.01,110.16 70.37,113.67 C70.03,114.07 69.92,114.96 69.4,115.14 C69.13,115.14 69.05,114.64 69.12,113.49 C69.16,112.63 69.25,112.34 69.66,111.49 C71.92,107.37 74.53,104.41 77.41,100.5 L79.23,101.62 L79.23,101.62 Z M49.66,98.12 C65.56,124.15 59.82,152.27 42.09,169.78 L41.57,166.36 C58.31,145.97 61.23,124.91 47.69,100.13 L49.66,98.12 L49.66,98.12 Z M105.94,98.06 L111.63,98.39 L112.01,103.29 L110.17,105.12 C110.17,105.12 110.14,104.1 110.11,103.2 C110.08,102.09 109.93,101.12 109.82,101.16 C109.73,101.19 109.63,102.48 109.54,103.89 L109.46,105.99 L108.82,106.63 C107.97,107.48 107.8,107.41 107.77,106.22 C107.7,103.62 107.71,103.44 107.52,103.63 C107.41,103.74 107.35,104.63 107.32,105.97 C107.3,107.04 107.23,108.06 107.16,108.24 C107.01,108.61 105.93,109.58 105.66,109.58 C105.4,109.58 105.41,109.2 105.41,107.59 C105.41,106.22 105.27,105.47 105.05,105.98 C105,106.1 104.9,107.45 104.89,108.55 C104.87,109.65 104.79,110.66 104.73,110.78 C104.49,111.22 103.38,112.17 103.18,112.09 C102.9,111.99 102.83,111.18 102.84,109.83 C102.84,109.16 102.94,108.6 102.69,108.42 C102.44,108.24 102.39,109.01 102.46,110.96 L102.44,113.07 L101.73,113.85 C100.6,115.02 100.52,114.96 100.52,112.95 C100.57,111.36 100.51,110.66 100.2,110.78 C99.88,110.91 100.01,111.68 100.07,113.25 C100.13,114.65 100.11,115.36 100.01,115.53 C99.94,115.68 99.57,116.09 99.2,116.45 C98.83,116.81 98.37,117.32 98.32,117.32 C98.23,115.63 98.09,111.99 98.09,111.99 L92.16,111.72 C92.16,111.72 93.37,110.28 93.89,110 C94.16,109.86 94.57,109.84 96.06,109.91 C97.07,109.95 98.44,109.86 98.56,109.82 C99,109.65 98.07,109.49 96.77,109.41 C95.89,109.35 95.67,109.37 94.7,109.23 L95.56,108.34 L96.21,107.69 L98.1,107.75 C99.24,107.79 100.09,107.78 100.22,107.71 C101.34,107.49 100.3,107.23 99.02,107.23 C97.77,107.23 97.07,107.23 97.07,106.95 C97.07,106.67 98.46,105.41 98.86,105.33 C99.07,105.28 100.08,105.24 101.11,105.23 C102.89,105.22 103.54,105.19 103.44,104.9 C103.34,104.6 102.16,104.69 101.38,104.65 C99.2,104.65 99.1,104.57 100.59,103.26 L101.31,102.63 L102.67,102.67 C104.73,102.73 105.73,102.64 105.73,102.45 C105.73,102.27 104.39,102.1 103.25,102.1 C102.57,102.1 102.02,102.11 102.02,102.11 C102.52,101.45 103.07,100.91 103.66,100.32 L105.5,100.29 C106.84,100.31 107.67,100.36 107.69,100.11 C107.71,99.87 107.21,99.87 106.59,99.87 C105.76,99.86 104.77,99.79 104.63,99.66 C104.49,99.52 104.76,99.13 105.34,98.6 L105.94,98.06 L105.94,98.06 Z M46.96,99.82 C58.54,121.47 60.04,143.35 40.91,165.79 C41.52,167.77 41.42,169.62 41.11,171.43 C44.84,168.52 74.76,138.58 49.57,96.89 L46.96,99.82 L46.96,99.82 Z M143.48,94.7 C143.27,116.17 143.48,140.74 143.48,140.74 C143.48,140.74 137.14,145.2 137.16,144.96 C128.99,131.45 125.87,111.55 140.15,93.6 C140.15,93.6 142.45,94.58 143.48,94.7 L143.48,94.7 Z M150.53,92.99 C150.75,96.02 150.24,99.21 150.76,102.32 C151.27,104.47 152.05,106.41 152.11,108.53 C152.17,110.46 152.04,111.57 151.21,114.27 C150.64,116.16 150.58,116.46 150.45,118.35 C150.14,120.97 150.99,123.36 151.64,125.45 C152.5,128.22 152.26,131.58 150.88,136.01 C150.38,137.6 150.28,138.27 150.36,139.72 C150.55,142.75 151.63,145.63 152.18,148.61 C152.48,150.31 152.17,152.54 151.12,156.33 C150.73,157.73 150.32,160.19 150.32,161.11 C150.32,162.11 150.64,163.98 150.95,164.79 C152.4,168.62 152.47,169.3 152.55,171.6 C152.56,173.33 152.06,175.08 151.45,176.6 C150.43,179.03 151.1,181.52 151.45,184.25 L148.94,182.11 C148.2,179.77 148.46,177.58 149.15,175.84 C150.12,173.11 150.37,172.86 150.35,171.29 C150.33,169.21 149.14,166.75 148.65,165.28 C147.78,162.68 147.77,160.13 148.64,157.38 C149.07,156.03 149.69,153.39 149.82,152.31 C150.09,150.25 149.89,148.62 148.85,144.47 C148.35,142.45 148.24,141.67 148.21,139.65 C148.17,137.79 148.44,135.85 149.04,133.6 C149.9,130.03 149.89,127.88 148.77,124.57 C147.87,121.83 147.61,119.97 147.84,117.79 C147.98,116.53 148.32,115.34 148.9,114.16 C149.98,111.47 150.14,108.9 149.34,106.34 C147.97,101.09 147.99,98.42 148.13,93.68 L150.53,92.99 L150.53,92.99 Z M144.28,91.53 C144.66,92.55 145.13,93.56 146.43,94.02 C146.23,125.34 146.38,180.79 146.38,180.79 L152.66,186.71 L152.62,189.29 L144.29,181.65 C144.29,181.65 143.84,116.25 144.28,91.53 L144.28,91.53 Z M80.8,93.86 C80.8,93.86 81.22,93.5 81.89,92.74 C83.33,91.28 83.46,91.27 83.33,93.24 C83.27,93.99 83.32,94.96 83.32,94.96 C84.16,94.47 86.15,92.12 86.71,92.54 C87.14,92.95 87.49,93.8 87.5,95.13 C87.45,97.72 85.99,100.1 83.67,100.87 C77.27,102.86 72.98,95.46 77.43,90.78 C77.87,90.31 79.13,89.45 79.73,89.62 C80.48,90.99 80.45,92.51 80.8,93.86 L80.8,93.86 Z M58.88,87.01 L59.43,108.89 C56.66,102.33 52.77,95.16 52.69,95.23 C52.69,95.23 55.88,90.99 58.88,87.01 L58.88,87.01 Z M62.63,80.71 L63,112.92 L60.22,110.12 L59.82,85.49 L62.63,80.71 L62.63,80.71 Z M88.83,82.87 C87.96,85.18 84.15,89.12 84.15,89.12 C84.15,89.12 84.65,85.28 84.97,84.07 C85.21,83.14 85.76,81.89 86.3,81.29 C87.84,79.6 89.37,81.52 88.83,82.87 L88.83,82.87 Z M137.54,80.45 L137.63,84.54 C117.88,108.58 120.11,130.24 131.27,150.18 L129.13,152.35 C110.84,120.8 122.25,97.02 137.54,80.45 L137.54,80.45 Z M66.19,79.79 C70.08,82.57 74.14,85.32 79.4,87.07 C79.12,88 71.9,94.09 77.08,99.72 C77.29,100.01 76.74,100.73 75.9,101.75 C73.42,105.14 70.95,107.55 68.88,111.37 L68.8,118.53 L66.73,116.7 L66.19,79.79 L66.19,79.79 Z M138.05,78.66 C124.76,92.44 107.42,117.83 128.94,153.5 L131.79,150.21 C114.45,117.95 126.74,101.23 138.15,84.46 L138.05,78.66 L138.05,78.66 Z M45.91,78.45 C45.91,78.45 42.08,86.42 35.36,91.6 L35.31,88.49 C39.22,85.45 42.19,80.22 42.19,80.23 L45.91,78.45 L45.91,78.45 Z M87.74,77.68 C89.91,77.67 91.55,79.39 91.54,81.82 C91.52,82.84 91.17,83.62 89.79,86.31 C88.45,88.61 88.28,90.01 87.75,92.67 L86.4,91.45 L83.93,93.68 L83.96,90.43 C83.96,90.43 84.81,89.35 86.19,87.8 C87.94,85.86 89.52,83.36 89.44,81.95 C89.4,80.55 87.92,79.4 86.4,80.32 C85.09,81.24 84.48,82.91 83.71,87.89 C83.57,88.78 83.44,89.82 83.37,90.04 C83.17,90.66 81.27,92.46 81.27,92.46 C81.11,92.46 80.36,88.8 80.36,88.8 L78.43,89.12 C80.66,86.7 82.39,83.78 83.51,80.72 C84.55,78.83 85.86,77.7 87.74,77.68 L87.74,77.68 Z M121.02,75.56 C121.02,75.56 121.55,75.5 121.49,75.6 C118.22,78.82 113.73,82.25 110.78,84.17 C96.84,98.51 84.91,109.83 72.77,122.61 L70.82,120.57 L72.58,118.71 C72.59,115.03 77.09,110.9 79.75,107.72 C80.87,106.46 82.96,103.23 82.72,101.87 C82.64,101.56 82.63,101.44 82.63,101.44 C86.85,100.6 87.86,97.17 87.95,94.14 C88.14,92.11 88.41,90.27 89.1,88.61 C108.19,90.14 120.5,76.06 121.02,75.56 L121.02,75.56 Z M118.62,75.24 L120.21,76.16 C110.35,85.31 99.7,89.25 89.46,88.26 L90.29,86.41 C106.89,87.72 117.92,75.42 118.62,75.24 L118.62,75.24 Z M53.86,74.66 C48.69,83.8 42.54,92.14 35.41,97.57 L35.31,92.74 C42.1,87.51 47.23,77.95 47.25,77.91 L53.86,74.66 L53.86,74.66 Z M82.95,75.19 C83.7,75.61 84.63,76.11 84.4,76.27 C84.05,76.49 81.84,76.35 81.33,76.07 C80.95,75.87 80.97,75.76 81.5,75.17 C82.14,74.45 82.25,74.8 82.95,75.19 L82.95,75.19 Z M110.94,74.35 L114.2,74.6 C115.08,75.21 101.45,84.15 92,83.35 L92.25,81.21 C100.54,81.45 111.16,74.74 110.94,74.35 L110.94,74.35 Z M80.71,73.51 C80.95,73.51 81.11,73.67 81.28,73.98 C81.48,74.36 81.26,74.7 80.39,75.36 C79.84,75.78 79.64,75.86 79.18,75.85 C78.02,75.83 78.05,75.55 79.33,74.4 C79.99,73.81 80.41,73.52 80.71,73.51 L80.71,73.51 Z M58.64,72.3 C58.49,72.48 51.1,89.43 35.45,101.46 L35.38,98.64 C44.05,91.75 50.35,82.32 55.11,74.08 L58.64,72.3 L58.64,72.3 Z M79.22,71.79 C79.48,71.79 80.06,72.44 80.06,72.73 C80.06,72.87 79.95,73.13 79.81,73.3 C79.54,73.65 78.11,74.73 77.5,75.04 C77.02,75.29 76.66,75.29 76.14,75.03 C75.53,74.72 75.63,74.46 76.64,73.81 C77.13,73.5 77.87,72.91 78.29,72.51 C78.71,72.11 79.13,71.79 79.22,71.79 L79.22,71.79 Z M61.35,70.92 C66.47,77.94 73.06,82.6 80.81,85.08 L79.59,86.73 C72.51,84.29 65.59,79.87 59.27,72.09 L61.35,70.92 L61.35,70.92 Z M77.9,69.93 C78.07,69.93 78.7,70.74 78.7,70.96 C78.7,71.08 78.47,71.49 78.19,71.85 C77.77,72.38 77.41,72.65 76.38,73.22 C74.98,73.99 74.13,74.17 73.53,73.85 C72.92,73.53 73.13,73.27 74.63,72.38 C75.41,71.92 76.45,71.18 76.93,70.74 C77.42,70.29 77.86,69.93 77.9,69.93 L77.9,69.93 Z M65.86,68.84 C72.11,75.54 78.23,78.98 82.92,80.59 L82.18,82.35 C76.03,79.96 69.75,76.64 64.43,69.5 L65.86,68.84 L65.86,68.84 Z M76.82,68.2 C77.17,68.2 77.35,68.45 77.35,68.96 C77.35,69.88 75.98,71.04 73.56,72.18 C72.3,72.77 71.57,72.86 70.84,72.51 C70.15,72.19 70.18,71.9 70.94,71.68 C72.83,71.13 74.17,70.37 75.7,69 C76.19,68.56 76.69,68.2 76.82,68.2 L76.82,68.2 Z M28.18,66.24 C28.18,66.24 29.8,67.71 30.66,68.55 C30.56,72.45 29.12,76.69 29.13,80.18 C29.16,83.22 31.12,85.75 31.32,88.4 C31.44,90.11 30.94,92.65 30.1,94.57 C29.31,96.36 28.9,98.27 28.9,100.13 C29,104.45 32.1,109.17 31.01,113.44 C29.99,117.45 28.83,119.77 29.13,121.9 C29.73,126.01 31.91,129.65 31.33,133.07 C30.79,136.26 29.35,139.44 29.51,142.31 C29.68,145.62 30.92,148.4 31.27,151.42 C31.5,153.39 30.94,156.46 30.94,156.46 L28.67,156.64 C29.92,151.99 28.06,147.77 27.35,143.3 C26.74,139.48 28.45,136.45 28.96,133.2 C29.27,131.18 28.92,129.26 27.92,126.68 C25.94,121.93 26.65,118.84 28.07,114.7 C29.83,110.3 27.41,106.81 26.81,102.59 C26.5,98.96 26.74,96.38 28.11,93.15 C29.12,90.04 29.41,88.23 27.89,85.25 C26.94,83.36 26.69,82.24 26.68,79.76 C27.18,74.83 28.51,72.06 28.18,66.24 L28.18,66.24 Z M75.74,65.24 C76.1,65.24 76.48,66.59 76.31,67.28 C76.01,68.47 72.89,70.49 70.69,70.91 C70.25,70.99 69.78,71.08 69.64,71.11 C69.19,71.19 68.66,70.93 68.11,70.37 C67.72,69.97 67.53,69.58 67.62,69.48 C67.7,69.4 68.71,69.58 69.56,69.57 C71.95,69.59 73.8,67.88 75.22,65.83 C75.44,65.5 75.67,65.24 75.74,65.24 L75.74,65.24 Z M109.51,63.56 C109.59,63.56 111.26,67.54 111.48,68.11 C111.42,68.51 110.99,68.48 110.24,67.96 C109.49,67.43 109.27,67.06 108.95,65.84 C108.85,65.4 108.69,63.82 109.51,63.56 L109.51,63.56 Z M74.38,60.32 C74.38,60.32 75.27,63.46 75.19,64.17 C74.96,65.54 73.01,67.74 71.31,68.54 C69.73,69.15 67.34,68.84 66.34,67.79 C62.71,63.53 69.48,59.26 71.18,63.69 C72.21,66.6 68.04,67.29 67.86,65.05 C67.86,64.48 68.04,64.3 68.58,63.92 C69.06,63.59 69,63.29 68.59,63.29 C67.02,63.87 66.98,65.32 67.69,66.24 C69.11,67.72 70.86,66.85 72.07,65.77 C73.69,64.3 74.01,62.19 74.38,60.32 L74.38,60.32 Z M108.16,60.67 C108.17,60.67 108.19,60.67 108.2,60.68 C108.43,60.7 108.63,60.99 108.82,61.53 C109.04,62.16 109.04,62.18 108.79,62.81 C107.64,65.64 108.58,68.34 111.43,69.19 C112.11,69.41 112.22,69.52 112.62,70.36 C112.88,70.9 112.99,71.1 112.89,71.22 C112.74,71.33 112.38,71.38 111.31,71.15 C107.07,69.7 105.53,65.05 107.46,61.36 C107.7,60.94 107.92,60.71 108.12,60.68 C108.13,60.67 108.15,60.67 108.16,60.67 L108.16,60.67 Z M26,60.42 L34.42,68.37 L34.71,156.99 L33.37,156.52 L32.83,69.35 L26,63.08 L26,60.42 L26,60.42 Z M150.29,59.34 C152.88,65.79 152.99,71.7 150.65,77.07 L148.29,77.42 C151.53,69.84 150.15,64.42 148.32,59.19 L150.29,59.34 L150.29,59.34 Z M146.35,58.59 L146.42,78.15 L144.34,78.91 L144.42,58.11 L146.35,58.59 L146.35,58.59 Z M107.37,57.96 C107.57,57.95 107.71,58.15 107.84,58.53 C108.12,59.33 108.11,59.42 107.69,59.96 C103.58,65.66 107.32,71.49 113.28,72.12 C113.78,72.16 114.03,72.73 114.3,73.39 C114.26,73.7 114.26,73.7 112.91,73.72 C112.03,73.74 111.32,73.68 110.88,73.56 C108.79,73 106.23,71.11 105.19,69.36 C103.98,67.34 103.78,65.26 104.52,62.48 C105,60.69 105.61,59.51 106.54,58.54 C106.92,58.15 107.17,57.96 107.37,57.96 L107.37,57.96 Z M150.54,51.87 C151.28,51.87 151.87,52.46 151.87,53.2 C151.87,53.94 151.28,54.54 150.54,54.54 C149.8,54.54 149.2,53.94 149.2,53.2 C149.2,52.46 149.8,51.87 150.54,51.87 L150.54,51.87 Z M145.9,50.94 C146.62,50.94 147.21,51.53 147.21,52.25 C147.21,52.98 146.62,53.56 145.9,53.56 C145.18,53.56 144.59,52.98 144.59,52.25 C144.59,51.53 145.18,50.94 145.9,50.94 L145.9,50.94 Z M73.68,50.3 C74.72,52.92 73.57,56.05 72.3,57.11 C71.13,58.08 69.3,58.21 68.26,57.26 C67.38,56.44 67.77,54.47 69.4,54.62 C69.94,54.63 70.59,55.13 70.96,55.66 C72.02,55.77 73.24,50.39 73.68,50.3 L73.68,50.3 Z M141.86,49.75 C142.5,49.75 143.01,50.27 143.01,50.91 C143.01,51.55 142.5,52.07 141.86,52.07 C141.21,52.07 140.7,51.55 140.7,50.91 C140.7,50.27 141.21,49.75 141.86,49.75 L141.86,49.75 Z M73.63,48.55 C72.7,49.82 71.93,54.37 70.96,54.42 C69.9,54.41 68.61,53.79 67.77,54.76 C66.76,55.93 67.38,57.23 68.63,57.94 C69.21,58.23 70.43,58.29 71.17,58.08 C74.22,57.06 75.37,52.11 73.63,48.55 L73.63,48.55 Z M138.81,48.7 C139.26,48.7 139.62,49.06 139.62,49.5 C139.62,49.95 139.26,50.31 138.81,50.31 C138.37,50.31 138.01,49.95 138.01,49.5 C138.01,49.06 138.37,48.7 138.81,48.7 L138.81,48.7 Z M117.65,42.14 C117.86,42.15 118.29,42.26 118.48,42.38 C118.59,42.45 118.76,42.61 118.76,42.61 C121.9,54.08 124.51,60.95 127.18,65.8 C127.18,65.8 127.13,66.69 126.96,66.94 C126.64,67.39 126.48,67.28 126.07,66.57 C124.39,63.32 122.8,59.73 121.31,56.03 C119.56,51.68 118.01,47.17 117.35,42.88 C117.39,42.33 117.26,42.18 117.65,42.14 L117.65,42.14 Z M115.44,41.41 C115.61,41.41 115.83,41.47 116.1,41.6 C116.39,41.74 116.51,41.83 116.66,42.37 C116.76,42.72 116.74,43.27 116.92,44.15 C117.91,48.73 119.29,52.44 120.65,56.06 C121.94,59.49 123.33,62.87 125.05,65.92 C125.91,67.45 126.77,68.89 127.31,69.43 C128.79,70.91 131.29,70.99 132.03,69.52 C132.44,68.68 132.36,67.36 131.55,66.68 C130.92,66.08 129.5,66.33 129.46,67.06 C129.46,67.25 129.81,67.16 130.33,67.1 C131.76,66.94 132.21,69.48 130.36,69.9 C128.03,70.44 126.41,67.28 128.47,65.34 C131.96,62.97 134.62,66.21 133.8,69.33 C133,71.17 131.67,72.11 129.91,72.17 C127.63,72.24 126.69,71.54 124.35,68.14 C121.68,63.84 120.52,59.64 118.63,54.94 C116.85,50.49 115.66,45.75 115.11,41.6 C115.15,41.47 115.27,41.41 115.44,41.41 L115.44,41.41 Z M113.08,40.67 C113.42,40.69 113.88,40.83 114.07,41.02 C115.24,45.4 116.09,50.26 118.03,55.14 C120.4,61.13 121.72,66.43 126.13,71.37 C127.51,72.78 130.19,72.74 130.19,72.74 C130.19,72.74 129.85,73.5 129.4,73.63 C128.45,73.77 127.77,73.82 127.08,73.59 C124.52,72.51 122.57,69.78 121.56,67.92 C120.62,66.54 118.31,60.82 116.41,54.98 C114.34,48.63 112.64,42.03 112.83,40.7 C112.91,40.67 112.96,40.67 113.08,40.67 L113.08,40.67 Z M152.62,48.29 L152.6,50.09 C145.57,50.55 138.37,47.58 132.58,44.9 C136.94,50.7 141.6,55.84 152.6,56.9 L152.62,58.76 C138.29,58.55 128.2,44.02 128.73,40.39 C134.62,44.21 145.27,48.62 152.62,48.29 L152.62,48.29 Z M110.81,40 C110.92,40 111.05,40.02 111.2,40.06 C111.86,40.24 111.95,40.33 112.1,41.07 C113.24,46.14 114.44,50.61 115.78,54.87 C117.15,59.2 118.55,63.28 120.74,67.57 C122.35,70.69 124.38,72.85 126.56,73.95 C127.19,74.26 127.75,74.56 127.81,74.62 C127.86,74.67 127.85,74.84 127.77,74.98 C127.66,75.2 127.52,75.24 126.99,75.23 C126,75.21 125.3,74.91 124.24,74.19 C121.45,72.26 119.01,67.9 117.93,65.42 C116.62,62.4 115.41,59.26 114.32,55.84 C112.37,49.69 111.15,45.63 110.26,40.45 C110.26,40.15 110.46,39.99 110.81,40 L110.81,40 Z M109.28,39.68 C109.55,39.95 109.71,40.48 109.94,41.59 C111.23,46.89 112.29,51.63 113.81,55.99 C114.63,58.33 115.34,60.67 116.22,62.88 C117.62,66.4 119.34,69.61 121.45,72.29 C122.15,73.17 123.41,74.25 124.47,74.88 C125.21,75.32 125.32,75.43 125.27,75.69 C125.2,75.91 124.49,76.01 124.25,75.99 C123.09,75.79 121.37,74.89 120.88,74.22 C117.33,70.38 114.8,64.09 112.95,58.93 C109.77,50.05 107.21,38.95 107.7,39.29 C107.66,39.04 108.97,39.33 109.28,39.68 L109.28,39.68 Z M105.39,38.87 C105.27,38.77 106.49,38.75 106.88,39.08 C107,39.19 107.2,39.92 107.38,40.86 C108.49,46.58 110.15,52.5 112.08,58.1 C113.62,62.57 115.31,66.88 117.41,70.37 C118.06,71.53 118.96,72.78 120.09,74.12 C120.73,74.87 120.78,74.98 120.61,75.18 C120.4,75.44 120.03,75.41 119.32,75.07 C118.66,74.75 117.94,74.07 117.27,73.09 C117.04,72.76 116.69,72.26 116.49,71.98 C113.4,66.62 111.52,61.52 109.81,56.35 C108.07,51.04 106.5,45.67 105.43,39.49 C105.42,39.28 105.4,39.08 105.39,38.87 L105.39,38.87 Z M104.71,38.63 C104.79,38.78 105.04,40 105.28,41.13 C106.38,47.35 107.87,51.97 109.38,56.66 C111.31,62.58 114.16,70.03 116.94,73.48 C117.3,73.91 117.48,74.4 117.35,74.62 C117.13,74.98 116,74.47 115.24,73.67 C114.93,73.34 114.33,72.42 113.89,71.6 C112.92,69.78 111.62,67.14 111.49,66.72 C111.44,66.55 110.93,65.25 110.35,63.82 C109.35,61.32 108.76,59.62 107.92,56.84 C107.25,54.64 106.64,52.33 105.9,50.02 C104.69,46.22 103.98,43.21 103.31,39.72 C103.21,39.21 103.04,38.61 103.1,38.49 C103.49,38.21 104.53,38.32 104.71,38.63 L104.71,38.63 Z M150.8,33.92 C150.86,36.81 150.39,39.58 151.15,42.53 C151.53,43.98 152.29,45.68 152.39,47.4 L150.27,47.35 C150.01,46.48 149.9,45.52 149.59,44.46 C148.81,41.83 148.17,39.06 148.75,36.28 L150.8,33.92 L150.8,33.92 Z M152.6,27.7 L152.74,30.62 L146.33,37.38 L146.34,46.82 L144.48,46.38 L144.41,36.63 L152.6,27.7 L152.6,27.7 Z M114.62,20.44 L114.29,21.49 L123.17,21.49 L123.83,20.44 L114.62,20.44 L114.62,20.44 Z M106.87,21.49 L110.79,21.49 L111.08,20.44 L107.14,20.44 L106.87,21.49 L106.87,21.49 Z M87.76,20.44 L88,21.49 L103.63,21.49 L103.91,20.44 L87.76,20.44 L87.76,20.44 Z M80.88,21.49 L84.72,21.49 L84.5,20.44 L80.56,20.44 L80.88,21.49 L80.88,21.49 Z M70.48,20.44 L71.14,21.49 L77.37,21.49 L77.02,20.44 L70.48,20.44 L70.48,20.44 Z M58.77,20.44 L73.84,38.5 C76.98,37.37 92.8,35.57 102.29,37.74 C103.95,44.23 105.7,50.78 107.55,56.69 C107.55,56.69 106.96,57.39 106.53,57.83 C100.47,64.83 104.76,71.59 110.3,73.79 C109.3,75.87 98.67,81.06 92.2,80.44 C92.21,80.38 90.21,75.68 86.16,77.27 C84.78,77.81 84.21,78.86 83.13,79.88 C79.27,78.71 74.16,76.16 71.51,73.36 C76.47,75.84 81.36,77.17 86.27,76.51 C86.27,76.51 85.67,76 84.97,75.69 C84.56,75.5 83.56,74.89 82.75,74.35 C80.47,72.81 78.95,70.95 77.39,67.77 C75.59,64.55 75.3,61.09 74.31,58.03 C73.79,59.6 73.56,63.73 72.2,64.59 C71.85,64.82 71.78,64.75 71.52,63.88 C70.48,60.7 66.67,61.1 65.41,63.36 C64.78,65.31 64.87,66.16 65.67,67.97 L63.36,69.26 L63.36,69.64 L61.94,70.32 L61.65,70.12 C55.04,73.31 48.56,76.64 41.82,79.71 C41.82,79.71 38.24,85.66 34.96,88.03 L34.83,67.81 L25.13,59.03 L25.08,63.84 C25.08,63.84 25.55,64.33 25.78,64.58 C25.91,98.41 25.8,131.7 25.82,162.42 L25.87,190.7 L25.28,190.73 L25.25,194.03 L25.91,194.18 L25.82,198.84 L25.47,198.86 L25.42,201.81 L25.95,201.89 L25.94,218.54 L25.42,219.21 L25.43,223.96 L35.56,214.32 L35.79,203.35 C43.78,204.86 52.13,210.61 52.13,210.61 C50.73,201.42 41.01,193.85 35.42,192.34 L35.44,170.57 C35.44,170.57 31.29,172.3 29.24,172.57 C28.22,172.72 27.83,172.56 27.35,171.83 C27,171.29 26.99,170.8 27.31,169.7 C27.46,169.18 27.45,169.04 27.26,168.52 C27,167.79 27,167.46 27.26,166.17 C27.52,165.41 27.41,165.01 27.13,164.31 C26.82,163.56 26.8,163.42 26.93,162.98 C27.27,161.84 27.29,161.66 27.11,161.15 C26.76,160.16 26.75,159.44 27.07,158.79 C28.57,156.28 31.91,156.9 33.73,156.99 C34.65,158.02 35.2,158.59 35.29,157.1 C35.93,155.33 38.43,157.14 39.6,157.9 C49.54,144.55 54.45,126.48 41.98,103.87 L35.04,109.43 L35.05,102.47 C44.25,96.54 54.6,83.08 59.08,72.46 C60.58,74.21 62.29,75.92 63.9,77.69 L62.85,79.46 L62.53,79.28 C59.68,84.74 51.93,95.05 51.81,94.95 C54.67,100.28 57.23,105.65 59.4,111.1 L59.97,110.84 L60.48,112.48 L59.47,112.78 C62.87,123.94 62.98,134.27 60.43,143.79 L61.03,146.32 C61.03,146.32 64.62,149.81 65.59,150.83 C68.12,153.29 70.94,156.03 70.94,156.03 L74.21,152.81 L74.02,152.54 L102.76,123.96 L104.55,125.67 C86.95,143.43 56.38,174.09 56.38,174.09 L55.32,174.25 C54.72,174.34 53.83,174.38 53.26,174.33 C52.33,174.27 52.21,174.29 51.46,174.65 C50.62,175.05 49.92,175.65 48.99,176.77 C48.56,177.28 48.27,177.5 47.79,177.67 C41.8,181.25 47.22,188.46 52.31,184.66 C56.05,191.81 59.21,200.14 60.96,208.38 C60.96,208.44 60.29,208.67 60.29,208.67 L46.86,228.62 L52.02,228.62 L52.56,227.7 L48.69,227.7 L61.04,209.82 C76.76,214.11 91.19,214.72 105.83,212.17 L118.57,227.7 L113.51,227.7 L114.23,228.62 L120.78,228.72 L105.8,211.01 C100.43,212.45 86.29,213.6 77.42,212.1 C76.06,205.49 73.82,198.32 72.17,192.6 C80.63,185.96 74.28,177.2 69.05,175.97 C68.79,175.49 79.65,168.88 87.38,169.34 C89.59,174.67 94.44,173.88 96.18,169.92 C99.38,171.09 103.54,172.27 106.85,174.9 C102.44,173.94 97.34,173.41 93.14,173.34 C101.13,176.45 103.37,182.99 104.35,189.16 C104.53,190.18 105.07,191.5 105.07,191.5 C105.75,189.27 106.31,186.97 107.65,185.07 C108.27,187.25 110.54,188.94 112.82,187.64 C114.15,186.68 114.61,185.03 114.19,182.75 C114.07,182.11 114.01,181.76 114.01,181.76 L115.79,180.8 L116.02,181 C116.02,181 117.96,180.17 118.93,179.69 C119.08,179.62 118.75,179.32 118.75,179.32 L136.7,170.84 C136.63,170.8 141.23,164.52 143.86,162.09 C143.94,169.62 143.92,172.72 143.92,181.65 L144.93,182.65 C145.83,183.52 147.79,185.35 152.21,189.42 C153.2,190.33 153.9,190.78 153.9,190.78 L153.76,59.13 L153.62,59.13 L153.62,56.6 L153.82,56.59 L153.82,50 L153.64,49.9 L153.64,47.82 L153.88,47.64 L153.9,29.86 L153.62,29.81 L153.6,25.54 L143.59,36.14 L143.67,46.14 C139.2,45.56 133.68,42.7 129.88,40.39 C128.65,39.64 127.96,39.44 128,39.87 C128.54,45.82 137.14,54.93 143.75,57.31 L143.76,79.7 C143.76,79.71 145.32,78.92 146.27,78.52 L146.41,78.92 L148.54,78.03 L148.72,77.57 L150.56,77.34 C150.59,77.71 150.65,77.66 150.65,77.66 C152.29,78.12 153.02,79.25 152.36,80.51 C152.13,80.93 152.08,81.54 152.28,81.69 C152.99,82.82 153.17,83.81 152.31,84.88 C151.98,85.43 151.98,85.73 152.32,86.31 C153.21,88.11 152.71,87.99 152.04,89.06 C151.89,89.87 152.77,90.4 152.48,91.16 C152.35,91.67 151.82,92.26 151.46,92.52 C151.04,92.83 150.69,92.26 150.69,92.26 C150.69,92.26 149.36,92.83 148.4,93.02 C147.46,93.32 145.83,93.87 145.27,92.6 C144.95,91.87 145.21,91.21 145.19,90.39 L143.8,90.24 L143.75,93.94 C142.96,94.36 139.82,92.75 139.82,92.75 C126.32,110.28 126.7,129.72 136.71,146.01 C136.8,146.27 143.76,141.24 143.76,141.24 C143.76,141.24 143.75,145.36 143.81,147.6 C134.96,154.92 126.42,164.78 120.32,176.94 L116.53,172.44 C117.19,171.87 117.21,170.95 117.2,170.26 L119.94,166.16 L119.97,165.1 L127.11,155.1 C127.22,155.7 119.74,141.68 118.74,137.12 L119.24,136.98 C115.88,124.26 116.57,115.35 118.99,104.97 L118.3,104.3 L108.88,94.87 C108.12,95.58 107.35,96.29 106.59,97 C106.47,97.11 105.9,97.05 105.78,97.16 C100.82,101.82 96.06,106.49 91.34,111.35 C91.22,111.47 91.42,111.99 91.3,112.12 C86.58,117 81.68,121.62 76.89,126.49 L75.15,124.82 C92.08,107.86 123.99,76.35 123.99,76.35 C123.99,76.35 124.13,76.1 124.35,76.09 C125.23,76.06 126.03,75.86 126.9,75.6 C127.96,75.36 128.13,75.28 128.57,74.82 C128.84,74.54 129.28,74.15 129.55,73.95 C130.02,73.61 131.07,72.72 132.72,71.28 C133.73,70.4 134.36,69.12 134.33,67.97 C134.3,65.93 132.95,64.2 131.21,63.95 C130.49,63.84 129.08,64.22 128.36,64.7 C127.82,65.07 127.56,65.24 127.33,65.08 C123.87,58.05 120.51,49.22 119.08,41.93 C119,41.47 119.04,41.33 119.42,40.76 C119.65,40.4 120.16,39.6 120.55,38.99 C124.86,32.27 129.27,26.63 133.04,20.44 L127.71,20.44 L127.06,21.49 L131.44,21.49 L118.39,40.31 C94.35,32.43 74.64,37.42 74.17,37.53 L61.17,21.49 L67.12,21.49 L66.39,20.44 L58.77,20.44 L58.77,20.44 Z" id="Fill-587" fill="#0A0A08"></path>
        <path d="M14.4,11.36 L14.4,14.11 L17.07,14.11 C17.07,14.11 17.14,16.77 17.16,22.4 C17.18,27.87 17.29,30.58 16.94,32.14 C16.01,35.73 10.81,35.75 9.78,33.17 C9.18,31.66 9.34,30.5 9.31,28.99 L6.44,28.99 C6.44,28.99 6.46,29.75 6.46,30.68 C6.48,34.71 7.81,36.65 10.94,37.41 C14.15,38.28 17.9,36.95 19.24,34.2 C20.04,32.64 19.94,32.53 19.96,23.06 C19.98,16.74 20.07,14.11 20.07,14.11 L22.53,14.11 L22.53,11.36 L14.4,11.36" id="Fill-588" fill="#C0242A"></path>
        <path d="M164.26,237.94 L164.26,235.18 L161.59,235.18 C161.59,235.18 161.53,232.53 161.5,226.89 C161.48,221.43 161.37,218.71 161.72,217.15 C162.65,213.56 167.85,213.54 168.88,216.13 C169.48,217.63 169.32,218.79 169.35,220.31 L172.22,220.31 C172.22,220.31 172.21,219.55 172.2,218.61 C172.18,214.58 170.85,212.65 167.72,211.89 C164.51,211.02 160.76,212.34 159.42,215.09 C158.63,216.66 158.72,216.76 158.7,226.23 C158.69,232.55 158.59,235.18 158.59,235.18 L156.13,235.18 L156.13,237.94 L164.26,237.94" id="Fill-589" fill="#C0242A"></path>
    </g>
</svg>