<?xml version="1.0" encoding="UTF-8" standalone="no"?>
<svg width="180px" height="251px" viewBox="0 0 180 251" version="1.1" xmlns="http://www.w3.org/2000/svg" xmlns:xlink="http://www.w3.org/1999/xlink">
    <!-- Generator: Sketch 39.1 (31720) - http://www.bohemiancoding.com/sketch -->
    <title>QD</title>
    <desc>Created with Sketch.</desc>
    <defs></defs>
    <g id="Page-1" stroke="none" stroke-width="1" fill="none" fill-rule="evenodd">
        <path d="M9.52,1.32 L170.3,1.32 C175,1.32 178.81,5.13 178.81,9.82 L178.81,241.47 C178.81,246.16 175,249.97 170.3,249.97 L9.52,249.97 C4.83,249.97 1.02,246.16 1.02,241.47 L1.02,9.82 C1.02,5.13 4.83,1.32 9.52,1.32" id="Fill-590" fill="#FFFFFF"></path>
        <path d="M41.13,193.64 L30.63,196.45 C30.63,196.45 34.02,204.37 35.2,211.42 C36.64,220.05 35.49,229.44 35.49,229.44 L65.97,229.59 L41.13,193.64 L41.13,193.64 Z M126.08,165.16 C128.17,164.21 135.6,160.6 135.92,161.44 L135.76,165.05 C134.62,164.68 127.29,165.89 131.53,173.49 C128.86,179.52 134.81,182.64 138.98,178.65 C147.72,181.66 146.55,172.88 144.74,171.46 C146.16,169.25 144.38,164.53 143.49,164.52 C143.49,164.52 151.11,166.24 150.37,164.88 C150.03,164.26 149.6,163.19 147.91,162.05 C145.96,160.74 142.53,161.22 139.75,160.63 C136.78,160.01 134.87,158.95 132.38,158.79 C128.61,159.14 125.1,162.46 126.08,165.16 L126.08,165.16 Z M140.3,151 C139.31,151.8 138.81,152.52 138.04,153.55 L138.82,154.81 L140.81,152.62 L140.3,151 L140.3,151 Z M80.89,154.84 C65.8,157.24 50.7,158.72 38.72,168.1 C40.07,167.95 54.59,181.64 55.35,183.56 C77.54,172.68 99.1,180.9 99.1,180.9 L115.35,165.18 C115.97,164.89 97.68,157.32 94.23,156.05 C106.69,122.39 86.96,127.45 80.89,154.84 L80.89,154.84 Z M145.2,141.95 C144.86,143.48 144.93,143.93 145.61,144.23 C146.8,144.75 147.33,144.12 148.29,141.63 C148.86,140.14 149.37,137.91 148.91,137.02 C146.65,135.44 145.46,140.79 145.2,141.95 L145.2,141.95 Z M31.65,106.71 C30.9,108.52 30.21,111.84 30.46,114 C34.14,115.85 35.14,108.17 34.15,107.43 C33.56,107.18 32.15,106.69 31.65,106.71 L31.65,106.71 Z M39.34,98.22 C39.29,98.48 38.54,101.67 38.34,101.59 C38.36,101.76 40.44,100.81 40.68,99.94 C40.89,99.17 41.37,98.13 41.4,97.98 C40.93,94.7 40.04,97.03 39.34,98.22 L39.34,98.22 Z M131.89,95.61 C130.33,107.76 128.91,124.33 108.37,142.75 C111.93,148.83 116.46,155.02 122.98,157.98 C123.44,159.02 141.82,138.89 153.13,129.37 L153.07,116.47 L131.89,95.61 L131.89,95.61 Z M57.95,91.98 C47.57,102.48 26.36,122.19 26.36,122.19 L26.58,136.89 L47.31,155.51 C48.95,135.75 60.14,117.31 70.79,108.08 C71.77,105.27 60.21,92.96 57.95,91.98 L57.95,91.98 Z M40.37,73.35 C35.09,70.1 30.97,76.78 34.83,80.12 C34.38,82.08 34.22,84.98 36.11,86.25 C37.83,87.35 41.06,86.21 41.52,86.23 C41.55,86.23 41.61,89.74 41.34,89.73 C40.84,89.71 38.95,88.1 37.79,87.75 C33.85,86.57 28.32,85.98 28.42,86.19 C28.58,86.53 27.44,87.34 31.83,90.1 C33.46,91.13 38.61,89.97 42.71,91.27 C45.21,92.06 47.45,93.32 48.81,92.67 C52.39,91.69 53.79,87 53.54,87.03 C53.42,86.89 42.72,89.79 43.73,90.3 L43.7,86.23 C47.92,86.7 51.73,83.63 47.58,78.36 C50.67,75.28 46.35,67.94 40.37,73.35 L40.37,73.35 Z M124.1,68.62 C110.18,72.56 96.28,76.27 81.19,69.84 L64.71,85.83 C64.57,86.24 84.62,94.93 84.96,93.91 C75.13,120.46 90.45,125.28 100.21,96.08 C112.98,94.4 128.3,92.66 140.96,83.84 C130,77.23 124.09,68.54 124.1,68.62 L124.1,68.62 Z M112.88,22.29 C112.88,22.29 133.07,51.58 139.92,56.78 C140.42,57.02 148.87,55.4 148.87,55.4 C144.54,45 141.75,34.24 144.56,22.18 L112.88,22.29 L112.88,22.29 Z" id="Fill-592" fill="#DACA2C"></path>
        <path d="M76.76,73.31 C76.87,63.71 83.65,52.32 83.58,52.61 C83.5,52.59 84.54,62 85.85,64.95 C85.5,65.47 77.08,73.91 76.76,73.31 L76.76,73.31 Z M40.58,80.1 C38.77,78.16 41.64,76.44 42.83,78.17 C43.88,79.7 41.53,81.13 40.58,80.1 L40.58,80.1 Z M102.42,22.31 L109.13,22.24 C109.13,22.24 141.38,63.67 153.47,79.78 C153.07,81.42 153.61,95.33 153.61,95.33 C136.49,71.14 102.42,22.31 102.42,22.31 L102.42,22.31 Z M78.39,110.07 C75.61,109.09 71.8,108.81 70.33,106.65 L73.22,97.46 L81.78,100.09 L78.39,110.07 L78.39,110.07 Z M96.45,112.93 C97.33,109.34 98.47,105.83 100.03,102.45 L109.55,102 C109.5,101.82 105.49,108.36 104.53,113.09 C103.01,112.93 96.45,112.93 96.45,112.93 L96.45,112.93 Z M76.48,130.55 C76.74,126.26 76.25,121.77 75.66,117.78 C84,119.71 93.09,121 103.15,121.46 L104.11,133.02 C95.17,131.38 86.08,130.21 76.48,130.55 L76.48,130.55 Z M117.1,133.98 C111.06,121.9 118.18,102.79 131.33,97.52 C130.86,109.77 127.07,122.18 117.1,133.98 L117.1,133.98 Z M70.03,149.37 C72.15,145.88 73.75,142.03 75.23,138.09 L83.06,137.93 L79.13,148.79 L70.03,149.37 L70.03,149.37 Z M106.19,153.58 L98.38,151.47 L102.05,140.5 C102.05,140.5 109.6,142.23 108.97,144.5 C106.94,151.92 106.19,153.58 106.19,153.58 L106.19,153.58 Z M48.18,153.67 C46.64,154.66 50.93,129.66 62.69,116.74 C69.84,137.3 57.22,148.83 48.18,153.67 L48.18,153.67 Z M139.69,171.02 C141.76,173.77 138.27,175.3 136.96,174.07 C134.29,171.59 138.2,169.02 139.69,171.02 L139.69,171.02 Z M95.58,198.55 C95.15,194.91 94.41,190.55 93.35,186.8 L102.58,178.07 C101.58,185.88 100.05,191.86 95.58,198.55 L95.58,198.55 Z M68.5,229.49 C55.13,210.33 42.73,192.1 26.28,172.01 C26.28,172.01 26.29,164.24 26.35,156.54 L76.9,229.3 L68.5,229.49 L68.5,229.49 Z" id="Fill-593" fill="#C0242A"></path>
        <path d="M94.32,226.74 L94.33,226.74 L94.32,229.08 L92.92,229.08 C92.77,229.05 93.59,227.23 94.32,226.74 L94.32,226.74 Z M75.87,226.25 C76.37,226.39 78.21,228.49 78.16,229.08 L77.33,229.08 C76.86,228.49 76.31,227.52 75.98,226.92 C75.78,226.53 75.65,226.18 75.87,226.25 L75.87,226.25 Z M94.64,223.21 L94.61,224.78 C93.5,226.2 92.57,227.72 91.68,229.08 L90.29,229.08 C91.56,226.32 94.75,222.46 94.64,223.21 L94.64,223.21 Z M80.78,229.08 L79.15,229.08 C77.77,227.12 75.72,224.9 73.83,223.78 C73.06,222.82 72.2,221.64 72.55,221.45 C72.57,220.74 79.81,225.98 80.78,229.08 L80.78,229.08 Z M94.61,219.14 L94.59,221.87 C92.41,223.99 90.82,226.46 89.58,229.08 L87.89,229.08 C87.89,229.08 87.51,228 87.64,227.53 C89.56,224.06 91.4,221.54 94.61,219.14 L94.61,219.14 Z M70.25,217.74 C71.65,217.64 80.75,222.88 83.81,229.08 L82.14,229.08 C78.69,224.57 74.86,221.3 71.46,220.12 C70.63,219.25 69.73,217.78 70.25,217.74 L70.25,217.74 Z M94.89,216.16 L94.61,218.18 C93.58,219.02 89.84,222.13 87.06,227.01 C86.48,226.98 86.2,226.28 86.3,225.8 C88.52,221.4 91.18,218.97 94.89,216.16 L94.89,216.16 Z M67.83,214.82 C73.93,215.38 83.13,221.79 86.71,229.08 L84.65,229.08 C81.04,223.34 75.5,218.39 68.92,216.67 C68.66,216.46 67.69,215.08 67.83,214.82 L67.83,214.82 Z M88.35,208.66 C88.54,208.67 88.87,208.74 89.59,209.12 C90.64,209.66 93.02,209.48 93.8,209.19 C95.44,208.58 95.78,209.35 94.22,210.22 C92.49,211.27 90.1,210.86 88.7,209.5 C88.27,209.11 88.03,208.63 88.22,208.59 C88.24,208.58 88.32,208.65 88.35,208.66 L88.35,208.66 Z M67.01,208.55 C66.88,208.58 67.1,208.9 67.54,209.38 C70.63,212.87 78.02,214.76 82.17,211.17 C83.47,209.94 83.27,209.39 81.22,210.37 C78.95,211.12 75.73,211.21 72.94,210.8 C71.57,210.62 69.34,210.09 68.21,209.26 C67.5,208.73 67.12,208.53 67.01,208.55 L67.01,208.55 Z M95.11,207.25 C95.48,207.95 94.21,208.61 93.57,208.8 C92.2,209.19 90.13,209.01 88.97,208.3 C88.87,208.24 88.78,208.18 88.69,208.12 C87.74,207.41 88.13,206.9 89.19,207.45 C90.32,208.03 92.64,208.14 93.87,207.55 C94.48,207.25 94.91,206.88 95.11,207.25 L95.11,207.25 Z M70,206.68 C70.18,206.65 70.64,206.82 71.33,207.21 C73.59,208.3 75.91,208.46 78.38,207.91 C79.8,207.54 80.16,207.32 80.36,207.56 C80.7,207.98 80.16,208.39 78.16,209.07 C75.96,209.81 73.67,209.69 70.67,207.56 C69.87,206.99 69.76,206.71 70,206.68 L70,206.68 Z M63.05,205.57 C63.25,205.94 63.6,208.01 63.19,207.96 C62.79,207.86 62.61,207.23 62.54,206.67 C62.52,206.55 62.88,205.58 63.05,205.57 L63.05,205.57 Z M94.49,204.09 C95.12,204.33 95.27,204.86 95.19,205.14 C95.13,205.35 94.83,205.35 94.62,205.19 C94.42,204.95 94.12,204.56 94.14,204.29 C94.21,204.02 94.29,204.02 94.49,204.09 L94.49,204.09 Z M89.61,203.68 C89.78,203.67 89.91,203.7 89.97,203.78 C89.82,203.83 89.19,205.43 89.19,205.43 C88.6,205.36 87.89,205.44 87.76,204.95 C87.64,204.49 87.88,204.21 88.71,203.89 C88.97,203.8 89.33,203.7 89.61,203.68 L89.61,203.68 Z M72.92,203.56 C73.33,203.56 73.42,203.66 72.77,205.18 C72.63,205.5 70.97,205.03 71.28,204.4 C71.76,203.91 72.51,203.56 72.92,203.56 L72.92,203.56 Z M77.95,203.49 C78.32,203.47 78.95,203.77 79.42,204.25 C79.9,204.73 79.95,205.02 79.56,205.38 C79.33,205.6 78.5,205.81 78.34,205.44 L77.64,203.8 C77.58,203.64 77.78,203.5 77.95,203.49 L77.95,203.49 Z M91.91,203.31 C92.56,203.29 93.18,203.63 93.5,204.33 C93.73,204.81 93.75,205.22 93.66,205.44 C93.6,205.6 93.38,205.53 93.38,205.53 C92.33,202.66 90.91,203.99 90.4,205.57 C90.4,205.57 89.86,205.74 89.79,205.57 C89.73,205.4 89.77,205.07 89.98,204.63 C90.39,203.77 91.17,203.32 91.91,203.31 L91.91,203.31 Z M75.35,203.09 C75.9,203.08 76.65,203.33 77.24,203.87 C77.56,204.16 78.12,205.42 77.89,205.91 C77.83,206.16 77.15,206.15 77.09,205.96 C76.72,203.42 74.66,203.05 74.01,205.43 C74.01,205.43 73.59,205.79 73.53,205.09 C73.68,203.74 74.31,203.1 75.35,203.09 L75.35,203.09 Z M62.09,200.68 C62.74,200.66 62.77,204.52 62.05,205.69 C61.69,206.13 60.84,205.31 60.97,204.46 C61.06,203.82 61.75,200.92 61.91,200.77 C61.98,200.71 62.04,200.68 62.09,200.68 L62.09,200.68 Z M75.68,198.93 C75.66,198.93 75.65,198.93 75.63,198.94 C75.63,198.93 75.63,198.95 75.62,198.95 C75.59,198.98 77.05,200.58 77.45,201.03 C77.65,201.2 79.41,203.35 78.32,202.86 C75.55,201.71 72.32,202.27 70.33,204.2 C70.08,204.44 69.87,204.2 69.12,204.14 C67.57,204.02 67,204.64 67.95,205.41 C68.09,205.52 68.39,205.58 68.53,205.76 C68.65,205.94 68.61,206.25 68.68,206.33 C71.67,210.32 77.21,211.09 80.69,208.49 C81.13,208.16 81.38,208.05 81.79,208.17 C82.59,208.41 82.67,207.73 81.95,206.78 C81.64,206.37 81.25,205.89 81.48,205.75 C81.92,205.37 82.14,204.74 81.37,204.51 C80.84,204.35 80.25,203.76 79.95,202.93 C79.6,201.97 76.19,199 75.68,198.93 L75.68,198.93 Z M60.99,196.6 C61.13,196.61 61.29,196.91 61.5,197.51 C61.8,198.34 61.66,199.93 61.26,201.14 C61.03,201.85 60.81,202.61 60.41,203.24 C60.28,203.6 59.59,203.47 59.4,202.68 C59.28,202.19 59.7,201.57 59.9,200.77 C60.1,199.97 60.33,198.96 60.44,198.45 C60.65,197.2 60.8,196.59 60.99,196.6 L60.99,196.6 Z M59.1,191.49 C59.28,191.45 59.57,192.01 59.99,193.18 C60.53,194.69 59.58,199.96 59.02,200.82 C58.72,201.28 58.52,201.55 57.91,200.71 C57.66,200.35 57.85,200.23 58.1,199.19 C58.47,197.62 58.78,195.07 58.8,193.88 C58.8,192.34 58.89,191.54 59.1,191.49 L59.1,191.49 Z M79.05,188.96 C79.45,189.53 79.35,189.98 79.35,190.73 C79.34,191.8 79.42,191.88 80.16,191.34 C80.81,190.86 80.86,190.83 82.02,191.62 C82.71,192.09 83.58,192.15 84.14,191.63 C84.54,191.26 84.67,191.43 85.21,191.57 C85.78,191.89 85.95,191.94 87.19,191.33 C88.02,190.96 88.06,190.91 88.56,191.17 C89.43,191.95 89.56,191.67 89.44,190.65 C89.44,190.3 89.55,189.64 89.65,189.21 C90.09,187.41 89.38,187.39 88.45,188.54 C88.09,188.98 87.28,189.17 86.52,188.81 C85.43,188.3 83.73,188.51 82.47,188.72 C80.98,188.97 80.29,188.56 79.7,188.05 C79.36,187.76 78.58,187.5 78.5,187.72 C78.41,187.94 78.59,188.29 79.05,188.96 L79.05,188.96 Z M57.36,187.87 C58.2,189.24 58.09,189.06 58.08,193.53 C58.07,196.31 57.72,198.08 57.25,198.76 C57.01,199.12 56.58,198.91 56.37,198.21 C56.27,197.89 56.55,197.41 56.6,196.91 C56.93,193.56 56.7,190.22 56.71,187.05 C56.96,187.03 57.22,187.65 57.36,187.87 L57.36,187.87 Z M59.19,186.62 C59.19,186.67 59.5,187.22 59.81,187.77 C61.64,191.31 62.66,192.61 62.33,193.17 C62.06,193.51 61.65,193.93 61.41,193.83 C61.01,193.67 60.49,192.51 59.18,189.88 C57.83,187.16 57.68,186.96 58.38,186.6 C58.67,186.47 59.01,186.37 59.19,186.62 L59.19,186.62 Z M83.86,186.35 C83.37,186.49 81.43,187.11 82.62,187.22 C82.86,187.24 83.47,187.09 83.9,187.06 C85.1,186.97 87.61,187.2 87.52,186.97 C87.29,186.1 84.51,186.18 83.86,186.35 L83.86,186.35 Z M60.87,185.54 C61.27,185.53 61.38,186.2 62.15,187.71 C63.43,190.56 63.92,190.95 63.63,191.26 C63.27,191.71 63.06,192.03 62.71,191.48 C61.94,190.21 61.17,188.6 60.45,187.18 C59.87,186.12 59.81,185.99 60.19,185.73 C60.4,185.58 60.72,185.54 60.87,185.54 L60.87,185.54 Z M63.03,184.8 C63.63,185.33 65.07,188.18 65.11,188.98 C65.09,189.21 65.03,189.41 64.89,189.56 C63.99,190.53 64.22,190.38 62.87,187.59 C61.74,185.31 61.44,185.08 62.19,184.82 C62.35,184.77 62.77,184.69 63.03,184.8 L63.03,184.8 Z M65.21,184.35 C65.75,185.07 66.71,186.95 66.66,187.64 C66.52,187.88 66.3,188.09 66.07,188.23 C65.89,188.28 65.73,187.95 65.11,186.85 C64.03,184.94 63.71,184.4 64.27,184.17 C64.57,184.14 65.01,184.15 65.21,184.35 L65.21,184.35 Z M91.86,183.6 C92.86,183.68 93.85,184.14 94.83,184.38 L93.34,185.82 C92.9,185.08 92.4,184.34 91.86,183.6 L91.86,183.6 Z M67.43,183.46 C68.03,183.86 68.62,184.93 68.69,185.69 C68.65,185.9 68.46,186.08 68.06,186.41 C67.66,186.78 67.54,186.75 67.09,186.05 C66.39,184.95 66.06,184.23 66.2,183.85 C66.55,183.49 67,183.34 67.43,183.46 L67.43,183.46 Z M69.5,182.83 C69.68,182.82 69.82,182.83 69.94,182.98 C70.5,183.7 70.72,184.13 70.22,184.52 C69.55,185.08 68.93,184.94 68.56,183.87 C68.32,183.11 68.89,182.87 69.5,182.83 L69.5,182.83 Z M53.85,182.85 C54.37,183.21 55,184.21 55.62,185.11 C55.96,185.61 55.76,186.45 55.82,187.27 C55.89,188.43 56.02,190.34 56.1,191.52 C56.26,193.82 56.05,195.74 55.71,196.43 C55.37,197.26 54.68,196.69 54.51,195.56 C54.46,195.28 54.69,192.47 54.69,190.92 C54.69,188.26 54.01,184.97 53.85,182.85 L53.85,182.85 Z M71.3,183.44 C70.9,183.57 70.77,182.77 70.99,182.62 C71.46,182.58 71.63,182.6 72.11,182.63 C72.47,182.65 72.47,183.07 71.3,183.44 L71.3,183.44 Z M84.78,180.13 C88.45,180.71 91.38,183.23 93.06,187.37 C94.69,191.58 95.09,197.32 95.34,202.6 C95.32,203.86 94.8,203.54 93.44,202.76 C91.96,202.03 91.64,202.24 89.47,202.74 C88.12,203.05 88.24,202.13 90.47,200.59 C91.23,200.1 92.11,199.44 91.82,199.34 C91.67,199.29 90.99,199.47 90.5,199.87 C88.32,201.64 87.73,202.07 88.36,200.35 C88.52,199.91 89.02,198.7 89.23,198.13 C90.02,195.96 89.11,195.04 86.43,193.67 C85.75,193.32 85.31,192.75 85.98,193.95 C86.53,194.93 85.4,195.72 83.99,194.57 C83.02,193.78 81.06,194.31 80.42,195.3 C79.81,196.26 80.14,198.06 81.35,198.64 C82.41,199.1 82.81,198.77 81.78,198.05 C80.46,197.13 80.71,195.57 82.2,195.58 C82.57,195.58 83.22,195.99 84.86,196.89 C86.03,197.52 86.87,197.25 86.87,196.3 C86.87,195.67 87.23,195.72 88,196.1 C89.04,196.62 88.93,197.08 88.38,198.53 C88.01,199.53 87.83,200.68 87.49,201.73 C86.61,205.27 86.49,209.29 87.46,210.54 C90.04,213.87 92.78,213.51 95.12,211.31 L95.02,214.96 C92.63,216.88 89.84,218.19 85.53,225.33 C84.03,223.43 77.58,215.69 67.24,213.94 L64.92,210.74 C64.96,210.55 63.18,198.86 62.02,194.89 C62.02,194.89 63.3,192.94 64.46,191.5 C69.1,185.76 76.94,179.19 84.78,180.13 L84.78,180.13 Z M51.45,179.68 C51.79,179.72 52.61,180.9 52.99,181.98 C53.33,182.98 53.21,184.25 53.46,185.33 C54.02,189.02 53.99,192.72 53.84,193.84 C53.77,194.4 53.41,194.17 52.92,193.64 C52.21,192.87 52.31,192.85 52.32,190.71 C52.32,188.87 51.92,184.33 51.73,183.4 C51.38,181.7 51.24,180.07 51.32,179.79 C51.34,179.71 51.39,179.68 51.45,179.68 L51.45,179.68 Z M30.23,113.41 C30.93,110.96 30.49,109.59 31.66,106.57 L34.51,107.52 C34.51,107.52 34.63,110.48 34.06,112.13 C33.48,113.78 31.59,115.1 30.23,113.41 L30.23,113.41 Z M140.4,153.72 C140.76,153.48 141.05,153.45 141.41,153.41 C141.96,153.34 142.65,153.42 142.81,154 C142.96,154.56 141.88,154.9 141.01,154.91 C140.57,154.92 140.05,155 139.92,154.69 C139.79,154.4 140.22,153.86 140.4,153.72 L140.4,153.72 Z M140.99,151.23 C141,150.6 141.71,149.89 142.42,149.97 C143.38,150.04 143.5,151.19 142.65,151.61 C142.4,151.81 141.6,151.51 141.56,151.74 C141.62,152.13 141.22,151.96 141.15,151.82 C141.02,151.66 140.99,151.42 140.99,151.23 L140.99,151.23 Z M142.72,164.34 C146.36,166.68 145.07,171.01 144.3,171.54 C149.32,177.92 141.51,181.18 139.03,178.89 C135.36,182.55 129.06,179.48 131.48,173.45 C131.48,173.45 126.88,164.61 135.97,165.2 C135.97,165.2 136.12,161.63 135.87,161.47 C132.62,161.25 128.21,164.38 126.96,165.25 C126.27,165.67 126.12,165.47 126.12,165.47 C125.94,163.62 125.94,162.77 126.69,161.73 C128,159.93 130.16,159.32 133.01,158.69 C136.53,159.78 139.88,161.49 143.14,161.22 C144.93,161.23 146.77,161.53 148.51,162.46 C149.69,163.02 150.3,165.11 150.3,165.11 C148.46,166.07 142.72,164.34 142.72,164.34 L142.72,164.34 Z M48.66,176.73 C48.79,176.74 49.07,176.99 49.54,177.43 C50.45,178.29 50.58,178.6 50.58,180.02 C50.61,182.11 51.3,184.49 51.41,186.59 C51.47,187.81 51.69,190.95 51.51,191.14 C51.24,191.5 50.07,190.17 50.16,188.13 C50.31,185.67 50.19,183.83 49.15,179.58 C48.66,177.62 48.42,176.78 48.63,176.73 L48.66,176.73 L48.66,176.73 Z M45.41,173.67 C46.05,173.98 46.71,174.7 47.09,175.34 C47.34,175.77 47.47,176.29 47.7,177.36 C48.44,180.7 49.83,184.08 49.2,187.65 C48.81,188.18 47.96,186.97 47.84,185.78 C47.44,181.84 47.09,179.95 45.71,175.31 C45.44,174.41 45.24,173.7 45.41,173.67 L45.41,173.67 Z M41.62,170.8 C41.76,170.9 43.78,172.33 43.99,172.53 C44.7,175.08 47.56,183.27 46.82,184.73 C46.57,184.53 45.47,183.21 45.32,182.53 C44.99,178.61 43.76,175.8 42.43,172.88 C42.06,172 41.76,171.13 41.62,170.8 L41.62,170.8 Z M40.64,170.27 C40.73,170.8 41.27,172.18 41.69,173.09 C42.79,175.47 44.49,179.19 44.15,180.25 C43.91,180.97 44.15,180.93 43.53,180.05 C43.22,179.62 42.27,178.28 42.04,177.98 C41.49,177.23 41.86,177.92 41.54,176.69 C40.79,173.24 39.56,171.42 38.76,169.41 C38.48,168.46 40.27,169.89 40.64,170.27 L40.64,170.27 Z M35.13,167.07 C35.85,167.04 37.64,168.31 37.86,169.26 C37.91,169.46 38.38,170.63 38.9,171.73 C38.91,171.93 40.67,175.13 39.9,174.85 C38.35,172.74 35.6,169.16 34.9,167.41 C34.9,167.18 34.93,167.07 35.13,167.07 L35.13,167.07 Z M26.03,156.22 L76.87,229.08 L35.79,229.08 C37.23,217.49 34.33,204.63 30.49,196.24 C34.67,195.53 38.65,194.42 42.64,193.32 L41.83,192.26 C37.07,194.17 32.68,194.87 28.55,195.34 C34.04,204.71 35.99,217.62 34.35,229.08 L26.52,229.08 L26.52,172.52 L26.03,156.22 L26.03,156.22 Z M145.07,155.55 C146.82,157.3 146.62,158.24 145.48,158.96 C144.71,159.44 143.47,159.56 143.06,159.16 C142.4,158.58 142.42,157.92 143.15,157.71 C143.83,157.56 143.57,157.29 142.94,157.13 C140.67,156.48 139.28,155.28 141.74,155.54 C142.45,155.61 143.13,155.06 143.5,154.62 C144.04,153.97 144.76,155.24 145.07,155.55 L145.07,155.55 Z M144.33,150.82 C144.51,150.82 144.76,150.94 145.14,151.14 C147.45,152.41 148.58,154.39 147.79,155.51 C147.28,156.25 146.45,155.97 145.81,154.93 C145.45,154.34 144.5,153.59 143.42,153.04 C142.18,152.41 142.16,152.32 143.05,151.89 C143.42,151.71 143.69,151.46 143.87,151.14 C144.08,150.78 144.1,150.81 144.33,150.82 L144.33,150.82 Z M145.81,147.76 C146.44,147.76 147.24,148.05 148.2,148.84 C149.33,149.79 149.59,152.09 148.55,152.49 C148.11,152.65 148.04,152.49 147.11,151.6 C146.48,151 145.8,150.46 145.13,150.14 C143.76,149.48 143.58,149.24 144.51,148.79 C144.7,148.69 144.96,148.45 145.07,148.27 C145.31,147.88 145.38,147.76 145.81,147.76 L145.81,147.76 Z M143.54,147.3 C144.32,147.4 144.3,148.06 143.61,148.69 C142.95,149.19 142.51,149.28 142.14,148.91 C141.49,148.26 142.32,147.3 143.54,147.3 L143.54,147.3 Z M123.54,158.13 C118.78,155.43 112.91,150.54 109.55,144.99 C107.88,148.14 105.92,153.86 105.92,153.86 L98.46,151.76 L98.37,151.92 L105.75,154.05 L105.03,156.52 C104.95,156.79 103.81,159.6 103.81,159.6 L115.33,165 C114.62,166.12 113.84,166.84 112.85,167.89 C112.29,168.48 112.27,169.24 112.27,169.24 L128.25,153.95 C128.25,153.95 130.31,157.02 131.08,157.71 C131.79,158.37 132.02,158.52 131.18,158.72 C127.43,159.27 124.51,162.12 125.53,165.95 C125.69,166.38 126.02,166.22 126.73,165.77 C129.23,163.5 135.32,161.41 135.53,161.94 L135.55,164.38 C128.99,164.47 129.66,169.31 130.14,171.91 C130.14,171.96 128.25,173.63 128.25,173.63 C128.92,173.98 129.58,174.34 130.19,174.78 C129.62,178.01 132.36,182.68 137.74,180.29 C138.21,180.77 138.65,181.25 139.16,181.85 C139.71,181.21 140.34,179.7 140.34,179.7 C143.02,180.92 148.57,178.2 145.73,171.97 L147.29,170.48 L145.79,169.53 C145.75,167.94 145.51,166.53 144.56,165.15 C144.56,165.15 147.09,165.79 148.96,165.9 C150.11,166.01 151.08,166.04 150.99,165.34 C150.96,165.13 150.79,164.13 150.67,163.79 C150.12,162.16 147.23,160.97 144.42,160.81 C143.96,160.78 143.47,160.8 143.37,160.68 C143.19,160.45 143.52,160.14 143.82,160.19 C145.35,160.46 146.83,159.32 147.1,157.87 C147.15,157.61 147.47,157.15 147.92,156.65 C148.72,155.77 148.78,155.8 148.76,154.53 C148.75,153.64 148.91,153.45 149.31,152.86 C149.83,152.02 150.08,150.92 149.81,149.78 C149.73,149.42 149.39,148.91 149.68,148.01 C150.15,146.55 149.12,145.22 147.76,144.46 C147.65,144.42 147.68,144.53 147.59,144.64 C146.36,145.02 144.86,144.14 144.86,144.14 C144.55,143.99 145.91,136.06 148.72,136.77 C149.19,137.06 149.39,138.43 149.36,138.46 C149.49,138.45 149.55,137.65 149.37,137.11 C149.18,136.54 148.75,136 147.91,136.16 C147.25,136.29 146.5,137.15 146.16,137.59 C144.85,139.27 144.83,140.34 144.39,142.13 C144.18,142.98 144.16,142.93 142.99,142.02 C142.16,141.36 141.75,141.15 142.04,140.76 C142.17,140.59 142.72,140.04 142.72,140.04 L153.38,130.21 L153.38,229.08 L95.29,229.08 L95.69,216.08 C96.78,207.18 94.87,188.48 93.43,186.72 C94.54,185.47 97.99,182.45 97.8,182.32 L97.34,182.04 L95.52,183.73 L91.02,182.36 C89.11,181.03 87.15,179.8 85.12,179.28 C81.8,178.42 75.42,181.14 75.41,181.17 C65.21,181.93 57.04,186.09 57.15,186.06 C56.71,185.65 56.12,184.34 56.1,184.35 C50.84,177 45.67,172.89 38.61,167.87 L47.56,162.91 L26.36,140.67 L26.17,122.62 L56.88,93.14 C57.06,92.63 66.68,99.96 70.26,105.92 C70.95,103.01 72.23,100.36 73.29,97.5 C73.4,97.24 79.4,99.73 81.18,99.83 C81.45,99.85 81.66,99.57 81.66,99.57 L73.75,96.98 L75.36,92.33 C75.36,92.33 75.93,91.06 75.29,90.85 C71.68,89.68 68.3,87.62 64.84,85.86 C64.84,85.86 66.46,84.06 66.48,83.98 C66.5,83.9 67.16,82.94 67,82.61 C65.25,84.32 50.92,97.65 50.92,97.65 C50.51,95.36 49.87,94.56 48.47,93.15 C49.23,93.12 50.42,92.36 51.11,91.86 C53.21,90.32 54.35,87.58 54.08,85.98 C52.06,86.63 50.24,87.38 47.72,87.84 C46.3,88.1 44.95,88.74 44.13,89.43 L44.01,86.88 C44.02,86.91 47.41,87.48 48.98,85.19 C50.33,83.22 49.78,80.97 49.47,79.82 C49.5,79.56 49.42,79.59 50.01,79.05 C50.44,78.65 51.11,78.14 51.11,78.14 C51.14,77.99 49.36,77.33 49.06,76.73 C49.53,71.99 45.77,70.17 42.58,71.01 C41.98,71.19 41.69,71.3 40.99,70.51 C40.88,70.39 40.03,69.49 40.03,69.49 C40.03,69.49 39.65,70.36 39.46,70.74 C38.84,71.97 38.66,71.6 37.32,71.67 C33.9,71.84 32.38,74.6 33.16,78 C33.34,78.8 33.26,78.68 32.74,79.69 C32.47,80.2 32.04,80.86 32.04,80.86 C32.04,80.86 32.66,81.21 33.09,81.4 C33.71,81.68 33.74,82.01 33.74,82.63 C33.83,84.01 34.13,84.93 34.92,86.12 C32.24,86.18 30.19,85.93 27.77,85.12 C28.14,88.86 30.89,90.26 34.25,90.8 C34.25,90.8 33.9,91.13 33.53,91.28 C32.74,91.51 32.25,92.21 32.25,92.83 C32.14,93.42 31.76,94.02 31.41,94.33 C30.88,94.79 30.45,95.43 30.66,96.67 C30.6,97.57 30.39,97.83 30.13,98.17 C29.6,98.86 29.42,99.54 29.55,100.45 C29.61,100.87 29.74,101.77 29.65,102.71 C29.51,104.26 30.06,104.84 30.77,105.94 C31.23,106.65 31.13,106.67 31.02,107.18 C30.77,108.42 30.51,109.05 30.23,109.99 C29.62,112.09 29.6,113.69 30.1,114.1 C30.85,114.72 31.71,114.53 32.1,114.41 C35.08,113.48 34.56,110.55 34.72,108.58 C34.81,108.08 34.98,107.83 35.15,107.86 C35.99,108.84 36.88,109.42 38.02,110.04 C34.06,114.09 31.53,116.56 26.52,120.98 L26.52,22.31 L83.73,22.31 C83.73,22.31 83.79,23.14 83.65,26.71 C83.4,33.96 83.1,41.55 83.57,48.94 C83.65,51.5 83.6,54.02 83.97,56.55 C84.32,59.02 84.48,61.67 85.63,63.97 C86.09,65.21 86.11,65.12 84.35,66.75 C83.49,67.55 82.75,68.4 82.79,68.55 C82.8,68.6 82.75,68.79 82.88,68.68 C82.97,68.61 83.6,67.98 83.67,67.89 C84.15,67.33 84.95,68.05 87.67,68.82 C88.2,68.97 88.95,69.48 89.52,69.9 C93.59,73.33 99.3,72.26 103.57,70.39 C104.79,69.85 105.08,69.8 107.03,69.57 C114.25,68.71 121.96,65.54 121.94,65.55 L122.89,67.1 C122.89,67.1 123.24,67.04 123.49,67.43 C127.64,75.29 141.19,84.29 140.95,83.87 L132.1,88.79 C138.54,96.79 153.38,110.36 153.38,110.36 L153.38,129.86 C149.42,133.04 145.51,136.68 142.03,140.24 C141.03,141.23 140.32,141.8 140.7,141.82 C141.61,141.68 142.39,142.57 143.12,143.19 C143.59,143.72 143.47,143.67 142.94,144.38 C142.56,144.88 142.42,145.03 142.42,145.39 C142.43,146.09 142.43,146.56 141.81,147.08 C141.42,147.57 141.2,147.88 141.13,148.45 C141.06,149.03 141.07,149.39 140.67,149.9 C140.01,150.05 139.94,151.02 140.06,151.46 C140.76,152.15 140.44,152.9 140.51,152.75 C139.17,154.2 137.77,155.46 138.67,153.43 C139.07,152.67 139.21,152.04 139.21,152.04 C139.21,152.04 138.57,152.71 138.23,153.03 C137.72,153.51 137.53,153.22 137.51,151.74 C137.45,150.62 136.97,149.05 136.79,148.75 C136.68,148.58 136.67,148.87 136.71,149.96 C136.78,151.38 136.95,151.79 136.45,153.21 C135.78,155.13 135.29,155.4 136.39,155.33 C137.43,155.27 138.3,155.26 138.76,155.88 C138.91,156.09 139.11,156.45 139.53,156.66 C140.38,157.13 141.06,157.65 141.53,158.17 C143.07,159.84 142.63,161.33 139.66,160.32 C138.1,159.79 139.12,159.11 140.8,159.27 C141.83,159.37 142,158.98 141.11,158.71 C139.45,158.4 139.19,158.21 138.09,159.52 C133.49,159.06 130.91,156.48 129.67,154.38 C129.16,153.5 129,153.34 129.36,152.84 C129.5,152.64 129.41,152.7 129.17,152.97 C128.92,153.25 128.26,153.47 128.04,153.67 C126.49,155.21 124.93,156.88 123.54,158.13 L123.54,158.13 Z M144.72,144.81 C145.3,144.86 145.83,145.03 146.37,145.11 C148.35,145.36 149.64,146.81 148.75,147.69 C148.46,147.98 148.06,147.82 146.77,147.18 C146.18,146.89 146.08,146.62 145.96,145.97 C145.82,145.18 145.66,145.1 145.46,145.71 C145.26,146.33 145.04,146.71 144.37,146.55 C142.47,146.11 143.19,144.8 144.72,144.81 L144.72,144.81 Z M64.65,114.57 C64.07,115.33 63.02,115.72 62.67,116.7 C68.57,132.34 60.95,147.4 48.05,153.75 C48.04,154.54 47.47,156.49 48.84,156.18 C64.78,148.93 71.72,129.66 64.75,114.5 C64.75,114.5 64.66,114.56 64.65,114.57 L64.65,114.57 Z M65.91,112.78 L65.8,113.42 C73.15,128.31 67.32,148.97 49.78,157.36 C49.61,158.26 49.78,157.99 50.6,157.95 C70.9,147.02 72.81,126.24 66.46,112.75 L65.91,112.78 L65.91,112.78 Z M67.39,111.54 L67.25,112.14 C76.13,129.64 67.65,151.07 51.15,159.01 C51.42,159.21 51.72,159.35 52.02,159.49 C70.75,149.37 76.15,127.95 67.98,111.36 L67.39,111.54 L67.39,111.54 Z M70.93,108.53 C73.73,111.07 83.91,137.67 62.69,157.05 L58.19,158.41 C78.56,142.35 75.17,119.56 69.67,109.73 C69.67,109.44 69.6,109.48 69.09,109.94 C68.64,110.34 68.6,110.43 68.78,110.5 C74.99,120.1 77.31,147.19 52.84,160.27 C52.43,160.7 53.26,160.63 53.26,160.63 C53.3,160.28 64.28,157.6 63.5,157.54 C73.73,148.46 82.64,126.81 71.55,107.94 C71.28,107.77 70.93,108.53 70.93,108.53 L70.93,108.53 Z M34.55,104.53 C35.51,104.57 36.6,104.6 36.48,105.06 C36.4,105.39 36.06,106.28 35.62,106.11 C35.4,106.03 35.19,105.82 35.05,105.68 C34.53,105.18 34.4,104.52 34.55,104.53 L34.55,104.53 Z M30.9,102.85 C31.56,103.04 33.17,104.21 33.88,104.35 C33.92,104.74 33.44,104.84 34.11,105.58 C34.42,105.92 34.44,106.15 34.18,106.29 C33.37,106.72 30.57,105.35 30.39,103.95 C30.3,103.26 30.52,102.87 30.9,102.85 L30.9,102.85 Z M36.96,101.86 C37.94,101.86 38.22,102.69 37.5,103.4 C36.83,104.07 35.47,104.08 35.47,103.34 C35.47,102.77 36.34,101.86 36.96,101.86 L36.96,101.86 Z M37.75,98.74 C38.28,98.72 38.59,99.2 38.58,99.96 C38.58,100.5 38.29,100.71 37.68,100.94 C36.38,101.43 35.59,100.5 36.49,99.47 C36.87,99.04 37.39,98.75 37.75,98.74 L37.75,98.74 Z M31.29,98.38 C31.34,98.38 31.41,98.38 31.47,98.4 C31.76,98.47 32.11,99.02 32.49,99.4 C33.54,100.46 34.02,100.93 34.86,101.3 C35.68,101.67 35.71,101.76 35.13,102.4 C34.92,102.64 34.79,102.92 34.74,103.08 C34.69,103.23 34.68,103.43 34.5,103.47 C33.58,103.64 30.54,101.79 30.41,100.5 C30.51,99.31 30.81,98.42 31.29,98.38 L31.29,98.38 Z M32.46,94.94 C32.73,94.92 33.02,95.31 34.08,96.45 C34.8,97.22 35.54,97.88 35.94,98.11 C36.83,98.54 36.63,98.36 35.89,99.07 C35.13,99.94 35.55,100.66 34.64,100.22 C32.29,99.11 30.63,95.84 32.17,95.05 C32.28,94.99 32.37,94.95 32.46,94.94 L32.46,94.94 Z M119.92,93.47 C104.77,105.78 102.11,125.67 109.67,141.03 L108.36,142.06 C98.87,124.05 105.24,104.62 116.91,93.99 L119.92,93.47 L119.92,93.47 Z M43.16,91.74 C43.74,91.95 44.46,92.23 45.25,92.56 C46.35,92.91 47.46,93.48 48.18,93.96 C50.36,95.42 50.23,98.34 50.07,98.63 L38.79,109.36 C38.79,109.36 38.16,109.05 37.56,108.74 C35.66,107.77 35.2,107.26 36.26,106.72 C36.77,106.46 36.93,105.9 37,105.35 C37.1,104.62 37.06,104.74 37.5,104.41 C38.26,103.82 38.3,103.58 38.3,102.61 C38.3,101.97 38.37,101.68 38.6,101.28 C38.79,100.96 38.98,100.29 39.11,99.52 C39.13,99.4 39.14,99.08 39.17,98.97 C39.3,98.37 39.49,98.2 39.62,98.06 C39.74,97.92 39.94,97.46 40.08,97.06 C40.4,96.17 40.34,96.3 40.85,96.4 C41.59,96.54 41.48,96.97 41.4,97.66 C41.36,97.99 41.14,98.23 41.21,98.15 C41.32,98.05 41.77,97.84 41.86,97.82 C42.1,97.76 42.33,97.84 42.39,98.21 C42.43,98.42 42.34,98.8 42.34,99.1 C42.36,99.86 42.39,100.77 42.56,101.38 C43.4,104.28 43.24,103.88 42.95,101.46 C42.88,100.88 42.8,100.04 42.88,99.33 C42.94,98.83 43.08,98.21 43.28,97.88 C43.77,97.01 43.8,96.84 42.73,96.41 C42.33,96.26 41.65,95.98 41.51,95.7 C41.34,95.36 40.83,94.9 40.16,94.75 C38.54,94.36 37.6,92.79 37.83,92.56 C37.98,92.41 38.64,92.61 39.05,92.62 C40.53,92.67 40.84,92.6 41.5,92.03 C41.85,91.73 42,91.46 42.28,91.45 C42.57,91.44 42.95,91.66 43.16,91.74 L43.16,91.74 Z M36.51,91.4 C36.51,91.4 36.39,92.4 36.74,92.75 C36.9,93.46 36.65,93.38 36.04,93.24 C34.55,92.88 35.71,93.73 36.93,94.42 C38.13,95.09 37.97,95.07 36.92,95.74 C36.22,96.18 36.29,96.35 36.39,96.69 C36.53,97.2 36.62,96.86 36.92,96.59 C37.53,96.03 38.02,95.89 38.56,95.89 C39.38,95.89 39.46,96.55 39.32,97.06 C38.99,98.14 37.89,98.08 36.98,97.81 C35.5,97.37 33.09,94.8 33.13,93.28 C33.02,91.92 34.88,91.34 36.51,91.4 L36.51,91.4 Z M127.68,91.23 C109.77,99.72 102.44,122.31 111.48,139.62 L110.24,140.52 C101.37,122.22 107.97,102.61 122.37,92.7 C122.96,92.29 124.25,91.97 124.85,91.57 C124.85,91.57 118.97,92.91 116.98,93.69 C116.58,93.68 115.39,94.1 114.12,95.49 C113.01,96.52 109.53,101.34 109.64,101.5 L100.39,101.88 L100.4,102.22 L109.47,102.01 C100.13,117.46 102.42,132.16 108.19,142.44 L108.34,142.54 C108.67,142.77 109.55,142.12 111.39,140.38 C112.14,139.66 113.09,138.77 113.5,138.4 C114.63,137.35 116.24,135.56 117.35,134.26 C111.07,121.4 117.27,104.47 131.97,96.84 C132,96.43 131.82,95.19 131.82,95.19 C131.82,95.19 131.26,94.69 130.93,94.74 C114.55,101.98 107.98,119.98 114.64,136.34 L113.54,137.54 C105.17,120.59 114.16,99.42 129.83,93.42 C129.82,93.04 129.48,92.55 129.06,92.84 C112.14,100.72 104.77,120.85 113.06,138.01 L112.02,138.94 C102.59,120.15 112.52,99.1 128.09,91.91 C128.55,91.8 127.68,91.23 127.68,91.23 L127.68,91.23 Z M39.29,90.77 C40.57,90.96 40.93,91.07 40.91,91.57 C41.02,91.99 37.82,92.05 37.38,91.74 C37.04,91.48 37.48,90.93 37.83,90.8 C38.32,90.65 38.81,90.7 39.29,90.77 L39.29,90.77 Z M139.22,76.01 C139.41,76 139.82,76.49 140.65,77.65 C143.1,81.09 145.23,84.3 145.19,84.48 C145.09,85.07 142.53,84.03 141.89,83.18 C141.15,82.21 139.08,77.23 139.09,76.44 C139.09,76.17 139.12,76.02 139.22,76.01 L139.22,76.01 Z M47.93,78.48 C50.67,83.56 49.66,85.81 43.75,86.51 C43.32,86.45 43.72,89.11 43.71,90.3 C46.67,88.6 50.25,88.2 53.55,87.13 C52.65,90.02 51.08,93.29 46.3,92.79 C41.31,88.92 35.43,91.24 31.45,89.67 C29.28,88.86 28.45,86.44 28.42,86.03 C31.03,86.29 33.96,86.85 36.48,86.67 C33.73,84.54 34.53,81.59 34.92,80.25 C31.7,76.17 34.39,71.58 39.07,72.65 C39.55,72.76 40.5,73.23 40.5,73.23 C45.02,69.18 50.25,72.99 47.93,78.48 L47.93,78.48 Z M135.52,70.74 C135.68,70.76 136.13,71.4 136.97,72.58 C137.78,73.72 137.6,73.54 138.09,75.41 C138.77,78.01 139.9,79.88 140.57,82.26 C140.57,82.53 140.24,82.5 139.92,82.37 C139.31,82.11 138.76,81.68 138.25,81.25 C137.89,80.87 137.89,80.38 136.85,76.76 C136.47,75.46 136.37,75.12 135.9,73.13 C135.5,71.48 135.33,70.71 135.52,70.74 L135.52,70.74 Z M108.34,67.75 C108.9,67.73 108.83,68.61 108.67,68.75 C108.25,69.11 107.1,69 106.91,69.02 C106.47,68.33 107.96,67.77 108.34,67.75 L108.34,67.75 Z M132.62,66.62 C132.79,66.63 133.08,66.92 133.51,67.53 C134.32,68.7 134.21,68.61 134.79,71.38 C135.45,74.53 136.23,76.77 137.03,79.99 C137.04,80.52 136.83,80.38 136.24,80.02 C135.27,79.43 134.96,78.77 134.65,77.07 C134.13,74.25 133.04,71.64 132.62,68.32 C132.4,67.22 132.38,66.61 132.62,66.62 L132.62,66.62 Z M110.9,68.2 C110.79,68.48 110,68.55 109.67,68.53 C109.38,67.92 109.31,67.64 109.23,67.24 C109.34,67 109.88,66.38 110.14,66.5 C110.3,66.65 110.82,67.9 110.9,68.2 L110.9,68.2 Z M85.86,65.96 C86.32,65.96 87.54,67.59 87.29,67.89 C87.22,68.04 86.77,67.9 85.71,67.6 C85.35,67.47 84.55,67.37 84.8,66.85 C84.93,66.61 85.67,65.95 85.86,65.96 L85.86,65.96 Z M112.02,65.27 C113.06,66.89 113.38,67.54 113.2,67.67 C113.03,67.83 112.2,68.15 111.86,67.98 C111.44,67.77 111.07,66.77 110.88,65.98 C111.01,65.6 111.7,64.92 112.02,65.27 L112.02,65.27 Z M97.92,63.83 C97.79,63.83 97.4,64.13 97,64.29 C96.04,64.67 94.32,64.7 93.27,64.38 C91.42,63.64 91.94,64.61 93.58,65.2 C94.86,65.63 97.38,65.29 97.77,64.5 C98.01,64.24 98.09,63.83 97.92,63.83 L97.92,63.83 Z M114.21,64.49 C115.38,67.23 115.48,67.22 114.74,67.44 C113.96,67.67 113.92,67.59 113,65.73 C112.33,64.36 112.2,64.19 112.76,63.7 C113.62,62.69 113.84,63.66 114.21,64.49 L114.21,64.49 Z M130.16,63.1 C130.24,63.1 130.35,63.18 130.5,63.37 C131.12,64.1 131.54,64.66 131.7,65.21 C131.82,65.6 131.72,65.9 131.76,66.62 C131.88,68.49 132.37,71.06 133.76,76.3 C133.89,76.81 134.08,77.42 134.05,77.58 C133.92,78.54 132.51,76.98 132.1,75.37 C131.63,73.54 130.76,71.21 130.51,69.04 C129.98,65.61 129.69,63.1 130.16,63.1 L130.16,63.1 Z M115.45,61.78 C116.05,62.93 116.8,64.91 117.3,66.1 C117.53,66.62 116.36,67.03 116.09,66.85 C115.62,66.5 115.39,65.51 115.09,64.92 C114.11,62.77 113.93,62.72 114.47,62.05 C114.81,61.58 115.21,61.01 115.45,61.78 L115.45,61.78 Z M127.83,59.75 C127.97,59.73 128.28,60.03 128.51,60.34 C129.21,61.28 129.25,61.4 129.28,62.42 C129.36,66.1 129.82,70.44 130.85,73.79 C131.06,74.44 131.44,75.24 131.4,75.35 C131.05,75.86 129.45,74.5 128.96,72.43 C128.29,69.81 127.9,67.07 127.69,65.29 C127.42,62.15 127.42,59.91 127.83,59.75 L127.83,59.75 Z M116.75,59.9 C117.27,61.12 119.33,65.22 119.27,65.68 C118.87,66.04 118.33,66.3 118.01,65.98 C116.98,64.09 116.67,63.07 115.83,60.95 C115.58,60.45 116.33,59.15 116.75,59.9 L116.75,59.9 Z M95.21,59.63 C94.79,60.13 94.29,59.92 93.28,59.47 C92.76,59.31 92.84,59.53 91.98,59.98 C91.31,60.32 91.08,60.33 90.63,60.33 C90.05,60.32 89.84,60.12 89.84,60.53 C89.84,60.76 89.8,61.79 89.67,62.32 C89.48,63.04 89.32,63.36 89.42,63.49 C89.71,63.76 89.96,63.59 90.59,62.99 C91.63,61.98 92.32,62.27 93.48,62.64 C94.79,63.07 95.06,63.22 96.27,62.8 C97.97,62.21 98.99,62.21 99.67,62.64 C100.84,63.38 101.19,63.34 100.71,61.3 C100.55,60.64 100.54,59.62 100.45,59.45 C100.34,59.25 100.04,59.82 99.73,60.03 C99.14,60.43 98.83,60.42 97.49,59.98 C96.7,59.72 95.81,58.87 95.21,59.63 L95.21,59.63 Z M121.49,64.82 C121.49,64.82 120.09,65.54 119.73,65.29 C119.14,63.67 117.01,59.35 116.97,58.59 C117.01,58.34 117.84,57.2 117.84,57.2 C119.02,59.76 120.08,62.38 121.49,64.82 L121.49,64.82 Z M125.85,56.89 C126.05,56.89 126.3,57.12 126.63,57.57 C126.92,57.98 127.06,58.31 127.07,58.82 C127.08,59.19 126.9,59.48 126.89,60.14 C126.86,64.09 127.39,67.81 128.06,71.4 C128.29,72.68 127.84,72.16 127.08,71.34 C126.38,70.6 126.37,70.32 126,69.26 C125.92,69.05 125.18,61.78 125.19,61.23 C125.22,58.97 125.28,57.71 125.54,57.17 C125.63,56.99 125.72,56.9 125.85,56.89 L125.85,56.89 Z M123.96,54.01 L125.16,55.46 C125.16,55.46 124.65,58.8 124.65,60.58 C124.57,61.25 125.25,68.5 125.47,69.08 C124.73,68.25 124.39,67.77 123.58,66.73 C123.49,66.74 122.79,59.58 123.27,56.84 C123.57,55.19 123.96,54.01 123.96,54.01 L123.96,54.01 Z M122.83,52.2 C123.04,52.49 123.17,52.72 123.24,52.97 C123.35,53.41 123.25,53.94 123,55.06 C122.31,58.04 122.41,61.25 122.86,64.54 C122.95,65.24 122.47,64.89 121.75,63.7 C121.34,63.03 121.09,62.13 120.96,61.06 C120.71,58.71 121.2,55.54 121.61,53.04 C121.8,51.93 121.92,50.95 122.83,52.2 L122.83,52.2 Z M120.72,49.48 C121.05,49.67 121.5,50.11 121.58,50.8 C121.63,51.2 121.43,51.73 121.3,52.25 C121,53.5 120.59,55.86 120.45,58.04 C120.39,58.97 120.39,59.8 120.35,59.88 C119.9,60.77 118.95,58.39 119.03,56.5 C119.33,54.98 119.49,49.69 120.72,49.48 L120.72,49.48 Z M119.19,47.51 C119.62,47.51 120.05,48.19 120.19,48.7 C118.7,50.62 118.94,54.22 118.59,55.3 C118.29,56.19 118.19,55.42 117.36,53.14 C117.03,52.21 118.71,47.62 119.11,47.52 C119.13,47.51 119.16,47.51 119.19,47.51 L119.19,47.51 Z M84.59,46.43 C84.72,46.43 84.87,46.48 85.03,46.6 C85.2,47.1 85.48,47.49 85.7,48 C85.47,48.23 84.93,48.23 84.59,47.95 C83.9,47.4 84.02,46.44 84.59,46.43 L84.59,46.43 Z M91.47,46.09 C92.57,46.16 92.67,47.1 91.7,47.41 C90.26,48.05 89.77,48.01 90.33,47.06 C90.63,46.4 90.9,46.11 91.47,46.09 L91.47,46.09 Z M107.21,45.93 C107.33,45.92 107.48,45.96 107.7,46.04 C109.19,46.52 109.23,46.75 107.96,47.21 C106.44,47.75 106.35,47.83 106.7,46.77 C106.9,46.17 106.96,45.94 107.21,45.93 L107.21,45.93 Z M89.54,45.54 C89.94,45.5 90.09,45.55 90.13,45.93 C90.27,47.08 89.12,48.33 87.64,48.4 C86.2,48.56 85.42,47.44 85.46,46.34 C85.46,45.51 86.18,45.41 86.26,46.07 C86.49,47.96 88.1,48.07 88.84,47.02 C89.12,46.61 89.05,45.6 89.54,45.54 L89.54,45.54 Z M100.46,45.54 L100.54,45.54 C100.8,45.56 101,45.63 101.1,45.95 L101.67,47.72 C101.25,48.23 99.64,47.2 99.65,46.43 C99.65,45.89 100.05,45.56 100.46,45.54 L100.46,45.54 Z M102.06,45.14 C102.12,45.13 102.5,45.21 102.5,45.21 C102.46,48.7 105.15,48 105.51,45.52 C105.51,45.52 106.17,45.46 106.27,45.62 C106.59,46.14 105.85,47.63 104.74,48.12 C103.94,48.48 102.84,48.39 102.19,47.79 C102,47.45 101.45,46.15 101.55,45.61 C101.68,45.3 101.87,45.15 102.06,45.14 L102.06,45.14 Z M117.61,44.96 C117.81,44.93 118.04,45.28 118.41,46 C118.66,46.5 118.6,46.65 117.8,49.01 C117.47,49.99 117.15,50.78 117.14,50.78 C116.9,50.98 116.93,50.96 116.82,50.83 C116.25,50.09 116.29,48.67 116.79,46.95 C117.16,45.65 117.36,45 117.61,44.96 L117.61,44.96 Z M115.9,42.61 C116.03,42.62 116.22,42.82 116.5,43.22 C117.02,43.95 117.04,44.31 116.61,45.58 C116.09,47.14 115.88,46.88 115.75,44.71 C115.66,43.31 115.66,42.6 115.9,42.61 L115.9,42.61 Z M87.45,42.02 C89.18,41.99 90.97,42.56 92.18,43.6 C93.02,44.33 92.4,44.5 91.04,43.93 C88.98,43.07 87.24,42.94 85.55,43.73 C85.02,43.98 84.41,44.28 84.24,44.26 C83.96,44.07 83.83,43.51 84.08,43.12 C84.76,42.45 86.11,42.04 87.45,42.02 L87.45,42.02 Z M108.55,43.5 C109.34,44.24 109.76,44.64 109.68,44.83 C109.6,45.03 108.99,44.69 107.97,44.14 C105.91,43.04 103.58,42.78 100.67,43.62 C98.41,44.28 99.08,43.24 101.6,42.26 C103.61,41.33 106.39,41.61 108.55,43.5 L108.55,43.5 Z M99.47,42.7 C98.33,43.29 97.94,43.6 97.46,43.34 C96.31,42.71 96.56,43.2 97.27,44.47 C97.77,45.37 97.77,45.55 97.69,46.1 C97.61,46.7 97.63,46.72 98.2,47.36 C99.28,48.78 100.36,50.16 101.98,51.24 C102.48,51.58 103.16,51.96 103.21,51.96 C103.37,51.97 103.31,51.84 103.02,51.56 C100.95,49.56 99.31,47.76 101.42,48.52 C103.88,49.33 106.22,48.33 108.13,47.67 C108.92,47.43 109.74,47.23 109.94,47.23 C111.71,47.23 112.13,46.49 111,45.36 C107.17,41.05 103.99,40.04 99.47,42.7 L99.47,42.7 Z M88.43,40.27 C90.33,40.75 92.15,42.01 91.83,42.53 C91.72,42.72 91.61,42.76 91.37,42.63 C89.98,41.94 87.76,40.81 84.56,42.19 C84.21,42.34 84.01,42.1 84.01,41.68 C84.01,40.85 85.4,40.18 86.88,40.13 C87.4,40.13 87.97,40.16 88.43,40.27 L88.43,40.27 Z M97.72,39.91 C96.74,41.11 97.09,42.18 99.26,41.1 C101.03,40.23 101.28,40.13 103.2,40.06 C105.94,39.96 108.4,40.83 111.44,42.7 C113.46,43.94 113.75,44.04 113.2,43.26 C111.57,40.13 101.95,35.38 97.72,39.91 L97.72,39.91 Z M93.89,26.18 C96.66,29.92 102.62,35.7 112.18,37.43 C112.18,37.43 112.72,37.92 113.51,39.01 C114.52,40.38 114.53,40.43 114.66,42.68 C114.75,46.8 116.09,52.39 117.41,55.9 C117.25,56.78 117.09,57.22 115.45,59.45 C108.61,68.72 94.03,77.5 86.85,65.52 C84.46,61.69 84.22,54.33 84.07,49.75 C84.07,49.75 84.12,49.42 84.13,49.34 C84.31,48.5 84.54,48.63 85.84,48.99 C87.16,49.56 88.52,49.1 89.91,48.72 C91.5,48.08 91.63,48.57 90.1,50 C89.57,50.5 88.93,51.26 89,51.22 C89.06,51.18 89.95,50.82 90.34,50.52 C91.57,49.59 91.85,49.94 91.4,50.97 C89.48,55.32 89.14,55.5 91.84,56.71 C92.4,56.96 92.79,57.24 93.1,57.52 C94.95,59.26 94.29,58.32 93.77,57.52 C92.98,56.27 93.69,55.6 95.03,56.38 C95.93,56.9 97.11,57.32 97.75,57.12 C98.99,56.71 99.37,55.35 99,53.84 C98.7,53.01 97.01,51.55 97.4,53.08 C98.42,53.04 99.3,54.49 98.41,55.47 C97.74,56.38 96.55,55.89 94.72,54.67 C93.71,53.91 92.48,54.3 92.53,55.24 C92.56,55.87 91.67,55.72 91.1,54.92 C90.78,54.48 90.99,53.19 91.6,51.98 C95.39,44.33 92.19,36.91 85.63,39 C84.9,39.23 84.25,39.42 84.25,39.42 L84.22,36.49 C87.99,33.85 91.99,29.65 93.89,26.18 L93.89,26.18 Z M92.34,23.96 L93.3,25.49 C90.98,29.33 88.07,32.79 84.19,35.51 L84.17,33.51 C88.57,30.33 90.47,27.13 92.34,23.96 L92.34,23.96 Z M99.09,22.31 C100.84,24.85 103.59,26.71 105.14,27.92 C105.97,28.57 107.07,29.91 106.96,30.18 C103.52,29.08 99.49,25.15 97.64,22.31 L99.09,22.31 L99.09,22.31 Z M95.23,22.31 L96.82,22.31 C100.11,27.8 106.01,30.82 108.05,31.46 C108.6,32.06 109.19,33.16 109.42,33.41 C103.91,31.91 97.73,27.14 95.23,22.31 L95.23,22.31 Z M101.77,22.31 C102.59,23.5 103.33,24.46 104.18,25.67 C104.34,25.9 104.44,26.18 104.4,26.28 C104.27,26.62 103.88,26.37 102.81,25.41 C101.05,23.85 99.86,22.31 99.86,22.31 L101.77,22.31 L101.77,22.31 Z M86.99,22.31 C86.49,23.26 84.61,26.2 84.44,25.41 L84.6,22.31 L86.99,22.31 L86.99,22.31 Z M91.7,22.31 C91.7,22.31 91.74,22.96 91.57,23.42 C90.53,26.79 84.06,33.2 84.25,32.24 L84.18,30.59 C84.15,30.66 89.04,25.82 90.32,22.31 L91.7,22.31 L91.7,22.31 Z M89.32,22.31 C87.96,25.55 86.05,27.51 84.25,29.47 L84.31,27.39 C84.37,27.52 87.01,24.48 87.92,22.31 L89.32,22.31 L89.32,22.31 Z M94.18,22.31 C99.1,30.89 107.9,33.89 110.11,34.47 L111.4,36.36 C101.02,34.32 95.47,27.63 92.86,23.5 C92.66,23.17 92.68,22.31 92.68,22.31 L94.18,22.31 L94.18,22.31 Z M143.99,22.31 C142.93,33.93 142.75,42.92 148.75,54.97 C147.67,56.11 139.5,56.44 136.92,57.79 C136.87,58.11 137.58,58.68 137.58,58.68 C140.28,57.42 150.78,56.28 150.78,56.28 C146.38,48.58 142.76,33.67 145.49,22.31 L153.38,22.31 L153.38,78.39 C153.38,78.39 153.47,89.05 153.69,95.13 C149.66,89.9 144.45,82.72 140.96,77.29 C136.71,71.3 131.99,64.27 127.14,57.68 C125.71,55.6 123.67,52.91 122.01,50.48 C119.4,46.73 117.24,43.83 114.53,39.79 C111.64,35.62 108.86,31.82 105.43,26.97 C102.51,22.85 102.38,22.31 102.38,22.31 L143.99,22.31 L143.99,22.31 Z M24.9,230.57 L154.93,230.57 L154.93,20.72 L24.9,20.72 L24.9,230.57 Z" id="Fill-594" fill="#22244E"></path>
        <path d="M48.82,219.44 C49.55,219.44 50.15,220.03 50.15,220.77 C50.15,221.51 49.55,222.11 48.82,222.11 C48.08,222.11 47.49,221.51 47.49,220.77 C47.49,220.03 48.08,219.44 48.82,219.44 L48.82,219.44 Z M46.39,213.23 C49.46,214.1 50.45,217.21 50.35,218.35 L49.68,218.33 C48.6,213.4 43,216.08 45.33,220.02 C42.34,221.13 42.58,223.9 43.46,225 C44.68,226.52 47.78,226.47 48.73,224.14 C51.64,227.92 55.66,223.68 52.11,220.15 C55.01,221.22 55.48,225.13 55.04,226.35 C56.39,226.81 57.94,228.96 57.74,228.94 L35.98,228.95 C35.98,228.95 37.04,220.14 35.92,213.49 C37.36,213.84 38.33,214.19 40,212.22 C42.7,214.46 44.63,212.77 44.49,210.84 C44.29,209.49 43.59,208.81 42.43,208.1 C44.79,207.52 46.58,211.61 46.39,213.23 L46.39,213.23 Z M39.5,207.4 C40.21,207.4 40.79,207.98 40.79,208.7 C40.79,209.42 40.21,210 39.5,210 C38.79,210 38.21,209.42 38.21,208.7 C38.21,207.98 38.79,207.4 39.5,207.4 L39.5,207.4 Z M32.85,196.08 C34.94,196.77 36.52,199.69 36.36,201.03 C39.11,201.38 42.01,204.05 41.37,206.83 C41.17,206.95 40.85,206.98 40.53,206.66 C41.27,201.26 33.24,203.93 36.45,207.84 L35.01,208.78 C33.86,203.37 32.44,200.31 30.89,196.41 C31.46,196.26 32.85,196.08 32.85,196.08 L32.85,196.08 Z M36.98,195.2 C39.31,196.81 41.87,198.2 43.24,204.54 C43.35,205.87 43.43,205.73 44.46,206.12 C48.53,207.31 52.07,212.22 52.38,216.51 C52.38,217.8 52.8,217.92 54.39,218.59 C56.34,219.41 58.36,221.15 59.51,222.86 C61.21,225.32 61.82,229.05 61.67,228.87 L60.27,228.88 C59.26,222.56 55.3,220.04 51.12,218.86 C51.44,209.94 44.53,207.16 42.12,206.74 C42.26,200.31 38.12,197.66 35.45,195.51 C35.94,195.31 36.98,195.2 36.98,195.2 L36.98,195.2 Z M39.46,194.37 L64.98,228.91 L62.3,228.89 C61.74,226.35 60.93,223.76 59.34,221.82 C58.05,220.24 56.89,219.06 54.57,218 C53.18,217.36 53,217.5 52.91,216.42 C52.49,210.38 47.62,206.58 43.89,205.14 C43.53,201.49 41.88,197.89 37.77,194.87 L39.46,194.37 L39.46,194.37 Z M102.19,178.73 C102.15,180.27 100.7,190.59 95.8,197.69 C95.5,194.1 94.64,189.81 93.67,186.94 C93.67,186.94 98.95,182.05 102.19,178.73 L102.19,178.73 Z M51.68,177.89 C52.76,177.96 52.87,179.99 52.36,179.4 L51.15,178 C51.35,177.92 51.52,177.88 51.68,177.89 L51.68,177.89 Z M100.92,174.92 C101.67,174.92 102.27,175.53 102.27,176.27 C102.27,177.02 101.67,177.63 100.92,177.63 C100.18,177.63 99.57,177.02 99.57,176.27 C99.57,175.53 100.18,174.92 100.92,174.92 L100.92,174.92 Z M79.54,174.87 C87.58,174.85 94.84,176.54 100.67,178.96 L98.93,180.59 C80.04,174.08 67.68,177.01 55.01,182.59 L53.73,181 C62.68,176.61 71.51,174.89 79.54,174.87 L79.54,174.87 Z M61.5,173.62 C62.25,173.62 62.85,174.23 62.85,174.97 C62.85,175.72 62.25,176.33 61.5,176.33 C60.76,176.33 60.15,175.72 60.15,174.97 C60.15,174.23 60.76,173.62 61.5,173.62 L61.5,173.62 Z M58.03,173.37 L59.83,177.51 L54.93,179.64 L52.8,175.41 L58.03,173.37 L58.03,173.37 Z M91.09,171.78 C91.83,171.78 92.44,172.39 92.44,173.14 C92.44,173.89 91.83,174.49 91.09,174.49 C90.34,174.49 89.74,173.89 89.74,173.14 C89.74,172.39 90.34,171.78 91.09,171.78 L91.09,171.78 Z M71.29,171.29 C72.04,171.29 72.64,171.89 72.64,172.64 C72.64,173.39 72.04,173.99 71.29,173.99 C70.55,173.99 69.94,173.39 69.94,172.64 C69.94,171.89 70.55,171.29 71.29,171.29 L71.29,171.29 Z M94.36,171.11 L99.57,172.8 L97.82,176.99 L93.32,175.76 L94.36,171.11 L94.36,171.11 Z M81.07,170.61 C81.81,170.61 82.42,171.22 82.42,171.97 C82.42,172.71 81.81,173.32 81.07,173.32 C80.32,173.32 79.72,172.71 79.72,171.97 C79.72,171.22 80.32,170.61 81.07,170.61 L81.07,170.61 Z M138.18,170.46 C139.25,170.46 140.11,171.33 140.11,172.4 C140.11,173.46 139.25,174.33 138.18,174.33 C137.12,174.33 136.26,173.46 136.26,172.4 C136.26,171.33 137.12,170.46 138.18,170.46 L138.18,170.46 Z M68.41,170.42 L69.18,175.05 L64.29,176.26 L63.11,171.55 L68.41,170.42 L68.41,170.42 Z M50.8,170.36 L52.7,175.22 L49.75,176.66 L45.79,172.89 L50.8,170.36 L50.8,170.36 Z M54.53,170.26 C55.27,170.26 55.88,170.87 55.88,171.61 C55.88,172.36 55.27,172.97 54.53,172.97 C53.78,172.97 53.18,172.36 53.18,171.61 C53.18,170.87 53.78,170.26 54.53,170.26 L54.53,170.26 Z M78.61,169.38 L78.56,174.22 L73.88,174.42 L73.48,169.59 L78.61,169.38 L78.61,169.38 Z M83.99,169.37 L88.92,169.95 L88.14,174.66 L83.89,174.28 L83.99,169.37 L83.99,169.37 Z M43.39,168.33 L45.01,172.35 L41.33,169.6 L43.39,168.33 L43.39,168.33 Z M97.46,167.96 C98.2,167.96 98.8,168.56 98.8,169.31 C98.8,170.06 98.2,170.67 97.46,170.67 C96.71,170.67 96.11,170.06 96.11,169.31 C96.11,168.56 96.71,167.96 97.46,167.96 L97.46,167.96 Z M46.85,167.82 C47.59,167.82 48.2,168.42 48.2,169.17 C48.2,169.92 47.59,170.53 46.85,170.53 C46.1,170.53 45.5,169.92 45.5,169.17 C45.5,168.42 46.1,167.82 46.85,167.82 L46.85,167.82 Z M101.28,167.47 L106.23,169.55 L104.46,174.75 L99.68,172.79 L101.28,167.47 L101.28,167.47 Z M140.44,168.97 C140.06,169.44 139.56,170 139.56,170 C138.3,169.48 137.07,169.69 136.25,170.25 C136.25,170.25 135.38,169.56 134.59,168.91 C133.21,167.79 132.75,167.54 132.75,168.01 C132.75,168.1 133.21,168.58 133.78,169.07 C135.34,170.41 135.66,170.89 135.66,170.89 C135.28,172.1 135.29,173.05 136,174.06 C136,174.06 136.03,174.2 135.48,174.78 C134.49,175.82 133.47,177.44 133.71,177.68 C134,177.97 134.83,177.27 135.87,175.86 C136.61,174.86 136.83,174.83 136.83,174.83 C138.09,175.17 138.79,175.48 140.05,174.44 C140.05,174.44 140.53,174.58 141.48,175.37 C142.96,176.6 143.49,176.86 143.65,176.45 C143.78,176.11 143.59,175.88 142.33,174.92 C141.52,174.3 140.61,173.57 140.61,173.57 C140.88,173.13 141.06,171.56 140.15,170.5 C140.15,170.5 140.19,170.57 141.54,168.81 C142.44,167.64 142.59,167.49 142.29,167.24 C141.9,166.72 140.58,168.8 140.44,168.97 L140.44,168.97 Z M65.27,166.56 C66.02,166.56 66.62,167.16 66.62,167.91 C66.62,168.66 66.02,169.26 65.27,169.26 C64.53,169.26 63.93,168.66 63.93,167.91 C63.93,167.16 64.53,166.56 65.27,166.56 L65.27,166.56 Z M61.79,166.18 L63.01,171.41 L57.93,173.13 L56.11,168.04 L61.79,166.18 L61.79,166.18 Z M86.75,165.42 C87.5,165.42 88.1,166.03 88.1,166.78 C88.1,167.52 87.5,168.13 86.75,168.13 C84.77,167.82 85.3,165.47 86.75,165.42 L86.75,165.42 Z M75.92,165.25 C76.67,165.25 77.27,165.86 77.27,166.61 C77.27,167.35 76.67,167.96 75.92,167.96 C75.18,167.96 74.57,167.35 74.57,166.61 C74.57,165.86 75.18,165.25 75.92,165.25 L75.92,165.25 Z M108.06,164.66 L113.07,167.16 L109.18,170.91 L106.3,169.47 L108.06,164.66 L108.06,164.66 Z M89.91,164.53 L95.4,165.75 L94.29,170.98 L88.94,169.89 L89.91,164.53 L89.91,164.53 Z M140.84,164.38 C143.89,164.39 146.79,167.91 143.78,171.59 C148.71,175.39 143.35,181.8 138.99,178.07 C132.76,184.21 129.28,175.87 131.86,173.65 C128.05,167.37 132.73,163.4 137.56,166.17 C138.44,164.91 139.65,164.38 140.84,164.38 L140.84,164.38 Z M104.69,164.26 C105.43,164.26 106.04,164.86 106.04,165.61 C106.04,166.36 105.43,166.97 104.69,166.97 C103.94,166.97 103.34,166.36 103.34,165.61 C103.34,164.86 103.94,164.26 104.69,164.26 L104.69,164.26 Z M73.09,164.21 L73.38,169.5 L68.39,170.17 L67.4,164.85 L73.09,164.21 L73.09,164.21 Z M78.65,163.92 C78.65,163.92 82.81,163.93 84.25,163.94 L83.91,169.24 L78.72,169.28 L78.65,163.92 L78.65,163.92 Z M54.51,163.15 L55.97,167.84 L50.75,170.12 L48.9,165.48 C50.7,164.52 52.67,163.83 54.51,163.15 L54.51,163.15 Z M58.14,162.77 C58.89,162.77 59.49,163.38 59.49,164.13 C59.49,164.87 58.89,165.48 58.14,165.48 C57.4,165.48 56.79,164.87 56.79,164.13 C56.79,163.38 57.4,162.77 58.14,162.77 L58.14,162.77 Z M139.03,162.4 C139.7,162.71 139.95,163.34 140.32,163.68 C139.86,163.89 139.65,164.12 138.91,164.17 C138.92,163.68 138.78,163.09 139.03,162.4 L139.03,162.4 Z M143.73,161.33 C146.39,161.36 149.9,162.7 149.91,164.76 C149.86,165.35 144.33,164.57 141.79,163.54 C140.88,163.17 139.78,162.06 139.78,161.6 C139.78,161.32 140.32,161.34 140.54,161.61 C140.9,162.05 142.17,162.5 145.09,163.24 C147.33,163.81 147.56,163.83 147.56,163.49 C147.56,163.18 146.23,162.75 144.8,162.51 C144.07,162.39 143.4,162.17 142.29,162.08 C141.77,162.08 141.65,161.75 142.08,161.53 C142.55,161.39 143.12,161.32 143.73,161.33 L143.73,161.33 Z M93.2,160.93 C93.95,160.93 94.55,161.53 94.55,162.28 C94.55,163.03 93.95,163.64 93.2,163.64 C92.46,163.64 91.85,163.03 91.85,162.28 C91.85,161.53 92.46,160.93 93.2,160.93 L93.2,160.93 Z M96.56,160.83 L102.74,162.53 L101.23,167.33 L95.43,165.69 L96.56,160.83 L96.56,160.83 Z M69.88,160.44 C70.62,160.44 71.22,161.05 71.22,161.79 C71.22,162.54 70.62,163.15 69.88,163.15 C69.13,163.15 68.53,162.54 68.53,161.79 C68.53,161.05 69.13,160.44 69.88,160.44 L69.88,160.44 Z M137.16,160.25 C138.66,160.48 138.54,163.93 137.77,164.52 C136.59,165.38 135.87,163.59 136.39,161.23 C136.54,160.52 136.82,160.27 137.16,160.25 L137.16,160.25 Z M66.77,159.91 L67.22,164.5 L61.75,165.91 L60.5,161.16 C62.6,160.65 64.68,160.29 66.77,159.91 L66.77,159.91 Z M81.52,159.55 C82.27,159.55 82.87,160.15 82.87,160.9 C82.87,161.65 82.27,162.26 81.52,162.26 C80.78,162.26 80.17,161.65 80.17,160.9 C80.17,160.15 80.78,159.55 81.52,159.55 L81.52,159.55 Z M133.09,158.94 C133.58,158.99 133.43,159.56 132.75,159.7 C131.68,159.91 128.93,161.51 128.93,161.93 C128.93,162.2 129.07,162.16 130.07,161.62 C130.57,161.35 131.62,160.89 132.4,160.6 C133.18,160.3 134.06,159.94 134.37,159.8 C135.3,159.38 135.76,159.67 135.42,160.46 C135.2,160.99 135.12,161.03 132.97,161.71 C131.04,162.33 130.68,162.49 129.45,163.28 C128.99,163.57 128.18,164.04 127.64,164.32 C126.38,164.98 126.12,164.98 126.12,164.1 C126.05,161.48 128.94,159.51 132.86,158.94 C132.96,158.92 133.09,158.93 133.09,158.94 L133.09,158.94 Z M84.77,158.88 L90.73,159.6 L89.82,164.34 L84.33,163.75 L84.77,158.88 L84.77,158.88 Z M78.11,158.75 C78.35,158.75 78.6,158.75 78.84,158.76 L78.6,163.82 L73.05,164.07 L72.69,159.03 C74.6,158.9 76.38,158.76 78.11,158.75 L78.11,158.75 Z M133.2,158.41 C133.2,158.41 131.76,158.78 130.55,159.17 C127.1,160.28 125.48,162.29 125.79,165.08 C125.89,165.9 126.1,165.89 127.51,165 C130.81,162.91 131.01,162.81 135.12,161.61 C135.44,161.51 135.9,161.58 135.9,161.58 L135.72,164.84 C128.87,164.81 129.25,170.27 131.22,173.11 C130.53,174.42 129.02,179 133.98,180.74 C136.46,181.24 139.09,179.22 139,179.11 C143.57,181.28 148.88,177.65 144.74,171.35 C146.3,168.6 145.2,166.56 143.72,164.81 C143.72,164.81 143.97,164.83 146.13,165.23 C149.41,165.83 150.67,165.73 150.67,165.73 C150.67,162.76 148.22,161.44 143.12,161.04 C139.51,161.55 133.2,158.38 133.2,158.41 L133.2,158.41 Z M26.4,157.11 L76.16,228.87 L70.32,228.96 L26.44,171.34 L26.4,157.11 L26.4,157.11 Z M115.03,165.25 L113.57,166.72 C92.07,155.04 62.45,155.08 40.84,169.23 L39.08,167.93 C62.67,152.76 91.69,152.86 115.03,165.25 L115.03,165.25 Z M25.61,154.99 C25.51,161.04 25.71,165.03 25.49,171.56 L41.83,192.82 L39.28,193.67 C39.28,193.67 39.25,193.97 39.12,194.01 C35.63,194.97 29.96,195.93 29.96,195.93 C34.17,205.58 36.91,217.65 35.02,229.71 L77.3,229.6 L25.61,154.99 L25.61,154.99 Z M87.82,151.16 L87.25,152.68 L88.35,152.96 L88.96,151.4 L87.82,151.16 L87.82,151.16 Z M140.62,150.81 C140.62,150.81 140.06,151.22 139.91,151.4 C140.03,151.73 140.39,152.23 140.33,152.56 C140.29,152.81 140.01,153.01 139.59,153.45 C138.56,154.66 138.2,154.53 138.8,153.24 C138.99,152.84 139.08,152.46 139.08,152.46 C138.84,152.8 138.66,153.2 138.5,153.51 C138.16,154.17 137.84,154.79 137.84,154.79 C138.5,155.02 138.94,155.51 139.36,155.83 C139.36,155.83 139.58,155.25 139.73,154.69 C139.94,153.91 140.35,153.59 140.86,153.32 C141.17,153.15 141.48,152.84 141.48,152.84 C140.92,152.27 140.86,151.46 140.62,150.81 L140.62,150.81 Z M88.96,148.18 L88.42,149.61 L89.53,149.84 L90.06,148.41 L88.96,148.18 L88.96,148.18 Z M90.03,145.28 L89.51,146.72 L90.65,146.94 L91.18,145.49 L90.03,145.28 L90.03,145.28 Z M91.1,141.99 L90.57,143.42 L91.78,143.67 L92.25,142.2 L91.1,141.99 L91.1,141.99 Z M102.02,141.14 L107.52,142.64 L108.62,144.62 L106.04,153.36 L98.72,151.2 L102.02,141.14 L102.02,141.14 Z M95.13,139.74 L97.93,140.29 L95.58,141.69 L97.08,143.44 L94.19,144.67 L95.94,146.49 L93.16,147.63 L94.85,149.63 L91.96,150.86 L93.93,152.57 L90.68,153.6 L91.91,155.49 L90.69,156.18 L89.18,155.94 C91.69,150.08 93.29,145.26 95.13,139.74 L95.13,139.74 Z M147.95,139.55 C148.81,139.55 148.76,140 148.14,141.63 C147.55,143.16 147.33,143.77 147.04,143.97 C146.36,144.46 144.9,144.05 145.02,143.35 C145.4,141.05 145.54,140.08 146.13,139.77 C146.74,139.64 147.34,139.55 147.95,139.55 L147.95,139.55 Z M90.8,139.13 L91.88,139.31 L91.54,140.47 L92.77,140.73 L93.17,139.48 C93.17,139.48 94.15,139.57 94.26,139.65 C92.97,144.9 88.43,155.9 88.37,155.84 L87.21,155.67 L87.51,154.56 L86.43,154.4 L86.43,154.39 L85.9,155.6 L84.74,155.5 C87.55,149.06 89.47,144.12 90.8,139.13 L90.8,139.13 Z M124.26,138.83 C125.39,138.83 126.3,139.74 126.3,140.87 C126.3,142 125.39,142.91 124.26,142.91 C123.14,142.91 122.23,142 122.23,140.87 C122.23,139.74 123.14,138.83 124.26,138.83 L124.26,138.83 Z M87.61,138.66 C88.46,138.76 89.38,138.89 90.22,139.05 C88.68,144.49 86.64,150.08 84.01,155.46 L82.42,155.21 L81.67,154.28 L84.19,153.26 L82.22,151.24 L85.49,150.25 L83.48,148.26 L86.71,147.45 L84.98,145.35 L87.88,144.21 L86.04,141.83 L89.12,140.98 L87.61,138.66 L87.61,138.66 Z M82.42,138.15 C81.6,141.77 80.33,145.23 78.73,148.66 C75.71,148.84 72.45,148.98 70.3,149.29 C73.88,142.99 73.97,141.5 75.29,138.17 L82.42,138.15 L82.42,138.15 Z M124.26,137.73 C122.54,137.73 121.13,139.13 121.13,140.87 C121.13,142.6 122.54,144.01 124.26,144.01 C125.99,144.01 127.39,142.6 127.39,140.87 C127.39,139.13 125.99,137.73 124.26,137.73 L124.26,137.73 Z M44.24,137.04 C45.17,137.04 45.93,137.79 45.93,138.73 C45.93,139.67 45.18,140.43 44.24,140.43 C43.31,140.43 42.55,139.67 42.55,138.73 C42.55,137.79 43.31,137.04 44.24,137.04 L44.24,137.04 Z M133.47,136.92 C134.4,136.92 135.16,137.68 135.16,138.62 C135.16,139.55 134.4,140.31 133.47,140.31 C132.53,140.31 131.78,139.55 131.78,138.62 C131.78,137.68 132.53,136.92 133.47,136.92 L133.47,136.92 Z M148.82,137.39 C149.09,138.06 148.21,138.79 147.06,138.78 C146.38,138.78 146.16,138.88 146.46,138.29 C146.83,137.57 148.29,136.11 148.82,137.39 L148.82,137.39 Z M35.71,136.42 C36.83,136.42 37.74,137.33 37.74,138.46 C37.74,139.11 37.44,139.69 36.97,140.06 C35.66,138.75 34.99,138.06 34.11,137.2 C34.48,136.72 35.06,136.42 35.71,136.42 L35.71,136.42 Z M148.43,136.54 C147.33,136.64 146.65,137.62 146.14,138.47 C146.04,138.65 145.85,138.71 145.78,138.93 C145.32,140.4 144.93,142.16 144.68,144.35 C145.38,144.64 146.95,145.13 147.64,144.87 C147.84,144.78 147.78,144.28 147.84,144.11 C148.93,141.35 149.48,139.28 149.48,138.01 C149.48,136.99 149.13,136.48 148.43,136.54 L148.43,136.54 Z M120.85,138.37 C120.86,138.38 120.87,138.38 120.87,138.37 L120.85,138.37 L120.85,138.37 Z M126.66,132.35 C127.69,132.33 127.62,134.68 127.26,135.9 C127.01,136.83 126.76,137.59 126.76,137.59 C126.76,137.59 127.63,136.91 128.01,136.73 C130.8,135.42 131.85,136.91 130.44,138.63 C129.76,139.52 128.84,139.72 128.09,140.46 C129.15,140.51 130.38,140.75 131.3,141.29 C132.02,141.72 132.59,142.25 132.58,142.57 C132.58,143.3 130.81,143.69 129.15,143.5 C128.44,143.52 127.11,143.14 127.11,143.14 C127.11,143.14 127.66,144.07 127.86,144.62 C128.48,146.35 128.26,148.37 127.37,148.37 C125.87,147.97 125.14,146.29 124.55,145.09 C124.07,146.43 123.6,147.86 122.53,148.86 C121.47,149.85 120.92,149.03 120.98,147.36 C121,146.69 121.48,144.7 121.48,144.7 C115.19,146.84 115.65,143.95 120.57,141.42 C117.54,139.97 115.7,138.67 120.85,138.37 C120.72,138.25 119.82,135.48 120.78,134.83 C121.67,134.23 123.58,136.3 123.67,136.4 C123.63,136.19 124.17,134.57 125.08,133.45 C125.77,132.66 126.29,132.35 126.66,132.35 L126.66,132.35 Z M34.56,134.61 C34.57,134.64 34.59,134.66 34.61,134.66 C34.61,134.66 34.57,134.63 34.56,134.61 L34.56,134.61 Z M37.51,128.4 C39.67,128.88 38.67,133.94 38.19,135.31 C38.15,135.35 44.21,132.13 44.58,133.55 C44.81,136.41 39.56,138.4 39.56,138.4 C39.56,138.4 43.1,141.48 43.2,143.43 C43.21,144.68 41.72,144.45 39.78,142.86 C38.96,142.04 38.32,141.43 37.75,140.86 C38.41,140.29 38.83,139.43 38.83,138.48 C38.83,136.75 37.43,135.34 35.7,135.34 C34.75,135.34 33.89,135.77 33.32,136.45 C32.87,136.01 32.36,135.51 31.68,134.86 C30.56,133.81 29.78,132.98 29.89,132.6 C31.36,131.56 34.3,134.36 34.56,134.61 C34.34,134.07 35.96,128.69 37.51,128.4 L37.51,128.4 Z M31.9,126.39 C32.84,126.39 33.6,127.15 33.6,128.09 C33.6,129.03 32.84,129.78 31.9,129.78 C30.97,129.78 30.21,129.03 30.21,128.09 C30.21,127.15 30.97,126.39 31.9,126.39 L31.9,126.39 Z M134.98,125.07 C135.92,125.07 136.68,125.83 136.68,126.77 C136.68,127.71 135.92,128.47 134.98,128.47 C134.05,128.47 133.29,127.71 133.29,126.77 C133.29,125.83 134.05,125.07 134.98,125.07 L134.98,125.07 Z M143.42,123.96 L142.51,130.09 C140.16,129.89 138.2,130.25 138.8,134.41 C136.81,134.21 134.04,134.68 132.19,134.84 L143.42,123.96 L143.42,123.96 Z M44.3,122.22 C45.24,122.22 46,122.98 46,123.92 C46,124.86 45.24,125.62 44.3,125.62 C43.37,125.62 42.61,124.86 42.61,123.92 C42.61,122.98 43.37,122.22 44.3,122.22 L44.3,122.22 Z M147.19,121.71 C148.13,121.71 148.88,122.47 148.88,123.41 C148.88,124.34 148.13,125.1 147.19,125.1 C146.26,125.1 145.5,124.34 145.5,123.41 C145.5,122.47 146.26,121.71 147.19,121.71 L147.19,121.71 Z M52.14,120.96 L51.46,125.01 C49.73,125.05 48.04,125.67 48.06,129.53 L42.91,129.47 L52.14,120.96 L52.14,120.96 Z M136.06,120.4 L127.43,130.54 L127.79,125 C130.7,125.37 131.73,123.83 131.3,120.79 C132.89,120.99 134.48,120.71 136.06,120.4 L136.06,120.4 Z M75.92,118.4 C84.03,120.53 93.26,121.52 102.85,121.53 C102.92,125.19 103.1,129.06 103.84,132.8 C95.68,130.65 86.56,129.66 76.59,129.83 C77.01,125.96 76.35,121.58 75.92,118.4 L75.92,118.4 Z M62.46,117.21 C67.19,130.74 63.08,145.05 48.3,153.34 C48.91,140.38 54.33,127.99 62.46,117.21 L62.46,117.21 Z M46.13,116.08 L35.94,125.98 C36.58,124.33 36.6,122.7 36.65,121.05 C39.72,121.37 41,119.81 40.55,116.59 C42.54,116.71 44.59,116.5 46.13,116.08 L46.13,116.08 Z M33.06,111.93 C33.85,112.19 33.66,112.94 32.64,113.59 C31.98,114.01 31.37,114.1 30.79,113.79 C29.68,113.2 31.97,111.54 33.06,111.93 L33.06,111.93 Z M45.64,111.21 C46.58,111.21 47.33,111.97 47.33,112.91 C47.33,113.85 46.58,114.61 45.64,114.61 C44.71,114.61 43.95,113.85 43.95,112.91 C43.95,111.97 44.71,111.21 45.64,111.21 L45.64,111.21 Z M142.98,110.85 L145.81,113.78 C145.45,114.14 144.94,114.37 144.38,114.37 C143.26,114.37 142.35,113.46 142.35,112.33 C142.35,111.75 142.59,111.22 142.98,110.85 L142.98,110.85 Z M135.46,110.39 C136.4,110.39 137.15,111.16 137.15,112.09 C137.15,113.03 136.4,113.79 135.46,113.79 C134.53,113.79 133.77,113.03 133.77,112.09 C133.77,111.16 134.53,110.39 135.46,110.39 L135.46,110.39 Z M71.45,108.13 C78.63,120.57 77.8,137.63 69.34,150.05 L78.43,149.41 L77.24,151.75 L67.54,152.7 C66.06,154.06 64.71,155.61 63.25,157.07 L63.24,157.58 C59.92,158.36 56.59,159.25 53.2,160.48 C51.41,158.71 48.05,155.19 48.07,155.1 L48.28,153.96 C71.35,142.15 64.6,118.46 62.98,116.52 C65.45,113.53 68.4,110.73 71.46,108.13 L71.45,108.13 L71.45,108.13 Z M55.3,108.09 C56.42,108.09 57.34,109.01 57.34,110.14 C57.34,111.27 56.42,112.18 55.3,112.18 C54.18,112.18 53.26,111.27 53.26,110.14 C53.26,109.01 54.18,108.09 55.3,108.09 L55.3,108.09 Z M55.3,107 C53.57,107 52.17,108.4 52.17,110.14 C52.17,111.87 53.57,113.28 55.3,113.28 C57.03,113.28 58.43,111.87 58.43,110.14 C58.43,108.4 57.03,107 55.3,107 L55.3,107 Z M31.96,106.96 C32.71,107.02 33.22,107.11 33.73,107.32 C33.97,107.38 33.98,107.58 34,107.77 C34.01,108.61 34.22,111.08 33.44,111.11 C32.58,111.09 31.77,111.28 31.2,111.71 C30.74,112.06 30.59,111.81 30.71,110.91 C30.83,110.04 31.26,108.21 31.45,107.47 C31.48,107.17 31.72,106.95 31.96,106.96 L31.96,106.96 Z M137.23,106.87 C138.53,106.9 138.77,107.02 139.95,107.72 L142.22,110.06 C141.63,110.64 141.25,111.44 141.25,112.33 C141.25,114.07 142.66,115.48 144.38,115.48 C145.24,115.48 146.58,114.57 146.58,114.57 L150.18,118.31 C148.08,119.23 146.03,117.11 145.26,116.27 C145.07,116.07 145.03,115.94 145.03,115.94 C145.03,115.94 145.06,116.04 144.98,116.46 C144.68,118.12 143.05,123.04 141.48,122.78 C139.72,122.48 141.51,115.46 141.53,115.62 C140.32,116.9 134.41,118.27 134.83,116.84 C135.65,113.98 140.07,112.88 140.65,112.39 C138.3,110.97 135.32,107.04 137.23,106.87 L137.23,106.87 Z M87.76,106.43 L87.4,107.61 L88.46,108.01 L88.87,106.82 L87.76,106.43 L87.76,106.43 Z M31.67,106.15 C30.86,108.29 30.58,110.66 30.13,112.57 C29.94,113.67 30.13,114.13 30.79,114.38 C31.73,114.73 33.08,114.25 33.84,113.17 C34.27,112.55 34.58,111.28 34.64,109.05 L34.72,107.05 C33.56,106.84 32.76,106.53 31.68,106.15 L31.67,106.15 L31.67,106.15 Z M88.79,103.75 L88.36,105.03 L89.46,105.37 L89.86,104.12 L88.79,103.75 L88.79,103.75 Z M108.96,102.2 C107,105.69 105.29,109.15 104.47,112.76 L96.83,112.63 C97.36,109.43 98.71,106.1 100.32,102.58 C103.43,102.49 106.23,102.35 108.96,102.2 L108.96,102.2 Z M58.4,105.73 C58.23,106.38 58.17,106.71 58.17,106.71 C58.17,106.71 58.49,106.41 59.36,105.93 C64.98,103.12 63.17,107.39 60.52,108.97 C59.93,109.29 59.32,109.67 59.32,109.67 C59.32,109.67 59.88,109.79 60.49,109.91 C63.9,110.62 63.18,112.62 59.62,112.31 C59.1,112.26 58.48,112.16 58.48,112.19 C58.48,112.22 58.69,112.97 58.94,113.59 C60.14,116.62 57.9,116.86 56.43,114.93 C56.22,114.67 55.76,113.92 55.76,113.92 C55.76,113.92 55.62,114.49 55.53,115.03 C54.26,119.78 51.12,119.66 52.29,114.84 C52.44,114.34 52.62,113.45 52.62,113.45 C52.62,113.45 51.91,113.88 51.14,114.22 C47.08,116.04 46.43,114.17 50.11,111.43 C51.16,110.65 51.52,110.34 51.52,110.34 C50.87,110.29 50.26,110.19 49.73,110.06 C46.79,109.32 46.01,107.55 50.72,107.63 C51.42,107.65 52.13,107.7 52.13,107.7 C52.13,107.7 51.89,106.68 51.65,105.92 C50.51,102.38 52.8,101.96 54.73,105.13 C55.15,105.8 55.26,105.8 55.26,105.8 C55.2,105.81 55.38,104.6 55.85,103.48 C58.19,99.13 59.11,103.1 58.4,105.73 L58.4,105.73 Z M133.95,100.99 C131.64,118.84 122.04,135.08 111.89,143.35 C115.13,148.62 118.93,152 122.79,154.83 L151.38,127.35 L151.27,118.18 L133.95,100.99 L133.95,100.99 Z M89.91,100.77 L89.49,101.98 L90.55,102.34 L90.95,101.11 L89.91,100.77 L89.91,100.77 Z M90.95,97.94 L90.48,99.14 L91.51,99.43 L91.95,98.22 L90.95,97.94 L90.95,97.94 Z M131.15,97.87 C130.44,110.74 125.6,123.31 117.19,133.17 C112.94,122.64 115.5,105.8 131.15,97.87 L131.15,97.87 Z M73.48,97.62 L80.94,100.03 L78.13,109.65 L71.41,107.61 L70.72,105.9 L73.48,97.62 L73.48,97.62 Z M131.98,96.82 C115.54,104.57 111.76,120.47 116.85,134.87 C124.68,124.76 130.83,115.26 131.98,96.82 L131.98,96.82 Z M56.57,96.55 L28.6,122.91 L28.51,132.75 L38.25,142.65 L45.16,149.38 C47.67,134.32 53.42,119.96 67.59,107.53 C65.42,104.02 61.7,99.61 56.57,96.55 L56.57,96.55 Z M40.4,96.01 C39.78,96.42 40.13,97.3 39.35,98.06 C39.22,98.2 39.21,98.51 39.16,98.78 C39.13,98.99 38.51,101.46 38.51,101.46 C38.51,101.46 38.66,101.27 38.91,100.48 C39.12,99.81 39.31,98.53 39.42,98.32 C40,98.14 40.09,96.25 40.67,96.51 C41.01,96.66 40.95,96.97 40.76,97.69 C40.34,99.14 40.17,99.75 40.89,98.76 C41.96,97.47 42.06,96.3 40.86,96.06 C40.73,96.03 40.47,96.01 40.4,96.01 L40.4,96.01 Z M95.46,95.06 L97.73,96.94 L95.16,97.94 L96.49,99.72 L93.77,100.7 L95.33,102.55 L92.63,103.55 L94.24,105.78 L91.44,106.73 L93.21,108.69 L90.68,109.88 L92.2,111.38 C92.2,111.38 90.62,111.91 90.53,111.93 C90.27,112 89.21,111.73 89.21,111.73 C90.81,106.02 92.79,100.23 95.47,95.06 L95.46,95.06 L95.46,95.06 Z M91.31,94.87 C91.31,94.87 91.63,94.93 92.01,95 C92.1,94.97 91.56,96.3 91.62,96.34 C92.48,96.52 92.53,96.48 92.79,96.55 L93.45,95.18 L94.54,95.39 C92.35,100.34 90.01,105.76 88.67,111.62 L87.4,111.35 C87.4,111.35 87.77,110.12 87.77,109.95 C87.62,109.92 86.9,109.62 86.68,109.53 C86.6,109.72 86.15,111.15 86.15,111.15 L85.14,111.13 C86.79,104.72 89.67,97.62 91.31,94.87 L91.31,94.87 Z M90.55,94.85 C88.25,99.8 86.26,105.22 84.49,111.03 L82.01,110.29 C82.01,110.29 83.61,109.62 84.33,109.19 L83.04,107.11 L85.48,106.11 L84.04,104.34 L86.51,102.9 L85.28,101.34 L87.54,100.2 L86.13,98.58 L88.51,97.25 L87.27,95.69 L90.55,94.85 L90.55,94.85 Z M56.92,93.31 C56.92,93.31 65.83,98.17 70.77,107.91 C54.78,121.71 48.75,137.79 47.39,154.53 C38.69,146.36 34.29,141.84 26.42,133.9 L26.71,122.06 L56.92,93.31 L56.92,93.31 Z M126.9,91.02 C135.57,99.3 145.08,108.84 152.92,116.69 C152.91,120.8 152.88,129.01 152.88,129.01 L122.95,157.57 C117.53,154.25 112.94,150.09 108.71,142.72 C109.19,142.31 109.61,142.04 109.97,141.59 L108.41,142.53 C102.88,133.66 100.54,116 109.92,101.84 L100.44,102.19 L101.99,98.95 L112.31,98.38 L116.48,93.89 C116.48,93.89 117.8,93.65 118.9,93.39 C119.98,93.14 122.2,92.5 123.83,91.97 C125.46,91.45 126.84,91.01 126.9,91.02 L126.9,91.02 Z M98.03,88.81 C98.75,88.81 99.33,89.39 99.33,90.11 C99.33,90.82 98.75,91.41 98.03,91.41 C97.32,91.41 96.74,90.82 96.74,90.11 C96.74,89.39 97.32,88.81 98.03,88.81 L98.03,88.81 Z M110.08,87.85 C110.8,87.85 111.38,88.44 111.38,89.15 C111.38,89.87 110.8,90.45 110.08,90.45 C109.37,90.45 108.79,89.87 108.79,89.15 C108.79,88.44 109.37,87.85 110.08,87.85 L110.08,87.85 Z M52.99,87.42 C53.21,90.92 47.85,93.29 45.85,92.22 C44.96,91.74 45.33,91.45 47.09,91.09 C49.37,90.49 50.87,89.9 50.87,89.47 C50.87,89.21 50.53,89.24 49.6,89.59 C48.17,90.07 46.68,90.28 45.32,90.89 C44.3,91.36 43.9,91.52 43.67,91.24 C43.19,90.65 45.46,89.17 47.81,88.78 C49.57,88.49 51.35,87.54 52.99,87.42 L52.99,87.42 Z M86.49,87.35 C87.2,87.35 87.78,87.93 87.78,88.65 C87.78,89.37 87.2,89.95 86.49,89.95 C85.77,89.95 85.19,89.37 85.19,88.65 C85.19,87.93 85.77,87.35 86.49,87.35 L86.49,87.35 Z M106.77,87.03 L107.05,91.8 L101.04,92.08 L101.09,87.39 L106.77,87.03 L106.77,87.03 Z M42.92,86.82 C43.88,87.58 43.21,89.88 42.69,90.56 C42.35,90.94 41.56,90.74 41.56,90.2 C41.68,89.72 41.51,87.44 41.62,86.73 C42,86.51 42.56,86.57 42.92,86.82 L42.92,86.82 Z M89.77,86.42 L95.28,87.14 L95.03,91.77 L89,91.07 L89.77,86.42 L89.77,86.42 Z M28.76,86.34 C29.04,86.34 29.7,86.57 30.48,86.57 C32.97,86.56 37.64,87.34 39.02,88.48 C39.48,88.86 40.17,89.19 40.54,89.8 C40.54,90.09 40.13,90.1 39.53,89.73 C38.37,89.01 36.45,88.36 33.87,88 C33.41,87.94 33.35,87.96 33.35,88.18 C33.35,88.45 33.78,88.61 35.13,88.83 C36.89,89.12 37.26,89.29 37.65,89.4 C38.69,89.69 38.03,90.07 36.96,90.17 C32.58,90.58 29.3,88.69 28.64,86.53 C28.58,86.39 28.64,86.34 28.76,86.34 L28.76,86.34 Z M41.4,86.26 L41.38,89.72 C40.37,88.88 39.22,87.98 38.04,87.08 C39.24,87.14 40.36,86.81 41.4,86.26 L41.4,86.26 Z M121.54,85.49 C122.25,85.49 122.83,86.07 122.83,86.79 C122.83,87.51 122.25,88.09 121.54,88.09 C120.82,88.09 120.24,87.51 120.24,86.79 C120.24,86.07 120.82,85.49 121.54,85.49 L121.54,85.49 Z M118.01,84.78 L119.34,89.71 L113.21,91.03 L112.47,86.17 L118.01,84.78 L118.01,84.78 Z M74.92,83.84 C75.63,83.84 76.21,84.42 76.21,85.14 C76.21,85.86 75.63,86.44 74.92,86.44 C74.2,86.44 73.62,85.86 73.62,85.14 C73.62,84.42 74.2,83.84 74.92,83.84 L74.92,83.84 Z M78.59,83.81 L84.14,85.42 L83.19,89.82 L77.11,88.06 L78.59,83.81 L78.59,83.81 Z M103.89,83.09 C104.61,83.09 105.19,83.67 105.19,84.39 C105.19,85.11 104.61,85.69 103.89,85.69 C103.18,85.69 102.6,85.11 102.6,84.39 C102.6,83.67 103.18,83.09 103.89,83.09 L103.89,83.09 Z M92.99,82.8 C93.7,82.8 94.28,83.38 94.28,84.1 C94.28,84.82 93.7,85.4 92.99,85.4 C92.27,85.4 91.69,84.82 91.69,84.1 C91.69,83.38 92.27,82.8 92.99,82.8 L92.99,82.8 Z M138.36,82.2 L140.45,83.65 C118.94,97.53 88.73,99.25 65.15,85.59 C65.15,85.59 66.12,84.63 66.66,84.06 C87.92,96.83 118.95,95.04 138.36,82.2 L138.36,82.2 Z M95.87,81.82 L101.18,81.92 L101.12,87.27 L95.3,87.11 L95.87,81.82 L95.87,81.82 Z M114.62,81.29 C115.33,81.29 115.91,81.88 115.91,82.59 C115.91,83.31 115.33,83.89 114.62,83.89 C113.9,83.89 113.32,83.31 113.32,82.59 C113.32,81.88 113.9,81.29 114.62,81.29 L114.62,81.29 Z M128.78,80.96 L130.65,85.62 L125.1,87.95 L123.46,83.28 L128.78,80.96 L128.78,80.96 Z M132.8,80.92 C133.52,80.92 134.1,81.5 134.1,82.22 C134.1,82.94 133.52,83.52 132.8,83.52 C132.09,83.52 131.51,82.94 131.51,82.22 C131.51,81.5 132.09,80.92 132.8,80.92 L132.8,80.92 Z M111.55,80.82 L112.45,86.11 L106.77,86.91 L106.42,81.51 L111.55,80.82 L111.55,80.82 Z M82.49,80.53 C83.21,80.53 83.79,81.11 83.79,81.83 C83.79,82.54 83.21,83.13 82.49,83.13 C81.78,83.13 81.2,82.54 81.2,81.83 C81.2,81.11 81.78,80.53 82.49,80.53 L82.49,80.53 Z M70.54,80.24 L73.22,81.5 L71.46,85.91 L67.13,83.6 L70.54,80.24 L70.54,80.24 Z M85.51,79.95 L90.54,81.04 L89.77,86.34 L84.28,85.24 L85.51,79.95 L85.51,79.95 Z M134.23,79.48 L137.64,81.9 L135.95,82.84 C135.51,81.78 134.73,80.52 134.23,79.48 L134.23,79.48 Z M125.11,78.02 C125.83,78.02 126.41,78.6 126.41,79.32 C126.41,80.04 125.83,80.62 125.11,80.62 C124.4,80.62 123.82,80.04 123.82,79.32 C123.82,78.6 124.4,78.02 125.11,78.02 L125.11,78.02 Z M121.41,77.88 L123.29,83.04 L118.02,84.75 L116.53,79.45 L121.41,77.88 L121.41,77.88 Z M98.67,77.56 C99.39,77.56 99.97,78.14 99.97,78.86 C99.97,79.58 99.39,80.16 98.67,80.16 C97.96,80.16 97.38,79.58 97.38,78.86 C97.38,78.14 97.96,77.56 98.67,77.56 L98.67,77.56 Z M41.51,77.61 C42.25,77.61 42.85,78.21 42.85,78.95 C42.85,79.69 42.25,80.29 41.51,80.29 C40.77,80.29 40.17,79.69 40.17,78.95 C40.17,78.21 40.77,77.61 41.51,77.61 L41.51,77.61 Z M108.71,77.14 C109.43,77.14 110.01,77.72 110.01,78.44 C110.01,79.16 109.43,79.74 108.71,79.74 C108,79.74 107.42,79.16 107.42,78.44 C107.42,77.72 108,77.14 108.71,77.14 L108.71,77.14 Z M105.39,76.56 L106.03,81.58 L101.2,81.88 L101.1,76.78 L105.39,76.56 L105.39,76.56 Z M88.66,76.56 C90.57,76.86 90.06,79.12 88.66,79.16 C87.95,79.16 87.37,78.58 87.37,77.86 C87.37,77.14 87.95,76.56 88.66,76.56 L88.66,76.56 Z M75.33,76.15 L80.5,78.43 L78.63,83.67 L73.34,81.38 L75.33,76.15 L75.33,76.15 Z M91.46,76.1 L96.11,76.65 L95.92,81.67 L90.58,80.95 L91.46,76.1 L91.46,76.1 Z M129.2,75.07 L133.2,78.64 L128.76,80.89 L126.62,76.23 L129.2,75.07 L129.2,75.07 Z M118.38,74.9 C119.09,74.9 119.67,75.48 119.67,76.2 C119.67,76.92 119.09,77.5 118.38,77.5 C117.66,77.5 117.08,76.92 117.08,76.2 C117.08,75.48 117.66,74.9 118.38,74.9 L118.38,74.9 Z M115.03,74.82 L116.31,79.48 L111.55,80.75 L110.77,75.8 L115.03,74.82 L115.03,74.82 Z M81.91,73.65 L86.49,75.08 L85.48,79.85 L80.6,78.27 L81.91,73.65 L81.91,73.65 Z M45.88,73.37 C45.81,73.37 45.72,73.4 45.62,73.49 C45.48,73.5 45.16,74.04 44.37,74.96 C43,76.56 42.85,76.57 42.85,76.57 C41.39,76.09 40.41,76.35 39.45,76.96 C39.45,76.96 38.35,76.75 36.83,75.48 C36.14,74.9 35.77,74.78 35.65,75.09 C35.52,75.42 35.84,75.75 37.16,76.65 C39,77.91 38.88,77.81 38.88,77.81 C38.77,78.91 38.95,79.81 39.36,80.64 C39.36,80.64 39.04,81.42 37.74,83.14 C37.37,83.62 37.07,84.15 37.07,84.3 C37.07,84.97 37.64,84.52 38.97,82.83 C39.5,82.17 40.21,81.22 40.21,81.22 C41.78,81.77 42.33,81.44 43.31,81.09 C43.31,81.09 43.64,81.34 44.5,82.02 C46.06,83.27 46.39,83.4 46.59,83.24 C46.84,83.03 46.81,82.96 46.22,82.53 C44.46,81.25 43.85,80.51 43.85,80.51 C44.21,79.11 43.82,77.96 43.44,77.23 C43.44,77.23 43.46,77.05 44.46,75.93 C45.19,75.11 46.19,73.82 46.12,73.64 C46.14,73.52 46.04,73.37 45.88,73.37 L45.88,73.37 Z M78.99,73.27 C79.71,73.27 80.29,73.85 80.29,74.57 C80.29,75.29 79.71,75.87 78.99,75.87 C78.27,75.87 77.69,75.29 77.69,74.57 C77.69,73.85 78.27,73.27 78.99,73.27 L78.99,73.27 Z M44.29,71.58 C47.28,71.61 49.95,74.77 47.08,78.31 C52.64,83.23 45.51,88.51 42.12,84.85 C37.6,89 32.79,84.66 35.32,80.14 C30.5,75.81 36.44,70 40.5,73.74 C41.5,72.2 42.93,71.57 44.29,71.58 L44.29,71.58 Z M124.58,71.44 L126.5,76.06 L121.42,77.79 L120.12,73.27 L124.58,71.44 L124.58,71.44 Z M44.65,71.18 C43.42,71.16 42,71.63 40.49,72.79 C34.88,70.22 31.2,76.22 34.67,80.19 C34.16,83.05 33.77,83.59 35.91,86.48 C33.63,86.77 30.76,86.18 28.31,85.8 C28.73,90.03 34.77,91.02 37.29,90.55 C40,89.96 42.56,91.31 42.68,91.34 C44.27,91.79 45.27,92.56 46.84,92.93 C49.44,93.55 53.24,90.5 53.79,87.6 C53.84,87.21 53.96,86.85 53.75,86.8 C51.97,87.25 50.02,87.89 48.29,88.28 C46.6,88.69 45.32,89.1 44.03,90.12 L43.93,86.62 C52.72,87.04 48.89,78.65 48.39,78.29 C50.03,74.97 48.06,71.22 44.65,71.18 L44.65,71.18 Z M124.13,68.77 L125.2,70.32 C112.96,77.53 92.08,78.04 79.36,71.96 L81.04,70.34 C92.23,75.42 110.45,75.79 124.13,68.77 L124.13,68.77 Z M83.52,53.37 C83.8,58.05 84.71,61.46 85.57,64.99 L77.1,73.01 C77.76,65.69 79.9,59.15 83.52,53.37 L83.52,53.37 Z M144.25,42.56 C144.99,46.22 146.63,51.53 148.27,55.1 L146.32,55.32 C144.74,54.29 143.06,52.78 142.88,50.64 C138.6,50.67 137.35,43.93 138.91,44.74 C138.71,47.04 140.36,47.95 141.98,47.72 C143.37,47.53 144.57,45.6 142.91,43.47 C143.65,43.18 144.01,42.97 144.25,42.56 L144.25,42.56 Z M139.66,40.81 C140.47,40.81 141.13,41.47 141.13,42.28 C141.13,43.1 140.47,43.75 139.66,43.75 C138.86,43.75 138.2,43.1 138.2,42.28 C138.2,41.47 138.86,40.81 139.66,40.81 L139.66,40.81 Z M83.96,36.32 C84.04,36.52 65,52.69 66.85,83.1 L66.3,83.72 L66.45,83.93 C65.82,84.65 65.22,85.22 64.53,85.92 C68.48,88.45 75.36,91.2 75.38,91.13 L74.07,94.19 L82.29,96.86 L81.19,99.76 C81.19,99.76 75.47,97.86 73.09,97.06 C71.92,99.67 71.22,102.42 70.36,105.13 C70.28,105.34 70.1,105.24 69.8,104.82 C65.53,97.5 56.76,92.23 57.05,92.75 L25.94,122.38 L25.73,140.7 L47.26,162.98 C47.26,162.98 41.03,166.05 38.08,168.07 C40.37,169.95 42.97,171.4 45.25,173.17 C49.96,176.51 53.15,181.42 56.2,184.74 C70.62,177.57 85.13,177.97 97.67,182.32 C96.21,183.87 94.58,185.2 93.07,186.88 C96.71,196.47 95.55,215.53 95.37,216.05 C102.95,208.27 114.24,191.59 112.73,168.1 L115.92,164.89 C115.87,164.73 107.94,160.47 104.63,159.54 L105.55,156.62 L97.64,154.14 L98.52,151.82 L106.4,154.11 C107.89,150.44 109.47,145.28 109.47,145.28 C112.62,150.01 116.09,154.31 123.23,158.68 L154.17,128.97 L153.97,109.87 L132.91,88.72 L141.67,84.14 C140.83,83.46 139.61,82.81 138.74,82.13 C138.68,82.08 138.92,81.93 138.85,81.88 C138.63,81.71 138.47,81.57 138.25,81.42 C138.2,81.38 138.04,81.61 137.99,81.58 C135.02,79.48 132.04,77.42 129.7,74.92 C129.64,74.85 129.72,74.59 129.67,74.53 C128.45,73.22 127.24,72.01 126,70.72 C125.42,70.14 124.48,68.76 124.48,68.76 L124.42,68.3 L123.09,66.63 C118.81,69.16 100.54,75.53 82.87,68.48 L86.23,65.11 C85.34,62.94 84.76,60.53 84.53,58.55 C83.6,50.61 83.96,36.32 83.96,36.32 L83.96,36.32 Z M130.73,28.72 C131.5,28.72 132.12,29.34 132.12,30.11 C132.12,30.88 131.5,31.5 130.73,31.5 C129.97,31.5 129.35,30.88 129.35,30.11 C129.35,29.34 129.97,28.72 130.73,28.72 L130.73,28.72 Z M114.18,22.5 L117.57,22.5 C117.57,22.5 117.59,23.1 117.64,23.49 C118.09,27.11 121.33,31.65 124.63,33.15 C125.09,33.36 125.74,33.66 125.9,33.8 C126.82,39.73 129.5,43.3 135.15,45.75 C135.24,45.84 135.49,45.9 135.57,46.02 C136.34,49.69 138.02,53.94 141.22,56.27 L139.84,56.42 L114.18,22.5 L114.18,22.5 Z M118.07,22.48 L119.03,22.5 C119.79,27.54 122.68,31.2 127.63,32.98 C127.88,37.1 129.87,42.7 137.38,44.59 C137.16,49.25 140.14,53.7 143.33,55.83 C143.33,55.83 142.47,56.05 141.8,56.11 C137.51,52.7 136.45,47.67 136.03,45.6 C135.88,45.3 135.47,45.23 135.15,45.15 C131.47,43.85 128.38,40.82 127.12,37.13 L126.33,33.5 C126.33,33.04 126.24,33.26 125.14,32.85 C122.31,31.81 119.69,28.73 118.52,25.06 C117.9,23.13 118.07,22.48 118.07,22.48 L118.07,22.48 Z M102.77,22.48 L108.82,22.48 L152.97,79.83 L153.07,94.11 L102.77,22.48 L102.77,22.48 Z M143.6,22.4 C143.19,27.15 142.66,32.45 143.52,38.33 C140.81,37.34 140.17,39.03 139.72,39.21 C139.21,38.07 137.32,36.09 135.18,38.42 C134.07,39.62 134.61,41.89 137.19,42.92 C134.24,43.14 132.7,40.61 132.18,37.99 C130.58,36.97 128.9,35.95 128.74,32.35 L129.56,32.49 C129.29,35 131.89,36.28 133.41,35.08 C134.39,34.32 134.5,33.16 134.11,31.34 C134.9,31.18 136.75,30.4 136.26,28.02 C135.59,24.72 132.22,25.11 130.68,27.28 C129.4,25.68 127.05,25.39 126.11,27.86 C125.58,29.24 126.78,30.78 128.14,31.08 C125.12,31.66 123.6,27.49 123.43,24.66 L122.18,22.44 C130.33,22.39 133.9,22.4 143.6,22.4 L143.6,22.4 Z M101.92,22.05 L154.01,96.23 L154.05,79.75 L137.34,58.1 C141.14,56.92 145.79,56.11 149.45,55.78 C144.75,45.33 142.4,35.51 144.47,22.05 C129.87,21.88 115.2,21.91 101.92,22.05 L101.92,22.05 Z" id="Fill-595" fill="#0A0A08"></path>
        <path d="M15.07,57.12 C13.35,54.27 11.54,51.51 9.27,49.15 C11.54,46.78 13.35,44.02 15.07,41.17 C16.79,44.02 18.6,46.78 20.86,49.15 C18.6,51.51 16.79,54.27 15.07,57.12" id="Fill-596" fill="#C0242A"></path>
        <path d="M164.76,210.12 C163.04,207.28 161.23,204.51 158.96,202.15 C161.23,199.78 163.04,197.02 164.76,194.17 C166.48,197.02 168.29,199.78 170.55,202.15 C168.29,204.51 166.48,207.28 164.76,210.12" id="Fill-597" fill="#C0242A"></path>
        <path d="M48.87,65.67 C44.74,58.84 40.39,52.2 34.96,46.53 C40.39,40.86 44.74,34.22 48.87,27.39 C53,34.22 57.34,40.86 62.78,46.53 C57.34,52.2 53,58.84 48.87,65.67" id="Fill-598" fill="#C0242A"></path>
        <path d="M130.96,223.91 C126.83,217.08 122.48,210.44 117.05,204.77 C122.48,199.1 126.83,192.46 130.96,185.63 C135.09,192.46 139.43,199.1 144.86,204.77 C139.43,210.44 135.09,217.08 130.96,223.91" id="Fill-599" fill="#C0242A"></path>
        <path d="M17.61,17.88 C16.8,15.59 14.72,14.81 13.21,16.24 C12.26,17.13 12.11,18.07 12.09,23.17 C12.07,26.32 12.07,27.64 12.07,27.64 C15.03,28.6 17.79,32.04 17.76,32 L17.83,22.49 C17.89,20.94 17.82,19.4 17.61,17.88 L17.61,17.88 Z M16.7,35.2 C15.62,33.62 13.78,31.47 12.06,30.71 C11.95,32.52 12.11,34.04 12.74,34.86 C13.76,36.16 15.39,36.45 16.7,35.2 L16.7,35.2 Z M9.28,29.96 L7.08,29.96 L7.08,26.96 L9.28,26.96 C9.28,26.96 9.3,25.35 9.36,22.5 C9.5,16.42 9.65,15.48 11.4,13.81 C14.87,10.51 20.68,13.2 20.61,18.17 C20.51,25.18 20.58,31.86 20.38,32.81 C20.01,34.48 19.98,34.57 20.13,34.88 C20.43,35.49 23.05,35.75 23.05,35.58 L23.05,38.54 C21.05,38.69 20.22,38.5 18.61,37.36 C17.61,38.33 14.57,39.3 12.14,38.15 C10.3,37.29 8.9,35.04 9.28,29.96 L9.28,29.96 Z" id="Fill-600" fill="#C0242A"></path>
        <path d="M162.22,233.42 C163.03,235.71 165.1,236.48 166.62,235.05 C167.57,234.16 167.72,233.22 167.74,228.12 C167.75,224.97 167.75,223.65 167.75,223.65 C164.8,222.69 162.04,219.25 162.06,219.29 L161.99,228.8 C161.94,230.35 162.01,231.89 162.22,233.42 L162.22,233.42 Z M163.12,216.1 C164.21,217.67 166.04,219.82 167.77,220.58 C167.88,218.77 167.72,217.25 167.08,216.44 C166.07,215.14 164.44,214.84 163.12,216.1 L163.12,216.1 Z M170.55,221.33 L172.74,221.33 L172.74,224.33 L170.55,224.33 C170.55,224.33 170.53,225.94 170.47,228.79 C170.33,234.87 170.18,235.81 168.42,237.48 C164.96,240.79 159.15,238.09 159.22,233.13 C159.32,226.11 159.24,219.43 159.45,218.48 C159.81,216.81 159.85,216.72 159.7,216.41 C159.4,215.8 156.77,215.54 156.77,215.71 L156.77,212.75 C158.78,212.6 159.61,212.79 161.21,213.93 C162.21,212.97 165.26,212 167.68,213.14 C169.53,214.01 170.92,216.25 170.55,221.33 L170.55,221.33 Z" id="Fill-601" fill="#C0242A"></path>
    </g>
</svg>