<?xml version="1.0" encoding="UTF-8" standalone="no"?>
<svg width="178px" height="250px" viewBox="0 0 178 250" version="1.1" xmlns="http://www.w3.org/2000/svg" xmlns:xlink="http://www.w3.org/1999/xlink">
    <!-- Generator: Sketch 39.1 (31720) - http://www.bohemiancoding.com/sketch -->
    <title>2S</title>
    <desc>Created with Sketch.</desc>
    <defs></defs>
    <g id="Page-1" stroke="none" stroke-width="1" fill="none" fill-rule="evenodd">
        <path d="M8.697,0.87 L169.476,0.87 C174.172,0.87 177.979,4.68 177.979,9.38 L177.979,241.02 C177.979,245.71 174.172,249.52 169.476,249.52 L8.697,249.52 C4.001,249.52 0.193,245.71 0.193,241.02 L0.193,9.38 C0.193,4.68 4.001,0.87 8.697,0.87" id="Fill-162" fill="#FFFFFF"></path>
        <path d="M13.906,40.72 C10.473,45.09 6.8,47.61 6.738,51.02 C6.718,52.12 7.387,54 9.481,54.36 C10.841,54.59 12.712,53.61 12.751,51.62 C12.742,51.22 13.222,51.23 13.217,51.77 C13.153,53.35 12.596,55.18 11.657,56.67 L16.154,56.67 C15.217,55.18 14.659,53.35 14.595,51.77 C14.587,51.23 15.067,51.22 15.062,51.62 C15.101,53.61 16.972,54.59 18.331,54.36 C20.426,54 21.094,52.12 21.073,51.02 C21.012,47.61 17.339,45.09 13.906,40.72" id="Fill-164" fill="#0A0A08"></path>
        <path d="M164.268,209.67 C160.835,205.3 157.161,202.78 157.101,199.37 C157.08,198.27 157.749,196.39 159.843,196.03 C161.202,195.8 163.073,196.78 163.112,198.78 C163.104,199.17 163.583,199.17 163.579,198.62 C163.515,197.05 162.957,195.21 162.02,193.72 L166.517,193.72 C165.579,195.21 165.021,197.05 164.957,198.62 C164.949,199.17 165.43,199.17 165.424,198.78 C165.462,196.78 167.333,195.8 168.692,196.03 C170.787,196.39 171.456,198.27 171.436,199.37 C171.374,202.78 167.701,205.3 164.268,209.67" id="Fill-165" fill="#0A0A08"></path>
        <path d="M89.087,26.94 C81.738,37.44 73.877,43.47 73.746,51.66 C73.702,54.31 75.134,58.81 79.616,59.68 C82.525,60.23 86.529,57.88 86.613,53.09 C86.601,52.13 87.621,52.16 87.612,53.47 C87.475,57.24 86.281,61.64 84.273,65.22 L93.899,65.22 C91.893,61.64 90.698,57.24 90.562,53.47 C90.552,52.16 91.572,52.13 91.56,53.09 C91.644,57.88 95.648,60.23 98.557,59.68 C103.04,58.81 104.471,54.31 104.427,51.66 C104.297,43.47 96.435,37.44 89.087,26.94" id="Fill-166" fill="#0A0A08"></path>
        <path d="M89.087,223.45 C81.738,212.96 73.877,206.92 73.746,198.73 C73.702,196.08 75.134,191.58 79.616,190.72 C82.525,190.16 86.529,192.52 86.613,197.31 C86.601,198.26 87.621,198.23 87.612,196.93 C87.475,193.15 86.281,188.75 84.273,185.17 L93.899,185.17 C91.893,188.75 90.698,193.15 90.562,196.93 C90.552,198.23 91.572,198.26 91.56,197.31 C91.644,192.52 95.648,190.16 98.557,190.72 C103.04,191.58 104.471,196.08 104.427,198.73 C104.297,206.92 96.435,212.96 89.087,223.45" id="Fill-167" fill="#0A0A08"></path>
        <path d="M6.425,38.17 L6.553,36.54 C6.957,31.53 8.033,29.84 14.138,24.6 C17.101,22.06 18.072,20.81 18.209,19.36 C18.597,15.93 15.569,14.86 13.597,14.85 C11.041,14.83 8.149,16.38 9.529,20 L6.661,20.86 C6.085,17.48 6.678,14.32 9.361,12.91 C12.945,11.08 17.541,11.8 19.861,14.69 C21.421,16.62 21.777,19.3 20.94,21.4 C18.496,26.76 10.205,29.12 9.521,35.32 L18.685,35.32 L18.685,31.87 L21.385,31.87 L21.385,38.22 L6.425,38.17" id="Fill-168" fill="#0A0A08"></path>
        <path d="M171.746,212.23 L171.618,213.85 C171.214,218.87 170.138,220.56 164.034,225.79 C161.07,228.33 160.099,229.58 159.963,231.03 C159.575,234.46 162.603,235.53 164.575,235.55 C167.131,235.57 170.022,234.01 168.642,230.39 L171.51,229.53 C172.087,232.91 171.493,236.08 168.81,237.48 C165.226,239.31 160.631,238.6 158.311,235.71 C156.751,233.77 156.395,231.09 157.23,228.99 C159.675,223.63 167.966,221.28 168.65,215.08 L159.486,215.08 L159.486,218.53 L156.786,218.53 L156.786,212.17 L171.746,212.23" id="Fill-169" fill="#0A0A08"></path>
    </g>
</svg>