<?xml version="1.0" encoding="UTF-8" standalone="no"?>
<svg width="179px" height="250px" viewBox="0 0 179 250" version="1.1" xmlns="http://www.w3.org/2000/svg" xmlns:xlink="http://www.w3.org/1999/xlink">
    <!-- Generator: Sketch 39.1 (31720) - http://www.bohemiancoding.com/sketch -->
    <title>4S</title>
    <desc>Created with Sketch.</desc>
    <defs></defs>
    <g id="Page-1" stroke="none" stroke-width="1" fill="none" fill-rule="evenodd">
        <path d="M8.86,0.87 L169.64,0.87 C174.34,0.87 178.14,4.68 178.14,9.38 L178.14,241.02 C178.14,245.71 174.34,249.52 169.64,249.52 L8.86,249.52 C4.17,249.52 0.36,245.71 0.36,241.02 L0.36,9.38 C0.36,4.68 4.17,0.87 8.86,0.87" id="Fill-179" fill="#FFFFFF"></path>
        <path d="M48.02,26.94 C40.68,37.44 32.81,43.47 32.68,51.66 C32.64,54.31 34.07,58.81 38.55,59.68 C41.46,60.23 45.47,57.88 45.55,53.09 C45.54,52.13 46.56,52.16 46.55,53.47 C46.41,57.24 45.22,61.64 43.21,65.22 L52.84,65.22 C50.83,61.64 49.64,57.24 49.5,53.47 C49.49,52.16 50.51,52.13 50.5,53.09 C50.58,57.88 54.58,60.23 57.49,59.68 C61.98,58.81 63.41,54.31 63.36,51.66 C63.23,43.47 55.37,37.44 48.02,26.94" id="Fill-181" fill="#0A0A08"></path>
        <path d="M14.07,40.72 C10.64,45.09 6.96,47.61 6.9,51.02 C6.88,52.12 7.55,54 9.65,54.36 C11.01,54.59 12.88,53.61 12.92,51.62 C12.91,51.22 13.39,51.23 13.38,51.77 C13.32,53.35 12.76,55.18 11.82,56.67 L16.32,56.67 C15.38,55.18 14.82,53.35 14.76,51.77 C14.75,51.23 15.23,51.22 15.23,51.62 C15.27,53.61 17.14,54.59 18.5,54.36 C20.59,54 21.26,52.12 21.24,51.02 C21.18,47.61 17.5,45.09 14.07,40.72" id="Fill-182" fill="#0A0A08"></path>
        <path d="M164.43,209.67 C161,205.3 157.33,202.78 157.27,199.37 C157.25,198.27 157.91,196.39 160.01,196.03 C161.37,195.8 163.24,196.78 163.28,198.78 C163.27,199.17 163.75,199.17 163.74,198.62 C163.68,197.05 163.12,195.21 162.18,193.72 L166.68,193.72 C165.74,195.21 165.19,197.05 165.12,198.62 C165.11,199.17 165.59,199.17 165.59,198.78 C165.63,196.78 167.5,195.8 168.86,196.03 C170.95,196.39 171.62,198.27 171.6,199.37 C171.54,202.78 167.87,205.3 164.43,209.67" id="Fill-183" fill="#0A0A08"></path>
        <path d="M130.48,26.94 C123.13,37.44 115.27,43.47 115.14,51.66 C115.1,54.31 116.53,58.81 121.01,59.68 C123.92,60.23 127.92,57.88 128.01,53.09 C127.99,52.13 129.02,52.16 129.01,53.47 C128.87,57.24 127.67,61.64 125.67,65.22 L135.29,65.22 C133.29,61.64 132.09,57.24 131.96,53.47 C131.95,52.16 132.97,52.13 132.95,53.09 C133.04,57.88 137.04,60.23 139.95,59.68 C144.43,58.81 145.87,54.31 145.82,51.66 C145.69,43.47 137.83,37.44 130.48,26.94" id="Fill-184" fill="#0A0A08"></path>
        <path d="M48.02,223.45 C40.68,212.96 32.81,206.92 32.68,198.73 C32.64,196.08 34.07,191.58 38.55,190.72 C41.46,190.16 45.47,192.52 45.55,197.31 C45.54,198.26 46.56,198.23 46.55,196.93 C46.41,193.15 45.22,188.75 43.21,185.17 L52.84,185.17 C50.83,188.75 49.64,193.15 49.5,196.93 C49.49,198.23 50.51,198.26 50.5,197.31 C50.58,192.52 54.58,190.16 57.49,190.72 C61.98,191.58 63.41,196.08 63.36,198.73 C63.23,206.92 55.37,212.96 48.02,223.45" id="Fill-185" fill="#0A0A08"></path>
        <path d="M130.48,223.45 C123.13,212.96 115.27,206.92 115.14,198.73 C115.1,196.08 116.53,191.58 121.01,190.72 C123.92,190.16 127.92,192.52 128.01,197.31 C127.99,198.26 129.02,198.23 129.01,196.93 C128.87,193.15 127.67,188.75 125.67,185.17 L135.29,185.17 C133.29,188.75 132.09,193.15 131.96,196.93 C131.95,198.23 132.97,198.26 132.95,197.31 C133.04,192.52 137.04,190.16 139.95,190.72 C144.43,191.58 145.87,196.08 145.82,198.73 C145.69,206.92 137.83,212.96 130.48,223.45" id="Fill-186" fill="#0A0A08"></path>
        <path d="M16.35,18.29 L9.15,29.36 L16.35,29.36 L16.35,18.29 L16.35,18.29 Z M14.25,38.22 L14.25,35.89 L16.35,35.89 L16.35,32.06 L5.87,32.06 L5.87,29.35 L17.21,11.91 L19.06,11.92 L19.06,29.35 L22.27,29.35 L22.27,32.06 L19.06,32.06 L19,35.89 L20.76,35.89 L20.76,38.22 L14.25,38.22 L14.25,38.22 Z" id="Fill-187" fill="#0A0A08"></path>
        <path d="M162.15,232.1 L169.35,221.04 L162.15,221.04 L162.15,232.1 L162.15,232.1 Z M164.25,212.17 L164.25,214.5 L162.15,214.5 L162.15,218.33 L172.63,218.33 L172.63,221.04 L161.29,238.49 L159.44,238.48 L159.44,221.04 L156.23,221.04 L156.23,218.33 L159.44,218.33 L159.5,214.5 L157.75,214.5 L157.75,212.17 L164.25,212.17 L164.25,212.17 Z" id="Fill-188" fill="#0A0A08"></path>
    </g>
</svg>