<?xml version="1.0" encoding="UTF-8" standalone="no"?>
<svg width="179px" height="250px" viewBox="0 0 179 250" version="1.1" xmlns="http://www.w3.org/2000/svg" xmlns:xlink="http://www.w3.org/1999/xlink">
    <!-- Generator: Sketch 39.1 (31720) - http://www.bohemiancoding.com/sketch -->
    <title>6S</title>
    <desc>Created with Sketch.</desc>
    <defs></defs>
    <g id="Page-1" stroke="none" stroke-width="1" fill="none" fill-rule="evenodd">
        <path d="M9.03,0.87 L169.81,0.87 C174.5,0.87 178.31,4.68 178.31,9.38 L178.31,241.02 C178.31,245.71 174.5,249.52 169.81,249.52 L9.03,249.52 C4.33,249.52 0.52,245.71 0.52,241.02 L0.52,9.38 C0.52,4.68 4.33,0.87 9.03,0.87" id="Fill-200" fill="#FFFFFF"></path>
        <path d="M48.19,26.94 C40.84,37.44 32.98,43.47 32.85,51.66 C32.8,54.31 34.24,58.81 38.72,59.68 C41.63,60.23 45.63,57.88 45.72,53.09 C45.7,52.13 46.72,52.16 46.71,53.47 C46.58,57.24 45.38,61.64 43.38,65.22 L53,65.22 C51,61.64 49.8,57.24 49.66,53.47 C49.65,52.16 50.67,52.13 50.66,53.09 C50.75,57.88 54.75,60.23 57.66,59.68 C62.14,58.81 63.57,54.31 63.53,51.66 C63.4,43.47 55.54,37.44 48.19,26.94" id="Fill-202" fill="#0A0A08"></path>
        <path d="M14.24,40.72 C10.8,45.09 7.13,47.61 7.07,51.02 C7.05,52.12 7.72,54 9.81,54.36 C11.17,54.59 13.04,53.61 13.08,51.62 C13.07,51.22 13.55,51.23 13.55,51.77 C13.48,53.35 12.93,55.18 11.99,56.67 L16.49,56.67 C15.55,55.18 14.99,53.35 14.93,51.77 C14.92,51.23 15.4,51.22 15.39,51.62 C15.43,53.61 17.3,54.59 18.66,54.36 C20.76,54 21.42,52.12 21.4,51.02 C21.34,47.61 17.67,45.09 14.24,40.72" id="Fill-203" fill="#0A0A08"></path>
        <path d="M164.6,209.67 C161.17,205.3 157.49,202.78 157.43,199.37 C157.41,198.27 158.08,196.39 160.17,196.03 C161.53,195.8 163.4,196.78 163.44,198.78 C163.43,199.17 163.91,199.17 163.91,198.62 C163.85,197.05 163.29,195.21 162.35,193.72 L166.85,193.72 C165.91,195.21 165.35,197.05 165.29,198.62 C165.28,199.17 165.76,199.17 165.75,198.78 C165.79,196.78 167.66,195.8 169.02,196.03 C171.12,196.39 171.79,198.27 171.77,199.37 C171.7,202.78 168.03,205.3 164.6,209.67" id="Fill-204" fill="#0A0A08"></path>
        <path d="M130.65,26.94 C123.3,37.44 115.44,43.47 115.3,51.66 C115.26,54.31 116.69,58.81 121.18,59.68 C124.08,60.23 128.09,57.88 128.17,53.09 C128.16,52.13 129.18,52.16 129.17,53.47 C129.03,57.24 127.84,61.64 125.83,65.22 L135.46,65.22 C133.45,61.64 132.26,57.24 132.12,53.47 C132.11,52.16 133.13,52.13 133.12,53.09 C133.2,57.88 137.21,60.23 140.12,59.68 C144.6,58.81 146.03,54.31 145.99,51.66 C145.86,43.47 137.99,37.44 130.65,26.94" id="Fill-205" fill="#0A0A08"></path>
        <path d="M48.19,106.06 C40.84,116.55 32.98,122.59 32.85,130.77 C32.8,133.42 34.24,137.93 38.72,138.79 C41.63,139.35 45.63,136.99 45.72,132.2 C45.7,131.25 46.72,131.27 46.71,132.58 C46.58,136.36 45.38,140.76 43.38,144.33 L53,144.33 C51,140.76 49.8,136.36 49.66,132.58 C49.65,131.27 50.67,131.25 50.66,132.2 C50.75,136.99 54.75,139.35 57.66,138.79 C62.14,137.93 63.57,133.42 63.53,130.77 C63.4,122.59 55.54,116.55 48.19,106.06" id="Fill-206" fill="#0A0A08"></path>
        <path d="M48.19,223.45 C40.84,212.96 32.98,206.92 32.85,198.73 C32.8,196.08 34.24,191.58 38.72,190.72 C41.63,190.16 45.63,192.52 45.72,197.31 C45.7,198.26 46.72,198.23 46.71,196.93 C46.58,193.15 45.38,188.75 43.38,185.17 L53,185.17 C51,188.75 49.8,193.15 49.66,196.93 C49.65,198.23 50.67,198.26 50.66,197.31 C50.75,192.52 54.75,190.16 57.66,190.72 C62.14,191.58 63.57,196.08 63.53,198.73 C63.4,206.92 55.54,212.96 48.19,223.45" id="Fill-207" fill="#0A0A08"></path>
        <path d="M130.65,223.45 C123.3,212.96 115.44,206.92 115.3,198.73 C115.26,196.08 116.69,191.58 121.18,190.72 C124.08,190.16 128.09,192.52 128.17,197.31 C128.16,198.26 129.18,198.23 129.17,196.93 C129.03,193.15 127.84,188.75 125.83,185.17 L135.46,185.17 C133.45,188.75 132.26,193.15 132.12,196.93 C132.11,198.23 133.13,198.26 133.12,197.31 C133.2,192.52 137.21,190.16 140.12,190.72 C144.6,191.58 146.03,196.08 145.99,198.73 C145.86,206.92 137.99,212.96 130.65,223.45" id="Fill-208" fill="#0A0A08"></path>
        <path d="M130.65,106.06 C123.3,116.55 115.44,122.59 115.3,130.77 C115.26,133.42 116.69,137.93 121.18,138.79 C124.08,139.35 128.09,136.99 128.17,132.2 C128.16,131.25 129.18,131.27 129.17,132.58 C129.03,136.36 127.84,140.76 125.83,144.33 L135.46,144.33 C133.45,140.76 132.26,136.36 132.12,132.58 C132.11,131.27 133.13,131.25 133.12,132.2 C133.2,136.99 137.21,139.35 140.12,138.79 C144.6,137.93 146.03,133.42 145.99,130.77 C145.86,122.59 137.99,116.55 130.65,106.06" id="Fill-209" fill="#0A0A08"></path>
        <path d="M19.63,28.75 C19.66,25.14 18.02,22.44 14.92,22.14 C11.83,21.84 8.7,24.87 8.92,28.55 C9.13,32.24 10.56,35.35 14.32,35.33 C18.36,35.32 19.61,31.32 19.63,28.75 L19.63,28.75 Z M6.52,30.13 C6.19,27.91 6.2,22.18 6.47,20.49 C7.28,15.3 9.26,12.93 12.58,12.15 C15.8,11.4 20.32,12.24 21.31,16.58 L18.62,16.63 C17.17,13.7 13.48,14.48 11.41,15.75 C9.75,16.77 9,21.01 9.32,21.27 C9.32,21.27 12.45,18.95 14.92,19.12 C20.2,19.67 22.37,24.25 22.19,28.58 C22.02,33.78 20.37,37.95 14.78,38.22 C9.47,38.02 7.03,35.11 6.52,30.13 L6.52,30.13 Z" id="Fill-210" fill="#0A0A08"></path>
        <path d="M159.2,221.64 C159.17,225.25 160.81,227.96 163.91,228.25 C167.01,228.55 170.13,225.53 169.92,221.85 C169.7,218.15 168.27,215.04 164.51,215.06 C160.48,215.08 159.22,219.07 159.2,221.64 L159.2,221.64 Z M172.32,220.27 C172.64,222.48 172.63,228.21 172.37,229.9 C171.55,235.09 169.57,237.47 166.26,238.24 C163.04,239 158.51,238.16 157.52,233.82 L160.21,233.77 C161.67,236.7 165.35,235.92 167.43,234.64 C169.08,233.62 169.83,229.38 169.51,229.12 C169.51,229.12 166.38,231.44 163.91,231.27 C158.64,230.72 156.46,226.14 156.64,221.81 C156.81,216.61 158.46,212.45 164.05,212.17 C169.37,212.38 171.8,215.28 172.32,220.27 L172.32,220.27 Z" id="Fill-211" fill="#0A0A08"></path>
    </g>
</svg>