<?xml version="1.0" encoding="UTF-8" standalone="no"?>
<svg width="179px" height="250px" viewBox="0 0 179 250" version="1.1" xmlns="http://www.w3.org/2000/svg" xmlns:xlink="http://www.w3.org/1999/xlink">
    <!-- Generator: Sketch 39.1 (31720) - http://www.bohemiancoding.com/sketch -->
    <title>9S</title>
    <desc>Created with Sketch.</desc>
    <defs></defs>
    <g id="Page-1" stroke="none" stroke-width="1" fill="none" fill-rule="evenodd">
        <path d="M8.78,0.87 L169.55,0.87 C174.25,0.87 178.06,4.68 178.06,9.38 L178.06,241.02 C178.06,245.71 174.25,249.52 169.55,249.52 L8.78,249.52 C4.08,249.52 0.27,245.71 0.27,241.02 L0.27,9.38 C0.27,4.68 4.08,0.87 8.78,0.87" id="Fill-239" fill="#FFFFFF"></path>
        <path d="M47.94,26.94 C40.59,37.44 32.73,43.47 32.6,51.66 C32.55,54.31 33.98,58.81 38.47,59.68 C41.38,60.23 45.38,57.88 45.46,53.09 C45.45,52.13 46.47,52.16 46.46,53.47 C46.33,57.24 45.13,61.64 43.13,65.22 L52.75,65.22 C50.74,61.64 49.55,57.24 49.41,53.47 C49.4,52.16 50.42,52.13 50.41,53.09 C50.49,57.88 54.5,60.23 57.41,59.68 C61.89,58.81 63.32,54.31 63.28,51.66 C63.15,43.47 55.29,37.44 47.94,26.94" id="Fill-241" fill="#0A0A08"></path>
        <path d="M13.98,40.72 C10.55,45.09 6.88,47.61 6.82,51.02 C6.8,52.12 7.47,54 9.56,54.36 C10.92,54.59 12.79,53.61 12.83,51.62 C12.82,51.22 13.3,51.23 13.3,51.77 C13.23,53.35 12.67,55.18 11.74,56.67 L16.23,56.67 C15.29,55.18 14.74,53.35 14.67,51.77 C14.67,51.23 15.15,51.22 15.14,51.62 C15.18,53.61 17.05,54.59 18.41,54.36 C20.5,54 21.17,52.12 21.15,51.02 C21.09,47.61 17.42,45.09 13.98,40.72" id="Fill-242" fill="#0A0A08"></path>
        <path d="M47.94,170.71 C40.59,160.21 32.73,154.18 32.6,145.99 C32.55,143.34 33.98,138.84 38.47,137.97 C41.38,137.42 45.38,139.77 45.46,144.56 C45.45,145.52 46.47,145.49 46.46,144.18 C46.33,140.41 45.13,136.01 43.13,132.43 L52.75,132.43 C50.74,136.01 49.55,140.41 49.41,144.18 C49.4,145.49 50.42,145.52 50.41,144.56 C50.49,139.77 54.5,137.42 57.41,137.97 C61.89,138.84 63.32,143.34 63.28,145.99 C63.15,154.18 55.29,160.21 47.94,170.71" id="Fill-243" fill="#0A0A08"></path>
        <path d="M164.35,209.67 C160.91,205.3 157.24,202.78 157.18,199.37 C157.16,198.27 157.83,196.39 159.92,196.03 C161.28,195.8 163.15,196.78 163.19,198.78 C163.18,199.17 163.66,199.17 163.66,198.62 C163.59,197.05 163.04,195.21 162.1,193.72 L166.59,193.72 C165.66,195.21 165.1,197.05 165.04,198.62 C165.03,199.17 165.51,199.17 165.5,198.78 C165.54,196.78 167.41,195.8 168.77,196.03 C170.87,196.39 171.53,198.27 171.51,199.37 C171.45,202.78 167.78,205.3 164.35,209.67" id="Fill-244" fill="#0A0A08"></path>
        <path d="M130.39,26.94 C123.05,37.44 115.18,43.47 115.05,51.66 C115.01,54.31 116.44,58.81 120.92,59.68 C123.83,60.23 127.84,57.88 127.92,53.09 C127.91,52.13 128.93,52.16 128.92,53.47 C128.78,57.24 127.59,61.64 125.58,65.22 L135.21,65.22 C133.2,61.64 132.01,57.24 131.87,53.47 C131.86,52.16 132.88,52.13 132.87,53.09 C132.95,57.88 136.96,60.23 139.86,59.68 C144.35,58.81 145.78,54.31 145.73,51.66 C145.6,43.47 137.74,37.44 130.39,26.94" id="Fill-245" fill="#0A0A08"></path>
        <path d="M47.94,79.69 C40.59,90.18 32.73,96.22 32.6,104.4 C32.55,107.05 33.98,111.56 38.47,112.42 C41.38,112.98 45.38,110.62 45.46,105.83 C45.45,104.88 46.47,104.9 46.46,106.21 C46.33,109.99 45.13,114.38 43.13,117.96 L52.75,117.96 C50.74,114.38 49.55,109.99 49.41,106.21 C49.4,104.9 50.42,104.88 50.41,105.83 C50.49,110.62 54.5,112.98 57.41,112.42 C61.89,111.56 63.32,107.05 63.28,104.4 C63.15,96.22 55.29,90.18 47.94,79.69" id="Fill-246" fill="#0A0A08"></path>
        <path d="M130.39,79.69 C123.05,90.18 115.18,96.22 115.05,104.4 C115.01,107.05 116.44,111.56 120.92,112.42 C123.83,112.98 127.84,110.62 127.92,105.83 C127.91,104.88 128.93,104.9 128.92,106.21 C128.78,109.99 127.59,114.38 125.58,117.96 L135.21,117.96 C133.2,114.38 132.01,109.99 131.87,106.21 C131.86,104.9 132.88,104.88 132.87,105.83 C132.95,110.62 136.96,112.98 139.86,112.42 C144.35,111.56 145.78,107.05 145.73,104.4 C145.6,96.22 137.74,90.18 130.39,79.69" id="Fill-247" fill="#0A0A08"></path>
        <path d="M47.94,223.45 C40.59,212.96 32.73,206.92 32.6,198.73 C32.55,196.08 33.98,191.58 38.47,190.72 C41.38,190.16 45.38,192.52 45.46,197.31 C45.45,198.26 46.47,198.23 46.46,196.93 C46.33,193.15 45.13,188.75 43.13,185.17 L52.75,185.17 C50.74,188.75 49.55,193.15 49.41,196.93 C49.4,198.23 50.42,198.26 50.41,197.31 C50.49,192.52 54.5,190.16 57.41,190.72 C61.89,191.58 63.32,196.08 63.28,198.73 C63.15,206.92 55.29,212.96 47.94,223.45" id="Fill-248" fill="#0A0A08"></path>
        <path d="M130.39,223.45 C123.05,212.96 115.18,206.92 115.05,198.73 C115.01,196.08 116.44,191.58 120.92,190.72 C123.83,190.16 127.84,192.52 127.92,197.31 C127.91,198.26 128.93,198.23 128.92,196.93 C128.78,193.15 127.59,188.75 125.58,185.17 L135.21,185.17 C133.2,188.75 132.01,193.15 131.87,196.93 C131.86,198.23 132.88,198.26 132.87,197.31 C132.95,192.52 136.96,190.16 139.86,190.72 C144.35,191.58 145.78,196.08 145.73,198.73 C145.6,206.92 137.74,212.96 130.39,223.45" id="Fill-249" fill="#0A0A08"></path>
        <path d="M130.39,170.71 C123.05,160.21 115.18,154.18 115.05,145.99 C115.01,143.34 116.44,138.84 120.92,137.97 C123.83,137.42 127.84,139.77 127.92,144.56 C127.91,145.52 128.93,145.49 128.92,144.18 C128.78,140.41 127.59,136.01 125.58,132.43 L135.21,132.43 C133.2,136.01 132.01,140.41 131.87,144.18 C131.86,145.49 132.88,145.52 132.87,144.56 C132.95,139.77 136.96,137.42 139.86,137.97 C144.35,138.84 145.78,143.34 145.73,145.99 C145.6,154.18 137.74,160.21 130.39,170.71" id="Fill-250" fill="#0A0A08"></path>
        <path d="M89.17,106.06 C81.82,116.55 73.96,122.59 73.83,130.77 C73.78,133.42 75.21,137.93 79.7,138.79 C82.6,139.35 86.61,136.99 86.69,132.2 C86.68,131.25 87.7,131.27 87.69,132.58 C87.55,136.36 86.36,140.76 84.35,144.33 L93.98,144.33 C91.97,140.76 90.78,136.36 90.64,132.58 C90.63,131.27 91.65,131.25 91.64,132.2 C91.72,136.99 95.73,139.35 98.64,138.79 C103.12,137.93 104.55,133.42 104.51,130.77 C104.38,122.59 96.51,116.55 89.17,106.06" id="Fill-251" fill="#0A0A08"></path>
        <path d="M16.09,26.47 C17.22,25.75 17.85,25.08 18.36,24.07 C18.78,23.25 18.92,22.81 18.8,21.1 C18.49,16.68 16.18,14.17 12.83,14.67 C10.96,14.95 9.93,16 9.34,17.95 C8.26,21.56 9.63,25.77 12.21,26.75 C13.37,27.19 15.16,27.06 16.09,26.47 L16.09,26.47 Z M6.64,33.15 L9.05,32.39 C9.96,34.81 11.79,35.53 13.73,35.38 C17.21,35.1 18.36,31.2 18.62,27.76 C17.27,29.2 15.23,29.93 13.49,29.86 C7.95,29.56 6.53,25.11 6.47,20.46 C6.32,16.54 7.94,13.69 10.72,12.39 C12.19,11.73 15.56,11.73 17.04,12.51 C20.45,14.31 21.71,17.41 21.48,24.82 C21.48,30.91 20.18,38.01 13.66,38.16 C9.89,38.68 7.03,35.75 6.64,33.15 L6.64,33.15 Z" id="Fill-252" fill="#0A0A08"></path>
        <path d="M162.24,223.92 C161.11,224.64 160.47,225.31 159.97,226.32 C159.55,227.15 159.41,227.58 159.53,229.29 C159.83,233.71 162.15,236.22 165.5,235.72 C167.37,235.44 168.4,234.39 168.99,232.44 C170.07,228.84 168.69,224.62 166.12,223.65 C164.96,223.21 163.17,223.33 162.24,223.92 L162.24,223.92 Z M171.69,217.25 L169.28,218.01 C168.38,215.58 166.54,214.86 164.6,215.02 C161.12,215.3 159.97,219.19 159.71,222.63 C161.06,221.19 163.1,220.46 164.84,220.54 C170.38,220.83 171.8,225.28 171.86,229.93 C172.01,233.86 170.39,236.7 167.61,238.01 C166.13,238.67 162.76,238.67 161.28,237.88 C157.88,236.09 156.62,232.99 156.85,225.58 C156.85,219.48 158.14,212.39 164.67,212.23 C168.44,211.71 171.3,214.65 171.69,217.25 L171.69,217.25 Z" id="Fill-253" fill="#0A0A08"></path>
    </g>
</svg>