<?xml version="1.0" encoding="UTF-8" standalone="no"?>
<svg width="178px" height="250px" viewBox="0 0 178 250" version="1.1" xmlns="http://www.w3.org/2000/svg" xmlns:xlink="http://www.w3.org/1999/xlink">
    <!-- Generator: Sketch 39.1 (31720) - http://www.bohemiancoding.com/sketch -->
    <title>QS</title>
    <desc>Created with Sketch.</desc>
    <defs></defs>
    <g id="Page-1" stroke="none" stroke-width="1" fill="none" fill-rule="evenodd">
        <path d="M8.52,0.87 L169.3,0.87 C174,0.87 177.81,4.68 177.81,9.38 L177.81,241.02 C177.81,245.71 174,249.52 169.3,249.52 L8.52,249.52 C3.83,249.52 0.02,245.71 0.02,241.02 L0.02,9.38 C0.02,4.68 3.83,0.87 8.52,0.87" id="Fill-284" fill="#FFFFFF"></path>
        <path d="M13.73,40.72 C10.3,45.09 6.63,47.61 6.57,51.02 C6.54,52.12 7.21,54 9.31,54.36 C10.67,54.59 12.54,53.61 12.58,51.62 C12.57,51.22 13.05,51.23 13.04,51.77 C12.98,53.35 12.42,55.18 11.48,56.67 L15.98,56.67 C15.04,55.18 14.49,53.35 14.42,51.77 C14.41,51.23 14.89,51.22 14.89,51.62 C14.93,53.61 16.8,54.59 18.16,54.36 C20.25,54 20.92,52.12 20.9,51.02 C20.84,47.61 17.17,45.09 13.73,40.72" id="Fill-286" fill="#0A0A08"></path>
        <path d="M164.09,209.67 C160.66,205.3 156.99,202.78 156.93,199.37 C156.91,198.27 157.58,196.39 159.67,196.03 C161.03,195.8 162.9,196.78 162.94,198.78 C162.93,199.18 163.41,199.17 163.41,198.62 C163.34,197.05 162.78,195.21 161.85,193.72 L166.34,193.72 C165.41,195.21 164.85,197.05 164.78,198.62 C164.78,199.17 165.26,199.18 165.25,198.78 C165.29,196.78 167.16,195.8 168.52,196.03 C170.61,196.39 171.28,198.27 171.26,199.37 C171.2,202.78 167.53,205.3 164.09,209.67" id="Fill-287" fill="#0A0A08"></path>
        <path d="M16.27,17.43 C15.46,15.14 13.39,14.36 11.87,15.79 C10.92,16.68 10.77,17.62 10.75,22.72 C10.74,25.87 10.74,27.19 10.74,27.19 C13.69,28.15 16.45,31.59 16.43,31.55 L16.5,22.04 C16.55,20.49 16.48,18.95 16.27,17.43 L16.27,17.43 Z M15.37,34.75 C14.28,33.17 12.45,31.02 10.72,30.26 C10.62,32.07 10.77,33.59 11.41,34.41 C12.42,35.71 14.05,36 15.37,34.75 L15.37,34.75 Z M7.94,29.51 L5.75,29.51 L5.75,26.52 L7.94,26.52 C7.94,26.52 7.96,24.9 8.02,22.05 C8.16,15.98 8.31,15.03 10.07,13.36 C13.54,10.06 19.34,12.75 19.27,17.72 C19.17,24.73 19.25,31.42 19.04,32.36 C18.68,34.03 18.64,34.12 18.79,34.43 C19.09,35.04 21.72,35.31 21.72,35.13 L21.72,38.09 C19.71,38.24 18.88,38.05 17.28,36.91 C16.28,37.88 13.23,38.85 10.81,37.7 C8.96,36.84 7.57,34.59 7.94,29.51 L7.94,29.51 Z" id="Fill-288" fill="#0A0A08"></path>
        <path d="M161.55,232.97 C162.36,235.26 164.44,236.03 165.96,234.6 C166.9,233.71 167.05,232.77 167.08,227.67 C167.09,224.53 167.09,223.2 167.09,223.2 C164.13,222.25 161.38,218.8 161.4,218.84 L161.33,228.36 C161.27,229.9 161.35,231.44 161.55,232.97 L161.55,232.97 Z M162.46,215.65 C163.55,217.22 165.38,219.37 167.1,220.13 C167.21,218.32 167.05,216.8 166.42,215.99 C165.41,214.69 163.77,214.39 162.46,215.65 L162.46,215.65 Z M169.88,220.88 L172.08,220.88 L172.08,223.88 L169.88,223.88 C169.88,223.88 169.87,225.49 169.8,228.34 C169.67,234.42 169.51,235.36 167.76,237.03 C164.29,240.34 158.48,237.64 158.55,232.68 C158.65,225.66 158.58,218.98 158.78,218.03 C159.15,216.36 159.18,216.27 159.04,215.96 C158.73,215.35 156.11,215.09 156.11,215.26 L156.11,212.31 C158.11,212.15 158.94,212.34 160.55,213.48 C161.55,212.52 164.59,211.55 167.02,212.69 C168.86,213.56 170.26,215.8 169.88,220.88 L169.88,220.88 Z" id="Fill-289" fill="#0A0A08"></path>
        <path d="M97.37,21.3 C97.37,21.3 84.95,44.69 78.13,55.72 L68.48,52.94 C72.52,42.18 68.65,21.67 67.63,21.15 L97.37,21.3 L97.37,21.3 Z M140.91,81.14 C142.25,72.86 142.53,66.83 143.46,57.18 C137.66,58.88 137.74,51.03 143.44,53.1 L140.8,47.26 L144.71,40.68 L148.3,46.93 L145.21,52.46 C151.64,52.78 150.09,58.77 144.55,57.32 C145.6,66.58 147.9,75.92 147.78,85.07 C149.78,99.74 145.33,120.15 146.07,120.63 L152.34,124.96 L151.27,156.87 L141.37,152.52 L138.42,154.51 C139.36,156.39 140.57,158.19 140.97,160.23 C140.97,160.23 147.8,165.86 146.85,167.61 C147.29,167.87 141.99,174.89 140.44,174.72 C137.48,174.38 134.04,170.54 133.05,167.81 C132.22,165.07 139.18,162.37 138.3,160.36 C137.25,157.95 134.6,156.8 132.25,156.09 C129.01,155.12 127.53,152.54 127.38,152.54 C127.38,152.54 126.12,162.74 124.9,161.93 C120.03,158.65 123.36,148.24 124.27,148.53 C124.27,148.53 126.4,149.02 128.91,149.26 C137.78,150.19 137.18,139.26 135.46,133.97 C134.85,131.9 137.48,132.56 138.6,132.25 C142.9,130.98 149.56,126.52 149.56,126.52 C142.63,122.67 136.51,118.27 131.02,114.1 C131.02,114.1 125.93,122.82 119.89,128.86 C115.49,133.26 114.78,134.76 107.42,140.43 C107.28,140.54 101.84,147.05 104.43,154.66 C106.65,161.16 117.29,168.21 117.21,168.68 L115.11,170.68 C115.2,170.8 100.05,161.26 100.4,151.01 C100.39,150.62 93.52,150.48 93.52,150.48 L73.56,131.94 L90.47,131.87 L99.15,138.98 L104.57,139.26 C104.93,139.57 105.13,137.82 109.9,134.25 C119.03,127.42 130.34,109.9 130.34,109.9 C130.34,109.9 142.3,118.33 142.31,118.33 C141.71,105.67 139.67,92.05 140.91,81.14 L140.91,81.14 Z M114.89,111.62 C102.02,98.46 75.08,74.94 75.08,74.94 L87.69,62.59 C94.31,64.57 101.11,66.23 108.8,66.3 C108.83,66.33 117.23,70.13 121.71,66.29 L133.35,75.54 C133.35,75.54 128.52,101.01 125.68,109.89 C125.74,113.41 124.42,117.7 120.95,118.34 C117.99,118.88 115.71,114.67 114.89,111.62 L114.89,111.62 Z M90.2,188.79 C90.31,188.71 79.59,184.48 69.74,184.88 C66.27,183.52 60.62,182.11 56.84,184.63 C52.59,181.75 48.92,178.57 45.2,175.43 C46.24,175.41 50.73,149.57 52.71,141.42 C51.56,130.51 62.05,130.52 62.96,139.26 C74.25,150.96 88.07,163.07 102.33,174.99 C100.06,179.7 91.88,183.29 90.2,188.79 L90.2,188.79 Z M30.09,170.74 C29.03,156.23 30.7,143.93 31.37,130.61 C31.42,130.42 25.3,126.63 25.3,126.63 L39.68,118.5 C41.11,119.25 41.93,119.12 42.27,117.74 C40.82,112.8 40.53,108.01 43.86,103.92 C46.34,100.93 52.02,102.47 53.68,102.46 C54.96,102.46 58.03,92.25 52.85,89.25 C51.75,88.61 51.23,95.2 50.48,97.97 C47.15,96.02 40.99,94.38 40.17,90.93 C39.75,89.03 45.8,85.36 44.61,83.21 C42.88,80.08 38.41,75.39 36.5,76.68 C34.69,78.32 30.38,81.67 30.41,83.96 C31.75,88.06 35.18,88.35 36.98,92.23 C37.43,93.07 40.74,96.6 40.74,96.6 C39.49,98.51 41.5,101.84 41.6,101.33 L25.92,94.48 C25.92,94.48 29.51,121.6 25.71,125.62 C25.31,126.04 29.07,124.55 29.14,124.78 C30.28,126.23 42.95,134.31 46.57,137.21 C53.01,128.21 55.36,124.25 63.66,116.26 C65.48,114.75 69.54,111.99 71.86,108.68 C73.72,106.02 74.5,103.02 74.16,100.69 C73.73,97.68 73.46,95.63 71.61,93.23 C67.33,87.69 60.53,82.4 60.65,82.31 L62.97,80.41 C62.97,80.41 71.37,87.37 74.92,92.49 C77.31,95.94 76.24,99.89 78.3,100.6 C78.8,100.77 82.19,100.49 83.31,100.7 C83.44,100.73 108,118.1 103.54,119.11 C97.38,120.49 87.55,119.59 87.55,119.59 C80.54,112.72 77.15,110.46 72.97,112.61 C72.97,112.61 62.37,121.91 56.26,129.19 C52.77,133.34 47.25,142.01 47.25,142.01 C46.83,141.83 34.7,132.21 35.21,133.29 C35.21,133.29 38.12,159.63 36.82,169.27 C35.94,177.46 34.72,186.25 34.18,193.8 C35.9,193.43 38.44,192.94 38.92,195.57 C39.34,199.16 34.72,198.33 34.61,198.02 C34.62,198.02 37.19,203.56 37.19,203.56 C37.19,203.56 33.19,210.48 33.3,210.18 C33.37,209.99 29.67,204.04 29.67,204.04 C29.67,204.04 32.42,199.04 32.83,198.03 C33.11,197.34 28.62,199.85 28.45,196.21 C28.27,192.45 33.13,193.35 32.88,193.82 C32.28,185.8 30.94,177.5 30.09,170.74 L30.09,170.74 Z M81.32,229.08 L100.01,194.91 C100.01,194.92 104.47,196.68 109.75,198.05 C104.69,211.29 109.72,228.76 109.72,228.76 C109.72,228.76 81.3,229.05 81.32,229.08 L81.32,229.08 Z" id="Fill-290" fill="#DACA2C"></path>
        <path d="M50.38,226.59 C50.51,226.51 52.35,228.18 52.04,228.64 L50.38,228.64 C50.36,228.12 50.35,226.59 50.37,226.59 L50.38,226.59 L50.38,226.59 Z M50.25,224.58 C51.48,224.83 53.58,226.75 53.88,228.64 L52.67,228.64 C52.25,227.37 50.93,226.21 50.26,225.73 C50.26,225.5 50.25,224.58 50.25,224.58 L50.25,224.58 Z M50.29,222.22 C52.92,223 55.24,226.47 55.9,228.64 L54.59,228.63 C53.66,226.21 52.34,224.66 50.24,223.77 C50.16,223.31 50.17,222.8 50.29,222.22 L50.29,222.22 Z M50.3,219.94 C55.43,222.2 57.26,226.22 58.03,228.64 L56.53,228.64 C55.41,225.31 53.4,222.94 50.29,221.46 C50.08,221 50.3,219.94 50.3,219.94 L50.3,219.94 Z M50.37,218.06 C54.69,219.04 59.91,225.72 59.89,228.64 L58.49,228.64 C56.37,221.21 50.86,219.6 50.32,219.16 C50.07,218.25 50.38,218.04 50.37,218.06 L50.37,218.06 Z M61.72,213.54 L61.71,213.54 C61.88,214.75 63.91,215.86 64.88,216.12 C66.94,217.03 70.21,216.13 72.68,215.06 C74.48,214.28 75.13,213.1 72.99,213.77 C69.54,214.85 65.2,214.93 63.03,214.09 C62.33,213.76 61.85,213.53 61.72,213.54 L61.72,213.54 Z M50.9,212.2 C52.11,213 53.32,213.25 54.81,213.11 C57.04,213.03 57.44,212.75 55.56,213.75 C53.82,214.67 51.14,214.5 50.62,213.5 C50.33,212.93 50.52,212.24 50.9,212.2 L50.9,212.2 Z M51.25,210.72 C51.49,210.73 51.78,210.93 52.18,211.06 C53.32,211.43 55.21,211.39 56.69,211.05 C57.4,210.88 57.73,210.66 57.89,210.77 C58.17,210.98 57.88,211.68 56.86,212.13 C55.53,212.62 53.5,212.89 51.96,212.1 C50.65,211.43 50.5,210.71 51.25,210.72 L51.25,210.72 Z M52.25,208.28 C52.25,208.28 51.91,209.31 51.75,209.66 C50.47,209.59 50.59,209.02 51.2,208.61 C51.52,208.36 51.86,208.35 52.25,208.28 L52.25,208.28 Z M56.46,208.14 C57.08,208.12 57.9,208.48 57.84,208.84 C57.77,209.23 57.17,209.48 56.67,209.52 C56.33,209.57 56.35,209.43 56.26,209.19 C56.18,208.98 56.08,208.71 56.02,208.5 C55.88,208.09 56.15,208.16 56.46,208.14 L56.46,208.14 Z M70.36,208.13 C70.52,208.12 70.82,208.25 71.16,208.37 C72.04,208.67 72.24,208.92 71.88,209.28 C71.52,209.64 70.85,209.75 70.53,209.55 C70.52,209.1 70.08,208.75 70.06,208.3 C70.06,208.18 70.2,208.13 70.36,208.13 L70.36,208.13 Z M66.05,208.12 C66.42,208.12 66.51,208.53 66.1,209.21 C65.8,209.68 65.46,209.64 65.11,209.28 C64.8,208.96 64.82,208.91 65.16,208.6 C65.52,208.27 65.83,208.12 66.05,208.12 L66.05,208.12 Z M69.95,209.83 L69.37,209.86 C69.01,208.72 67.76,207.72 66.88,209.58 L66.48,209.5 C67.2,206.52 70.07,208.18 69.95,209.83 L69.95,209.83 Z M56.11,209.67 L55.33,209.69 C54.78,207.81 53.43,207.81 52.85,209.7 L52.2,209.65 C52.83,207.31 55.24,206.83 56.11,209.67 L56.11,209.67 Z M68.7,203.91 C67.35,204.2 65.4,205.75 64.74,206.76 C64.12,207.74 63.53,208.85 63.96,209.39 C64.31,209.84 64.81,210.28 64.85,210.52 C64.89,210.74 64.6,210.95 64.33,211.25 C63.14,212.58 63.42,212.65 65.09,211.79 C65.93,211.35 66.32,211.18 66.87,211.32 C68.47,211.74 70.47,211.44 71.83,210.94 C72.44,210.71 73.04,210.41 73.09,210.57 C70.61,213.3 67.52,212.61 66.42,212.44 C66.23,212.39 66.08,212.41 66.08,212.47 C66.08,212.6 66.4,212.89 67.08,213.2 C68.22,213.7 70.95,213.16 72.66,211.91 C76.04,209.7 77.9,207.58 75.24,208.46 C74.02,208.87 73.56,208.8 72.08,208.13 C69.85,207.12 68.15,206.82 66.31,207.47 C63.97,208.28 65.76,206.35 68.39,204.68 C68.96,204.32 69.03,203.9 68.7,203.91 L68.7,203.91 Z M64.04,195.64 C63,195.65 62.44,196.29 61.1,196.17 C60.03,196.09 59.67,197.04 60.12,197.74 C60.44,198.23 60.87,198.32 62.32,197.65 C62.92,197.37 63.75,196.76 64.24,196.81 C65.67,196.96 66.01,198.34 64.83,199.51 C64.25,199.85 64.24,200.22 64.42,200.22 C64.89,200.24 65.84,199.68 66.05,199.02 C66.64,197.23 65.58,195.61 64.04,195.64 L64.04,195.64 Z M66.67,189.84 C66.45,189.86 65.9,190.14 65.3,190.38 C64.29,190.79 63.36,190.69 62,190.31 C60.82,189.98 60.39,190.08 59.21,190.67 C58.43,191.17 57.58,191.31 56.96,190.96 C56.16,190.5 56.16,190.66 56.56,191.79 C56.66,192.07 56.46,192.92 56.81,193.12 C57.08,193.27 57.38,192.77 57.59,192.7 C57.79,192.63 59.08,193.21 59.8,192.58 C61.08,192.11 61.47,192.87 62.36,192.79 C63.8,192.28 64.7,191.75 65.94,192.74 C66.01,192.37 66.3,190.35 66.76,189.88 C66.75,189.85 66.72,189.84 66.67,189.84 L66.67,189.84 Z M63.11,187.52 C62.3,187.93 61.38,188.23 60.22,188.23 C59.29,188.22 57.69,187.74 57.85,187.86 C58.27,188.62 59.38,188.22 59.4,188.71 C59.12,189.21 58.39,189.16 58.02,189.63 C57.95,189.75 58.13,189.86 58.65,189.8 C60.22,189.09 62.27,189.1 64.15,189.72 C64.54,189.8 64.29,189.42 64.15,189.32 C63.91,189.14 63.5,188.96 63.16,188.92 C61.52,188.62 62.24,188.46 63.34,187.96 C64.15,187.67 64.35,186.94 63.11,187.52 L63.11,187.52 Z M79.05,187.72 C79.33,189.55 80.14,192.49 80.01,193.49 C79.89,193.39 78.87,192.38 78.12,191.31 C77.86,190.67 77.45,188.45 77.48,187.38 C77.99,187.31 78.67,187.39 79.05,187.72 L79.05,187.72 Z M76.67,187.31 C76.57,188.14 77.08,189.63 76.98,189.98 C76.72,190.11 75.4,188.69 75.07,188.35 C75,187.87 75.08,187.27 75.1,187 C75.56,186.92 76.36,186.95 76.67,187.31 L76.67,187.31 Z M74.27,187.8 C73.96,187.84 73.17,187.12 73.02,186.78 C73.47,186.67 73.93,186.75 74.19,186.96 C74.4,187.16 74.54,187.67 74.27,187.8 L74.27,187.8 Z M109.3,156.67 C108.99,156.67 108.74,156.92 108.74,157.24 C108.74,157.55 108.99,157.8 109.3,157.8 C109.61,157.8 109.86,157.55 109.86,157.24 C109.86,156.92 109.61,156.67 109.3,156.67 L109.3,156.67 Z M106.76,154.06 C106.45,154.06 106.2,154.31 106.2,154.63 C106.2,154.94 106.45,155.19 106.76,155.19 C107.07,155.19 107.33,154.94 107.33,154.63 C107.33,154.31 107.07,154.06 106.76,154.06 L106.76,154.06 Z M115.57,150.81 C115.26,150.81 115,151.06 115,151.37 C115,151.68 115.26,151.94 115.57,151.94 C115.88,151.94 116.13,151.68 116.13,151.37 C116.13,151.06 115.88,150.81 115.57,150.81 L115.57,150.81 Z M109.66,150 L107.27,156.76 L113.91,153.53 L111.97,152.89 C111.97,152.89 112.08,151.37 111.89,151.44 C111.78,151.49 110.53,151.84 110.53,151.84 L109.66,150 L109.66,150 Z M113.21,148.33 C112.9,148.33 112.64,148.58 112.64,148.89 C112.64,149.2 112.9,149.46 113.21,149.46 C113.52,149.46 113.77,149.2 113.77,148.89 C113.77,148.58 113.52,148.33 113.21,148.33 L113.21,148.33 Z M111.4,145.6 C111.09,145.6 110.83,145.86 110.83,146.17 C110.83,146.48 111.09,146.73 111.4,146.73 C111.71,146.73 111.96,146.48 111.96,146.17 C111.96,145.86 111.71,145.6 111.4,145.6 L111.4,145.6 Z M117.02,145.58 L116.33,143.59 L113.54,150.73 L120.61,147.56 L118.52,146.99 L118.82,144.83 L117.02,145.58 L117.02,145.58 Z M108.77,143.26 C108.46,143.26 108.21,143.51 108.21,143.82 C108.21,144.13 108.46,144.39 108.77,144.39 C109.08,144.39 109.33,144.13 109.33,143.82 C109.33,143.51 109.08,143.26 108.77,143.26 L108.77,143.26 Z M112.99,139.96 L112.48,137.86 L109.2,146.06 L117.49,141.82 L114.76,141.31 L115,139.58 L112.99,139.96 L112.99,139.96 Z M121.68,136.06 C121.37,136.06 121.12,136.32 121.12,136.63 C121.12,136.94 121.37,137.2 121.68,137.2 C121.99,137.2 122.24,136.94 122.24,136.63 C122.24,136.32 121.99,136.06 121.68,136.06 L121.68,136.06 Z M131,134.05 C132.71,134.04 134.35,134.1 134.78,134.42 C137.42,136.66 136.17,147.08 132.84,148.4 C129.19,149.22 126.66,149.38 123.49,147.28 C122.59,146.84 120.81,145.51 121.15,144.41 C121.63,143.06 122.94,143.16 126.68,144.33 C128.05,144.76 128.8,144.67 129.15,144.41 C129.47,144.16 129.05,143.88 128.35,143.88 C128.07,143.87 126.86,143.57 125.85,143.26 C124.42,142.82 124.01,142.69 123.09,142.64 C121.54,142.55 121.09,142.49 121.09,141.54 C121.09,139.76 123.55,139.52 128.08,140.57 C128.63,140.69 129.61,140.83 129.85,140.82 C130.02,140.89 129.5,140.23 129.42,139.84 C129.25,139.7 128.96,139.64 128.19,139.61 C125.27,139.32 122.85,139.13 122.8,138.74 C122.54,136.86 126.31,136.35 130.22,137.86 C131.23,138.25 131.25,138.09 131.24,137.79 C131.22,137.25 129.54,136.31 127.07,136.33 C124.66,136.36 124.99,135.13 126.97,134.21 C127.65,133.89 129.29,134.06 131,134.05 L131,134.05 Z M118.9,133.23 C118.59,133.23 118.34,133.48 118.34,133.79 C118.34,134.11 118.59,134.36 118.9,134.36 C119.21,134.36 119.46,134.11 119.46,133.79 C119.46,133.48 119.21,133.23 118.9,133.23 L118.9,133.23 Z M137.3,130.51 C136.99,130.51 136.74,130.76 136.74,131.08 C136.74,131.39 136.99,131.64 137.3,131.64 C137.61,131.64 137.86,131.39 137.86,131.08 C137.86,130.76 137.61,130.51 137.3,130.51 L137.3,130.51 Z M114.95,128.9 C114.86,128.9 114.78,128.92 114.78,128.99 C114.78,129.17 112.72,131.19 112.72,131.19 L88.88,131.41 C88.93,131.41 90.86,131.95 90.86,131.95 C93.99,134.46 98.89,138.9 98.89,138.9 L104.81,138.67 C108.08,135.44 113.01,132.98 115.21,129 C115.15,128.94 115.05,128.91 114.95,128.9 L114.95,128.9 Z M123.16,130.58 L122.41,128.46 L119.4,136.25 L127.48,132.54 L124.92,131.94 L124.96,129.9 L123.16,130.58 L123.16,130.58 Z M134.35,127.98 C134.04,127.98 133.78,128.24 133.78,128.55 C133.78,128.86 134.04,129.11 134.35,129.11 C134.66,129.11 134.91,128.86 134.91,128.55 C134.91,128.24 134.66,127.98 134.35,127.98 L134.35,127.98 Z M49.93,127.49 C49.62,127.49 49.39,127.74 49.39,128.05 C49.39,128.36 49.65,128.61 49.96,128.61 C50.27,128.61 50.52,128.36 50.52,128.05 C50.52,127.74 50.24,127.49 49.93,127.49 L49.93,127.49 Z M49.42,125.81 L41.3,129.78 L43.82,130.37 L43.54,132.91 L45.59,131.75 L46.71,134.06 L49.42,125.81 L49.42,125.81 Z M130.87,125.23 C130.55,125.23 130.31,125.48 130.31,125.79 C130.31,126.1 130.55,126.35 130.87,126.35 C131.18,126.35 131.43,126.1 131.43,125.79 C131.43,125.48 131.18,125.23 130.87,125.23 L130.87,125.23 Z M47.07,125.08 C46.76,125.08 46.51,125.34 46.51,125.65 C46.51,125.96 46.76,126.21 47.07,126.21 C47.38,126.21 47.63,125.96 47.63,125.65 C47.63,125.34 47.38,125.08 47.07,125.08 L47.07,125.08 Z M137.61,123.18 L134.78,131.08 L142.44,127.21 L140.36,126.64 L140.37,124.69 L138.66,125.19 L137.61,123.18 L137.61,123.18 Z M127.88,122.67 C127.57,122.67 127.32,122.92 127.32,123.24 C127.32,123.55 127.57,123.8 127.88,123.8 C128.19,123.8 128.44,123.55 128.44,123.24 C128.44,122.92 128.19,122.67 127.88,122.67 L127.88,122.67 Z M43.66,122.27 C43.35,122.27 43.09,122.52 43.09,122.83 C43.09,123.14 43.35,123.39 43.66,123.39 C43.97,123.39 44.22,123.14 44.22,122.83 C44.22,122.52 43.97,122.27 43.66,122.27 L43.66,122.27 Z M43.34,120.42 C43.34,120.42 37.39,123.22 34.7,124.43 L37.21,124.96 L36.77,127.4 L39.03,126.52 L39.94,128.94 L43.34,120.42 L43.34,120.42 Z M40.89,119.9 C40.58,119.9 40.32,120.16 40.32,120.47 C40.32,120.78 40.58,121.04 40.89,121.04 C41.2,121.04 41.45,120.78 41.45,120.47 C41.45,120.16 41.2,119.9 40.89,119.9 L40.89,119.9 Z M132.25,119.52 L131.35,117.37 C131.35,117.37 128.82,123.61 128.29,125.72 C130.43,124.62 136.7,121.41 136.7,121.41 L134.01,120.91 L134.32,118.47 L132.25,119.52 L132.25,119.52 Z M58.96,117.04 C58.65,117.04 58.4,117.29 58.4,117.6 C58.4,117.91 58.65,118.16 58.96,118.16 C59.27,118.16 59.52,117.91 59.52,117.6 C59.52,117.29 59.27,117.04 58.96,117.04 L58.96,117.04 Z M58.47,115.26 L50.48,119.05 L53.05,119.49 L52.56,121.72 L54.42,121.01 L55.41,122.89 L58.47,115.26 L58.47,115.26 Z M131.21,114.79 C136.16,118.47 142.02,122.99 146.89,125.67 C148.84,126.52 148.65,126.81 146.67,127.75 C144.72,128.97 141.48,130.53 138.78,131.9 C137.61,132.34 137.1,131.76 136.27,131.92 C135.67,132.07 135.5,132.18 135.14,132.66 C134.55,133.43 134.71,133.41 131.58,133.26 C128.42,133.12 127.12,133.19 126.44,133.54 C125.79,133.87 124.67,135.01 124.67,135.49 C124.67,135.94 124.31,136.53 123.66,136.72 C122.9,136.91 122.03,137.51 122.07,138.44 C121.86,139.15 121.43,139.46 121.05,139.84 C120.15,140.75 120.24,141.47 120.5,142.32 C120.62,142.7 120.81,142.61 120.71,143.73 C120.5,146.3 120.32,146.08 123.06,147.98 L109.07,160.21 C108.75,160.46 108.65,160.44 108.36,160.24 C106.65,158.96 105.46,156.87 104.78,154.76 C102.41,148.23 105.3,142.87 109.14,139.58 C110.47,138.45 112.25,137.09 112.75,136.75 C119.97,130.57 126.25,121.82 131.21,114.79 L131.21,114.79 Z M56.39,114.35 C56.07,114.35 55.82,114.61 55.82,114.92 C55.82,115.23 56.07,115.49 56.39,115.49 C56.7,115.49 56.95,115.23 56.95,114.92 C56.95,114.61 56.7,114.35 56.39,114.35 L56.39,114.35 Z M73.81,112.08 C70.18,115.62 66.09,118.43 62.35,121.87 L63.16,121.84 L65.2,120 L122.51,119.81 L121.17,121.78 L121.73,122.02 C121.73,122.02 123.45,119.47 123.34,119.35 C110.74,119.39 101.03,119.36 87.21,119.46 C84.69,116.95 82.04,114.61 79.4,112.23 L73.81,112.08 L73.81,112.08 Z M69.05,107.26 C68.74,107.26 68.48,107.52 68.48,107.83 C68.48,108.14 68.74,108.4 69.05,108.4 C69.36,108.4 69.61,108.14 69.61,107.83 C69.61,107.52 69.36,107.26 69.05,107.26 L69.05,107.26 Z M68.98,105.26 L60.8,109.35 L62.87,109.97 L62.38,112.36 L64.3,111.56 L65.46,113.17 L68.98,105.26 L68.98,105.26 Z M66.63,104.66 C66.32,104.66 66.07,104.91 66.07,105.23 C66.07,105.54 66.32,105.79 66.63,105.79 C66.94,105.79 67.2,105.54 67.2,105.23 C67.2,104.91 66.94,104.66 66.63,104.66 L66.63,104.66 Z M49.16,102.58 C52.14,102.58 55.48,103.72 56.62,106.28 C56.93,107.56 55.67,108.32 53,107.58 C48.57,106.36 47.75,106.23 48.48,106.98 C48.58,107.08 48.77,107.32 49.43,107.55 C51.1,108.12 54.33,108.78 55.2,108.69 C56.39,108.53 57.21,109.09 56.91,110.08 C56.57,111.21 55.03,111.67 52.71,111.34 C50.31,111 48.98,110.73 48.18,110.48 C47.16,110.17 47.12,110.2 47.61,110.92 C47.86,111.3 47.89,111.6 48.26,111.67 C49.85,111.58 51.54,111.88 53,112.02 C55.61,112.26 56.02,113 54.1,114.14 C53.19,114.67 50.46,114.53 48.92,113.97 C47.81,113.57 45.27,113 46.25,113.77 C46.49,113.96 46.41,114.42 46.82,114.56 C48.16,114.74 51.95,115.01 52.54,115.55 C52.92,115.9 52.06,116.78 50.29,117.23 C47.63,117.74 43.64,117.53 42.59,116.81 C40.64,112.83 41.69,106.31 44.74,103.77 C45.72,103 47.37,102.59 49.16,102.58 L49.16,102.58 Z M64.88,102.22 C64.57,102.22 64.32,102.47 64.32,102.79 C64.32,103.1 64.57,103.35 64.88,103.35 C65.19,103.35 65.44,103.1 65.44,102.79 C65.44,102.47 65.19,102.22 64.88,102.22 L64.88,102.22 Z M64.65,100.48 L56.72,104.13 L59.07,104.85 L58.45,107.28 L60.37,106.47 L61.43,108.1 L64.65,100.48 L64.65,100.48 Z M62.48,99.43 C62.17,99.43 61.92,99.68 61.92,99.99 C61.92,100.3 62.17,100.56 62.48,100.56 C62.79,100.56 63.04,100.3 63.04,99.99 C63.04,99.68 62.79,99.43 62.48,99.43 L62.48,99.43 Z M71.43,95.99 C71.12,95.99 70.86,96.25 70.86,96.56 C70.86,96.87 71.12,97.12 71.43,97.12 C71.74,97.12 71.99,96.87 71.99,96.56 C71.99,96.25 71.74,95.99 71.43,95.99 L71.43,95.99 Z M71.12,94.41 L64.06,97.77 L65.92,98.4 L65.91,100.33 L67.63,99.78 L68.35,101.59 L71.12,94.41 L71.12,94.41 Z M69.06,93.84 C68.75,93.84 68.5,94.09 68.5,94.4 C68.5,94.71 68.75,94.97 69.06,94.97 C69.37,94.97 69.63,94.71 69.63,94.4 C69.63,94.09 69.37,93.84 69.06,93.84 L69.06,93.84 Z M103.92,63.52 L105.46,64.72 L103.88,64.57 L103.92,63.52 L103.92,63.52 Z M114.27,61.82 C114.38,61.9 114.54,61.98 114.77,62.06 C117.39,63.04 114.64,62.8 114.38,63.74 C114.38,63.82 114.5,63.84 114.63,63.79 C115.53,63.43 117.74,63.2 118.74,63.39 C120.04,63.83 120.12,63.53 118.87,62.88 C117.96,62.51 119.07,62.27 119.44,61.95 C120.22,61.45 119.68,61.24 118.69,61.72 C117.71,62.19 115.94,62.19 115.14,61.74 C114.79,61.55 114.44,61.39 114.28,61.38 C113.94,61.36 114.12,61.71 114.27,61.82 L114.27,61.82 Z M100.68,60.81 C102.33,62.38 102.21,62.24 103.25,63.02 L103.2,64.53 C103.2,64.53 101.92,64.56 101.3,64.36 C101.1,63.77 100.24,60.82 100.68,60.81 L100.68,60.81 Z M120.97,58.68 C120.95,58.68 120.93,58.68 120.91,58.69 C120.84,58.72 120.52,58.87 120.08,58.92 C119.83,58.94 119.44,58.76 119.17,58.78 C118.42,58.83 117.72,59.05 117.54,59.13 C117.31,59.22 117.08,59.26 116.88,59.14 C116.33,58.81 114.7,58.91 114.21,59.2 C113.62,59.45 112.96,59.45 112.48,59.2 C112.28,59.1 112.07,58.82 112.03,58.86 C111.95,58.94 111.64,60.27 111.55,60.79 C111.55,60.97 111.42,61.28 111.5,61.31 C111.59,61.34 111.9,61.07 112.28,60.87 C113.05,60.47 113.92,60.51 115.44,60.88 C117.32,61.34 118.05,61.21 119.17,60.64 C120.05,60.19 120.59,60.08 121.17,60.24 C121.32,60.28 121.7,60.48 121.76,60.43 C121.86,60.33 121.58,59.77 121.33,59.22 C121.16,58.82 121.09,58.66 120.97,58.68 L120.97,58.68 Z M97.7,57.49 L99.41,59.47 L100.49,64.19 C99.83,64.3 99.04,63.94 99.04,63.94 C98.51,61.8 97.99,59.66 97.7,57.49 L97.7,57.49 Z M113.5,50.82 C113.35,50.83 112.79,50.94 112.45,51.14 C110.92,52.02 111.29,55.13 112.96,55.55 C113.63,55.72 114.24,55.81 115.36,55.27 C116.04,54.95 116.98,54.69 117.24,54.8 C117.79,55.04 117.97,54.55 118.09,53.99 C118.35,52.75 116.33,52.72 114.72,54 C112.68,55.62 111.12,53.24 113.04,51.44 C113.68,51.03 113.66,50.81 113.5,50.82 L113.5,50.82 Z M107.4,65.11 C106.23,64.52 97.34,59.1 95.06,49.51 L94.61,50.49 C95.57,52.79 97,56.51 97,56.51 C96.94,56.19 97.36,59.01 98.27,63.8 C97.78,63.8 97.25,63.67 96.73,63.53 C95.56,59.14 95.28,55.71 94.29,51.42 L93.87,52.62 C93.87,52.62 95.1,60.31 95.94,63.32 C95.46,63.27 94.58,63.08 94.58,63.08 C93.88,59.83 93.34,57.66 92.68,54.4 L92.08,55.19 C92.95,57.86 93.29,60.25 93.72,62.8 C93.13,62.71 92.53,62.66 91.96,62.34 C91.96,62.34 91.06,57.67 90.94,57.61 C90.6,57.95 90.46,58.4 90.46,58.4 C90.42,58.35 91.24,60.98 91.18,62.07 C90.61,61.97 89.62,61.68 88.92,61.45 C88.55,61.69 88.36,62.1 88.08,62.46 C88.43,63.95 108.83,67.16 107.61,65.93 C107.6,66.06 116.6,69.89 121.63,66.64 C121.63,66.64 130.37,73.14 133.78,75.74 C133.78,76.03 134.97,77.41 136.2,78.28 L139.66,80.96 C140.66,81.74 141.06,81.17 141.22,79.7 C141.39,78.06 142.58,66.98 142.86,64.62 C143.89,56.67 143.89,56.75 142.69,57.12 C140.85,57.68 139.19,56.95 139.19,55.06 C139.19,53.91 139.72,52.95 140.95,52.5 C141.3,52.38 141.75,52.37 142.28,52.38 C142.51,52.42 142.96,52.45 143,52.46 C143.59,52.43 140.73,47.24 140.73,47.24 C140.73,47.24 143.46,42.36 144.77,40.54 L148.31,46.96 L145.41,52.63 C151.05,52.21 150.5,59.31 144.98,56.93 C144.98,56.93 144.95,59.04 144.96,58.89 C145.01,58.28 145,57.77 145.2,57.66 C150.54,59.69 151.63,51.87 145.87,52.23 C146.82,50.57 147.87,48.86 148.86,47.03 L144.69,39.42 L139.99,47.27 L142.36,52.17 C141.82,52.03 141.4,52.11 140.83,52.17 C137.34,52.89 138.09,58.52 142.08,57.74 C142.53,57.65 143.21,57.31 143.21,57.31 L140.64,80.3 C140.64,80.3 140.39,80.5 139.36,79.76 C138.16,78.9 135.67,77.02 135.51,76.83 C136.4,62.13 132.74,46.67 128.55,36.99 C128.29,36.25 128.44,21.67 128.44,21.67 L152.39,21.67 L152.39,89.45 C151.15,88.66 149.68,87.62 148.4,86.72 C148.02,86.41 147.78,86.04 147.95,85.45 C147.53,86.35 147.78,86.73 147.78,86.73 L153.02,90.93 L152.81,157.57 C152.81,157.57 144.35,153.2 139.14,151.09 C136.79,150.13 136.69,150.41 136.69,150.41 C136.7,150.4 138.35,154.14 137.88,154.82 C139,155.9 140.88,158.16 140.97,160.37 C141.97,161.24 142.25,161.35 143.01,162.6 L146.15,161.46 L145.44,164.75 C148.78,167.09 145.56,170.25 144.94,169.96 C144.94,169.96 146.42,173.13 146.75,174.58 C146.22,174.54 143.58,173.1 142.84,172.76 C140.92,176.55 137.68,173.37 137.66,172.81 L134.06,174.42 L135.34,170.31 C133.02,168.9 131.46,166.77 135.2,164.47 L134.34,161.27 L137.41,162.48 C137.41,162.48 137.99,161.56 138.42,160.88 C137.27,155.86 129.71,156.81 127.28,152.29 C127.28,152.29 126.68,157.93 126.07,159.97 C125.83,165.37 122.06,159.91 122.06,154.2 C122.06,152.91 123.67,148.58 124.22,148.37 C124.79,148.29 130.19,150.9 133.82,148.3 C135.47,146.58 138.32,141.73 135.58,134.15 C134.68,132.39 137.3,132.17 138.16,132.76 C138.16,132.76 146.05,128.62 149.61,126.63 C143.63,123.33 131.21,114.57 131.21,114.15 C129.56,116.79 127.66,119.01 124.99,122.74 C120.66,127.85 117.28,132.71 111.78,136.79 C104.06,142.43 102.24,148.11 104.4,154.78 C105.27,157.66 107.03,160.58 109.9,161.59 C111.36,163.08 117.24,168.66 117.24,168.66 C107.43,177.61 100.7,184.98 95.97,193.12 C99.96,195.23 109.57,198.27 109.57,198.27 C106,210.17 107.63,219.63 109.98,229.12 C109.98,229.12 82.07,229.16 67.59,228.7 C67.47,228.82 65.9,228.74 65.88,228.64 C65.82,227.58 68.49,224.66 69.29,225.07 C69.69,224.67 70.54,224.47 70.38,223.98 C68.38,223.75 65.35,227.21 65.23,228.64 L64.04,228.64 C63.8,228.43 66.21,222.79 71.03,222.34 C70.98,222.54 71.67,221.9 71.15,221.63 C65.53,222.3 62.91,228.55 63.08,228.64 L62.21,228.64 C64.12,222.49 69.1,220.54 71.98,220.28 C72.01,220.26 72.91,219.95 72.67,219.41 C66.3,220.52 63.13,223.28 61.6,228.64 L60.45,228.64 C61.28,223.21 66.85,218.44 73.15,218.6 C73.35,218.47 73.59,218.33 73.49,217.71 C66.5,218.5 63.01,220.84 60.14,226.86 C57.57,220.17 50.43,217 50.34,216.97 C50.34,216.97 50.17,215.1 50.57,215.18 C56.66,217.39 58.99,212.08 58.73,209 C58.59,207.29 58.69,206.34 58.11,203.87 C57.6,201.66 57.23,200.18 57.27,199.22 C57.31,198.27 57.6,198.08 58.3,197.76 C59.61,197.17 60.42,195.02 60.13,194.76 C59.46,196.32 57.69,196.59 56.87,197.64 C56.22,198.51 56.51,199.89 57.67,204.67 C58.38,207.58 57.54,206.25 55.88,205.33 L54.78,204.71 C55.52,205.47 56.3,206.19 57.06,206.94 C57.73,207.55 57.35,207.94 56.39,207.58 C54.99,206.88 52.31,207.17 51.28,208.05 C50.88,208.34 50.73,208.31 50.63,208.04 C50.18,200.61 50.96,196.04 53.42,190.46 C55,186.66 57.36,183.82 60.51,183.62 C63.69,183.35 68.25,184.47 72.4,187.29 C77.27,190.61 82.01,195.65 82.51,201.84 C82.53,201.91 82.89,201.31 83.05,200.99 C83.27,200.26 82.46,198.05 81.19,195.49 C80.96,193.56 80.3,190.19 79.78,187.9 C80.17,187.72 81.01,187.82 81.25,188.11 C82.14,191.89 82.78,194.83 83.54,199.89 C83.55,200.38 84.18,199.16 84.18,198.83 C84.08,198.08 81.97,188.17 82.01,188.4 C82.03,188.06 84.01,188.51 83.74,188.82 C83.74,188.82 85.24,197.13 85.35,196.87 L85.86,196.16 C85.86,196.16 84.42,190.1 84.6,188.93 C84.72,188.75 85.84,189.11 86.19,189.3 C86.64,189.9 86.92,192.06 87.11,193.54 C87.62,193.93 87.72,192.8 87.68,192.5 C87.31,191.91 86.92,189.72 87.22,189.61 C87.45,189.52 88.72,190.03 88.97,190.24 C89.26,190.5 90.37,188.96 90.09,188.69 C84.06,186.37 76.46,185.02 70.73,184.93 C69.4,184.93 68.88,184.75 66.84,184.01 C61.64,182.13 57.35,184 56.72,184.59 C50.38,180.17 43.3,174 37.66,170.06 C37.4,169.89 36.77,169.78 36.7,169.78 C35.8,176.64 35.18,184.57 34.42,190.9 C34.11,193.41 34.07,193.6 34.18,193.67 C34.28,193.74 34.48,193.63 34.56,193.59 C36.41,192.91 38.09,193.36 38.97,195.04 C39.42,197.44 37.33,199.02 35.12,197.88 C34.3,197.46 34.18,197.54 34.55,198.34 C35.2,199.78 37.06,203.58 37.06,203.58 C37.06,203.58 34.54,208.74 33.27,210.14 C32.03,208.13 30.44,206.09 29.76,203.9 C30.73,201.98 32.58,199.51 33.16,197.62 C33.08,197.56 32.57,197.62 32.22,197.8 C29,199.33 28.48,196.45 28.53,195.41 C28.61,193.31 30.44,192.86 33.09,193.84 C30.23,174.72 29.61,163.83 30.35,165.01 C30.35,165.01 26.88,162.52 25.16,160.84 L25.35,21.67 L66.46,21.67 C70.69,33.03 69.53,46.7 67,53.82 C71.49,54.64 76.02,55.7 81.14,58.65 C72.49,71.38 58.91,85.12 44.2,93.93 C43.37,94.3 40.63,92.59 40.3,90.9 C40.23,90.5 40.45,89.73 40.89,89.74 C41.97,90.1 43.02,90.58 44.07,91.01 C44.07,91.01 42.6,87.31 43.31,86.75 C43.77,86.45 44.15,86.19 44.45,85.88 C45.5,84.51 45.42,82.96 44.3,81.77 C43.85,81.29 43.32,80.97 43.06,80.85 C43.06,80.85 44.1,77.96 44.62,76.6 L40.54,77.95 C39.21,76.12 36.78,74.69 34.99,77.42 C34.65,78.15 34.72,78.04 32.19,76.92 C30.76,76.28 29.88,75.96 29.88,75.96 C30.41,77.56 31.12,79.07 31.73,80.92 C28.92,82.72 29.56,85.75 31.92,86.66 L30.68,90.76 C30.68,90.76 33.34,89.76 34.78,89.38 C34.78,89.38 36.04,90.65 36.42,91.86 C37.06,93.94 38.52,95.44 39.44,96.3 C37.9,97.43 37.14,97.81 35.41,98.64 L41.39,101.07 C41.02,99.8 40.23,98.86 40.15,97.25 C40.08,95.88 40,95.86 39.11,94.93 C37.49,93.5 37.31,91.81 36.77,90.7 C36.02,90.26 35.54,89.56 35.19,88.82 C34.8,87.99 32.23,89.93 31.84,89.56 C31.36,89.05 32.67,86.43 32.52,86.17 C31.47,86.08 28.53,83.79 32.03,81.23 L30.92,77.06 C30.92,77.06 33.58,78.23 34.86,78.88 C35.75,74.72 39.79,76.72 40.45,78.51 C40.45,78.51 43.65,77.46 43.46,78.31 C43.37,79.08 42.85,81.01 42.85,81.01 C45.73,83.57 45.13,84.83 42.79,86.5 C42.75,87.86 43.32,89.97 43.32,89.97 C43.32,89.97 41.69,89.25 40.62,88.94 C40.19,89.37 39.7,90.15 39.78,90.55 C40.51,93.79 44.49,94.69 50.38,98 C50.59,95.91 52.03,93.05 52.19,90.54 C52.29,88.71 52.35,88.68 53.64,89.27 C57.02,91.71 55.99,98.44 54.75,101.2 C54.02,102.76 53.9,102.72 52.49,102.27 C50.52,101.64 47.05,101.9 45.14,102.55 C42.5,103.63 41.25,109.54 41.23,111.34 C41.18,113.04 41.31,114.73 42.2,116.84 C42.57,118.19 41.89,119.23 40.68,118.87 C40.41,118.79 39.76,118.54 39.76,118.54 L28.36,124.45 L30.51,125.72 C30.51,125.72 28.93,124.77 29.91,124.26 L39.68,119.14 C41.5,119.85 41.26,120 42.44,118.77 C43.15,118.04 43.49,118.02 44.44,118.11 C50.2,118.67 52.75,117.83 53.75,115.4 C53.9,115.04 53.84,115.05 54.43,114.75 C55.52,114.33 56.04,113.56 56.09,112.59 C56.13,111.96 56.4,111.88 56.88,111.43 C57.78,110.61 57.96,109.57 57.39,108.51 C57.13,108.01 56.93,107.85 57.04,107.33 C57.22,106.46 56.9,105.55 56.07,104.6 C55.11,103.49 55.11,103.68 56.92,101.99 C60.47,98.61 63.6,96.02 67.05,92.96 C69.41,90.86 69.15,91.01 70.07,91.97 C73.46,95.5 74.78,101 73.26,105.83 C73.19,106.06 73.16,106.04 73.33,105.83 C74.29,104.75 74.32,99.27 73.5,96.84 C72.5,93.86 71.54,92.31 68.24,89.39 C66.18,87.52 60.58,82.14 60.58,82.14 C68.73,75.05 77.51,66.24 82.43,58.14 C79.9,55.42 68.19,52.92 68.19,52.92 C69.65,49.89 72.53,36.26 67.6,21.16 C82.09,21.83 96.68,20.76 111.16,21.75 C111.16,21.75 111.38,21.66 111.5,21.63 C111.91,21.52 112.11,21.81 112.01,22.26 C111.7,23.41 110.01,26.11 108.82,25.89 C108.29,25.68 108.44,26.71 108.21,27.13 C110.08,26.89 112.28,24.5 112.83,22.14 C113.14,21.64 113.33,21.56 113.63,21.65 C113.98,21.76 113.89,22.1 113.52,23.24 C112.34,26.1 109.96,28.75 107.19,28.49 L106.83,29.46 C110.57,29.4 113.46,25.89 114.31,23.26 C114.91,21.7 114.93,21.49 115.53,21.64 C116.02,22.1 115.72,22.76 115.55,23.3 C113.67,29.32 108.51,30.93 105.94,30.67 C105.63,30.63 105.58,30.92 105.67,31.42 C111.19,31.78 115.59,27.01 116.21,22.92 C116.51,21.79 117.04,21.4 117.34,21.92 C117.51,22.37 117.45,22.84 117.37,23.28 C115.86,29.74 108.99,33.41 104.8,32.36 C104.61,32.18 104.29,33.07 104.75,33.39 C113.21,33.07 115.83,28.68 117.76,24.81 C120.06,28.3 121.95,31.89 127.47,34 C127.47,34 128.02,35.22 127.58,35.49 C127.36,35.64 127.01,35.57 126.5,35.49 C119.77,34.4 117.54,40.71 120.41,50.13 C121.19,52.71 120.84,52.32 119.17,53.93 C118.37,54.7 117.99,56.06 118.2,56.1 C118.48,55.93 118.58,55.49 119.28,54.91 C119.58,54.66 120.21,54.42 120.67,54.1 C121.91,53.37 121.9,52.88 121.46,51.17 C121.12,49.89 120.28,46.02 120.28,45.63 C120.28,44.89 120.45,44.96 121.37,45.63 C122.67,46.59 123.4,46.52 121.83,45.29 C121.23,44.81 120.84,44.44 120.65,44.18 C120.4,43.81 120.56,43.58 121.06,43.74 C123.38,44.46 125.37,44.41 127.62,43.04 C127.88,49.25 127.03,58.69 121.83,65.43 C117.85,69.92 110.22,66.52 107.4,65.11 L107.4,65.11 Z M121.3,41.67 C121.56,41.69 121.87,42.33 121.9,42.71 C121.83,43.33 120.31,43.08 120.31,42.47 C120.31,42.21 120.94,41.67 121.3,41.67 L121.3,41.67 Z M112.79,42.65 C112.48,42.9 112.06,42.92 112.06,42.92 C111.99,42.33 111.89,41.66 112.63,41.66 C113.12,41.8 113.08,42.4 112.79,42.65 L112.79,42.65 Z M127.68,41.94 L127.68,42.56 C127,42.72 126.71,43.11 126.07,42.98 C126.11,42.58 126.04,42.04 126.41,41.58 C126.88,41.33 127.43,41.63 127.68,41.94 L127.68,41.94 Z M107.58,41.56 C107.88,41.67 108.02,42.5 107.97,42.72 C107.86,43.17 106.39,42.69 106.07,42.24 C106.38,41.91 107.11,41.39 107.58,41.56 L107.58,41.56 Z M122.21,41.39 L122.66,41.38 C122.96,43.08 124.54,43.63 125.22,41.51 L125.77,41.52 C125.35,45.06 121.61,43.34 122.21,41.39 L122.21,41.39 Z M108.86,41.36 C109.3,43.57 110.97,42.85 111.14,41.51 L111.75,41.51 C111.49,43.29 109.08,44.78 108.14,41.36 C108.34,41.35 109.22,41.41 108.86,41.36 L108.86,41.36 Z M123.47,38.33 C124.36,38.31 125.12,38.44 125.8,38.81 C127.66,39.84 128.07,40.73 126,40 C124.7,39.55 122.95,39.61 121.74,39.95 C120.49,40.3 120.28,40.42 120.45,39.74 C120.65,38.91 121.98,38.36 123.47,38.33 L123.47,38.33 Z M111.95,38.98 C112.84,39.73 112.46,39.94 110.52,39.92 C108.87,39.9 107.47,40.08 105.52,40.73 C103.3,41.46 103.17,41.48 104.47,40.37 C106.26,38.84 109.9,37.3 111.95,38.98 L111.95,38.98 Z M109.29,37.59 C105.61,37.88 104.33,39.75 101.95,41.67 C100.97,42.42 101.19,43 102.38,42.8 C103.86,42.56 104.45,42.62 106.46,43.31 C108.65,44.06 110.21,44.37 111.42,43.9 C113.7,43.03 113.5,43.17 110.25,46.33 C108.5,47.74 109.21,47.66 110.97,46.45 C112.27,45.4 113.17,44.74 113.44,44.17 C113.58,43.89 113.59,42.89 113.83,42.89 C114.66,42.89 114.23,41.85 113.48,41.41 C112.99,41.06 113.1,40.69 113.74,40.01 C114.74,38.95 114.4,38.47 113.31,39.13 C113.12,39.24 113.02,38.91 112.36,38.51 C111.3,37.87 110.42,37.58 109.29,37.59 L109.29,37.59 Z M124.57,36.83 C125.86,36.82 127.18,37.12 127.65,37.72 C128.01,39.67 127.04,38.78 126.26,38.39 C125.13,37.87 123.83,37.42 122.62,37.6 C121.84,37.72 121.82,37.68 122.26,37.43 C122.93,37.03 123.87,36.84 124.57,36.83 L124.57,36.83 Z M110.83,34.69 C109.21,34.69 107.23,35.06 105.62,35.79 C103.38,36.81 102.82,37.49 103.15,37.73 C103.38,37.9 104.83,37.28 105.55,37.19 C109.45,36.22 112.13,35.98 114.67,37.09 C116.63,37.95 116.65,37.56 115.33,36.13 C114.37,35.09 112.67,34.68 110.83,34.69 L110.83,34.69 Z M121.48,22.58 C122.33,25.37 124.38,27.64 126.21,28.82 C127.53,29.66 128.04,30.14 127.43,30.57 C127.28,30.67 127.12,30.75 127.09,30.75 C124.01,29.57 120.23,25.1 120.1,21.94 C120.77,21.08 121.36,22.04 121.48,22.58 L121.48,22.58 Z M124.55,21.61 C124.7,21.61 125.03,21.52 125.2,21.75 C125.47,23.28 126.62,24.39 127.53,25.27 C127.69,25.56 127.76,26.17 127.42,26.33 C126.62,26.68 124.2,23.93 124.19,22.33 C124.18,21.85 124.33,21.62 124.55,21.61 L124.55,21.61 Z M126.91,21.59 C127.62,21.58 127.96,23.06 127.55,23.84 C127.28,24.08 126.7,23.71 126.18,22.73 C125.73,21.9 125.91,21.59 126.91,21.59 L126.91,21.59 Z M122.56,21.54 C122.92,21.54 123.4,21.96 123.69,22.73 C124.38,24.58 125.47,25.96 127.18,27.15 C127.63,27.47 127.81,27.94 127.58,28.22 C127.49,28.32 127.38,28.37 127.26,28.41 C125.93,28.78 122.43,24.72 122.15,22.2 C122.09,21.66 122.28,21.54 122.56,21.54 L122.56,21.54 Z M119.19,21.89 C119.38,22.16 119.37,22.58 119.53,23.14 C120.51,26.4 123.9,30.32 126.61,31.35 C127.56,31.71 127.92,32.26 127.38,32.81 C126.69,33.5 123.83,31.6 121.73,29.15 C119.82,26.91 118.54,25.07 118.26,23.66 C118.09,22.83 118.01,22.3 118.13,21.86 C118.48,21.38 118.92,21.51 119.19,21.89 L119.19,21.89 Z M32.55,193.17 C27.1,191.41 27.04,197.99 29.83,198.5 C30.55,198.63 31.31,198.74 32.43,198.38 C32.71,198.43 29.17,203.89 29.17,203.89 C29.17,203.89 32.01,209.07 33.37,211.26 L37.66,203.63 L34.86,198.34 C39.25,200.59 41.53,193.9 36.91,193.02 C35.8,192.87 34.56,193.43 34.56,193.43 L36.99,170.55 C38.95,171.88 42.52,174.55 42.52,174.55 C43.33,187.16 42.73,197.67 49.76,216.01 L49.83,228.71 L25.35,228.71 L25.35,162.14 L29.83,165.17 C29.92,165.55 29.16,165.29 29.57,169.93 C29.94,174.12 31.21,181.38 32.55,193.17 L32.55,193.17 Z M113.89,172.63 C120.08,166.87 126.2,162.11 131.93,158.65 C134.14,157.31 134.82,157.11 135.69,157.91 C137.11,159.2 138,160.33 137.53,161.24 C137.43,161.44 137.09,161.78 137.09,161.78 L133.67,160.48 L134.78,164.37 C131.71,165.63 131.76,168.96 134.73,170.73 L132.69,175.44 L137.44,173.35 C137.62,174.38 141,176.86 143.11,173.35 L147.4,175.45 L145.92,170.18 C147.33,168.84 148.15,166.69 145.94,164.71 L146.96,160.58 L143.08,161.85 C142.11,160.52 141.55,160.61 141.33,160.24 C141.26,159.75 141.25,158.59 140.6,157.53 C140.07,156.65 139.46,155.71 138.89,155.06 C138.59,154.55 138.83,154.5 140.38,153.67 C141.11,153.27 141.71,152.87 141.71,152.87 C141.71,152.87 149.28,156.71 152.39,158.17 L152.39,228.71 L110.81,228.71 C106.11,214.63 109.48,202.41 110.73,197.29 C108.54,197.11 97.23,193.44 96.89,192.17 C101.37,185.04 107.45,178.55 113.89,172.63 L113.89,172.63 Z M23.61,230.46 L154.22,230.46 L154.22,19.93 L23.61,19.93 L23.61,230.46 Z" id="Fill-291" fill="#22244E"></path>
        <path d="M33.32,201.67 L31.57,204.03 L33.23,206.78 L35.14,204.02 L33.32,201.67 L33.32,201.67 Z M95.75,192.95 L75.9,228.95 L81.32,228.87 L100.05,194.93 L95.75,192.95 L95.75,192.95 Z M142.87,170.12 L143.19,172.8 L146.38,174.25 L145.3,170.43 L142.87,170.12 L142.87,170.12 Z M137.79,169.8 L135.2,170.52 L133.95,174.13 L137.27,172.93 L137.79,169.8 L137.79,169.8 Z M106.09,165.38 C106.69,165.38 107.17,165.86 107.17,166.46 C107.17,167.06 106.69,167.55 106.09,167.55 C105.49,167.55 105.01,167.06 105.01,166.46 C105.01,165.86 105.49,165.38 106.09,165.38 L106.09,165.38 Z M143.15,162.51 L143.1,164.41 L145.31,164.67 L146.09,161.39 L143.15,162.51 L143.15,162.51 Z M134.47,161.4 L135.16,164.6 L137.64,165.26 L137.25,162.51 L134.47,161.4 L134.47,161.4 Z M86.86,157.18 C87.46,157.18 87.95,157.66 87.95,158.26 C87.95,158.86 87.46,159.35 86.86,159.35 C86.27,159.35 85.78,158.86 85.78,158.26 C85.78,157.66 86.27,157.18 86.86,157.18 L86.86,157.18 Z M90.08,150.1 C90.68,150.1 91.16,150.59 91.16,151.18 C91.16,151.78 90.68,152.27 90.08,152.27 C89.48,152.27 89,151.78 89,151.18 C89,150.59 89.48,150.1 90.08,150.1 L90.08,150.1 Z M75.1,146.25 C75.7,146.25 76.18,146.74 76.18,147.33 C76.18,147.93 75.7,148.42 75.1,148.42 C74.5,148.42 74.02,147.93 74.02,147.33 C74.02,146.74 74.5,146.25 75.1,146.25 L75.1,146.25 Z M66.11,132.52 C67.24,132.49 68.38,133.07 68.38,134.02 C68.38,134.84 67.84,135.02 67.38,134.36 C66.75,133.44 66.02,133.36 65.28,134.15 C63.21,136.33 66.42,138.32 70.11,137.15 C72.37,136.43 73.47,136.24 74.29,136.4 C77.78,137.1 79.46,139.46 79.76,144.06 C79.91,146.4 79.91,146.39 80.92,145.46 C83.37,143.21 86.92,144.46 87.47,147.78 C87.7,149.21 86.17,151 84.72,151 C84.15,151 84.24,150.41 84.86,150.11 C86.33,149.4 86.39,147.07 84.96,146.15 C83.05,144.94 80.54,146.83 80.57,149.46 C80.61,152.61 82.96,154.07 87.6,153.8 C88.28,153.76 89.98,153.68 91.39,153.62 C93.6,153.53 95.99,153.11 98.25,154.82 C100.61,156.71 102.18,160.46 102.85,165.88 C103.91,172.55 104.73,174.34 106.96,174.5 C108.29,174.59 109.41,173.46 109.41,172.15 C109.41,171.22 108.19,170.4 107.26,170.71 C106.14,171.08 105.91,169.86 107.02,169.4 C108.54,168.76 110.41,169.99 110.83,171.92 C111.07,173.04 109.81,175.2 108.48,175.74 C105.02,177.14 102.56,174.27 101.75,167.86 C101.25,164.92 100.98,162.94 100.07,160.42 C98.39,155.8 95.63,153.89 92.63,155.27 C89.23,156.84 89.9,161.95 93.51,161.91 C95.49,162.06 95.9,160.61 95.94,159.04 C95.99,157.89 97.29,158.97 97.4,159.77 C97.51,160.73 96.65,161.92 95.89,162.48 C94.66,163.3 95.1,163.25 96.35,163.58 C99.72,164.21 102.23,168.68 100.21,170.2 C99.17,170.84 98.05,169.9 98.78,168.97 C99.94,167.5 97.98,165.18 94.42,164.39 C89.77,163.37 87.91,159.89 89.59,156.32 C90.15,155.13 90.19,155.16 87.92,155.29 C82.92,155.57 81.15,154.88 79.47,151.97 C78.96,151.1 78.74,149.92 78.63,147.59 C78.44,143.42 78.06,140.84 77.53,140.11 C74.94,136.51 69.54,137.59 70.21,141.57 C70.57,143.66 72.72,144.33 74.19,142.81 C75.3,141.66 75.82,142.73 74.74,143.93 C72.13,146.83 67.58,143.45 68.93,139.61 C69.24,138.73 69.28,138.76 67.61,138.71 C63.88,138.6 62.11,135.41 64.51,133.13 C64.93,132.73 65.52,132.54 66.11,132.52 L66.11,132.52 Z M54.58,131.81 L47.26,142.04 C47.26,142.04 39.22,135.93 35.16,133.17 C35.6,137.59 35.99,143.22 36.53,147.97 C37.84,154.9 34.42,155.02 34.39,155.68 C39.83,159.82 35.26,163.7 34.45,163.5 C37.34,165.08 37.1,169.89 37.1,169.89 L38.48,170.67 C38.48,170.67 38.93,170.4 39.12,170.3 C40.59,169.5 42.98,166.68 43.53,164.81 C44.46,161.65 41.72,159.02 40,161.43 C39.15,162.61 38.48,161.82 39.17,160.46 C39.8,159.22 41.46,158.59 42.55,159.18 C43.19,159.53 43.05,158.64 42.06,156.15 C41.73,155.31 41.46,154.4 41,152.55 C40.55,150.76 40.72,148.61 41.5,146.42 C42.63,143.25 42.23,141.27 40.42,141.1 C39.46,141 39.36,140.7 40.14,140.26 C41.9,139.26 43.6,140.68 43.53,143.08 C43.49,144.38 43.5,144.4 44.19,144.13 C47.64,142.74 50.38,146.33 47.96,149.1 C47.22,149.94 46.75,149.41 47.24,148.27 C47.99,146.52 47.28,145.27 45.52,145.26 C42.97,145.24 41.56,148.77 42.56,152.66 C42.87,153.87 42.92,153.89 43.77,153.08 C44.52,152.36 45.08,152.13 45.67,152.3 C46.87,152.67 47.19,153.96 46.03,153.8 C44.04,153.52 43.52,155.61 44.65,159.33 C46.14,164.26 44.63,168.28 40.21,171.13 C39.99,171.28 39.63,171.56 39.63,171.56 C41.34,173.08 42.43,173.94 44.68,175.32 L52.71,142.75 C52.71,142.75 52.58,140.9 52.38,140.03 C52.37,131.29 60.5,130.45 63.05,138.39 C63.29,139.15 64.58,141.1 64.58,141.1 L106.91,178.78 C106.91,178.78 114.82,171.12 114.71,170.91 C108.7,164.84 100.6,160.55 100.3,150.92 C98.86,150.88 94.05,150.97 94.05,150.97 L73.47,132.04 C67.01,132.08 61.28,131.61 54.58,131.81 L54.58,131.81 Z M25.17,127.1 L25.39,160.99 L30.5,164.72 L31.8,163.5 C28.5,159.97 30.47,157.34 32.95,155.82 C28.57,154.8 29.9,148.97 30.16,146.27 C30.06,141.25 31.89,135.53 31.32,130.7 L25.17,127.1 L25.17,127.1 Z M145.57,137.45 L150.35,142.36 L146.57,147.02 L152.49,157.02 L152.4,126.09 L145.57,137.45 L145.57,137.45 Z M103.29,102.35 C103.89,102.35 104.38,102.84 104.38,103.44 C104.38,104.04 103.89,104.52 103.29,104.52 C102.7,104.52 102.21,104.04 102.21,103.44 C102.21,102.84 102.7,102.35 103.29,102.35 L103.29,102.35 Z M88.53,99.13 C89.13,99.13 89.61,99.62 89.61,100.21 C89.61,100.81 89.13,101.3 88.53,101.3 C87.94,101.3 87.45,100.81 87.45,100.21 C87.45,99.62 87.94,99.13 88.53,99.13 L88.53,99.13 Z M25.23,94.33 L25.36,125.83 L31.86,114.17 L27.39,109 L31.26,104.86 C28.98,101.48 27.12,97.9 25.23,94.33 L25.23,94.33 Z M91.61,91.55 C92.2,91.55 92.69,92.04 92.69,92.64 C92.69,93.24 92.2,93.72 91.61,93.72 C91.01,93.72 90.53,93.24 90.53,92.64 C90.53,92.04 91.01,91.55 91.61,91.55 L91.61,91.55 Z M147.63,86.47 L146.07,87.68 C150.61,91.64 145.71,95.46 145.56,95.2 C148.84,97.38 148.26,100.81 147.83,103.96 C147.06,109.57 146.75,114.88 145.91,120.64 C145.91,120.64 149.86,123.37 152.49,124.43 C152.54,124.44 152.51,90.68 152.51,90.68 L147.63,86.47 L147.63,86.47 Z M42.54,86.97 L40.2,86.25 L40.75,88.93 L43.32,89.98 L42.54,86.97 L42.54,86.97 Z M35.72,85.8 L32.46,86.89 L31.89,89.49 L34.89,88.81 L35.72,85.8 L35.72,85.8 Z M71.66,83.9 C72.26,83.9 72.75,84.39 72.75,84.99 C72.75,85.58 72.26,86.07 71.66,86.07 C71.07,86.07 70.58,85.58 70.58,84.99 C70.58,84.39 71.07,83.9 71.66,83.9 L71.66,83.9 Z M40.74,78.55 L39.73,81.82 L42.53,80.84 L43.51,77.71 L40.74,78.55 L40.74,78.55 Z M31.04,77.42 L32.04,81.08 L35.8,82.15 L34.6,78.71 L31.04,77.42 L31.04,77.42 Z M70.8,75.59 C73.8,75.54 75.78,79.52 76.91,87.78 C77.28,90.52 78.95,94.35 80.15,95.26 C83.2,97.54 87.96,95.78 87.96,92.37 C87.97,88.12 82.02,87.49 81.93,91.73 C81.91,92.73 81.4,92.78 80.91,91.83 C80.47,90.98 80.86,89.4 81.71,88.6 C82.26,88.08 82.21,87.99 81.18,87.41 C77.56,85.41 76.02,82.42 77.95,81.15 C78.8,80.59 79.95,81.29 79.42,82.04 C78.59,83.21 78.58,83.4 79.28,84.37 C80.06,85.47 81,86.02 83.21,86.67 C85.07,87.23 85.38,87.33 86.23,87.72 C88.75,88.87 89.9,91.4 89.02,93.86 C88.81,94.44 88.61,95.01 88.57,95.13 C88.48,95.4 88.63,95.4 90.4,95.16 C93.21,94.79 96.34,95.79 97.88,97.58 C98.71,98.53 99.38,100.68 99.4,102.48 C99.4,102.83 99.51,103.61 99.64,104.22 C99.76,104.82 99.94,105.85 100.01,106.5 C100.75,112.65 105.85,115.79 108.05,111.46 C109.44,108.73 106.23,106 104.6,108.52 C104.03,109.4 103.44,109 103.77,107.95 C104.41,105.9 106.95,105.56 108.68,107.28 C109.62,108.21 110.07,110.31 109.62,111.65 C109.38,112.36 109.4,112.4 109.92,112.22 C111.08,111.81 113.09,112.2 113.82,112.98 C115.52,114.8 115.18,116.99 113.08,117.7 C112.13,118.02 111.05,117.69 110.7,116.57 C110.54,115.78 111.09,115.55 111.51,116.23 C112.31,117.52 114.03,116.48 113.62,114.96 C113.16,113.24 111.69,112.87 108.98,113.81 C104.66,115.3 103.27,115.17 101.21,113.12 C99.73,111.65 99.18,110.38 98.78,107.58 C98.34,104.48 98.3,104.4 97.54,105.06 C93.89,108.17 89.07,103.46 92.16,100.37 C93.12,99.41 93.82,100.25 92.96,101.32 C91.7,102.88 93.34,105.06 95.39,104.56 C99.13,103.63 98.37,98.15 94.32,96.87 C93.09,96.48 89.7,96.64 87.1,97.21 C79.83,98.81 76.62,95.7 75.12,85.61 C74.95,84.44 74.74,83.56 74.05,81.03 C73.23,78.02 70.45,76.38 68.93,78.02 C67.71,79.33 68.35,81.08 70.04,81.09 C71.72,81.09 71.2,82.25 69.45,82.41 C66.41,82.68 65.88,77.6 68.8,76.14 C69.51,75.79 70.18,75.6 70.8,75.59 L70.8,75.59 Z M71.19,71.97 C71.19,71.97 65.43,77.71 63.18,80.38 C68.02,85.22 77.27,91.3 77.33,100.66 L83.71,100.68 L104.34,119.19 C104.34,119.19 123.03,119.33 123.38,119.25 C123.75,119.16 130.39,109.63 130.39,109.63 L142.23,118.29 C142.23,118.29 141.66,108.96 141.22,103.25 C141.07,99.42 140.94,97.07 143.73,95.38 C139.9,93.55 140.14,90.19 142.96,87.72 C142.03,86.43 140.64,86.19 140.43,81.63 C139.85,81 139.29,80.63 138.56,80.09 L137.8,80.78 C135.34,82.99 133.67,85.25 133.39,86.72 C132.87,89.51 135.7,91.43 137.33,89.39 C137.79,88.81 138.21,88.97 138.21,89.72 C138.21,91.25 136.29,92.11 134.68,91.32 C134.3,91.13 133.96,91.01 133.93,91.04 C133.87,91.1 135.54,95.19 135.98,96.09 C136.73,97.59 137.12,99.09 137.18,100.67 C137.24,102.35 137.21,102.57 136.43,105.48 C135.69,108.22 136.03,109.85 137.36,109.85 C138.1,109.85 138.08,110.57 137.32,110.83 C135.73,111.39 134.74,110.21 134.68,107.68 C134.64,106.15 134.62,106.11 133.83,106.48 C131.1,107.77 128.13,105.47 129.42,103.06 C129.69,102.55 130.01,102.71 130.18,103.43 C130.49,104.79 131.2,105.39 132.48,105.38 C135.43,105.37 136.66,101.19 134.96,96.98 C134.62,96.14 134.45,96.19 134,97.25 C133.3,98.93 132.12,99.42 131.15,98.45 C130.82,98.12 130.66,97.59 130.88,97.56 C130.93,97.56 131.26,97.54 131.6,97.53 C133.32,97.48 133.91,95.81 133.11,93.29 C132.4,91.08 132.29,90.68 132.08,89.48 C131.75,87.63 131.98,86.23 132.89,84.43 C133.06,84.12 134.06,82.99 135.32,81.72 C136.6,80.42 137.7,79.43 137.7,79.43 C136.48,78.41 135.37,77.6 134,76.58 C134,76.58 125.22,100.76 125.84,110.18 C124.72,122.6 115.63,119.16 114.96,110.56 L71.19,71.97 L71.19,71.97 Z M144.65,44.54 L142.91,47.02 L144.32,49.86 L146.03,47.15 L144.65,44.54 L144.65,44.54 Z M97.4,21.62 C94.27,27.7 78.21,55.08 78.05,56.04 L82.17,57.86 L102.13,21.76 C102.13,21.76 97.99,21.62 97.4,21.62 L97.4,21.62 Z" id="Fill-292" fill="#C0242A"></path>
        <path d="M89.24,224.42 C89.12,224.46 89.24,225.57 89.52,226.03 C87.69,226.14 87.21,227.54 87.03,228.73 L85.39,228.72 C85.66,224.72 89.12,224.63 89.24,224.42 L89.24,224.42 Z M91.16,223.55 C91.86,223.55 92.43,224.12 92.43,224.82 C92.43,225.52 91.86,226.09 91.16,226.09 C90.46,226.09 89.89,225.52 89.89,224.82 C89.89,224.12 90.46,223.55 91.16,223.55 L91.16,223.55 Z M99.82,208.13 C100.5,208.13 101.05,208.68 101.05,209.36 C101.05,210.04 100.5,210.59 99.82,210.59 C99.14,210.59 98.6,210.04 98.6,209.36 C98.6,208.68 99.14,208.13 99.82,208.13 L99.82,208.13 Z M33.34,201.99 L34.79,203.94 L33.33,206.34 L31.9,204.09 L33.34,201.99 L33.34,201.99 Z M33.44,200.83 L31.21,203.91 L33.39,207.45 L35.46,203.87 L33.44,200.83 L33.44,200.83 Z M33.75,197.87 L36.97,203.56 L33.37,210.11 L29.8,203.97 L33.75,197.87 L33.75,197.87 Z M103.02,196.62 L109.15,198.29 C106.6,206.97 106.25,217.06 109.31,228.72 L95.22,228.73 C97.18,226.97 96.4,224.54 94.12,224 C96.34,222.72 96.34,219.32 93.68,218.91 C91.34,218.55 90.13,220.78 91.17,223.02 L90.17,223.29 C90.17,223.29 89.72,222.73 89.62,222.43 C88.74,219.85 90.59,217.29 93.73,217.29 C95.68,217.3 96.08,216.75 95,215.55 C93.09,213.41 93.69,210.4 96.19,209.22 C97.35,208.67 98.03,209.03 98.03,209.03 L98.09,210.45 C98.09,210.45 97.62,210.5 97.26,210.56 C94.49,211 95,215.42 97.81,215.38 C99.36,215.36 100.47,214.19 100.47,212.5 L100.47,211.32 C101.89,213.76 104.33,213.93 105.37,211.95 C106.6,209.61 104.38,208.15 102.15,208.39 C102.15,208.39 102.62,208.08 102.91,207.93 C105.28,206.71 104.47,203.21 101.84,203.21 C100.04,203.21 99,204.89 99.58,206.67 C99.67,206.95 99.89,207.41 99.89,207.41 L98.82,207.68 C98.82,207.68 98.58,207.5 98.47,207.33 C96.63,204.45 99.58,201.28 103.29,202 C104.65,202.42 104.61,201.48 103.85,200.63 C103.03,199.4 102.41,198.01 103.02,196.62 L103.02,196.62 Z M99.96,195.43 C100.46,195.71 102.25,196 102.4,196.35 C102.47,196.53 102.34,196.87 102.3,197.31 C102.2,198.37 102.46,199.55 103.11,200.5 C104.16,201.96 103.02,201.29 101.97,201.28 C99.59,200.67 96.57,203.91 97.72,207.25 C97.98,207.99 97.93,208.05 96.66,208.44 C93.77,209.32 92.51,212.39 93.9,215.14 C94.63,216.57 94.65,216.49 93.38,216.6 C89.84,216.89 87.79,220.04 89.27,223.25 C89.5,223.75 89.36,223.88 88.59,224.03 C86.17,224.47 85.09,226.5 84.79,228.72 L81.6,228.75 L99.96,195.43 L99.96,195.43 Z M36.46,193.69 C37.57,193.57 38.35,194.52 38.64,195.32 C39.03,196.4 38.33,198.33 36.38,198.22 C34.14,198.1 33.14,194.06 36.46,193.69 L36.46,193.69 Z M96.02,193.61 C96.73,194.05 99.36,195.22 99.36,195.22 L80.89,228.7 L76.42,228.73 L96.02,193.61 L96.02,193.61 Z M31.04,193.51 C33.02,193.54 33.97,196.59 31.87,197.88 C31.31,198.2 30.57,198.16 29.97,197.89 C28.27,197.07 28.14,194.53 30.12,193.7 C30.45,193.57 30.75,193.51 31.04,193.51 L31.04,193.51 Z M67.75,182.33 C76.45,182.32 84.37,183.82 91.05,186.37 C91.05,186.37 90.18,188.24 89.88,188.44 C85.09,186.52 76.93,184.74 71.41,184.65 C69.39,184.57 68.94,184.52 68.2,184.26 C64,182.87 60.29,182.27 56.86,184.32 L55.47,183.33 C59.69,182.65 63.8,182.34 67.75,182.33 L67.75,182.33 Z M86.29,180.08 L86.03,182.03 L88.65,182.59 L89,180.78 L86.29,180.08 L86.29,180.08 Z M81.18,178.99 L80.91,180.93 L83.49,181.31 L83.82,179.47 L81.18,178.99 L81.18,178.99 Z M58.46,178.39 L55.7,178.75 L55.93,180.59 L58.62,180.29 L58.46,178.39 L58.46,178.39 Z M75.85,178.3 L75.78,180.16 L78.54,180.47 L78.74,178.58 L75.85,178.3 L75.85,178.3 Z M63.57,178.01 L60.82,178.19 L60.91,179.99 L63.63,179.87 L63.57,178.01 L63.57,178.01 Z M70.67,177.87 L70.68,179.8 L73.4,179.89 L73.53,178 L70.67,177.87 L70.67,177.87 Z M65.79,177.83 L65.75,179.79 L68.54,179.7 L68.6,177.84 L65.79,177.83 L65.79,177.83 Z M98.2,176.66 C99.09,176.66 99.64,177.66 98.99,178.09 C98.53,178.39 97.52,178.47 97.31,178.23 C96.89,177.72 97.49,176.66 98.2,176.66 L98.2,176.66 Z M67.09,176.25 C76.37,176.2 86.01,177.68 94.03,180.89 L93.37,182.08 L91.27,181.36 L90.54,183.27 L92.28,183.93 L91.46,185.7 C82,182.58 71.8,180.25 54.84,182.77 C54,182.18 52.47,181.02 52.47,181.02 L53.83,180.72 L53.65,178.83 L50.23,179.45 L49.23,178.4 C54.58,177.02 60.75,176.28 67.09,176.25 L67.09,176.25 Z M47.6,175.3 C48.28,175.3 49.1,176.53 48.92,177.25 C48.82,177.83 48.52,177.73 48.1,177.3 C47.94,177.17 47.58,177.04 47.41,176.99 C46.38,176.68 46.55,175.3 47.6,175.3 L47.6,175.3 Z M96.79,174.6 C97.52,174.98 97.58,175.83 96.92,176.3 C96.41,176.66 96.28,176.97 96.2,177.96 C96.37,180.22 95.1,178.79 94.98,176.74 C94.92,175.62 95.52,173.96 96.79,174.6 L96.79,174.6 Z M48.4,172.94 C49.36,172.94 50.44,175.69 49.91,176.74 C49.57,177.36 49.25,177.21 49.12,176.49 C49.03,175.97 48.73,175.25 47.96,175.13 C46.84,174.77 47.21,172.94 48.4,172.94 L48.4,172.94 Z M94.03,172.38 C95.54,172.45 95.69,173.87 94.82,174.5 C94.34,174.97 94.17,175.64 94.27,176.72 C94.32,177.2 94.41,177.79 94.41,177.85 C94.39,178.08 94.2,178.05 93.94,177.77 C92.35,176.02 92.56,172.32 94.03,172.38 L94.03,172.38 Z M143.03,170.48 L145.11,170.65 L146.26,174.01 L143.27,172.73 L143.03,170.48 L143.03,170.48 Z M137.62,170.04 L136.98,172.63 L134.37,173.88 L135.32,170.7 L137.62,170.04 L137.62,170.04 Z M141.2,169.92 C141.48,169.9 141.85,170.22 142.29,170.67 C143.3,171.7 142.86,173.32 141.49,174.12 C139.36,175.38 136.93,173.01 138.1,170.83 C138.74,169.64 139.52,169.86 140.18,171.54 C140.3,171.74 140.18,171.33 140.4,170.82 C140.63,170.31 140.93,169.95 141.2,169.92 L141.2,169.92 Z M64.97,169.31 C65.01,169.31 65.04,169.32 65.08,169.32 C65.79,169.44 67.71,170.04 66.89,170.24 L64.06,170.25 C63.51,170.27 64.41,169.35 64.97,169.31 L64.97,169.31 Z M48.29,168.58 C50.47,168.93 51.11,172.65 50.81,174.24 C50.23,176.16 50.26,174.86 50.06,174.06 C49.52,172.12 48.9,171.07 48.24,170.96 C46.45,170.66 46.7,168.33 48.29,168.58 L48.29,168.58 Z M90.1,169.97 C89.68,170.88 89.53,171.61 89.76,172.75 C90.02,174.02 90.08,174.34 89.36,173.54 C87.96,171.68 87.76,168.71 89.05,168.37 C90.29,168.04 90.56,169.39 90.1,169.97 L90.1,169.97 Z M92.95,167.98 C93.95,167.79 94.49,168.74 94.43,169.34 C94.36,169.99 93.75,170.64 92.83,170.82 C92.63,171.55 92.07,173.22 92.4,175.7 C92.66,176.86 92.17,176.89 91.67,175.77 C90.86,173.97 89.67,168.6 92.95,167.98 L92.95,167.98 Z M64.91,167.27 C65.2,167.28 65.59,167.43 66.3,167.72 C66.94,167.98 68.73,168.58 69.75,168.97 C71.33,169.58 72.98,170.39 72.98,170.39 L69.4,170.19 C69.4,170.19 68.18,169.79 67.46,169.49 C64.83,168.41 64.98,168.41 63.67,169.41 C63.21,169.76 62.62,170.34 62.62,170.34 L60.8,170.44 C60.8,170.44 61.65,169.52 62.89,168.6 C63.29,168.3 63.85,167.87 64.11,167.65 C64.42,167.39 64.62,167.26 64.91,167.27 L64.91,167.27 Z M49.92,167.21 C50.38,167.19 50.91,167.54 51.18,168.27 C51.9,170.3 51.46,172.79 50.72,170.47 C50.53,169.98 50.2,169.45 49.94,169.18 C49.68,168.9 49.1,168.58 49.11,168.13 C49.17,167.54 49.52,167.23 49.92,167.21 L49.92,167.21 Z M88.37,167.03 C88.44,167.47 88.39,167.55 87.9,168.06 C87.26,168.71 87.18,169.77 87.64,171.14 C87.77,171.52 87.92,171.96 87.89,172 C87.22,172.67 85.47,168.45 85.89,167.19 C86.39,165.69 88.03,165.66 88.37,167.03 L88.37,167.03 Z M64.33,165.2 C64.36,165.19 64.39,165.2 64.42,165.2 C65.12,165.21 66.22,165.68 68.94,166.78 C70.43,167.38 72.16,168.07 72.16,168.07 L74.6,170.23 C74.6,170.23 71.25,169.18 70.09,168.59 C69.83,168.46 69.28,168.22 68.85,168.06 C68.43,167.9 67.37,167.49 66.5,167.14 C64.64,166.38 64.62,166.38 63.99,166.91 C63.72,167.13 63.07,167.65 62.53,168.05 C62,168.46 61.22,169.05 60.8,169.37 C60.31,169.75 59.69,170.32 59.69,170.32 L60.08,168.22 C60.08,168.22 60.43,167.88 61.06,167.4 C61.57,167 62.44,166.34 62.99,165.91 C63.55,165.48 63.85,165.22 64.33,165.2 L64.33,165.2 Z M140.44,164.96 L142.68,167.44 L140.07,170.16 L137.6,167.45 L140.44,164.96 L140.44,164.96 Z M135.27,164.97 C135.9,164.96 136.75,165.17 137.29,165.71 C137.99,166.41 137.95,166.67 136.78,167.1 C136.21,167.31 135.82,167.47 135.82,167.47 C135.82,167.47 136.35,167.68 136.74,167.79 C137.86,168.17 137.8,168.82 136.77,169.59 C135.37,170.64 133.12,169.25 133.15,167.4 C133.17,165.94 134.07,165.01 135.27,164.97 L135.27,164.97 Z M52.07,168.7 C52.04,169.35 51.71,169.08 51.63,168.7 C51.37,167.83 50.82,166.9 50.35,166.52 C49.79,166.07 49.66,165.46 50.04,165.08 C51.46,163.82 52.06,168.29 52.07,168.7 L52.07,168.7 Z M144.33,164.98 C146.79,164.99 147.69,168.43 145.29,169.65 C144.4,170.1 142.9,169.88 142.53,169.17 C142.35,168.6 142.55,168.28 143,168.04 C143.54,167.75 144.33,167.5 144.33,167.5 C144.33,167.5 143.04,167.25 142.67,166.63 C141.88,165.31 143.33,165.01 144.33,164.98 L144.33,164.98 Z M33.3,164.87 C32.56,164.9 31.69,165.41 31.38,166.07 C30.74,167.41 30.91,170.15 32.11,178.33 C32.21,179.02 32.35,180.16 32.42,180.86 C32.63,183.04 32.92,184.77 33.13,185.09 C33.52,185.7 33.58,185.04 33.29,182.91 C33.15,181.83 32.95,180.17 32.86,179.23 C32.31,175.34 32.2,172.58 31.86,169.03 C31.69,167.29 32.39,166.01 33.7,165.66 C34.41,165.47 34.45,165.15 33.79,164.94 C33.64,164.89 33.47,164.87 33.3,164.87 L33.3,164.87 Z M33.4,163.89 C35.08,163.84 36.19,165.18 36.59,166.67 C36.82,167.54 36.62,168.34 36.57,169.17 C35.42,178.08 34.91,186.35 33.84,194.59 C33.71,194.99 33.57,194.84 33.4,194.13 C32.16,186.65 31.36,178.45 30.32,171.04 C30.08,168.27 29.37,164.65 32.86,163.94 C33.05,163.91 33.23,163.89 33.4,163.89 L33.4,163.89 Z M63.92,163.08 C64.28,163.09 64.77,163.28 65.8,163.68 C66.58,163.98 68.38,164.71 68.38,164.71 L70.76,166.83 C70.76,166.83 68.67,166.05 67.21,165.44 C63.93,164.04 64.4,164 61.81,165.98 C61.06,166.55 60.28,167.21 60.28,167.21 L60.6,165.51 C60.6,165.51 61.58,164.53 62.8,163.65 C63.32,163.27 63.56,163.08 63.92,163.08 L63.92,163.08 Z M83.06,163.45 C82.04,164.93 82.95,166.3 83.18,167.46 C83.22,168.14 82.35,167.48 81.85,166.49 C80.81,164.44 80.75,162.79 81.69,162.05 C83,161.27 83.6,162.65 83.06,163.45 L83.06,163.45 Z M145.9,161.72 L145.29,164.37 L143.42,164.25 L143.35,162.62 L145.9,161.72 L145.9,161.72 Z M85.24,161.76 C87.36,161.17 87.62,163.82 85.99,164.21 C85,164.45 85.01,165.99 85.29,168.23 C85.35,168.74 85.49,169.36 85.46,169.45 C85.31,169.85 84.8,169.23 84.12,167.8 C83.11,165.18 83.42,162.26 85.23,161.76 L85.24,161.76 L85.24,161.76 Z M134.66,161.55 L136.86,162.57 L137.33,164.86 L135.3,164.36 L134.66,161.55 L134.66,161.55 Z M52.71,165.81 C52.95,167.76 52.41,167.92 51.88,166.06 C51.43,164.47 50.98,163.89 50.22,163.89 C48.81,164.1 48.33,162.01 49.6,161.58 C51.99,160.91 52.61,165.04 52.71,165.81 L52.71,165.81 Z M63.3,161.29 C63.72,161.29 65.34,162.02 65.34,162.02 L66.96,163.45 C66.96,163.45 65.47,162.8 64.95,162.62 C63.7,162.18 63.72,162.17 62.71,163 C61.68,163.85 60.82,164.47 60.82,164.47 L61.14,162.63 C61.14,162.63 62.66,161.29 63.3,161.29 L63.3,161.29 Z M142.76,163.17 C142.81,164.05 142.44,164.95 141.9,165.24 C141.35,165.54 141.01,165.13 140.68,164.12 C140.44,163.38 140.36,163.09 140.36,163.09 C140.36,163.09 140.15,164.02 140.09,164.22 C139.66,165.51 138.26,165.52 137.67,164.08 C137.05,162.39 138.79,160.67 140.13,160.73 C141.62,160.8 142.68,161.76 142.76,163.17 L142.76,163.17 Z M51.67,160.38 C52.86,160.52 53.31,163.01 53.29,163.76 C53.25,164.55 53.07,165.08 52.91,164.6 C52.6,163.56 51.97,162.07 51.42,161.72 C50.48,161.14 50.75,160.46 51.67,160.38 L51.67,160.38 Z M80.75,161.59 C80.22,162.26 80.22,163.68 80.64,165.33 C80.75,165.8 80.32,165.45 79.89,164.9 C79.07,163.86 78.68,162.65 78.83,161.65 C79,159.12 82.19,159.61 80.75,161.59 L80.75,161.59 Z M61.83,159.03 L63.67,160.59 C62.49,160.07 61.48,161.42 61.48,161.42 L61.83,159.03 L61.83,159.03 Z M52.18,158.49 C53.57,158.42 53.98,160.51 53.99,161.34 C53.99,162.42 53.86,162.98 53.66,162.4 C53.2,161.04 52.74,160.3 52.24,160.3 C51.96,160.23 51.73,160.12 51.51,159.87 C51.02,159.22 51.5,158.51 52.18,158.49 L52.18,158.49 Z M61.58,157.97 L58.79,171.54 C64.49,170.65 71.39,170.92 76.72,171.42 L61.58,157.97 L61.58,157.97 Z M33.37,157.45 C31.06,157.44 30.19,160.51 32.11,161.92 C32.93,162.53 33.58,162.36 32.9,161.71 C31.63,160.5 32.14,158.49 33.82,158.12 C34.65,157.94 34.32,157.45 33.37,157.45 L33.37,157.45 Z M33.41,156.64 C35.43,156.63 36.9,157.94 36.82,159.77 C36.74,161.79 35.48,163.06 33.63,163.17 C31.56,163.28 30.28,161.62 30.24,159.91 C30.2,158.4 31.16,156.66 33.41,156.64 L33.41,156.64 Z M76.49,158.22 C76.18,158.71 76.15,159.24 76.36,160.19 C76.92,162.23 77.06,162.61 75.9,161.57 C74.68,160.28 74.15,157.72 75.17,156.96 C76.32,156.11 77.35,157.05 76.49,158.22 L76.49,158.22 Z M78.8,155.84 C80.51,155.84 81.19,157.96 79.09,158.7 C77.84,159.14 78.37,161.67 78.6,163.18 C78.69,163.75 78.51,163.79 78.15,163.28 C76.83,161.33 76.1,156.41 78.8,155.84 L78.8,155.84 Z M60.66,155.12 L82.46,174.23 C73.53,172.8 64.77,172.69 56.25,173.76 L60.66,155.12 L60.66,155.12 Z M52.15,154.53 C53.41,154.53 54.58,156.58 54.59,158.83 C54.61,160.64 54.35,160.51 53.68,158.78 C53.21,157.63 52.83,157.22 51.97,156.92 C50.38,156.36 50.52,154.54 52.15,154.53 L52.15,154.53 Z M74.31,154.47 C75.02,154.65 75.27,155.58 74.44,156.46 C74.17,156.8 73.92,157.34 74.25,158.76 C74.7,160.71 73.94,160.09 73.01,158.25 C72.42,157.07 72.69,154.06 74.31,154.47 L74.31,154.47 Z M60.27,154.14 L55.57,174.28 C67.15,173.3 72.42,173.1 84.8,175.53 L60.27,154.14 L60.27,154.14 Z M55.2,155.63 C55.23,157.31 54.85,157.47 54.34,155.85 C54.21,155.48 53.98,155.1 53.82,154.98 C52.87,154.33 52.71,153.83 53.25,153.28 C54.6,152.18 55.18,155.13 55.2,155.63 L55.2,155.63 Z M70.22,152.24 C69.88,152.61 69.87,154.37 70.18,155.56 C70.36,156.21 70.04,156.26 69.6,155.74 C68.16,154.05 68.03,151.19 69.36,150.63 C70.45,150.35 70.73,151.68 70.22,152.24 L70.22,152.24 Z M54.09,150.38 C55.42,150.52 55.79,152.34 55.84,153.54 C55.84,155.2 55.37,155.14 55.11,153.54 C54.98,152.83 54.76,152.56 54.19,152.39 C52.9,152 52.81,150.38 54.09,150.38 L54.09,150.38 Z M74.05,151.87 C73.99,152.81 72.7,153.01 72.43,153.25 C71.78,153.81 71.87,155.45 72.15,157.35 C72.36,158.5 72.07,158.45 71.47,157.55 C70.41,155.96 70.43,153.21 71.14,151.59 C72.04,149.5 74.15,150.54 74.05,151.87 L74.05,151.87 Z M59.25,149.86 L93.97,180.19 C79.32,174.74 65.87,174.85 52.88,176.87 L59.25,149.86 L59.25,149.86 Z M128.58,149.66 C129.59,149.67 129.86,149.92 130.44,151.01 C131.29,152.62 132.88,153.75 135.18,154.41 C138.12,155.31 140.66,157.02 140.53,160.18 C139.83,160.19 139.13,160.24 138.43,160.45 C137.62,158.15 135.59,156.84 133.85,156.44 C129.83,155.53 126.1,151.44 127.16,149.81 C127.62,149.58 128.12,149.65 128.58,149.66 L128.58,149.66 Z M132.54,149.24 C133.04,149.22 132.92,149.38 133.29,149.77 C133.85,150.36 134.08,150.5 134.86,150.75 C136.49,151.26 138.28,153.53 137.59,154.22 C137.04,154.65 135.56,153.84 135.06,153.66 C134.51,153.48 133.83,153.24 133.55,153.14 C132.18,152.68 130.23,150.17 130.84,149.66 C131.16,149.39 132.15,149.26 132.54,149.24 L132.54,149.24 Z M124.89,148.88 C125.45,148.85 126.08,149.29 126.39,150.08 C126.84,151.23 126.8,154.04 126.57,155.54 C126.22,157.83 125.67,159.93 125.45,161.51 C124.65,162.46 122.67,159.08 122.49,156.41 C122.18,154.3 122.9,149.9 124.53,148.97 C124.64,148.92 124.76,148.88 124.89,148.88 L124.89,148.88 Z M68.13,150.49 C67.73,151.69 68.02,152.41 68.11,153.7 C68.18,154.28 68.21,154.43 67.73,153.99 C66.59,152.99 65.99,149.6 67.01,148.97 C68.39,148.13 68.8,149.55 68.13,150.49 L68.13,150.49 Z M56.25,152.81 C55.85,152.34 55.66,150.83 55.33,150.19 C55.08,149.42 54.85,148.96 54.44,148.99 C52.04,149.19 52.14,146.9 53.52,146.46 C56.36,145.57 57.4,152.45 56.25,152.81 L56.25,152.81 Z M139.05,145.8 C140.35,147.54 141.51,149.82 142.57,152.39 L136.9,149.78 L139.05,145.8 L139.05,145.8 Z M62.91,145.13 C64.06,145.08 64.43,145.97 63.76,146.64 C63.37,147.08 63.41,148.24 63.85,149.19 C64.47,150.57 64.32,150.98 63.16,149.66 C61.55,147.93 61.58,145.18 62.91,145.13 L62.91,145.13 Z M65.98,144.28 C67.29,144.28 67.67,145.84 66.53,146.6 C65.8,147.09 65.64,148.7 66.09,150.92 C66.46,152.53 66.27,152.77 65.31,151.33 C63.68,148.7 64.1,144.28 65.98,144.28 L65.98,144.28 Z M58.14,140.69 C58.6,140.83 58.9,141.25 59.14,141.62 C59.76,142.54 59.83,143.68 59.4,144.16 C58.52,145.21 57.15,144.09 57.31,142.47 C57.43,141.29 57.75,140.57 58.14,140.69 L58.14,140.69 Z M56.29,139.5 C56.79,139.5 57.2,139.92 57.2,140.42 C57.2,140.93 56.79,141.34 56.29,141.34 C55.78,141.34 55.37,140.93 55.37,140.42 C55.37,139.92 55.78,139.5 56.29,139.5 L56.29,139.5 Z M59.56,138.94 C60.07,138.94 60.48,139.35 60.48,139.86 C60.48,140.37 60.07,140.78 59.56,140.78 C59.06,140.78 58.65,140.37 58.65,139.86 C58.65,139.35 59.06,138.94 59.56,138.94 L59.56,138.94 Z M139.99,138.64 L142.8,141.9 L139.61,144.15 C140.05,142.43 140.2,140.61 139.99,138.64 L139.99,138.64 Z M57.53,135.8 C58.36,135.78 58.98,136.9 58.75,138.29 C58.6,139.19 58.26,140.29 57.25,139.54 C56.79,139.11 56.37,137.85 56.48,136.91 C56.55,136.29 56.86,135.81 57.53,135.8 L57.53,135.8 Z M54.32,140.59 C54.68,143.06 56.21,145.89 58.43,145.65 C61.34,145.33 61.71,141.42 61.42,139.45 C61.07,137.08 59.77,134.93 57.68,134.81 C54.58,134.63 54.05,138.69 54.32,140.59 L54.32,140.59 Z M57.61,133.2 C63.59,133.27 65.14,145.59 59.25,147.32 C55.43,147.89 53.46,144.42 52.91,141.29 C52.26,137.4 53.96,133.16 57.61,133.2 L57.61,133.2 Z M137.01,132.58 C138,132.83 138.49,133.79 139.18,137.35 C139.99,141.5 138.23,148.24 136.03,149.5 C134.89,150.4 133.65,149.45 134.46,148.27 C137.08,144.44 137.43,138.18 135.88,134.67 C135.38,133.54 135.89,132.38 137.01,132.58 L137.01,132.58 Z M74.03,132.1 L76.52,132.1 L95.23,149 L100.14,149.09 L100.06,150.61 L94.16,150.58 L74.03,132.1 L74.03,132.1 Z M85.57,132.06 L97.55,142.89 L101.63,143.1 L101,144.58 L96.16,144.44 L82.71,132.09 L85.57,132.06 L85.57,132.06 Z M88.34,132.05 L90.56,132.05 L98.66,139.42 L103.64,139.49 L102.69,140.91 L97.74,140.77 L88.34,132.05 L88.34,132.05 Z M79.56,132.05 L81.86,132.12 L96.01,145.16 L100.83,145.27 L100.41,146.92 L95.75,146.9 L79.56,132.05 L79.56,132.05 Z M31.9,131.17 L32.58,131.66 C32.58,131.66 32.17,136.89 32.04,138.42 C31.8,141.24 31.68,143.79 31.43,146.66 C30.94,152.38 31.02,153.22 32.14,154.1 C33,154.75 33.59,154.45 32.82,153.64 C32.32,152.99 32.32,153 32.17,152.05 C32.07,151.38 32.08,150.4 32.23,147.72 C33.08,132.62 33.26,132.11 33.28,132.11 L34.99,133.22 C34.9,133.45 36.56,148.44 36.39,152.16 C36.2,156.51 30.35,155.55 30.08,152.32 C29.96,151.58 31.07,139.35 31.07,139.35 L31.9,131.17 L31.9,131.17 Z M143.29,130.37 C142.52,132.87 141.31,135.19 139.79,137.35 C139.43,135.82 139.24,134.18 138.5,132.88 L143.29,130.37 L143.29,130.37 Z M115.18,128.98 C113.75,130.59 111.51,132.97 109.79,134.11 C107.5,135.63 104.28,138.55 104.43,138.59 C104.43,138.59 101.06,138.58 98.77,138.49 L90.88,131.43 C90.88,131.43 91.17,131.32 80.43,131.41 C66.56,131.53 55.32,131.37 55.32,131.37 L56.9,129.15 L115.18,128.98 L115.18,128.98 Z M25.44,127.45 L31.17,130.79 C30.87,135.06 30.48,140.67 29.9,146.35 C29.4,150.79 29.2,152.83 29.99,154.07 C30.65,154.97 32.44,155.94 32.44,155.94 C29.42,157.17 28.26,160.78 31.64,163.48 C31.64,163.48 30.82,164.13 30.46,164.52 L25.75,160.99 L25.44,127.45 L25.44,127.45 Z M152.27,126.4 L152.4,156.67 C150.61,153.06 148.74,149.36 146.67,147.05 C146.59,146.9 151.2,142.38 151.2,142.38 C149.51,140.81 148.52,139.88 146.16,137.7 C148.46,134.37 150.28,130.03 152.27,126.4 L152.27,126.4 Z M151.32,126.22 C150.51,128.44 148.39,132.96 145.82,136.39 C145.31,137.04 144.97,137.56 144.97,137.56 L149.97,142.36 L145.63,146.99 C148.06,149.53 150.13,153.43 151.21,156.53 C149.24,155.75 148.14,155.28 145.71,153.93 C145.02,152.2 144.32,150.37 143.55,148.79 C141.78,145.19 141.8,145.54 143.25,144.48 C145.37,142.93 146,142.57 145.45,141.79 C145.06,141.24 142.56,138.26 142.41,138.17 C142.18,138.03 142.28,137.59 142.71,136.89 C144.15,134.28 145.34,131.41 146.08,128.85 L151.32,126.22 L151.32,126.22 Z M37.96,114.38 C38.35,115.81 38.67,117.26 39.34,118.57 L35.25,120.74 C36,118.58 36.86,116.49 37.96,114.38 L37.96,114.38 Z M73.99,112.16 L79.31,112.32 C79.31,112.32 84.56,116.91 87.21,119.45 L105.04,119.45 C114.84,119.45 122.9,119.49 122.95,119.54 C123.07,119.66 121.68,121.53 121.68,121.53 L62.88,121.56 C62.9,121.56 66.52,118.32 67.81,117.42 C70.11,115.81 72.21,114.32 73.99,112.16 L73.99,112.16 Z M121.49,112.44 C122,113.49 122.28,114.87 120.69,114.96 C119.74,115.02 119.2,113.44 120.02,112.03 C120.64,110.92 121.19,111.87 121.49,112.44 L121.49,112.44 Z M130.52,110.08 C136.07,114.41 143.92,120.16 152.07,124.82 C152.07,124.81 150.73,125.88 149.49,126.22 C143.15,122.71 135.6,117.77 130.92,113.76 C126.51,120.27 118.04,132.13 110.5,137.6 C105.74,141.01 103.35,145.22 103.36,150.13 C103.38,155.22 105.17,158.53 110.16,162.7 C113.37,165.38 116.89,168.81 116.89,168.81 L115.04,170.41 C114.73,170.38 109.64,165.98 104.49,160.79 C101.66,157.94 100.41,151.69 100.89,148.31 C101.54,143.72 103.07,140.43 107.41,136.89 C109.07,135.59 110.75,134.59 112.22,133.12 C125.7,118.65 130.52,110.08 130.52,110.08 L130.52,110.08 Z M118.78,110.06 C119.29,110.06 119.69,110.47 119.69,110.98 C119.69,111.49 119.29,111.9 118.78,111.9 C118.27,111.9 117.86,111.49 117.86,110.98 C117.86,110.47 118.27,110.06 118.78,110.06 L118.78,110.06 Z M80.43,109.9 L90.29,119.2 L87.49,119.23 L79.4,111.88 L74.27,111.68 L75.27,109.93 L80.43,109.9 L80.43,109.9 Z M122,109.44 C122.51,109.44 122.92,109.85 122.92,110.36 C122.92,110.87 122.51,111.28 122,111.28 C121.49,111.28 121.08,110.87 121.08,110.36 C121.08,109.85 121.49,109.44 122,109.44 L122,109.44 Z M38.66,106.89 C38.27,108.26 38,109.8 37.84,111.46 L35.77,108.82 L38.66,106.89 L38.66,106.89 Z M120.43,106.63 C121.29,106.95 121.44,109.07 120.68,109.94 C120.17,110.54 118.97,109.41 118.87,107.98 C118.8,107.1 119.65,106.34 120.43,106.63 L120.43,106.63 Z M76.82,106.47 L81.76,106.58 C86.12,110.39 90.73,114.54 95.31,119.11 L93.15,119.11 C93.15,119.11 92.59,118.57 92.42,118.39 C88.71,115.03 84.94,111.28 81.35,108.26 L76.21,108.06 L76.82,106.47 L76.82,106.47 Z M120.35,105.09 C117.3,105.22 117.05,109.36 117.14,110.93 C117.36,113.19 118.26,116.53 121.12,116.27 C123.22,116.06 124.19,113.57 124,110.57 C123.82,107.75 122.68,105.09 120.35,105.09 L120.35,105.09 Z M77.33,104.22 L82.97,104.34 C88.11,109.03 93.63,113.4 99.13,119.11 L96.47,119.11 C96.47,119.11 95.7,118.36 95.51,118.19 C90.54,113.73 86.86,110.1 82.06,105.96 L77.03,105.82 L77.33,104.22 L77.33,104.22 Z M125.31,112.86 C124.71,115.71 123.58,117.13 121.98,117.72 C115.45,120.14 112.6,106.91 118.66,103.75 C124.44,101.82 126.12,109.11 125.31,112.86 L125.31,112.86 Z M43.25,104.11 C40.97,107.75 40.34,112.33 41.75,116.41 C42.81,119.3 40.49,119.47 39.53,117.57 C38.8,116.14 38.38,113.66 38.6,111.02 C38.91,106.76 40.88,102.47 42.45,101.96 C44.05,101.43 43.7,103.53 43.25,104.11 L43.25,104.11 Z M77.69,100.85 L83.67,101.05 L103.7,119.15 L101.82,119.11 L83.42,102.29 L77.69,102.3 L77.69,100.85 L77.69,100.85 Z M114.45,100.32 C114.54,100.32 114.84,100.61 115.11,100.87 C116.43,102.15 117,104.48 116.2,105.33 C115.57,106.01 114.45,105.96 114.26,105.25 C114.2,104.9 114.57,104.24 114.73,103.93 C114.98,103.46 115.02,102.12 114.65,101.14 C114.49,100.7 114.33,100.32 114.45,100.32 L114.45,100.32 Z M35.87,99.4 L41.16,102.09 C40.39,103.14 39.79,104.12 39.37,105.23 C37.69,103.32 36.81,101.37 35.87,99.4 L35.87,99.4 Z M112.46,98.44 C113.18,98.72 114.1,101.03 114.2,102.86 C114.2,104.17 113.99,105.82 112.86,106.45 C112.15,106.82 111.41,106.63 111.08,106 C110.69,105.23 110.98,104.44 111.8,104.07 C112.8,103.61 113.13,101.57 112.52,99.58 C112.48,99.25 111.98,98.3 112.46,98.44 L112.46,98.44 Z M122.1,98.39 C122.32,98.73 122.34,99.4 122.51,99.88 C122.81,101.22 123.73,102.22 124.56,102.09 C125.11,102.02 125.88,102.19 125.96,102.86 C126.12,103.42 125.83,103.96 125.22,104.2 C124.53,104.47 123.76,104.3 123.17,103.75 C121.94,102.59 121.18,98.79 122.1,98.39 L122.1,98.39 Z M41.17,97.28 C43.18,97.66 45.38,98.83 46.8,100.3 C47.68,101.24 47.64,102 46.26,102.08 C44.93,102.28 44.91,102.5 44.27,101.95 C43.99,101.72 43.43,101.17 42.8,101.08 C40.8,100.77 39.78,97.01 41.17,97.28 L41.17,97.28 Z M111.65,98.61 C111.85,99.18 112.78,103.41 110.41,102.2 C109.78,101.84 109.74,101.28 110.21,100.74 C110.73,100.13 110.85,99.25 110.59,98 C110.43,97.25 110.24,96.62 110.24,96.62 C110.7,96.78 111.6,98.46 111.65,98.61 L111.65,98.61 Z M145.92,96.11 C147.52,96.56 148.1,98.17 147.79,101.14 C147.37,105.12 146.88,109.54 146.48,113.19 C146.02,117.41 145.64,120.09 145.64,120.09 L145.25,119.78 C145.25,119.78 145.36,117.5 145.51,116.11 C145.87,112.96 146.07,110.2 146.37,107.06 C147.05,100.06 146.88,97.85 145.62,97.2 C144.64,96.7 144.22,97 144.94,97.68 C146.32,98.74 146.27,99.19 144.8,116.42 C144.65,118.2 144.59,119.46 144.59,119.46 L142.73,118.3 C142.73,118.3 142.59,116.82 142.41,114.59 C141.99,110.39 141.75,105.91 141.47,101.89 C141.17,97.59 141.97,96.09 144.63,95.98 C145.05,95.97 145.52,96 145.92,96.11 L145.92,96.11 Z M122.5,95.44 C122.64,95.46 122.85,95.89 123.07,96.77 C123.33,97.88 123.52,98.16 124.16,98.43 C125.19,98.87 125.21,99.86 124.21,100.22 C123.84,100.35 123.15,99.98 122.87,99.5 C122.49,98.8 122.3,97.87 122.3,97.02 C122.24,95.97 122.33,95.43 122.5,95.44 L122.5,95.44 Z M25.33,95.37 C27.02,98.97 28.91,101.89 30.85,104.67 L26.62,109.11 C27.92,110.63 29.5,112.25 31.71,114.14 C29,117.17 27.21,121.42 25.43,125.42 L25.33,95.37 L25.33,95.37 Z M108.16,94.74 C108.17,94.73 108.18,94.73 108.19,94.74 C108.46,94.75 109.08,95.43 109.63,96.52 C110.34,97.93 110.4,99.7 109.78,100.33 C108.7,101.41 107.29,100.02 108.3,98.86 C109.01,98.34 108.82,97.05 108.25,95.71 C108,95.06 108,94.76 108.15,94.74 L108.16,94.74 L108.16,94.74 Z M26.05,94.68 L32.54,97.91 C32.54,97.91 34.32,101.67 35.14,103.08 C35.7,104.05 36.83,105 35.67,105.65 C33.71,106.98 32.61,107.73 32.62,108.56 C32.64,109.22 33.46,109.9 34.58,111.22 C36.18,113.11 36.16,112.67 34.71,115.55 C33.6,117.57 32.65,122.14 32.65,122.14 L26.09,125.53 C28.04,120.85 30.34,116.87 32.92,114.03 C31,112.61 29.4,111.12 27.72,109.15 C28.96,107.49 30.59,106.15 32.1,104.7 C29.04,101.23 27.12,97.9 26.05,94.68 L26.05,94.68 Z M106.44,93.3 C106.54,93.31 106.8,93.52 107.01,93.76 C108.58,95.63 108.27,100.01 106.51,100.67 C105.93,100.89 105.75,100.9 105.39,100.74 C104.08,100.18 104.24,98.79 105.85,97.91 C107.05,97.25 106.2,93.31 106.44,93.3 L106.44,93.3 Z M123.22,93.11 C123.37,93.12 123.61,93.54 123.88,94.38 C124.28,95.58 124.33,95.67 124.79,95.91 C125.55,96.3 125.68,96.9 125.12,97.46 C124.07,98.51 123.01,96.82 123.01,94.08 C123.01,93.43 123.08,93.1 123.22,93.11 L123.22,93.11 Z M104.54,91.5 C104.63,91.49 104.77,91.61 104.99,91.84 C106.27,93.22 106.43,95.74 105.28,96.46 C104.03,97.23 102.93,95.95 103.91,94.86 C104.35,94.38 104.35,94.38 104.35,92.94 C104.35,91.95 104.38,91.53 104.54,91.5 L104.54,91.5 Z M38.98,91.29 C39.48,91.28 39.68,91.53 39.98,92.14 C40.32,92.85 41.21,93.74 41.96,94.13 C43.78,95.03 45.69,95.72 47.48,96.62 C49.8,97.79 51.89,101.38 50.46,101.75 C49.94,101.87 49.35,101.88 48.82,101.83 C48.65,101.74 48.31,101.35 48.07,100.96 C47.01,99.22 45.03,97.51 41.97,96.71 C39.81,96.15 37.88,93.49 37.47,92.24 C37.36,91.91 37.35,91.66 37.64,91.57 C38.26,91.4 38.67,91.29 38.98,91.29 L38.98,91.29 Z M124.02,90.07 C124.15,90.08 124.33,90.46 124.56,91.23 C125.2,93.32 125.75,94.1 126.6,94.1 C127.98,94.1 128.28,95.77 126.97,96.2 C126.49,96.36 126.33,96.36 125.71,96.19 C124.78,95.94 123.51,92.8 123.69,91.19 C123.78,90.44 123.88,90.07 124.02,90.07 L124.02,90.07 Z M116.68,90.01 C116.68,90.01 116.44,91.12 116.18,91.73 C115.88,92.43 115.66,92.45 114.96,91.85 C114.58,91.52 113.93,90.83 113.93,90.83 C114.54,90.92 115.08,91.24 115.6,90.98 C116.15,90.71 116.59,90.2 116.68,90.01 L116.68,90.01 Z M52.83,89.66 C54.77,90.32 55.43,94.01 55.51,95.31 C55.59,97.58 54.54,101.29 53.6,102.03 C51.17,103.94 50.03,97.17 52.11,92.8 C52.29,92.44 52.52,91.96 52.44,91.07 C52.35,90.19 52.5,89.66 52.83,89.66 L52.83,89.66 Z M144.65,89.17 C144.29,89.15 144.31,89.52 144.99,90.11 C146.21,91.16 145.61,93.11 144.06,93.12 C143.35,93.12 143.17,93.6 143.8,93.85 C146.2,94.82 147.84,91.16 145.69,89.63 C145.24,89.32 144.88,89.17 144.65,89.17 L144.65,89.17 Z M102.52,89.33 C104.28,91.09 104.35,94.85 102.64,94.85 C100.58,94.17 102.19,92.95 102.23,92.63 C102.39,91.34 102.09,90.51 101.79,89.3 C101.66,88.59 102.33,89.13 102.52,89.33 L102.52,89.33 Z M144.54,88.18 C146.62,88.21 147.8,89.67 147.8,91.44 C147.78,92.72 147.08,94.02 145.8,94.56 C142.74,95.46 141.07,93.41 141.1,91.41 C141.13,89.8 142.46,88.14 144.54,88.18 L144.54,88.18 Z M124.51,87.82 C124.68,87.82 124.98,88.26 125.16,88.97 C125.42,90.01 125.78,90.6 126.36,90.89 C127.09,91.26 127.33,91.99 126.86,92.41 C125.92,93.26 124.97,92.24 124.67,90.08 C124.65,89.83 124.22,87.84 124.51,87.82 L124.51,87.82 Z M100.71,87.93 C101.46,88.76 101.66,89.58 101.6,91.6 C101.45,93.04 101.52,94.11 100.34,94.92 C99.76,95.29 98.77,95.3 98.33,94.92 C97.26,94.21 97.85,92.78 99.24,92.71 C100.12,92.69 100.49,89.8 99.99,88 C99.91,87.72 99.93,87.54 100.07,87.52 C100.21,87.51 100.46,87.67 100.71,87.93 L100.71,87.93 Z M117.31,87.13 L116.97,88.65 C115.75,90.75 114.66,90.64 112.8,89.67 L110.56,87.76 C112.01,88.06 112.79,88.53 114.2,88.97 C114.91,89.17 115.16,89.04 115.66,88.6 C116.23,88.08 116.66,87.69 117.31,87.13 L117.31,87.13 Z M147.5,87 C147.5,87 148.04,87.23 150.6,89.27 C151.24,89.78 152.32,90.76 152.32,90.76 L152.26,124.12 L146.17,120.33 L146.49,117.41 C146.49,117.41 147.33,108.58 147.97,103.96 C148.41,98.8 149.4,97.33 145.96,95.14 C149.66,92.81 148.62,89.18 146.3,87.67 L147.5,87 L147.5,87 Z M40.48,86.52 L42.36,87.17 L43.1,89.72 L41,88.91 L40.48,86.52 L40.48,86.52 Z M38.5,86.29 C38.71,86.28 38.94,86.36 39.19,86.54 C40.24,87.3 40.33,88.61 39.84,89.58 C39.37,90.52 38.4,90.79 37.47,90.7 C36.25,90.56 35.34,89.72 35.4,88.42 C35.42,87.77 35.71,87.05 36.15,86.74 C36.45,86.53 36.71,86.62 36.97,87.06 C37.22,87.5 37.65,88.48 37.65,88.48 C37.65,88.48 37.66,87.47 37.8,86.95 C37.92,86.54 38.18,86.3 38.5,86.29 L38.5,86.29 Z M35.4,86.01 L34.59,88.71 L32,89.38 L32.6,87.16 L35.4,86.01 L35.4,86.01 Z M98.23,85.72 C98.32,85.72 98.46,85.86 98.7,86.09 C99.73,87.13 100.05,90 99.21,90.84 C98.01,92.05 96.73,90.25 97.89,88.99 C98.2,88.66 98.2,88.64 98.13,87.17 C98.08,86.14 98.07,85.73 98.23,85.72 L98.23,85.72 Z M125.29,85.62 C125.39,85.59 125.48,85.72 125.55,86.02 C125.89,87.56 126.38,88.68 126.8,88.85 C127.32,89.07 127.52,89.53 127.3,89.99 C126.66,91.34 124.99,88.96 124.99,86.72 C124.98,86.08 125.14,85.65 125.29,85.62 L125.29,85.62 Z M118.22,84.08 L117.79,85.72 C117.79,85.72 116.8,86.68 116.09,87.3 C114.97,88.27 114.7,88.46 113.81,88.16 C112.44,87.69 111.09,87.26 109.67,86.83 L106.39,84.1 L113.89,87.04 C113.89,87.04 114.54,87.23 114.76,87 C115.74,86.02 116.82,85.26 118.22,84.08 L118.22,84.08 Z M125.88,83.08 C125.99,83.07 126.2,83.52 126.52,84.44 C127.24,86.44 127.86,87.29 128.6,87.29 C129.53,87.29 130.01,88.56 129.28,89.08 C127.83,90.1 125.93,87.6 125.79,84.49 C125.75,83.56 125.77,83.09 125.88,83.08 L125.88,83.08 Z M95.34,82.99 L95.39,82.99 C95.61,83.02 96.01,83.33 96.42,83.87 C97.83,85.75 98.08,88.57 96.87,89.12 C95.6,89.7 94.69,88.5 95.6,87.46 C96.25,86.71 96.17,85.63 95.31,83.48 C95.18,83.17 95.21,83.01 95.34,82.99 L95.34,82.99 Z M32.95,81.5 C33.69,81.47 34.41,81.76 34.77,82.35 C35.03,82.79 34.9,83.1 34.41,83.32 C33.8,83.56 32.65,83.78 32.65,83.78 C32.65,83.78 33.77,83.96 34.44,84.23 C35.28,84.61 35.21,85.29 33.98,85.88 C31.61,87.01 29.37,83.92 31.33,82.15 C31.78,81.73 32.37,81.52 32.95,81.5 L32.95,81.5 Z M93.31,81.43 C93.45,81.44 93.69,81.73 94.04,82.3 C95.29,84.38 95.22,88.33 93.92,89.33 C93.24,89.85 92.39,89.78 91.82,89.15 C91.07,88.31 91.3,87.47 92.41,86.98 C93.49,86.5 93.71,85.43 93.27,82.8 C93.12,81.88 93.13,81.42 93.31,81.43 L93.31,81.43 Z M42.1,81.43 L42.28,81.43 C44.77,81.47 45.35,85.15 43.01,86.04 C42.17,86.36 41.21,86.21 40.69,85.69 C40.18,85.18 40.11,84.76 40.46,84.49 C41,84.11 42.28,84.08 42.28,84.08 C42.28,84.08 41.12,83.68 40.6,83.39 C39.57,82.81 40.46,81.49 42.1,81.43 L42.1,81.43 Z M126.45,81.16 C126.98,82.17 127.34,83.36 128.21,84.21 C128.87,84.83 129.03,85.32 128.64,85.67 C127.63,86.3 127.45,85.28 127.14,84.62 C126.59,83.45 125.91,81.87 126.45,81.16 L126.45,81.16 Z M37.94,81.16 L40.27,83.84 L37.17,86.46 L34.82,83.69 L37.94,81.16 L37.94,81.16 Z M118.91,80.99 L118.41,82.84 C117.57,83.89 115.88,85.1 114.46,86.29 C114.13,86.46 114.14,86.5 112.69,85.93 C107.34,83.85 104.76,82.49 104.76,82.49 L103.67,81.52 C103.67,81.52 105.07,81.92 105.99,82.29 C106.62,82.53 107.68,82.94 108.36,83.19 C109.04,83.44 110.55,84.08 111.55,84.48 C113.86,85.4 113.73,85.43 115.95,83.46 C118.35,81.34 118.91,80.99 118.91,80.99 L118.91,80.99 Z M116.08,80.99 L117.48,81.03 C116.43,82.35 115.35,83.2 113.95,84.38 C113.77,84.46 113.66,84.49 113.24,84.35 C110.37,83.4 107.73,82.18 104.93,81.04 L107.42,81.03 C107.42,81.03 108.63,81.41 110.43,82.16 C112.5,83.02 113.03,83.29 113.83,82.76 C114.6,82.25 115.24,81.48 116.08,80.99 L116.08,80.99 Z M109.19,80.99 L115.2,80.99 C115.2,80.99 114.32,81.73 113.64,82.18 C113.22,82.47 112.72,82.43 111.79,82.03 C110.88,81.65 109.19,80.99 109.19,80.99 L109.19,80.99 Z M63.06,80.61 C67.92,85.75 74.28,89.92 75.79,95.03 C78.5,102.08 76.51,110.25 70.18,114.93 C66.68,117.58 63.25,120.38 60.4,123.75 C55.72,128.75 52.6,134.21 49.47,138.17 C48.94,138.84 47.54,140.93 47.54,140.93 C47.54,140.93 46.86,141.72 44.57,139.79 C38.51,134.39 32.14,130.46 25.66,126.72 L28.41,125.19 C33.81,128.28 40.54,132.68 46.59,137.82 C46.59,137.82 51.4,130.77 52.93,128.75 C55.16,125.85 56.72,123.99 58.79,121.75 C64.09,115.19 69.55,113.02 71.83,109.7 C75.16,104.84 75.3,99.08 72.56,94.15 C69.86,89.46 64.61,86.24 61.12,82.35 L63.06,80.61 L63.06,80.61 Z M100.85,79.9 L116.23,93.92 L119.76,80.05 C113.69,80.6 107.34,80.44 100.85,79.9 L100.85,79.9 Z M91.37,79.74 C91.46,79.74 91.6,79.88 91.8,80.12 C93.05,81.6 93.18,83.89 92.07,84.57 C90.98,85.23 89.47,83.87 90.41,83.08 C90.5,83.01 90.69,82.85 90.85,82.73 C91.11,82.53 91.13,82.41 91.16,81.12 C91.18,80.16 91.21,79.75 91.37,79.74 L91.37,79.74 Z M127.14,78.52 C127.25,78.52 127.43,78.86 127.65,79.57 C128.18,81.32 128.4,81.77 128.88,82 C129.67,82.38 129.73,83.33 128.99,83.68 C128.51,83.89 128.36,83.85 128.02,83.41 C127.5,82.71 127.07,81.39 127,80.21 C126.92,79.1 126.98,78.52 127.14,78.52 L127.14,78.52 Z M43.32,77.95 L42.37,80.66 L39.89,81.59 L40.86,78.66 L43.32,77.95 L43.32,77.95 Z M31.17,77.59 L34.38,78.93 L35.54,81.65 L32.33,80.82 L31.17,77.59 L31.17,77.59 Z M88.54,77.09 C88.67,77.1 88.94,77.34 89.36,77.78 C90.72,79.23 91.12,81.24 90.23,82.24 C89.69,82.85 89.33,82.92 88.75,82.52 C88.02,82.02 87.96,81.26 88.64,80.91 C89.25,80.59 89.31,79.88 88.82,78.55 C88.46,77.55 88.35,77.08 88.54,77.09 L88.54,77.09 Z M95.19,77.06 C103.98,78.39 111.55,78.73 122.04,77.59 L117.09,96.84 L95.19,77.06 L95.19,77.06 Z M37.71,76.68 C38.67,76.69 39.59,77.29 39.83,78.55 C40.1,80 39.28,81.06 38.58,80.89 C37.83,80.61 37.57,79.41 37.57,79.41 C37.57,79.41 37.39,80.39 37.08,80.88 C36.4,81.92 34.98,80.38 35.23,78.89 C35.48,77.43 36.62,76.67 37.71,76.68 L37.71,76.68 Z M127.82,75.76 C127.95,75.76 128.34,76.76 128.56,77.68 C128.76,78.51 129.56,79.9 129.87,79.95 C131.46,80.22 132.14,81.11 131.35,81.9 C130.78,82.48 129.53,82.15 128.92,81.27 C127.79,79.6 127.02,75.76 127.82,75.76 L127.82,75.76 Z M122.81,76.71 C122.81,76.7 122.82,76.7 122.81,76.69 L122.81,76.71 L122.81,76.71 Z M92.55,75.74 C100.62,82.42 107.91,89.58 117.31,97.94 C119.54,91.05 122.8,76.75 122.81,76.71 C122.45,77 107.02,79.2 92.55,75.74 L92.55,75.74 Z M86.25,75.12 C86.4,75.11 86.68,75.44 87.13,76.1 C88.45,78.06 87.99,81.81 86.33,82.69 C85.59,83.08 85.08,82.99 84.49,82.4 C83.63,81.54 83.84,80.86 85.12,80.38 C86.21,79.98 86.56,78.74 86.23,76.48 C86.09,75.58 86.09,75.13 86.25,75.12 L86.25,75.12 Z M128.55,74.37 C128.77,74.39 129.11,74.78 129.5,75.57 C129.75,76.08 129.9,76.23 130.33,76.38 C131.34,76.75 131.52,77.8 130.63,78.11 C129.67,78.45 128.95,77.75 128.51,76.05 C128.22,74.93 128.28,74.34 128.55,74.37 L128.55,74.37 Z M129.83,73.43 C129.98,73.43 130.25,73.55 130.79,73.81 C131.64,74.23 131.94,74.84 131.53,75.33 C130.93,76.05 129.31,74.63 129.62,73.66 C129.66,73.52 129.71,73.44 129.83,73.43 L129.83,73.43 Z M83.97,72.79 C84.1,72.78 84.35,73.03 84.74,73.56 C86.06,75.35 86.17,77.36 84.98,78.27 C83.58,79.34 82.57,77.68 83.73,76.23 C84.03,75.85 84.07,75.16 83.89,73.62 C83.83,73.07 83.85,72.8 83.97,72.79 L83.97,72.79 Z M80.58,72.16 C81.2,72.16 81.31,73.22 80.75,73.79 C80.03,74.51 78.67,73.93 78.95,73.03 C79.03,72.77 80.17,72.16 80.58,72.16 L80.58,72.16 Z M86.37,72.08 C98.2,75.96 111.62,77.27 125.44,74.43 C125.44,74.43 118.89,101.27 118.75,101.28 L86.37,72.08 L86.37,72.08 Z M82.14,71.54 C82.42,71.54 83.08,72.17 83.35,72.89 C83.88,74.29 83.63,75.85 82.8,76.37 C81.67,77.07 80.34,75.97 81.12,74.98 C81.26,74.8 81.48,74.62 81.61,74.58 C82.19,74.4 82.33,73.48 82.01,71.88 C81.97,71.65 82.03,71.55 82.14,71.54 L82.14,71.54 Z M112.85,71.18 L110.21,71.19 L110.19,73.25 L112.87,73.26 L112.85,71.18 L112.85,71.18 Z M104.95,70.91 L104.95,73.07 L107.83,73.18 L107.86,70.97 L104.95,70.91 L104.95,70.91 Z M117.59,70.87 L114.78,71.05 L114.88,73.09 L117.7,72.91 L117.59,70.87 L117.59,70.87 Z M122.57,70.3 L119.74,70.61 L119.92,72.56 L122.78,72.22 L122.57,70.3 L122.57,70.3 Z M99.74,70.27 L99.5,72.48 L102.82,72.83 L103.02,70.59 L99.74,70.27 L99.74,70.27 Z M94.56,69.2 L94.15,71.49 L97.28,72.07 L97.67,69.84 L94.56,69.2 L94.56,69.2 Z M89.79,67.95 L89.07,69.96 L92.19,70.89 L92.73,68.84 L89.79,67.95 L89.79,67.95 Z M86.93,65.51 C97.85,69.43 109.26,70.54 123.02,68.42 C123.02,68.42 124.35,69.29 125.01,69.71 L124.55,69.82 L124.76,71.72 L127.09,71.35 C127.09,71.35 128.36,72.35 129.3,72.97 C117.03,76.73 97.22,76.08 84.99,70.63 C84.53,70.36 84.26,70.15 84.26,70.15 C84.52,69.5 84.84,69.11 85.16,68.75 L87.4,69.39 L88.04,67.35 L86.33,66.72 L86.93,65.51 L86.93,65.51 Z M144.41,64.33 C144.36,64.33 144.31,64.4 144.26,64.48 C144.08,64.76 144.23,66.62 144.89,72.54 C146.16,83.83 146.16,84.07 144.62,85.26 C143.86,85.84 143.75,86.07 144.11,86.29 C144.38,86.45 144.36,86.44 144.91,86.29 C146.2,85.93 146.74,84.9 146.73,82.8 C146.72,81.19 146.7,81 146.2,77.06 C146.03,75.7 145.79,73.77 145.68,72.78 C144.84,65.75 144.65,64.29 144.41,64.33 L144.41,64.33 Z M88.03,63.17 C88.03,63.17 99,66.8 107.35,66.64 C108.58,66.63 108.78,66.62 110.3,67.12 C111.21,67.42 112.63,67.82 113.46,68.01 C116.04,68.51 118.3,68.37 120.3,67.55 C120.62,67.42 121.08,67.04 121.55,67.18 C121.83,67.26 122.25,67.83 122.25,67.83 C114.94,69.78 97.84,69.42 87.19,64.92 L88.03,63.17 L88.03,63.17 Z M144.14,56.9 C144.34,56.91 144.56,57.89 144.76,59.58 C144.83,60.2 145.03,61.73 145.19,62.99 C145.51,65.69 145.83,68.2 146.11,70.8 C146.17,71.31 146.3,72.4 146.41,73.22 C147.57,81.66 147.84,84.36 147.56,85.08 C146.83,87.6 143.4,87.79 141.97,86.33 C140.89,85.22 140.73,84 141.16,80.84 C141.4,79.01 141.51,78.09 142.23,71.11 C142.4,69.47 142.64,67.3 142.77,66.28 C143.06,63.54 143.4,60.98 143.77,58.29 C143.88,57.32 144,56.88 144.14,56.9 L144.14,56.9 Z M146.92,52.91 C148.92,52.95 150.13,55.74 148.02,57.05 C147,57.62 145.48,57.27 144.88,56.26 C144.37,55.39 144.59,53.95 145.74,53.2 C146.15,52.99 146.55,52.9 146.92,52.91 L146.92,52.91 Z M141.32,52.84 C141.58,52.85 141.86,52.9 142.14,53.02 C144.43,53.98 143.7,57.47 141.25,57.25 C140.93,57.22 140.51,57.05 140.2,56.85 C138.5,55.45 139.53,52.84 141.32,52.84 L141.32,52.84 Z M144.62,44.8 L145.85,47.2 L144.35,49.63 L143.11,47.06 L144.62,44.8 L144.62,44.8 Z M144.57,43.11 L142.18,47.07 L144.35,51.12 L146.82,47.27 L144.57,43.11 L144.57,43.11 Z M144.63,41.08 L148.03,47.02 L144.16,53.91 L140.92,47.31 L144.63,41.08 L144.63,41.08 Z M78.54,40.07 C79.24,40.07 79.8,40.64 79.8,41.34 C79.8,42.04 79.24,42.61 78.54,42.61 C77.84,42.61 77.27,42.04 77.27,41.34 C77.27,40.64 77.84,40.07 78.54,40.07 L78.54,40.07 Z M87.09,24.49 C87.85,24.49 88.46,25.1 88.46,25.85 C88.46,26.61 87.85,27.22 87.09,27.22 C86.34,27.22 85.73,26.61 85.73,25.85 C85.73,25.1 86.34,24.49 87.09,24.49 L87.09,24.49 Z M97.62,21.77 L101.89,21.79 L81.81,57.54 L78.6,55.89 L97.62,21.77 L97.62,21.77 Z M91.79,21.67 L93.12,21.67 C93.14,23.59 92.31,25.95 89.04,26.32 C89.06,25.8 89.02,25.32 88.89,24.77 C90.12,24.49 91.74,24.83 91.79,21.67 L91.79,21.67 Z M68.2,21.67 L82.99,21.67 C81,24.72 84.52,26.53 84.96,26.32 C81.77,28.06 82.65,30.53 84.3,31.37 C85.91,32.2 88.32,31.46 87.67,27.9 L88.47,27.56 C89.24,28.43 90,33.84 84.13,33.09 C83.08,32.96 82.52,33.93 83.39,34.48 C88.03,39.83 80.77,42.19 80.45,41.3 L80.43,40.4 C82.39,40.76 84.91,38.22 82.7,35.96 C81.45,34.68 77.82,35.31 78.44,39.2 C76.29,35.98 73.95,36.95 73.32,38.65 C72.83,39.97 73.45,41.77 75.59,42.08 C73.2,44.09 74.36,46.33 76,46.82 C77.82,47.37 79.67,46.63 79.17,43.32 C79.2,43.01 79.83,43.11 79.88,43.09 C81.76,47.79 77.28,49.51 74.86,48.54 C73.96,48.2 73.49,49.58 74.44,50.29 C75.89,51.36 75.44,54.45 75.27,54.48 C72.59,53.45 68.73,52.7 68.88,52.75 C71.45,42.57 71.28,32.21 68.2,21.67 L68.2,21.67 Z M93.67,21.66 L96.87,21.72 L77.96,55.55 L75.96,54.76 C75.96,54.76 76.14,54.67 76.14,53.24 C76.14,51.71 75.81,51.06 75.12,50.15 C74.54,49.37 74.3,49.33 75.98,49.56 C79.43,50.04 81.88,46.28 80.51,43.34 C79.98,42.21 80.06,42.14 81.45,42 C85.3,41.62 86.79,36.73 84.07,34.29 C83.51,33.78 83.76,33.45 84.81,33.68 C88.13,34.4 90.71,30.7 89.39,27.8 C88.96,27 89.35,26.86 89.95,26.78 C92.8,26.11 93.77,23.87 93.67,21.66 L93.67,21.66 Z M153.18,157.93 C153.18,157.96 153.18,157.93 153.18,157.93 L153.18,157.93 Z M67.05,20.72 C70.7,31.83 71.04,42.79 67.87,53.31 C69.68,53.4 77.56,55.43 81.9,58.12 C81.1,60.19 68.79,75.36 60.44,82.2 C62.82,84.56 65.43,86.92 68.18,89.52 C72.33,93.47 73.79,96.19 74.07,101.32 C74.03,103.8 73.15,106.85 71.57,109.02 C70.38,110.65 69.12,111.91 66.59,113.59 C64.26,115.14 60.84,118.48 56.55,123.41 C54.92,125.28 52.15,128.7 49.87,131.96 C49,133.14 46.45,136.84 46.45,136.84 C37.95,129.88 28.85,124.52 28.62,124.56 C28.62,124.56 37.8,119.65 39.73,118.65 C41.22,119.6 43.23,118.79 42.26,116.68 C40.41,111.9 41.7,106.98 43.98,103.54 C44.53,102.71 45.85,102.23 47.98,102.08 C48.9,102.02 49.88,102.05 50.86,102.04 C51.21,102.04 52.16,102.17 52.69,102.46 C54.42,103.41 54.77,102.19 55.85,98.07 C56.93,93.97 55.2,88.79 52.72,88.78 C52.14,88.77 51.82,88.99 51.94,90.45 C52.03,91.55 51.76,92.12 51.48,92.81 C50.86,94.32 50.54,95.81 50.34,97.78 C50.7,97.85 48.05,95.13 43.86,94.05 C41.14,93.73 39.76,90.33 39.88,90.32 C39.88,90.32 40.28,89.4 40.64,89.04 C41.57,89.49 42.48,90.01 43.58,90.34 C43.58,90.34 43.33,88.97 43.23,88.61 C42.73,86.71 42.75,86.42 43.48,86.03 C45.29,85.05 45.48,83.3 44.07,81.72 C43.71,81.31 43.41,81.05 42.93,80.84 L43.83,77.28 C43.83,77.28 43.01,77.46 42.36,77.66 C40.46,78.23 40.6,78.25 39.8,77.33 C38.04,75.33 35.36,75.71 34.96,78.02 C34.92,78.28 34.8,78.68 34.8,78.68 L30.77,76.72 C30.88,77.67 31.93,80.88 31.93,80.88 C28.4,83.63 31.39,86.07 32.35,86.33 C32.35,86.33 31.52,88.96 31.24,90.05 L35.22,88.91 C35.56,89.67 35.97,90.25 36.8,90.78 C37.01,93.03 38.74,94.84 39.93,95.93 C39.93,95.93 40.1,96.75 40,97.28 C39.74,98.58 41.06,100.65 41.29,100.77 C35.82,98.53 30.13,95.84 24.63,93.2 L24.97,160.99 C24.97,160.99 26.25,162.14 28.79,163.96 C30.01,164.84 30.01,164.84 29.76,165.85 C29.42,167.19 29.51,168.2 30.64,176.97 C31.24,181.61 31.89,186.42 32.48,190.73 C32.71,192.3 32.74,193.31 32.74,193.31 C31.53,192.75 29.76,192.69 28.85,193.72 C27.27,195.52 28.53,198.42 30.87,198.35 C31.4,198.32 31.76,198.17 32.21,197.85 C32.53,197.68 32.86,197.83 32.86,197.83 L29.37,203.97 L33.38,210.75 L37.38,203.5 L34.47,197.77 C34.47,197.77 34.76,197.74 35.15,197.94 C35.54,198.14 36.07,198.29 36.44,198.31 C38.46,198.32 38.88,197.39 39.1,195.72 C39.1,193.57 37.39,192.6 35.04,193.41 C34.67,193.54 34.26,193.57 34.26,193.57 L36.73,169.93 L38.05,170.91 L38.48,170.67 L37.33,169.68 C37.58,165.89 36.33,164.55 34.99,163.63 C39.49,161.07 37.54,157.01 34.54,155.76 C34.54,155.76 36.49,154.62 36.88,153.42 C37.21,152.35 37.09,150.66 36.71,147.65 C36.43,143.02 35.44,133.45 35.44,133.45 C39.37,136.42 43.4,139.6 47.2,142.61 L54.81,132 L73.14,132.13 C73.14,132.13 87.08,144.82 94.09,151.29 L100.15,151.35 C100.15,151.35 100.22,152 100.28,152.43 C100.85,158.69 105.04,163 108.86,166.02 C110.41,167.42 114.26,171.1 114.26,171.1 L107.13,178.3 L63.5,139.21 C63.5,139.21 63.29,138.64 63.21,138.3 C62.2,134.16 59.46,132.42 56.98,132.71 C54.37,133.02 52.14,135.6 52.25,139.98 C52.27,140.66 52.52,141.86 52.52,141.86 L44.55,175.16 C44.55,175.16 41.36,172.72 39.64,171.55 L39.26,171.77 L43.92,175.29 L44.27,175.13 L45.6,176.17 L45.7,176.88 C49.78,179.67 56.7,184.87 56.7,184.87 C59.97,182.43 63.4,183.25 66.84,184.16 C66.84,184.16 69.34,185 70.67,184.99 C77.43,185.15 83.42,186.46 89.7,188.74 L66.8,229.46 L110.42,229.55 C108.27,221.03 105.99,212.37 110.07,197.83 C105.77,196.96 96.2,193.12 96.2,193.12 C96.2,193.12 96.16,192.9 96.56,192.4 C98.33,189.87 102.8,182.99 106.99,179.02 C107.5,178.65 114.81,171.54 114.88,171.32 C114.92,171.19 115.09,170.71 115.38,170.52 C116.05,170.07 117.84,168.37 117.84,168.37 L108.7,160.42 C108.7,160.42 108.3,160.38 108.17,160.31 C106.89,159.59 104.59,155.6 104.02,152.93 C102.72,146.78 105.13,141.91 111.93,136.92 C118.57,132.36 131.16,114.66 131.2,114.27 C137.99,119.9 143.29,122.82 149.26,126.52 C145.65,128.6 142.71,129.98 140.19,131.36 C138.55,132.29 138.32,132.49 136.94,132.1 C135.37,132.11 134.83,132.72 135.23,134.07 C137.61,137.84 136.59,146.6 133.38,148.29 C130.59,149.75 127.88,149.35 125.64,148.52 C123.91,147.97 123.94,147.96 123.17,149.53 C121.47,153.15 121.36,156.2 122.93,159.67 C124.21,162.46 126.12,163.73 126.35,159.97 C126.49,157.77 127.46,155.19 127.43,152.82 C129.38,154.97 130.67,155.96 133.86,156.83 C136,157.17 138.28,159.87 138.21,160.96 C137.62,161.56 137.44,162.32 137.34,162.27 C136.3,161.92 134.04,160.96 134.04,160.96 L135,164.37 C135,164.37 134.84,164.52 134.38,164.76 C132.26,165.85 132.39,168.79 134.63,169.97 C135.08,170.21 135.11,170.32 134.92,170.95 C134.64,172.35 134.03,173.28 133.7,174.67 C133.7,174.67 134.01,174.68 136.55,173.5 L137.55,173.04 L138.16,173.68 C139.47,175.1 141.06,175.09 142.44,173.66 L143.08,173 L144.84,173.9 C146.51,174.75 146.95,174.93 146.95,174.93 C146.95,174.93 145.99,171.19 145.81,170.76 C145.71,170.53 145.52,170.29 145.37,170.24 C145.13,170.15 145.17,170.09 145.81,169.59 C147.41,168.32 147.57,166.56 146.2,165.22 C145.68,164.71 145.62,164.61 145.62,164.61 L146.45,161.14 L143,162.28 C142.46,161.12 141.6,160.6 141.05,160.36 C140.99,158.8 140.8,157.19 138.12,154.74 C139.02,153.91 137.95,151.92 137.06,150.72 C138.57,151.23 142.34,152.83 142.34,152.83 L142.91,152.81 L144.71,153.67 L144.92,154 C144.92,154 150.58,156.68 153.19,157.93 C153.18,157.79 153.16,154.99 153.15,124.09 C153.14,105.68 153.18,90.53 153.14,90.43 C153.1,90.33 152.48,89.86 151.83,89.37 C150.64,88.46 150.4,88.29 148.88,87.27 C147.67,86.46 147.75,86.47 148,85.53 C148.29,84.46 148.29,82.98 147.9,80.21 C147.62,78.16 146.59,70.96 145.88,65.16 C145.37,61.09 145.25,60.18 145.13,59.53 C144.93,57.88 145.14,57.16 145.11,57.13 C150.8,59.61 151.25,51.41 145.54,52.52 C146.63,50.31 147.55,49.29 148.49,46.93 C147.3,44.36 144.67,40.02 144.67,40.02 L140.5,47.3 L142.95,52.33 C140.13,51.82 138.63,53.88 139.16,55.73 C139.72,57.36 141.29,57.82 142.66,57.16 C143.72,56.74 143.72,56.64 142.78,64.62 C142.5,66.98 141.27,78.02 141.1,79.66 C140.98,80.77 140.91,81.07 140.46,80.83 C139.86,80.57 139.51,80.18 138.9,79.78 L138.56,80.1 C139.1,80.54 139.74,81.11 140.4,81.71 C140.25,84.64 140.31,86.33 142.73,87.76 C138.34,90.52 140.91,94.78 143.49,95.39 C141.95,95.79 140.43,97.78 140.8,101.72 L142.05,117.99 L130.13,109.11 L123.13,119.16 L104.69,119.18 L83.9,100.36 C83.9,100.36 79.34,100.29 77.46,100.25 C77.68,100.15 77.07,94.43 74.06,90.7 C70.79,86.79 63.35,80.35 63.35,80.35 L71.17,72.39 L115.08,112.03 C115.08,112.03 115.29,113.15 115.4,113.63 C116.87,119.89 123.97,120.27 125.48,113.89 C125.72,112.86 126.01,110.46 125.91,110.18 C125.87,110.09 126.09,109.04 126.4,107.86 C128.76,98.57 130.77,90.56 133.09,81.65 C133.41,80.42 133.75,79.05 133.84,78.61 C134.22,76.8 134.17,76.81 136.05,78.24 C137.21,79.11 137.69,79.42 137.69,79.42 L138.05,79.04 C136.76,78.03 134.54,76.43 134.54,76.43 L134.56,75.75 C127.44,70.63 125.97,69.27 121.75,65.91 C118.48,68.8 113.8,67.63 110.87,66.61 C110.11,66.31 108.26,65.83 108.26,65.83 C100.96,65.83 94.54,64.42 88.48,62.44 L111.84,20.72 L102.82,20.72 L102.5,21.07 L97.81,21.07 L97.79,20.72 L67.05,20.72 L67.05,20.72 Z" id="Fill-293" fill="#0A0A08"></path>
        <path d="M47.69,26.94 C40.34,37.44 32.48,43.47 32.34,51.66 C32.3,54.31 33.73,58.81 38.21,59.68 C41.12,60.23 45.13,57.88 45.21,53.09 C45.2,52.13 46.22,52.16 46.21,53.47 C46.07,57.24 44.88,61.64 42.87,65.22 L52.5,65.22 C50.49,61.64 49.3,57.24 49.16,53.47 C49.15,52.16 50.17,52.13 50.16,53.09 C50.24,57.88 54.25,60.23 57.16,59.68 C61.64,58.81 63.07,54.31 63.03,51.66 C62.89,43.47 55.03,37.44 47.69,26.94" id="Fill-294" fill="#0A0A08"></path>
        <path d="M130.14,223.45 C122.79,212.96 114.93,206.92 114.8,198.73 C114.76,196.08 116.19,191.58 120.67,190.72 C123.58,190.16 127.58,192.52 127.67,197.31 C127.66,198.26 128.68,198.23 128.67,196.93 C128.53,193.15 127.34,188.75 125.33,185.17 L134.95,185.17 C132.95,188.75 131.75,193.15 131.62,196.93 C131.61,198.23 132.63,198.26 132.62,197.31 C132.7,192.52 136.7,190.16 139.61,190.72 C144.09,191.58 145.53,196.08 145.48,198.73 C145.35,206.92 137.49,212.96 130.14,223.45" id="Fill-295" fill="#0A0A08"></path>
    </g>
</svg>