<?xml version="1.0" encoding="UTF-8" standalone="no"?>
<svg width="179px" height="250px" viewBox="0 0 179 250" version="1.1" xmlns="http://www.w3.org/2000/svg" xmlns:xlink="http://www.w3.org/1999/xlink">
    <!-- Generator: Sketch 39.1 (31720) - http://www.bohemiancoding.com/sketch -->
    <title>TS</title>
    <desc>Created with Sketch.</desc>
    <defs></defs>
    <g id="Page-1" stroke="none" stroke-width="1" fill="none" fill-rule="evenodd">
        <path d="M9.36,0.87 L170.14,0.87 C174.83,0.87 178.64,4.68 178.64,9.38 L178.64,241.02 C178.64,245.71 174.83,249.52 170.14,249.52 L9.36,249.52 C4.66,249.52 0.86,245.71 0.86,241.02 L0.86,9.38 C0.86,4.68 4.66,0.87 9.36,0.87" id="Fill-254" fill="#FFFFFF"></path>
        <path d="M48.52,26.94 C41.17,37.44 33.31,43.47 33.18,51.66 C33.13,54.31 34.57,58.81 39.05,59.68 C41.96,60.23 45.96,57.88 46.05,53.09 C46.03,52.13 47.05,52.16 47.04,53.47 C46.91,57.24 45.71,61.64 43.71,65.22 L53.33,65.22 C51.33,61.64 50.13,57.24 49.99,53.47 C49.98,52.16 51.01,52.13 50.99,53.09 C51.08,57.88 55.08,60.23 57.99,59.68 C62.47,58.81 63.9,54.31 63.86,51.66 C63.73,43.47 55.87,37.44 48.52,26.94" id="Fill-256" fill="#0A0A08"></path>
        <path d="M14.57,40.72 C11.13,45.09 7.46,47.61 7.4,51.02 C7.38,52.12 8.05,54 10.14,54.36 C11.5,54.59 13.37,53.61 13.41,51.62 C13.4,51.22 13.88,51.23 13.88,51.77 C13.81,53.35 13.26,55.18 12.32,56.67 L16.82,56.67 C15.88,55.18 15.32,53.35 15.26,51.77 C15.25,51.23 15.73,51.22 15.72,51.62 C15.76,53.61 17.63,54.59 18.99,54.36 C21.09,54 21.75,52.12 21.73,51.02 C21.67,47.61 18,45.09 14.57,40.72" id="Fill-257" fill="#0A0A08"></path>
        <path d="M48.52,170.71 C41.17,160.21 33.31,154.18 33.18,145.99 C33.13,143.34 34.57,138.84 39.05,137.97 C41.96,137.42 45.96,139.77 46.05,144.56 C46.03,145.52 47.05,145.49 47.04,144.18 C46.91,140.41 45.71,136.01 43.71,132.43 L53.33,132.43 C51.33,136.01 50.13,140.41 49.99,144.18 C49.98,145.49 51.01,145.52 50.99,144.56 C51.08,139.77 55.08,137.42 57.99,137.97 C62.47,138.84 63.9,143.34 63.86,145.99 C63.73,154.18 55.87,160.21 48.52,170.71" id="Fill-258" fill="#0A0A08"></path>
        <path d="M164.93,209.67 C161.5,205.3 157.82,202.78 157.76,199.37 C157.74,198.27 158.41,196.39 160.5,196.03 C161.86,195.8 163.73,196.78 163.77,198.78 C163.77,199.17 164.24,199.17 164.24,198.62 C164.18,197.05 163.62,195.21 162.68,193.72 L167.18,193.72 C166.24,195.21 165.68,197.05 165.62,198.62 C165.61,199.17 166.09,199.17 166.08,198.78 C166.12,196.78 167.99,195.8 169.35,196.03 C171.45,196.39 172.12,198.27 172.1,199.37 C172.04,202.78 168.36,205.3 164.93,209.67" id="Fill-259" fill="#0A0A08"></path>
        <path d="M130.98,26.94 C123.63,37.44 115.77,43.47 115.64,51.66 C115.59,54.31 117.02,58.81 121.51,59.68 C124.42,60.23 128.42,57.88 128.5,53.09 C128.49,52.13 129.51,52.16 129.5,53.47 C129.37,57.24 128.17,61.64 126.16,65.22 L135.79,65.22 C133.78,61.64 132.59,57.24 132.45,53.47 C132.44,52.16 133.46,52.13 133.45,53.09 C133.53,57.88 137.54,60.23 140.45,59.68 C144.93,58.81 146.36,54.31 146.32,51.66 C146.19,43.47 138.32,37.44 130.98,26.94" id="Fill-260" fill="#0A0A08"></path>
        <path d="M48.52,79.69 C41.17,90.18 33.31,96.22 33.18,104.4 C33.13,107.05 34.57,111.56 39.05,112.42 C41.96,112.98 45.96,110.62 46.05,105.83 C46.03,104.88 47.05,104.9 47.04,106.21 C46.91,109.99 45.71,114.38 43.71,117.96 L53.33,117.96 C51.33,114.38 50.13,109.99 49.99,106.21 C49.98,104.9 51.01,104.88 50.99,105.83 C51.08,110.62 55.08,112.98 57.99,112.42 C62.47,111.56 63.9,107.05 63.86,104.4 C63.73,96.22 55.87,90.18 48.52,79.69" id="Fill-261" fill="#0A0A08"></path>
        <path d="M89.75,60.95 C82.4,71.44 74.54,77.48 74.41,85.66 C74.36,88.31 75.79,92.82 80.28,93.68 C83.19,94.24 87.19,91.88 87.27,87.09 C87.26,86.14 88.28,86.16 88.27,87.47 C88.14,91.25 86.94,95.64 84.94,99.22 L94.56,99.22 C92.55,95.64 91.36,91.25 91.22,87.47 C91.21,86.16 92.23,86.14 92.22,87.09 C92.3,91.88 96.31,94.24 99.22,93.68 C103.7,92.82 105.13,88.31 105.09,85.66 C104.96,77.48 97.1,71.44 89.75,60.95" id="Fill-262" fill="#0A0A08"></path>
        <path d="M130.98,79.69 C123.63,90.18 115.77,96.22 115.64,104.4 C115.59,107.05 117.02,111.56 121.51,112.42 C124.42,112.98 128.42,110.62 128.5,105.83 C128.49,104.88 129.51,104.9 129.5,106.21 C129.37,109.99 128.17,114.38 126.16,117.96 L135.79,117.96 C133.78,114.38 132.59,109.99 132.45,106.21 C132.44,104.9 133.46,104.88 133.45,105.83 C133.53,110.62 137.54,112.98 140.45,112.42 C144.93,111.56 146.36,107.05 146.32,104.4 C146.19,96.22 138.32,90.18 130.98,79.69" id="Fill-263" fill="#0A0A08"></path>
        <path d="M48.52,223.45 C41.17,212.96 33.31,206.92 33.18,198.73 C33.13,196.08 34.57,191.58 39.05,190.72 C41.96,190.16 45.96,192.52 46.05,197.31 C46.03,198.26 47.05,198.23 47.04,196.93 C46.91,193.15 45.71,188.75 43.71,185.17 L53.33,185.17 C51.33,188.75 50.13,193.15 49.99,196.93 C49.98,198.23 51.01,198.26 50.99,197.31 C51.08,192.52 55.08,190.16 57.99,190.72 C62.47,191.58 63.9,196.08 63.86,198.73 C63.73,206.92 55.87,212.96 48.52,223.45" id="Fill-264" fill="#0A0A08"></path>
        <path d="M130.98,223.45 C123.63,212.96 115.77,206.92 115.64,198.73 C115.59,196.08 117.02,191.58 121.51,190.72 C124.42,190.16 128.42,192.52 128.5,197.31 C128.49,198.26 129.51,198.23 129.5,196.93 C129.37,193.15 128.17,188.75 126.16,185.17 L135.79,185.17 C133.78,188.75 132.59,193.15 132.45,196.93 C132.44,198.23 133.46,198.26 133.45,197.31 C133.53,192.52 137.54,190.16 140.45,190.72 C144.93,191.58 146.36,196.08 146.32,198.73 C146.19,206.92 138.32,212.96 130.98,223.45" id="Fill-265" fill="#0A0A08"></path>
        <path d="M89.75,189.45 C82.4,178.96 74.54,172.92 74.41,164.73 C74.36,162.08 75.79,157.58 80.28,156.71 C83.19,156.16 87.19,158.51 87.27,163.3 C87.26,164.26 88.28,164.23 88.27,162.92 C88.14,159.15 86.94,154.75 84.94,151.17 L94.56,151.17 C92.55,154.75 91.36,159.15 91.22,162.92 C91.21,164.23 92.23,164.26 92.22,163.3 C92.3,158.51 96.31,156.16 99.22,156.71 C103.7,157.58 105.13,162.08 105.09,164.73 C104.96,172.92 97.1,178.96 89.75,189.45" id="Fill-266" fill="#0A0A08"></path>
        <path d="M130.98,170.71 C123.63,160.21 115.77,154.18 115.64,145.99 C115.59,143.34 117.02,138.84 121.51,137.97 C124.42,137.42 128.42,139.77 128.5,144.56 C128.49,145.52 129.51,145.49 129.5,144.18 C129.37,140.41 128.17,136.01 126.16,132.43 L135.79,132.43 C133.78,136.01 132.59,140.41 132.45,144.18 C132.44,145.49 133.46,145.52 133.45,144.56 C133.53,139.77 137.54,137.42 140.45,137.97 C144.93,138.84 146.36,143.34 146.32,145.99 C146.19,154.18 138.32,160.21 130.98,170.71" id="Fill-267" fill="#0A0A08"></path>
        <polygon id="Fill-268" fill="#0A0A08" points="6.59 38.22 9.13 38.22 9.13 11.91 6.59 11.91"></polygon>
        <path d="M17.43,14.39 C18.88,14.39 20.04,15.51 20.04,16.9 L20.04,33.37 C20.04,34.76 18.88,35.88 17.43,35.88 C15.98,35.88 14.81,34.76 14.81,33.37 L14.81,16.9 C14.81,15.51 15.98,14.39 17.43,14.39 L17.43,14.39 Z M16.69,11.91 C14.23,11.91 12.26,14.15 12.26,16.93 L12.26,33.19 C12.26,35.98 14.24,38.22 16.69,38.22 L18.12,38.22 C20.57,38.22 22.54,35.98 22.54,33.19 L22.54,16.93 C22.54,14.15 20.57,11.91 18.12,11.91 L16.69,11.91 L16.69,11.91 Z" id="Fill-269" fill="#0A0A08"></path>
        <polygon id="Fill-270" fill="#0A0A08" points="170.36 238.49 172.91 238.49 172.91 212.17 170.36 212.17"></polygon>
        <path d="M162.07,236 C160.62,236 159.46,234.89 159.46,233.5 L159.46,217.02 C159.46,215.63 160.62,214.51 162.07,214.51 C163.52,214.51 164.68,215.63 164.68,217.02 L164.68,233.5 C164.68,234.89 163.52,236 162.07,236 L162.07,236 Z M162.81,238.49 C165.26,238.49 167.23,236.24 167.23,233.46 L167.23,217.2 C167.23,214.41 165.26,212.17 162.81,212.17 L161.38,212.17 C158.92,212.17 156.95,214.41 156.95,217.2 L156.95,233.46 C156.95,236.24 158.93,238.49 161.38,238.49 L162.81,238.49 L162.81,238.49 Z" id="Fill-271" fill="#0A0A08"></path>
    </g>
</svg>