<?xml version="1.0" encoding="UTF-8" standalone="no"?>
<svg width="178px" height="250px" viewBox="0 0 178 250" version="1.1" xmlns="http://www.w3.org/2000/svg" xmlns:xlink="http://www.w3.org/1999/xlink">
    <!-- Generator: Sketch 39.1 (31720) - http://www.bohemiancoding.com/sketch -->
    <title>2C</title>
    <desc>Created with Sketch.</desc>
    <defs></defs>
    <g id="Page-1" stroke="none" stroke-width="1" fill="none" fill-rule="evenodd">
        <path d="M8.697,0.973 L169.476,0.973 C174.172,0.973 177.979,4.78 177.979,9.477 L177.979,241.12 C177.979,245.82 174.172,249.62 169.476,249.62 L8.697,249.62 C4.001,249.62 0.193,245.82 0.193,241.12 L0.193,9.477 C0.193,4.78 4.001,0.973 8.697,0.973" id="Fill-9" fill="#FFFFFF"></path>
        <path d="M89.083,27.376 C81.264,27.546 77.758,36.351 83.549,43.187 C84.389,44.185 84.476,44.757 82.937,43.799 C79.038,41.191 71.562,42.905 71.179,50.876 C70.706,60.698 84.429,63.528 87.006,53.084 C87.142,51.982 88.037,52.008 87.821,53.571 C87.586,57.816 86.261,61.784 84.438,65.653 L93.734,65.653 C91.912,61.784 90.587,57.816 90.352,53.571 C90.136,52.008 91.031,51.982 91.167,53.084 C93.744,63.528 107.467,60.698 106.994,50.876 C106.611,42.905 99.135,41.191 95.236,43.799 C93.697,44.757 93.784,44.185 94.624,43.187 C100.415,36.351 96.909,27.546 89.09,27.376 C89.09,27.376 89.09,27.376 89.082,27.376 L89.083,27.376" id="Fill-11" fill="#0A0A08"></path>
        <path d="M89.083,223.88 C81.264,223.71 77.758,214.91 83.549,208.07 C84.389,207.08 84.476,206.5 82.937,207.46 C79.038,210.07 71.562,208.35 71.179,200.38 C70.706,190.56 84.429,187.73 87.006,198.17 C87.142,199.28 88.037,199.25 87.821,197.69 C87.586,193.44 86.261,189.47 84.438,185.61 L93.734,185.61 C91.912,189.47 90.587,193.44 90.352,197.69 C90.136,199.25 91.031,199.28 91.167,198.17 C93.744,187.73 107.467,190.56 106.994,200.38 C106.611,208.35 99.135,210.07 95.236,207.46 C93.697,206.5 93.784,207.08 94.624,208.07 C100.416,214.91 96.909,223.71 89.09,223.88 C89.09,223.88 89.09,223.88 89.082,223.88 L89.083,223.88" id="Fill-12" fill="#0A0A08"></path>
        <path d="M164.269,209.77 C167.396,209.7 168.799,206.03 166.482,203.19 C166.146,202.77 166.112,202.53 166.728,202.93 C168.287,204.02 171.277,203.3 171.431,199.98 C171.62,195.89 166.131,194.71 165.1,199.06 C165.046,199.52 164.688,199.51 164.773,198.86 C164.868,197.09 165.398,195.44 166.127,193.82 L162.408,193.82 C163.138,195.44 163.668,197.09 163.762,198.86 C163.848,199.51 163.49,199.52 163.436,199.06 C162.405,194.71 156.916,195.89 157.104,199.98 C157.258,203.3 160.248,204.02 161.808,202.93 C162.424,202.53 162.389,202.77 162.053,203.19 C159.736,206.03 161.139,209.7 164.267,209.77 L164.267,209.77 L164.269,209.77" id="Fill-13" fill="#0A0A08"></path>
        <path d="M13.905,40.823 C10.777,40.894 9.375,44.563 11.691,47.411 C12.027,47.826 12.062,48.065 11.446,47.666 C9.887,46.579 6.896,47.294 6.743,50.615 C6.554,54.707 12.043,55.887 13.074,51.535 C13.128,51.076 13.486,51.086 13.4,51.738 C13.306,53.507 12.775,55.16 12.047,56.772 L15.766,56.772 C15.036,55.16 14.506,53.507 14.412,51.738 C14.326,51.086 14.684,51.075 14.738,51.535 C15.769,55.887 21.258,54.707 21.069,50.615 C20.916,47.294 17.926,46.579 16.366,47.666 C15.75,48.065 15.785,47.826 16.121,47.411 C18.438,44.563 17.035,40.894 13.907,40.823 C13.906,40.823 13.907,40.823 13.907,40.823 L13.905,40.823" id="Fill-14" fill="#0A0A08"></path>
        <path d="M6.026,38.267 L6.154,36.644 C6.56,31.629 7.636,29.938 13.739,24.702 C16.702,22.165 17.674,20.913 17.811,19.46 C18.198,16.034 15.171,14.965 13.198,14.949 C10.643,14.926 7.751,16.483 9.131,20.103 L6.264,20.962 C5.687,17.586 6.28,14.419 8.964,13.013 C12.547,11.181 17.143,11.898 19.463,14.786 C21.022,16.724 21.379,19.404 20.542,21.502 C18.099,26.861 9.808,29.219 9.123,35.42 L18.286,35.42 L18.286,31.968 L20.986,31.968 L20.986,38.323 L6.026,38.267" id="Fill-15" fill="#0A0A08"></path>
        <path d="M171.746,212.33 L171.618,213.95 C171.214,218.97 170.138,220.66 164.034,225.89 C161.07,228.43 160.099,229.68 159.963,231.14 C159.574,234.56 162.603,235.63 164.574,235.65 C167.131,235.67 170.022,234.11 168.642,230.49 L171.51,229.63 C172.086,233.01 171.493,236.18 168.81,237.58 C165.226,239.42 160.631,238.7 158.311,235.81 C156.751,233.87 156.395,231.19 157.23,229.09 C159.675,223.74 167.966,221.38 168.65,215.18 L159.486,215.18 L159.486,218.63 L156.786,218.63 L156.786,212.27 L171.746,212.33" id="Fill-16" fill="#0A0A08"></path>
    </g>
</svg>