<?xml version="1.0" encoding="UTF-8" standalone="no"?>
<svg width="179px" height="250px" viewBox="0 0 179 250" version="1.1" xmlns="http://www.w3.org/2000/svg" xmlns:xlink="http://www.w3.org/1999/xlink">
    <!-- Generator: Sketch 39.1 (31720) - http://www.bohemiancoding.com/sketch -->
    <title>3C</title>
    <desc>Created with Sketch.</desc>
    <defs></defs>
    <g id="Page-1" stroke="none" stroke-width="1" fill="none" fill-rule="evenodd">
        <path d="M9.28,0.973 L170.06,0.973 C174.75,0.973 178.56,4.78 178.56,9.477 L178.56,241.12 C178.56,245.82 174.75,249.62 170.06,249.62 L9.28,249.62 C4.584,249.62 0.776,245.82 0.776,241.12 L0.776,9.477 C0.776,4.78 4.584,0.973 9.28,0.973" id="Fill-17" fill="#FFFFFF"></path>
        <path d="M89.666,27.376 C81.847,27.546 78.34,36.351 84.131,43.187 C84.971,44.185 85.058,44.757 83.52,43.799 C79.62,41.191 72.145,42.905 71.762,50.876 C71.288,60.698 85.012,63.528 87.588,53.084 C87.725,51.982 88.62,52.008 88.404,53.571 C88.169,57.816 86.843,61.784 85.021,65.653 L94.317,65.653 C92.495,61.784 91.169,57.816 90.935,53.571 C90.719,52.008 91.614,51.982 91.75,53.084 C94.326,63.528 108.05,60.698 107.577,50.876 C107.194,42.905 99.718,41.191 95.818,43.799 C94.28,44.757 94.367,44.185 95.207,43.187 C100.998,36.351 97.492,27.546 89.672,27.376 C89.672,27.376 89.672,27.376 89.664,27.376 L89.666,27.376" id="Fill-19" fill="#0A0A08"></path>
        <path d="M89.666,223.88 C81.847,223.71 78.34,214.91 84.131,208.07 C84.971,207.08 85.058,206.5 83.52,207.46 C79.62,210.07 72.145,208.35 71.762,200.38 C71.288,190.56 85.012,187.73 87.588,198.17 C87.725,199.28 88.62,199.25 88.404,197.69 C88.169,193.44 86.843,189.47 85.021,185.61 L94.317,185.61 C92.495,189.47 91.169,193.44 90.935,197.69 C90.719,199.25 91.614,199.28 91.75,198.17 C94.326,187.73 108.05,190.56 107.577,200.38 C107.194,208.35 99.718,210.07 95.818,207.46 C94.28,206.5 94.367,207.08 95.207,208.07 C100.998,214.91 97.492,223.71 89.672,223.88 C89.672,223.88 89.672,223.88 89.664,223.88 L89.666,223.88" id="Fill-20" fill="#0A0A08"></path>
        <path d="M89.666,106.49 C81.847,106.66 78.34,115.46 84.131,122.3 C84.971,123.3 85.058,123.87 83.52,122.91 C79.62,120.31 72.145,122.02 71.762,129.99 C71.288,139.81 85.012,142.64 87.588,132.2 C87.725,131.1 88.62,131.12 88.404,132.69 C88.169,136.93 86.843,140.9 85.021,144.77 L94.317,144.77 C92.495,140.9 91.169,136.93 90.935,132.69 C90.719,131.12 91.614,131.1 91.75,132.2 C94.326,142.64 108.05,139.81 107.577,129.99 C107.194,122.02 99.718,120.31 95.818,122.91 C94.28,123.87 94.367,123.3 95.207,122.3 C100.998,115.46 97.492,106.66 89.672,106.49 C89.672,106.49 89.672,106.49 89.664,106.49 L89.666,106.49" id="Fill-21" fill="#0A0A08"></path>
        <path d="M164.852,209.77 C167.979,209.7 169.38,206.03 167.065,203.19 C166.729,202.77 166.695,202.53 167.311,202.93 C168.87,204.02 171.86,203.3 172.01,199.98 C172.2,195.89 166.713,194.71 165.683,199.06 C165.628,199.52 165.271,199.51 165.356,198.86 C165.45,197.09 165.98,195.44 166.71,193.82 L162.991,193.82 C163.721,195.44 164.25,197.09 164.345,198.86 C164.431,199.51 164.072,199.52 164.019,199.06 C162.987,194.71 157.498,195.89 157.688,199.98 C157.841,203.3 160.831,204.02 162.391,202.93 C163.006,202.53 162.972,202.77 162.636,203.19 C160.319,206.03 161.722,209.7 164.85,209.77 L164.85,209.77 L164.852,209.77" id="Fill-22" fill="#0A0A08"></path>
        <path d="M14.487,40.823 C11.359,40.894 9.957,44.563 12.273,47.411 C12.609,47.826 12.645,48.065 12.029,47.666 C10.47,46.579 7.479,47.294 7.326,50.615 C7.137,54.707 12.626,55.887 13.656,51.535 C13.711,51.076 14.069,51.086 13.982,51.738 C13.889,53.507 13.358,55.16 12.63,56.772 L16.348,56.772 C15.619,55.16 15.089,53.507 14.995,51.738 C14.908,51.086 15.267,51.075 15.321,51.535 C16.352,55.887 21.841,54.707 21.651,50.615 C21.499,47.294 18.508,46.579 16.948,47.666 C16.333,48.065 16.368,47.826 16.704,47.411 C19.021,44.563 17.618,40.894 14.49,40.823 C14.489,40.823 14.49,40.823 14.49,40.823 L14.487,40.823" id="Fill-23" fill="#0A0A08"></path>
        <path d="M5.958,32.555 L7.981,31.064 C9.738,33.928 11.702,35.813 14.706,35.489 C19.214,35.18 21.081,30.448 20.138,26.884 C19.226,23.686 15.493,22.128 12.526,23.833 C11.826,24.236 11.15,24.566 11.018,24.566 C10.707,24.566 10.002,23.163 10.099,22.735 C12.09,19.823 16.926,14.721 16.926,14.721 L9.37,14.721 L9.37,18.138 L6.471,18.138 L6.471,12.008 L21.238,12.008 L21.238,14.088 C21.238,14.088 17.281,18.196 15.974,20.446 C19.194,20.564 21.79,22.607 22.722,25.839 C23.266,27.539 23.021,31.43 22.31,33.106 C21.121,35.902 17.874,38.17 14.906,38.301 C9.922,38.636 7.278,35.14 5.958,32.555" id="Fill-24" fill="#0A0A08"></path>
        <path d="M173.38,218.04 L171.36,219.53 C169.6,216.67 167.636,214.78 164.632,215.11 C160.124,215.42 158.256,220.15 159.199,223.71 C160.111,226.91 163.844,228.47 166.812,226.76 C167.512,226.36 168.19,226.03 168.32,226.03 C168.63,226.03 169.33,227.43 169.24,227.86 C167.248,230.77 162.411,235.88 162.411,235.88 L169.97,235.88 L169.97,232.46 L172.87,232.46 L172.87,238.59 L158.1,238.59 L158.1,236.51 C158.1,236.51 162.057,232.4 163.363,230.15 C160.144,230.03 157.548,227.99 156.616,224.76 C156.072,223.06 156.315,219.17 157.027,217.49 C158.216,214.69 161.463,212.43 164.432,212.3 C169.42,211.96 172.06,215.46 173.38,218.04" id="Fill-25" fill="#0A0A08"></path>
    </g>
</svg>