<?xml version="1.0" encoding="UTF-8" standalone="no"?>
<svg width="179px" height="250px" viewBox="0 0 179 250" version="1.1" xmlns="http://www.w3.org/2000/svg" xmlns:xlink="http://www.w3.org/1999/xlink">
    <!-- Generator: Sketch 39.1 (31720) - http://www.bohemiancoding.com/sketch -->
    <title>6C</title>
    <desc>Created with Sketch.</desc>
    <defs></defs>
    <g id="Page-1" stroke="none" stroke-width="1" fill="none" fill-rule="evenodd">
        <path d="M9.03,0.973 L169.81,0.973 C174.5,0.973 178.31,4.779 178.31,9.477 L178.31,241.12 C178.31,245.82 174.5,249.62 169.81,249.62 L9.03,249.62 C4.33,249.62 0.52,245.82 0.52,241.12 L0.52,9.477 C0.52,4.779 4.33,0.973 9.03,0.973" id="Fill-47" fill="#FFFFFF"></path>
        <path d="M130.64,27.376 C122.82,27.546 119.32,36.35 125.11,43.187 C125.95,44.184 126.03,44.756 124.5,43.799 C120.6,41.191 113.12,42.905 112.74,50.876 C112.26,60.698 125.99,63.527 128.56,53.084 C128.7,51.982 129.6,52.008 129.38,53.571 C129.15,57.816 127.82,61.784 126,65.653 L135.29,65.653 C133.47,61.784 132.15,57.816 131.91,53.571 C131.69,52.008 132.59,51.982 132.73,53.084 C135.3,63.527 149.03,60.698 148.55,50.876 C148.17,42.905 140.69,41.191 136.79,43.799 C135.26,44.756 135.34,44.185 136.18,43.187 C141.97,36.35 138.47,27.546 130.65,27.376 C130.65,27.376 130.65,27.376 130.64,27.376" id="Fill-49" fill="#0A0A08"></path>
        <path d="M48.19,27.376 C40.37,27.546 36.86,36.35 42.65,43.187 C43.49,44.184 43.58,44.756 42.04,43.799 C38.14,41.191 30.66,42.905 30.28,50.876 C29.81,60.698 43.53,63.527 46.11,53.084 C46.24,51.982 47.14,52.008 46.92,53.571 C46.69,57.816 45.36,61.784 43.54,65.653 L52.84,65.653 C51.01,61.784 49.69,57.816 49.45,53.571 C49.24,52.008 50.13,51.982 50.27,53.084 C52.85,63.527 66.57,60.698 66.1,50.876 C65.71,42.905 58.24,41.191 54.34,43.799 C52.8,44.756 52.89,44.185 53.73,43.187 C59.52,36.35 56.01,27.546 48.19,27.376 C48.19,27.376 48.19,27.376 48.18,27.376 L48.19,27.376" id="Fill-50" fill="#0A0A08"></path>
        <path d="M130.64,223.88 C122.82,223.71 119.32,214.91 125.11,208.07 C125.95,207.08 126.03,206.5 124.5,207.46 C120.6,210.07 113.12,208.35 112.74,200.38 C112.26,190.56 125.99,187.73 128.56,198.17 C128.7,199.28 129.6,199.25 129.38,197.69 C129.15,193.44 127.82,189.47 126,185.61 L135.29,185.61 C133.47,189.47 132.15,193.44 131.91,197.69 C131.69,199.25 132.59,199.28 132.73,198.17 C135.3,187.73 149.03,190.56 148.55,200.38 C148.17,208.35 140.69,210.07 136.79,207.46 C135.26,206.5 135.34,207.08 136.18,208.07 C141.97,214.91 138.47,223.71 130.65,223.88 C130.65,223.88 130.65,223.88 130.64,223.88" id="Fill-51" fill="#0A0A08"></path>
        <path d="M48.19,223.88 C40.37,223.71 36.86,214.91 42.65,208.07 C43.49,207.08 43.58,206.5 42.04,207.46 C38.14,210.07 30.66,208.35 30.28,200.38 C29.81,190.56 43.53,187.73 46.11,198.17 C46.24,199.28 47.14,199.25 46.92,197.69 C46.69,193.44 45.36,189.47 43.54,185.61 L52.84,185.61 C51.01,189.47 49.69,193.44 49.45,197.69 C49.24,199.25 50.13,199.28 50.27,198.17 C52.85,187.73 66.57,190.56 66.1,200.38 C65.71,208.35 58.24,210.07 54.34,207.46 C52.8,206.5 52.89,207.08 53.73,208.07 C59.52,214.91 56.01,223.71 48.19,223.88 C48.19,223.88 48.19,223.88 48.18,223.88 L48.19,223.88" id="Fill-52" fill="#0A0A08"></path>
        <path d="M130.64,106.49 C122.82,106.66 119.32,115.46 125.11,122.3 C125.95,123.3 126.03,123.87 124.5,122.91 C120.6,120.31 113.12,122.02 112.74,129.99 C112.26,139.81 125.99,142.64 128.56,132.2 C128.7,131.1 129.6,131.12 129.38,132.69 C129.15,136.93 127.82,140.9 126,144.77 L135.29,144.77 C133.47,140.9 132.15,136.93 131.91,132.69 C131.69,131.12 132.59,131.1 132.73,132.2 C135.3,142.64 149.03,139.81 148.55,129.99 C148.17,122.02 140.69,120.31 136.79,122.91 C135.26,123.87 135.34,123.3 136.18,122.3 C141.97,115.46 138.47,106.66 130.65,106.49 C130.65,106.49 130.65,106.49 130.64,106.49" id="Fill-53" fill="#0A0A08"></path>
        <path d="M48.19,106.49 C40.37,106.66 36.86,115.46 42.65,122.3 C43.49,123.3 43.58,123.87 42.04,122.91 C38.14,120.31 30.66,122.02 30.28,129.99 C29.81,139.81 43.53,142.64 46.11,132.2 C46.24,131.1 47.14,131.12 46.92,132.69 C46.69,136.93 45.36,140.9 43.54,144.77 L52.84,144.77 C51.01,140.9 49.69,136.93 49.45,132.69 C49.24,131.12 50.13,131.1 50.27,132.2 C52.85,142.64 66.57,139.81 66.1,129.99 C65.71,122.02 58.24,120.31 54.34,122.91 C52.8,123.87 52.89,123.3 53.73,122.3 C59.52,115.46 56.01,106.66 48.19,106.49 C48.19,106.49 48.19,106.49 48.18,106.49 L48.19,106.49" id="Fill-54" fill="#0A0A08"></path>
        <path d="M164.6,209.77 C167.73,209.7 169.13,206.03 166.81,203.19 C166.48,202.77 166.44,202.53 167.06,202.93 C168.62,204.02 171.61,203.3 171.76,199.98 C171.95,195.89 166.46,194.71 165.43,199.06 C165.38,199.52 165.02,199.51 165.1,198.86 C165.2,197.09 165.73,195.44 166.46,193.82 L162.74,193.82 C163.47,195.44 164,197.09 164.09,198.86 C164.18,199.51 163.82,199.52 163.77,199.06 C162.74,194.71 157.25,195.89 157.44,199.98 C157.59,203.3 160.58,204.02 162.14,202.93 C162.75,202.53 162.72,202.77 162.38,203.19 C160.07,206.03 161.47,209.7 164.6,209.77" id="Fill-55" fill="#0A0A08"></path>
        <path d="M14.24,40.823 C11.11,40.894 9.71,44.563 12.02,47.411 C12.36,47.826 12.39,48.064 11.78,47.666 C10.22,46.579 7.23,47.294 7.07,50.615 C6.88,54.707 12.37,55.887 13.4,51.535 C13.46,51.076 13.82,51.086 13.73,51.738 C13.64,53.507 13.11,55.16 12.38,56.772 L16.1,56.772 C15.37,55.16 14.84,53.507 14.74,51.738 C14.66,51.086 15.01,51.075 15.07,51.535 C16.1,55.887 21.59,54.707 21.4,50.615 C21.25,47.294 18.26,46.579 16.7,47.666 C16.08,48.064 16.12,47.826 16.45,47.411 C18.77,44.563 17.37,40.894 14.24,40.823" id="Fill-56" fill="#0A0A08"></path>
        <path d="M19.63,28.853 C19.66,25.242 18.02,22.537 14.92,22.24 C11.83,21.941 8.7,24.968 8.92,28.647 C9.13,32.344 10.56,35.452 14.32,35.436 C18.36,35.419 19.61,31.422 19.63,28.853 L19.63,28.853 Z M6.52,30.227 C6.19,28.012 6.2,22.286 6.47,20.593 C7.28,15.403 9.26,13.029 12.58,12.254 C15.8,11.499 20.32,12.34 21.31,16.677 L18.62,16.729 C17.17,13.796 13.48,14.579 11.41,15.855 C9.75,16.871 9,21.114 9.32,21.375 C9.32,21.375 12.45,19.053 14.92,19.225 C20.2,19.774 22.37,24.355 22.19,28.681 C22.02,33.885 20.37,38.046 14.78,38.322 C9.47,38.116 7.03,35.215 6.52,30.227 L6.52,30.227 Z" id="Fill-57" fill="#0A0A08"></path>
        <path d="M159.2,221.74 C159.17,225.35 160.81,228.06 163.91,228.36 C167.01,228.65 170.13,225.63 169.92,221.95 C169.7,218.25 168.27,215.14 164.51,215.16 C160.48,215.18 159.22,219.17 159.2,221.74 L159.2,221.74 Z M172.32,220.37 C172.64,222.58 172.63,228.31 172.37,230 C171.55,235.19 169.57,237.57 166.26,238.34 C163.04,239.1 158.51,238.26 157.52,233.92 L160.21,233.87 C161.67,236.8 165.35,236.02 167.43,234.74 C169.08,233.72 169.83,229.48 169.51,229.22 C169.51,229.22 166.38,231.54 163.91,231.37 C158.63,230.82 156.46,226.24 156.64,221.92 C156.81,216.71 158.46,212.55 164.05,212.27 C169.37,212.48 171.8,215.38 172.32,220.37 L172.32,220.37 Z" id="Fill-58" fill="#0A0A08"></path>
    </g>
</svg>