<?xml version="1.0" encoding="UTF-8" standalone="no"?>
<svg width="179px" height="250px" viewBox="0 0 179 250" version="1.1" xmlns="http://www.w3.org/2000/svg" xmlns:xlink="http://www.w3.org/1999/xlink">
    <!-- Generator: Sketch 39.1 (31720) - http://www.bohemiancoding.com/sketch -->
    <title>9C</title>
    <desc>Created with Sketch.</desc>
    <defs></defs>
    <g id="Page-1" stroke="none" stroke-width="1" fill="none" fill-rule="evenodd">
        <path d="M8.78,0.973 L169.55,0.973 C174.25,0.973 178.06,4.779 178.06,9.477 L178.06,241.12 C178.06,245.82 174.25,249.62 169.55,249.62 L8.78,249.62 C4.08,249.62 0.27,245.82 0.27,241.12 L0.27,9.477 C0.27,4.779 4.08,0.973 8.78,0.973" id="Fill-86" fill="#FFFFFF"></path>
        <path d="M130.39,27.376 C122.57,27.546 119.06,36.35 124.86,43.187 C125.7,44.184 125.78,44.756 124.24,43.799 C120.34,41.191 112.87,42.905 112.49,50.876 C112.01,60.698 125.74,63.527 128.31,53.084 C128.45,51.982 129.34,52.008 129.13,53.571 C128.89,57.816 127.57,61.784 125.75,65.653 L135.04,65.653 C133.22,61.784 131.89,57.816 131.66,53.571 C131.44,52.008 132.34,51.982 132.47,53.084 C135.05,63.527 148.77,60.698 148.3,50.876 C147.92,42.905 140.44,41.191 136.54,43.799 C135,44.756 135.09,44.185 135.93,43.187 C141.72,36.35 138.22,27.546 130.4,27.376 C130.4,27.376 130.4,27.376 130.39,27.376" id="Fill-88" fill="#0A0A08"></path>
        <path d="M47.93,27.376 C40.11,27.546 36.61,36.35 42.4,43.187 C43.24,44.184 43.33,44.756 41.79,43.799 C37.89,41.191 30.41,42.905 30.03,50.876 C29.56,60.698 43.28,63.527 45.86,53.084 C45.99,51.982 46.89,52.008 46.67,53.571 C46.44,57.816 45.11,61.784 43.29,65.653 L52.58,65.653 C50.76,61.784 49.44,57.816 49.2,53.571 C48.99,52.008 49.88,51.982 50.02,53.084 C52.59,63.527 66.32,60.698 65.84,50.876 C65.46,42.905 57.99,41.191 54.09,43.799 C52.55,44.756 52.63,44.185 53.47,43.187 C59.27,36.35 55.76,27.546 47.94,27.376 C47.94,27.376 47.94,27.376 47.93,27.376" id="Fill-89" fill="#0A0A08"></path>
        <path d="M130.39,223.88 C122.57,223.71 119.06,214.91 124.86,208.07 C125.7,207.08 125.78,206.5 124.24,207.46 C120.34,210.07 112.87,208.35 112.49,200.38 C112.01,190.56 125.74,187.73 128.31,198.17 C128.45,199.28 129.34,199.25 129.13,197.69 C128.89,193.44 127.57,189.47 125.75,185.61 L135.04,185.61 C133.22,189.47 131.89,193.44 131.66,197.69 C131.44,199.25 132.34,199.28 132.47,198.17 C135.05,187.73 148.77,190.56 148.3,200.38 C147.92,208.35 140.44,210.07 136.54,207.46 C135,206.5 135.09,207.08 135.93,208.07 C141.72,214.91 138.22,223.71 130.4,223.88 C130.4,223.88 130.4,223.88 130.39,223.88" id="Fill-90" fill="#0A0A08"></path>
        <path d="M47.93,223.88 C40.11,223.71 36.61,214.91 42.4,208.07 C43.24,207.08 43.33,206.5 41.79,207.46 C37.89,210.07 30.41,208.35 30.03,200.38 C29.56,190.56 43.28,187.73 45.86,198.17 C45.99,199.28 46.89,199.25 46.67,197.69 C46.44,193.44 45.11,189.47 43.29,185.61 L52.58,185.61 C50.76,189.47 49.44,193.44 49.2,197.69 C48.99,199.25 49.88,199.28 50.02,198.17 C52.59,187.73 66.32,190.56 65.84,200.38 C65.46,208.35 57.99,210.07 54.09,207.46 C52.55,206.5 52.63,207.08 53.47,208.07 C59.27,214.91 55.76,223.71 47.94,223.88 C47.94,223.88 47.94,223.88 47.93,223.88" id="Fill-91" fill="#0A0A08"></path>
        <path d="M89.16,106.49 C81.34,106.66 77.84,115.46 83.63,122.3 C84.47,123.3 84.55,123.87 83.02,122.91 C79.12,120.31 71.64,122.02 71.26,129.99 C70.79,139.81 84.51,142.64 87.08,132.2 C87.22,131.1 88.12,131.12 87.9,132.69 C87.67,136.93 86.34,140.9 84.52,144.77 L93.81,144.77 C91.99,140.9 90.67,136.93 90.43,132.69 C90.21,131.12 91.11,131.1 91.25,132.2 C93.82,142.64 107.55,139.81 107.07,129.99 C106.69,122.02 99.21,120.31 95.31,122.91 C93.78,123.87 93.86,123.3 94.7,122.3 C100.49,115.46 96.99,106.66 89.17,106.49 C89.17,106.49 89.17,106.49 89.16,106.49" id="Fill-92" fill="#0A0A08"></path>
        <path d="M164.35,209.77 C167.47,209.7 168.88,206.03 166.56,203.19 C166.23,202.77 166.19,202.53 166.81,202.93 C168.37,204.02 171.36,203.3 171.51,199.98 C171.7,195.89 166.21,194.71 165.18,199.06 C165.12,199.52 164.77,199.51 164.85,198.86 C164.95,197.09 165.48,195.44 166.21,193.82 L162.49,193.82 C163.22,195.44 163.75,197.09 163.84,198.86 C163.93,199.51 163.57,199.52 163.51,199.06 C162.48,194.71 156.99,195.89 157.18,199.98 C157.34,203.3 160.33,204.02 161.89,202.93 C162.5,202.53 162.47,202.77 162.13,203.19 C159.81,206.03 161.22,209.7 164.34,209.77 L164.35,209.77" id="Fill-93" fill="#0A0A08"></path>
        <path d="M47.93,80.119 C40.11,80.289 36.61,89.094 42.4,95.93 C43.24,96.93 43.33,97.5 41.79,96.54 C37.89,93.93 30.41,95.65 30.03,103.62 C29.56,113.44 43.28,116.27 45.86,105.83 C45.99,104.73 46.89,104.75 46.67,106.31 C46.44,110.56 45.11,114.53 43.29,118.4 L52.58,118.4 C50.76,114.53 49.44,110.56 49.2,106.31 C48.99,104.75 49.88,104.73 50.02,105.83 C52.59,116.27 66.32,113.44 65.84,103.62 C65.46,95.65 57.99,93.93 54.09,96.54 C52.55,97.5 52.63,96.93 53.47,95.93 C59.27,89.094 55.76,80.289 47.94,80.119 C47.94,80.119 47.94,80.119 47.93,80.119" id="Fill-94" fill="#0A0A08"></path>
        <path d="M47.93,171.14 C40.11,170.97 36.61,162.17 42.4,155.33 C43.24,154.33 43.33,153.76 41.79,154.72 C37.89,157.33 30.41,155.61 30.03,147.64 C29.56,137.82 43.28,134.99 45.86,145.43 C45.99,146.53 46.89,146.51 46.67,144.94 C46.44,140.7 45.11,136.73 43.29,132.86 L52.58,132.86 C50.76,136.73 49.44,140.7 49.2,144.94 C48.99,146.51 49.88,146.53 50.02,145.43 C52.59,134.99 66.32,137.82 65.84,147.64 C65.46,155.61 57.99,157.33 54.09,154.72 C52.55,153.76 52.63,154.33 53.47,155.33 C59.27,162.17 55.76,170.97 47.94,171.14 C47.94,171.14 47.94,171.14 47.93,171.14" id="Fill-95" fill="#0A0A08"></path>
        <path d="M130.39,80.119 C122.57,80.289 119.06,89.094 124.86,95.93 C125.7,96.93 125.78,97.5 124.24,96.54 C120.34,93.93 112.87,95.65 112.49,103.62 C112.01,113.44 125.74,116.27 128.31,105.83 C128.45,104.73 129.34,104.75 129.13,106.31 C128.89,110.56 127.57,114.53 125.75,118.4 L135.04,118.4 C133.22,114.53 131.89,110.56 131.66,106.31 C131.44,104.75 132.34,104.73 132.47,105.83 C135.05,116.27 148.77,113.44 148.3,103.62 C147.92,95.65 140.44,93.93 136.54,96.54 C135,97.5 135.09,96.93 135.93,95.93 C141.72,89.094 138.22,80.289 130.4,80.119 C130.4,80.119 130.4,80.119 130.39,80.119" id="Fill-96" fill="#0A0A08"></path>
        <path d="M130.39,171.14 C122.57,170.97 119.06,162.17 124.86,155.33 C125.7,154.33 125.78,153.76 124.24,154.72 C120.34,157.33 112.87,155.61 112.49,147.64 C112.01,137.82 125.74,134.99 128.31,145.43 C128.45,146.53 129.34,146.51 129.13,144.94 C128.89,140.7 127.57,136.73 125.75,132.86 L135.04,132.86 C133.22,136.73 131.89,140.7 131.66,144.94 C131.44,146.51 132.34,146.53 132.47,145.43 C135.05,134.99 148.77,137.82 148.3,147.64 C147.92,155.61 140.44,157.33 136.54,154.72 C135,153.76 135.09,154.33 135.93,155.33 C141.72,162.17 138.22,170.97 130.4,171.14 C130.4,171.14 130.4,171.14 130.39,171.14" id="Fill-97" fill="#0A0A08"></path>
        <path d="M13.98,40.823 C10.86,40.894 9.45,44.563 11.77,47.411 C12.11,47.826 12.14,48.064 11.53,47.666 C9.97,46.579 6.97,47.294 6.82,50.615 C6.63,54.707 12.12,55.887 13.15,51.535 C13.21,51.076 13.57,51.086 13.48,51.738 C13.38,53.507 12.86,55.16 12.13,56.772 L15.84,56.772 C15.12,55.16 14.58,53.507 14.49,51.738 C14.4,51.086 14.76,51.075 14.82,51.535 C15.85,55.887 21.34,54.707 21.15,50.615 C21,47.294 18,46.579 16.45,47.666 C15.83,48.064 15.86,47.826 16.2,47.411 C18.52,44.563 17.11,40.894 13.99,40.823 L13.98,40.823" id="Fill-98" fill="#0A0A08"></path>
        <path d="M16.09,26.572 C17.22,25.855 17.85,25.182 18.36,24.174 C18.78,23.346 18.92,22.913 18.8,21.201 C18.49,16.783 16.18,14.275 12.83,14.772 C10.96,15.054 9.93,16.103 9.34,18.052 C8.26,21.657 9.63,25.875 12.21,26.846 C13.37,27.286 15.16,27.16 16.09,26.572 L16.09,26.572 Z M6.64,33.25 L9.05,32.486 C9.96,34.913 11.79,35.632 13.73,35.476 C17.21,35.198 18.36,31.304 18.62,27.861 C17.27,29.301 15.23,30.031 13.49,29.958 C7.95,29.66 6.53,25.214 6.47,20.56 C6.32,16.636 7.94,13.794 10.72,12.488 C12.19,11.827 15.56,11.827 17.04,12.61 C20.45,14.406 21.71,17.509 21.48,24.916 C21.48,31.01 20.19,38.107 13.66,38.262 C9.89,38.784 7.03,35.848 6.64,33.25 L6.64,33.25 Z" id="Fill-99" fill="#0A0A08"></path>
        <path d="M162.24,224.02 C161.11,224.74 160.47,225.42 159.97,226.42 C159.55,227.25 159.41,227.68 159.53,229.4 C159.83,233.81 162.15,236.32 165.5,235.82 C167.37,235.54 168.4,234.49 168.99,232.54 C170.07,228.94 168.69,224.72 166.12,223.75 C164.96,223.31 163.17,223.44 162.24,224.02 L162.24,224.02 Z M171.69,217.35 L169.28,218.11 C168.37,215.68 166.54,214.96 164.6,215.12 C161.12,215.4 159.97,219.29 159.71,222.74 C161.06,221.3 163.1,220.56 164.84,220.64 C170.38,220.94 171.8,225.38 171.85,230.04 C172.01,233.96 170.39,236.8 167.61,238.11 C166.13,238.77 162.76,238.77 161.28,237.99 C157.88,236.19 156.62,233.09 156.85,225.68 C156.85,219.59 158.14,212.49 164.67,212.33 C168.43,211.81 171.3,214.75 171.69,217.35 L171.69,217.35 Z" id="Fill-100" fill="#0A0A08"></path>
    </g>
</svg>