<?xml version="1.0" encoding="UTF-8" standalone="no"?>
<svg width="179px" height="250px" viewBox="0 0 179 250" version="1.1" xmlns="http://www.w3.org/2000/svg" xmlns:xlink="http://www.w3.org/1999/xlink">
    <!-- Generator: Sketch 39.1 (31720) - http://www.bohemiancoding.com/sketch -->
    <title>AC</title>
    <desc>Created with Sketch.</desc>
    <defs></defs>
    <g id="Page-1" stroke="none" stroke-width="1" fill="none" fill-rule="evenodd">
        <path d="M9.115,0.973 L169.893,0.973 C174.589,0.973 178.396,4.779 178.396,9.477 L178.396,241.12 C178.396,245.82 174.589,249.62 169.893,249.62 L9.115,249.62 C4.419,249.62 0.611,245.82 0.611,241.12 L0.611,9.477 C0.611,4.779 4.419,0.973 9.115,0.973" id="Fill-1" fill="#FFFFFF"></path>
        <path d="M89.501,106.49 C81.681,106.66 78.175,115.46 83.966,122.3 C84.806,123.3 84.893,123.87 83.354,122.91 C79.455,120.31 71.979,122.02 71.596,129.99 C71.123,139.81 84.847,142.64 87.423,132.2 C87.559,131.1 88.454,131.12 88.238,132.69 C88.004,136.93 86.678,140.9 84.855,144.77 L94.151,144.77 C92.33,140.9 91.004,136.93 90.769,132.69 C90.553,131.12 91.448,131.1 91.585,132.2 C94.161,142.64 107.885,139.81 107.411,129.99 C107.028,122.02 99.553,120.31 95.653,122.91 C94.115,123.87 94.201,123.3 95.041,122.3 C100.833,115.46 97.326,106.66 89.507,106.49 C89.507,106.49 89.507,106.49 89.499,106.49 L89.501,106.49" id="Fill-4" fill="#0A0A08"></path>
        <path d="M164.686,209.77 C167.813,209.7 169.217,206.03 166.9,203.19 C166.563,202.77 166.529,202.53 167.145,202.93 C168.704,204.02 171.694,203.3 171.848,199.98 C172.037,195.89 166.548,194.71 165.518,199.06 C165.463,199.52 165.104,199.51 165.19,198.86 C165.285,197.09 165.815,195.44 166.544,193.82 L162.826,193.82 C163.555,195.44 164.085,197.09 164.179,198.86 C164.266,199.51 163.907,199.52 163.853,199.06 C162.822,194.71 157.333,195.89 157.521,199.98 C157.675,203.3 160.665,204.02 162.225,202.93 C162.841,202.53 162.806,202.77 162.47,203.19 C160.153,206.03 161.556,209.7 164.684,209.77 L164.684,209.77 L164.686,209.77" id="Fill-5" fill="#0A0A08"></path>
        <path d="M16.908,29.758 L14.321,16.877 L11.897,29.758 L16.908,29.758 L16.908,29.758 Z M6.285,38.322 L6.285,36.072 L8.429,36.072 L12.997,12.007 L15.597,12.007 L20.629,36.072 L22.36,36.072 L22.36,38.322 L16.46,38.322 L16.46,36.072 L18.053,36.072 L17.416,32.385 L11.464,32.385 L11.004,36.072 L12.597,36.072 L12.597,38.322 L6.285,38.322 L6.285,38.322 Z" id="Fill-6" fill="#0A0A08"></path>
        <path d="M167.27,220.84 L164.682,233.72 L162.259,220.84 L167.27,220.84 L167.27,220.84 Z M156.646,212.27 L156.646,214.52 L158.79,214.52 L163.358,238.59 L165.958,238.59 L170.99,214.52 L172.722,214.52 L172.722,212.27 L166.821,212.27 L166.821,214.52 L168.413,214.52 L167.777,218.21 L161.825,218.21 L161.365,214.52 L162.958,214.52 L162.958,212.27 L156.646,212.27 L156.646,212.27 Z" id="Fill-7" fill="#0A0A08"></path>
        <path d="M14.322,40.823 C11.194,40.894 9.792,44.563 12.108,47.411 C12.444,47.826 12.479,48.064 11.864,47.666 C10.305,46.579 7.313,47.294 7.16,50.615 C6.972,54.707 12.461,55.887 13.491,51.535 C13.546,51.075 13.904,51.086 13.817,51.737 C13.724,53.507 13.193,55.16 12.465,56.771 L16.183,56.771 C15.454,55.16 14.924,53.507 14.83,51.737 C14.743,51.086 15.102,51.075 15.156,51.535 C16.187,55.887 21.676,54.707 21.486,50.615 C21.334,47.294 18.343,46.579 16.783,47.666 C16.168,48.064 16.203,47.826 16.539,47.411 C18.855,44.563 17.453,40.894 14.325,40.823 C14.324,40.823 14.325,40.823 14.325,40.823 L14.322,40.823" id="Fill-8" fill="#0A0A08"></path>
    </g>
</svg>