<?xml version="1.0" encoding="UTF-8" standalone="no"?>
<svg width="179px" height="250px" viewBox="0 0 179 250" version="1.1" xmlns="http://www.w3.org/2000/svg" xmlns:xlink="http://www.w3.org/1999/xlink">
    <!-- Generator: Sketch 39.1 (31720) - http://www.bohemiancoding.com/sketch -->
    <title>TC</title>
    <desc>Created with Sketch.</desc>
    <defs></defs>
    <g id="Page-1" stroke="none" stroke-width="1" fill="none" fill-rule="evenodd">
        <path d="M9.36,0.973 L170.14,0.973 C174.83,0.973 178.64,4.779 178.64,9.477 L178.64,241.12 C178.64,245.82 174.83,249.62 170.14,249.62 L9.36,249.62 C4.66,249.62 0.86,245.82 0.86,241.12 L0.86,9.477 C0.86,4.779 4.66,0.973 9.36,0.973" id="Fill-101" fill="#FFFFFF"></path>
        <path d="M130.97,27.376 C123.15,27.546 119.65,36.35 125.44,43.187 C126.28,44.185 126.37,44.757 124.83,43.799 C120.93,41.191 113.45,42.905 113.07,50.876 C112.6,60.698 126.32,63.527 128.9,53.084 C129.03,51.982 129.93,52.008 129.71,53.571 C129.48,57.816 128.15,61.784 126.33,65.653 L135.62,65.653 C133.8,61.784 132.48,57.816 132.24,53.571 C132.03,52.008 132.92,51.982 133.06,53.084 C135.63,63.527 149.36,60.698 148.88,50.876 C148.5,42.905 141.02,41.191 137.13,43.799 C135.59,44.757 135.67,44.185 136.51,43.187 C142.3,36.35 138.8,27.546 130.98,27.376 C130.98,27.376 130.98,27.376 130.97,27.376" id="Fill-103" fill="#0A0A08"></path>
        <path d="M48.52,27.376 C40.7,27.546 37.19,36.35 42.98,43.187 C43.82,44.185 43.91,44.757 42.37,43.799 C38.47,41.191 30.99,42.905 30.61,50.876 C30.14,60.698 43.86,63.527 46.44,53.084 C46.58,51.982 47.47,52.008 47.25,53.571 C47.02,57.816 45.69,61.784 43.87,65.653 L53.17,65.653 C51.35,61.784 50.02,57.816 49.79,53.571 C49.57,52.008 50.46,51.982 50.6,53.084 C53.18,63.527 66.9,60.698 66.43,50.876 C66.04,42.905 58.57,41.191 54.67,43.799 C53.13,44.757 53.22,44.185 54.06,43.187 C59.85,36.35 56.34,27.546 48.52,27.376 C48.52,27.376 48.52,27.376 48.51,27.376 L48.52,27.376" id="Fill-104" fill="#0A0A08"></path>
        <path d="M130.97,223.88 C123.15,223.71 119.65,214.91 125.44,208.07 C126.28,207.08 126.37,206.5 124.83,207.46 C120.93,210.07 113.45,208.35 113.07,200.38 C112.6,190.56 126.32,187.73 128.9,198.17 C129.03,199.28 129.93,199.25 129.71,197.69 C129.48,193.44 128.15,189.47 126.33,185.61 L135.62,185.61 C133.8,189.47 132.48,193.44 132.24,197.69 C132.03,199.25 132.92,199.28 133.06,198.17 C135.63,187.73 149.36,190.56 148.88,200.38 C148.5,208.35 141.02,210.07 137.13,207.46 C135.59,206.5 135.67,207.08 136.51,208.07 C142.3,214.91 138.8,223.71 130.98,223.88 C130.98,223.88 130.98,223.88 130.97,223.88" id="Fill-105" fill="#0A0A08"></path>
        <path d="M48.52,223.88 C40.7,223.71 37.19,214.91 42.98,208.07 C43.82,207.08 43.91,206.5 42.37,207.46 C38.47,210.07 30.99,208.35 30.61,200.38 C30.14,190.56 43.86,187.73 46.44,198.17 C46.58,199.28 47.47,199.25 47.25,197.69 C47.02,193.44 45.69,189.47 43.87,185.61 L53.17,185.61 C51.35,189.47 50.02,193.44 49.79,197.69 C49.57,199.25 50.46,199.28 50.6,198.17 C53.18,187.73 66.9,190.56 66.43,200.38 C66.04,208.35 58.57,210.07 54.67,207.46 C53.13,206.5 53.22,207.08 54.06,208.07 C59.85,214.91 56.34,223.71 48.52,223.88 C48.52,223.88 48.52,223.88 48.51,223.88 L48.52,223.88" id="Fill-106" fill="#0A0A08"></path>
        <path d="M89.75,53.748 C81.93,53.918 78.42,62.722 84.21,69.559 C85.05,70.556 85.14,71.128 83.6,70.17 C79.7,67.563 72.22,69.277 71.84,77.248 C71.37,87.069 85.09,89.899 87.67,79.456 C87.8,78.354 88.7,78.379 88.48,79.943 C88.25,84.188 86.92,88.156 85.1,92.03 L94.4,92.03 C92.57,88.156 91.25,84.188 91.01,79.943 C90.8,78.379 91.69,78.354 91.83,79.456 C94.41,89.899 108.13,87.069 107.66,77.248 C107.27,69.277 99.8,67.563 95.9,70.17 C94.36,71.128 94.45,70.556 95.29,69.559 C101.08,62.722 97.57,53.918 89.75,53.748 C89.75,53.748 89.75,53.748 89.74,53.748 L89.75,53.748" id="Fill-107" fill="#0A0A08"></path>
        <path d="M89.75,197.51 C81.93,197.34 78.42,188.54 84.21,181.7 C85.05,180.7 85.14,180.13 83.6,181.09 C79.7,183.7 72.22,181.98 71.84,174.01 C71.37,164.19 85.09,161.36 87.67,171.8 C87.8,172.91 88.7,172.88 88.48,171.32 C88.25,167.07 86.92,163.1 85.1,159.23 L94.4,159.23 C92.57,163.1 91.25,167.07 91.01,171.32 C90.8,172.88 91.69,172.91 91.83,171.8 C94.41,161.36 108.13,164.19 107.66,174.01 C107.27,181.98 99.8,183.7 95.9,181.09 C94.36,180.13 94.45,180.7 95.29,181.7 C101.08,188.54 97.57,197.34 89.75,197.51 C89.75,197.51 89.75,197.51 89.74,197.51 L89.75,197.51" id="Fill-108" fill="#0A0A08"></path>
        <path d="M164.93,209.77 C168.06,209.7 169.46,206.03 167.14,203.19 C166.81,202.77 166.77,202.53 167.39,202.93 C168.95,204.02 171.94,203.3 172.09,199.98 C172.28,195.89 166.79,194.71 165.76,199.06 C165.71,199.52 165.35,199.51 165.44,198.86 C165.53,197.09 166.06,195.44 166.79,193.82 L163.07,193.82 C163.8,195.44 164.33,197.09 164.42,198.86 C164.51,199.51 164.15,199.52 164.1,199.06 C163.07,194.71 157.58,195.89 157.77,199.98 C157.92,203.3 160.91,204.02 162.47,202.93 C163.08,202.53 163.05,202.77 162.71,203.19 C160.4,206.03 161.8,209.7 164.93,209.77" id="Fill-109" fill="#0A0A08"></path>
        <path d="M48.52,80.119 C40.7,80.289 37.19,89.093 42.98,95.93 C43.82,96.93 43.91,97.5 42.37,96.54 C38.47,93.93 30.99,95.65 30.61,103.62 C30.14,113.44 43.86,116.27 46.44,105.83 C46.58,104.73 47.47,104.75 47.25,106.31 C47.02,110.56 45.69,114.53 43.87,118.4 L53.17,118.4 C51.35,114.53 50.02,110.56 49.79,106.31 C49.57,104.75 50.46,104.73 50.6,105.83 C53.18,116.27 66.9,113.44 66.43,103.62 C66.04,95.65 58.57,93.93 54.67,96.54 C53.13,97.5 53.22,96.93 54.06,95.93 C59.85,89.093 56.34,80.289 48.52,80.119 C48.52,80.119 48.52,80.119 48.51,80.119 L48.52,80.119" id="Fill-110" fill="#0A0A08"></path>
        <path d="M48.52,171.14 C40.7,170.97 37.19,162.17 42.98,155.33 C43.82,154.33 43.91,153.76 42.37,154.72 C38.47,157.33 30.99,155.61 30.61,147.64 C30.14,137.82 43.86,134.99 46.44,145.43 C46.58,146.53 47.47,146.51 47.25,144.94 C47.02,140.7 45.69,136.73 43.87,132.86 L53.17,132.86 C51.35,136.73 50.02,140.7 49.79,144.94 C49.57,146.51 50.46,146.53 50.6,145.43 C53.18,134.99 66.9,137.82 66.43,147.64 C66.04,155.61 58.57,157.33 54.67,154.72 C53.13,153.76 53.22,154.33 54.06,155.33 C59.85,162.17 56.34,170.97 48.52,171.14 C48.52,171.14 48.52,171.14 48.51,171.14 L48.52,171.14" id="Fill-111" fill="#0A0A08"></path>
        <path d="M130.97,80.119 C123.15,80.289 119.65,89.093 125.44,95.93 C126.28,96.93 126.37,97.5 124.83,96.54 C120.93,93.93 113.45,95.65 113.07,103.62 C112.6,113.44 126.32,116.27 128.9,105.83 C129.03,104.73 129.93,104.75 129.71,106.31 C129.48,110.56 128.15,114.53 126.33,118.4 L135.62,118.4 C133.8,114.53 132.48,110.56 132.24,106.31 C132.03,104.75 132.92,104.73 133.06,105.83 C135.63,116.27 149.36,113.44 148.88,103.62 C148.5,95.65 141.02,93.93 137.13,96.54 C135.59,97.5 135.67,96.93 136.51,95.93 C142.3,89.093 138.8,80.289 130.98,80.119 C130.98,80.119 130.98,80.119 130.97,80.119" id="Fill-112" fill="#0A0A08"></path>
        <path d="M130.97,171.14 C123.15,170.97 119.65,162.17 125.44,155.33 C126.28,154.33 126.37,153.76 124.83,154.72 C120.93,157.33 113.45,155.61 113.07,147.64 C112.6,137.82 126.32,134.99 128.9,145.43 C129.03,146.53 129.93,146.51 129.71,144.94 C129.48,140.7 128.15,136.73 126.33,132.86 L135.62,132.86 C133.8,136.73 132.48,140.7 132.24,144.94 C132.03,146.51 132.92,146.53 133.06,145.43 C135.63,134.99 149.36,137.82 148.88,147.64 C148.5,155.61 141.02,157.33 137.13,154.72 C135.59,153.76 135.67,154.33 136.51,155.33 C142.3,162.17 138.8,170.97 130.98,171.14 C130.98,171.14 130.98,171.14 130.97,171.14" id="Fill-113" fill="#0A0A08"></path>
        <path d="M14.57,40.823 C11.44,40.894 10.04,44.563 12.35,47.411 C12.69,47.826 12.72,48.064 12.11,47.666 C10.55,46.579 7.56,47.294 7.4,50.615 C7.22,54.707 12.71,55.887 13.74,51.535 C13.79,51.075 14.15,51.086 14.06,51.737 C13.97,53.507 13.44,55.16 12.71,56.771 L16.43,56.771 C15.7,55.16 15.17,53.507 15.07,51.737 C14.99,51.086 15.35,51.075 15.4,51.535 C16.43,55.887 21.92,54.707 21.73,50.615 C21.58,47.294 18.59,46.579 17.03,47.666 C16.41,48.064 16.45,47.826 16.78,47.411 C19.1,44.563 17.7,40.894 14.57,40.823" id="Fill-114" fill="#0A0A08"></path>
        <polygon id="Fill-115" fill="#0A0A08" points="6.59 38.322 9.13 38.322 9.13 12.008 6.59 12.008"></polygon>
        <path d="M17.43,14.495 C18.88,14.495 20.04,15.607 20.04,16.998 L20.04,33.472 C20.04,34.863 18.88,35.985 17.43,35.985 C15.98,35.985 14.81,34.863 14.81,33.472 L14.81,16.998 C14.81,15.608 15.98,14.495 17.43,14.495 L17.43,14.495 Z M16.69,12.007 C14.23,12.007 12.26,14.25 12.26,17.036 L12.26,33.295 C12.26,36.08 14.24,38.322 16.69,38.322 L18.12,38.322 C20.57,38.322 22.55,36.08 22.55,33.295 L22.55,17.036 C22.55,14.25 20.57,12.007 18.12,12.007 L16.69,12.007 L16.69,12.007 Z" id="Fill-116" fill="#0A0A08"></path>
        <polygon id="Fill-117" fill="#0A0A08" points="170.36 238.59 172.91 238.59 172.91 212.27 170.36 212.27"></polygon>
        <path d="M162.07,236.1 C160.62,236.1 159.46,234.99 159.46,233.6 L159.46,217.12 C159.46,215.73 160.62,214.61 162.07,214.61 C163.52,214.61 164.68,215.73 164.68,217.12 L164.68,233.6 C164.68,234.99 163.52,236.1 162.07,236.1 L162.07,236.1 Z M162.81,238.59 C165.26,238.59 167.23,236.35 167.23,233.56 L167.23,217.3 C167.23,214.52 165.26,212.27 162.81,212.27 L161.38,212.27 C158.92,212.27 156.95,214.52 156.95,217.3 L156.95,233.56 C156.95,236.35 158.92,238.59 161.38,238.59 L162.81,238.59 L162.81,238.59 Z" id="Fill-118" fill="#0A0A08"></path>
    </g>
</svg>