<?xml version="1.0" encoding="UTF-8" standalone="no"?>
<svg width="180px" height="251px" viewBox="0 0 180 251" version="1.1" xmlns="http://www.w3.org/2000/svg" xmlns:xlink="http://www.w3.org/1999/xlink">
    <!-- Generator: Sketch 39.1 (31720) - http://www.bohemiancoding.com/sketch -->
    <title>2H</title>
    <desc>Created with Sketch.</desc>
    <defs></defs>
    <g id="Page-1" stroke="none" stroke-width="1" fill="none" fill-rule="evenodd">
        <path d="M9.697,1.42 L170.476,1.42 C175.172,1.42 178.979,5.23 178.979,9.93 L178.979,241.57 C178.979,246.27 175.172,250.07 170.476,250.07 L9.697,250.07 C5.001,250.07 1.193,246.27 1.193,241.57 L1.193,9.93 C1.193,5.23 5.001,1.42 9.697,1.42" id="Fill-315" fill="#FFFFFF"></path>
        <path d="M14.906,57.22 C14.906,57.22 13.135,54.68 10.744,51.69 C9.146,49.69 7.867,47.52 7.748,45.65 C7.611,43.52 8.902,41.38 11.238,41.28 C13.572,41.17 14.521,42.92 14.906,44.36 C15.292,42.92 16.239,41.17 18.574,41.28 C20.91,41.38 22.2,43.52 22.064,45.65 C21.945,47.52 20.667,49.69 19.068,51.69 C16.678,54.68 14.906,57.22 14.906,57.22" id="Fill-317" fill="#C0242A"></path>
        <path d="M165.268,194.27 C165.268,194.27 163.496,196.82 161.105,199.81 C159.507,201.81 158.229,203.98 158.109,205.84 C157.974,207.97 159.264,210.11 161.6,210.22 C163.935,210.32 164.882,208.57 165.268,207.13 C165.653,208.57 166.602,210.32 168.936,210.22 C171.271,210.11 172.563,207.97 172.426,205.84 C172.307,203.98 171.028,201.81 169.43,199.81 C167.039,196.82 165.268,194.27 165.268,194.27" id="Fill-318" fill="#C0242A"></path>
        <path d="M90.087,65.77 C90.087,65.77 86.37,59.67 81.357,52.49 C78.003,47.69 75.322,42.48 75.072,38 C74.787,32.89 77.493,27.75 82.393,27.5 C87.29,27.26 89.277,31.45 90.087,34.91 C90.896,31.45 92.884,27.26 97.78,27.5 C102.68,27.75 105.387,32.89 105.101,38 C104.852,42.48 102.17,47.69 98.816,52.49 C93.803,59.67 90.087,65.77 90.087,65.77" id="Fill-319" fill="#C0242A"></path>
        <path d="M90.087,185.72 C90.087,185.72 86.37,191.83 81.357,199.01 C78.003,203.81 75.322,209.01 75.072,213.49 C74.787,218.61 77.493,223.74 82.393,223.99 C87.29,224.24 89.277,220.04 90.087,216.59 C90.896,220.04 92.884,224.24 97.78,223.99 C102.68,223.74 105.387,218.61 105.101,213.49 C104.852,209.01 102.17,203.81 98.816,199.01 C93.803,191.83 90.087,185.72 90.087,185.72" id="Fill-320" fill="#C0242A"></path>
        <path d="M7.425,38.72 L7.553,37.09 C7.957,32.08 9.033,30.39 15.138,25.15 C18.101,22.61 19.072,21.36 19.209,19.91 C19.597,16.48 16.569,15.41 14.597,15.4 C12.041,15.38 9.149,16.93 10.529,20.55 L7.661,21.41 C7.085,18.04 7.678,14.87 10.361,13.46 C13.945,11.63 18.541,12.35 20.861,15.24 C22.421,17.17 22.777,19.85 21.94,21.95 C19.496,27.31 11.205,29.67 10.521,35.87 L19.685,35.87 L19.685,32.42 L22.385,32.42 L22.385,38.77 L7.425,38.72" id="Fill-321" fill="#C0242A"></path>
        <path d="M172.747,212.78 L172.618,214.4 C172.214,219.42 171.138,221.11 165.034,226.34 C162.07,228.88 161.099,230.13 160.963,231.58 C160.575,235.01 163.603,236.08 165.575,236.1 C168.131,236.12 171.022,234.56 169.642,230.94 L172.51,230.08 C173.087,233.46 172.493,236.63 169.81,238.03 C166.227,239.87 161.631,239.15 159.311,236.26 C157.751,234.32 157.395,231.64 158.231,229.54 C160.675,224.18 168.966,221.83 169.65,215.63 L160.486,215.63 L160.486,219.08 L157.787,219.08 L157.787,212.72 L172.747,212.78" id="Fill-322" fill="#C0242A"></path>
    </g>
</svg>