<?xml version="1.0" encoding="UTF-8" standalone="no"?>
<svg width="179px" height="250px" viewBox="0 0 179 250" version="1.1" xmlns="http://www.w3.org/2000/svg" xmlns:xlink="http://www.w3.org/1999/xlink">
    <!-- Generator: Sketch 39.1 (31720) - http://www.bohemiancoding.com/sketch -->
    <title>3H</title>
    <desc>Created with Sketch.</desc>
    <defs></defs>
    <g id="Page-1" stroke="none" stroke-width="1" fill="none" fill-rule="evenodd">
        <path d="M9.28,0.42 L170.06,0.42 C174.75,0.42 178.56,4.23 178.56,8.93 L178.56,240.57 C178.56,245.27 174.75,249.07 170.06,249.07 L9.28,249.07 C4.584,249.07 0.776,245.27 0.776,240.57 L0.776,8.93 C0.776,4.23 4.584,0.42 9.28,0.42" id="Fill-323" fill="#FFFFFF"></path>
        <path d="M14.488,56.22 C14.488,56.22 12.717,53.68 10.327,50.69 C8.728,48.69 7.449,46.52 7.331,44.65 C7.194,42.52 8.484,40.38 10.82,40.28 C13.155,40.17 14.103,41.92 14.488,43.36 C14.875,41.92 15.822,40.17 18.157,40.28 C20.493,40.38 21.783,42.52 21.646,44.65 C21.528,46.52 20.25,48.69 18.65,50.69 C16.261,53.68 14.488,56.22 14.488,56.22" id="Fill-325" fill="#C0242A"></path>
        <path d="M164.851,193.27 C164.851,193.27 163.078,195.82 160.688,198.81 C159.09,200.81 157.812,202.98 157.692,204.84 C157.556,206.97 158.847,209.11 161.183,209.22 C163.517,209.32 164.465,207.57 164.851,206.13 C165.236,207.57 166.184,209.32 168.52,209.22 C170.85,209.11 172.14,206.97 172.01,204.84 C171.89,202.98 170.61,200.81 169.01,198.81 C166.622,195.82 164.851,193.27 164.851,193.27" id="Fill-326" fill="#C0242A"></path>
        <path d="M89.669,64.77 C89.669,64.77 85.953,58.67 80.939,51.49 C77.586,46.69 74.904,41.48 74.655,37 C74.369,31.89 77.076,26.75 81.976,26.5 C86.872,26.26 88.86,30.45 89.669,33.91 C90.479,30.45 92.466,26.26 97.363,26.5 C102.263,26.75 104.969,31.89 104.684,37 C104.434,41.48 101.753,46.69 98.398,51.49 C93.386,58.67 89.669,64.77 89.669,64.77" id="Fill-327" fill="#C0242A"></path>
        <path d="M89.669,143.89 C89.669,143.89 85.953,137.78 80.939,130.6 C77.586,125.8 74.904,120.6 74.655,116.12 C74.369,111 77.076,105.87 81.976,105.62 C86.872,105.37 88.86,109.57 89.669,113.02 C90.479,109.57 92.466,105.37 97.363,105.62 C102.263,105.87 104.969,111 104.684,116.12 C104.434,120.6 101.753,125.8 98.398,130.6 C93.386,137.78 89.669,143.89 89.669,143.89" id="Fill-328" fill="#C0242A"></path>
        <path d="M89.669,184.72 C89.669,184.72 85.953,190.83 80.939,198.01 C77.586,202.81 74.904,208.01 74.655,212.49 C74.369,217.61 77.076,222.74 81.976,222.99 C86.872,223.24 88.86,219.04 89.669,215.59 C90.479,219.04 92.466,223.24 97.363,222.99 C102.263,222.74 104.969,217.61 104.684,212.49 C104.434,208.01 101.753,202.81 98.398,198.01 C93.386,190.83 89.669,184.72 89.669,184.72" id="Fill-329" fill="#C0242A"></path>
        <path d="M5.958,32 L7.981,30.51 C9.737,33.38 11.701,35.26 14.705,34.94 C19.213,34.63 21.081,29.9 20.138,26.33 C19.226,23.13 15.493,21.58 12.525,23.28 C11.825,23.69 11.149,24.02 11.018,24.02 C10.706,24.02 10.001,22.61 10.098,22.18 C12.089,19.27 16.926,14.17 16.926,14.17 L9.369,14.17 L9.369,17.59 L6.47,17.59 L6.47,11.46 L21.237,11.46 L21.237,13.54 C21.237,13.54 17.28,17.65 15.973,19.9 C19.193,20.01 21.789,22.06 22.721,25.29 C23.265,26.99 23.021,30.88 22.31,32.56 C21.121,35.35 17.873,37.62 14.905,37.75 C9.922,38.08 7.277,34.59 5.958,32" id="Fill-330" fill="#C0242A"></path>
        <path d="M173.38,217.49 L171.36,218.98 C169.6,216.12 167.636,214.23 164.631,214.56 C160.124,214.87 158.256,219.6 159.199,223.16 C160.111,226.36 163.844,227.92 166.812,226.21 C167.512,225.81 168.19,225.48 168.32,225.48 C168.63,225.48 169.34,226.88 169.24,227.31 C167.248,230.22 162.411,235.32 162.411,235.32 L169.97,235.32 L169.97,231.91 L172.87,231.91 L172.87,238.04 L158.1,238.04 L158.1,235.96 C158.1,235.96 162.057,231.85 163.363,229.6 C160.144,229.48 157.548,227.44 156.616,224.21 C156.072,222.51 156.315,218.62 157.027,216.94 C158.216,214.14 161.463,211.88 164.432,211.75 C169.42,211.41 172.06,214.91 173.38,217.49" id="Fill-331" fill="#C0242A"></path>
    </g>
</svg>