<?xml version="1.0" encoding="UTF-8" standalone="no"?>
<svg width="179px" height="250px" viewBox="0 0 179 250" version="1.1" xmlns="http://www.w3.org/2000/svg" xmlns:xlink="http://www.w3.org/1999/xlink">
    <!-- Generator: Sketch 39.1 (31720) - http://www.bohemiancoding.com/sketch -->
    <title>8H</title>
    <desc>Created with Sketch.</desc>
    <defs></defs>
    <g id="Page-1" stroke="none" stroke-width="1" fill="none" fill-rule="evenodd">
        <path d="M9.19,0.42 L169.97,0.42 C174.67,0.42 178.48,4.23 178.48,8.93 L178.48,240.57 C178.48,245.27 174.67,249.07 169.97,249.07 L9.19,249.07 C4.5,249.07 0.69,245.27 0.69,240.57 L0.69,8.93 C0.69,4.23 4.5,0.42 9.19,0.42" id="Fill-378" fill="#FFFFFF"></path>
        <path d="M14.4,56.22 C14.4,56.22 12.63,53.68 10.24,50.69 C8.64,48.69 7.36,46.52 7.24,44.65 C7.11,42.52 8.4,40.38 10.73,40.28 C13.07,40.17 14.02,41.92 14.4,43.36 C14.79,41.92 15.74,40.17 18.07,40.28 C20.41,40.38 21.7,42.52 21.56,44.65 C21.44,46.52 20.16,48.69 18.56,50.69 C16.17,53.68 14.4,56.22 14.4,56.22" id="Fill-380" fill="#C0242A"></path>
        <path d="M164.76,193.27 C164.76,193.28 162.99,195.82 160.6,198.81 C159,200.81 157.72,202.98 157.61,204.84 C157.47,206.97 158.76,209.11 161.1,209.22 C163.43,209.32 164.38,207.57 164.76,206.13 C165.15,207.57 166.1,209.32 168.43,209.22 C170.77,209.11 172.06,206.97 171.92,204.84 C171.8,202.98 170.52,200.81 168.93,198.81 C166.54,195.82 164.77,193.28 164.76,193.27" id="Fill-381" fill="#C0242A"></path>
        <path d="M89.58,104.33 C89.58,104.33 85.87,98.22 80.85,91.05 C77.5,86.24 74.82,81.04 74.57,76.56 C74.28,71.44 76.99,66.31 81.89,66.06 C86.79,65.81 88.77,70.01 89.58,73.47 C90.39,70.01 92.38,65.81 97.28,66.06 C102.18,66.31 104.88,71.44 104.6,76.56 C104.35,81.04 101.67,86.24 98.31,91.05 C93.3,98.22 89.58,104.33 89.58,104.33" id="Fill-382" fill="#C0242A"></path>
        <path d="M48.35,64.77 C48.35,64.77 44.64,58.67 39.63,51.49 C36.27,46.69 33.59,41.48 33.34,37 C33.05,31.89 35.76,26.75 40.66,26.5 C45.56,26.26 47.54,30.45 48.35,33.91 C49.16,30.45 51.15,26.26 56.05,26.5 C60.95,26.75 63.65,31.89 63.37,37 C63.12,41.48 60.44,46.69 57.08,51.49 C52.07,58.67 48.35,64.77 48.35,64.77" id="Fill-383" fill="#C0242A"></path>
        <path d="M130.81,143.89 C130.81,143.89 127.09,137.78 122.08,130.6 C118.73,125.8 116.05,120.6 115.8,116.12 C115.51,111 118.22,105.87 123.12,105.62 C128.01,105.37 130,109.57 130.81,113.02 C131.62,109.57 133.61,105.37 138.5,105.62 C143.4,105.87 146.11,111 145.83,116.12 C145.58,120.6 142.89,125.8 139.54,130.6 C134.53,137.78 130.81,143.89 130.81,143.89" id="Fill-384" fill="#C0242A"></path>
        <path d="M130.81,64.77 C130.81,64.77 127.09,58.67 122.08,51.49 C118.73,46.69 116.05,41.48 115.8,37 C115.51,31.89 118.22,26.75 123.12,26.5 C128.01,26.26 130,30.45 130.81,33.91 C131.62,30.45 133.61,26.26 138.5,26.5 C143.4,26.75 146.11,31.89 145.83,37 C145.58,41.48 142.89,46.69 139.54,51.49 C134.53,58.67 130.81,64.77 130.81,64.77" id="Fill-385" fill="#C0242A"></path>
        <path d="M48.35,143.89 C48.35,143.89 44.64,137.78 39.63,130.6 C36.27,125.8 33.59,120.6 33.34,116.12 C33.05,111 35.76,105.87 40.66,105.62 C45.56,105.37 47.54,109.57 48.35,113.02 C49.16,109.57 51.15,105.37 56.05,105.62 C60.95,105.87 63.65,111 63.37,116.12 C63.12,120.6 60.44,125.8 57.08,130.6 C52.07,137.78 48.35,143.89 48.35,143.89" id="Fill-386" fill="#C0242A"></path>
        <path d="M89.58,145.17 C89.58,145.17 85.87,151.27 80.85,158.45 C77.5,163.25 74.82,168.45 74.57,172.93 C74.28,178.05 76.99,183.18 81.89,183.43 C86.79,183.68 88.77,179.49 89.58,176.03 C90.39,179.49 92.38,183.68 97.28,183.43 C102.18,183.18 104.88,178.05 104.6,172.93 C104.35,168.45 101.67,163.25 98.31,158.45 C93.3,151.27 89.58,145.17 89.58,145.17" id="Fill-387" fill="#C0242A"></path>
        <path d="M130.81,184.72 C130.81,184.72 127.09,190.83 122.08,198.01 C118.73,202.81 116.05,208.01 115.8,212.49 C115.51,217.61 118.22,222.74 123.12,222.99 C128.01,223.24 130,219.04 130.81,215.59 C131.62,219.04 133.61,223.24 138.5,222.99 C143.4,222.74 146.11,217.61 145.83,212.49 C145.58,208.01 142.89,202.81 139.54,198.01 C134.53,190.83 130.81,184.72 130.81,184.72" id="Fill-388" fill="#C0242A"></path>
        <path d="M48.35,184.72 C48.35,184.72 44.64,190.83 39.63,198.01 C36.27,202.81 33.59,208.01 33.34,212.49 C33.05,217.61 35.76,222.74 40.66,222.99 C45.56,223.24 47.54,219.04 48.35,215.59 C49.16,219.04 51.15,223.24 56.05,222.99 C60.95,222.74 63.65,217.61 63.37,212.49 C63.12,208.01 60.44,202.81 57.08,198.01 C52.07,190.83 48.35,184.72 48.35,184.72" id="Fill-389" fill="#C0242A"></path>
        <path d="M19.23,18.63 C19.29,15.94 16.81,14.01 14.25,14.09 C11.97,14.16 9.56,15.9 9.56,18.15 C9.56,20.97 12.3,22.38 14.64,22.43 C16.76,22.48 19.18,20.67 19.23,18.63 L19.23,18.63 Z M20.25,30.08 C20.47,26.88 17.64,24.72 14.46,24.69 C11.35,24.66 8.58,27.31 8.58,30.18 C8.58,33.26 12.19,34.94 14.52,34.95 C17.36,34.96 20.06,32.83 20.25,30.08 L20.25,30.08 Z M5.86,30.06 C5.99,26.53 7.26,25.21 9.78,23.36 C7.77,21.91 6.93,19.78 7.1,17.96 C7.51,13.56 10.9,11.37 14.6,11.46 C18.31,11.56 21.5,14.5 21.74,17.69 C21.96,20.47 21.14,21.81 19.17,23.27 C21.5,25.25 23,26.54 22.94,30.02 C22.88,33.5 19.93,37.64 14.78,37.77 C9.62,37.9 5.74,33.6 5.86,30.06 L5.86,30.06 Z" id="Fill-390" fill="#C0242A"></path>
        <path d="M169.59,230.86 C169.65,233.55 167.17,235.48 164.61,235.4 C162.33,235.33 159.93,233.6 159.92,231.35 C159.92,228.53 162.66,227.12 165,227.07 C167.13,227.02 169.54,228.82 169.59,230.86 L169.59,230.86 Z M170.61,219.42 C170.83,222.62 168,224.77 164.82,224.81 C161.71,224.84 158.94,222.19 158.94,219.31 C158.94,216.23 162.55,214.55 164.88,214.55 C167.72,214.54 170.42,216.66 170.61,219.42 L170.61,219.42 Z M156.23,219.43 C156.35,222.96 157.63,224.29 160.14,226.14 C158.13,227.58 157.29,229.72 157.46,231.53 C157.87,235.93 161.27,238.13 164.97,238.04 C168.67,237.94 171.86,235 172.11,231.8 C172.32,229.02 171.5,227.68 169.53,226.22 C171.87,224.25 173.36,222.95 173.3,219.47 C173.25,215.99 170.29,211.85 165.14,211.73 C159.99,211.6 156.1,215.9 156.23,219.43 L156.23,219.43 Z" id="Fill-391" fill="#C0242A"></path>
    </g>
</svg>