<?xml version="1.0" encoding="UTF-8" standalone="no"?>
<svg width="179px" height="250px" viewBox="0 0 179 250" version="1.1" xmlns="http://www.w3.org/2000/svg" xmlns:xlink="http://www.w3.org/1999/xlink">
    <!-- Generator: Sketch 39.1 (31720) - http://www.bohemiancoding.com/sketch -->
    <title>9H</title>
    <desc>Created with Sketch.</desc>
    <defs></defs>
    <g id="Page-1" stroke="none" stroke-width="1" fill="none" fill-rule="evenodd">
        <path d="M8.78,0.42 L169.55,0.42 C174.25,0.42 178.06,4.23 178.06,8.93 L178.06,240.57 C178.06,245.27 174.25,249.07 169.55,249.07 L8.78,249.07 C4.08,249.07 0.27,245.27 0.27,240.57 L0.27,8.93 C0.27,4.23 4.08,0.42 8.78,0.42" id="Fill-392" fill="#FFFFFF"></path>
        <path d="M47.94,117.51 C47.94,117.51 44.22,111.41 39.21,104.23 C35.85,99.43 33.17,94.23 32.92,89.75 C32.64,84.63 35.34,79.5 40.24,79.25 C45.14,79 47.13,83.19 47.94,86.65 C48.75,83.19 50.73,79 55.63,79.25 C60.53,79.5 63.24,84.63 62.95,89.75 C62.7,94.23 60.02,99.43 56.67,104.23 C51.65,111.41 47.94,117.51 47.94,117.51" id="Fill-394" fill="#C0242A"></path>
        <path d="M13.98,56.22 C13.98,56.22 12.21,53.68 9.82,50.69 C8.22,48.69 6.95,46.52 6.83,44.65 C6.69,42.52 7.98,40.38 10.32,40.28 C12.65,40.17 13.6,41.92 13.98,43.36 C14.37,41.92 15.32,40.17 17.65,40.28 C19.99,40.38 21.28,42.52 21.14,44.65 C21.02,46.52 19.75,48.69 18.15,50.69 C15.76,53.68 13.99,56.22 13.98,56.22" id="Fill-395" fill="#C0242A"></path>
        <path d="M164.35,193.27 C164.35,193.27 162.57,195.82 160.18,198.81 C158.59,200.81 157.31,202.98 157.19,204.84 C157.05,206.97 158.34,209.11 160.68,209.22 C163.01,209.32 163.96,207.57 164.35,206.13 C164.73,207.57 165.68,209.32 168.01,209.22 C170.35,209.11 171.64,206.97 171.5,204.84 C171.39,202.98 170.11,200.81 168.51,198.81 C166.12,195.82 164.35,193.27 164.35,193.27" id="Fill-396" fill="#C0242A"></path>
        <path d="M47.94,64.77 C47.94,64.77 44.22,58.67 39.21,51.49 C35.85,46.69 33.17,41.48 32.92,37 C32.64,31.89 35.34,26.75 40.24,26.5 C45.14,26.26 47.13,30.45 47.94,33.91 C48.75,30.45 50.73,26.26 55.63,26.5 C60.53,26.75 63.24,31.89 62.95,37 C62.7,41.48 60.02,46.69 56.67,51.49 C51.65,58.67 47.94,64.77 47.94,64.77" id="Fill-397" fill="#C0242A"></path>
        <path d="M130.39,117.51 C130.39,117.51 126.68,111.41 121.66,104.23 C118.31,99.43 115.63,94.23 115.38,89.75 C115.09,84.63 117.8,79.5 122.7,79.25 C127.6,79 129.58,83.19 130.39,86.65 C131.2,83.19 133.19,79 138.09,79.25 C142.99,79.5 145.69,84.63 145.41,89.75 C145.16,94.23 142.48,99.43 139.12,104.23 C134.11,111.41 130.39,117.51 130.39,117.51" id="Fill-398" fill="#C0242A"></path>
        <path d="M130.39,64.77 C130.39,64.77 126.68,58.67 121.66,51.49 C118.31,46.69 115.63,41.48 115.38,37 C115.09,31.89 117.8,26.75 122.7,26.5 C127.6,26.26 129.58,30.45 130.39,33.91 C131.2,30.45 133.19,26.26 138.09,26.5 C142.99,26.75 145.69,31.89 145.41,37 C145.16,41.48 142.48,46.69 139.12,51.49 C134.11,58.67 130.39,64.77 130.39,64.77" id="Fill-399" fill="#C0242A"></path>
        <path d="M89.17,143.89 C89.17,143.89 85.45,137.78 80.44,130.6 C77.08,125.8 74.4,120.6 74.15,116.12 C73.87,111 76.57,105.87 81.47,105.62 C86.37,105.37 88.36,109.57 89.17,113.02 C89.97,109.57 91.96,105.37 96.86,105.62 C101.76,105.87 104.46,111 104.18,116.12 C103.93,120.6 101.25,125.8 97.89,130.6 C92.88,137.78 89.17,143.89 89.17,143.89" id="Fill-400" fill="#C0242A"></path>
        <path d="M130.39,131.98 C130.39,131.98 126.68,138.08 121.66,145.26 C118.31,150.07 115.63,155.27 115.38,159.75 C115.09,164.86 117.8,170 122.7,170.25 C127.6,170.5 129.58,166.3 130.39,162.84 C131.2,166.3 133.19,170.5 138.09,170.25 C142.99,170 145.69,164.86 145.41,159.75 C145.16,155.27 142.48,150.07 139.12,145.26 C134.11,138.08 130.39,131.98 130.39,131.98" id="Fill-401" fill="#C0242A"></path>
        <path d="M47.94,131.98 C47.94,131.98 44.22,138.08 39.21,145.26 C35.85,150.07 33.17,155.27 32.92,159.75 C32.64,164.86 35.34,170 40.24,170.25 C45.14,170.5 47.13,166.3 47.94,162.84 C48.75,166.3 50.73,170.5 55.63,170.25 C60.53,170 63.24,164.86 62.95,159.75 C62.7,155.27 60.02,150.07 56.67,145.26 C51.65,138.08 47.94,131.98 47.94,131.98" id="Fill-402" fill="#C0242A"></path>
        <path d="M130.39,184.72 C130.39,184.72 126.68,190.83 121.66,198.01 C118.31,202.81 115.63,208.01 115.38,212.49 C115.09,217.61 117.8,222.74 122.7,222.99 C127.6,223.24 129.58,219.04 130.39,215.59 C131.2,219.04 133.19,223.24 138.09,222.99 C142.99,222.74 145.69,217.61 145.41,212.49 C145.16,208.01 142.48,202.81 139.12,198.01 C134.11,190.83 130.39,184.72 130.39,184.72" id="Fill-403" fill="#C0242A"></path>
        <path d="M47.94,184.72 C47.94,184.72 44.22,190.83 39.21,198.01 C35.85,202.81 33.17,208.01 32.92,212.49 C32.64,217.61 35.34,222.74 40.24,222.99 C45.14,223.24 47.13,219.04 47.94,215.59 C48.75,219.04 50.73,223.24 55.63,222.99 C60.53,222.74 63.24,217.61 62.95,212.49 C62.7,208.01 60.02,202.81 56.67,198.01 C51.65,190.83 47.94,184.72 47.94,184.72" id="Fill-404" fill="#C0242A"></path>
        <path d="M16.09,26.02 C17.22,25.3 17.85,24.63 18.36,23.62 C18.78,22.79 18.92,22.36 18.8,20.65 C18.49,16.23 16.18,13.72 12.83,14.22 C10.96,14.5 9.93,15.55 9.34,17.5 C8.26,21.11 9.63,25.32 12.21,26.3 C13.37,26.74 15.16,26.61 16.09,26.02 L16.09,26.02 Z M6.64,32.7 L9.05,31.94 C9.95,34.36 11.79,35.08 13.73,34.93 C17.21,34.65 18.36,30.75 18.62,27.31 C17.27,28.75 15.23,29.48 13.49,29.41 C7.95,29.11 6.53,24.66 6.47,20.01 C6.32,16.09 7.94,13.24 10.72,11.94 C12.19,11.28 15.56,11.28 17.04,12.06 C20.45,13.86 21.71,16.96 21.48,24.37 C21.48,30.46 20.18,37.56 13.66,37.71 C9.89,38.23 7.03,35.3 6.64,32.7 L6.64,32.7 Z" id="Fill-405" fill="#C0242A"></path>
        <path d="M162.24,223.47 C161.11,224.19 160.47,224.86 159.97,225.87 C159.55,226.7 159.41,227.13 159.53,228.84 C159.83,233.26 162.15,235.77 165.5,235.27 C167.37,234.99 168.4,233.94 168.99,231.99 C170.07,228.39 168.69,224.17 166.12,223.2 C164.96,222.76 163.17,222.88 162.24,223.47 L162.24,223.47 Z M171.69,216.79 L169.28,217.56 C168.38,215.13 166.54,214.41 164.6,214.57 C161.12,214.85 159.97,218.74 159.71,222.18 C161.06,220.74 163.1,220.01 164.84,220.09 C170.38,220.39 171.8,224.83 171.86,229.49 C172.01,233.41 170.39,236.25 167.61,237.56 C166.13,238.22 162.76,238.22 161.28,237.43 C157.88,235.64 156.62,232.54 156.85,225.13 C156.85,219.04 158.14,211.94 164.67,211.78 C168.44,211.26 171.3,214.2 171.69,216.8 L171.69,216.79 L171.69,216.79 Z" id="Fill-406" fill="#C0242A"></path>
    </g>
</svg>