<?xml version="1.0" encoding="UTF-8" standalone="no"?>
<svg width="179px" height="250px" viewBox="0 0 179 250" version="1.1" xmlns="http://www.w3.org/2000/svg" xmlns:xlink="http://www.w3.org/1999/xlink">
    <!-- Generator: Sketch 39.1 (31720) - http://www.bohemiancoding.com/sketch -->
    <title>TH</title>
    <desc>Created with Sketch.</desc>
    <defs></defs>
    <g id="Page-1" stroke="none" stroke-width="1" fill="none" fill-rule="evenodd">
        <path d="M9.36,0.42 L170.14,0.42 C174.83,0.42 178.64,4.23 178.64,8.93 L178.64,240.57 C178.64,245.27 174.83,249.07 170.14,249.07 L9.36,249.07 C4.66,249.07 0.86,245.27 0.86,240.57 L0.86,8.93 C0.86,4.23 4.66,0.42 9.36,0.42" id="Fill-407" fill="#FFFFFF"></path>
        <path d="M48.52,117.51 C48.52,117.51 44.8,111.41 39.79,104.23 C36.44,99.43 33.75,94.23 33.51,89.75 C33.22,84.63 35.93,79.5 40.83,79.25 C45.72,79 47.71,83.19 48.52,86.65 C49.33,83.19 51.32,79 56.21,79.25 C61.11,79.5 63.82,84.63 63.53,89.75 C63.28,94.23 60.6,99.43 57.25,104.23 C52.24,111.41 48.52,117.51 48.52,117.51" id="Fill-409" fill="#C0242A"></path>
        <path d="M14.57,56.22 C14.57,56.22 12.8,53.68 10.41,50.69 C8.81,48.69 7.53,46.52 7.41,44.65 C7.27,42.52 8.56,40.38 10.9,40.28 C13.23,40.17 14.18,41.92 14.57,43.36 C14.95,41.92 15.9,40.17 18.24,40.28 C20.57,40.38 21.86,42.52 21.73,44.65 C21.61,46.52 20.33,48.69 18.73,50.69 C16.34,53.68 14.57,56.22 14.57,56.22" id="Fill-410" fill="#C0242A"></path>
        <path d="M164.93,193.27 C164.93,193.27 163.16,195.82 160.77,198.81 C159.17,200.81 157.89,202.98 157.77,204.84 C157.63,206.97 158.92,209.11 161.26,209.22 C163.6,209.32 164.54,207.57 164.93,206.13 C165.31,207.57 166.26,209.32 168.6,209.22 C170.93,209.11 172.22,206.97 172.09,204.84 C171.97,202.98 170.69,200.81 169.09,198.81 C166.7,195.82 164.93,193.27 164.93,193.27" id="Fill-411" fill="#C0242A"></path>
        <path d="M89.75,98.77 C89.75,98.77 86.03,92.67 81.02,85.49 C77.66,80.69 74.98,75.49 74.73,71.01 C74.45,65.89 77.15,60.76 82.05,60.51 C86.95,60.26 88.94,64.45 89.75,67.91 C90.56,64.45 92.54,60.26 97.44,60.51 C102.34,60.76 105.05,65.89 104.76,71.01 C104.51,75.49 101.83,80.69 98.48,85.49 C93.46,92.67 89.75,98.77 89.75,98.77" id="Fill-412" fill="#C0242A"></path>
        <path d="M48.52,64.77 C48.52,64.77 44.8,58.67 39.79,51.49 C36.44,46.69 33.75,41.48 33.51,37 C33.22,31.89 35.93,26.75 40.83,26.5 C45.72,26.26 47.71,30.45 48.52,33.91 C49.33,30.45 51.32,26.26 56.21,26.5 C61.11,26.75 63.82,31.89 63.53,37 C63.28,41.48 60.6,46.69 57.25,51.49 C52.24,58.67 48.52,64.77 48.52,64.77" id="Fill-413" fill="#C0242A"></path>
        <path d="M130.98,117.51 C130.98,117.51 127.26,111.41 122.25,104.23 C118.89,99.43 116.21,94.23 115.96,89.75 C115.68,84.63 118.38,79.5 123.28,79.25 C128.18,79 130.17,83.19 130.98,86.65 C131.79,83.19 133.77,79 138.67,79.25 C143.57,79.5 146.28,84.63 145.99,89.75 C145.74,94.23 143.06,99.43 139.71,104.23 C134.69,111.41 130.98,117.51 130.98,117.51" id="Fill-414" fill="#C0242A"></path>
        <path d="M130.98,64.77 C130.98,64.77 127.26,58.67 122.25,51.49 C118.89,46.69 116.21,41.48 115.96,37 C115.68,31.89 118.38,26.75 123.28,26.5 C128.18,26.26 130.17,30.45 130.98,33.91 C131.79,30.45 133.77,26.26 138.67,26.5 C143.57,26.75 146.28,31.89 145.99,37 C145.74,41.48 143.06,46.69 139.71,51.49 C134.69,58.67 130.98,64.77 130.98,64.77" id="Fill-415" fill="#C0242A"></path>
        <path d="M89.75,150.72 C89.75,150.72 86.03,156.83 81.02,164 C77.66,168.81 74.98,174.01 74.73,178.49 C74.45,183.6 77.15,188.74 82.05,188.99 C86.95,189.24 88.94,185.04 89.75,181.58 C90.56,185.04 92.54,189.24 97.44,188.99 C102.34,188.74 105.05,183.6 104.76,178.49 C104.51,174.01 101.83,168.81 98.48,164 C93.46,156.83 89.75,150.72 89.75,150.72" id="Fill-416" fill="#C0242A"></path>
        <path d="M130.98,131.98 C130.98,131.98 127.26,138.08 122.25,145.26 C118.89,150.07 116.21,155.27 115.96,159.75 C115.68,164.86 118.38,170 123.28,170.25 C128.18,170.5 130.17,166.3 130.98,162.84 C131.79,166.3 133.77,170.5 138.67,170.25 C143.57,170 146.28,164.86 145.99,159.75 C145.74,155.27 143.06,150.07 139.71,145.26 C134.69,138.08 130.98,131.98 130.98,131.98" id="Fill-417" fill="#C0242A"></path>
        <path d="M48.52,131.98 C48.52,131.98 44.8,138.08 39.79,145.26 C36.44,150.07 33.75,155.27 33.51,159.75 C33.22,164.86 35.93,170 40.83,170.25 C45.72,170.5 47.71,166.3 48.52,162.84 C49.33,166.3 51.32,170.5 56.21,170.25 C61.11,170 63.82,164.86 63.53,159.75 C63.28,155.27 60.6,150.07 57.25,145.26 C52.24,138.08 48.52,131.98 48.52,131.98" id="Fill-418" fill="#C0242A"></path>
        <path d="M130.98,184.72 C130.98,184.72 127.26,190.83 122.25,198.01 C118.89,202.81 116.21,208.01 115.96,212.49 C115.68,217.61 118.38,222.74 123.28,222.99 C128.18,223.24 130.17,219.04 130.98,215.59 C131.79,219.04 133.77,223.24 138.67,222.99 C143.57,222.74 146.28,217.61 145.99,212.49 C145.74,208.01 143.06,202.81 139.71,198.01 C134.69,190.83 130.98,184.72 130.98,184.72" id="Fill-419" fill="#C0242A"></path>
        <path d="M48.52,184.72 C48.52,184.72 44.8,190.83 39.79,198.01 C36.44,202.81 33.75,208.01 33.51,212.49 C33.22,217.61 35.93,222.74 40.83,222.99 C45.72,223.24 47.71,219.04 48.52,215.59 C49.33,219.04 51.32,223.24 56.21,222.99 C61.11,222.74 63.82,217.61 63.53,212.49 C63.28,208.01 60.6,202.81 57.25,198.01 C52.24,190.83 48.52,184.72 48.52,184.72" id="Fill-420" fill="#C0242A"></path>
        <polygon id="Fill-421" fill="#C0242A" points="6.59 37.77 9.13 37.77 9.13 11.46 6.59 11.46"></polygon>
        <path d="M17.43,13.95 C18.88,13.95 20.04,15.06 20.04,16.45 L20.04,32.92 C20.04,34.31 18.88,35.43 17.43,35.43 C15.98,35.43 14.81,34.31 14.81,32.92 L14.81,16.45 C14.81,15.06 15.98,13.95 17.43,13.95 L17.43,13.95 Z M16.69,11.46 C14.23,11.46 12.26,13.7 12.26,16.49 L12.26,32.74 C12.26,35.53 14.24,37.77 16.69,37.77 L18.12,37.77 C20.57,37.77 22.55,35.53 22.55,32.74 L22.55,16.49 C22.55,13.7 20.57,11.46 18.12,11.46 L16.69,11.46 L16.69,11.46 Z" id="Fill-422" fill="#C0242A"></path>
        <polygon id="Fill-423" fill="#C0242A" points="170.36 238.04 172.91 238.04 172.91 211.72 170.36 211.72"></polygon>
        <path d="M162.07,235.55 C160.62,235.55 159.46,234.44 159.46,233.05 L159.46,216.57 C159.46,215.18 160.62,214.06 162.07,214.06 C163.52,214.06 164.68,215.18 164.68,216.57 L164.68,233.05 C164.68,234.44 163.52,235.55 162.07,235.55 L162.07,235.55 Z M162.81,238.04 C165.26,238.04 167.23,235.79 167.23,233.01 L167.23,216.75 C167.23,213.96 165.26,211.72 162.81,211.72 L161.38,211.72 C158.92,211.72 156.95,213.96 156.95,216.75 L156.95,233.01 C156.95,235.79 158.93,238.04 161.38,238.04 L162.81,238.04 L162.81,238.04 Z" id="Fill-424" fill="#C0242A"></path>
    </g>
</svg>