<?xml version="1.0" encoding="UTF-8" standalone="no"?>
<svg width="178px" height="250px" viewBox="0 0 178 250" version="1.1" xmlns="http://www.w3.org/2000/svg" xmlns:xlink="http://www.w3.org/1999/xlink">
    <!-- Generator: Sketch 39.1 (31720) - http://www.bohemiancoding.com/sketch -->
    <title>7S</title>
    <desc>Created with Sketch.</desc>
    <defs></defs>
    <g id="Page-1" stroke="none" stroke-width="1" fill="none" fill-rule="evenodd">
        <path d="M8.61,0.87 L169.39,0.87 C174.09,0.87 177.89,4.68 177.89,9.38 L177.89,241.02 C177.89,245.71 174.09,249.52 169.39,249.52 L8.61,249.52 C3.91,249.52 0.11,245.71 0.11,241.02 L0.11,9.38 C0.11,4.68 3.91,0.87 8.61,0.87" id="Fill-212" fill="#FFFFFF"></path>
        <path d="M47.77,26.94 C40.42,37.44 32.56,43.47 32.43,51.66 C32.39,54.31 33.82,58.81 38.3,59.68 C41.21,60.23 45.21,57.88 45.3,53.09 C45.29,52.13 46.31,52.16 46.3,53.47 C46.16,57.24 44.97,61.64 42.96,65.22 L52.58,65.22 C50.58,61.64 49.38,57.24 49.25,53.47 C49.24,52.16 50.26,52.13 50.25,53.09 C50.33,57.88 54.33,60.23 57.24,59.68 C61.72,58.81 63.16,54.31 63.11,51.66 C62.98,43.47 55.12,37.44 47.77,26.94" id="Fill-214" fill="#0A0A08"></path>
        <path d="M13.82,40.72 C10.39,45.09 6.71,47.61 6.65,51.02 C6.63,52.12 7.3,54 9.39,54.36 C10.75,54.59 12.63,53.61 12.66,51.62 C12.66,51.22 13.13,51.23 13.13,51.77 C13.07,53.35 12.51,55.18 11.57,56.67 L16.07,56.67 C15.13,55.18 14.57,53.35 14.51,51.77 C14.5,51.23 14.98,51.22 14.97,51.62 C15.01,53.61 16.88,54.59 18.24,54.36 C20.34,54 21.01,52.12 20.99,51.02 C20.93,47.61 17.25,45.09 13.82,40.72" id="Fill-215" fill="#0A0A08"></path>
        <path d="M164.18,209.67 C160.75,205.3 157.08,202.78 157.01,199.37 C156.99,198.27 157.66,196.39 159.76,196.03 C161.12,195.8 162.99,196.78 163.03,198.78 C163.02,199.17 163.5,199.17 163.49,198.62 C163.43,197.05 162.87,195.21 161.93,193.72 L166.43,193.72 C165.49,195.21 164.93,197.05 164.87,198.62 C164.86,199.17 165.34,199.17 165.34,198.78 C165.38,196.78 167.25,195.8 168.61,196.03 C170.7,196.39 171.37,198.27 171.35,199.37 C171.29,202.78 167.61,205.3 164.18,209.67" id="Fill-216" fill="#0A0A08"></path>
        <path d="M130.23,26.94 C122.88,37.44 115.02,43.47 114.89,51.66 C114.84,54.31 116.28,58.81 120.76,59.68 C123.67,60.23 127.67,57.88 127.75,53.09 C127.74,52.13 128.76,52.16 128.75,53.47 C128.62,57.24 127.42,61.64 125.42,65.22 L135.04,65.22 C133.03,61.64 131.84,57.24 131.7,53.47 C131.69,52.16 132.71,52.13 132.7,53.09 C132.79,57.88 136.79,60.23 139.7,59.68 C144.18,58.81 145.61,54.31 145.57,51.66 C145.44,43.47 137.58,37.44 130.23,26.94" id="Fill-217" fill="#0A0A08"></path>
        <path d="M89,66.5 C81.65,76.99 73.79,83.03 73.66,91.22 C73.62,93.87 75.05,98.37 79.53,99.23 C82.44,99.79 86.44,97.43 86.53,92.65 C86.51,91.69 87.54,91.72 87.53,93.02 C87.39,96.8 86.19,101.2 84.19,104.78 L93.81,104.78 C91.81,101.2 90.61,96.8 90.47,93.02 C90.46,91.72 91.49,91.69 91.47,92.65 C91.56,97.43 95.56,99.79 98.47,99.23 C102.95,98.37 104.38,93.87 104.34,91.22 C104.21,83.03 96.35,76.99 89,66.5" id="Fill-218" fill="#0A0A08"></path>
        <path d="M47.77,106.06 C40.42,116.55 32.56,122.59 32.43,130.77 C32.39,133.42 33.82,137.93 38.3,138.79 C41.21,139.35 45.21,136.99 45.3,132.2 C45.29,131.25 46.31,131.27 46.3,132.58 C46.16,136.36 44.97,140.76 42.96,144.33 L52.58,144.33 C50.58,140.76 49.38,136.36 49.25,132.58 C49.24,131.27 50.26,131.25 50.25,132.2 C50.33,136.99 54.33,139.35 57.24,138.79 C61.72,137.93 63.16,133.42 63.11,130.77 C62.98,122.59 55.12,116.55 47.77,106.06" id="Fill-219" fill="#0A0A08"></path>
        <path d="M47.77,223.45 C40.42,212.96 32.56,206.92 32.43,198.73 C32.39,196.08 33.82,191.58 38.3,190.72 C41.21,190.16 45.21,192.52 45.3,197.31 C45.29,198.26 46.31,198.23 46.3,196.93 C46.16,193.15 44.97,188.75 42.96,185.17 L52.58,185.17 C50.58,188.75 49.38,193.15 49.25,196.93 C49.24,198.23 50.26,198.26 50.25,197.31 C50.33,192.52 54.33,190.16 57.24,190.72 C61.72,191.58 63.16,196.08 63.11,198.73 C62.98,206.92 55.12,212.96 47.77,223.45" id="Fill-220" fill="#0A0A08"></path>
        <path d="M130.23,223.45 C122.88,212.96 115.02,206.92 114.89,198.73 C114.84,196.08 116.28,191.58 120.76,190.72 C123.67,190.16 127.67,192.52 127.75,197.31 C127.74,198.26 128.76,198.23 128.75,196.93 C128.62,193.15 127.42,188.75 125.42,185.17 L135.04,185.17 C133.03,188.75 131.84,193.15 131.7,196.93 C131.69,198.23 132.71,198.26 132.7,197.31 C132.79,192.52 136.79,190.16 139.7,190.72 C144.18,191.58 145.61,196.08 145.57,198.73 C145.44,206.92 137.58,212.96 130.23,223.45" id="Fill-221" fill="#0A0A08"></path>
        <path d="M130.23,106.06 C122.88,116.55 115.02,122.59 114.89,130.77 C114.84,133.42 116.28,137.93 120.76,138.79 C123.67,139.35 127.67,136.99 127.75,132.2 C127.74,131.25 128.76,131.27 128.75,132.58 C128.62,136.36 127.42,140.76 125.42,144.33 L135.04,144.33 C133.03,140.76 131.84,136.36 131.7,132.58 C131.69,131.27 132.71,131.25 132.7,132.2 C132.79,136.99 136.79,139.35 139.7,138.79 C144.18,137.93 145.61,133.42 145.57,130.77 C145.44,122.59 137.58,116.55 130.23,106.06" id="Fill-222" fill="#0A0A08"></path>
        <path d="M9.78,38.22 C11.51,29.07 13.35,22.2 18.18,14.75 L8.36,14.75 L8.36,17.96 L5.75,17.96 L5.75,11.91 L20.11,11.91 L21.89,14.75 C16.75,20.35 12.06,38.48 12.89,38.22 L9.78,38.22" id="Fill-223" fill="#0A0A08"></path>
        <path d="M168.22,212.17 C166.49,221.32 164.65,228.19 159.82,235.65 L169.64,235.65 L169.64,232.44 L172.25,232.44 L172.25,238.49 L157.88,238.49 L156.11,235.65 C161.24,230.04 165.94,211.91 165.11,212.17 L168.22,212.17" id="Fill-224" fill="#0A0A08"></path>
    </g>
</svg>