<?xml version="1.0" encoding="UTF-8" standalone="no"?>
<svg width="179px" height="250px" viewBox="0 0 179 250" version="1.1" xmlns="http://www.w3.org/2000/svg" xmlns:xlink="http://www.w3.org/1999/xlink">
    <!-- Generator: Sketch 39.1 (31720) - http://www.bohemiancoding.com/sketch -->
    <title>8S</title>
    <desc>Created with Sketch.</desc>
    <defs></defs>
    <g id="Page-1" stroke="none" stroke-width="1" fill="none" fill-rule="evenodd">
        <path d="M9.19,0.87 L169.97,0.87 C174.67,0.87 178.48,4.68 178.48,9.38 L178.48,241.02 C178.48,245.71 174.67,249.52 169.97,249.52 L9.19,249.52 C4.5,249.52 0.69,245.71 0.69,241.02 L0.69,9.38 C0.69,4.68 4.5,0.87 9.19,0.87" id="Fill-225" fill="#FFFFFF"></path>
        <path d="M48.35,26.94 C41.01,37.44 33.14,43.47 33.01,51.66 C32.97,54.31 34.4,58.81 38.88,59.68 C41.79,60.23 45.8,57.88 45.88,53.09 C45.87,52.13 46.89,52.16 46.88,53.47 C46.74,57.24 45.55,61.64 43.54,65.22 L53.17,65.22 C51.16,61.64 49.97,57.24 49.83,53.47 C49.82,52.16 50.84,52.13 50.83,53.09 C50.91,57.88 54.92,60.23 57.82,59.68 C62.31,58.81 63.74,54.31 63.7,51.66 C63.56,43.47 55.7,37.44 48.35,26.94" id="Fill-227" fill="#0A0A08"></path>
        <path d="M14.4,40.72 C10.97,45.09 7.3,47.61 7.23,51.02 C7.21,52.12 7.88,54 9.98,54.36 C11.34,54.59 13.21,53.61 13.25,51.62 C13.24,51.22 13.72,51.23 13.71,51.77 C13.65,53.35 13.09,55.18 12.15,56.67 L16.65,56.67 C15.71,55.18 15.16,53.35 15.09,51.77 C15.08,51.23 15.56,51.22 15.56,51.62 C15.6,53.61 17.47,54.59 18.83,54.36 C20.92,54 21.59,52.12 21.57,51.02 C21.51,47.61 17.83,45.09 14.4,40.72" id="Fill-228" fill="#0A0A08"></path>
        <path d="M164.76,209.67 C161.33,205.3 157.66,202.78 157.6,199.37 C157.58,198.27 158.24,196.39 160.34,196.03 C161.7,195.8 163.57,196.78 163.61,198.78 C163.6,199.17 164.08,199.17 164.07,198.62 C164.01,197.05 163.45,195.21 162.51,193.72 L167.01,193.72 C166.07,195.21 165.52,197.05 165.45,198.62 C165.44,199.17 165.92,199.17 165.92,198.78 C165.96,196.78 167.83,195.8 169.19,196.03 C171.28,196.39 171.95,198.27 171.93,199.37 C171.87,202.78 168.2,205.3 164.76,209.67" id="Fill-229" fill="#0A0A08"></path>
        <path d="M130.81,26.94 C123.46,37.44 115.6,43.47 115.47,51.66 C115.43,54.31 116.86,58.81 121.34,59.68 C124.25,60.23 128.25,57.88 128.34,53.09 C128.33,52.13 129.35,52.16 129.34,53.47 C129.2,57.24 128.01,61.64 126,65.22 L135.62,65.22 C133.62,61.64 132.42,57.24 132.29,53.47 C132.28,52.16 133.3,52.13 133.28,53.09 C133.37,57.88 137.37,60.23 140.28,59.68 C144.76,58.81 146.2,54.31 146.15,51.66 C146.02,43.47 138.16,37.44 130.81,26.94" id="Fill-230" fill="#0A0A08"></path>
        <path d="M89.58,66.5 C82.23,76.99 74.37,83.03 74.24,91.22 C74.2,93.87 75.63,98.37 80.11,99.23 C83.02,99.79 87.03,97.43 87.11,92.65 C87.1,91.69 88.12,91.72 88.11,93.02 C87.97,96.8 86.78,101.2 84.77,104.78 L94.4,104.78 C92.39,101.2 91.19,96.8 91.06,93.02 C91.05,91.72 92.07,91.69 92.06,92.65 C92.14,97.43 96.14,99.79 99.05,99.23 C103.54,98.37 104.97,93.87 104.92,91.22 C104.79,83.03 96.93,76.99 89.58,66.5" id="Fill-231" fill="#0A0A08"></path>
        <path d="M48.35,106.06 C41.01,116.55 33.14,122.59 33.01,130.77 C32.97,133.42 34.4,137.93 38.88,138.79 C41.79,139.35 45.8,136.99 45.88,132.2 C45.87,131.25 46.89,131.27 46.88,132.58 C46.74,136.36 45.55,140.76 43.54,144.33 L53.17,144.33 C51.16,140.76 49.97,136.36 49.83,132.58 C49.82,131.27 50.84,131.25 50.83,132.2 C50.91,136.99 54.92,139.35 57.82,138.79 C62.31,137.93 63.74,133.42 63.7,130.77 C63.56,122.59 55.7,116.55 48.35,106.06" id="Fill-232" fill="#0A0A08"></path>
        <path d="M48.35,223.45 C41.01,212.96 33.14,206.92 33.01,198.73 C32.97,196.08 34.4,191.58 38.88,190.72 C41.79,190.16 45.8,192.52 45.88,197.31 C45.87,198.26 46.89,198.23 46.88,196.93 C46.74,193.15 45.55,188.75 43.54,185.17 L53.17,185.17 C51.16,188.75 49.97,193.15 49.83,196.93 C49.82,198.23 50.84,198.26 50.83,197.31 C50.91,192.52 54.92,190.16 57.82,190.72 C62.31,191.58 63.74,196.08 63.7,198.73 C63.56,206.92 55.7,212.96 48.35,223.45" id="Fill-233" fill="#0A0A08"></path>
        <path d="M130.81,223.45 C123.46,212.96 115.6,206.92 115.47,198.73 C115.43,196.08 116.86,191.58 121.34,190.72 C124.25,190.16 128.25,192.52 128.34,197.31 C128.33,198.26 129.35,198.23 129.34,196.93 C129.2,193.15 128.01,188.75 126,185.17 L135.62,185.17 C133.62,188.75 132.42,193.15 132.29,196.93 C132.28,198.23 133.3,198.26 133.28,197.31 C133.37,192.52 137.37,190.16 140.28,190.72 C144.76,191.58 146.2,196.08 146.15,198.73 C146.02,206.92 138.16,212.96 130.81,223.45" id="Fill-234" fill="#0A0A08"></path>
        <path d="M89.58,183.89 C82.23,173.4 74.37,167.36 74.24,159.18 C74.2,156.53 75.63,152.02 80.11,151.16 C83.02,150.6 87.03,152.96 87.11,157.75 C87.1,158.7 88.12,158.68 88.11,157.37 C87.97,153.59 86.78,149.2 84.77,145.62 L94.4,145.62 C92.39,149.2 91.19,153.59 91.06,157.37 C91.05,158.68 92.07,158.7 92.06,157.75 C92.14,152.96 96.14,150.6 99.05,151.16 C103.54,152.02 104.97,156.53 104.92,159.18 C104.79,167.36 96.93,173.4 89.58,183.89" id="Fill-235" fill="#0A0A08"></path>
        <path d="M130.81,106.06 C123.46,116.55 115.6,122.59 115.47,130.77 C115.43,133.42 116.86,137.93 121.34,138.79 C124.25,139.35 128.25,136.99 128.34,132.2 C128.33,131.25 129.35,131.27 129.34,132.58 C129.2,136.36 128.01,140.76 126,144.33 L135.62,144.33 C133.62,140.76 132.42,136.36 132.29,132.58 C132.28,131.27 133.3,131.25 133.28,132.2 C133.37,136.99 137.37,139.35 140.28,138.79 C144.76,137.93 146.2,133.42 146.15,130.77 C146.02,122.59 138.16,116.55 130.81,106.06" id="Fill-236" fill="#0A0A08"></path>
        <path d="M19.23,19.08 C19.29,16.39 16.81,14.46 14.25,14.54 C11.97,14.61 9.56,16.35 9.56,18.6 C9.56,21.42 12.3,22.82 14.64,22.88 C16.76,22.93 19.18,21.12 19.23,19.08 L19.23,19.08 Z M20.25,30.53 C20.47,27.33 17.64,25.17 14.46,25.14 C11.35,25.11 8.58,27.76 8.58,30.63 C8.58,33.71 12.19,35.39 14.52,35.4 C17.36,35.41 20.06,33.28 20.25,30.53 L20.25,30.53 Z M5.86,30.51 C5.99,26.98 7.26,25.66 9.78,23.81 C7.77,22.36 6.93,20.23 7.1,18.41 C7.51,14.01 10.9,11.81 14.6,11.91 C18.31,12.01 21.5,14.95 21.74,18.14 C21.96,20.92 21.14,22.26 19.17,23.72 C21.5,25.7 23,26.99 22.94,30.47 C22.88,33.95 19.93,38.09 14.78,38.22 C9.62,38.35 5.74,34.05 5.86,30.51 L5.86,30.51 Z" id="Fill-237" fill="#0A0A08"></path>
        <path d="M169.59,231.31 C169.65,234 167.17,235.93 164.61,235.85 C162.33,235.78 159.93,234.05 159.92,231.79 C159.92,228.98 162.66,227.57 165,227.51 C167.13,227.47 169.54,229.27 169.59,231.31 L169.59,231.31 Z M170.61,219.87 C170.83,223.07 168,225.22 164.82,225.25 C161.71,225.29 158.94,222.64 158.94,219.76 C158.94,216.68 162.55,215 164.88,215 C167.72,214.98 170.42,217.11 170.61,219.87 L170.61,219.87 Z M156.22,219.88 C156.35,223.41 157.63,224.74 160.14,226.59 C158.13,228.03 157.29,230.17 157.46,231.98 C157.87,236.38 161.26,238.58 164.97,238.48 C168.67,238.39 171.86,235.45 172.11,232.25 C172.32,229.47 171.5,228.13 169.53,226.67 C171.87,224.7 173.36,223.4 173.3,219.92 C173.25,216.44 170.29,212.3 165.14,212.17 C159.99,212.05 156.1,216.35 156.23,219.88 L156.22,219.88 L156.22,219.88 Z" id="Fill-238" fill="#0A0A08"></path>
    </g>
</svg>