<?xml version="1.0" encoding="UTF-8"?>
<svg width="46px" height="49px" viewBox="0 0 46 49" version="1.1" xmlns="http://www.w3.org/2000/svg" xmlns:xlink="http://www.w3.org/1999/xlink">
    <!-- Generator: Sketch 41 (35326) - http://www.bohemiancoding.com/sketch -->
    <title>club</title>
    <desc>Created with Sketch.</desc>
    <defs></defs>
    <g id="Page-1" stroke="none" stroke-width="1" fill="none" fill-rule="evenodd">
        <path d="M23.15412,0.746041 C13.33582,0.958981 8.93322,11.999301 16.20472,20.572751 C17.25932,21.823281 17.36812,22.540911 15.43672,21.339721 C10.54102,18.070071 1.15372,20.219521 0.67302,30.215401 C0.07922,42.531741 17.31012,46.080411 20.54542,32.983921 C20.71622,31.602141 21.84062,31.633671 21.56952,33.595041 C21.27452,38.918481 19.60992,43.894041 17.32192,48.746031 L28.99422,48.746031 C26.70632,43.894041 25.04162,38.918481 24.74662,33.595041 C24.47552,31.633671 25.59992,31.602141 25.77072,32.983921 C29.00602,46.080411 46.23692,42.531741 45.64312,30.215401 C45.16252,20.219521 35.77512,18.070071 30.87942,21.339721 C28.94802,22.540911 29.05682,21.823271 30.11142,20.572751 C37.38292,11.999301 32.98032,0.959001 23.16212,0.746041 C23.16212,0.745981 23.16212,0.746091 23.15212,0.746041 L23.15412,0.746041 Z" id="path147-0-8-1-6" fill="#000000"></path>
    </g>
</svg>