<?xml version="1.0" encoding="UTF-8" standalone="no"?>
<svg width="290px" height="201px" viewBox="0 0 290 201" version="1.1" xmlns="http://www.w3.org/2000/svg" xmlns:xlink="http://www.w3.org/1999/xlink">
    <!-- Generator: Sketch 39.1 (31720) - http://www.bohemiancoding.com/sketch -->
    <title>pips</title>
    <desc>Created with Sketch.</desc>
    <defs></defs>
    <g id="Page-1" stroke="none" stroke-width="1" fill="none" fill-rule="evenodd">
        <path d="M23.15412,0.746041 C13.33582,0.958981 8.93322,11.999301 16.20472,20.572751 C17.25932,21.823281 17.36812,22.540911 15.43672,21.339721 C10.54102,18.070071 1.15372,20.219521 0.67302,30.215401 C0.07922,42.531741 17.31012,46.080411 20.54542,32.983921 C20.71622,31.602141 21.84062,31.633671 21.56952,33.595041 C21.27452,38.918481 19.60992,43.894041 17.32192,48.746031 L28.99422,48.746031 C26.70632,43.894041 25.04162,38.918481 24.74662,33.595041 C24.47552,31.633671 25.59992,31.602141 25.77072,32.983921 C29.00602,46.080411 46.23692,42.531741 45.64312,30.215401 C45.16252,20.219521 35.77512,18.070071 30.87942,21.339721 C28.94802,22.540911 29.05682,21.823271 30.11142,20.572751 C37.38292,11.999301 32.98032,0.959001 23.16212,0.746041 C23.16212,0.745981 23.16212,0.746091 23.15212,0.746041 L23.15412,0.746041 Z" id="path147-0-8-1-6" fill="#000000"></path>
        <path d="M106.08912,48.746021 C106.08912,48.746021 101.42282,41.090551 95.12822,32.089761 C90.91722,26.066501 87.55062,19.544431 87.23762,13.926671 C86.87862,7.509361 90.27682,1.071291 96.42902,0.759261 C102.57752,0.447411 105.07322,5.707291 106.08912,10.043871 C107.10512,5.707281 109.60082,0.447411 115.74932,0.759261 C121.90152,1.071291 125.29972,7.509361 124.94072,13.926671 C124.62772,19.544431 121.26112,26.066501 117.05012,32.089761 C110.75552,41.090551 106.08912,48.746021 106.08912,48.746021 L106.08912,48.746021 Z" id="path163-0-2-5-8-7-9" fill="#D40000"></path>
        <path d="M23.15662,67.746041 C19.22932,67.834741 17.46822,72.434901 20.37682,76.007161 C20.79872,76.528231 20.84222,76.827241 20.06962,76.326741 C18.11132,74.964381 14.35642,75.859991 14.16412,80.024941 C13.92662,85.156751 20.81902,86.635361 22.11312,81.178491 C22.18112,80.602751 22.63122,80.615891 22.52272,81.433131 C22.40472,83.651231 21.73892,85.724371 20.82372,87.746031 L25.49242,87.746031 C24.57722,85.724371 23.91142,83.651221 23.79342,81.433131 C23.68492,80.615891 24.13472,80.602751 24.20302,81.178491 C25.49712,86.635361 32.38952,85.156751 32.15202,80.024941 C31.95972,75.860001 28.20482,74.964381 26.24652,76.326741 C25.47392,76.827241 25.51742,76.528221 25.93932,76.007161 C28.84792,72.434901 27.08682,67.834791 23.15962,67.746041 C23.15862,67.746031 23.15962,67.746061 23.15962,67.746041 L23.15662,67.746041 Z" id="path147-6-9-8-7-8" fill="#000000"></path>
        <path d="M106.08917,87.746031 C106.08917,87.746031 103.86447,84.556251 100.86347,80.805931 C98.85577,78.296241 97.25077,75.578711 97.10147,73.237981 C96.93037,70.564101 98.55047,67.881571 101.48357,67.751551 C104.41497,67.621621 105.60477,69.813231 106.08917,71.620141 C106.57357,69.813231 107.76347,67.621621 110.69477,67.751551 C113.62787,67.881571 115.24807,70.564101 115.07687,73.237981 C114.92767,75.578711 113.32257,78.296241 111.31497,80.805931 C108.31387,84.556251 106.08917,87.746031 106.08917,87.746031 L106.08917,87.746031 Z" id="path163-0-2-7-7-1-8-6" fill="#D40000"></path>
        <path d="M271.95133,48.746031 C266.76512,40.181191 261.30889,31.856861 254.49039,24.746031 C261.30889,17.635201 266.76512,9.310871 271.95133,0.746031 C277.13754,9.310871 282.59377,17.635201 289.41227,24.746031 C282.59377,31.856861 277.13754,40.181191 271.95133,48.746031 L271.95133,48.746031 Z" id="path155-4-1-8-2-8-2-7" fill="#D40000"></path>
        <path d="M271.95133,87.746031 C269.79041,84.177351 267.51698,80.708881 264.67594,77.746031 C267.51698,74.783181 269.79041,71.314711 271.95133,67.746031 C274.11225,71.314711 276.38568,74.783181 279.22672,77.746031 C276.38568,80.708881 274.11225,84.177351 271.95133,87.746031 L271.95133,87.746031 Z" id="path4273" fill="#D40000"></path>
        <path d="M23.15412,200.746021 C13.33582,200.533081 8.93322,189.492761 16.20472,180.919311 C17.25932,179.668781 17.36812,178.951151 15.43672,180.152341 C10.54102,183.421991 1.15372,181.272541 0.67302,171.276661 C0.07922,158.960321 17.31012,155.411651 20.54542,168.508141 C20.71622,169.889921 21.84062,169.858391 21.56952,167.897021 C21.27452,162.573581 19.60992,157.598021 17.32192,152.746031 L28.99422,152.746031 C26.70632,157.598021 25.04162,162.573581 24.74662,167.897021 C24.47552,169.858391 25.59992,169.889921 25.77072,168.508141 C29.00602,155.411651 46.23692,158.960321 45.64312,171.276661 C45.16252,181.272541 35.77512,183.421991 30.87942,180.152341 C28.94802,178.951151 29.05682,179.668791 30.11142,180.919311 C37.38292,189.492761 32.98032,200.533061 23.16212,200.746021 C23.16212,200.746081 23.16212,200.745971 23.15212,200.746021 L23.15412,200.746021 Z" id="path4279" fill="#000000"></path>
        <path d="M106.08912,152.746041 C106.08912,152.746041 101.42282,160.401511 95.12822,169.402301 C90.91722,175.425561 87.55062,181.947631 87.23762,187.565391 C86.87862,193.982701 90.27682,200.420771 96.42902,200.732801 C102.57752,201.044651 105.07322,195.784771 106.08912,191.448191 C107.10512,195.784781 109.60082,201.044651 115.74932,200.732801 C121.90152,200.420771 125.29972,193.982701 124.94072,187.565391 C124.62772,181.947631 121.26112,175.425561 117.05012,169.402301 C110.75552,160.401511 106.08912,152.746041 106.08912,152.746041 L106.08912,152.746041 Z" id="path4283" fill="#D40000"></path>
        <path d="M23.15662,133.746021 C19.22932,133.657321 17.46822,129.057161 20.37682,125.484901 C20.79872,124.963831 20.84222,124.664821 20.06962,125.165321 C18.11132,126.527681 14.35642,125.632071 14.16412,121.467121 C13.92662,116.335311 20.81902,114.856701 22.11312,120.313571 C22.18112,120.889311 22.63122,120.876171 22.52272,120.058931 C22.40472,117.840831 21.73892,115.767691 20.82372,113.746031 L25.49242,113.746031 C24.57722,115.767691 23.91142,117.840841 23.79342,120.058931 C23.68492,120.876171 24.13472,120.889311 24.20302,120.313571 C25.49712,114.856701 32.38952,116.335311 32.15202,121.467121 C31.95972,125.632061 28.20482,126.527681 26.24652,125.165321 C25.47392,124.664821 25.51742,124.963841 25.93932,125.484901 C28.84792,129.057161 27.08682,133.657271 23.15962,133.746021 C23.15862,133.746031 23.15962,133.746001 23.15962,133.746021 L23.15662,133.746021 Z" id="path4285" fill="#000000"></path>
        <path d="M106.08917,113.746031 C106.08917,113.746031 103.86447,116.935811 100.86347,120.686131 C98.85577,123.195821 97.25077,125.913351 97.10147,128.254081 C96.93037,130.927961 98.55047,133.610491 101.48357,133.740511 C104.41497,133.870441 105.60477,131.678831 106.08917,129.871921 C106.57357,131.678831 107.76347,133.870441 110.69477,133.740511 C113.62787,133.610491 115.24807,130.927961 115.07687,128.254081 C114.92767,125.913351 113.32257,123.195821 111.31497,120.686131 C108.31387,116.935811 106.08917,113.746031 106.08917,113.746031 L106.08917,113.746031 Z" id="path4289" fill="#D40000"></path>
        <path d="M271.95133,152.746031 C266.76512,161.310871 261.30889,169.635201 254.49039,176.746031 C261.30889,183.856861 266.76512,192.181191 271.95133,200.746031 C277.13754,192.181191 282.59377,183.856861 289.41227,176.746031 C282.59377,169.635201 277.13754,161.310871 271.95133,152.746031 L271.95133,152.746031 Z" id="path4291" fill="#D40000"></path>
        <path d="M271.95133,113.746031 C269.79041,117.314711 267.51698,120.783181 264.67594,123.746031 C267.51698,126.708881 269.79041,130.177351 271.95133,133.746031 C274.11225,130.177351 276.38568,126.708881 279.22672,123.746031 C276.38568,120.783181 274.11225,117.314711 271.95133,113.746031 L271.95133,113.746031 Z" id="path4293" fill="#D40000"></path>
        <path d="M189.02022,0.746031 C179.79422,13.903151 169.92252,21.474601 169.75852,31.739361 C169.70352,35.063261 171.50062,40.712791 177.12962,41.794151 C180.78162,42.492471 185.80972,39.536671 185.91472,33.531631 C185.89872,32.336081 187.18062,32.367151 187.16862,34.005351 C186.99662,38.742061 185.49722,44.256911 182.97722,48.746031 L195.06322,48.746031 C192.54322,44.256901 191.04382,38.742061 190.87182,34.005351 C190.85982,32.367151 192.14172,32.336081 192.12572,33.531631 C192.23072,39.536671 197.25882,42.492471 200.91082,41.794151 C206.53982,40.712791 208.33692,35.063261 208.28192,31.739361 C208.11792,21.474601 198.24622,13.903151 189.02022,0.746031 L189.02022,0.746031 Z" id="path4259" fill="#000000"></path>
        <path d="M189.02022,67.746031 C184.70962,73.228171 180.09742,76.382931 180.02082,80.659931 C179.99482,82.044881 180.83472,84.398851 183.46472,84.849411 C185.17102,85.140391 187.52022,83.908801 187.56932,81.406691 C187.55932,80.908541 188.16072,80.921501 188.15512,81.604071 C188.07512,83.577711 187.37422,85.875561 186.19682,87.746031 L191.84362,87.746031 C190.66622,85.875571 189.96562,83.577711 189.88532,81.604071 C189.87532,80.921491 190.47862,80.908541 190.47112,81.406691 C190.52012,83.908801 192.86942,85.140391 194.57572,84.849411 C197.20572,84.398851 198.04532,82.044881 198.01962,80.659931 C197.94262,76.382941 193.33072,73.228181 189.02022,67.746031 L189.02022,67.746031 Z" id="path4261" fill="#000000"></path>
        <path d="M189.02022,200.746031 C179.79422,187.588911 169.92252,180.017461 169.75852,169.752701 C169.70352,166.428801 171.50062,160.779271 177.12962,159.697911 C180.78162,158.999591 185.80972,161.955391 185.91472,167.960431 C185.89872,169.155981 187.18062,169.124911 187.16862,167.486711 C186.99662,162.750001 185.49722,157.235151 182.97722,152.746031 L195.06322,152.746031 C192.54322,157.235161 191.04382,162.750001 190.87182,167.486711 C190.85982,169.124911 192.14172,169.155981 192.12572,167.960431 C192.23072,161.955391 197.25882,158.999591 200.91082,159.697911 C206.53982,160.779271 208.33692,166.428801 208.28192,169.752701 C208.11792,180.017461 198.24622,187.588911 189.02022,200.746031 L189.02022,200.746031 Z" id="path4263" fill="#000000"></path>
        <path d="M189.02022,133.746031 C184.70962,128.263891 180.09742,125.109131 180.02082,120.832131 C179.99482,119.447181 180.83472,117.093211 183.46472,116.642651 C185.17102,116.351671 187.52022,117.583261 187.56932,120.085371 C187.55932,120.583521 188.16072,120.570561 188.15512,119.887991 C188.07512,117.914351 187.37422,115.616501 186.19682,113.746031 L191.84362,113.746031 C190.66622,115.616491 189.96562,117.914351 189.88532,119.887991 C189.87532,120.570571 190.47862,120.583521 190.47112,120.085371 C190.52012,117.583261 192.86942,116.351671 194.57572,116.642651 C197.20572,117.093211 198.04532,119.447181 198.01962,120.832131 C197.94262,125.109121 193.33072,128.263881 189.02022,133.746031 L189.02022,133.746031 Z" id="path4265" fill="#000000"></path>
    </g>
</svg>